<?xml version="1.0" standalone="no"?>
<!DOCTYPE svg PUBLIC "-//W3C//DTD SVG 1.1//EN" "http://www.w3.org/Graphics/SVG/1.1/DTD/svg11.dtd" >
<svg xmlns="http://www.w3.org/2000/svg" xmlns:xlink="http://www.w3.org/1999/xlink" version="1.1">
<metadata>
Created by FontForge 20201107 at Thu Oct 31 06:45:10 2024
 By 
Copyright (c) 2019 by Daniel Hernandez &#38; Rodrigo Fuenzalida. All rights reserved.
</metadata>
<defs>
<font id="Biennale-Medium" horiz-adv-x="0" >
  <font-face 
    font-family="Biennale Medium"
    font-weight="500"
    font-stretch="normal"
    units-per-em="2048"
    panose-1="0 0 6 0 0 0 0 0 0 0"
    ascent="1638"
    descent="-410"
    x-height="1079"
    cap-height="1423"
    bbox="-1507 -543 4520 1980"
    underline-thickness="102"
    underline-position="-204"
    unicode-range="U+0020-FB02"
  />
<missing-glyph horiz-adv-x="1290" 
d="M205 1495h880v-1495h-880v1495zM338 1423l307 -587l307 587h-614zM600 748l-313 598v-1196zM692 748l312 -598v1196zM645 659l-307 -587h614z" />
    <glyph glyph-name="fi" unicode="fi" horiz-adv-x="1083" 
d="M639 1350q-96 0 -150.5 -58t-54.5 -162v-51h516v-1079h-215v893h-301v-893h-215v893h-186v186h186v31q0 193 108 301.5t306 108.5h317v-170h-311z" />
    <glyph glyph-name="fl" unicode="fl" horiz-adv-x="1126" 
d="M993 1497v-1497h-217v1325h-137q-96 0 -150.5 -57t-54.5 -160v-39h205v-176h-205v-893h-215v893h-186v186h186v8q0 192 108 301t306 109h360z" />
    <glyph glyph-name=".notdef" horiz-adv-x="1290" 
d="M205 1495h880v-1495h-880v1495zM338 1423l307 -587l307 587h-614zM600 748l-313 598v-1196zM692 748l312 -598v1196zM645 659l-307 -587h614z" />
    <glyph glyph-name=".null" 
 />
    <glyph glyph-name="nonmarkingreturn" horiz-adv-x="682" 
 />
    <glyph glyph-name="space" unicode=" " horiz-adv-x="442" 
 />
    <glyph glyph-name="exclam" unicode="!" horiz-adv-x="520" 
d="M172 449l-37 1048h250l-39 -1048h-174zM260 -18q-57 0 -96 38t-39 95q0 59 38.5 98t96.5 39q59 0 97 -38.5t38 -98.5q0 -57 -38.5 -95t-96.5 -38z" />
    <glyph glyph-name="quotedbl" unicode="&#x22;" horiz-adv-x="706" 
d="M117 993l-17 471h193l-19 -471h-157zM432 993l-14 471h188l-16 -471h-158z" />
    <glyph glyph-name="numbersign" unicode="#" horiz-adv-x="1415" 
d="M1358 903h-252l-98 -360h211v-168h-256l-103 -375h-182l102 375h-329l-103 -375h-178l102 375h-213v168h258l101 360h-217v168h262l96 352h176l-96 -352h332l96 352h180l-96 -352h207v-168zM825 543l101 360h-332l-98 -360h329z" />
    <glyph glyph-name="dollar" unicode="$" horiz-adv-x="1015" 
d="M940 373q0 -138 -89.5 -231.5t-244.5 -118.5v-189h-176v184q-139 15 -238 95.5t-137 214.5l189 73q25 -103 96.5 -159t177.5 -56q101 0 160 49t59 132q0 50 -21.5 89.5t-57.5 65.5t-83 47.5t-98.5 40.5t-103 40.5t-98.5 51t-83 67.5t-57.5 95t-21.5 129q0 138 84.5 230
t236.5 112v187h176v-189q120 -20 201.5 -90t110.5 -180l-189 -72q-48 180 -225 180q-94 0 -146.5 -44.5t-52.5 -116.5q0 -60 35 -103t90.5 -69.5t122.5 -50.5t134.5 -55.5t123 -73.5t90.5 -114.5t35 -170.5z" />
    <glyph glyph-name="percent" unicode="%" horiz-adv-x="1546" 
d="M377 780q-139 0 -231.5 95.5t-92.5 234.5q0 136 93 232t231 96q139 0 230 -95.5t91 -232.5q0 -140 -91 -235t-230 -95zM279 0l819 1423h172l-821 -1423h-170zM377 920q77 0 127.5 54t50.5 136q0 79 -51 134.5t-127 55.5q-77 0 -128.5 -55.5t-51.5 -134.5q0 -82 51 -136
t129 -54zM1171 -14q-139 0 -231 94t-92 233q0 138 92.5 234t230.5 96q139 0 230.5 -96t91.5 -234q0 -139 -91 -233t-231 -94zM1171 123q77 0 129 54.5t52 135.5q0 79 -52.5 135t-128.5 56q-77 0 -128.5 -56t-51.5 -135q0 -82 51.5 -136t128.5 -54z" />
    <glyph glyph-name="ampersand" unicode="&#x26;" horiz-adv-x="1382" 
d="M1346 0h-240l-121 121q-160 -141 -405 -141q-210 0 -354 117t-144 296q0 255 248 393q-54 72 -76.5 138t-22.5 143q0 162 118 267.5t310 105.5q190 0 311 -106t140 -285h-225q-13 81 -71 132.5t-157 51.5q-91 0 -148.5 -53.5t-57.5 -128.5t37.5 -130.5t165.5 -191.5
q23 -25 36 -39l285 -301q102 151 108 379l205 -82q-14 -274 -170 -446zM582 172q151 0 260 90l-363 359q-6 5 -33 32q-71 -46 -107 -101.5t-36 -135.5q0 -105 83 -174.5t196 -69.5z" />
    <glyph glyph-name="quotesingle" unicode="'" horiz-adv-x="391" 
d="M117 993l-17 471h193l-19 -471h-157z" />
    <glyph glyph-name="parenleft" unicode="(" horiz-adv-x="671" 
d="M516 -231q-196 146 -316 380t-120 539t120 539.5t316 380.5l141 -142q-370 -296 -370 -778q0 -485 370 -778z" />
    <glyph glyph-name="parenright" unicode=")" horiz-adv-x="671" 
d="M154 -231l-142 141q371 291 371 778q0 484 -371 778l142 142q197 -145 316.5 -379.5t119.5 -540.5t-119.5 -540t-316.5 -379z" />
    <glyph glyph-name="asterisk" unicode="*" horiz-adv-x="839" 
d="M340 797l16 225l-190 -129l-80 145l215 103l-215 104l80 144l190 -129l-16 237h160l-17 -237l191 129l80 -144l-213 -104l213 -103l-80 -145l-191 129l17 -225h-160z" />
    <glyph glyph-name="plus" unicode="+" horiz-adv-x="1001" 
d="M940 743v-186h-342v-381h-192v381h-345v186h345v375h192v-375h342z" />
    <glyph glyph-name="comma" unicode="," horiz-adv-x="430" 
d="M215 252q58 0 96.5 -38t38.5 -99q0 -57 -43 -144l-98 -194h-127l106 213q-49 8 -78.5 41t-29.5 86q0 59 38.5 97t96.5 38z" />
    <glyph glyph-name="hyphen" unicode="-" horiz-adv-x="780" 
d="M117 422v178h545v-178h-545z" />
    <glyph glyph-name="period" unicode="." horiz-adv-x="440" 
d="M219 -18q-57 0 -96 38t-39 95q0 59 39 98t96 39q59 0 97 -38.5t38 -98.5q0 -57 -38.5 -95t-96.5 -38z" />
    <glyph glyph-name="slash" unicode="/" horiz-adv-x="718" 
d="M66 -102l395 1558h188l-391 -1558h-192z" />
    <glyph glyph-name="zero" unicode="0" horiz-adv-x="1425" 
d="M713 -23q-283 0 -450 197.5t-167 538.5q0 344 166.5 537.5t450.5 193.5q285 0 450.5 -194t165.5 -537q0 -340 -167 -538t-449 -198zM713 182q181 0 288 140t107 389t-107 388.5t-288 139.5t-288.5 -139.5t-107.5 -388.5t107.5 -389t288.5 -140z" />
    <glyph glyph-name="one" unicode="1" horiz-adv-x="778" 
d="M541 180h184v-180h-637v180h238v867h-232v180h232v196h215v-1243z" />
    <glyph glyph-name="two" unicode="2" horiz-adv-x="1138" 
d="M387 182h668v-182h-981v143l514 516q221 213 221 381q0 97 -68 158.5t-178 61.5q-102 0 -178 -59t-106 -169l-205 68q40 158 173.5 252t315.5 94q210 0 337.5 -109t127.5 -288q0 -135 -71 -253.5t-201 -240.5z" />
    <glyph glyph-name="three" unicode="3" horiz-adv-x="1167" 
d="M633 842q194 0 320 -119t126 -305q0 -191 -143 -317t-367 -126q-196 0 -338 90t-184 232l199 80q28 -96 113 -155.5t204 -59.5q132 0 211.5 75.5t79.5 194.5q0 120 -79.5 191t-196.5 71h-199v148l407 409h-673v172h917v-172l-399 -409h2z" />
    <glyph glyph-name="four" unicode="4" horiz-adv-x="1210" 
d="M1147 500v-172h-174v-328h-215v328h-719v155l721 938h213v-921h174zM760 500v639l-492 -639h492z" />
    <glyph glyph-name="five" unicode="5" horiz-adv-x="1140" 
d="M551 885q230 0 371 -124.5t141 -328.5q0 -203 -140.5 -330t-375.5 -127q-187 0 -317.5 84.5t-182.5 243.5l199 80q27 -104 109 -162.5t194 -58.5q131 0 212 76.5t81 195.5q0 120 -82 199.5t-215 79.5h-371l39 710h762v-172h-578l-20 -366h174z" />
    <glyph glyph-name="six" unicode="6" horiz-adv-x="1177" 
d="M600 946q148 0 265 -58.5t184 -168t67 -252.5q0 -144 -68 -256.5t-185.5 -174t-264.5 -61.5q-225 0 -375.5 138.5t-150.5 351.5q0 185 129 352l463 606h254l-369 -479q16 2 51 2zM598 162q129 0 213 86t84 217q0 133 -84 219t-213 86q-130 0 -217.5 -87t-87.5 -218
q0 -129 88 -216t217 -87z" />
    <glyph glyph-name="seven" unicode="7" horiz-adv-x="1009" 
d="M31 1423h936v-166l-496 -1257h-242l496 1239h-694v184z" />
    <glyph glyph-name="eight" unicode="8" horiz-adv-x="1177" 
d="M801 756q125 -40 205.5 -140.5t80.5 -232.5q0 -181 -139.5 -294.5t-357.5 -113.5q-219 0 -359.5 113.5t-140.5 294.5q0 133 78.5 233.5t202.5 141.5q-99 39 -160 121t-61 200q0 158 119 261.5t321 103.5q200 0 319 -103.5t119 -263.5q0 -117 -62 -199.5t-165 -121.5z
M590 1268q-103 0 -168.5 -61t-65.5 -154q0 -94 66 -156.5t168 -62.5q101 0 166 62.5t65 156.5q0 93 -64.5 154t-166.5 61zM590 154q128 0 204 71t76 185t-77.5 187t-202.5 73q-126 0 -204.5 -73t-78.5 -187t77 -185t206 -71z" />
    <glyph glyph-name="nine" unicode="9" horiz-adv-x="1175" 
d="M580 1448q225 0 375.5 -138.5t150.5 -351.5q0 -185 -129 -352l-463 -606h-252l367 479q-16 -2 -51 -2q-226 0 -371.5 132t-145.5 347q0 144 68.5 257t186.5 174t264 61zM580 653q131 0 218 86.5t87 218.5q0 129 -87.5 216.5t-217.5 87.5q-127 0 -212 -86.5t-85 -217.5
q0 -133 84.5 -219t212.5 -86z" />
    <glyph glyph-name="colon" unicode=":" horiz-adv-x="489" 
d="M246 672q-58 0 -96.5 38t-38.5 97t38.5 97t96.5 38t96.5 -38t38.5 -97t-38.5 -97t-96.5 -38zM246 -18q-58 0 -96.5 38t-38.5 95q0 60 38 98.5t97 38.5t97 -38.5t38 -98.5q0 -57 -38.5 -95t-96.5 -38z" />
    <glyph glyph-name="semicolon" unicode=";" horiz-adv-x="493" 
d="M246 664q-57 0 -96 38.5t-39 96.5t39 96.5t96 38.5q58 0 96.5 -38t38.5 -97t-38.5 -97t-96.5 -38zM248 252q58 0 96.5 -38t38.5 -99q0 -62 -43 -144l-96 -194h-129l106 213q-47 8 -76.5 41.5t-29.5 85.5q0 59 38.5 97t94.5 38z" />
    <glyph glyph-name="less" unicode="&#x3c;" horiz-adv-x="864" 
d="M760 1098v-199l-488 -278l488 -279v-201l-703 412v137z" />
    <glyph glyph-name="equal" unicode="=" horiz-adv-x="1112" 
d="M127 762v186h858v-186h-858zM127 285v184h858v-184h-858z" />
    <glyph glyph-name="greater" unicode="&#x3e;" horiz-adv-x="864" 
d="M104 1098l703 -408v-137l-703 -412v201l490 279l-490 278v199z" />
    <glyph glyph-name="question" unicode="?" horiz-adv-x="944" 
d="M311 449v83q0 67 19 125t49 99t66.5 78t73 70t66.5 66t49 74.5t19 88.5q0 85 -49 131.5t-135 46.5q-82 0 -141 -53t-74 -136l-203 66q29 150 146.5 240t285.5 90q184 0 290 -96.5t106 -266.5q0 -69 -21 -127t-54.5 -100t-73.5 -79.5t-80.5 -72.5t-74 -71t-54.5 -82.5
t-21 -100.5v-73h-189zM408 -18q-57 0 -96.5 38t-39.5 95q0 59 39 98t97 39q59 0 97 -38.5t38 -96.5q0 -59 -38.5 -97t-96.5 -38z" />
    <glyph glyph-name="at" unicode="@" horiz-adv-x="1624" 
d="M813 1192q162 0 299 -53t231 -146t146.5 -221.5t52.5 -277.5q0 -155 -86.5 -259t-212.5 -104q-79 0 -134 36t-75 101q-38 -70 -106 -109.5t-162 -39.5q-141 0 -235.5 102.5t-94.5 251.5q0 150 92.5 252t237.5 102q172 0 258 -137v115h129v-430q0 -47 22.5 -75t65.5 -28
q69 0 109.5 57.5t40.5 164.5q0 118 -41.5 220.5t-115.5 177.5t-183 118t-238 43q-171 0 -306 -77.5t-207.5 -208.5t-72.5 -290q0 -254 157 -409.5t421 -155.5q109 0 199 33.5t137 93.5l92 -109q-69 -73 -180.5 -115t-247.5 -42q-330 0 -529.5 195.5t-199.5 508.5
q0 149 54 280.5t149 227.5t233.5 151.5t300.5 55.5zM793 268q87 0 141.5 58t54.5 147q0 90 -54.5 148.5t-141.5 58.5q-83 0 -139 -59.5t-56 -147.5q0 -87 55 -146t140 -59z" />
    <glyph glyph-name="A" unicode="A" horiz-adv-x="1298" 
d="M1071 0l-131 373h-580l-131 -373h-215l504 1423h262l506 -1423h-215zM424 551h453l-226 643z" />
    <glyph glyph-name="B" unicode="B" horiz-adv-x="1275" 
d="M934 756q123 -43 191.5 -136.5t68.5 -222.5q0 -183 -121.5 -290t-337.5 -107h-579v1423h594q187 0 291 -94t104 -252q0 -105 -57 -189.5t-154 -131.5zM928 1036q0 97 -60 154t-174 57h-323v-422h317q103 0 171.5 58t68.5 153zM707 176q129 0 199.5 62.5t70.5 175.5
q0 111 -73 173t-199 62h-334v-473h336z" />
    <glyph glyph-name="C" unicode="C" horiz-adv-x="1497" 
d="M803 -25q-153 0 -286 55t-228.5 151.5t-150 233.5t-54.5 296q0 212 93.5 381t256.5 262.5t365 93.5q127 0 236.5 -36t189.5 -99.5t136.5 -144.5t88.5 -177l-209 -84q-51 159 -162.5 246.5t-283.5 87.5q-214 0 -352 -147.5t-138 -382.5t138.5 -382t355.5 -147
q170 0 280.5 87t161.5 247l209 -84q-33 -98 -89 -179.5t-135.5 -144.5t-187.5 -98t-235 -35z" />
    <glyph glyph-name="D" unicode="D" horiz-adv-x="1474" 
d="M684 1423q153 0 283.5 -50.5t223.5 -142t145.5 -225t52.5 -292.5q0 -213 -90 -375.5t-250 -250t-365 -87.5h-528v1423h528zM678 193q217 0 354 140t137 378t-137 379t-354 141h-305v-1038h305z" />
    <glyph glyph-name="E" unicode="E" horiz-adv-x="1155" 
d="M373 190h704v-190h-921v1423h909v-190h-692v-406h622v-188h-622v-449z" />
    <glyph glyph-name="F" unicode="F" horiz-adv-x="1110" 
d="M1061 1233h-688v-414h614v-190h-614v-629h-217v1423h905v-190z" />
    <glyph glyph-name="G" unicode="G" horiz-adv-x="1579" 
d="M1509 748q0 -177 -54 -323.5t-149 -244t-224.5 -151.5t-278.5 -54q-204 0 -368.5 94.5t-257.5 263t-93 378.5q0 212 93 380.5t256.5 262.5t367.5 94q124 0 231 -33.5t187 -93t138 -137t93 -170.5l-209 -86q-55 151 -167.5 232t-276.5 81q-217 0 -354.5 -148.5
t-137.5 -385.5q0 -239 141.5 -387t372.5 -148q188 0 315 105.5t166 302.5h-503v168h712z" />
    <glyph glyph-name="H" unicode="H" horiz-adv-x="1409" 
d="M1036 1423h217v-1423h-217v637h-663v-637h-217v1423h217v-592h663v592z" />
    <glyph glyph-name="I" unicode="I" horiz-adv-x="528" 
d="M156 0v1423h217v-1423h-217z" />
    <glyph glyph-name="J" unicode="J" horiz-adv-x="688" 
d="M39 0v193h90q94 0 146.5 57.5t52.5 161.5v1011h217v-1013q0 -192 -104.5 -301t-295.5 -109h-106z" />
    <glyph glyph-name="K" unicode="K" horiz-adv-x="1275" 
d="M1290 0h-256l-661 684v-684h-217v1423h217v-635l616 635h254l-647 -682z" />
    <glyph glyph-name="L" unicode="L" horiz-adv-x="1093" 
d="M373 195h694v-195h-911v1423h217v-1228z" />
    <glyph glyph-name="M" unicode="M" horiz-adv-x="1724" 
d="M1612 0h-203l-78 1116l-379 -1061h-180l-379 1057l-78 -1112h-202l98 1423h205v-2l47 2l399 -1114l400 1114l49 -2v2h200z" />
    <glyph glyph-name="N" unicode="N" horiz-adv-x="1409" 
d="M1038 1423h217v-1423h-182l-700 1047v-1047h-217v1423h180l702 -1050v1050z" />
    <glyph glyph-name="O" unicode="O" horiz-adv-x="1615" 
d="M809 -25q-203 0 -369.5 95.5t-262 264t-95.5 376.5q0 156 56 293.5t152.5 234.5t231.5 153t287 56t286 -56t230.5 -153t152.5 -234.5t56 -293.5t-56 -293t-152.5 -234t-230.5 -153t-286 -56zM809 182q221 0 362.5 148.5t141.5 380.5q0 233 -140.5 381.5t-363.5 148.5
q-224 0 -365 -148t-141 -382q0 -232 142 -380.5t364 -148.5z" />
    <glyph glyph-name="P" unicode="P" horiz-adv-x="1226" 
d="M702 1423q218 0 346 -115.5t128 -310.5q0 -194 -128.5 -309t-345.5 -115h-329v-573h-217v1423h546zM690 764q126 0 195 64t69 169q0 107 -69 171.5t-195 64.5h-317v-469h317z" />
    <glyph glyph-name="Q" unicode="Q" horiz-adv-x="1615" 
d="M1534 711q0 -195 -85.5 -357t-234.5 -260l281 -266l-147 -158l-347 330q-92 -25 -192 -25q-203 0 -369.5 95.5t-262 264t-95.5 376.5q0 156 56 293.5t152.5 234.5t231.5 153t287 56t286 -56t230.5 -153t152.5 -234.5t56 -293.5zM303 711q0 -232 142 -380.5t364 -148.5
q221 0 362.5 148.5t141.5 380.5q0 233 -140.5 381.5t-363.5 148.5q-224 0 -365 -148t-141 -382z" />
    <glyph glyph-name="R" unicode="R" horiz-adv-x="1253" 
d="M944 0l-465 618h-108v-618h-215v1423h546q216 0 345 -111.5t129 -291.5q0 -175 -127 -287t-338 -115l479 -618h-246zM371 1233v-457h325q126 0 196.5 62t70.5 166t-70.5 166.5t-196.5 62.5h-325z" />
    <glyph glyph-name="S" unicode="S" horiz-adv-x="1153" 
d="M569 -23q-195 0 -331 92t-183 257l205 77q31 -114 116.5 -175.5t211.5 -61.5q123 0 194.5 54.5t71.5 148.5q0 70 -40.5 121t-105.5 82t-143 58.5t-156.5 60.5t-143.5 76.5t-105.5 118t-40.5 175.5q0 172 124.5 278.5t340.5 106.5q183 0 305 -82t162 -225l-205 -78
q-60 199 -273 199q-112 0 -174.5 -50t-62.5 -131q0 -53 25 -93.5t68 -67.5t98 -49.5t116 -44t122.5 -45.5t116.5 -59t98 -79.5t68 -112.5t25 -153q0 -180 -137 -289t-367 -109z" />
    <glyph glyph-name="T" unicode="T" horiz-adv-x="1148" 
d="M1122 1423v-194h-438v-1229h-217v1229h-440v194h1095z" />
    <glyph glyph-name="U" unicode="U" horiz-adv-x="1376" 
d="M1020 1423h217v-886q0 -116 -34.5 -216.5t-100.5 -178.5t-172 -122.5t-240 -44.5q-135 0 -241.5 44.5t-173 122t-101.5 178t-35 217.5v886h219v-886q0 -159 86 -258t246 -99q158 0 244 100t86 257v886z" />
    <glyph glyph-name="V" unicode="V" horiz-adv-x="1312" 
d="M1077 1423h226l-515 -1423h-264l-514 1423h228l419 -1169z" />
    <glyph glyph-name="W" unicode="W" horiz-adv-x="1816" 
d="M1575 1423h215l-336 -1423h-252l-293 1126l-295 -1126h-249l-336 1423h213l252 -1161l299 1161h233l299 -1161z" />
    <glyph glyph-name="X" unicode="X" horiz-adv-x="1308" 
d="M1309 0h-250l-412 571l-401 -571h-248l530 737l-497 688h250l385 -534l368 534h250l-496 -704z" />
    <glyph glyph-name="Y" unicode="Y" horiz-adv-x="1282" 
d="M1276 1423l-526 -839v-584h-218v584l-526 839h244l391 -655l391 655h244z" />
    <glyph glyph-name="Z" unicode="Z" horiz-adv-x="1146" 
d="M1092 195l4 -195h-1041v150l750 1083h-733v190h1011v-151l-757 -1077h766z" />
    <glyph glyph-name="bracketleft" unicode="[" horiz-adv-x="626" 
d="M578 1425h-222v-1474h222v-182h-426v1839h426v-183z" />
    <glyph glyph-name="backslash" unicode="\" horiz-adv-x="722" 
d="M465 -102l-397 1558h190l399 -1558h-192z" />
    <glyph glyph-name="bracketright" unicode="]" horiz-adv-x="626" 
d="M51 1608h424v-1839h-424v182h219v1474h-219v183z" />
    <glyph glyph-name="asciicircum" unicode="^" horiz-adv-x="1005" 
d="M934 758h-213l-219 379l-215 -379h-213l356 608h133z" />
    <glyph glyph-name="underscore" unicode="_" horiz-adv-x="1069" 
d="M51 -223v176h965v-176h-965z" />
    <glyph glyph-name="grave" unicode="`" horiz-adv-x="610" 
d="M518 1204l-457 266l99 158l446 -285z" />
    <glyph glyph-name="a" unicode="a" horiz-adv-x="1320" 
d="M987 1079h201v-1079h-201v176q-63 -96 -160 -148.5t-221 -52.5q-152 0 -274 73.5t-190 203t-68 289.5q0 239 150.5 394t381.5 155q252 0 381 -193v182zM633 168q153 0 249.5 104t96.5 269q0 164 -95.5 267t-250.5 103q-148 0 -246 -106t-98 -264q0 -161 97.5 -267
t246.5 -106z" />
    <glyph glyph-name="b" unicode="b" horiz-adv-x="1320" 
d="M719 1102q230 0 379 -160t149 -401q0 -160 -68 -289.5t-190 -203t-274 -73.5q-122 0 -219.5 50t-161.5 141v-166h-201v1497h217v-565q138 170 369 170zM688 168q149 0 246.5 106t97.5 267q0 158 -98 264t-246 106q-155 0 -251.5 -103.5t-96.5 -266.5q0 -164 97 -268.5
t251 -104.5z" />
    <glyph glyph-name="c" unicode="c" horiz-adv-x="1177" 
d="M631 -25q-157 0 -285 73t-201 202t-73 289q0 240 158.5 401.5t398.5 161.5q98 0 184 -28.5t148.5 -77.5t105.5 -109t63 -127l-194 -78q-29 105 -108.5 165t-192.5 60q-150 0 -248 -102t-98 -266t98 -266.5t248 -102.5q115 0 196.5 60t110.5 163l195 -78
q-43 -139 -178 -239.5t-328 -100.5z" />
    <glyph glyph-name="d" unicode="d" horiz-adv-x="1320" 
d="M971 1497h217v-1497h-201v168q-64 -92 -162 -142.5t-219 -50.5q-152 0 -274 73.5t-190 203t-68 289.5q0 158 67 286t187.5 201.5t271.5 73.5q235 0 371 -172v567zM633 168q153 0 249.5 104t96.5 269q0 164 -95.5 267t-250.5 103q-148 0 -246 -106t-98 -264
q0 -161 97.5 -267t246.5 -106z" />
    <glyph glyph-name="e" unicode="e" horiz-adv-x="1216" 
d="M279 467q25 -137 122 -218t234 -81q119 0 191 42.5t110 129.5l178 -113q-145 -252 -485 -252q-167 0 -296.5 73.5t-199.5 202t-70 288.5q0 154 73 284t199.5 205.5t276.5 75.5q121 0 224.5 -45t172 -120.5t106.5 -173t38 -202.5q0 -56 -4 -96h-870zM281 633h659
q-22 136 -108 215.5t-211 79.5q-128 0 -222 -79t-118 -216z" />
    <glyph glyph-name="f" unicode="f" horiz-adv-x="724" 
d="M639 1350q-96 0 -150.5 -58t-54.5 -162v-51h268v-186h-268v-893h-215v893h-186v186h186v31q0 193 108 301.5t306 108.5h72v-170h-66z" />
    <glyph glyph-name="g" unicode="g" horiz-adv-x="1318" 
d="M987 1079h201v-932q0 -246 -151.5 -392t-415.5 -146q-208 0 -339.5 85.5t-185.5 239.5l185 72q38 -106 126 -160.5t216 -54.5q168 0 266 91t98 247v86q-63 -93 -160.5 -145t-220.5 -52q-152 0 -274 72t-190 195.5t-68 273.5q0 149 68.5 273.5t191 197t272.5 72.5
q124 0 221 -51t160 -144v172zM631 186q151 0 247.5 102.5t96.5 260.5q0 157 -96 259.5t-246 102.5q-147 0 -245.5 -104t-98.5 -258q0 -156 97.5 -259.5t244.5 -103.5z" />
    <glyph glyph-name="h" unicode="h" horiz-adv-x="1249" 
d="M694 1104q201 0 317.5 -119t116.5 -319v-666h-217v627q0 133 -74.5 208.5t-203.5 73.5q-119 0 -200 -75t-83 -177v-657h-217v1497h217v-539q59 67 147 106.5t197 39.5z" />
    <glyph glyph-name="i" unicode="i" horiz-adv-x="481" 
d="M242 1266q-67 0 -112.5 42.5t-45.5 108.5q0 67 45.5 111.5t112.5 44.5q66 0 111.5 -44.5t45.5 -111.5t-45 -109t-112 -42zM133 0v1079h217v-1079h-217z" />
    <glyph glyph-name="j" unicode="j" horiz-adv-x="485" 
d="M250 1266q-68 0 -113 42t-45 109t45 111.5t113 44.5q66 0 111 -44.5t45 -111.5t-44.5 -109t-111.5 -42zM-90 -375l-2 189h22q93 0 150 61t57 162v1042h215v-1040q0 -189 -110.5 -301.5t-286.5 -112.5h-45z" />
    <glyph glyph-name="k" unicode="k" horiz-adv-x="1064" 
d="M1075 0h-241l-484 522v-522h-217v1497h217v-864l465 446h248l-500 -497z" />
    <glyph glyph-name="l" unicode="l" horiz-adv-x="481" 
d="M133 0v1497h217v-1497h-217z" />
    <glyph glyph-name="m" unicode="m" horiz-adv-x="1947" 
d="M1409 1104q196 0 307 -122t111 -314v-668h-215v629q0 125 -69 203t-189 77q-117 0 -189.5 -74.5t-74.5 -166.5v-668h-218v629q0 125 -69 203t-189 77q-116 0 -189 -74t-75 -167v-668h-217v1079h205v-137q55 72 142.5 117t197.5 45q259 0 356 -199q46 88 143 143.5
t232 55.5z" />
    <glyph glyph-name="n" unicode="n" horiz-adv-x="1249" 
d="M694 1104q201 0 317.5 -119t116.5 -319v-666h-217v627q0 133 -74.5 208.5t-203.5 73.5q-119 0 -200 -75t-83 -177v-657h-217v1079h205v-137q58 74 149.5 118t206.5 44z" />
    <glyph glyph-name="o" unicode="o" horiz-adv-x="1280" 
d="M639 -25q-163 0 -293 73.5t-202 202.5t-72 288q0 244 159.5 403.5t407.5 159.5q249 0 409 -159.5t160 -403.5q0 -160 -72 -288.5t-202.5 -202t-294.5 -73.5zM641 170q155 0 252.5 103.5t97.5 265.5q0 163 -97 266.5t-253 103.5t-254 -103.5t-98 -266.5q0 -161 98 -265
t254 -104z" />
    <glyph glyph-name="p" unicode="p" horiz-adv-x="1320" 
d="M719 1102q152 0 273 -73.5t188 -202t67 -287.5t-68.5 -288t-190.5 -202.5t-273 -73.5q-232 0 -365 168v-510h-217v1446h201v-170q66 92 164 142.5t221 50.5zM688 168q148 0 246 105.5t98 265.5q0 161 -97.5 266.5t-246.5 105.5q-154 0 -251 -104t-97 -268
q0 -165 96.5 -268t251.5 -103z" />
    <glyph glyph-name="q" unicode="q" horiz-adv-x="1320" 
d="M987 1079h201v-1446h-217v510q-136 -168 -365 -168q-151 0 -273 73.5t-190.5 202.5t-68.5 288q0 243 148.5 403t377.5 160q123 0 222.5 -50.5t164.5 -142.5v170zM633 168q155 0 250.5 103t95.5 268q0 164 -96 268t-250 104q-149 0 -246.5 -105.5t-97.5 -266.5
q0 -160 98 -265.5t246 -105.5z" />
    <glyph glyph-name="r" unicode="r" horiz-adv-x="702" 
d="M338 942q57 73 144 117.5t188 44.5v-203q-143 -1 -231.5 -77t-88.5 -191v-633h-217v1079h205v-137z" />
    <glyph glyph-name="s" unicode="s" horiz-adv-x="989" 
d="M498 -25q-174 0 -293.5 70t-161.5 201l197 76q25 -80 93 -124t171 -44q92 0 145 37t53 102q0 42 -26 74t-69 51.5t-97.5 39t-111.5 35t-111.5 41.5t-97.5 57.5t-69 83.5t-26 118q0 144 110 226.5t296 82.5q152 0 256 -59.5t139 -168.5l-197 -75q-49 131 -202 131
q-82 0 -127 -33.5t-45 -91.5q0 -39 26 -68.5t69 -46.5t97.5 -35t111.5 -33t111.5 -41t97.5 -59t69 -87.5t26 -125.5q0 -157 -117.5 -245.5t-316.5 -88.5z" />
    <glyph glyph-name="t" unicode="t" horiz-adv-x="778" 
d="M590 0q-180 0 -276.5 100.5t-96.5 276.5v516h-192v186h104q100 0 100 105v174h211v-279h301v-186h-309v-494q0 -101 52 -155t149 -54h121v-190h-164z" />
    <glyph glyph-name="u" unicode="u" horiz-adv-x="1228" 
d="M881 1079h215v-1079h-203v137q-58 -74 -148 -118t-198 -44q-202 0 -314 121t-112 316v667h215v-641q0 -122 73 -195.5t197 -72.5q119 0 196 72.5t79 171.5v665z" />
    <glyph glyph-name="v" unicode="v" horiz-adv-x="1124" 
d="M887 1079h225l-426 -1079h-248l-426 1079h226l325 -872z" />
    <glyph glyph-name="w" unicode="w" horiz-adv-x="1615" 
d="M1370 1079h223l-288 -1079h-256l-240 842l-236 -842h-256l-292 1079h223l207 -870l233 870h244l233 -862z" />
    <glyph glyph-name="x" unicode="x" horiz-adv-x="1089" 
d="M1090 0h-240l-311 406l-316 -406h-229l428 557l-402 522h240l295 -383l291 383h233l-407 -536z" />
    <glyph glyph-name="y" unicode="y" horiz-adv-x="1126" 
d="M889 1079h225l-426 -1079l-143 -367h-213l147 367h-61l-402 1079h224l313 -901z" />
    <glyph glyph-name="z" unicode="z" horiz-adv-x="974" 
d="M319 176h607v-176h-875v156l588 747h-561v176h825v-161z" />
    <glyph glyph-name="braceleft" unicode="{" horiz-adv-x="655" 
d="M543 -231q-153 0 -240.5 93t-87.5 267v317q0 78 -42 114t-103 36h-41v184h41q61 0 103 36t42 114v317q0 174 87.5 266.5t240.5 92.5h57v-181h-29q-73 0 -112 -47.5t-39 -132.5v-311q0 -104 -43 -159t-115 -87q72 -32 115 -87t43 -159v-311q0 -85 39.5 -132.5t111.5 -47.5
h29v-182h-57z" />
    <glyph glyph-name="bar" unicode="|" horiz-adv-x="468" 
d="M152 -182v1650h165v-1650h-165z" />
    <glyph glyph-name="braceright" unicode="}" horiz-adv-x="655" 
d="M55 -231v182h29q72 0 113 47.5t41 132.5v311q0 105 42 159.5t113 86.5q-71 32 -113 86.5t-42 159.5v311q0 85 -40.5 132.5t-113.5 47.5h-29v181h58q153 0 240 -92.5t87 -266.5v-317q0 -78 42 -114t104 -36h41v-184h-41q-62 0 -104 -36t-42 -114v-317q0 -174 -87 -267
t-240 -93h-58z" />
    <glyph glyph-name="asciitilde" unicode="~" horiz-adv-x="1073" 
d="M727 494q-56 0 -106.5 17t-82.5 38t-76 38t-89 17q-53 0 -98 -20.5t-68 -57.5l-107 117q38 66 103.5 103.5t144.5 37.5q56 0 106.5 -17t82 -38t75.5 -38t88 -17q53 0 98.5 21t67.5 59l109 -119q-40 -66 -105 -103.5t-143 -37.5z" />
    <glyph glyph-name="uni00A0" unicode="&#xa0;" horiz-adv-x="442" 
 />
    <glyph glyph-name="exclamdown" unicode="&#xa1;" horiz-adv-x="497" 
d="M248 823q-57 0 -95 38.5t-38 96.5t38 97t95 39q59 0 98 -39t39 -97t-39 -96.5t-98 -38.5zM125 -367l37 992h174l37 -992h-248z" />
    <glyph glyph-name="cent" unicode="&#xa2;" horiz-adv-x="1087" 
d="M1022 483q-32 -104 -126.5 -188.5t-233.5 -106.5v-188h-179v186q-178 31 -289.5 166.5t-111.5 323.5q0 190 110.5 326t290.5 165v187h179v-189q136 -23 229 -107.5t127 -189.5l-189 -73q-27 88 -93 138t-161 50q-125 0 -206.5 -85.5t-81.5 -221.5q0 -135 81.5 -219
t206.5 -84q98 0 166 49.5t93 136.5z" />
    <glyph glyph-name="sterling" unicode="&#xa3;" horiz-adv-x="1140" 
d="M440 575v-385h604v-190h-821v575h-155v191h155v184q0 182 119 306t311 124q177 0 283.5 -81.5t142.5 -219.5l-186 -71q-54 182 -229 182q-109 0 -166.5 -69t-57.5 -171v-184h418v-191h-418z" />
    <glyph glyph-name="currency" unicode="&#xa4;" horiz-adv-x="1167" 
d="M1036 676q0 -138 -73 -250l106 -109l-125 -124l-108 110q-115 -72 -252 -72q-136 0 -250 70l-111 -108l-125 124l109 109q-76 109 -76 250q0 142 76 254l-109 108l125 125l109 -110q114 71 252 71q136 0 250 -71l110 110l125 -125l-108 -108q75 -110 75 -254zM584 406
q113 0 187.5 76t74.5 194q0 119 -74.5 195.5t-187.5 76.5t-187.5 -76.5t-74.5 -195.5q0 -117 75.5 -193.5t186.5 -76.5z" />
    <glyph glyph-name="yen" unicode="&#xa5;" horiz-adv-x="1204" 
d="M1159 1352l-426 -740h234v-143h-258v-135h258v-144h-258v-190h-215v190h-258v144h258v135h-258v143h235l-424 740h234l323 -602l322 602h233z" />
    <glyph glyph-name="brokenbar" unicode="&#xa6;" horiz-adv-x="468" 
d="M152 811v657h165v-657h-165zM152 -182v657h165v-657h-165z" />
    <glyph glyph-name="section" unicode="&#xa7;" horiz-adv-x="1042" 
d="M807 324q117 -82 117 -230q0 -160 -113 -250t-297 -90q-174 0 -285.5 66t-152.5 194l176 68q55 -174 258 -174q91 0 150 45t59 121q0 48 -26.5 84.5t-70.5 58.5t-99.5 43.5t-114 38.5t-114 44.5t-99.5 60.5t-70.5 87.5t-26.5 124.5q0 90 47 159t131 108q-135 79 -135 237
q0 148 107 231t289 83q149 0 245.5 -59t132.5 -167l-176 -69q-26 71 -74.5 104t-127.5 33q-90 0 -140.5 -39t-50.5 -107q0 -47 26.5 -81.5t69.5 -55t98.5 -40t113 -35.5t113 -42.5t98.5 -59.5t69.5 -89t26.5 -129q0 -183 -154 -274zM303 635q0 -25 8 -46.5t18 -37.5t33 -32
t38 -25.5t49 -23.5t51 -19.5t58.5 -19.5t57.5 -19q66 15 102 58t36 110q0 31 -9 56.5t-30.5 46t-40.5 34.5t-57 29.5t-60.5 23.5t-69.5 23q-90 -6 -137 -48.5t-47 -109.5z" />
    <glyph glyph-name="dieresis" unicode="&#xa8;" horiz-adv-x="796" 
d="M211 1270q-62 0 -106 42.5t-44 108.5q0 63 45 104.5t109 41.5q62 0 104.5 -43t42.5 -107t-43.5 -105.5t-107.5 -41.5zM641 1270q-62 0 -105.5 42.5t-43.5 108.5q0 63 44.5 104.5t108.5 41.5q62 0 106 -43t44 -107t-44.5 -105.5t-109.5 -41.5z" />
    <glyph glyph-name="copyright" unicode="&#xa9;" horiz-adv-x="1566" 
d="M784 -25q-204 0 -363.5 89.5t-247 249t-87.5 362.5q0 197 87.5 357t247.5 252.5t363 92.5t363 -92.5t247 -252.5t87 -357q0 -203 -87.5 -362.5t-246.5 -249t-363 -89.5zM784 115q239 0 395 156t156 405q0 157 -71.5 286t-198 203t-281.5 74q-117 0 -220 -43.5
t-176 -118.5t-115 -179.5t-42 -221.5q0 -249 156.5 -405t396.5 -156zM791 287q-166 0 -277 112t-111 279q0 166 110.5 278.5t277.5 112.5q132 0 224 -70t122 -170l-152 -53q-19 65 -69 101t-123 36q-97 0 -159.5 -65.5t-62.5 -169.5q0 -105 62.5 -170.5t161.5 -65.5
q73 0 123.5 36.5t70.5 101.5l152 -56q-30 -99 -123 -168t-227 -69z" />
    <glyph glyph-name="ordfeminine" unicode="&#xaa;" horiz-adv-x="808" 
d="M584 1675h116v-598h-116v105q-77 -121 -230 -121q-123 0 -208 89.5t-85 225.5q0 137 84.5 225.5t208.5 88.5q156 0 230 -115v100zM381 1204q75 0 121.5 48.5t46.5 123.5q0 74 -46.5 123t-121.5 49q-72 0 -119 -49t-47 -123t47 -123t119 -49z" />
    <glyph glyph-name="guillemotleft" unicode="&#xab;" horiz-adv-x="974" 
d="M297 162l-229 346l229 344h205l-230 -344l230 -346h-205zM666 162l-230 346l230 344h204l-229 -344l229 -346h-204z" />
    <glyph glyph-name="logicalnot" unicode="&#xac;" horiz-adv-x="1095" 
d="M106 776h857v-512h-203v328h-654v184z" />
    <glyph glyph-name="registered" unicode="&#xae;" horiz-adv-x="1036" 
d="M520 1487q182 0 306 -126t124 -310q0 -182 -124.5 -307.5t-305.5 -125.5q-185 0 -310.5 125.5t-125.5 307.5q0 184 125.5 310t310.5 126zM520 711q143 0 240.5 97t97.5 243q0 145 -97.5 243.5t-240.5 98.5q-145 0 -244.5 -98t-99.5 -244t99 -243t245 -97zM696 1159
q0 -55 -33 -89t-88 -40l132 -192h-95l-127 190h-22v-190h-86v450h174q64 0 104.5 -35t40.5 -94zM463 1221v-123h76q35 0 53 16.5t18 44.5q0 29 -18.5 45.5t-52.5 16.5h-76z" />
    <glyph glyph-name="macron" unicode="&#xaf;" horiz-adv-x="667" 
d="M61 1333v172h627v-172h-627z" />
    <glyph glyph-name="degree" unicode="&#xb0;" horiz-adv-x="770" 
d="M385 819q-136 0 -224.5 86.5t-88.5 218.5q0 133 89 220.5t224 87.5t224 -87t89 -219q0 -135 -88 -221t-225 -86zM385 952q73 0 121.5 49t48.5 123t-49.5 124t-120.5 50t-120.5 -50.5t-49.5 -123.5q0 -74 48.5 -123t121.5 -49z" />
    <glyph glyph-name="plusminus" unicode="&#xb1;" horiz-adv-x="1073" 
d="M633 889h334v-187h-334v-354h-193v354h-334v187h334v350h193v-350zM106 61v187h861v-187h-861z" />
    <glyph glyph-name="uni00B2" unicode="&#xb2;" horiz-adv-x="700" 
d="M303 829h295v-118h-498v92l240 241q102 98 102 177q0 40 -27.5 66t-70.5 26t-75 -27t-42 -76l-133 43q17 81 86.5 131t167.5 50q110 0 174 -55.5t64 -149.5q0 -67 -34 -126.5t-101 -123.5z" />
    <glyph glyph-name="uni00B3" unicode="&#xb3;" horiz-adv-x="663" 
d="M379 1135q90 -5 147.5 -63.5t57.5 -147.5q0 -97 -72.5 -161.5t-185.5 -64.5q-99 0 -168 44t-90 114l129 51q12 -41 45 -64.5t82 -23.5q53 0 84.5 32t31.5 81q0 51 -32.5 80.5t-81.5 29.5h-101v93l181 176h-306v112h455v-110z" />
    <glyph glyph-name="acute" unicode="&#xb4;" horiz-adv-x="581" 
d="M150 1204l-89 139l447 285l98 -158z" />
    <glyph glyph-name="paragraph" unicode="&#xb6;" horiz-adv-x="1277" 
d="M1110 1423v-1628h-121v1446h-92v-1446h-121v1446h-94v-668h-156q-217 0 -346 115.5t-129 308.5q0 195 128.5 310.5t346.5 115.5h584z" />
    <glyph glyph-name="periodcentered" unicode="&#xb7;" horiz-adv-x="473" 
d="M236 537q-57 0 -96.5 38t-39.5 95q0 59 39 98t97 39q59 0 97 -38.5t38 -98.5q0 -57 -38.5 -95t-96.5 -38z" />
    <glyph glyph-name="cedilla" unicode="&#xb8;" horiz-adv-x="528" 
d="M295 -494q-78 0 -138 27.5t-96 69.5l76 90q52 -64 131 -64q51 0 83 29.5t32 71.5q0 44 -33 74t-86 30h-35l-14 14l72 179h135l-53 -129q75 -4 123.5 -57t48.5 -130q0 -89 -67.5 -147t-178.5 -58z" />
    <glyph glyph-name="uni00B9" unicode="&#xb9;" horiz-adv-x="577" 
d="M393 836h109v-125h-400v125h142v358h-138v127h138v102h149v-587z" />
    <glyph glyph-name="ordmasculine" unicode="&#xba;" horiz-adv-x="759" 
d="M379 1061q-140 0 -229 90t-89 225t89.5 226.5t228.5 91.5q141 0 230 -91t89 -227q0 -135 -89 -225t-230 -90zM379 1200q78 0 123 49.5t45 126.5q0 78 -45 127t-123 49q-77 0 -122.5 -49t-45.5 -127q0 -77 45.5 -126.5t122.5 -49.5z" />
    <glyph glyph-name="guillemotright" unicode="&#xbb;" horiz-adv-x="974" 
d="M102 162l230 346l-230 344h205l230 -344l-230 -346h-205zM473 162l229 346l-229 344h205l229 -344l-229 -346h-205z" />
    <glyph glyph-name="onequarter" unicode="&#xbc;" horiz-adv-x="1318" 
d="M473 711h-397v125h141v358h-137v127h137v102h150v-587h106v-125zM987 1423h164l-750 -1423h-161zM1253 256v-104h-77v-152h-140v152h-331v104l331 457h140v-457h77zM1036 256v295l-215 -295h215z" />
    <glyph glyph-name="onehalf" unicode="&#xbd;" horiz-adv-x="1390" 
d="M473 711h-397v125h141v358h-137v127h137v102h150v-587h106v-125zM981 1423h164l-750 -1423h-162zM1030 119h295v-119h-498v92l240 242q102 98 102 176q0 40 -27 66t-71 26q-41 0 -73 -26.5t-44 -75.5l-133 43q17 80 86 130t168 50q110 0 174 -55.5t64 -149.5
q0 -68 -33.5 -127.5t-101.5 -122.5z" />
    <glyph glyph-name="threequarters" unicode="&#xbe;" horiz-adv-x="1347" 
d="M569 924q0 -97 -72.5 -161.5t-185.5 -64.5q-99 0 -168 44t-90 114l129 51q12 -40 46 -64t81 -24q54 0 86.5 32t32.5 81q0 51 -33 80.5t-82 29.5h-102v93l182 176h-305v112h453v-110l-176 -178q90 -5 147 -63.5t57 -147.5zM1022 1423h166l-750 -1423h-164zM1268 256v-104
h-76v-152h-141v152h-332v104l334 457h139v-457h76zM1053 256v297l-217 -297h217z" />
    <glyph glyph-name="questiondown" unicode="&#xbf;" horiz-adv-x="940" 
d="M535 821q-60 0 -99 39t-39 98q0 57 40 96.5t98 39.5q57 0 95 -39.5t38 -96.5q0 -59 -38 -98t-95 -39zM459 -387q-184 0 -290 92t-106 252q0 68 21 125.5t54.5 98t73.5 77t80.5 70t74 68t54.5 79t21 96.5v54h189v-64q0 -65 -19 -120.5t-49 -94t-66.5 -73t-73 -64.5
t-66.5 -60.5t-49 -69t-19 -83.5q0 -84 48.5 -130t133.5 -46q83 0 142.5 52.5t74.5 135.5l203 -65q-29 -150 -146.5 -240t-285.5 -90z" />
    <glyph glyph-name="Agrave" unicode="&#xc0;" horiz-adv-x="1298" 
d="M946 1708l-49 -158l-545 179l54 178zM1071 0l-131 373h-580l-131 -373h-215l504 1423h262l506 -1423h-215zM424 551h453l-226 643z" />
    <glyph glyph-name="Aacute" unicode="&#xc1;" horiz-adv-x="1298" 
d="M967 1729l-545 -179l-49 158l538 199zM1071 0l-131 373h-580l-131 -373h-215l504 1423h262l506 -1423h-215zM424 551h453l-226 643z" />
    <glyph glyph-name="Acircumflex" unicode="&#xc2;" horiz-adv-x="1298" 
d="M649 1745l-170 -178h-196l280 319h176l277 -319h-199zM1071 0l-131 373h-580l-131 -373h-215l504 1423h262l506 -1423h-215zM424 551h453l-226 643z" />
    <glyph glyph-name="Atilde" unicode="&#xc3;" horiz-adv-x="1298" 
d="M537 1677q-43 0 -70.5 -25.5t-36.5 -68.5l-151 64q20 84 81 147.5t158 63.5q44 0 83 -16t62.5 -35.5t55 -35.5t61.5 -16q85 0 109 94l151 -63q-23 -88 -83.5 -149.5t-157.5 -61.5q-45 0 -83.5 16t-61.5 35t-54 35t-63 16zM1071 0l-131 373h-580l-131 -373h-215l504 1423
h262l506 -1423h-215zM424 551h453l-226 643z" />
    <glyph glyph-name="Adieresis" unicode="&#xc4;" horiz-adv-x="1298" 
d="M424 1575q-63 0 -107.5 44t-44.5 110q0 65 45 107t111 42q63 0 106.5 -44t43.5 -110q0 -64 -44.5 -106.5t-109.5 -42.5zM868 1575q-63 0 -107 44t-44 110q0 65 45 107t110 42q64 0 108 -44t44 -110q0 -64 -45.5 -106.5t-110.5 -42.5zM1071 0l-131 373h-580l-131 -373
h-215l504 1423h262l506 -1423h-215zM424 551h453l-226 643z" />
    <glyph glyph-name="Aring" unicode="&#xc5;" horiz-adv-x="1298" 
d="M649 1454q-102 0 -168.5 62.5t-66.5 160.5q0 97 67 160.5t168 63.5q102 0 168 -63.5t66 -160.5q0 -98 -65.5 -160.5t-168.5 -62.5zM649 1778q-44 0 -74 -29t-30 -72t30 -71.5t74 -28.5t73.5 28.5t29.5 71.5t-29.5 72t-73.5 29zM1071 0l-131 373h-580l-131 -373h-215
l504 1423h262l506 -1423h-215zM424 551h453l-226 643z" />
    <glyph glyph-name="AE" unicode="&#xc6;" horiz-adv-x="1908" 
d="M1128 190h705v-190h-922v367h-516l-194 -367h-230l744 1423h1106v-190h-693v-406h621v-188h-621v-449zM494 551h417v682h-57z" />
    <glyph glyph-name="Ccedilla" unicode="&#xc7;" horiz-adv-x="1497" 
d="M799 182q334 0 444 334l207 -84q-63 -190 -211.5 -313.5t-370.5 -141.5l-32 -79q75 -4 123.5 -57t48.5 -130q0 -89 -67.5 -147t-178.5 -58q-78 0 -138 27.5t-96 69.5l76 90q52 -64 131 -64q51 0 83 29.5t32 71.5q0 44 -33 74t-86 30h-35l-14 14l53 129q-187 16 -335 113
t-232 259t-84 362q0 212 94 381t257.5 262.5t365.5 93.5q127 0 236 -36t188.5 -99.5t136 -144.5t88.5 -177l-207 -84q-53 159 -164.5 246.5t-283.5 87.5q-214 0 -352 -147.5t-138 -382.5t138.5 -382t355.5 -147z" />
    <glyph glyph-name="Egrave" unicode="&#xc8;" horiz-adv-x="1155" 
d="M909 1708l-51 -158l-545 179l56 178zM373 190h704v-190h-921v1423h909v-190h-692v-406h622v-188h-622v-449z" />
    <glyph glyph-name="Eacute" unicode="&#xc9;" horiz-adv-x="1155" 
d="M930 1729l-547 -179l-49 158l540 199zM373 190h704v-190h-921v1423h909v-190h-692v-406h622v-188h-622v-449z" />
    <glyph glyph-name="Ecircumflex" unicode="&#xca;" horiz-adv-x="1155" 
d="M610 1745l-168 -178h-198l280 319h176l277 -319h-197zM373 190h704v-190h-921v1423h909v-190h-692v-406h622v-188h-622v-449z" />
    <glyph glyph-name="Edieresis" unicode="&#xcb;" horiz-adv-x="1155" 
d="M385 1575q-63 0 -107.5 44t-44.5 110q0 65 45 107t111 42q63 0 107.5 -44t44.5 -110q0 -64 -45.5 -106.5t-110.5 -42.5zM829 1575q-63 0 -107 44t-44 110q0 65 45 107t111 42q63 0 107 -44t44 -110q0 -64 -45 -106.5t-111 -42.5zM373 190h704v-190h-921v1423h909v-190
h-692v-406h622v-188h-622v-449z" />
    <glyph glyph-name="Igrave" unicode="&#xcc;" horiz-adv-x="528" 
d="M514 1550l-547 179l56 178l540 -199zM156 0v1423h217v-1423h-217z" />
    <glyph glyph-name="Iacute" unicode="&#xcd;" horiz-adv-x="528" 
d="M37 1550l-49 158l540 199l56 -178zM156 0v1423h217v-1423h-217z" />
    <glyph glyph-name="Icircumflex" unicode="&#xce;" horiz-adv-x="528" 
d="M356 1886l275 -319h-197l-170 180l-168 -180h-198l282 319h176zM156 0v1423h217v-1423h-217z" />
    <glyph glyph-name="Idieresis" unicode="&#xcf;" horiz-adv-x="528" 
d="M41 1575q-63 0 -108.5 44t-45.5 110q0 65 46 107t112 42q62 0 106 -44.5t44 -109.5q0 -64 -45 -106.5t-109 -42.5zM485 1575q-63 0 -107 44t-44 110q0 65 44.5 107t108.5 42q63 0 107.5 -44t44.5 -110q0 -64 -44.5 -106.5t-109.5 -42.5zM156 0v1423h217v-1423h-217z" />
    <glyph glyph-name="Eth" unicode="&#xd0;" horiz-adv-x="1492" 
d="M702 1423q153 0 283.5 -50.5t223.5 -142t145.5 -225t52.5 -292.5q0 -213 -90 -375.5t-250 -250t-365 -87.5h-528v657h-139v152h139v614h528zM696 193q218 0 355 140t137 378t-137.5 379t-354.5 141h-305v-422h318v-152h-318v-464h305z" />
    <glyph glyph-name="Ntilde" unicode="&#xd1;" horiz-adv-x="1409" 
d="M573 1677q-85 0 -106 -94l-152 64q20 84 82 147.5t160 63.5q44 0 83 -16t62 -35.5t54.5 -35.5t62.5 -16q43 0 70.5 25.5t36.5 68.5l151 -63q-22 -88 -82 -149.5t-157 -61.5q-45 0 -84.5 16t-62.5 35t-54.5 35t-63.5 16zM1038 1423h217v-1423h-182l-700 1047v-1047h-217
v1423h180l702 -1050v1050z" />
    <glyph glyph-name="Ograve" unicode="&#xd2;" horiz-adv-x="1615" 
d="M1057 1550l-547 179l55 178l541 -199zM809 -25q-203 0 -369.5 95.5t-262 264t-95.5 376.5q0 156 56 293.5t152.5 234.5t231.5 153t287 56t286 -56t230.5 -153t152.5 -234.5t56 -293.5t-56 -293t-152.5 -234t-230.5 -153t-286 -56zM809 182q221 0 362.5 148.5t141.5 380.5
q0 233 -140.5 381.5t-363.5 148.5q-224 0 -365 -148t-141 -382q0 -232 142 -380.5t364 -148.5z" />
    <glyph glyph-name="Oacute" unicode="&#xd3;" horiz-adv-x="1615" 
d="M580 1550l-50 158l541 199l55 -178zM809 -25q-203 0 -369.5 95.5t-262 264t-95.5 376.5q0 156 56 293.5t152.5 234.5t231.5 153t287 56t286 -56t230.5 -153t152.5 -234.5t56 -293.5t-56 -293t-152.5 -234t-230.5 -153t-286 -56zM809 182q221 0 362.5 148.5t141.5 380.5
q0 233 -140.5 381.5t-363.5 148.5q-224 0 -365 -148t-141 -382q0 -232 142 -380.5t364 -148.5z" />
    <glyph glyph-name="Ocircumflex" unicode="&#xd4;" horiz-adv-x="1615" 
d="M809 1745l-170 -178h-197l281 319h176l277 -319h-199zM809 1448q152 0 286 -56t230.5 -153t152.5 -234.5t56 -293.5t-56 -293t-152.5 -234t-230.5 -153t-286 -56q-203 0 -369.5 95.5t-262 264t-95.5 376.5q0 156 56 293.5t152.5 234.5t231.5 153t287 56zM809 182
q221 0 362.5 148.5t141.5 380.5q0 233 -140.5 381.5t-363.5 148.5q-224 0 -365 -148t-141 -382q0 -232 142 -380.5t364 -148.5z" />
    <glyph glyph-name="Otilde" unicode="&#xd5;" horiz-adv-x="1615" 
d="M958 1575q-45 0 -84.5 16t-62 35t-53.5 35t-62 16q-85 0 -106 -94l-152 64q20 84 81.5 147.5t158.5 63.5q44 0 83 -16t62.5 -35.5t55 -35.5t61.5 -16q43 0 70.5 25.5t36.5 68.5l153 -63q-23 -88 -84 -149.5t-158 -61.5zM809 -25q-203 0 -369.5 95.5t-262 264t-95.5 376.5
q0 156 56 293.5t152.5 234.5t231.5 153t287 56t286 -56t230.5 -153t152.5 -234.5t56 -293.5t-56 -293t-152.5 -234t-230.5 -153t-286 -56zM809 182q221 0 362.5 148.5t141.5 380.5q0 233 -140.5 381.5t-363.5 148.5q-224 0 -365 -148t-141 -382q0 -232 142 -380.5
t364 -148.5z" />
    <glyph glyph-name="Odieresis" unicode="&#xd6;" horiz-adv-x="1615" 
d="M584 1575q-63 0 -107.5 44t-44.5 110q0 65 45 107t111 42q63 0 106 -44t43 -110q0 -64 -44 -106.5t-109 -42.5zM1028 1575q-63 0 -107 44t-44 110q0 65 44.5 107t108.5 42q65 0 109.5 -44t44.5 -110q0 -64 -45.5 -106.5t-110.5 -42.5zM809 -25q-203 0 -369.5 95.5
t-262 264t-95.5 376.5q0 156 56 293.5t152.5 234.5t231.5 153t287 56t286 -56t230.5 -153t152.5 -234.5t56 -293.5t-56 -293t-152.5 -234t-230.5 -153t-286 -56zM809 182q221 0 362.5 148.5t141.5 380.5q0 233 -140.5 381.5t-363.5 148.5q-224 0 -365 -148t-141 -382
q0 -232 142 -380.5t364 -148.5z" />
    <glyph glyph-name="multiply" unicode="&#xd7;" horiz-adv-x="1017" 
d="M926 926l-281 -279l281 -278l-138 -136l-278 279l-281 -279l-135 136l279 278l-279 279l135 137l281 -279l278 279z" />
    <glyph glyph-name="Oslash" unicode="&#xd8;" horiz-adv-x="1622" 
d="M1376 1186q162 -199 162 -475q0 -208 -95.5 -376.5t-262 -264t-369.5 -95.5q-240 0 -434 138l-144 -154l-129 123l144 154q-162 202 -162 475q0 209 95 378t261 264t369 95q245 0 436 -139l144 153l127 -123zM307 711q0 -180 90 -316l707 760q-125 86 -293 86
q-224 0 -364 -148t-140 -382zM811 182q221 0 363.5 148.5t142.5 380.5q0 181 -90 317l-705 -760q125 -86 289 -86z" />
    <glyph glyph-name="Ugrave" unicode="&#xd9;" horiz-adv-x="1376" 
d="M987 1708l-49 -158l-547 179l55 178zM1020 1423h217v-886q0 -116 -34.5 -216.5t-100.5 -178.5t-172 -122.5t-240 -44.5q-135 0 -241.5 44.5t-173 122t-101.5 178t-35 217.5v886h219v-886q0 -159 86 -258t246 -99q158 0 244 100t86 257v886z" />
    <glyph glyph-name="Uacute" unicode="&#xda;" horiz-adv-x="1376" 
d="M1008 1729l-547 -179l-49 158l540 199zM1020 1423h217v-886q0 -116 -34.5 -216.5t-100.5 -178.5t-172 -122.5t-240 -44.5q-135 0 -241.5 44.5t-173 122t-101.5 178t-35 217.5v886h219v-886q0 -159 86 -258t246 -99q158 0 244 100t86 257v886z" />
    <glyph glyph-name="Ucircumflex" unicode="&#xdb;" horiz-adv-x="1376" 
d="M690 1745l-170 -178h-196l280 319h176l277 -319h-199zM1020 1423h217v-886q0 -116 -34.5 -216.5t-100.5 -178.5t-172 -122.5t-240 -44.5q-135 0 -241.5 44.5t-173 122t-101.5 178t-35 217.5v886h219v-886q0 -159 86 -258t246 -99q158 0 244 100t86 257v886z" />
    <glyph glyph-name="Udieresis" unicode="&#xdc;" horiz-adv-x="1376" 
d="M465 1575q-63 0 -107.5 44t-44.5 110q0 65 45 107t111 42q63 0 106 -44t43 -110q0 -64 -44 -106.5t-109 -42.5zM909 1575q-63 0 -107 44t-44 110q0 65 44.5 107t108.5 42q65 0 109.5 -44t44.5 -110q0 -64 -45.5 -106.5t-110.5 -42.5zM1020 1423h217v-886
q0 -116 -34.5 -216.5t-100.5 -178.5t-172 -122.5t-240 -44.5q-135 0 -241.5 44.5t-173 122t-101.5 178t-35 217.5v886h219v-886q0 -159 86 -258t246 -99q158 0 244 100t86 257v886z" />
    <glyph glyph-name="Yacute" unicode="&#xdd;" horiz-adv-x="1282" 
d="M961 1729l-545 -179l-49 158l538 199zM1276 1423l-526 -839v-584h-218v584l-526 839h244l391 -655l391 655h244z" />
    <glyph glyph-name="Thorn" unicode="&#xde;" horiz-adv-x="1249" 
d="M702 1147q218 0 346 -115t128 -309t-129 -310t-345 -116h-329v-297h-217v1423h217v-276h329zM690 489q126 0 195 63.5t69 170.5q0 105 -69 169t-195 64h-317v-467h317z" />
    <glyph glyph-name="germandbls" unicode="&#xdf;" horiz-adv-x="1263" 
d="M918 799q121 -39 197.5 -150t76.5 -256q0 -195 -125.5 -306.5t-325.5 -111.5q-126 0 -209 53t-126 144l49 160q31 -80 96 -127t162 -47q117 0 188.5 71.5t71.5 188.5q0 124 -82 203t-236 79v172q122 0 189 70.5t67 167.5q0 103 -71.5 166t-188.5 63q-140 0 -220.5 -85.5
t-80.5 -237.5v-1016h-217v1006q0 238 142 376t389 138q213 0 339.5 -109.5t126.5 -277.5q0 -111 -58 -202.5t-154 -131.5z" />
    <glyph glyph-name="agrave" unicode="&#xe0;" horiz-adv-x="1320" 
d="M911 1343l-88 -139l-456 266l98 158zM987 1079h201v-1079h-201v176q-63 -96 -160 -148.5t-221 -52.5q-152 0 -274 73.5t-190 203t-68 289.5q0 239 150.5 394t381.5 155q252 0 381 -193v182zM633 168q153 0 249.5 104t96.5 269q0 164 -95.5 267t-250.5 103
q-148 0 -246 -106t-98 -264q0 -161 97.5 -267t246.5 -106z" />
    <glyph glyph-name="aacute" unicode="&#xe1;" horiz-adv-x="1320" 
d="M936 1470l-457 -266l-88 139l447 285zM987 1079h201v-1079h-201v176q-63 -96 -160 -148.5t-221 -52.5q-152 0 -274 73.5t-190 203t-68 289.5q0 239 150.5 394t381.5 155q252 0 381 -193v182zM633 168q153 0 249.5 104t96.5 269q0 164 -95.5 267t-250.5 103
q-148 0 -246 -106t-98 -264q0 -161 97.5 -267t246.5 -106z" />
    <glyph glyph-name="acircumflex" unicode="&#xe2;" horiz-adv-x="1320" 
d="M659 1458l-170 -215h-194l274 350h187l268 -350h-193zM987 1079h201v-1079h-201v176q-63 -96 -160 -148.5t-221 -52.5q-152 0 -274 73.5t-190 203t-68 289.5q0 239 150.5 394t381.5 155q252 0 381 -193v182zM633 168q153 0 249.5 104t96.5 269q0 164 -95.5 267
t-250.5 103q-148 0 -246 -106t-98 -264q0 -161 97.5 -267t246.5 -106z" />
    <glyph glyph-name="atilde" unicode="&#xe3;" horiz-adv-x="1320" 
d="M545 1380q-40 0 -68 -26t-37 -68l-149 64q20 87 75.5 149t147.5 62q42 0 79.5 -16t60.5 -35.5t54.5 -35.5t63.5 -16q40 0 68 26t37 68l151 -63q-56 -211 -225 -211q-43 0 -81.5 16t-61.5 35t-54 35t-61 16zM987 1079h201v-1079h-201v176q-63 -96 -160 -148.5t-221 -52.5
q-152 0 -274 73.5t-190 203t-68 289.5q0 239 150.5 394t381.5 155q252 0 381 -193v182zM633 168q153 0 249.5 104t96.5 269q0 164 -95.5 267t-250.5 103q-148 0 -246 -106t-98 -264q0 -161 97.5 -267t246.5 -106z" />
    <glyph glyph-name="adieresis" unicode="&#xe4;" horiz-adv-x="1320" 
d="M442 1270q-62 0 -105.5 42.5t-43.5 108.5q0 63 44.5 104.5t108.5 41.5q62 0 105 -43t43 -107t-44 -105.5t-108 -41.5zM872 1270q-62 0 -105.5 42.5t-43.5 108.5q0 63 45 104.5t109 41.5q62 0 105.5 -43t43.5 -107q0 -63 -45 -105t-109 -42zM987 1079h201v-1079h-201v176
q-63 -96 -160 -148.5t-221 -52.5q-152 0 -274 73.5t-190 203t-68 289.5q0 239 150.5 394t381.5 155q252 0 381 -193v182zM633 168q153 0 249.5 104t96.5 269q0 164 -95.5 267t-250.5 103q-148 0 -246 -106t-98 -264q0 -161 97.5 -267t246.5 -106z" />
    <glyph glyph-name="aring" unicode="&#xe5;" horiz-adv-x="1320" 
d="M659 1182q-102 0 -167.5 63t-65.5 162q0 96 66 159.5t167 63.5q102 0 168 -63.5t66 -159.5q0 -100 -65.5 -162.5t-168.5 -62.5zM659 1505q-44 0 -73 -28t-29 -70q0 -44 29 -73t73 -29t73.5 29t29.5 73q0 41 -29.5 69.5t-73.5 28.5zM987 1079h201v-1079h-201v176
q-63 -96 -160 -148.5t-221 -52.5q-152 0 -274 73.5t-190 203t-68 289.5q0 239 150.5 394t381.5 155q252 0 381 -193v182zM633 168q153 0 249.5 104t96.5 269q0 164 -95.5 267t-250.5 103q-148 0 -246 -106t-98 -264q0 -161 97.5 -267t246.5 -106z" />
    <glyph glyph-name="ae" unicode="&#xe6;" horiz-adv-x="2158" 
d="M1219 479q19 -151 114 -240t234 -89q243 0 327 194l179 -76q-57 -134 -172.5 -213.5t-294.5 -79.5q-289 0 -418 211v-186h-201v176q-63 -96 -160 -148.5t-221 -52.5q-152 0 -274 73.5t-190 203t-68 289.5q0 240 151.5 400.5t380.5 160.5q124 0 221 -52t160 -147v176h201
v-196q62 104 163 161.5t234 57.5q152 0 269 -75.5t176 -197t59 -266.5q0 -44 -4 -84h-866zM1219 610h675q-14 151 -102.5 241.5t-228.5 90.5q-141 0 -234 -90.5t-110 -241.5zM633 168q153 0 249.5 104t96.5 269q0 164 -95.5 267t-250.5 103q-148 0 -246 -106t-98 -264
q0 -161 97.5 -267t246.5 -106z" />
    <glyph glyph-name="ccedilla" unicode="&#xe7;" horiz-adv-x="1177" 
d="M1137 315q-38 -124 -151.5 -219t-276.5 -116l-35 -82q75 -4 123.5 -57t48.5 -130q0 -89 -67.5 -147t-178.5 -58q-78 0 -137.5 27.5t-95.5 69.5l75 90q52 -64 131 -64q51 0 83 29.5t32 71.5q0 44 -33 74t-86 30h-34l-15 14l51 129q-218 22 -358.5 179t-140.5 383
q0 240 158.5 401.5t398.5 161.5q98 0 184 -28.5t148.5 -77.5t105.5 -109t63 -127l-194 -78q-29 105 -108.5 165t-192.5 60q-150 0 -248 -102t-98 -266t98 -266.5t248 -102.5q115 0 196.5 60t110.5 163z" />
    <glyph glyph-name="egrave" unicode="&#xe8;" horiz-adv-x="1214" 
d="M870 1341l-86 -139l-458 266l98 158zM279 467q25 -137 122 -218t234 -81q119 0 191 42.5t110 129.5l178 -113q-145 -252 -485 -252q-167 0 -296.5 73.5t-199.5 202t-70 288.5q0 154 73 284t199.5 205.5t276.5 75.5q121 0 224.5 -45t172 -120.5t106.5 -173t38 -202.5
q0 -56 -4 -96h-870zM281 633h659q-22 136 -108 215.5t-211 79.5q-128 0 -222 -79t-118 -216z" />
    <glyph glyph-name="eacute" unicode="&#xe9;" horiz-adv-x="1214" 
d="M897 1468l-459 -266l-88 139l449 285zM279 467q25 -137 122 -218t234 -81q119 0 191 42.5t110 129.5l178 -113q-145 -252 -485 -252q-167 0 -296.5 73.5t-199.5 202t-70 288.5q0 154 73 284t199.5 205.5t276.5 75.5q121 0 224.5 -45t172 -120.5t106.5 -173t38 -202.5
q0 -56 -4 -96h-870zM281 633h659q-22 136 -108 215.5t-211 79.5q-128 0 -222 -79t-118 -216z" />
    <glyph glyph-name="ecircumflex" unicode="&#xea;" horiz-adv-x="1214" 
d="M621 1458l-172 -217h-193l274 350h185l268 -350h-192zM279 467q25 -137 122 -218t234 -81q119 0 191 42.5t110 129.5l178 -113q-145 -252 -485 -252q-167 0 -296.5 73.5t-199.5 202t-70 288.5q0 154 73 284t199.5 205.5t276.5 75.5q121 0 224.5 -45t172 -120.5
t106.5 -173t38 -202.5q0 -56 -4 -96h-870zM281 633h659q-22 136 -108 215.5t-211 79.5q-128 0 -222 -79t-118 -216z" />
    <glyph glyph-name="edieresis" unicode="&#xeb;" horiz-adv-x="1214" 
d="M401 1268q-62 0 -105.5 42.5t-43.5 108.5q0 63 45 104.5t109 41.5q62 0 104.5 -43t42.5 -107t-44 -105.5t-108 -41.5zM834 1268q-63 0 -106.5 42.5t-43.5 108.5q0 64 44 105t108 41q62 0 105.5 -43t43.5 -107t-43.5 -105.5t-107.5 -41.5zM279 467q25 -137 122 -218
t234 -81q119 0 191 42.5t110 129.5l178 -113q-145 -252 -485 -252q-167 0 -296.5 73.5t-199.5 202t-70 288.5q0 154 73 284t199.5 205.5t276.5 75.5q121 0 224.5 -45t172 -120.5t106.5 -173t38 -202.5q0 -56 -4 -96h-870zM281 633h659q-22 136 -108 215.5t-211 79.5
q-128 0 -222 -79t-118 -216z" />
    <glyph glyph-name="igrave" unicode="&#xec;" horiz-adv-x="481" 
d="M406 1204l-459 264l98 160l449 -285zM133 0v1079h217v-1079h-217z" />
    <glyph glyph-name="iacute" unicode="&#xed;" horiz-adv-x="481" 
d="M59 1204l-86 139l447 285l98 -160zM133 0v1079h217v-1079h-217z" />
    <glyph glyph-name="icircumflex" unicode="&#xee;" horiz-adv-x="481" 
d="M336 1591l268 -348h-192l-170 217l-172 -217h-193l275 348h184zM133 0v1079h217v-1079h-217z" />
    <glyph glyph-name="idieresis" unicode="&#xef;" horiz-adv-x="481" 
d="M25 1270q-63 0 -106.5 42t-43.5 107q0 64 44 106t108 42q62 0 104.5 -44t42.5 -108q0 -62 -43.5 -103.5t-105.5 -41.5zM455 1270q-62 0 -106 42t-44 107q0 63 44.5 105.5t107.5 42.5t106 -44t43 -108q0 -62 -43.5 -103.5t-107.5 -41.5zM133 0v1079h217v-1079h-217z" />
    <glyph glyph-name="eth" unicode="&#xf0;" horiz-adv-x="1288" 
d="M705 1473q234 -134 368.5 -369.5t134.5 -515.5q0 -288 -156.5 -450.5t-412.5 -162.5q-246 0 -406.5 158t-160.5 389q0 154 72 279.5t201 197.5t288 72q182 0 293 -100q-110 233 -367 358l-217 -217l-109 109l170 170q-158 45 -327 45l86 178q207 0 395 -70l160 160
l108 -111zM641 170q156 0 253 98.5t97 259.5q0 150 -97.5 250.5t-252.5 100.5t-253.5 -101.5t-98.5 -255.5q0 -150 98.5 -251t253.5 -101z" />
    <glyph glyph-name="ntilde" unicode="&#xf1;" horiz-adv-x="1249" 
d="M528 1378q-40 0 -67.5 -25.5t-36.5 -68.5l-152 64q9 40 26 75t43.5 67t67 50.5t89.5 18.5q42 0 79.5 -16t60.5 -35.5t54.5 -35.5t63.5 -16q39 0 66 26t36 68l152 -63q-22 -90 -76 -150.5t-148 -60.5q-43 0 -81.5 16t-62 35t-54 35t-60.5 16zM694 1104q201 0 317.5 -119
t116.5 -319v-666h-217v627q0 133 -74.5 208.5t-203.5 73.5q-119 0 -200 -75t-83 -177v-657h-217v1079h205v-137q58 74 149.5 118t206.5 44z" />
    <glyph glyph-name="ograve" unicode="&#xf2;" horiz-adv-x="1280" 
d="M809 1202l-459 266l99 158l446 -285zM639 -25q-163 0 -293 73.5t-202 202.5t-72 288q0 244 159.5 403.5t407.5 159.5q249 0 409 -159.5t160 -403.5q0 -160 -72 -288.5t-202.5 -202t-294.5 -73.5zM641 170q155 0 252.5 103.5t97.5 265.5q0 163 -97 266.5t-253 103.5
t-254 -103.5t-98 -266.5q0 -161 98 -265t254 -104z" />
    <glyph glyph-name="oacute" unicode="&#xf3;" horiz-adv-x="1280" 
d="M463 1202l-88 139l448 285l99 -158zM639 -25q-163 0 -293 73.5t-202 202.5t-72 288q0 244 159.5 403.5t407.5 159.5q249 0 409 -159.5t160 -403.5q0 -160 -72 -288.5t-202.5 -202t-294.5 -73.5zM641 170q155 0 252.5 103.5t97.5 265.5q0 163 -97 266.5t-253 103.5
t-254 -103.5t-98 -266.5q0 -161 98 -265t254 -104z" />
    <glyph glyph-name="ocircumflex" unicode="&#xf4;" horiz-adv-x="1280" 
d="M645 1458l-172 -217h-192l274 350h184l269 -350h-193zM639 1102q249 0 409 -159.5t160 -403.5q0 -160 -72 -288.5t-202.5 -202t-294.5 -73.5q-163 0 -293 73.5t-202 202.5t-72 288q0 244 159.5 403.5t407.5 159.5zM641 170q155 0 252.5 103.5t97.5 265.5q0 163 -97 266.5
t-253 103.5t-254 -103.5t-98 -266.5q0 -161 98 -265t254 -104z" />
    <glyph glyph-name="otilde" unicode="&#xf5;" horiz-adv-x="1280" 
d="M788 1276q-43 0 -81.5 16t-62 35t-54 35t-60.5 16q-40 0 -67.5 -25.5t-36.5 -68.5l-152 64q9 40 26 75t43.5 67t67 50.5t89.5 18.5q42 0 79.5 -16t60.5 -35.5t54.5 -35.5t63.5 -16q39 0 66 26t36 68l152 -63q-22 -90 -76 -150.5t-148 -60.5zM639 -25q-163 0 -293 73.5
t-202 202.5t-72 288q0 244 159.5 403.5t407.5 159.5q249 0 409 -159.5t160 -403.5q0 -160 -72 -288.5t-202.5 -202t-294.5 -73.5zM641 170q155 0 252.5 103.5t97.5 265.5q0 163 -97 266.5t-253 103.5t-254 -103.5t-98 -266.5q0 -161 98 -265t254 -104z" />
    <glyph glyph-name="odieresis" unicode="&#xf6;" horiz-adv-x="1280" 
d="M426 1268q-62 0 -106 42.5t-44 108.5q0 63 45 104.5t109 41.5q62 0 105 -43t43 -107t-44 -105.5t-108 -41.5zM858 1268q-63 0 -106 42.5t-43 108.5q0 64 43.5 105t107.5 41q62 0 106 -43t44 -107t-44 -105.5t-108 -41.5zM639 -25q-163 0 -293 73.5t-202 202.5t-72 288
q0 244 159.5 403.5t407.5 159.5q249 0 409 -159.5t160 -403.5q0 -160 -72 -288.5t-202.5 -202t-294.5 -73.5zM641 170q155 0 252.5 103.5t97.5 265.5q0 163 -97 266.5t-253 103.5t-254 -103.5t-98 -266.5q0 -161 98 -265t254 -104z" />
    <glyph glyph-name="divide" unicode="&#xf7;" horiz-adv-x="1067" 
d="M539 903q-58 0 -97 39t-39 96q0 59 39 98.5t97 39.5t96.5 -39.5t38.5 -98.5q0 -57 -38.5 -96t-96.5 -39zM104 551v184h859v-184h-859zM541 96q-58 0 -96.5 39t-38.5 96q0 60 38 99t97 39t97 -39t38 -99q0 -57 -38.5 -96t-96.5 -39z" />
    <glyph glyph-name="oslash" unicode="&#xf8;" horiz-adv-x="1318" 
d="M1272 971l-133 -117q88 -141 88 -315q0 -119 -42.5 -223.5t-117 -179.5t-181 -118t-229.5 -43q-221 0 -372 129l-133 -116l-105 116l133 117q-90 142 -90 318q0 244 159.5 403.5t407.5 159.5q226 0 381 -133l133 116zM307 539q0 -99 37 -174l539 469q-90 75 -224 75
q-156 0 -254 -103.5t-98 -266.5zM1010 539q0 94 -35 172l-535 -469q94 -72 219 -72q155 0 253 103.5t98 265.5z" />
    <glyph glyph-name="ugrave" unicode="&#xf9;" horiz-adv-x="1228" 
d="M846 1343l-86 -139l-459 266l98 158zM881 1079h215v-1079h-203v137q-58 -74 -148 -118t-198 -44q-202 0 -314 121t-112 316v667h215v-641q0 -122 73 -195.5t197 -72.5q119 0 196 72.5t79 171.5v665z" />
    <glyph glyph-name="uacute" unicode="&#xfa;" horiz-adv-x="1228" 
d="M872 1470l-458 -266l-88 139l448 285zM881 1079h215v-1079h-203v137q-58 -74 -148 -118t-198 -44q-202 0 -314 121t-112 316v667h215v-641q0 -122 73 -195.5t197 -72.5q119 0 196 72.5t79 171.5v665z" />
    <glyph glyph-name="ucircumflex" unicode="&#xfb;" horiz-adv-x="1228" 
d="M594 1458l-170 -215h-193l275 350h184l268 -350h-192zM881 1079h215v-1079h-203v137q-58 -74 -148 -118t-198 -44q-202 0 -314 121t-112 316v667h215v-641q0 -122 73 -195.5t197 -72.5q119 0 196 72.5t79 171.5v665z" />
    <glyph glyph-name="udieresis" unicode="&#xfc;" horiz-adv-x="1228" 
d="M377 1270q-62 0 -106 42.5t-44 108.5q0 63 45 104.5t109 41.5q62 0 104.5 -43t42.5 -107t-43.5 -105.5t-107.5 -41.5zM809 1270q-63 0 -106.5 42.5t-43.5 108.5q0 64 44 105t108 41q62 0 106 -43t44 -107t-44 -105.5t-108 -41.5zM881 1079h215v-1079h-203v137
q-58 -74 -148 -118t-198 -44q-202 0 -314 121t-112 316v667h215v-641q0 -122 73 -195.5t197 -72.5q119 0 196 72.5t79 171.5v665z" />
    <glyph glyph-name="yacute" unicode="&#xfd;" horiz-adv-x="1126" 
d="M840 1470l-457 -266l-88 139l446 285zM889 1079h225l-426 -1079l-143 -367h-213l147 367h-61l-402 1079h224l313 -901z" />
    <glyph glyph-name="thorn" unicode="&#xfe;" horiz-adv-x="1320" 
d="M719 1102q152 0 273 -73.5t188 -202t67 -287.5t-68.5 -288t-190.5 -202.5t-273 -73.5q-232 0 -365 168v-510h-217v1864h217v-567q136 172 369 172zM688 170q147 0 244.5 105t97.5 264q0 160 -97 265t-245 105q-153 0 -249.5 -103.5t-96.5 -266.5t96.5 -266t249.5 -103z
" />
    <glyph glyph-name="ydieresis" unicode="&#xff;" horiz-adv-x="1126" 
d="M346 1270q-62 0 -105.5 42.5t-43.5 108.5q0 63 44.5 104.5t108.5 41.5q62 0 105 -43t43 -107t-44 -105.5t-108 -41.5zM776 1270q-62 0 -105.5 42.5t-43.5 108.5q0 63 44.5 104.5t108.5 41.5q62 0 106 -43t44 -107q0 -63 -45 -105t-109 -42zM889 1079h225l-426 -1079
l-143 -367h-213l147 367h-61l-402 1079h224l313 -901z" />
    <glyph glyph-name="Amacron" unicode="&#x100;" horiz-adv-x="1298" 
d="M981 1817v-179h-666v179h666zM1071 0l-131 373h-580l-131 -373h-215l504 1423h262l506 -1423h-215zM424 551h453l-226 643z" />
    <glyph glyph-name="amacron" unicode="&#x101;" horiz-adv-x="1320" 
d="M973 1505v-172h-627v172h627zM987 1079h201v-1079h-201v176q-63 -96 -160 -148.5t-221 -52.5q-152 0 -274 73.5t-190 203t-68 289.5q0 239 150.5 394t381.5 155q252 0 381 -193v182zM633 168q153 0 249.5 104t96.5 269q0 164 -95.5 267t-250.5 103q-148 0 -246 -106
t-98 -264q0 -161 97.5 -267t246.5 -106z" />
    <glyph glyph-name="Abreve" unicode="&#x102;" horiz-adv-x="1298" 
d="M647 1567q-149 0 -238.5 91t-89.5 228h179q0 -67 40 -111t109 -44q70 0 111 44t41 111h178q0 -137 -90 -228t-240 -91zM1071 0l-131 373h-580l-131 -373h-215l504 1423h262l506 -1423h-215zM424 551h453l-226 643z" />
    <glyph glyph-name="abreve" unicode="&#x103;" horiz-adv-x="1320" 
d="M659 1243q-153 0 -244 96t-91 254h172q0 -88 44.5 -137t118.5 -49t119 49.5t45 136.5h172q0 -158 -91 -254t-245 -96zM987 1079h201v-1079h-201v176q-63 -96 -160 -148.5t-221 -52.5q-152 0 -274 73.5t-190 203t-68 289.5q0 239 150.5 394t381.5 155q252 0 381 -193v182z
M633 168q153 0 249.5 104t96.5 269q0 164 -95.5 267t-250.5 103q-148 0 -246 -106t-98 -264q0 -161 97.5 -267t246.5 -106z" />
    <glyph glyph-name="Aogonek" unicode="&#x104;" horiz-adv-x="1298" 
d="M1282 -295l80 -102q-66 -76 -199 -76q-99 0 -159 55t-60 142q0 68 42 133t134 139l6 4h-55l-131 373h-580l-131 -373h-215l504 1423h262l506 -1423l-76 -74q-56 -58 -78 -95.5t-22 -74.5q0 -39 23.5 -63.5t60.5 -24.5q56 0 88 37zM424 551h453l-226 643z" />
    <glyph glyph-name="aogonek" unicode="&#x105;" horiz-adv-x="1320" 
d="M1184 -295l82 -102q-70 -76 -201 -76q-97 0 -157 55t-60 142q0 68 42 133t132 139l6 4h-41v176q-63 -96 -160 -148.5t-221 -52.5q-152 0 -274 73.5t-190 203t-68 289.5q0 239 150.5 394t381.5 155q252 0 381 -193v182h201v-1079l-76 -74q-56 -58 -78 -95.5t-22 -74.5
q0 -40 24 -64t62 -24q54 0 86 37zM633 168q153 0 249.5 104t96.5 269q0 164 -95.5 267t-250.5 103q-148 0 -246 -106t-98 -264q0 -161 97.5 -267t246.5 -106z" />
    <glyph glyph-name="Cacute" unicode="&#x106;" horiz-adv-x="1497" 
d="M559 1550l-49 158l541 199l55 -178zM803 -25q-153 0 -286 55t-228.5 151.5t-150 233.5t-54.5 296q0 212 93.5 381t256.5 262.5t365 93.5q127 0 236.5 -36t189.5 -99.5t136.5 -144.5t88.5 -177l-209 -84q-51 159 -162.5 246.5t-283.5 87.5q-214 0 -352 -147.5t-138 -382.5
t138.5 -382t355.5 -147q170 0 280.5 87t161.5 247l209 -84q-33 -98 -89 -179.5t-135.5 -144.5t-187.5 -98t-235 -35z" />
    <glyph glyph-name="cacute" unicode="&#x107;" horiz-adv-x="1177" 
d="M451 1204l-89 139l447 285l98 -158zM631 -25q-157 0 -285 73t-201 202t-73 289q0 240 158.5 401.5t398.5 161.5q98 0 184 -28.5t148.5 -77.5t105.5 -109t63 -127l-194 -78q-29 105 -108.5 165t-192.5 60q-150 0 -248 -102t-98 -266t98 -266.5t248 -102.5q115 0 196.5 60
t110.5 163l195 -78q-43 -139 -178 -239.5t-328 -100.5z" />
    <glyph glyph-name="Cdotaccent" unicode="&#x10a;" horiz-adv-x="1497" 
d="M786 1575q-64 0 -107.5 43.5t-43.5 110.5q0 65 44.5 106t111.5 41q63 0 106 -43t43 -109q0 -64 -44.5 -106.5t-109.5 -42.5zM803 -25q-153 0 -286 55t-228.5 151.5t-150 233.5t-54.5 296q0 212 93.5 381t256.5 262.5t365 93.5q127 0 236.5 -36t189.5 -99.5t136.5 -144.5
t88.5 -177l-209 -84q-51 159 -162.5 246.5t-283.5 87.5q-214 0 -352 -147.5t-138 -382.5t138.5 -382t355.5 -147q170 0 280.5 87t161.5 247l209 -84q-33 -98 -89 -179.5t-135.5 -144.5t-187.5 -98t-235 -35z" />
    <glyph glyph-name="cdotaccent" unicode="&#x10b;" horiz-adv-x="1177" 
d="M631 1266q-67 0 -112.5 43t-45.5 110q0 66 46 110t112 44q67 0 112 -44t45 -110q0 -67 -44.5 -110t-112.5 -43zM631 -25q-157 0 -285 73t-201 202t-73 289q0 240 158.5 401.5t398.5 161.5q98 0 184 -28.5t148.5 -77.5t105.5 -109t63 -127l-194 -78q-29 105 -108.5 165
t-192.5 60q-150 0 -248 -102t-98 -266t98 -266.5t248 -102.5q115 0 196.5 60t110.5 163l195 -78q-43 -139 -178 -239.5t-328 -100.5z" />
    <glyph glyph-name="Ccaron" unicode="&#x10c;" horiz-adv-x="1497" 
d="M879 1567h-177l-282 319h198l170 -178l168 178h199zM799 182q170 0 280.5 87t161.5 247l209 -84q-33 -98 -89 -179.5t-135.5 -144.5t-187.5 -98t-235 -35q-153 0 -286 55t-228.5 151.5t-150 233.5t-54.5 296q0 212 93.5 381t256.5 262.5t365 93.5q127 0 236.5 -36
t189.5 -99.5t136.5 -144.5t88.5 -177l-209 -84q-51 159 -162.5 246.5t-283.5 87.5q-214 0 -352 -147.5t-138 -382.5t138.5 -382t355.5 -147z" />
    <glyph glyph-name="ccaron" unicode="&#x10d;" horiz-adv-x="1177" 
d="M727 1243h-186l-275 350h195l170 -215l172 215h192zM942 393l195 -78q-43 -139 -178 -239.5t-328 -100.5q-157 0 -285 73t-201 202t-73 289q0 240 158.5 401.5t398.5 161.5q98 0 184 -28.5t148.5 -77.5t105.5 -109t63 -127l-194 -78q-29 105 -108.5 165t-192.5 60
q-150 0 -248 -102t-98 -266t98 -266.5t248 -102.5q115 0 196.5 60t110.5 163z" />
    <glyph glyph-name="Dcaron" unicode="&#x10e;" horiz-adv-x="1474" 
d="M784 1567h-176l-282 317h198l168 -178l170 178h197zM684 1423q153 0 283.5 -50.5t223.5 -142t145.5 -225t52.5 -292.5q0 -213 -90 -375.5t-250 -250t-365 -87.5h-528v1423h528zM678 193q217 0 354 140t137 378t-137 379t-354 141h-305v-1038h305z" />
    <glyph glyph-name="dcaron" unicode="&#x10f;" horiz-adv-x="1458" 
d="M971 930v567h217v-1497h-201v168q-64 -92 -162 -142.5t-219 -50.5q-152 0 -274 73.5t-190 203t-68 289.5q0 158 67 286t187.5 201.5t271.5 73.5q235 0 371 -172zM1362 1497h158l-58 -479h-141zM633 168q153 0 249.5 104t96.5 269q0 164 -95.5 267t-250.5 103
q-148 0 -246 -106t-98 -264q0 -161 97.5 -267t246.5 -106z" />
    <glyph glyph-name="Dcroat" unicode="&#x110;" horiz-adv-x="1492" 
d="M702 1423q153 0 283.5 -50.5t223.5 -142t145.5 -225t52.5 -292.5q0 -213 -90 -375.5t-250 -250t-365 -87.5h-528v657h-139v152h139v614h528zM696 193q218 0 355 140t137 378t-137.5 379t-354.5 141h-305v-422h318v-152h-318v-464h305z" />
    <glyph glyph-name="dcroat" unicode="&#x111;" horiz-adv-x="1320" 
d="M1331 1356v-152h-143v-1204h-201v168q-64 -92 -162 -142.5t-219 -50.5q-152 0 -274 73.5t-190 203t-68 289.5q0 158 67 286t187.5 201.5t271.5 73.5q235 0 371 -172v274h-314v152h314v141h217v-141h143zM633 168q153 0 249.5 104t96.5 269q0 164 -95.5 267t-250.5 103
q-148 0 -246 -106t-98 -264q0 -161 97.5 -267t246.5 -106z" />
    <glyph glyph-name="Emacron" unicode="&#x112;" horiz-adv-x="1155" 
d="M942 1817v-179h-666v179h666zM373 190h704v-190h-921v1423h909v-190h-692v-406h622v-188h-622v-449z" />
    <glyph glyph-name="emacron" unicode="&#x113;" horiz-adv-x="1214" 
d="M932 1503v-172h-625v172h625zM279 467q25 -137 122 -218t234 -81q119 0 191 42.5t110 129.5l178 -113q-145 -252 -485 -252q-167 0 -296.5 73.5t-199.5 202t-70 288.5q0 154 73 284t199.5 205.5t276.5 75.5q121 0 224.5 -45t172 -120.5t106.5 -173t38 -202.5
q0 -56 -4 -96h-870zM281 633h659q-22 136 -108 215.5t-211 79.5q-128 0 -222 -79t-118 -216z" />
    <glyph glyph-name="Edotaccent" unicode="&#x116;" horiz-adv-x="1155" 
d="M610 1575q-64 0 -108.5 43.5t-44.5 110.5q0 65 44.5 106t110.5 41q64 0 107 -43t43 -109q0 -64 -43.5 -106.5t-108.5 -42.5zM373 190h704v-190h-921v1423h909v-190h-692v-406h622v-188h-622v-449z" />
    <glyph glyph-name="edotaccent" unicode="&#x117;" horiz-adv-x="1214" 
d="M621 1264q-67 0 -112.5 43t-45.5 110q0 66 46 110t112 44t111.5 -44t45.5 -110q0 -67 -45 -110t-112 -43zM279 467q25 -137 122 -218t234 -81q119 0 191 42.5t110 129.5l178 -113q-145 -252 -485 -252q-167 0 -296.5 73.5t-199.5 202t-70 288.5q0 154 73 284t199.5 205.5
t276.5 75.5q121 0 224.5 -45t172 -120.5t106.5 -173t38 -202.5q0 -56 -4 -96h-870zM281 633h659q-22 136 -108 215.5t-211 79.5q-128 0 -222 -79t-118 -216z" />
    <glyph glyph-name="Eogonek" unicode="&#x118;" horiz-adv-x="1155" 
d="M1075 -295l80 -102q-66 -76 -201 -76q-97 0 -157 55t-60 142q0 68 42 133t134 139l7 4h-764v1423h909v-190h-692v-406h622v-188h-622v-449h704v-190l-73 -74q-57 -58 -79 -95.5t-22 -74.5q0 -39 23.5 -63.5t60.5 -24.5q56 0 88 37z" />
    <glyph glyph-name="eogonek" unicode="&#x119;" horiz-adv-x="1214" 
d="M279 467q25 -137 122 -218t234 -81q119 0 191 42.5t110 129.5l178 -113q-89 -158 -258 -217l-61 -61q-58 -58 -80.5 -95.5t-22.5 -74.5q0 -39 24.5 -63.5t61.5 -24.5q54 0 88 37l80 -103q-66 -76 -201 -76q-97 0 -157 55t-60 142q0 110 125 229h-24q-167 0 -296.5 73.5
t-199.5 202t-70 288.5q0 154 73 284t199.5 205.5t276.5 75.5q121 0 224.5 -45t172 -120.5t106.5 -173t38 -202.5q0 -56 -4 -96h-870zM281 633h659q-22 136 -108 215.5t-211 79.5q-128 0 -222 -79t-118 -216z" />
    <glyph glyph-name="Ecaron" unicode="&#x11a;" horiz-adv-x="1155" 
d="M700 1567h-176l-280 319h198l168 -178l170 178h197zM373 190h704v-190h-921v1423h909v-190h-692v-406h622v-188h-622v-449z" />
    <glyph glyph-name="ecaron" unicode="&#x11b;" horiz-adv-x="1214" 
d="M715 1241h-185l-274 350h193l172 -217l170 217h192zM279 467q25 -137 122 -218t234 -81q119 0 191 42.5t110 129.5l178 -113q-145 -252 -485 -252q-167 0 -296.5 73.5t-199.5 202t-70 288.5q0 154 73 284t199.5 205.5t276.5 75.5q121 0 224.5 -45t172 -120.5t106.5 -173
t38 -202.5q0 -56 -4 -96h-870zM281 633h659q-22 136 -108 215.5t-211 79.5q-128 0 -222 -79t-118 -216z" />
    <glyph glyph-name="Gbreve" unicode="&#x11e;" horiz-adv-x="1579" 
d="M797 1567q-149 0 -238.5 91t-89.5 228h178q0 -67 40.5 -111t109.5 -44t109 44t40 111h178q0 -137 -89 -228t-238 -91zM1509 748q0 -177 -54 -323.5t-149 -244t-224.5 -151.5t-278.5 -54q-204 0 -368.5 94.5t-257.5 263t-93 378.5q0 212 93 380.5t256.5 262.5t367.5 94
q124 0 231 -33.5t187 -93t138 -137t93 -170.5l-209 -86q-55 151 -167.5 232t-276.5 81q-217 0 -354.5 -148.5t-137.5 -385.5q0 -239 141.5 -387t372.5 -148q188 0 315 105.5t166 302.5h-503v168h712z" />
    <glyph glyph-name="gbreve" unicode="&#x11f;" horiz-adv-x="1318" 
d="M649 1243q-153 0 -244.5 96t-91.5 254h172q0 -87 45 -136.5t119 -49.5t119 49.5t45 136.5h172q0 -158 -91 -254t-245 -96zM987 1079h201v-932q0 -246 -151.5 -392t-415.5 -146q-208 0 -339.5 85.5t-185.5 239.5l185 72q38 -106 126 -160.5t216 -54.5q168 0 266 91t98 247
v86q-63 -93 -160.5 -145t-220.5 -52q-152 0 -274 72t-190 195.5t-68 273.5q0 149 68.5 273.5t191 197t272.5 72.5q124 0 221 -51t160 -144v172zM631 186q151 0 247.5 102.5t96.5 260.5q0 157 -96 259.5t-246 102.5q-147 0 -245.5 -104t-98.5 -258q0 -156 97.5 -259.5
t244.5 -103.5z" />
    <glyph glyph-name="Gdotaccent" unicode="&#x120;" horiz-adv-x="1579" 
d="M797 1575q-64 0 -108 43.5t-44 110.5q0 65 44 106t110 41q63 0 106 -43t43 -109q0 -64 -43 -106.5t-108 -42.5zM1509 748q0 -177 -54 -323.5t-149 -244t-224.5 -151.5t-278.5 -54q-204 0 -368.5 94.5t-257.5 263t-93 378.5q0 212 93 380.5t256.5 262.5t367.5 94
q124 0 231 -33.5t187 -93t138 -137t93 -170.5l-209 -86q-55 151 -167.5 232t-276.5 81q-217 0 -354.5 -148.5t-137.5 -385.5q0 -239 141.5 -387t372.5 -148q188 0 315 105.5t166 302.5h-503v168h712z" />
    <glyph glyph-name="gdotaccent" unicode="&#x121;" horiz-adv-x="1318" 
d="M649 1266q-67 0 -112 43t-45 110q0 66 45.5 110t111.5 44t112 -44t46 -110q0 -67 -45.5 -110t-112.5 -43zM987 1079h201v-932q0 -246 -151.5 -392t-415.5 -146q-208 0 -339.5 85.5t-185.5 239.5l185 72q38 -106 126 -160.5t216 -54.5q168 0 266 91t98 247v86
q-63 -93 -160.5 -145t-220.5 -52q-152 0 -274 72t-190 195.5t-68 273.5q0 149 68.5 273.5t191 197t272.5 72.5q124 0 221 -51t160 -144v172zM631 186q151 0 247.5 102.5t96.5 260.5q0 157 -96 259.5t-246 102.5q-147 0 -245.5 -104t-98.5 -258q0 -156 97.5 -259.5
t244.5 -103.5z" />
    <glyph glyph-name="uni0122" unicode="&#x122;" horiz-adv-x="1579" 
d="M1509 748q0 -177 -54 -323.5t-149 -244t-224.5 -151.5t-278.5 -54q-204 0 -368.5 94.5t-257.5 263t-93 378.5q0 212 93 380.5t256.5 262.5t367.5 94q124 0 231 -33.5t187 -93t138 -137t93 -170.5l-209 -86q-55 151 -167.5 232t-276.5 81q-217 0 -354.5 -148.5
t-137.5 -385.5q0 -239 141.5 -387t372.5 -148q188 0 315 105.5t166 302.5h-503v168h712zM795 -100q55 0 90 -34t35 -89q0 -40 -16 -79.5t-54 -100.5l-76 -127l-102 36l73 134q10 14 11 20q-38 11 -62 43.5t-24 77.5q0 52 36 85.5t89 33.5z" />
    <glyph glyph-name="uni0123" unicode="&#x123;" horiz-adv-x="1318" 
d="M641 1223q-53 0 -88 35t-35 90q0 40 16 79.5t54 100.5l74 127l102 -39l-74 -131q-2 -3 -5.5 -11t-4.5 -10q39 -11 63.5 -43.5t24.5 -77.5q0 -52 -36.5 -86t-90.5 -34zM987 1079h201v-932q0 -246 -151.5 -392t-415.5 -146q-208 0 -339.5 85.5t-185.5 239.5l185 72
q38 -106 126 -160.5t216 -54.5q168 0 266 91t98 247v86q-63 -93 -160.5 -145t-220.5 -52q-152 0 -274 72t-190 195.5t-68 273.5q0 149 68.5 273.5t191 197t272.5 72.5q124 0 221 -51t160 -144v172zM631 186q151 0 247.5 102.5t96.5 260.5q0 157 -96 259.5t-246 102.5
q-147 0 -245.5 -104t-98.5 -258q0 -156 97.5 -259.5t244.5 -103.5z" />
    <glyph glyph-name="Hbar" unicode="&#x126;" horiz-adv-x="1466" 
d="M1413 1223v-170h-131v-1053h-217v637h-664v-637h-217v1053h-131v170h131v200h217v-200h664v200h217v-200h131zM1065 831v222h-664v-222h664z" />
    <glyph glyph-name="hbar" unicode="&#x127;" horiz-adv-x="1249" 
d="M694 1104q201 0 317.5 -119t116.5 -319v-666h-217v627q0 133 -74.5 208.5t-203.5 73.5q-119 0 -200 -75t-83 -177v-657h-217v1204h-143v152h143v141h217v-141h314v-152h-314v-246q59 67 147 106.5t197 39.5z" />
    <glyph glyph-name="Itilde" unicode="&#x128;" horiz-adv-x="528" 
d="M391 1575q-41 0 -77 16t-57 35t-49.5 35t-57.5 16q-39 0 -64 -25.5t-33 -68.5l-139 64q8 38 25 74t43 67.5t65.5 50.5t85.5 19q41 0 77 -16t57.5 -35.5t50.5 -35.5t57 -16q38 0 63.5 25.5t34.5 68.5l139 -63q-22 -88 -77 -149.5t-144 -61.5zM156 0v1423h217v-1423h-217z
" />
    <glyph glyph-name="itilde" unicode="&#x129;" horiz-adv-x="481" 
d="M358 1278q-36 0 -67.5 16t-51 35t-45.5 35t-51 16q-33 0 -55.5 -26t-30.5 -70l-125 64q10 54 31 99t62 78.5t94 33.5q35 0 66 -16t50 -35.5t45 -35.5t52 -16q34 0 56 26t30 70l127 -63q-48 -211 -187 -211zM133 0v1079h217v-1079h-217z" />
    <glyph glyph-name="Imacron" unicode="&#x12a;" horiz-adv-x="528" 
d="M16 1638v179h504v-179h-504zM156 0v1423h217v-1423h-217z" />
    <glyph glyph-name="imacron" unicode="&#x12b;" horiz-adv-x="481" 
d="M-10 1331v174h502v-174h-502zM133 0v1079h217v-1079h-217z" />
    <glyph glyph-name="Iogonek" unicode="&#x12e;" horiz-adv-x="528" 
d="M369 -295l82 -102q-31 -36 -84 -56t-117 -20q-97 0 -157 55t-60 142q0 68 42 133t132 139l6 4h-57v1423h217v-1423l-74 -74q-58 -58 -80 -95.5t-22 -74.5q0 -40 24 -64t62 -24q54 0 86 37z" />
    <glyph glyph-name="iogonek" unicode="&#x12f;" horiz-adv-x="485" 
d="M242 1266q-67 0 -112.5 42.5t-45.5 108.5q0 67 45.5 111.5t112.5 44.5q66 0 111.5 -44.5t45.5 -111.5t-45 -109t-112 -42zM342 -295l80 -102q-66 -76 -199 -76q-99 0 -159 55t-60 142q0 68 42 133t134 139l6 4h-53v1079h217v-1079h-4l-76 -74q-56 -58 -78 -95.5
t-22 -74.5q0 -39 23.5 -63.5t60.5 -24.5q56 0 88 37z" />
    <glyph glyph-name="Idotaccent" unicode="&#x130;" horiz-adv-x="528" 
d="M264 1575q-64 0 -107.5 43.5t-43.5 110.5q0 65 44 106t109 41t108.5 -43t43.5 -109q0 -64 -44.5 -106.5t-109.5 -42.5zM156 0v1423h217v-1423h-217z" />
    <glyph glyph-name="dotlessi" unicode="&#x131;" horiz-adv-x="481" 
d="M133 0v1079h217v-1079h-217z" />
    <glyph glyph-name="IJ" unicode="&#x132;" horiz-adv-x="1220" 
d="M156 0v1423h217v-1423h-217zM569 0v193h93q94 0 145 57.5t51 161.5v1011h219v-1013q0 -192 -104.5 -301t-296.5 -109h-107z" />
    <glyph glyph-name="ij" unicode="&#x133;" horiz-adv-x="1056" 
d="M242 1266q-67 0 -112.5 42.5t-45.5 108.5q0 67 45.5 111.5t112.5 44.5q66 0 111.5 -44.5t45.5 -111.5t-45 -109t-112 -42zM819 1266q-67 0 -112 42t-45 109t45.5 111.5t111.5 44.5q67 0 112.5 -44.5t45.5 -111.5q0 -66 -45.5 -108.5t-112.5 -42.5zM133 0v1079h217v-1079
h-217zM479 -375l-2 189h23q93 0 150 61t57 162v1042h217v-1040q0 -189 -112 -301.5t-288 -112.5h-45z" />
    <glyph glyph-name="uni0136" unicode="&#x136;" horiz-adv-x="1275" 
d="M596 741l694 -741h-256l-661 684v-684h-217v1423h217v-635l616 635h254zM692 -100q53 0 88 -34t35 -89q0 -40 -16 -79.5t-54 -100.5l-73 -127l-105 36l76 134q2 3 3.5 6l3.5 7t3 7q-39 11 -63.5 43.5t-24.5 77.5q0 52 36.5 85.5t90.5 33.5z" />
    <glyph glyph-name="uni0137" unicode="&#x137;" horiz-adv-x="1064" 
d="M563 582l512 -582h-241l-484 522v-522h-217v1497h217v-864l465 446h248zM567 -100q55 0 90 -34t35 -89q0 -40 -15.5 -80t-53.5 -100l-76 -127l-103 36l76 134q2 3 3.5 6l3.5 7t3 7q-39 11 -63.5 43.5t-24.5 77.5q0 52 36 85.5t89 33.5z" />
    <glyph glyph-name="kgreenlandic" unicode="&#x138;" horiz-adv-x="1064" 
d="M1075 0h-239l-486 492v-492h-217v1079h217v-477l465 477h250l-506 -522z" />
    <glyph glyph-name="Lacute" unicode="&#x139;" horiz-adv-x="1093" 
d="M528 1907l56 -178l-547 -179l-49 158zM373 195h694v-195h-911v1423h217v-1228z" />
    <glyph glyph-name="lacute" unicode="&#x13a;" horiz-adv-x="481" 
d="M14 1624l-49 158l539 198l55 -178zM133 0v1497h217v-1497h-217z" />
    <glyph glyph-name="uni013B" unicode="&#x13b;" horiz-adv-x="1093" 
d="M373 195h694v-195h-911v1423h217v-1228zM612 -100q53 0 88 -34t35 -89q0 -41 -15 -81t-52 -99l-76 -127l-103 36l74 134q2 3 3.5 6l3.5 7t3 7q-38 11 -62 43.5t-24 77.5q0 52 35.5 85.5t89.5 33.5z" />
    <glyph glyph-name="uni013C" unicode="&#x13c;" horiz-adv-x="481" 
d="M350 1497v-1497h-217v1497h217zM240 -100q53 0 87.5 -34t34.5 -89q0 -41 -15 -81t-52 -99l-76 -127l-102 36l73 134q4 6 11 20q-39 11 -63.5 43.5t-24.5 77.5q0 52 36.5 85.5t90.5 33.5z" />
    <glyph glyph-name="Lcaron" unicode="&#x13d;" horiz-adv-x="1101" 
d="M928 1444l-56 -479h-141l41 479h156zM373 195h694v-195h-911v1423h217v-1228z" />
    <glyph glyph-name="lcaron" unicode="&#x13e;" horiz-adv-x="620" 
d="M133 0v1497h217v-1497h-217zM483 1018l41 479h156l-55 -479h-142z" />
    <glyph glyph-name="Ldot" unicode="&#x13f;" horiz-adv-x="1114" 
d="M373 195h694v-195h-911v1423h217v-1228zM819 690q-58 0 -96.5 38t-38.5 95q0 60 38 99t97 39t97 -39t38 -99q0 -57 -38.5 -95t-96.5 -38z" />
    <glyph glyph-name="ldot" unicode="&#x140;" horiz-adv-x="692" 
d="M133 0v1497h217v-1497h-217zM592 627q-58 0 -96.5 38t-38.5 95q0 60 38 98.5t97 38.5q58 0 96.5 -38.5t38.5 -98.5q0 -57 -39 -95t-96 -38z" />
    <glyph glyph-name="Lslash" unicode="&#x141;" horiz-adv-x="1187" 
d="M467 195h692v-195h-911v616l-164 -63l-49 139l213 82v649h219v-565l195 74l45 -139l-240 -93v-505z" />
    <glyph glyph-name="lslash" unicode="&#x142;" horiz-adv-x="690" 
d="M682 848l-229 -129v-719h-215v598l-144 -82l-80 137l224 127v717h215v-596l149 84z" />
    <glyph glyph-name="Nacute" unicode="&#x143;" horiz-adv-x="1409" 
d="M1006 1729l-547 -179l-49 158l540 199zM1038 1423h217v-1423h-182l-700 1047v-1047h-217v1423h180l702 -1050v1050z" />
    <glyph glyph-name="nacute" unicode="&#x144;" horiz-adv-x="1249" 
d="M918 1468l-457 -266l-88 139l448 285zM694 1104q201 0 317.5 -119t116.5 -319v-666h-217v627q0 133 -74.5 208.5t-203.5 73.5q-119 0 -200 -75t-83 -177v-657h-217v1079h205v-137q58 74 149.5 118t206.5 44z" />
    <glyph glyph-name="uni0145" unicode="&#x145;" horiz-adv-x="1409" 
d="M1038 1423h217v-1423h-182l-700 1047v-1047h-217v1423h180l702 -1050v1050zM721 -100q53 0 88 -34t35 -89q0 -40 -16 -79.5t-54 -100.5l-74 -127l-102 36l74 134q2 3 3.5 6l3.5 7t3 7q-39 11 -63.5 43.5t-24.5 77.5q0 52 36.5 85.5t90.5 33.5z" />
    <glyph glyph-name="uni0146" unicode="&#x146;" horiz-adv-x="1249" 
d="M694 1104q201 0 317.5 -119t116.5 -319v-666h-217v627q0 133 -74.5 208.5t-203.5 73.5q-119 0 -200 -75t-83 -177v-657h-217v1079h205v-137q58 74 149.5 118t206.5 44zM625 -100q53 0 88 -34t35 -89q0 -41 -15.5 -80.5t-52.5 -99.5l-76 -127l-102 36l73 134q4 6 11 20
q-39 11 -63.5 43.5t-24.5 77.5q0 52 36.5 85.5t90.5 33.5z" />
    <glyph glyph-name="Ncaron" unicode="&#x147;" horiz-adv-x="1409" 
d="M776 1567h-174l-283 319h199l168 -180l170 180h197zM1038 1423h217v-1423h-182l-700 1047v-1047h-217v1423h180l702 -1050v1050z" />
    <glyph glyph-name="ncaron" unicode="&#x148;" horiz-adv-x="1249" 
d="M737 1241h-184l-274 350h192l170 -215l172 215h193zM694 1104q201 0 317.5 -119t116.5 -319v-666h-217v627q0 133 -74.5 208.5t-203.5 73.5q-119 0 -200 -75t-83 -177v-657h-217v1079h205v-137q58 74 149.5 118t206.5 44z" />
    <glyph glyph-name="napostrophe" unicode="&#x149;" horiz-adv-x="1452" 
d="M39 1055l41 481h158l-56 -481h-143zM899 1104q201 0 317.5 -119t116.5 -319v-666h-217v627q0 133 -75 208.5t-203 73.5q-120 0 -201.5 -75t-83.5 -177v-657h-215v1079h205v-137q58 74 149.5 118t206.5 44z" />
    <glyph glyph-name="Eng" unicode="&#x14a;" horiz-adv-x="1409" 
d="M1038 1423h217v-1441q0 -191 -102.5 -300.5t-286.5 -109.5h-41v195h45q94 0 146.5 56.5t52.5 160.5v22l-696 1041v-1047h-217v1423h180l702 -1050v1050z" />
    <glyph glyph-name="eng" unicode="&#x14b;" horiz-adv-x="1249" 
d="M694 1104q201 0 317.5 -119t116.5 -319v-637q0 -182 -111 -293t-284 -111h-37v189h23q88 0 140 58t52 155v600q0 133 -74.5 208.5t-203.5 73.5q-119 0 -200 -75t-83 -177v-657h-217v1079h205v-137q58 74 149.5 118t206.5 44z" />
    <glyph glyph-name="Omacron" unicode="&#x14c;" horiz-adv-x="1615" 
d="M475 1638v179h666v-179h-666zM809 -25q-203 0 -369.5 95.5t-262 264t-95.5 376.5q0 156 56 293.5t152.5 234.5t231.5 153t287 56t286 -56t230.5 -153t152.5 -234.5t56 -293.5t-56 -293t-152.5 -234t-230.5 -153t-286 -56zM809 182q221 0 362.5 148.5t141.5 380.5
q0 233 -140.5 381.5t-363.5 148.5q-224 0 -365 -148t-141 -382q0 -232 142 -380.5t364 -148.5z" />
    <glyph glyph-name="omacron" unicode="&#x14d;" horiz-adv-x="1280" 
d="M332 1331v172h624v-172h-624zM639 -25q-163 0 -293 73.5t-202 202.5t-72 288q0 244 159.5 403.5t407.5 159.5q249 0 409 -159.5t160 -403.5q0 -160 -72 -288.5t-202.5 -202t-294.5 -73.5zM641 170q155 0 252.5 103.5t97.5 265.5q0 163 -97 266.5t-253 103.5t-254 -103.5
t-98 -266.5q0 -161 98 -265t254 -104z" />
    <glyph glyph-name="Ohungarumlaut" unicode="&#x150;" horiz-adv-x="1615" 
d="M567 1518l-133 96l244 362l151 -110zM997 1518l-135 96l244 362l151 -110zM809 -25q-203 0 -369.5 95.5t-262 264t-95.5 376.5q0 156 56 293.5t152.5 234.5t231.5 153t287 56t286 -56t230.5 -153t152.5 -234.5t56 -293.5t-56 -293t-152.5 -234t-230.5 -153t-286 -56z
M809 182q221 0 362.5 148.5t141.5 380.5q0 233 -140.5 381.5t-363.5 148.5q-224 0 -365 -148t-141 -382q0 -232 142 -380.5t364 -148.5z" />
    <glyph glyph-name="ohungarumlaut" unicode="&#x151;" horiz-adv-x="1280" 
d="M420 1202l-133 96l243 340l152 -108zM838 1202l-136 96l244 340l152 -108zM639 -25q-163 0 -293 73.5t-202 202.5t-72 288q0 244 159.5 403.5t407.5 159.5q249 0 409 -159.5t160 -403.5q0 -160 -72 -288.5t-202.5 -202t-294.5 -73.5zM641 170q155 0 252.5 103.5
t97.5 265.5q0 163 -97 266.5t-253 103.5t-254 -103.5t-98 -266.5q0 -161 98 -265t254 -104z" />
    <glyph glyph-name="OE" unicode="&#x152;" horiz-adv-x="2310" 
d="M1530 190h704v-190h-921v197q-91 -105 -220 -163.5t-284 -58.5q-203 0 -369.5 95.5t-262 264t-95.5 376.5q0 156 56 293.5t152.5 234.5t231.5 153t287 56q155 0 284 -58t220 -163v196h909v-190h-692v-406h620v-188h-620v-449zM809 182q221 0 362.5 148.5t141.5 380.5
q0 233 -140.5 381.5t-363.5 148.5q-224 0 -365 -148t-141 -382q0 -232 142 -380.5t364 -148.5z" />
    <glyph glyph-name="oe" unicode="&#x153;" horiz-adv-x="2140" 
d="M1204 467q25 -137 122 -218t233 -81q120 0 192 42.5t111 129.5l178 -113q-145 -252 -486 -252q-146 0 -263.5 58t-192.5 160q-77 -102 -195.5 -160t-263.5 -58q-163 0 -293 73.5t-202 202.5t-72 288q0 244 159.5 403.5t407.5 159.5q147 0 266 -58t195 -163
q77 104 191.5 163.5t246.5 59.5q121 0 224 -45.5t171.5 -120.5t107 -172.5t38.5 -202.5q0 -66 -6 -96h-869zM1206 633h660q-22 136 -109 215.5t-213 79.5q-127 0 -220.5 -79t-117.5 -216zM641 170q147 0 242 92.5t106 241.5v35v32q-9 152 -104 245t-244 93
q-156 0 -254 -103.5t-98 -266.5q0 -161 98 -265t254 -104z" />
    <glyph glyph-name="Racute" unicode="&#x154;" horiz-adv-x="1253" 
d="M932 1729l-547 -179l-49 158l541 199zM944 0l-465 618h-108v-618h-215v1423h546q216 0 345 -111.5t129 -291.5q0 -175 -127 -287t-338 -115l479 -618h-246zM371 1233v-457h325q126 0 196.5 62t70.5 166t-70.5 166.5t-196.5 62.5h-325z" />
    <glyph glyph-name="racute" unicode="&#x155;" horiz-adv-x="702" 
d="M666 1468l-459 -266l-88 139l448 285zM338 942q57 73 144 117.5t188 44.5v-203q-143 -1 -231.5 -77t-88.5 -191v-633h-217v1079h205v-137z" />
    <glyph glyph-name="uni0156" unicode="&#x156;" horiz-adv-x="1253" 
d="M711 618l479 -618h-246l-465 618h-108v-618h-215v1423h546q216 0 345 -111.5t129 -291.5q0 -175 -127 -287t-338 -115zM371 1233v-457h325q126 0 196.5 62t70.5 166t-70.5 166.5t-196.5 62.5h-325zM623 -100q53 0 87.5 -34t34.5 -89q0 -40 -15.5 -80t-53.5 -100l-74 -127
l-102 36l73 134q4 6 11 20q-39 11 -63.5 43.5t-24.5 77.5q0 52 36.5 85.5t90.5 33.5z" />
    <glyph glyph-name="uni0157" unicode="&#x157;" horiz-adv-x="702" 
d="M338 942q57 73 144 117.5t188 44.5v-203q-143 -1 -231.5 -77t-88.5 -191v-633h-217v1079h205v-137zM242 -100q53 0 89 -34t36 -89q0 -40 -16 -79.5t-54 -100.5l-76 -127l-102 36l74 134q8 12 10 20q-38 11 -62 43.5t-24 77.5q0 52 36 85.5t89 33.5z" />
    <glyph glyph-name="Rcaron" unicode="&#x158;" horiz-adv-x="1253" 
d="M705 1567h-177l-282 319h198l168 -180l170 180h197zM944 0l-465 618h-108v-618h-215v1423h546q216 0 345 -111.5t129 -291.5q0 -175 -127 -287t-338 -115l479 -618h-246zM371 1233v-457h325q126 0 196.5 62t70.5 166t-70.5 166.5t-196.5 62.5h-325z" />
    <glyph glyph-name="rcaron" unicode="&#x159;" horiz-adv-x="702" 
d="M483 1241h-184l-274 350h192l172 -217l170 217h193zM338 942q57 73 144 117.5t188 44.5v-203q-143 -1 -231.5 -77t-88.5 -191v-633h-217v1079h205v-137z" />
    <glyph glyph-name="Sacute" unicode="&#x15a;" horiz-adv-x="1153" 
d="M356 1550l-49 158l539 199l55 -178zM569 -23q-195 0 -331 92t-183 257l205 77q31 -114 116.5 -175.5t211.5 -61.5q123 0 194.5 54.5t71.5 148.5q0 70 -40.5 121t-105.5 82t-143 58.5t-156.5 60.5t-143.5 76.5t-105.5 118t-40.5 175.5q0 172 124.5 278.5t340.5 106.5
q183 0 305 -82t162 -225l-205 -78q-60 199 -273 199q-112 0 -174.5 -50t-62.5 -131q0 -53 25 -93.5t68 -67.5t98 -49.5t116 -44t122.5 -45.5t116.5 -59t98 -79.5t68 -112.5t25 -153q0 -180 -137 -289t-367 -109z" />
    <glyph glyph-name="sacute" unicode="&#x15b;" horiz-adv-x="989" 
d="M326 1204l-88 139l446 285l98 -160zM498 -25q-174 0 -293.5 70t-161.5 201l197 76q25 -80 93 -124t171 -44q92 0 145 37t53 102q0 42 -26 74t-69 51.5t-97.5 39t-111.5 35t-111.5 41.5t-97.5 57.5t-69 83.5t-26 118q0 144 110 226.5t296 82.5q152 0 256 -59.5t139 -168.5
l-197 -75q-49 131 -202 131q-82 0 -127 -33.5t-45 -91.5q0 -39 26 -68.5t69 -46.5t97.5 -35t111.5 -33t111.5 -41t97.5 -59t69 -87.5t26 -125.5q0 -157 -117.5 -245.5t-316.5 -88.5z" />
    <glyph glyph-name="Scedilla" unicode="&#x15e;" horiz-adv-x="1153" 
d="M1073 375q0 -154 -102.5 -257.5t-282.5 -131.5l-37 -88q75 -4 123.5 -57t48.5 -130q0 -89 -67 -147t-178 -58q-77 0 -138 27.5t-96 69.5l76 90q56 -64 131 -64q51 0 83 29.5t32 71.5q0 44 -33 74t-86 30h-35l-14 14l51 129q-188 5 -318 96.5t-176 252.5l205 77
q31 -114 116.5 -175.5t211.5 -61.5q123 0 194.5 54.5t71.5 148.5q0 70 -40.5 121t-105.5 82t-143 58.5t-156.5 60.5t-143.5 76.5t-105.5 118t-40.5 175.5q0 172 124.5 278.5t340.5 106.5q183 0 305 -82t162 -225l-205 -78q-60 199 -273 199q-112 0 -174.5 -50t-62.5 -131
q0 -53 25 -93.5t68 -67.5t98 -49.5t116 -44t122.5 -45.5t116.5 -59t98 -79.5t68 -112.5t25 -153z" />
    <glyph glyph-name="scedilla" unicode="&#x15f;" horiz-adv-x="989" 
d="M932 309q0 -141 -98 -228t-267 -101l-32 -82q76 -4 125 -57t49 -130q0 -89 -68.5 -147t-177.5 -58q-78 0 -138 27.5t-96 69.5l76 90q52 -64 129 -64q53 0 85 29t32 72q0 44 -33.5 74t-87.5 30h-33l-14 14l51 129q-149 12 -251 81t-140 188l197 76q25 -80 93 -124t171 -44
q92 0 145 37t53 102q0 42 -26 74t-69 51.5t-97.5 39t-111.5 35t-111.5 41.5t-97.5 57.5t-69 83.5t-26 118q0 144 110 226.5t296 82.5q152 0 256 -59.5t139 -168.5l-197 -75q-49 131 -202 131q-82 0 -127 -33.5t-45 -91.5q0 -39 26 -68.5t69 -46.5t97.5 -35t111.5 -33
t111.5 -41t97.5 -59t69 -87.5t26 -125.5z" />
    <glyph glyph-name="Scaron" unicode="&#x160;" horiz-adv-x="1153" 
d="M690 1567h-176l-281 319h197l170 -180l170 180h197zM336 1079q0 -53 25 -93.5t68 -67.5t98 -49.5t116 -44t122.5 -45.5t116.5 -59t98 -79.5t68 -112.5t25 -153q0 -180 -137 -289t-367 -109q-195 0 -331 92t-183 257l205 77q31 -114 116.5 -175.5t211.5 -61.5
q123 0 194.5 54.5t71.5 148.5q0 70 -40.5 121t-105.5 82t-143 58.5t-156.5 60.5t-143.5 76.5t-105.5 118t-40.5 175.5q0 172 124.5 278.5t340.5 106.5q183 0 305 -82t162 -225l-205 -78q-60 199 -273 199q-112 0 -174.5 -50t-62.5 -131z" />
    <glyph glyph-name="scaron" unicode="&#x161;" horiz-adv-x="989" 
d="M602 1243h-186l-273 348h193l170 -215l172 215h192zM324 805q0 -39 26 -68.5t69 -46.5t97.5 -35t111.5 -33t111.5 -41t97.5 -59t69 -87.5t26 -125.5q0 -157 -117.5 -245.5t-316.5 -88.5q-174 0 -293.5 70t-161.5 201l197 76q25 -80 93 -124t171 -44q92 0 145 37t53 102
q0 42 -26 74t-69 51.5t-97.5 39t-111.5 35t-111.5 41.5t-97.5 57.5t-69 83.5t-26 118q0 144 110 226.5t296 82.5q152 0 256 -59.5t139 -168.5l-197 -75q-49 131 -202 131q-82 0 -127 -33.5t-45 -91.5z" />
    <glyph glyph-name="uni0162" unicode="&#x162;" horiz-adv-x="1148" 
d="M684 0h-39l-45 -106q76 -4 124 -57.5t48 -129.5q0 -90 -67.5 -148.5t-176.5 -58.5q-77 0 -137 27.5t-96 69.5l76 92q49 -64 129 -64q53 0 84.5 28.5t31.5 70.5q0 44 -33 74t-87 30h-33l-14 16l61 156h-43v1229h-440v194h1095v-194h-438v-1229z" />
    <glyph glyph-name="uni0163" unicode="&#x163;" horiz-adv-x="778" 
d="M590 0q-25 0 -37 2l-35 -86q75 -4 123.5 -57.5t48.5 -128.5q0 -90 -67.5 -147.5t-176.5 -57.5q-78 0 -137.5 26.5t-95.5 67.5l76 92q49 -63 129 -63q53 0 83.5 27.5t30.5 70.5q0 44 -32.5 74t-85.5 30h-35l-12 17l63 160q-104 38 -158.5 128.5t-54.5 221.5v516h-192v186
h104q100 0 100 105v174h211v-279h301v-186h-309v-494q0 -101 52 -155t149 -54h121v-190h-164z" />
    <glyph glyph-name="Tcaron" unicode="&#x164;" horiz-adv-x="1148" 
d="M666 1567h-177l-280 319h199l167 -178l170 178h197zM1122 1423v-194h-438v-1229h-217v1229h-440v194h1095z" />
    <glyph glyph-name="tcaron" unicode="&#x165;" horiz-adv-x="778" 
d="M612 1137l41 479h156l-55 -479h-142zM590 0q-180 0 -276.5 100.5t-96.5 276.5v516h-192v186h104q100 0 100 105v174h211v-279h301v-186h-309v-494q0 -101 52 -155t149 -54h121v-190h-164z" />
    <glyph glyph-name="Tbar" unicode="&#x166;" horiz-adv-x="1167" 
d="M1133 1229h-441v-498h230v-153h-230v-578h-217v578h-227v153h227v498h-438v194h1096v-194z" />
    <glyph glyph-name="tbar" unicode="&#x167;" horiz-adv-x="792" 
d="M643 190h121v-190h-164q-180 0 -276.5 100.5t-96.5 276.5v115h-157v153h157v248h-192v186h104q103 0 103 105v174h209v-279h301v-186h-308v-248h265v-153h-265v-93q0 -101 51 -155t148 -54z" />
    <glyph glyph-name="Utilde" unicode="&#x168;" horiz-adv-x="1376" 
d="M578 1677q-43 0 -70.5 -25.5t-36.5 -68.5l-152 64q20 84 81.5 147.5t158.5 63.5q44 0 83 -16t62.5 -35.5t55 -35.5t61.5 -16q43 0 70.5 25.5t36.5 68.5l153 -63q-23 -88 -83.5 -149.5t-157.5 -61.5q-45 0 -84.5 16t-62 35t-53.5 35t-62 16zM1020 1423h217v-886
q0 -116 -34.5 -216.5t-100.5 -178.5t-172 -122.5t-240 -44.5q-135 0 -241.5 44.5t-173 122t-101.5 178t-35 217.5v886h219v-886q0 -159 86 -258t246 -99q158 0 244 100t86 257v886z" />
    <glyph glyph-name="utilde" unicode="&#x169;" horiz-adv-x="1228" 
d="M481 1380q-40 0 -67.5 -25.5t-36.5 -68.5l-152 64q9 40 26 75t43.5 67t67 50.5t89.5 18.5q42 0 79.5 -16t60.5 -35.5t54.5 -35.5t63.5 -16q39 0 66 26t36 68l152 -63q-22 -90 -76 -150.5t-148 -60.5q-43 0 -81.5 16t-62 35t-54 35t-60.5 16zM881 1079h215v-1079h-203v137
q-58 -74 -148 -118t-198 -44q-202 0 -314 121t-112 316v667h215v-641q0 -122 73 -195.5t197 -72.5q119 0 196 72.5t79 171.5v665z" />
    <glyph glyph-name="Umacron" unicode="&#x16a;" horiz-adv-x="1376" 
d="M1022 1817v-179h-666v179h666zM1020 1423h217v-886q0 -116 -34.5 -216.5t-100.5 -178.5t-172 -122.5t-240 -44.5q-135 0 -241.5 44.5t-173 122t-101.5 178t-35 217.5v886h219v-886q0 -159 86 -258t246 -99q158 0 244 100t86 257v886z" />
    <glyph glyph-name="umacron" unicode="&#x16b;" horiz-adv-x="1228" 
d="M907 1505v-172h-626v172h626zM881 1079h215v-1079h-203v137q-58 -74 -148 -118t-198 -44q-202 0 -314 121t-112 316v667h215v-641q0 -122 73 -195.5t197 -72.5q119 0 196 72.5t79 171.5v665z" />
    <glyph glyph-name="Uring" unicode="&#x16e;" horiz-adv-x="1376" 
d="M690 1454q-102 0 -168.5 62.5t-66.5 160.5q0 97 67 160.5t168 63.5t167.5 -63.5t66.5 -160.5q0 -98 -66 -160.5t-168 -62.5zM690 1778q-45 0 -74.5 -29t-29.5 -72t29.5 -71.5t74.5 -28.5q44 0 73.5 28.5t29.5 71.5t-29.5 72t-73.5 29zM1020 1423h217v-886
q0 -116 -34.5 -216.5t-100.5 -178.5t-172 -122.5t-240 -44.5q-135 0 -241.5 44.5t-173 122t-101.5 178t-35 217.5v886h219v-886q0 -159 86 -258t246 -99q158 0 244 100t86 257v886z" />
    <glyph glyph-name="uring" unicode="&#x16f;" horiz-adv-x="1228" 
d="M596 1182q-102 0 -169 63t-67 162q0 95 67.5 159t168.5 64t167 -63.5t66 -159.5q0 -99 -65.5 -162t-167.5 -63zM596 1505q-45 0 -74.5 -28t-29.5 -70q0 -44 29 -73t75 -29q44 0 73 29t29 73q0 42 -29 70t-73 28zM881 1079h215v-1079h-203v137q-58 -74 -148 -118t-198 -44
q-202 0 -314 121t-112 316v667h215v-641q0 -122 73 -195.5t197 -72.5q119 0 196 72.5t79 171.5v665z" />
    <glyph glyph-name="Uhungarumlaut" unicode="&#x170;" horiz-adv-x="1376" 
d="M711 1866l-262 -348l-134 96l244 362zM1139 1866l-260 -348l-136 96l244 362zM1020 1423h217v-886q0 -116 -34.5 -216.5t-100.5 -178.5t-172 -122.5t-240 -44.5q-135 0 -241.5 44.5t-173 122t-101.5 178t-35 217.5v886h219v-886q0 -159 86 -258t246 -99q158 0 244 100
t86 257v886z" />
    <glyph glyph-name="uhungarumlaut" unicode="&#x171;" horiz-adv-x="1228" 
d="M633 1532l-262 -328l-133 96l243 340zM1049 1532l-261 -328l-135 96l244 340zM881 1079h215v-1079h-203v137q-58 -74 -148 -118t-198 -44q-202 0 -314 121t-112 316v667h215v-641q0 -122 73 -195.5t197 -72.5q119 0 196 72.5t79 171.5v665z" />
    <glyph glyph-name="Uogonek" unicode="&#x172;" horiz-adv-x="1376" 
d="M1020 1423h217v-886q0 -176 -78 -314.5t-227 -202.5l-70 -69q-58 -58 -80 -95.5t-22 -74.5q0 -40 24 -64t62 -24q54 0 86 37l82 -103q-31 -36 -84 -56t-117 -20q-97 0 -157 55t-60 142q0 113 123 227h-29q-135 0 -241.5 44.5t-173 122t-101.5 178t-35 217.5v886h219v-886
q0 -159 86 -258t246 -99q158 0 244 100t86 257v886z" />
    <glyph glyph-name="uogonek" unicode="&#x173;" horiz-adv-x="1228" 
d="M1094 -295l80 -102q-66 -76 -201 -76q-97 0 -157 55t-60 142q0 68 42 133t134 139l6 4h-45v137q-58 -74 -148 -118t-198 -44q-202 0 -314 121t-112 316v667h215v-641q0 -122 73 -195.5t197 -72.5q119 0 196 72.5t79 171.5v665h215v-1079l-74 -74q-56 -58 -78 -95.5
t-22 -74.5q0 -39 23.5 -63.5t60.5 -24.5q56 0 88 37z" />
    <glyph glyph-name="Wcircumflex" unicode="&#x174;" horiz-adv-x="1816" 
d="M909 1745l-170 -178h-196l280 319h176l277 -319h-199zM1575 1423h215l-336 -1423h-252l-293 1126l-295 -1126h-249l-336 1423h213l252 -1161l299 1161h233l299 -1161z" />
    <glyph glyph-name="wcircumflex" unicode="&#x175;" horiz-adv-x="1609" 
d="M803 1458l-170 -215h-193l273 350h186l268 -350h-192zM1370 1079h223l-288 -1079h-256l-240 842l-236 -842h-256l-292 1079h223l207 -870l233 870h244l233 -862z" />
    <glyph glyph-name="Ycircumflex" unicode="&#x176;" horiz-adv-x="1282" 
d="M643 1747l-170 -180h-197l281 319h176l277 -319h-197zM1276 1423l-526 -839v-584h-218v584l-526 839h244l391 -655l391 655h244z" />
    <glyph glyph-name="ycircumflex" unicode="&#x177;" horiz-adv-x="1126" 
d="M563 1458l-170 -215h-194l274 350h186l269 -350h-193zM889 1079h225l-426 -1079l-143 -367h-213l147 367h-61l-402 1079h224l313 -901z" />
    <glyph glyph-name="Ydieresis" unicode="&#x178;" horiz-adv-x="1282" 
d="M418 1575q-63 0 -107.5 44t-44.5 110q0 65 45 107t111 42q63 0 106 -44t43 -110q0 -64 -44 -106.5t-109 -42.5zM862 1575q-63 0 -107 44t-44 110q0 65 45 107t110 42q64 0 108 -44t44 -110q0 -64 -45.5 -106.5t-110.5 -42.5zM1276 1423l-526 -839v-584h-218v584l-526 839
h244l391 -655l391 655h244z" />
    <glyph glyph-name="Zacute" unicode="&#x179;" horiz-adv-x="1146" 
d="M893 1729l-547 -179l-49 158l541 199zM1092 195l4 -195h-1041v150l750 1083h-733v190h1011v-151l-757 -1077h766z" />
    <glyph glyph-name="zacute" unicode="&#x17a;" horiz-adv-x="974" 
d="M762 1468l-459 -266l-88 139l449 285zM319 176h607v-176h-875v156l588 747h-561v176h825v-161z" />
    <glyph glyph-name="Zdotaccent" unicode="&#x17b;" horiz-adv-x="1146" 
d="M573 1575q-64 0 -108.5 43.5t-44.5 110.5q0 65 44.5 106t110.5 41q63 0 106.5 -43t43.5 -109q0 -64 -43.5 -106.5t-108.5 -42.5zM1092 195l4 -195h-1041v150l750 1083h-733v190h1011v-151l-757 -1077h766z" />
    <glyph glyph-name="zdotaccent" unicode="&#x17c;" horiz-adv-x="974" 
d="M485 1264q-67 0 -112 43t-45 110q0 66 45.5 110t111.5 44t112 -44t46 -110q0 -67 -45.5 -110t-112.5 -43zM319 176h607v-176h-875v156l588 747h-561v176h825v-161z" />
    <glyph glyph-name="Zcaron" unicode="&#x17d;" horiz-adv-x="1146" 
d="M664 1567h-177l-280 319h199l167 -178l170 178h197zM1092 195l4 -195h-1041v150l750 1083h-733v190h1011v-151l-757 -1077h766z" />
    <glyph glyph-name="zcaron" unicode="&#x17e;" horiz-adv-x="974" 
d="M580 1241h-185l-274 350h192l172 -217l170 217h193zM319 176h607v-176h-875v156l588 747h-561v176h825v-161z" />
    <glyph glyph-name="uni01EA" unicode="&#x1ea;" horiz-adv-x="1615" 
d="M1030 8l-72 -69q-57 -57 -78.5 -95.5t-21.5 -76.5q0 -40 23.5 -64.5t60.5 -24.5q57 0 88 39l80 -102q-68 -78 -201 -78q-97 0 -157 55t-60 142q0 117 142 241h-25q-203 0 -369.5 95.5t-262 264t-95.5 376.5q0 156 56 293.5t152.5 234.5t231.5 153t287 56t286 -56
t230.5 -153t152.5 -234.5t56 -293.5q0 -253 -139 -444t-365 -259zM303 711q0 -232 142 -380.5t364 -148.5q221 0 362.5 148.5t141.5 380.5q0 233 -140.5 381.5t-363.5 148.5q-224 0 -365 -148t-141 -382z" />
    <glyph glyph-name="uni01EB" unicode="&#x1eb;" horiz-adv-x="1280" 
d="M831 4l-69 -70q-57 -57 -78.5 -95t-21.5 -77q0 -38 23 -62t60 -24q55 0 89 37l79 -102q-66 -76 -200 -76q-98 0 -157.5 54.5t-59.5 142.5q0 118 143 243q-163 0 -293 73.5t-202 202.5t-72 288q0 244 159.5 403.5t407.5 159.5q249 0 409 -159.5t160 -403.5
q0 -190 -102 -334t-275 -201zM289 539q0 -161 98 -265t254 -104q155 0 252.5 103.5t97.5 265.5q0 163 -97 266.5t-253 103.5t-254 -103.5t-98 -266.5z" />
    <glyph glyph-name="AEacute" unicode="&#x1fc;" horiz-adv-x="1908" 
d="M1542 1729l-547 -179l-49 158l541 199zM1128 190h705v-190h-922v367h-516l-194 -367h-230l744 1423h1106v-190h-693v-406h621v-188h-621v-449zM494 551h417v682h-57z" />
    <glyph glyph-name="aeacute" unicode="&#x1fd;" horiz-adv-x="2158" 
d="M1366 1470l-459 -266l-86 139l447 285zM1219 479q19 -151 114 -240t234 -89q243 0 327 194l179 -76q-57 -134 -172.5 -213.5t-294.5 -79.5q-289 0 -418 211v-186h-201v176q-63 -96 -160 -148.5t-221 -52.5q-152 0 -274 73.5t-190 203t-68 289.5q0 240 151.5 400.5
t380.5 160.5q124 0 221 -52t160 -147v176h201v-196q62 104 163 161.5t234 57.5q152 0 269 -75.5t176 -197t59 -266.5q0 -44 -4 -84h-866zM1219 610h675q-14 151 -102.5 241.5t-228.5 90.5q-141 0 -234 -90.5t-110 -241.5zM633 168q153 0 249.5 104t96.5 269q0 164 -95.5 267
t-250.5 103q-148 0 -246 -106t-98 -264q0 -161 97.5 -267t246.5 -106z" />
    <glyph glyph-name="Oslashacute" unicode="&#x1fe;" horiz-adv-x="1622" 
d="M1130 1729l-546 -179l-49 158l540 199zM1376 1186q162 -199 162 -475q0 -208 -95.5 -376.5t-262 -264t-369.5 -95.5q-240 0 -434 138l-144 -154l-129 123l144 154q-162 202 -162 475q0 209 95 378t261 264t369 95q245 0 436 -139l144 153l127 -123zM307 711
q0 -180 90 -316l707 760q-125 86 -293 86q-224 0 -364 -148t-140 -382zM811 182q221 0 363.5 148.5t142.5 380.5q0 181 -90 317l-705 -760q125 -86 289 -86z" />
    <glyph glyph-name="oslashacute" unicode="&#x1ff;" horiz-adv-x="1318" 
d="M938 1468l-457 -266l-88 139l447 285zM1272 971l-133 -117q88 -141 88 -315q0 -119 -42.5 -223.5t-117 -179.5t-181 -118t-229.5 -43q-221 0 -372 129l-133 -116l-105 116l133 117q-90 142 -90 318q0 244 159.5 403.5t407.5 159.5q226 0 381 -133l133 116zM307 539
q0 -99 37 -174l539 469q-90 75 -224 75q-156 0 -254 -103.5t-98 -266.5zM1010 539q0 94 -35 172l-535 -469q94 -72 219 -72q155 0 253 103.5t98 265.5z" />
    <glyph glyph-name="uni0218" unicode="&#x218;" horiz-adv-x="1153" 
d="M336 1079q0 -53 25 -93.5t68 -67.5t98 -49.5t116 -44t122.5 -45.5t116.5 -59t98 -79.5t68 -112.5t25 -153q0 -180 -137 -289t-367 -109q-195 0 -331 92t-183 257l205 77q31 -114 116.5 -175.5t211.5 -61.5q123 0 194.5 54.5t71.5 148.5q0 70 -40.5 121t-105.5 82
t-143 58.5t-156.5 60.5t-143.5 76.5t-105.5 118t-40.5 175.5q0 172 124.5 278.5t340.5 106.5q183 0 305 -82t162 -225l-205 -78q-60 199 -273 199q-112 0 -174.5 -50t-62.5 -131zM602 -100q53 0 88 -34t35 -89q0 -40 -16 -79.5t-54 -100.5l-73 -127l-103 36l74 134
q2 3 3.5 6l3.5 7t3 7q-39 11 -63.5 43.5t-24.5 77.5q0 52 36.5 85.5t90.5 33.5z" />
    <glyph glyph-name="uni0219" unicode="&#x219;" horiz-adv-x="989" 
d="M324 805q0 -39 26 -68.5t69 -46.5t97.5 -35t111.5 -33t111.5 -41t97.5 -59t69 -87.5t26 -125.5q0 -157 -117.5 -245.5t-316.5 -88.5q-174 0 -293.5 70t-161.5 201l197 76q25 -80 93 -124t171 -44q92 0 145 37t53 102q0 42 -26 74t-69 51.5t-97.5 39t-111.5 35
t-111.5 41.5t-97.5 57.5t-69 83.5t-26 118q0 144 110 226.5t296 82.5q152 0 256 -59.5t139 -168.5l-197 -75q-49 131 -202 131q-82 0 -127 -33.5t-45 -91.5zM524 -100q55 0 90 -34t35 -89q0 -40 -15.5 -80t-53.5 -100l-76 -127l-103 36l74 134q7 10 10 20q-38 11 -62 43.5
t-24 77.5q0 52 36 85.5t89 33.5z" />
    <glyph glyph-name="uni021A" unicode="&#x21a;" horiz-adv-x="1148" 
d="M1122 1423v-194h-438v-1229h-217v1229h-440v194h1095zM578 -100q53 0 87.5 -34t34.5 -89q0 -40 -15.5 -80t-53.5 -100l-74 -127l-104 36l75 134q4 6 11 20q-39 11 -63.5 43.5t-24.5 77.5q0 52 36.5 85.5t90.5 33.5z" />
    <glyph glyph-name="uni021B" unicode="&#x21b;" horiz-adv-x="778" 
d="M633 190h121v-190h-164q-180 0 -276.5 100.5t-96.5 276.5v516h-192v186h104q100 0 100 105v174h211v-279h301v-186h-309v-494q0 -101 52 -155t149 -54zM504 -82q53 0 88 -35t35 -90q0 -74 -70 -178l-74 -129l-102 39l74 133q4 6 8 18q-38 11 -62 43.5t-24 77.5
q0 53 36 87t91 34z" />
    <glyph glyph-name="uni0237" unicode="&#x237;" horiz-adv-x="485" 
d="M-90 -375l-2 189h22q93 0 150 61t57 162v1042h215v-1040q0 -189 -110.5 -301.5t-286.5 -112.5h-45z" />
    <glyph glyph-name="circumflex" unicode="&#x2c6;" horiz-adv-x="722" 
d="M788 1243h-192l-170 217l-172 -217h-193l275 350h184z" />
    <glyph glyph-name="caron" unicode="&#x2c7;" horiz-adv-x="813" 
d="M596 1593h192l-268 -350h-184l-275 350h193l172 -217z" />
    <glyph glyph-name="breve" unicode="&#x2d8;" horiz-adv-x="720" 
d="M397 1243q-154 0 -245 96t-91 254h172q0 -87 45 -136.5t119 -49.5t119 49.5t45 136.5h172q0 -158 -91.5 -254t-244.5 -96z" />
    <glyph glyph-name="dotaccent" unicode="&#x2d9;" horiz-adv-x="344" 
d="M219 1266q-67 0 -112.5 43t-45.5 110q0 66 46 110t112 44t112 -44t46 -110q0 -67 -45.5 -110t-112.5 -43z" />
    <glyph glyph-name="ring" unicode="&#x2da;" horiz-adv-x="497" 
d="M295 1182q-102 0 -168 63t-66 162q0 96 66.5 159.5t167.5 63.5q102 0 167.5 -63.5t65.5 -159.5q0 -100 -65 -162.5t-168 -62.5zM295 1305q44 0 74 29t30 73q0 41 -30 69.5t-74 28.5t-73 -28t-29 -70q0 -44 29 -73t73 -29z" />
    <glyph glyph-name="ogonek" unicode="&#x2db;" horiz-adv-x="540" 
d="M279 -471q-98 0 -158 55t-60 142q0 68 42 132.5t133 139.5l86 65l79 -61l-73 -74q-57 -57 -79 -94.5t-22 -75.5q0 -39 23.5 -63.5t60.5 -24.5q54 0 88 37l80 -102q-66 -76 -200 -76z" />
    <glyph glyph-name="tilde" unicode="&#x2dc;" horiz-adv-x="876" 
d="M575 1278q-43 0 -81.5 16t-62 35t-54 35t-60.5 16q-40 0 -67.5 -25.5t-36.5 -68.5l-152 64q20 87 76 149t148 62q43 0 80.5 -16t61 -35.5t54.5 -35.5t62 -16q40 0 67.5 25.5t36.5 68.5l152 -63q-22 -90 -76 -150.5t-148 -60.5z" />
    <glyph glyph-name="hungarumlaut" unicode="&#x2dd;" horiz-adv-x="735" 
d="M184 1204l-135 96l244 340l151 -108zM600 1204l-133 96l244 340l151 -108z" />
    <glyph glyph-name="gravecomb" unicode="&#x300;" 
d="M-150 1204l-456 266l98 158l447 -285z" />
    <glyph glyph-name="acutecomb" unicode="&#x301;" 
d="M-518 1204l-88 139l446 285l99 -158z" />
    <glyph glyph-name="uni0302" unicode="&#x302;" 
d="M-61 1243h-193l-170 217l-172 -217h-192l274 350h184z" />
    <glyph glyph-name="tildecomb" unicode="&#x303;" 
d="M-285 1278q-43 0 -81.5 16t-62 35t-54 35t-60.5 16q-40 0 -67.5 -25.5t-36.5 -68.5l-152 64q20 87 76 149t148 62q43 0 80.5 -16t61 -35.5t54.5 -35.5t62 -16q40 0 67.5 25.5t36.5 68.5l152 -63q-22 -90 -76 -150.5t-148 -60.5z" />
    <glyph glyph-name="uni0304" unicode="&#x304;" 
d="M-688 1333v172h627v-172h-627z" />
    <glyph glyph-name="uni0306" unicode="&#x306;" 
d="M-375 1243q-154 0 -245 96t-91 254h172q0 -87 45 -136.5t119 -49.5t119 49.5t45 136.5h172q0 -158 -91.5 -254t-244.5 -96z" />
    <glyph glyph-name="uni0307" unicode="&#x307;" 
d="M-219 1266q-67 0 -112.5 43t-45.5 110q0 66 46 110t112 44t112 -44t46 -110q0 -67 -45.5 -110t-112.5 -43z" />
    <glyph glyph-name="uni0308" unicode="&#x308;" 
d="M-645 1270q-62 0 -106 42.5t-44 108.5q0 63 45 104.5t109 41.5q62 0 104.5 -43t42.5 -107t-43.5 -105.5t-107.5 -41.5zM-215 1270q-62 0 -106 42.5t-44 108.5q0 63 45 104.5t109 41.5q62 0 106 -43t44 -107t-44.5 -105.5t-109.5 -41.5z" />
    <glyph glyph-name="uni030A" unicode="&#x30a;" 
d="M-295 1182q-102 0 -167.5 63t-65.5 162q0 96 66 159.5t167 63.5q102 0 168 -63.5t66 -159.5q0 -100 -65.5 -162.5t-168.5 -62.5zM-295 1305q45 0 75 29t30 73q0 41 -30.5 69.5t-74.5 28.5t-73 -28t-29 -70q0 -44 29 -73t73 -29z" />
    <glyph glyph-name="uni030B" unicode="&#x30b;" 
d="M-739 1204l-133 96l243 340l152 -108zM-322 1204l-133 96l242 340l152 -108z" />
    <glyph glyph-name="uni030C" unicode="&#x30c;" 
d="M-254 1593h193l-269 -350h-184l-274 350h192l172 -217z" />
    <glyph glyph-name="uni0326" unicode="&#x326;" 
d="M-182 -100q53 0 88 -34t35 -89q0 -40 -16 -79.5t-54 -100.5l-74 -127l-102 36l74 134q2 3 3.5 6l3.5 7t3 7q-39 11 -63.5 43.5t-24.5 77.5q0 52 36.5 85.5t90.5 33.5z" />
    <glyph glyph-name="uni0327" unicode="&#x327;" 
d="M-307 -494q-78 0 -138 27.5t-96 69.5l76 90q52 -64 131 -64q51 0 83 29.5t32 71.5q0 44 -33 74t-86 30h-35l-14 14l72 179h135l-53 -129q75 -4 123.5 -57t48.5 -130q0 -89 -67.5 -147t-178.5 -58z" />
    <glyph glyph-name="uni0328" unicode="&#x328;" 
d="M-262 -471q-97 0 -157 55t-60 142q0 68 42 133t132 139l86 65l80 -61l-74 -74q-57 -57 -78.5 -94.5t-21.5 -75.5q0 -39 23.5 -63.5t60.5 -24.5q54 0 88 37l80 -102q-66 -76 -201 -76z" />
    <glyph glyph-name="uni0335" unicode="&#x335;" 
d="M-735 485v152h674v-152h-674z" />
    <glyph glyph-name="uni0336" unicode="&#x336;" 
d="M-1421 561v170h1360v-170h-1360z" />
    <glyph glyph-name="uni0337" unicode="&#x337;" 
d="M-672 354l-82 138l588 331l82 -137z" />
    <glyph glyph-name="uni0338" unicode="&#x338;" 
d="M-1182 -10l-104 116l1124 981l101 -114z" />
    <glyph glyph-name="Wgrave" unicode="&#x1e80;" horiz-adv-x="1816" 
d="M1206 1708l-49 -158l-547 179l56 178zM1575 1423h215l-336 -1423h-252l-293 1126l-295 -1126h-249l-336 1423h213l252 -1161l299 1161h233l299 -1161z" />
    <glyph glyph-name="wgrave" unicode="&#x1e81;" horiz-adv-x="1609" 
d="M1055 1343l-88 -139l-457 266l98 158zM1370 1079h223l-288 -1079h-256l-240 842l-236 -842h-256l-292 1079h223l207 -870l233 870h244l233 -862z" />
    <glyph glyph-name="Wacute" unicode="&#x1e82;" horiz-adv-x="1816" 
d="M1227 1729l-545 -179l-51 158l540 199zM1575 1423h215l-336 -1423h-252l-293 1126l-295 -1126h-249l-336 1423h213l252 -1161l299 1161h233l299 -1161z" />
    <glyph glyph-name="wacute" unicode="&#x1e83;" horiz-adv-x="1609" 
d="M1079 1470l-456 -266l-88 139l446 285zM1370 1079h223l-288 -1079h-256l-240 842l-236 -842h-256l-292 1079h223l207 -870l233 870h244l233 -862z" />
    <glyph glyph-name="Wdieresis" unicode="&#x1e84;" horiz-adv-x="1816" 
d="M684 1575q-63 0 -107.5 44t-44.5 110q0 65 45 107t111 42q63 0 106.5 -44t43.5 -110q0 -64 -44.5 -106.5t-109.5 -42.5zM1128 1575q-63 0 -107 44t-44 110q0 65 45 107t111 42q63 0 107 -44t44 -110q0 -64 -45.5 -106.5t-110.5 -42.5zM1575 1423h215l-336 -1423h-252
l-293 1126l-295 -1126h-249l-336 1423h213l252 -1161l299 1161h233l299 -1161z" />
    <glyph glyph-name="wdieresis" unicode="&#x1e85;" horiz-adv-x="1609" 
d="M586 1270q-62 0 -106 42.5t-44 108.5q0 63 45 104.5t109 41.5q62 0 104.5 -43t42.5 -107t-43.5 -105.5t-107.5 -41.5zM1018 1270q-63 0 -106.5 42.5t-43.5 108.5q0 64 44 105t108 41q62 0 105.5 -43t43.5 -107t-43.5 -105.5t-107.5 -41.5zM1370 1079h223l-288 -1079h-256
l-240 842l-236 -842h-256l-292 1079h223l207 -870l233 870h244l233 -862z" />
    <glyph glyph-name="uni1E9E" unicode="&#x1e9e;" horiz-adv-x="1318" 
d="M897 772q157 -27 249.5 -130.5t92.5 -260.5q0 -183 -121 -291t-319 -108q-125 0 -211 48t-123 134l76 155q29 -76 90.5 -117.5t146.5 -41.5q110 0 176 65t66 174q0 113 -74.5 178.5t-204.5 65.5h-63v125l285 354q-88 133 -287 133q-147 0 -232.5 -82.5t-85.5 -226.5v-946
h-217v944q0 229 147 364.5t384 135.5q389 0 516 -318z" />
    <glyph glyph-name="Ygrave" unicode="&#x1ef2;" horiz-adv-x="1282" 
d="M940 1708l-49 -158l-545 179l55 178zM1276 1423l-526 -839v-584h-218v584l-526 839h244l391 -655l391 655h244z" />
    <glyph glyph-name="ygrave" unicode="&#x1ef3;" horiz-adv-x="1126" 
d="M815 1343l-88 -139l-457 266l99 158zM889 1079h225l-426 -1079l-143 -367h-213l147 367h-61l-402 1079h224l313 -901z" />
    <glyph glyph-name="uni1EF8" unicode="&#x1ef8;" horiz-adv-x="1282" 
d="M530 1677q-85 0 -106 -94l-152 64q20 84 81.5 147.5t158.5 63.5q44 0 83 -16t63 -35.5t55.5 -35.5t62.5 -16q41 0 68.5 25.5t38.5 68.5l151 -63q-23 -88 -83.5 -149.5t-157.5 -61.5q-45 0 -83.5 16t-62 35t-54.5 35t-63 16zM1276 1423l-526 -839v-584h-218v584l-526 839
h244l391 -655l391 655h244z" />
    <glyph glyph-name="uni1EF9" unicode="&#x1ef9;" horiz-adv-x="1126" 
d="M449 1380q-40 0 -68 -26t-37 -68l-149 64q20 87 75.5 149t147.5 62q42 0 79.5 -16t60.5 -35.5t54.5 -35.5t63.5 -16q40 0 67.5 25.5t36.5 68.5l152 -63q-56 -211 -225 -211q-43 0 -81.5 16t-61.5 35t-54 35t-61 16zM889 1079h225l-426 -1079l-143 -367h-213l147 367h-61
l-402 1079h224l313 -901z" />
    <glyph glyph-name="endash" unicode="&#x2013;" horiz-adv-x="1054" 
d="M117 422v178h821v-178h-821z" />
    <glyph glyph-name="emdash" unicode="&#x2014;" horiz-adv-x="1585" 
d="M117 422v176h1351v-176h-1351z" />
    <glyph glyph-name="quoteleft" unicode="&#x2018;" horiz-adv-x="421" 
d="M231 1231q49 -6 80 -39.5t31 -87.5q0 -60 -39 -98.5t-96 -38.5q-58 0 -96.5 39t-38.5 100q0 58 39 143l100 215h129z" />
    <glyph glyph-name="quoteright" unicode="&#x2019;" horiz-adv-x="421" 
d="M225 1475q58 0 96.5 -39.5t38.5 -100.5q0 -60 -38 -143l-103 -215h-127l109 233q-49 6 -80 39.5t-31 87.5q0 60 39 99t96 39z" />
    <glyph glyph-name="quotesinglbase" unicode="&#x201a;" horiz-adv-x="428" 
d="M213 244q58 0 96.5 -39.5t38.5 -100.5q0 -64 -39 -143l-100 -215h-127l108 236q-49 5 -79.5 37.5t-30.5 86.5q0 59 38.5 98.5t94.5 39.5z" />
    <glyph glyph-name="quotedblleft" unicode="&#x201c;" horiz-adv-x="761" 
d="M231 1231q49 -6 80 -39.5t31 -87.5q0 -60 -39 -98.5t-96 -38.5q-58 0 -96.5 39t-38.5 100q0 58 39 143l100 215h129zM571 1231q49 -6 80 -39.5t31 -87.5q0 -60 -39 -98.5t-96 -38.5q-56 0 -94.5 39t-38.5 100q0 64 39 143l100 215h127z" />
    <glyph glyph-name="quotedblright" unicode="&#x201d;" horiz-adv-x="761" 
d="M225 1475q58 0 96.5 -39.5t38.5 -100.5q0 -60 -38 -143l-103 -215h-127l109 233q-49 6 -80 39.5t-31 87.5q0 60 39 99t96 39zM565 1475q58 0 96.5 -39.5t38.5 -100.5q0 -66 -38 -143l-101 -215h-127l109 233q-49 6 -80 39.5t-31 87.5q0 59 38.5 98.5t94.5 39.5z" />
    <glyph glyph-name="quotedblbase" unicode="&#x201e;" horiz-adv-x="768" 
d="M213 244q58 0 96.5 -39.5t38.5 -100.5q0 -64 -39 -143l-100 -215h-127l108 236q-49 5 -79.5 37.5t-30.5 86.5q0 59 38.5 98.5t94.5 39.5zM555 244q56 0 95.5 -39.5t39.5 -100.5q0 -58 -39 -143l-102 -215h-127l108 236q-49 5 -79.5 37.5t-30.5 86.5q0 60 39 99t96 39z
" />
    <glyph glyph-name="dagger" unicode="&#x2020;" horiz-adv-x="724" 
d="M641 1276v-154h-197v-518h-165v518h-195v154h195v221h165v-221h197z" />
    <glyph glyph-name="daggerdbl" unicode="&#x2021;" horiz-adv-x="768" 
d="M662 1171h-195v-241h195v-152h-195v-174h-166v174h-195v152h195v241h-195v152h195v174h166v-174h195v-152z" />
    <glyph glyph-name="bullet" unicode="&#x2022;" horiz-adv-x="753" 
d="M377 463q-99 0 -166.5 66.5t-67.5 164.5q0 101 67.5 169.5t166.5 68.5q98 0 165.5 -68.5t67.5 -169.5q0 -98 -67.5 -164.5t-165.5 -66.5z" />
    <glyph glyph-name="ellipsis" unicode="&#x2026;" horiz-adv-x="1232" 
d="M219 -18q-57 0 -96 38t-39 95q0 59 39 98t96 39q59 0 97 -38.5t38 -98.5q0 -57 -38.5 -95t-96.5 -38zM616 -18q-57 0 -96 38t-39 95q0 59 38.5 98t96.5 39q59 0 97.5 -38.5t38.5 -98.5q0 -57 -39 -95t-97 -38zM1014 -18q-57 0 -95 38t-38 95q0 60 38 98.5t95 38.5
q59 0 97 -38.5t38 -98.5q0 -57 -38.5 -95t-96.5 -38z" />
    <glyph glyph-name="perthousand" unicode="&#x2030;" horiz-adv-x="2199" 
d="M377 780q-139 0 -231.5 95.5t-92.5 234.5q0 136 93 232t231 96q139 0 231 -95.5t92 -232.5q0 -139 -91.5 -234.5t-231.5 -95.5zM260 0l819 1423h172l-821 -1423h-170zM377 920q77 0 128.5 54t51.5 136q0 79 -51.5 134.5t-128.5 55.5t-128.5 -55.5t-51.5 -134.5
q0 -82 51.5 -136t128.5 -54zM1135 -14q-139 0 -231.5 94t-92.5 233q0 138 93 234t231 96q139 0 230 -96t91 -234q0 -139 -90.5 -233t-230.5 -94zM1827 -14q-139 0 -231.5 94t-92.5 233q0 138 93 234t231 96q139 0 230 -96t91 -234q0 -139 -90.5 -233t-230.5 -94zM1135 123
q77 0 128.5 54t51.5 136q0 79 -52 135t-128 56q-77 0 -129 -56t-52 -135q0 -82 51.5 -136t129.5 -54zM1827 123q77 0 127.5 54t50.5 136q0 79 -51 135t-127 56q-77 0 -128.5 -56t-51.5 -135q0 -82 51 -136t129 -54z" />
    <glyph glyph-name="guilsinglleft" unicode="&#x2039;" horiz-adv-x="604" 
d="M297 162l-229 346l229 344h205l-230 -344l230 -346h-205z" />
    <glyph glyph-name="guilsinglright" unicode="&#x203a;" horiz-adv-x="604" 
d="M102 162l230 346l-230 344h205l230 -344l-230 -346h-205z" />
    <glyph glyph-name="fraction" unicode="&#x2044;" horiz-adv-x="849" 
d="M-27 0l748 1423h166l-752 -1423h-162z" />
    <glyph glyph-name="uni2074" unicode="&#x2074;" horiz-adv-x="675" 
d="M600 967v-105h-76v-151h-141v151h-332v105l334 456h139v-456h76zM385 967v295l-215 -295h215z" />
    <glyph glyph-name="Euro" unicode="&#x20ac;" horiz-adv-x="1538" 
d="M1284 375l184 -127q-83 -125 -223 -199t-330 -74q-243 0 -425.5 132.5t-247.5 353.5h-187l15 143h145q-4 46 -4 72q0 24 4 74h-123l14 143h136q65 221 247 353t424 132q186 0 326 -73t227 -197l-184 -127q-122 193 -373 193q-151 0 -265.5 -74.5t-170.5 -206.5h475
l-12 -143h-500q-4 -50 -4 -74q0 -26 4 -72h475l-14 -143h-424q56 -130 171.5 -204.5t266.5 -74.5q254 0 373 193z" />
    <glyph glyph-name="trademark" unicode="&#x2122;" horiz-adv-x="1316" 
d="M512 1378v-104h-170v-465h-117v465h-170v104h457zM1198 809h-111l-28 395l-123 -375h-100l-125 375l-29 -395h-111l41 569h140l133 -405l135 405h137z" />
    <glyph glyph-name="minus" unicode="&#x2212;" horiz-adv-x="1107" 
d="M125 557v186h858v-186h-858z" />
    <glyph glyph-name="approxequal" unicode="&#x2248;" horiz-adv-x="1093" 
d="M737 694q-56 0 -106.5 17.5t-82 38t-75.5 38t-88 17.5q-54 0 -99 -20.5t-69 -59.5l-106 117q38 67 102.5 104t144.5 37q56 0 106.5 -17.5t82.5 -38t76.5 -38t89.5 -17.5q53 0 97.5 20.5t68.5 59.5l106 -116q-38 -67 -103 -104.5t-145 -37.5zM735 244q-55 0 -105.5 17
t-82.5 38t-76 38t-88 17q-53 0 -98.5 -21t-67.5 -59l-106 117q38 67 102.5 104t142.5 37q56 0 107 -17t83 -37t76.5 -37t88.5 -17q54 0 99 20t67 58l106 -117q-38 -67 -103 -104t-145 -37z" />
    <glyph glyph-name="notequal" unicode="&#x2260;" horiz-adv-x="1112" 
d="M985 762h-289l-92 -293h381v-184h-440l-74 -236h-201l74 236h-217v184h276l93 293h-369v186h428l74 232h200l-73 -232h229v-186z" />
    <glyph glyph-name="uniF8FF" unicode="&#xf8ff;" horiz-adv-x="4724" 
d="M1149 408q-95 0 -136.5 40t-41.5 130v466h203q0 -62 -40 -122t-98 -86l2 -9q58 35 119 35h105v-162h-86v-98q0 -35 36 -35q28 0 50 15v-154q-36 -20 -113 -20zM1303 418v626h200q0 -67 -47 -122t-115 -70l5 -6q84 16 143 16h16v-444h-202zM2808 408q-95 0 -137.5 40.5
t-42.5 129.5v466h202q0 -62 -39 -122t-98 -86l4 -9q58 35 119 35h102v-162h-86v-98q0 -35 37 -35q27 0 49 15v-154q-36 -20 -110 -20zM205 418v624h203v-624h-203zM584 408q-66 0 -105 34t-39 90q0 60 41 98t111 38q92 0 135 -43h4v71q0 24 -12 38t-35 14q-47 0 -47 -60
l-184 29q37 160 249 160q110 0 172 -50t62 -135v-274h-201v45h-6q-14 -20 -51.5 -37.5t-93.5 -17.5zM1548 418v444h199v-133h6q17 143 145 143q70 0 110 -46t40 -134v-274h-205v264q0 55 -39 55q-22 0 -32 -13t-21 -52v-254h-203zM2337 408q-123 0 -190.5 63.5t-67.5 167.5
t69 168.5t189 64.5q122 0 190 -64.5t68 -168.5q0 -103 -67.5 -167t-190.5 -64zM3463 270v592h203v-133h6q21 143 150 143q170 0 170 -233q0 -115 -51.5 -173t-125.5 -58q-105 0 -141 88h-6v-226h-205zM4274 408q-120 0 -187 63.5t-67 167.5q0 103 70 168t190 65
q107 0 173.5 -64.5t66.5 -158.5v-18h-307q0 -39 18.5 -66.5t50.5 -27.5q55 0 62 69l168 -16q-18 -95 -83 -138.5t-155 -43.5zM3015 262v135h133q115 0 137 25l-2 6h-139q-83 0 -107 80l-110 354h204q6 -37 20 -110t24 -134t14 -110h4q13 125 61 354h203l-145 -424
q-63 -176 -217 -176h-80zM4213 655h12q62 0 87.5 12t25.5 38q0 45 -49 45q-34 0 -55 -26t-21 -69zM3738 506q31 0 46 27.5t15 89.5q0 66 -12 95.5t-43 29.5q-46 0 -62 -68v-148q21 -26 56 -26zM2337 535q59 0 59 104q0 106 -59 106q-58 0 -58 -106q0 -104 58 -104zM686 469
q30 0 45 23v104q-10 16 -39 16q-25 0 -40 -19t-15 -52q0 -72 49 -72z" />
    <glyph glyph-name="uni00A40301" horiz-adv-x="688" 
d="M209 1550l-49 158l540 199l56 -178zM39 0v193h90q94 0 146.5 57.5t52.5 161.5v1011h217v-1013q0 -192 -104.5 -301t-295.5 -109h-106z" />
    <glyph glyph-name="Q.ss01" horiz-adv-x="1615" 
d="M1274 195h278v-195h-743q-210 0 -376 92t-258.5 255.5t-92.5 369.5q0 154 56 290t152.5 232.5t231.5 152.5t287 56q151 0 285 -55t229 -150t150 -227.5t55 -282.5q0 -170 -66 -308t-188 -230zM805 193q220 0 361 147.5t141 376.5t-140.5 376.5t-361.5 147.5
t-361.5 -147.5t-140.5 -376.5t141 -376.5t361 -147.5z" />
    <glyph glyph-name="i.loclTRK" horiz-adv-x="481" 
d="M242 1266q-67 0 -112.5 42.5t-45.5 108.5q0 67 45.5 111.5t112.5 44.5q66 0 111.5 -44.5t45.5 -111.5t-45 -109t-112 -42zM133 0v1079h217v-1079h-217z" />
    <glyph glyph-name="uni006A0301" horiz-adv-x="485" 
d="M68 1204l-88 139l446 285l98 -160zM-90 -375l-2 189h22q93 0 150 61t57 162v1042h215v-1040q0 -189 -110.5 -301.5t-286.5 -112.5h-45z" />
    <glyph glyph-name="g.ss01" horiz-adv-x="1157" 
d="M1122 1079v-186h-186q61 -101 61 -234q0 -111 -44 -202t-124 -152q112 -44 170 -126t58 -195q0 -166 -138.5 -270.5t-373.5 -104.5q-415 0 -531 307l197 76q73 -203 328 -203q145 0 222 57t77 156q0 98 -80 155.5t-223 57.5q-209 0 -340.5 124.5t-131.5 319.5
q0 193 132 319t340 126q86 0 163 -25h424zM268 659q0 -116 75 -190t192 -74t191.5 74t74.5 190t-74 190.5t-192 74.5t-192.5 -74.5t-74.5 -190.5z" />
    <glyph glyph-name="gbreve.ss01" horiz-adv-x="1157" 
d="M553 1243q-154 0 -245 96t-91 254h172q0 -87 45 -136.5t119 -49.5t119 49.5t45 136.5h172q0 -158 -91.5 -254t-244.5 -96zM1122 1079v-186h-186q61 -101 61 -234q0 -111 -44 -202t-124 -152q112 -44 170 -126t58 -195q0 -166 -138.5 -270.5t-373.5 -104.5
q-415 0 -531 307l197 76q73 -203 328 -203q145 0 222 57t77 156q0 98 -80 155.5t-223 57.5q-209 0 -340.5 124.5t-131.5 319.5q0 193 132 319t340 126q86 0 163 -25h424zM268 659q0 -116 75 -190t192 -74t191.5 74t74.5 190t-74 190.5t-192 74.5t-192.5 -74.5t-74.5 -190.5z
" />
    <glyph glyph-name="uni0123.ss01" horiz-adv-x="1157" 
d="M561 1223q-53 0 -88 35t-35 90q0 40 16 79.5t54 100.5l74 127l104 -39l-76 -131q-2 -3 -5.5 -11t-4.5 -10q39 -11 63.5 -43.5t24.5 -77.5q0 -52 -36.5 -86t-90.5 -34zM1122 1079v-186h-186q61 -101 61 -234q0 -111 -44 -202t-124 -152q112 -44 170 -126t58 -195
q0 -166 -138.5 -270.5t-373.5 -104.5q-415 0 -531 307l197 76q73 -203 328 -203q145 0 222 57t77 156q0 98 -80 155.5t-223 57.5q-209 0 -340.5 124.5t-131.5 319.5q0 193 132 319t340 126q86 0 163 -25h424zM268 659q0 -116 75 -190t192 -74t191.5 74t74.5 190t-74 190.5
t-192 74.5t-192.5 -74.5t-74.5 -190.5z" />
    <glyph glyph-name="gdotaccent.ss01" horiz-adv-x="1157" 
d="M553 1266q-67 0 -112.5 43t-45.5 110q0 66 46 110t112 44t112 -44t46 -110q0 -67 -45.5 -110t-112.5 -43zM1122 1079v-186h-186q61 -101 61 -234q0 -111 -44 -202t-124 -152q112 -44 170 -126t58 -195q0 -166 -138.5 -270.5t-373.5 -104.5q-415 0 -531 307l197 76
q73 -203 328 -203q145 0 222 57t77 156q0 98 -80 155.5t-223 57.5q-209 0 -340.5 124.5t-131.5 319.5q0 193 132 319t340 126q86 0 163 -25h424zM268 659q0 -116 75 -190t192 -74t191.5 74t74.5 190t-74 190.5t-192 74.5t-192.5 -74.5t-74.5 -190.5z" />
    <glyph glyph-name="t.ss01" horiz-adv-x="759" 
d="M266 0v893h-248v186h162q101 0 101 105v174h208v-279h248v-186h-254v-893h-217z" />
    <glyph glyph-name="tbar.ss01" horiz-adv-x="833" 
d="M778 893h-254v-256h228v-152h-228v-485h-217v485h-229v152h229v256h-248v186h162q101 0 101 105v174h208v-279h248v-186z" />
    <glyph glyph-name="tcaron.ss01" horiz-adv-x="759" 
d="M637 1137l41 479h158l-58 -479h-141zM266 0v893h-248v186h162q101 0 101 105v174h208v-279h248v-186h-254v-893h-217z" />
    <glyph glyph-name="uni0163.ss01" horiz-adv-x="759" 
d="M483 0h-39l-47 -113q75 -4 123.5 -57.5t48.5 -128.5q0 -90 -67 -147.5t-178 -57.5q-77 0 -138 27t-96 69l76 91q53 -64 131 -64q51 0 83 29t32 71q0 43 -33 73t-86 30h-35l-14 16l65 162h-43v893h-248v186h162q101 0 101 105v174h208v-279h248v-186h-254v-893z" />
    <glyph glyph-name="uni021B.ss01" horiz-adv-x="759" 
d="M489 1079h248v-186h-254v-893h-217v893h-248v186h162q101 0 101 105v174h208v-279zM385 -111q53 0 88 -35t35 -90q0 -40 -16 -79.5t-54 -98.5l-73 -129l-105 39l76 133q3 5 8 19q-38 11 -62 43.5t-24 77.5q0 53 36 86.5t91 33.5z" />
    <glyph glyph-name="u.ss01" horiz-adv-x="1214" 
d="M608 -25q-231 0 -360 127.5t-129 346.5v630h215v-637q0 -125 73.5 -199.5t200.5 -74.5q126 0 199.5 74.5t73.5 199.5v637h217v-630q0 -219 -130 -346.5t-360 -127.5z" />
    <glyph glyph-name="uacute.ss01" horiz-adv-x="1214" 
d="M426 1204l-88 139l448 285l97 -158zM608 -25q-231 0 -360 127.5t-129 346.5v630h215v-637q0 -125 73.5 -199.5t200.5 -74.5q126 0 199.5 74.5t73.5 199.5v637h217v-630q0 -219 -130 -346.5t-360 -127.5z" />
    <glyph glyph-name="ucircumflex.ss01" horiz-adv-x="1214" 
d="M606 1458l-170 -215h-192l274 350h184l269 -350h-193zM881 1079h217v-630q0 -219 -130 -346.5t-360 -127.5q-231 0 -360 127.5t-129 346.5v630h215v-637q0 -125 73.5 -199.5t200.5 -74.5q126 0 199.5 74.5t73.5 199.5v637z" />
    <glyph glyph-name="udieresis.ss01" horiz-adv-x="1214" 
d="M389 1270q-62 0 -105.5 42.5t-43.5 108.5q0 63 44.5 104.5t108.5 41.5q62 0 105 -43t43 -107t-44 -105.5t-108 -41.5zM821 1270q-63 0 -106 42.5t-43 108.5q0 64 43.5 105t107.5 41q62 0 106 -43t44 -107t-44 -105.5t-108 -41.5zM608 -25q-231 0 -360 127.5t-129 346.5
v630h215v-637q0 -125 73.5 -199.5t200.5 -74.5q126 0 199.5 74.5t73.5 199.5v637h217v-630q0 -219 -130 -346.5t-360 -127.5z" />
    <glyph glyph-name="ugrave.ss01" horiz-adv-x="1214" 
d="M772 1204l-459 266l99 158l446 -285zM608 -25q-231 0 -360 127.5t-129 346.5v630h215v-637q0 -125 73.5 -199.5t200.5 -74.5q126 0 199.5 74.5t73.5 199.5v637h217v-630q0 -219 -130 -346.5t-360 -127.5z" />
    <glyph glyph-name="uhungarumlaut.ss01" horiz-adv-x="1214" 
d="M383 1204l-133 96l244 340l149 -108zM801 1204l-135 96l243 340l152 -108zM608 -25q-231 0 -360 127.5t-129 346.5v630h215v-637q0 -125 73.5 -199.5t200.5 -74.5q126 0 199.5 74.5t73.5 199.5v637h217v-630q0 -219 -130 -346.5t-360 -127.5z" />
    <glyph glyph-name="umacron.ss01" horiz-adv-x="1214" 
d="M293 1333v172h627v-172h-627zM608 -25q-231 0 -360 127.5t-129 346.5v630h215v-637q0 -125 73.5 -199.5t200.5 -74.5q126 0 199.5 74.5t73.5 199.5v637h217v-630q0 -219 -130 -346.5t-360 -127.5z" />
    <glyph glyph-name="uogonek.ss01" horiz-adv-x="1214" 
d="M881 1079h217v-630q0 -171 -81.5 -288.5t-230.5 -160.5l-75 -74q-57 -58 -79 -95.5t-22 -74.5q0 -39 23.5 -63.5t60.5 -24.5q56 0 88 37l80 -102q-66 -76 -198 -76q-99 0 -159.5 55t-60.5 142q0 64 36.5 123.5t115.5 127.5q-225 3 -351 130.5t-126 343.5v630h215v-637
q0 -125 73.5 -199.5t200.5 -74.5q126 0 199.5 74.5t73.5 199.5v637z" />
    <glyph glyph-name="uring.ss01" horiz-adv-x="1214" 
d="M608 1182q-102 0 -168.5 63t-66.5 162q0 95 67 159t168 64t167.5 -63.5t66.5 -159.5q0 -99 -66 -162t-168 -63zM608 1305q44 0 73.5 29t29.5 73q0 41 -29.5 69.5t-73.5 28.5q-45 0 -74.5 -28t-29.5 -70q0 -44 29 -73t75 -29zM608 -25q-231 0 -360 127.5t-129 346.5v630
h215v-637q0 -125 73.5 -199.5t200.5 -74.5q126 0 199.5 74.5t73.5 199.5v637h217v-630q0 -219 -130 -346.5t-360 -127.5z" />
    <glyph glyph-name="utilde.ss01" horiz-adv-x="1214" 
d="M752 1278q-43 0 -81.5 16t-62 35t-54 35t-60.5 16q-40 0 -68 -26t-37 -68l-151 64q9 40 26 75t43.5 67t66.5 50.5t89 18.5q42 0 79.5 -16t60.5 -35.5t54.5 -35.5t63.5 -16q39 0 66 26t36 68l152 -63q-22 -90 -75.5 -150.5t-147.5 -60.5zM608 -25q-231 0 -360 127.5
t-129 346.5v630h215v-637q0 -125 73.5 -199.5t200.5 -74.5q126 0 199.5 74.5t73.5 199.5v637h217v-630q0 -219 -130 -346.5t-360 -127.5z" />
    <glyph glyph-name="y.ss01" horiz-adv-x="1224" 
d="M879 1079h217v-991q0 -228 -128 -352.5t-366 -124.5q-175 0 -293.5 75t-173.5 212l182 69q67 -188 285 -188q140 0 214.5 75t74.5 216v108q-60 -73 -151.5 -116.5t-194.5 -43.5q-200 0 -313 120.5t-113 316.5v624h215v-598q0 -122 73.5 -196t196.5 -74q115 2 194.5 72
t80.5 174v622z" />
    <glyph glyph-name="yacute.ss01" horiz-adv-x="1224" 
d="M887 1470l-459 -266l-88 139l448 285zM879 1079h217v-991q0 -228 -128 -352.5t-366 -124.5q-175 0 -293.5 75t-173.5 212l182 69q67 -188 285 -188q140 0 214.5 75t74.5 216v108q-60 -73 -151.5 -116.5t-194.5 -43.5q-200 0 -313 120.5t-113 316.5v624h215v-598
q0 -122 73.5 -196t196.5 -74q115 2 194.5 72t80.5 174v622z" />
    <glyph glyph-name="ycircumflex.ss01" horiz-adv-x="1224" 
d="M610 1460l-172 -217h-192l274 350h185l268 -350h-193zM879 1079h217v-991q0 -228 -128 -352.5t-366 -124.5q-175 0 -293.5 75t-173.5 212l182 69q67 -188 285 -188q140 0 214.5 75t74.5 216v108q-60 -73 -151.5 -116.5t-194.5 -43.5q-200 0 -313 120.5t-113 316.5v624
h215v-598q0 -122 73.5 -196t196.5 -74q115 2 194.5 72t80.5 174v622z" />
    <glyph glyph-name="ydieresis.ss01" horiz-adv-x="1224" 
d="M393 1270q-63 0 -107 42.5t-44 108.5q0 63 44.5 104.5t108.5 41.5q62 0 105 -43t43 -107t-43.5 -105.5t-106.5 -41.5zM823 1270q-63 0 -106 42.5t-43 108.5q0 64 43.5 105t107.5 41q62 0 106 -43t44 -107t-44 -105.5t-108 -41.5zM879 1079h217v-991q0 -228 -128 -352.5
t-366 -124.5q-175 0 -293.5 75t-173.5 212l182 69q67 -188 285 -188q140 0 214.5 75t74.5 216v108q-60 -73 -151.5 -116.5t-194.5 -43.5q-200 0 -313 120.5t-113 316.5v624h215v-598q0 -122 73.5 -196t196.5 -74q115 2 194.5 72t80.5 174v622z" />
    <glyph glyph-name="ygrave.ss01" horiz-adv-x="1224" 
d="M862 1343l-88 -139l-459 266l99 158zM879 1079h217v-991q0 -228 -128 -352.5t-366 -124.5q-175 0 -293.5 75t-173.5 212l182 69q67 -188 285 -188q140 0 214.5 75t74.5 216v108q-60 -73 -151.5 -116.5t-194.5 -43.5q-200 0 -313 120.5t-113 316.5v624h215v-598
q0 -122 73.5 -196t196.5 -74q115 2 194.5 72t80.5 174v622z" />
    <glyph glyph-name="uni1EF9.ss01" horiz-adv-x="1224" 
d="M496 1380q-40 0 -68 -26t-37 -68l-151 64q9 40 26 75t43.5 67t66.5 50.5t89 18.5q42 0 79.5 -16t60.5 -35.5t54.5 -35.5t63.5 -16q39 0 66 26t36 68l152 -63q-22 -90 -75.5 -150.5t-147.5 -60.5q-43 0 -81.5 16t-62 35t-54 35t-60.5 16zM879 1079h217v-991
q0 -228 -128 -352.5t-366 -124.5q-175 0 -293.5 75t-173.5 212l182 69q67 -188 285 -188q140 0 214.5 75t74.5 216v108q-60 -73 -151.5 -116.5t-194.5 -43.5q-200 0 -313 120.5t-113 316.5v624h215v-598q0 -122 73.5 -196t196.5 -74q115 2 194.5 72t80.5 174v622z" />
    <glyph glyph-name="zero.osf" horiz-adv-x="1327" 
d="M664 -23q-163 0 -294 69.5t-207.5 199.5t-76.5 297q0 128 44.5 234t122 176.5t183.5 109.5t228 39q164 0 294.5 -66.5t206.5 -195t76 -297.5q0 -167 -76 -297t-207 -199.5t-294 -69.5zM664 170q154 0 258 100.5t104 270.5q0 167 -104 267.5t-258 100.5q-155 0 -259 -100
t-104 -268t104.5 -269.5t258.5 -101.5z" />
    <glyph glyph-name="one.osf" horiz-adv-x="854" 
d="M584 186h231v-186h-725v186h279v707h-289v186h504v-893z" />
    <glyph glyph-name="two.osf" horiz-adv-x="1107" 
d="M449 172h598v-172h-971v137q366 178 511.5 309t145.5 261q0 94 -59 148t-160 54q-90 0 -154.5 -43.5t-87.5 -120.5l-196 64q35 132 160 212.5t294 80.5q193 0 306.5 -97t113.5 -264q0 -158 -117.5 -294t-383.5 -275z" />
    <glyph glyph-name="three.osf" horiz-adv-x="1095" 
d="M602 528q181 0 299.5 -113.5t118.5 -287.5q0 -184 -136 -305t-356 -121q-183 0 -315.5 87t-173.5 222l199 80q27 -87 105.5 -141.5t186.5 -54.5q123 0 198 70t75 179q0 110 -73.5 175t-184.5 65h-193v145l361 365h-611v186h867v-172z" />
    <glyph glyph-name="four.osf" horiz-adv-x="1138" 
d="M1083 217v-162h-155v-299h-215v299h-658v158l660 864h213v-860h155zM715 217v590l-447 -590h447z" />
    <glyph glyph-name="five.osf" horiz-adv-x="1075" 
d="M520 551q227 0 358.5 -112.5t131.5 -303.5t-135.5 -312.5t-358.5 -121.5q-178 0 -302.5 80.5t-176.5 234.5l196 80q27 -92 102 -147t181 -55q122 0 199.5 70t77.5 177q0 108 -76.5 178t-194.5 70h-364l39 690h727v-186h-545l-19 -342h160z" />
    <glyph glyph-name="six.osf" horiz-adv-x="1124" 
d="M575 911q216 0 352 -128t136 -332q0 -207 -139 -341.5t-355 -134.5q-218 0 -360.5 133t-142.5 336q0 180 135 357l424 551h252l-347 -443q14 2 45 2zM569 162q123 0 201 80.5t78 206.5t-78 206t-201 80q-126 0 -207 -80.5t-81 -205.5q0 -123 82 -205t206 -82z" />
    <glyph glyph-name="seven.osf" horiz-adv-x="966" 
d="M29 1079h895v-166l-467 -1185h-242l467 1169h-653v182z" />
    <glyph glyph-name="eight.osf" horiz-adv-x="1148" 
d="M795 719q119 -38 193.5 -131t74.5 -219q0 -178 -134 -286t-354 -108q-221 0 -355 108.5t-134 285.5q0 126 72 219t190 131q-93 38 -150 114.5t-57 186.5q0 155 117.5 254t316.5 98q198 0 314.5 -98t116.5 -256q0 -111 -58 -187t-153 -112zM575 1196q-103 0 -165 -54
t-62 -145t63 -146.5t164 -55.5q100 0 163 56t63 146t-62 144.5t-164 54.5zM575 152q124 0 198.5 66t74.5 175q0 104 -75.5 172t-197.5 68q-123 0 -198.5 -68t-75.5 -172q0 -109 74.5 -175t199.5 -66z" />
    <glyph glyph-name="nine.osf" horiz-adv-x="1105" 
d="M547 1104q140 0 254.5 -59t181 -166.5t66.5 -241.5q0 -172 -123 -336l-437 -573h-251l340 442h-33q-215 0 -354.5 126.5t-139.5 332.5q0 211 141 343t355 132zM547 346q125 0 207 80.5t82 204.5t-82 205.5t-207 81.5q-122 0 -201.5 -80t-79.5 -207q0 -125 79.5 -205
t201.5 -80z" />
    <glyph glyph-name="uni030C.alt" 
d="M-326 965l41 479h156l-55 -479h-142z" />
    <glyph glyph-name="caron.alt" horiz-adv-x="354" 
d="M115 965l41 479h155l-55 -479h-141z" />
    <glyph glyph-name="uni0308.case" 
d="M-662 1575q-63 0 -107 44t-44 110q0 65 45 107t111 42q63 0 106 -44t43 -110q0 -64 -44.5 -106.5t-109.5 -42.5zM-217 1575q-63 0 -107.5 44t-44.5 110q0 65 45 107t111 42q63 0 107.5 -44t44.5 -110q0 -64 -45.5 -106.5t-110.5 -42.5z" />
    <glyph glyph-name="uni0307.case" 
d="M-215 1575q-64 0 -108 43.5t-44 110.5q0 65 44.5 106t111.5 41q63 0 106.5 -43t43.5 -109q0 -64 -44.5 -106.5t-109.5 -42.5z" />
    <glyph glyph-name="gravecomb.case" 
d="M-111 1550l-546 179l55 178l541 -199z" />
    <glyph glyph-name="acutecomb.case" 
d="M-606 1550l-49 158l540 199l56 -178z" />
    <glyph glyph-name="uni030B.case" 
d="M-752 1518l-133 96l244 362l152 -110zM-324 1518l-133 96l244 362l152 -110z" />
    <glyph glyph-name="uni0302.case" 
d="M-61 1567h-197l-170 178l-168 -178h-199l281 319h176z" />
    <glyph glyph-name="uni030C.case" 
d="M-258 1886h197l-277 -319h-176l-281 319h199l168 -178z" />
    <glyph glyph-name="uni0306.case" 
d="M-391 1567q-149 0 -238.5 91t-89.5 228h178q0 -67 40.5 -111t109.5 -44t109 44t40 111h179q0 -137 -89.5 -228t-238.5 -91z" />
    <glyph glyph-name="uni030A.case" 
d="M-287 1454q-102 0 -168.5 62.5t-66.5 160.5q0 97 67 160.5t168 63.5t167.5 -63.5t66.5 -160.5q0 -98 -66 -160.5t-168 -62.5zM-287 1577q44 0 73.5 28.5t29.5 71.5t-29.5 72t-73.5 29q-45 0 -74.5 -29t-29.5 -72t29.5 -71.5t74.5 -28.5z" />
    <glyph glyph-name="tildecomb.case" 
d="M-303 1583q-45 0 -83.5 16t-61.5 35.5t-54 35.5t-63 16q-43 0 -70.5 -26t-36.5 -69l-151 64q20 84 81 147.5t158 63.5q44 0 83.5 -16.5t63 -36t55.5 -36t63 -16.5q82 0 106 97l152 -64q-23 -88 -84 -149.5t-158 -61.5z" />
    <glyph glyph-name="uni0304.case" 
d="M-727 1638v179h666v-179h-666z" />
    <glyph glyph-name="uni0326.case" 
d="M-182 -100q53 0 88 -34t35 -89q0 -40 -16 -79.5t-54 -100.5l-74 -127l-102 36l74 134q2 3 3.5 6l3.5 7t3 7q-39 11 -63.5 43.5t-24.5 77.5q0 52 36.5 85.5t90.5 33.5z" />
    <glyph glyph-name="uni0337.case" 
d="M-686 387l-47 137l624 242l48 -139z" />
    <glyph glyph-name="uni0338.case" 
d="M-1380 0l-127 123l1286 1380l127 -123z" />
    <glyph glyph-name="dieresis.case" horiz-adv-x="784" 
d="M213 1575q-63 0 -107.5 44t-44.5 110q0 65 45 107t111 42q63 0 106.5 -44t43.5 -110q0 -64 -44.5 -106.5t-109.5 -42.5zM657 1575q-63 0 -107 44t-44 110q0 65 45 107t111 42q63 0 107 -44t44 -110q0 -64 -45.5 -106.5t-110.5 -42.5z" />
    <glyph glyph-name="dotaccent.case" horiz-adv-x="305" 
d="M213 1575q-64 0 -108 43.5t-44 110.5q0 65 44.5 106t111.5 41q63 0 106.5 -43t43.5 -109q0 -64 -44.5 -106.5t-109.5 -42.5z" />
    <glyph glyph-name="grave.case" horiz-adv-x="618" 
d="M608 1550l-547 179l56 178l540 -199z" />
    <glyph glyph-name="acute.case" horiz-adv-x="618" 
d="M111 1550l-50 158l541 199l55 -178z" />
    <glyph glyph-name="hungarumlaut.case" horiz-adv-x="1028" 
d="M195 1518l-134 96l244 362l152 -110zM623 1518l-134 96l244 362l152 -110z" />
    <glyph glyph-name="circumflex.case" horiz-adv-x="813" 
d="M795 1567h-197l-170 178l-168 -178h-199l281 319h176z" />
    <glyph glyph-name="caron.case" horiz-adv-x="813" 
d="M598 1886h197l-277 -319h-176l-281 319h199l168 -178z" />
    <glyph glyph-name="breve.case" horiz-adv-x="735" 
d="M389 1567q-149 0 -238.5 91t-89.5 228h179q0 -67 40 -111t109 -44t109.5 44t40.5 111h178q0 -137 -89.5 -228t-238.5 -91z" />
    <glyph glyph-name="ring.case" horiz-adv-x="497" 
d="M289 1454q-102 0 -169 62.5t-67 160.5q0 97 67.5 160.5t168.5 63.5t167 -63.5t66 -160.5q0 -98 -65.5 -160.5t-167.5 -62.5zM289 1577q44 0 73 28.5t29 71.5t-29 72t-73 29q-45 0 -75 -29t-30 -72t29.5 -71.5t75.5 -28.5z" />
    <glyph glyph-name="tilde.case" horiz-adv-x="876" 
d="M582 1583q-45 0 -83.5 16t-62 35.5t-54.5 35.5t-63 16q-43 0 -70 -26t-36 -69l-152 64q20 84 81.5 147.5t158.5 63.5q44 0 83 -16.5t63 -36t55.5 -36t62.5 -16.5q41 0 68.5 26t38.5 71l151 -64q-23 -88 -83.5 -149.5t-157.5 -61.5z" />
    <glyph glyph-name="macron.case" horiz-adv-x="778" 
d="M61 1638v179h666v-179h-666z" />
    <glyph glyph-name="IJacute" horiz-adv-x="1220" 
d="M37 1550l-49 158l540 199l56 -178zM741 1550l-49 158l539 199l55 -178zM156 0v1423h217v-1423h-217zM569 0v193h93q94 0 145 57.5t51 161.5v1011h219v-1013q0 -192 -104.5 -301t-296.5 -109h-107z" />
    <glyph glyph-name="ijacute" horiz-adv-x="1056" 
d="M59 1204l-86 139l447 285l98 -160zM637 1204l-88 139l448 285l99 -160zM133 0v1079h217v-1079h-217zM479 -375l-2 189h23q93 0 150 61t57 162v1042h217v-1040q0 -189 -112 -301.5t-288 -112.5h-45z" />
    </font>
</defs>
</svg>
