<?xml version="1.0" standalone="no"?>
<!DOCTYPE svg PUBLIC "-//W3C//DTD SVG 1.1//EN" "http://www.w3.org/Graphics/SVG/1.1/DTD/svg11.dtd" >
<svg xmlns="http://www.w3.org/2000/svg" xmlns:xlink="http://www.w3.org/1999/xlink" version="1.1">
<metadata>
Created by FontForge 20201107 at Thu Oct 31 06:45:07 2024
 By 
Copyright (c) 2019 by Daniel Hernandez &#38; Rodrigo Fuenzalida. All rights reserved.
</metadata>
<defs>
<font id="Biennale-BlackIt" horiz-adv-x="0" >
  <font-face 
    font-family="Biennale Black It"
    font-weight="900"
    font-style="italic"
    font-stretch="normal"
    units-per-em="2048"
    panose-1="0 0 10 0 0 0 0 0 0 0"
    ascent="1638"
    descent="-410"
    x-height="1079"
    cap-height="1423"
    bbox="-1513 -627 4520 2044"
    underline-thickness="102"
    underline-position="-204"
    slope="-11"
    unicode-range="U+0020-FB02"
  />
<missing-glyph horiz-adv-x="1093" 
d="M406 1495h860l-291 -1495h-860zM1122 1423h-602l187 -587zM457 1348l-234 -1201l424 601zM926 152l229 1191l-420 -595zM674 659l-416 -587h602z" />
    <glyph glyph-name="fi" unicode="fi" horiz-adv-x="1165" 
d="M911 1264q-71 0 -120 -42t-62 -116l-6 -27h549l-209 -1079h-324l156 801h-225l-156 -801h-326l156 801h-156l54 278h157q40 206 183 322.5t366 116.5h412l-51 -254h-398z" />
    <glyph glyph-name="fl" unicode="fl" horiz-adv-x="1216" 
d="M1407 1497l-291 -1497h-325l241 1241h-125q-71 0 -120 -41t-64 -117l-4 -18h155l-51 -264h-155l-154 -801h-326l154 801h-154l54 278h155q47 197 188 307.5t359 110.5h463z" />
    <glyph glyph-name=".notdef" horiz-adv-x="1093" 
d="M406 1495h860l-291 -1495h-860zM1122 1423h-602l187 -587zM457 1348l-234 -1201l424 601zM926 152l229 1191l-420 -595zM674 659l-416 -587h602z" />
    <glyph glyph-name=".null" 
 />
    <glyph glyph-name="nonmarkingreturn" horiz-adv-x="682" 
 />
    <glyph glyph-name="space" unicode=" " horiz-adv-x="378" 
 />
    <glyph glyph-name="exclam" unicode="!" horiz-adv-x="557" 
d="M244 508l139 989h371l-267 -989h-243zM287 -20q-71 0 -115.5 43t-44.5 112q0 81 59 143t144 62q73 0 116 -44t43 -112q0 -82 -58 -143t-144 -61z" />
    <glyph glyph-name="quotedbl" unicode="&#x22;" horiz-adv-x="815" 
d="M281 907l86 557h282l-135 -557h-233zM647 907l88 557h277l-133 -557h-232z" />
    <glyph glyph-name="numbersign" unicode="#" horiz-adv-x="1409" 
d="M1522 868h-228l-127 -276h166l-49 -246h-229l-160 -346h-268l159 346h-227l-160 -346h-266l160 346h-174l47 246h242l127 276h-175l50 248h241l142 307h262l-142 -307h228l141 307h266l-141 -307h166zM899 592l127 276h-227l-127 -276h227z" />
    <glyph glyph-name="dollar" unicode="$" horiz-adv-x="1058" 
d="M592 973q0 -40 27.5 -71t71.5 -52.5t97.5 -42.5t107 -50.5t97.5 -68.5t71.5 -103t27.5 -147q0 -170 -111.5 -284t-302.5 -140l-35 -182h-262l39 193q-131 29 -213 111.5t-105 209.5l293 105q12 -85 70.5 -135t138.5 -50q78 0 125 37t47 98q0 45 -27.5 78.5t-71.5 56.5
t-97.5 44.5t-107 51t-97.5 68t-71.5 102.5t-27.5 148q0 150 108.5 258t283.5 133l34 187h263l-39 -201q116 -33 186.5 -106.5t77.5 -173.5l-293 -105q-24 152 -154 152q-66 0 -108.5 -33.5t-42.5 -87.5z" />
    <glyph glyph-name="percent" unicode="%" horiz-adv-x="1574" 
d="M553 776q-129 0 -213 83t-84 212q0 148 108.5 259.5t260.5 111.5q127 0 211 -80.5t84 -204.5q0 -97 -46.5 -184t-132 -142t-188.5 -55zM272 0l1065 1423l248 2l-1067 -1423zM571 979q59 0 97.5 45.5t38.5 103.5q0 49 -28.5 80t-74.5 31q-57 0 -96 -44.5t-39 -104.5
q0 -48 28.5 -79.5t73.5 -31.5zM1227 -18q-129 0 -213 83t-84 211q0 149 108 260t260 111q127 0 211 -80.5t84 -204.5q0 -95 -46 -182t-131.5 -142.5t-188.5 -55.5zM1245 184q59 0 97 46.5t38 105.5q0 48 -28.5 78t-73.5 30q-57 0 -96 -44t-39 -103q0 -50 28.5 -81.5
t73.5 -31.5z" />
    <glyph glyph-name="ampersand" unicode="&#x26;" horiz-adv-x="1413" 
d="M1446 688q-71 -241 -246 -407l207 -281h-365l-79 111q-167 -131 -406 -131q-185 0 -303.5 101.5t-118.5 254.5q0 302 346 457q-63 117 -63 231q0 79 35 153.5t97 133.5t158.5 95t209.5 36q95 0 176.5 -29t142 -83.5t95 -140.5t34.5 -194h-338q0 61 -36 99.5t-99 38.5
q-64 0 -104.5 -42.5t-40.5 -105.5q0 -51 31.5 -109.5t138.5 -207.5l114 -156q89 118 133 297zM631 268q85 0 174 58l-195 268q-67 -39 -100 -82.5t-33 -105.5t42.5 -100t111.5 -38z" />
    <glyph glyph-name="quotesingle" unicode="'" horiz-adv-x="452" 
d="M281 907l86 557h282l-135 -557h-233z" />
    <glyph glyph-name="parenleft" unicode="(" horiz-adv-x="704" 
d="M451 -250q-131 126 -208 323.5t-77 420.5q0 352 163.5 654.5t463.5 510.5l190 -209q-502 -381 -502 -926q0 -169 54 -316.5t157 -260.5z" />
    <glyph glyph-name="parenright" unicode=")" horiz-adv-x="704" 
d="M178 -250l-190 207q501 383 501 926q0 346 -210 579l241 197q130 -129 207.5 -326.5t77.5 -417.5q0 -352 -163 -655t-464 -510z" />
    <glyph glyph-name="asterisk" unicode="*" horiz-adv-x="841" 
d="M455 760l57 194l-176 -118l-74 206l195 82l-162 86l154 205l129 -119l20 201h223l-55 -201l174 119l74 -205l-197 -86l164 -82l-154 -206l-129 118l-20 -194h-223z" />
    <glyph glyph-name="plus" unicode="+" horiz-adv-x="993" 
d="M1096 813l-54 -272h-301l-65 -338h-285l66 338h-299l53 272h301l68 348h284l-67 -348h299z" />
    <glyph glyph-name="comma" unicode="," horiz-adv-x="475" 
d="M287 342q71 0 115 -45t44 -111q0 -55 -20.5 -103t-67.5 -112l-168 -229h-178l176 256q-46 14 -74 53t-28 94q0 84 61 140.5t140 56.5z" />
    <glyph glyph-name="hyphen" unicode="-" horiz-adv-x="778" 
d="M168 371l51 262h584l-53 -262h-582z" />
    <glyph glyph-name="period" unicode="." horiz-adv-x="475" 
d="M244 -20q-71 0 -115.5 43t-44.5 112q0 82 58.5 143.5t144.5 61.5q73 0 116 -44t43 -112q0 -81 -58.5 -142.5t-143.5 -61.5z" />
    <glyph glyph-name="slash" unicode="/" horiz-adv-x="763" 
d="M25 -102l686 1558h282l-684 -1558h-284z" />
    <glyph glyph-name="zero" unicode="0" horiz-adv-x="1415" 
d="M745 -27q-253 0 -402.5 157.5t-149.5 451.5q0 131 31 256t93.5 236t150.5 195t210.5 132.5t263.5 48.5q253 0 405 -152.5t152 -441.5q0 -131 -32 -258.5t-96 -240t-153 -198.5t-211.5 -136t-261.5 -50zM784 285q111 0 198.5 71t133 187.5t45.5 255.5q0 163 -68 251.5
t-190 88.5q-110 0 -197 -71t-132.5 -188t-45.5 -255q0 -164 66.5 -252t189.5 -88z" />
    <glyph glyph-name="one" unicode="1" horiz-adv-x="851" 
d="M905 1423l-223 -1153h164l-53 -270h-711l53 270h223l131 680h-219l54 271h219l39 202h323z" />
    <glyph glyph-name="two" unicode="2" horiz-adv-x="1181" 
d="M920 528l-326 -258h561l-53 -270h-1041l43 215l574 465q147 118 207.5 194.5t60.5 153.5q0 66 -42 104.5t-111 38.5q-159 0 -246 -190l-279 96q76 178 225.5 275.5t344.5 97.5q201 0 325.5 -99t124.5 -259q0 -152 -83.5 -280.5t-284.5 -283.5z" />
    <glyph glyph-name="three" unicode="3" horiz-adv-x="1187" 
d="M1311 1423l-49 -256l-379 -317q148 -26 235.5 -131t87.5 -256q0 -138 -78 -250t-216.5 -176t-309.5 -64q-214 0 -358 94t-158 238l313 117q19 -80 79 -125t153 -45q104 0 170.5 58t66.5 147q0 86 -56.5 136t-152.5 50h-202l41 215l387 309h-557l49 256h934z" />
    <glyph glyph-name="four" unicode="4" horiz-adv-x="1230" 
d="M1294 1421l-170 -874h148l-49 -256h-148l-57 -291h-324l58 291h-662l47 239l836 891h321zM805 547l86 440l-414 -440h328z" />
    <glyph glyph-name="five" unicode="5" horiz-adv-x="1159" 
d="M1221 1167h-521l-61 -249h49q229 0 365.5 -111.5t136.5 -300.5q0 -241 -164.5 -387t-445.5 -146q-195 0 -331 90.5t-165 249.5l311 117q12 -88 72 -134t151 -46q105 0 170.5 61t65.5 154q0 88 -56.5 143.5t-150.5 55.5h-360l190 759h795z" />
    <glyph glyph-name="six" unicode="6" horiz-adv-x="1196" 
d="M827 958q120 -9 214 -60t151 -147t57 -223q0 -155 -82 -282.5t-223 -200t-311 -72.5q-218 0 -354 118.5t-136 316.5q0 237 215 462l531 553h379zM668 252q101 0 172 74t71 176q0 87 -51.5 141.5t-136.5 54.5q-106 0 -175 -78.5t-69 -177.5q0 -81 52 -135.5t137 -54.5z
" />
    <glyph glyph-name="seven" unicode="7" horiz-adv-x="1040" 
d="M297 1421h975l-49 -245l-672 -1176h-373l686 1151h-620z" />
    <glyph glyph-name="eight" unicode="8" horiz-adv-x="1198" 
d="M991 743q103 -42 160 -125.5t57 -197.5q0 -186 -164.5 -316.5t-416.5 -130.5q-221 0 -355.5 103t-134.5 268q0 145 96 258t252 156q-75 38 -117 106.5t-42 163.5q0 186 148.5 304t375.5 118q199 0 311.5 -95.5t112.5 -248.5q0 -126 -76.5 -223t-206.5 -140zM819 1186
q-76 0 -131 -53t-55 -127q0 -68 38 -106t103 -38q77 0 133 52.5t56 127.5q0 68 -39 106t-105 38zM649 238q99 0 167.5 61.5t68.5 151.5q0 78 -46.5 124t-131.5 46q-98 0 -169 -62.5t-71 -152.5q0 -80 48 -124t134 -44z" />
    <glyph glyph-name="nine" unicode="9" horiz-adv-x="1196" 
d="M836 1450q218 0 353.5 -118t135.5 -316q0 -127 -53 -237t-162 -226l-530 -553h-379l440 465q-120 9 -214 60t-151 147t-57 223q0 155 82 282.5t223.5 200t311.5 72.5zM745 725q106 0 175 78.5t69 177.5q0 81 -52 135.5t-136 54.5q-101 0 -172.5 -73.5t-71.5 -175.5
q0 -87 51.5 -142t136.5 -55z" />
    <glyph glyph-name="colon" unicode=":" horiz-adv-x="522" 
d="M389 600q-70 0 -115 43t-45 113q0 80 58.5 141t144.5 61q71 0 115.5 -42.5t44.5 -112.5q0 -80 -59.5 -141.5t-143.5 -61.5zM268 -20q-69 0 -114 43t-45 112q0 82 58 143.5t144 61.5q71 0 115.5 -43.5t44.5 -112.5q0 -81 -59 -142.5t-144 -61.5z" />
    <glyph glyph-name="semicolon" unicode=";" horiz-adv-x="526" 
d="M434 958q71 0 115.5 -42.5t44.5 -112.5q0 -80 -59.5 -141.5t-143.5 -61.5q-70 0 -116 43t-46 113q0 80 59.5 141t145.5 61zM313 342q71 0 115.5 -45t44.5 -111q0 -55 -20.5 -103t-67.5 -112l-168 -229h-180l178 256q-46 14 -75 53t-29 94q0 84 61.5 140.5t140.5 56.5z
" />
    <glyph glyph-name="less" unicode="&#x3c;" horiz-adv-x="856" 
d="M993 1141l-61 -314l-443 -200l367 -199l-53 -270l-658 393l37 192z" />
    <glyph glyph-name="equal" unicode="=" horiz-adv-x="1026" 
d="M231 741l54 273h848l-54 -273h-848zM139 266l54 273h845l-53 -273h-846z" />
    <glyph glyph-name="greater" unicode="&#x3e;" horiz-adv-x="854" 
d="M301 1141l655 -393l-34 -191l-813 -399l63 315l438 201l-362 196z" />
    <glyph glyph-name="question" unicode="?" horiz-adv-x="987" 
d="M393 508l17 90q12 59 39.5 111.5t63 90t75.5 71t77.5 62t68 56t49 59.5t18.5 66q0 45 -27 69.5t-74 24.5q-111 0 -159 -129l-277 97q63 157 190.5 249.5t307.5 92.5q171 0 281 -88.5t110 -237.5q0 -68 -23.5 -126.5t-61.5 -102t-85 -82.5t-95 -74.5t-89.5 -71.5t-72 -81
t-38.5 -95l-8 -51h-287zM463 -20q-71 0 -115.5 43t-44.5 112q0 81 59.5 143t145.5 62q70 0 114 -43.5t44 -112.5q0 -82 -58.5 -143t-144.5 -61z" />
    <glyph glyph-name="at" unicode="@" horiz-adv-x="1611" 
d="M1004 1198q189 0 337 -69.5t232 -199.5t84 -300q0 -217 -112 -364.5t-271 -147.5q-83 0 -143 34.5t-82 90.5q-104 -129 -258 -129q-125 0 -204 86.5t-79 222.5q0 160 110.5 279.5t262.5 119.5q160 0 229 -112l16 84h185l-70 -371q-6 -27 -6 -39q0 -59 61 -59
q63 0 99.5 76.5t36.5 213.5q0 174 -120.5 278.5t-334.5 104.5q-178 0 -322 -87t-220.5 -225t-76.5 -294q0 -192 117.5 -308t312.5 -116q184 0 287 96l99 -159q-143 -140 -420 -140q-140 0 -257 44t-196.5 122t-123.5 186.5t-44 235.5q0 174 68 330.5t184 269.5t278 179.5
t341 66.5zM864 332q62 0 105 48.5t43 111.5q0 52 -31 82t-84 30q-61 0 -103 -46.5t-42 -108.5q0 -52 31 -84.5t81 -32.5z" />
    <glyph glyph-name="A" unicode="A" horiz-adv-x="1323" 
d="M1014 0l-35 287h-498l-143 -287h-338l735 1423h400l184 -1423h-305zM614 553h334l-65 541z" />
    <glyph glyph-name="B" unicode="B" horiz-adv-x="1265" 
d="M1110 748q180 -89 180 -299q0 -194 -150 -321.5t-382 -127.5h-639l276 1423h609q173 0 266.5 -85.5t93.5 -229.5q0 -124 -68 -216.5t-186 -143.5zM1022 1030q0 39 -14.5 66t-39 40.5t-49.5 19t-55 5.5h-198l-60 -301h221q86 0 140.5 47.5t54.5 122.5zM745 262
q104 0 162 48.5t58 133.5q0 74 -44 114t-128 40h-236l-65 -336h253z" />
    <glyph glyph-name="C" unicode="C" horiz-adv-x="1470" 
d="M838 -27q-192 0 -342 81.5t-233 230t-83 338.5q0 225 106.5 414.5t295 301t417.5 111.5q250 0 425.5 -134t197.5 -333l-324 -121q-19 131 -106 205t-223 74q-195 0 -323 -142.5t-128 -349.5q0 -163 97.5 -264.5t256.5 -101.5q252 0 369 249l285 -124
q-95 -206 -273.5 -320.5t-414.5 -114.5z" />
    <glyph glyph-name="D" unicode="D" horiz-adv-x="1452" 
d="M913 1423q285 0 456 -171.5t171 -456.5q0 -166 -62 -312t-172 -253t-269.5 -168.5t-346.5 -61.5h-571l276 1423h518zM717 289q211 0 348 143.5t137 358.5q0 166 -87 255t-245 89h-206l-162 -846h215z" />
    <glyph glyph-name="E" unicode="E" horiz-adv-x="1150" 
d="M1286 1139h-620l-54 -275h547l-55 -282h-547l-55 -297h633l-58 -285h-958l276 1423h948z" />
    <glyph glyph-name="F" unicode="F" horiz-adv-x="1107" 
d="M1278 1139h-612l-58 -291h539l-57 -283h-537l-109 -565h-325l276 1423h938z" />
    <glyph glyph-name="G" unicode="G" horiz-adv-x="1554" 
d="M1647 768q-53 -397 -260 -596t-543 -199q-193 0 -344 81t-235.5 230t-84.5 343q0 169 62 321t170 262.5t262.5 175t331.5 64.5q236 0 411 -123t207 -309l-321 -123q-25 116 -110.5 181t-215.5 65q-192 0 -326.5 -142t-134.5 -346q0 -175 103 -281t272 -106q256 0 375 256
h-387l49 246h719z" />
    <glyph glyph-name="H" unicode="H" horiz-adv-x="1386" 
d="M1212 1423h328l-276 -1423h-328l113 578h-492l-113 -578h-325l276 1423h326l-107 -553h492z" />
    <glyph glyph-name="I" unicode="I" horiz-adv-x="569" 
d="M119 0l276 1423h326l-277 -1423h-325z" />
    <glyph glyph-name="J" unicode="J" horiz-adv-x="702" 
d="M41 0l59 291h76q70 0 116 41t60 114l189 977h325l-198 -1026q-78 -397 -490 -397h-137z" />
    <glyph glyph-name="K" unicode="K" horiz-adv-x="1308" 
d="M1585 1423l-686 -706l420 -717h-352l-392 670l-131 -670h-325l276 1423h326l-117 -600l584 600h397z" />
    <glyph glyph-name="L" unicode="L" horiz-adv-x="1095" 
d="M502 291h622l-57 -291h-948l276 1423h326z" />
    <glyph glyph-name="M" unicode="M" horiz-adv-x="1724" 
d="M1522 1423h295l-175 -1423h-301l121 948l-456 -901h-273l-102 885l-242 -932h-311l381 1423h364l119 -956l492 956l88 -2v2z" />
    <glyph glyph-name="N" unicode="N" horiz-adv-x="1388" 
d="M1217 1423h323l-276 -1423h-269l-387 850l-164 -850h-325l276 1423h271l385 -856z" />
    <glyph glyph-name="O" unicode="O" horiz-adv-x="1585" 
d="M854 -27q-148 0 -274 50t-213.5 137.5t-137 210.5t-49.5 266q0 164 63.5 313.5t173 259.5t263.5 175t326 65q298 0 483.5 -181.5t185.5 -477.5q0 -169 -64.5 -321t-174.5 -260.5t-262 -172.5t-320 -64zM877 283q130 0 236 66.5t165 178t59 242.5q0 168 -98 269.5
t-260 101.5q-128 0 -234.5 -66t-166.5 -177t-60 -241q0 -169 98 -271.5t261 -102.5z" />
    <glyph glyph-name="P" unicode="P" horiz-adv-x="1230" 
d="M954 1423q202 0 319.5 -108.5t117.5 -290.5q0 -146 -73 -262t-204 -181t-297 -65h-272l-101 -516h-325l276 1423h559zM842 801q97 0 154 51.5t57 132.5q0 72 -42 113t-122 41h-223l-66 -338h242z" />
    <glyph glyph-name="Q" unicode="Q" horiz-adv-x="1624" 
d="M1675 791q0 -217 -102.5 -399t-276.5 -292l240 -221l-236 -246l-366 344q-54 -4 -80 -4q-148 0 -274 50t-213.5 137.5t-137 210.5t-49.5 266q0 164 63.5 313.5t173 259.5t263.5 175t326 65q298 0 483.5 -181.5t185.5 -477.5zM518 657q0 -169 98 -271.5t261 -102.5
q130 0 236 66.5t165 178t59 242.5q0 168 -98 269.5t-260 101.5q-128 0 -234.5 -66t-166.5 -177t-60 -241z" />
    <glyph glyph-name="R" unicode="R" horiz-adv-x="1265" 
d="M1393 1038q0 -173 -122 -299.5t-337 -156.5l287 -582h-336l-264 573h-66l-111 -573h-325l276 1423h559q211 0 325 -104.5t114 -280.5zM838 803q107 0 167 50.5t60 131.5q0 72 -42 113t-122 41h-235l-66 -336h238z" />
    <glyph glyph-name="S" unicode="S" horiz-adv-x="1191" 
d="M627 -27q-218 0 -354.5 97t-168.5 274l322 117q13 -95 81.5 -150t172.5 -55q89 0 140.5 40.5t51.5 109.5q0 50 -32.5 88t-84 62.5t-114 48.5t-124.5 54.5t-113.5 71t-84 108t-32.5 156.5q0 201 152 328t395 127q204 0 340 -93t145 -239l-322 -112q-27 165 -192 165
q-82 0 -131 -36.5t-49 -96.5q0 -45 32.5 -79.5t84 -58t114 -47.5t124.5 -56.5t113.5 -75.5t84 -114t32.5 -163q0 -211 -160.5 -341t-422.5 -130z" />
    <glyph glyph-name="T" unicode="T" horiz-adv-x="1187" 
d="M1438 1423l-60 -290h-405l-219 -1133h-326l219 1133h-405l57 290h1139z" />
    <glyph glyph-name="U" unicode="U" horiz-adv-x="1353" 
d="M702 -27q-184 0 -307 80t-167.5 216.5t-10.5 308.5l162 845h328l-162 -845q-27 -142 27 -219.5t173 -77.5q111 0 182.5 65.5t96.5 190.5l172 886h326l-172 -886q-52 -269 -222.5 -416.5t-425.5 -147.5z" />
    <glyph glyph-name="V" unicode="V" horiz-adv-x="1339" 
d="M1251 1423h355l-746 -1423h-403l-195 1423h326l135 -1044z" />
    <glyph glyph-name="W" unicode="W" horiz-adv-x="1865" 
d="M1792 1423h332l-592 -1423h-383l-29 963l-407 -963h-381l-41 1423h315l-10 -1036l426 1036h354l23 -1040z" />
    <glyph glyph-name="X" unicode="X" horiz-adv-x="1357" 
d="M1620 1425l-610 -716l356 -709h-354l-240 477l-393 -477h-397l651 752l-340 673h356l221 -438l355 438h395z" />
    <glyph glyph-name="Y" unicode="Y" horiz-adv-x="1316" 
d="M1602 1423l-670 -848l-111 -575h-327l112 582l-342 841h330l217 -557l403 557h388z" />
    <glyph glyph-name="Z" unicode="Z" horiz-adv-x="1181" 
d="M1389 1423l-39 -206l-781 -924h605l-52 -293h-1067l39 205l789 934h-594l57 284h1043z" />
    <glyph glyph-name="bracketleft" unicode="[" horiz-adv-x="667" 
d="M879 1389h-189l-266 -1381h188l-53 -268h-493l372 1917h494z" />
    <glyph glyph-name="backslash" unicode="\" horiz-adv-x="770" 
d="M418 -102l-90 1558h282l92 -1558h-284z" />
    <glyph glyph-name="bracketright" unicode="]" horiz-adv-x="665" 
d="M377 1657h493l-374 -1917h-494l53 268h191l264 1381h-188z" />
    <glyph glyph-name="asciicircum" unicode="^" horiz-adv-x="1099" 
d="M1188 723h-293l-119 326l-246 -326h-340l529 674h192z" />
    <glyph glyph-name="underscore" unicode="_" horiz-adv-x="1153" 
d="M-10 -307l51 266h1049l-52 -266h-1048z" />
    <glyph glyph-name="grave" unicode="`" horiz-adv-x="704" 
d="M834 1159l-529 316l139 217l519 -344z" />
    <glyph glyph-name="a" unicode="a" horiz-adv-x="1286" 
d="M1094 1079h301l-209 -1079h-301l20 104q-144 -131 -330 -131q-191 0 -311.5 133.5t-120.5 346.5q0 172 80.5 321t223 239.5t313.5 90.5q211 0 311 -146zM696 260q120 0 203.5 95.5t83.5 224.5q0 105 -62 171t-161 66q-120 0 -203.5 -93.5t-83.5 -221.5q0 -105 62 -173.5
t161 -68.5z" />
    <glyph glyph-name="b" unicode="b" horiz-adv-x="1288" 
d="M920 1104q193 0 310.5 -134.5t117.5 -342.5q0 -128 -47 -247.5t-128 -209t-196 -143.5t-244 -54q-207 0 -313 140l-23 -113h-301l291 1497h326l-95 -496q137 103 302 103zM729 260q123 0 206 95t83 223q0 104 -62.5 171.5t-160.5 67.5q-121 0 -204 -95.5t-83 -223.5
q0 -104 62 -171t159 -67z" />
    <glyph glyph-name="c" unicode="c" horiz-adv-x="1155" 
d="M647 -27q-223 0 -363.5 137.5t-140.5 354.5q0 171 88.5 318.5t240 234t329.5 86.5q186 0 317.5 -101t143.5 -255l-306 -111q-6 80 -59 128t-137 48q-120 0 -202.5 -91t-82.5 -220q0 -107 56.5 -172.5t152.5 -65.5q80 0 145 46t103 130l264 -114q-78 -164 -224.5 -258.5
t-324.5 -94.5z" />
    <glyph glyph-name="d" unicode="d" horiz-adv-x="1286" 
d="M1151 1497h326l-291 -1497h-301l20 104q-144 -131 -330 -131q-191 0 -311.5 133.5t-120.5 346.5q0 172 80.5 321t223 239.5t313.5 90.5q192 0 291 -119zM696 260q120 0 203.5 95.5t83.5 224.5q0 105 -62 171t-161 66q-120 0 -203.5 -93.5t-83.5 -221.5q0 -105 62 -173.5
t161 -68.5z" />
    <glyph glyph-name="e" unicode="e" horiz-adv-x="1191" 
d="M455 442q12 -99 73.5 -151.5t153.5 -52.5q147 0 238 129l210 -162q-199 -232 -483 -232q-223 0 -363.5 138t-140.5 352q0 128 50.5 246t136 204.5t204 138.5t248.5 52q214 0 346 -131t132 -316q0 -110 -41 -215h-764zM481 647h484v6q0 98 -50 153.5t-145 55.5
q-104 0 -178.5 -59.5t-110.5 -155.5z" />
    <glyph glyph-name="f" unicode="f" horiz-adv-x="759" 
d="M907 1264q-148 0 -178 -158l-6 -27h215l-53 -278h-215l-156 -801h-326l154 801h-154l54 278h153l2 8q82 431 535 431h94l-49 -254h-70z" />
    <glyph glyph-name="g" unicode="g" horiz-adv-x="1284" 
d="M1096 1079h301l-178 -913q-110 -559 -644 -559q-207 0 -346 83t-180 234l279 99q20 -72 91.5 -113t174.5 -41q127 0 209.5 69t107.5 197l11 51q-159 -149 -347 -149t-310 127.5t-122 320.5q0 162 84.5 305t227 228.5t305.5 85.5q210 0 313 -141zM696 293q121 0 204 89
t83 214q0 100 -61.5 160.5t-161.5 60.5q-121 0 -204 -87.5t-83 -211.5q0 -100 61.5 -162.5t161.5 -62.5z" />
    <glyph glyph-name="h" unicode="h" horiz-adv-x="1212" 
d="M918 1106q184 0 277.5 -122t55.5 -316l-129 -668h-325l116 606q20 101 -21 155t-126 54q-76 0 -135 -46t-84 -126l-125 -643h-326l291 1497h326l-97 -498q136 107 302 107z" />
    <glyph glyph-name="i" unicode="i" horiz-adv-x="538" 
d="M512 1231q-82 0 -135 49t-53 127q0 92 69 160.5t166 68.5q82 0 135.5 -50t53.5 -128q0 -90 -69.5 -158.5t-166.5 -68.5zM96 0l209 1079h326l-209 -1079h-326z" />
    <glyph glyph-name="j" unicode="j" horiz-adv-x="544" 
d="M526 1231q-82 0 -135 50t-53 128q0 90 68.5 158.5t164.5 68.5q83 0 136 -49t53 -127q0 -92 -68.5 -160.5t-165.5 -68.5zM-150 -379l54 279h39q64 0 111.5 43t62.5 120l196 1016h326l-197 -1009q-43 -218 -184 -333.5t-344 -115.5h-64z" />
    <glyph glyph-name="k" unicode="k" horiz-adv-x="1103" 
d="M1325 1079l-491 -514l286 -565h-344l-256 510l-98 -510h-326l291 1497h326l-160 -817l385 399h387z" />
    <glyph glyph-name="l" unicode="l" horiz-adv-x="522" 
d="M96 0l291 1497h326l-291 -1497h-326z" />
    <glyph glyph-name="m" unicode="m" horiz-adv-x="1841" 
d="M1563 1106q173 0 264 -121t53 -313l-129 -674h-326l117 612q19 99 -20 152t-111 53t-131 -57.5t-76 -151.5l-119 -608h-323l117 612q19 99 -20.5 152t-113.5 53q-64 0 -119 -47t-79 -125l-125 -643h-326l209 1079h307l-18 -96q140 123 309 123q112 0 187 -48.5
t106 -137.5q68 84 165.5 135t201.5 51z" />
    <glyph glyph-name="n" unicode="n" horiz-adv-x="1212" 
d="M918 1106q184 0 277.5 -122t55.5 -316l-129 -668h-325l116 606q20 101 -21 155t-126 54q-76 0 -135 -46t-84 -126l-125 -643h-326l209 1079h307l-18 -98q141 125 324 125z" />
    <glyph glyph-name="o" unicode="o" horiz-adv-x="1255" 
d="M662 -27q-226 0 -372.5 133t-146.5 357q0 173 87.5 320.5t239.5 234t331 86.5q107 0 200.5 -32.5t164.5 -93.5t112 -154.5t41 -207.5q0 -170 -84 -317t-236 -236.5t-337 -89.5zM698 264q84 0 151.5 46.5t102.5 118.5t35 153q0 105 -60 169t-161 64q-125 0 -208 -93
t-83 -220q0 -106 60.5 -172t162.5 -66z" />
    <glyph glyph-name="p" unicode="p" horiz-adv-x="1288" 
d="M924 1104q190 0 307 -135t117 -342q0 -176 -82 -326t-224.5 -239t-312.5 -89q-181 0 -289 117l-90 -457h-325l280 1446h301l-20 -102q149 127 338 127zM731 260q119 0 203 94t84 224q0 105 -63 172t-162 67q-118 0 -201.5 -94.5t-83.5 -224.5q0 -104 62.5 -171t160.5 -67
z" />
    <glyph glyph-name="q" unicode="q" horiz-adv-x="1286" 
d="M1094 1079h301l-281 -1446h-326l86 447q-133 -107 -299 -107q-191 0 -311.5 133.5t-120.5 346.5q0 172 80.5 321t223 239.5t313.5 90.5q211 0 311 -146zM473 502q0 -105 62 -173.5t161 -68.5q120 0 203.5 95.5t83.5 224.5q0 105 -62 171t-161 66q-120 0 -203.5 -93.5
t-83.5 -221.5z" />
    <glyph glyph-name="r" unicode="r" horiz-adv-x="731" 
d="M590 965q144 141 323 141l-59 -305q-135 0 -213 -52.5t-104 -162.5l-115 -586h-326l209 1079h307z" />
    <glyph glyph-name="s" unicode="s" horiz-adv-x="997" 
d="M526 -27q-189 0 -310 77.5t-138 211.5l280 98q17 -69 68.5 -106t128.5 -37q61 0 100 27t39 73q0 30 -20.5 53.5t-54 38t-76 31t-87 31.5t-87 39.5t-76 54.5t-54 77.5t-20.5 107.5q0 157 130 255.5t337 98.5q165 0 277 -66t131 -174l-285 -102q-12 51 -47.5 77.5
t-89.5 26.5q-55 0 -91 -24.5t-36 -63.5q0 -30 26.5 -53t68.5 -39.5t93 -33t101.5 -41t92.5 -56.5t68.5 -85.5t26.5 -123.5q0 -167 -138.5 -270t-357.5 -103z" />
    <glyph glyph-name="t" unicode="t" horiz-adv-x="823" 
d="M629 0q-205 0 -296 115.5t-52 316.5l69 369h-176l53 278h86q56 0 91 30.5t45 88.5l32 166h318l-58 -285h244l-53 -278h-256l-64 -330q-18 -92 18.5 -139t121.5 -47h86l-54 -285h-155z" />
    <glyph glyph-name="u" unicode="u" horiz-adv-x="1198" 
d="M981 1079h326l-209 -1079h-307l20 106q-143 -133 -326 -133q-173 0 -265 123t-54 316l127 667h325l-116 -606q-19 -100 21.5 -154.5t119.5 -54.5q80 0 141 56t78 149z" />
    <glyph glyph-name="v" unicode="v" horiz-adv-x="1138" 
d="M983 1079h360l-585 -1079h-381l-168 1079h323l93 -760z" />
    <glyph glyph-name="w" unicode="w" horiz-adv-x="1638" 
d="M1503 1079h334l-477 -1079h-379l-29 705l-295 -705h-381l-63 1079h305l21 -760l301 760h340l30 -760z" />
    <glyph glyph-name="x" unicode="x" horiz-adv-x="1134" 
d="M1350 1079l-498 -544l295 -535h-336l-178 324l-289 -324h-371l523 569l-283 510h338l168 -303l256 303h375z" />
    <glyph glyph-name="y" unicode="y" horiz-adv-x="1140" 
d="M983 1079h360l-585 -1079l-201 -367h-321l213 367h-72l-168 1079h323l93 -760z" />
    <glyph glyph-name="z" unicode="z" horiz-adv-x="1001" 
d="M1139 1079l-49 -239l-551 -578h460l-51 -262h-897l45 227l561 590h-428l52 262h858z" />
    <glyph glyph-name="braceleft" unicode="{" horiz-adv-x="714" 
d="M516 -260q-183 0 -261.5 107.5t-41.5 295.5l61 316q20 100 -79 100h-52l54 277h53q99 0 117 100l63 321q36 188 153.5 294t305.5 106h86l-51 -268h-41q-58 0 -97 -34.5t-51 -99.5l-61 -311q-20 -91 -61 -148t-126 -98q66 -40 88 -97.5t5 -147.5l-62 -306
q-24 -139 94 -139h41l-51 -268h-86z" />
    <glyph glyph-name="bar" unicode="|" horiz-adv-x="477" 
d="M78 -195l325 1670h240l-326 -1670h-239z" />
    <glyph glyph-name="braceright" unicode="}" horiz-adv-x="712" 
d="M4 -260l55 268h41q121 0 146 133l61 312q19 94 61.5 149.5t125.5 95.5q-68 43 -88 97.5t-3 148.5l60 307q12 66 -12.5 102t-81.5 36h-43l53 268h88q181 0 259.5 -108.5t41.5 -295.5l-61 -317q-19 -100 79 -100h52l-56 -277h-51q-98 0 -119 -100l-61 -320
q-36 -187 -154 -293t-305 -106h-88z" />
    <glyph glyph-name="asciitilde" unicode="~" horiz-adv-x="1048" 
d="M831 492q-60 0 -112.5 16t-84.5 36t-75.5 36t-87.5 16q-89 0 -156 -78l-127 189q120 151 287 151q60 0 112.5 -16t85 -36t76 -36t87.5 -16q89 0 155 77l127 -188q-117 -151 -287 -151z" />
    <glyph glyph-name="uni00A0" unicode="&#xa0;" horiz-adv-x="378" 
 />
    <glyph glyph-name="exclamdown" unicode="&#xa1;" horiz-adv-x="542" 
d="M424 731q-74 0 -118 44.5t-44 111.5q0 80 59.5 141.5t145.5 61.5q71 0 115.5 -43t44.5 -113q0 -80 -59.5 -141.5t-143.5 -61.5zM8 -367l258 928h244l-131 -928h-371z" />
    <glyph glyph-name="cent" unicode="&#xa2;" horiz-adv-x="1073" 
d="M662 465q62 0 112.5 34.5t79.5 98.5l256 -109q-56 -117 -154 -195.5t-219 -103.5l-37 -190h-264l41 201q-136 40 -214.5 149.5t-78.5 261.5q0 202 131.5 357.5t331.5 193.5l37 191h264l-39 -199q109 -34 180 -113t80 -182l-295 -104q-6 62 -47.5 98.5t-105.5 36.5
q-94 0 -158.5 -72t-64.5 -172q0 -82 44.5 -132t119.5 -50z" />
    <glyph glyph-name="sterling" unicode="&#xa3;" horiz-adv-x="1167" 
d="M631 526l-45 -241h544l-57 -285h-870l102 526h-141l57 285h139l29 150q39 199 176 311t332 112q180 0 298.5 -89t127.5 -222l-299 -106q-5 61 -40 98t-99 37q-70 0 -115.5 -45.5t-60.5 -128.5l-23 -117h352l-57 -285h-350z" />
    <glyph glyph-name="currency" unicode="&#xa4;" horiz-adv-x="1150" 
d="M1145 897q26 -73 26 -149q0 -164 -106 -304l98 -120l-184 -156l-94 119q-118 -62 -250 -62q-124 0 -215 51l-129 -108l-150 188l121 103q-26 73 -26 147q0 168 106 305l-96 121l182 156l96 -119q116 61 250 61q122 0 213 -51l133 109l148 -187zM674 485q90 0 150.5 69
t60.5 155q0 71 -41 115t-111 44q-89 0 -149 -68t-60 -155q0 -70 41 -115t109 -45z" />
    <glyph glyph-name="yen" unicode="&#xa5;" horiz-adv-x="1243" 
d="M1464 1352l-532 -719h207l-41 -209h-236l-14 -68h235l-41 -209h-233l-29 -147h-323l28 147h-235l41 209h235l13 68h-236l43 209h209l-254 719h328l157 -482l316 482h362z" />
    <glyph glyph-name="brokenbar" unicode="&#xa6;" horiz-adv-x="477" 
d="M272 805l131 670h240l-131 -670h-240zM78 -195l131 672h240l-132 -672h-239z" />
    <glyph glyph-name="section" unicode="&#xa7;" horiz-adv-x="1015" 
d="M610 1096q0 -37 26 -66t67.5 -49.5t92 -40.5t100.5 -47t91.5 -61.5t67.5 -91t26 -128.5q0 -104 -52.5 -184.5t-149.5 -128.5q84 -84 84 -207q0 -169 -136.5 -272t-353.5 -103q-185 0 -303 78t-137 211l272 96q15 -67 66 -106t121 -39q63 0 103 30t40 81q0 36 -25.5 65
t-66 50.5t-89.5 43t-98.5 49t-90 61.5t-66 88t-25.5 122q0 103 55.5 186t155.5 133q-92 82 -92 209q0 160 127.5 259.5t331.5 99.5q164 0 272 -65.5t127 -174.5l-277 -98q-23 104 -133 104q-59 0 -95 -28.5t-36 -75.5zM475 596q0 -52 41.5 -86.5t122.5 -71.5q58 18 91.5 54
t33.5 86q0 51 -34 86.5t-99 66.5q-65 -2 -110.5 -41t-45.5 -94z" />
    <glyph glyph-name="dieresis" unicode="&#xa8;" horiz-adv-x="958" 
d="M508 1237q-78 0 -126 48t-48 130q0 85 67.5 149t157.5 64q79 0 127.5 -48t48.5 -130q0 -84 -68.5 -148.5t-158.5 -64.5zM999 1237q-79 0 -127.5 48t-48.5 130q0 85 68.5 149t157.5 64q79 0 127.5 -48t48.5 -130q0 -84 -68 -148.5t-158 -64.5z" />
    <glyph glyph-name="copyright" unicode="&#xa9;" horiz-adv-x="1525" 
d="M821 -29q-141 0 -261.5 47.5t-204 131.5t-130.5 201.5t-47 254.5q0 156 61 299t165.5 248.5t251 168t309.5 62.5q187 0 332 -78.5t226 -222t81 -329.5q0 -161 -62 -306.5t-167 -249.5t-250 -165.5t-304 -61.5zM838 176q111 0 212.5 44t176 118.5t118.5 178.5t44 218
q0 196 -124 319.5t-319 123.5q-114 0 -216.5 -44.5t-176 -119.5t-117 -177.5t-43.5 -213.5q0 -194 124.5 -320.5t320.5 -126.5zM850 295q-150 0 -244 92.5t-94 239.5q0 177 129.5 304.5t312.5 127.5q126 0 214.5 -68t97.5 -172l-230 -86q-3 46 -32.5 72t-77.5 26
q-70 0 -116 -51.5t-46 -124.5q0 -62 31 -97.5t88 -35.5q94 0 137 99l201 -89q-54 -110 -153 -173.5t-218 -63.5z" />
    <glyph glyph-name="ordfeminine" unicode="&#xaa;" horiz-adv-x="794" 
d="M866 1681h168l-119 -606h-165l12 68q-89 -86 -201 -86q-116 0 -188 72t-72 196q0 92 43.5 177.5t124.5 140.5t178 55q142 0 205 -96zM629 1264q55 0 91 39.5t36 91.5q0 44 -26.5 72t-74.5 28q-52 0 -88.5 -38.5t-36.5 -92.5q0 -44 26.5 -72t72.5 -28z" />
    <glyph glyph-name="guillemotleft" unicode="&#xab;" horiz-adv-x="1067" 
d="M743 848l-317 -371l156 -332h-279l-164 353l303 350h301zM1153 848l-322 -371l158 -332h-278l-164 353l301 350h305z" />
    <glyph glyph-name="logicalnot" unicode="&#xac;" horiz-adv-x="993" 
d="M1075 831l-106 -561h-303l55 289h-545l53 272h846z" />
    <glyph glyph-name="registered" unicode="&#xae;" horiz-adv-x="1044" 
d="M764 1483q184 0 299 -113t115 -297q0 -140 -68 -257t-184 -184t-254 -67q-185 0 -300.5 116.5t-115.5 297.5q0 207 147.5 355.5t360.5 148.5zM682 692q150 0 256 109.5t106 261.5q0 129 -82 211t-210 82q-149 0 -256 -109.5t-107 -259.5q0 -127 82.5 -211t210.5 -84z
M774 1253q64 0 102.5 -32t38.5 -88q0 -52 -31.5 -91t-80.5 -55l65 -178h-120l-52 170h-22l-33 -170h-119l86 444h166zM709 1161l-17 -90h47q27 0 42.5 13t15.5 36q0 41 -47 41h-41z" />
    <glyph glyph-name="macron" unicode="&#xaf;" horiz-adv-x="747" 
d="M313 1305l45 243h689l-48 -243h-686z" />
    <glyph glyph-name="degree" unicode="&#xb0;" horiz-adv-x="796" 
d="M567 748q-137 0 -227 82t-90 219q0 159 117 271t278 112q135 0 226.5 -80.5t91.5 -218.5q0 -157 -116 -271t-280 -114zM588 940q68 0 116 50t48 118q0 60 -37 96.5t-90 36.5q-66 0 -115 -50t-49 -120q0 -59 36 -95t91 -36z" />
    <glyph glyph-name="plusminus" unicode="&#xb1;" horiz-adv-x="970" 
d="M817 993h283l-53 -272h-283l-57 -299h-287l59 299h-284l53 272h284l60 310h285zM61 45l54 272h854l-54 -272h-854z" />
    <glyph glyph-name="uni00B2" unicode="&#xb2;" horiz-adv-x="696" 
d="M659 969l-110 -88h231l-30 -170h-535l29 135l256 205q69 58 98 92t29 67q0 25 -14.5 38.5t-39.5 13.5q-64 0 -90 -80l-176 59q75 195 299 195q106 0 171 -51t65 -136q0 -80 -42.5 -142t-140.5 -138z" />
    <glyph glyph-name="uni00B3" unicode="&#xb3;" horiz-adv-x="649" 
d="M825 1423l-32 -159l-160 -129q67 -20 105 -70.5t38 -120.5q0 -106 -85 -177t-216 -71q-108 0 -183 46.5t-83 115.5l197 74q4 -29 25.5 -45.5t51.5 -16.5q38 0 61 22t23 56q0 29 -18.5 46.5t-52.5 17.5h-113l27 133l155 117h-239l32 161h467z" />
    <glyph glyph-name="acute" unicode="&#xb4;" horiz-adv-x="724" 
d="M424 1182l-115 190l555 326l123 -223z" />
    <glyph glyph-name="paragraph" unicode="&#xb6;" horiz-adv-x="1310" 
d="M1448 1423l-318 -1628h-167l264 1358h-80l-262 -1358h-170l262 1358h-80l-121 -637h-119q-199 0 -318.5 105t-119.5 282q0 106 43 201.5t117.5 165.5t181.5 111.5t230 41.5h657z" />
    <glyph glyph-name="periodcentered" unicode="&#xb7;" horiz-adv-x="493" 
d="M356 510q-71 0 -115 44t-44 114q0 80 59 141t145 61q71 0 115.5 -43t44.5 -112q0 -80 -59.5 -142.5t-145.5 -62.5z" />
    <glyph glyph-name="cedilla" unicode="&#xb8;" horiz-adv-x="571" 
d="M414 -92q54 -19 86 -64.5t32 -103.5q0 -99 -84 -167.5t-210 -68.5q-84 0 -152 29.5t-100 75.5l127 125q30 -58 96 -58q41 0 66.5 23t25.5 57q0 33 -19.5 53.5t-54.5 20.5h-18l-19 29l97 178h194z" />
    <glyph glyph-name="uni00B9" unicode="&#xb9;" horiz-adv-x="593" 
d="M713 1423l-105 -530h94l-36 -182h-445l35 182h133l49 246h-131l33 176h133l21 108h219z" />
    <glyph glyph-name="ordmasculine" unicode="&#xba;" horiz-adv-x="739" 
d="M594 1055q-134 0 -213.5 76t-79.5 210q0 144 109 253.5t266 109.5q132 0 212.5 -77.5t80.5 -209.5q0 -144 -109 -253t-266 -109zM621 1264q56 0 92.5 38.5t36.5 90.5q0 45 -27.5 73.5t-75.5 28.5q-54 0 -90.5 -38.5t-36.5 -90.5q0 -46 26.5 -74t74.5 -28z" />
    <glyph glyph-name="guillemotright" unicode="&#xbb;" horiz-adv-x="1067" 
d="M543 848l166 -350l-303 -353h-304l320 373l-158 330h279zM950 848l164 -350l-301 -353h-303l321 371l-157 332h276z" />
    <glyph glyph-name="onequarter" unicode="&#xbc;" horiz-adv-x="1411" 
d="M199 711l34 182h134l49 246h-131l32 176h134l20 108h217l-104 -530h94l-37 -182h-442zM1223 1423h235l-952 -1423h-232zM1237 713h203l-86 -437h61l-26 -145h-62l-27 -131h-202l24 131h-299l31 154zM1155 276l39 205l-182 -205h143z" />
    <glyph glyph-name="onehalf" unicode="&#xbd;" horiz-adv-x="1486" 
d="M199 711l34 182h134l49 246h-131l32 176h134l20 108h217l-104 -530h94l-37 -182h-442zM1221 1423h233l-950 -1423h-232zM1366 258l-111 -88h232l-31 -170h-532l26 135l256 205q69 57 98 92t29 68q0 51 -53 51q-64 0 -90 -80l-176 59q75 195 299 195q107 0 171 -50.5
t64 -135.5q0 -80 -42.5 -142.5t-139.5 -138.5z" />
    <glyph glyph-name="threequarters" unicode="&#xbe;" horiz-adv-x="1458" 
d="M774 944q0 -106 -85 -177t-216 -71q-108 0 -183 46.5t-81 115.5l194 74q4 -29 26 -45.5t52 -16.5q38 0 61 22t23 56q0 29 -18.5 46.5t-52.5 17.5h-111l27 133l153 117h-239l32 161h467l-32 -159l-160 -129q67 -20 105 -70.5t38 -120.5zM1266 1423h235l-950 -1423h-234z
M1282 713h201l-86 -437h63l-28 -145h-62l-27 -131h-202l24 131h-297l29 154zM1198 276l39 205l-182 -205h143z" />
    <glyph glyph-name="questiondown" unicode="&#xbf;" horiz-adv-x="980" 
d="M662 729q-70 0 -114 43.5t-44 112.5q0 81 58.5 141.5t144.5 60.5q71 0 115 -42.5t44 -112.5q0 -80 -59 -141.5t-145 -61.5zM416 -391q-177 0 -288.5 87.5t-111.5 237.5q0 68 24 127t62.5 101.5t86 79.5t96 69t90.5 62.5t71.5 67.5t36.5 77l6 43h287l-14 -82
q-13 -67 -59 -124.5t-101 -97t-108.5 -76t-89 -78.5t-35.5 -89q0 -46 28 -72t80 -26q120 0 168 133l277 -96q-63 -158 -191.5 -251t-314.5 -93z" />
    <glyph glyph-name="Agrave" unicode="&#xc0;" horiz-adv-x="1355" 
d="M1333 1749l-82 -219l-624 196l86 252zM735 1423h400l184 -1423h-305l-35 287h-498l-143 -287h-338zM614 553h334l-65 541z" />
    <glyph glyph-name="Aacute" unicode="&#xc1;" horiz-adv-x="1355" 
d="M1372 1716l-649 -180l-70 223l647 211zM735 1423h400l184 -1423h-305l-35 287h-498l-143 -287h-338zM614 553h334l-65 541z" />
    <glyph glyph-name="Acircumflex" unicode="&#xc2;" horiz-adv-x="1355" 
d="M1016 1720l-176 -168h-308l377 385h265l215 -385h-271zM735 1423h400l184 -1423h-305l-35 287h-498l-143 -287h-338zM614 553h334l-65 541z" />
    <glyph glyph-name="Atilde" unicode="&#xc3;" horiz-adv-x="1355" 
d="M1266 1901l202 -95q-37 -112 -116 -185t-191 -73q-47 0 -89 15.5t-67.5 34t-59.5 34t-68 15.5q-82 0 -107 -86l-205 94q37 111 116.5 184.5t190.5 73.5q47 0 88.5 -15.5t67 -33.5t59.5 -33.5t68 -15.5q83 0 111 86zM735 1423h400l184 -1423h-305l-35 287h-498l-143 -287
h-338zM614 553h334l-65 541z" />
    <glyph glyph-name="Adieresis" unicode="&#xc4;" horiz-adv-x="1355" 
d="M717 1542q-80 0 -132.5 48.5t-52.5 131.5q0 95 69.5 160.5t166.5 65.5q83 0 132.5 -50.5t49.5 -130.5q0 -94 -69.5 -159.5t-163.5 -65.5zM1276 1948q83 0 131.5 -50.5t48.5 -130.5q0 -94 -68.5 -159.5t-162.5 -65.5q-80 0 -132.5 48.5t-52.5 131.5q0 95 69.5 160.5
t166.5 65.5zM735 1423h400l184 -1423h-305l-35 287h-498l-143 -287h-338zM614 553h334l-65 541z" />
    <glyph glyph-name="Aring" unicode="&#xc5;" horiz-adv-x="1355" 
d="M1014 0l-35 287h-498l-143 -287h-338l735 1423h142q-78 22 -124 83t-46 145q0 123 93.5 211t225.5 88q112 0 181 -66.5t69 -171.5q0 -101 -67.5 -182t-170.5 -107h97l184 -1423h-305zM999 1772q-43 0 -72.5 -29t-29.5 -70q0 -37 22.5 -59.5t59.5 -22.5q42 0 73 29.5
t31 71.5q0 35 -23.5 57.5t-60.5 22.5zM614 553h334l-65 541z" />
    <glyph glyph-name="AE" unicode="&#xc6;" horiz-adv-x="1908" 
d="M2046 1139h-621l-53 -275h547l-57 -282h-543l-57 -297h630l-55 -285h-958l53 274h-434l-176 -274h-357l905 1423h1233zM674 553h311l115 586h-51z" />
    <glyph glyph-name="Ccedilla" unicode="&#xc7;" horiz-adv-x="1505" 
d="M874 283q252 0 369 249l283 -124q-88 -195 -254.5 -309t-384.5 -124l-35 -67q54 -19 86.5 -64.5t32.5 -103.5q0 -99 -84.5 -167.5t-210.5 -68.5q-84 0 -152 29.5t-100 75.5l127 125q30 -58 96 -58q41 0 67.5 23t26.5 57q0 33 -20 53.5t-55 20.5h-19l-18 29l69 127
q-236 43 -376 214.5t-140 422.5q0 225 106 414.5t294.5 301t418.5 111.5q249 0 424 -134t197 -333l-324 -121q-19 131 -106 205t-223 74q-195 0 -323 -142.5t-128 -349.5q0 -163 97.5 -264.5t258.5 -101.5z" />
    <glyph glyph-name="Egrave" unicode="&#xc8;" horiz-adv-x="1177" 
d="M1264 1749l-82 -219l-625 196l86 252zM1286 1139h-620l-54 -275h547l-55 -282h-547l-55 -297h633l-58 -285h-958l276 1423h948z" />
    <glyph glyph-name="Eacute" unicode="&#xc9;" horiz-adv-x="1177" 
d="M1270 1716l-649 -180l-70 223l645 211zM1286 1139h-620l-54 -275h547l-55 -282h-547l-55 -297h633l-58 -285h-958l276 1423h948z" />
    <glyph glyph-name="Ecircumflex" unicode="&#xca;" horiz-adv-x="1177" 
d="M942 1720l-176 -168h-307l377 385h264l215 -385h-271zM1286 1139h-620l-54 -275h547l-55 -282h-547l-55 -297h633l-58 -285h-958l276 1423h948z" />
    <glyph glyph-name="Edieresis" unicode="&#xcb;" horiz-adv-x="1177" 
d="M641 1542q-80 0 -131 48.5t-51 131.5q0 95 68 160.5t165 65.5q83 0 132.5 -50.5t49.5 -130.5q0 -94 -69.5 -159.5t-163.5 -65.5zM1149 1542q-80 0 -132 48.5t-52 131.5q0 95 69 160.5t166 65.5q83 0 132.5 -50.5t49.5 -130.5q0 -94 -69.5 -159.5t-163.5 -65.5zM119 0
l276 1423h948l-57 -284h-620l-54 -275h547l-55 -282h-547l-55 -297h633l-58 -285h-958z" />
    <glyph glyph-name="Igrave" unicode="&#xcc;" horiz-adv-x="583" 
d="M866 1530l-624 196l88 252l618 -229zM119 0l276 1423h326l-277 -1423h-325z" />
    <glyph glyph-name="Iacute" unicode="&#xcd;" horiz-adv-x="583" 
d="M340 1536l-72 223l647 211l72 -254zM119 0l276 1423h326l-277 -1423h-325z" />
    <glyph glyph-name="Icircumflex" unicode="&#xce;" horiz-adv-x="583" 
d="M788 1937l216 -385h-269l-104 168l-176 -168h-308l377 385h264zM119 0l276 1423h326l-277 -1423h-325z" />
    <glyph glyph-name="Idieresis" unicode="&#xcf;" horiz-adv-x="583" 
d="M332 1542q-80 0 -131 48.5t-51 131.5q0 95 68 160.5t165 65.5q83 0 132.5 -50.5t49.5 -130.5q0 -94 -69 -159.5t-164 -65.5zM840 1542q-80 0 -132.5 48.5t-52.5 131.5q0 95 69.5 160.5t166.5 65.5q83 0 132.5 -50.5t49.5 -130.5q0 -94 -69.5 -159.5t-163.5 -65.5zM119 0
l276 1423h326l-277 -1423h-325z" />
    <glyph glyph-name="Eth" unicode="&#xd0;" horiz-adv-x="1511" 
d="M940 1423q283 0 455 -171.5t172 -456.5q0 -166 -62 -312t-172 -253t-269.5 -168.5t-346.5 -61.5h-572l119 608h-141l43 226h141l115 589h518zM741 289q212 0 350 143.5t138 358.5q0 166 -87 255t-245 89h-207l-57 -301h272l-45 -226h-270l-62 -319h213z" />
    <glyph glyph-name="Ntilde" unicode="&#xd1;" horiz-adv-x="1419" 
d="M877 1647q-81 0 -109 -86l-205 94q37 110 117 184t190 74q59 0 108.5 -24.5t91.5 -49t83 -24.5q83 0 111 86l202 -95q-37 -112 -116 -185t-191 -73q-47 0 -89 15.5t-67.5 34t-59 34t-66.5 15.5zM1217 1423h323l-276 -1423h-269l-387 850l-164 -850h-325l276 1423h271
l385 -856z" />
    <glyph glyph-name="Ograve" unicode="&#xd2;" horiz-adv-x="1624" 
d="M1386 1530l-624 196l86 252l620 -229zM854 -27q-148 0 -274 50t-213.5 137.5t-137 210.5t-49.5 266q0 164 63.5 313.5t173 259.5t263.5 175t326 65q298 0 483.5 -181.5t185.5 -477.5q0 -169 -64.5 -321t-174.5 -260.5t-262 -172.5t-320 -64zM877 283q130 0 236 66.5
t165 178t59 242.5q0 168 -98 269.5t-260 101.5q-128 0 -234.5 -66t-166.5 -177t-60 -241q0 -169 98 -271.5t261 -102.5z" />
    <glyph glyph-name="Oacute" unicode="&#xd3;" horiz-adv-x="1624" 
d="M795 1536l-72 223l647 211l72 -254zM854 -27q-148 0 -274 50t-213.5 137.5t-137 210.5t-49.5 266q0 164 63.5 313.5t173 259.5t263.5 175t326 65q298 0 483.5 -181.5t185.5 -477.5q0 -169 -64.5 -321t-174.5 -260.5t-262 -172.5t-320 -64zM877 283q130 0 236 66.5
t165 178t59 242.5q0 168 -98 269.5t-260 101.5q-128 0 -234.5 -66t-166.5 -177t-60 -241q0 -169 98 -271.5t261 -102.5z" />
    <glyph glyph-name="Ocircumflex" unicode="&#xd4;" horiz-adv-x="1624" 
d="M1083 1720l-176 -168h-307l377 385h264l215 -385h-270zM1006 1450q298 0 483.5 -181.5t185.5 -477.5q0 -169 -64.5 -321t-174.5 -260.5t-262 -172.5t-320 -64q-148 0 -274 50t-213.5 137.5t-137 210.5t-49.5 266q0 164 63.5 313.5t173 259.5t263.5 175t326 65zM877 283
q130 0 236 66.5t165 178t59 242.5q0 168 -98 269.5t-260 101.5q-128 0 -234.5 -66t-166.5 -177t-60 -241q0 -169 98 -271.5t261 -102.5z" />
    <glyph glyph-name="Otilde" unicode="&#xd5;" horiz-adv-x="1624" 
d="M1208 1548q-47 0 -89 15.5t-67.5 34t-59 34t-66.5 15.5q-81 0 -109 -86l-205 94q37 110 117.5 184t190.5 74q47 0 88.5 -15.5t67 -33.5t59.5 -33.5t67 -15.5q83 0 111 86l203 -95q-37 -112 -116.5 -185t-191.5 -73zM854 -27q-148 0 -274 50t-213.5 137.5t-137 210.5
t-49.5 266q0 164 63.5 313.5t173 259.5t263.5 175t326 65q298 0 483.5 -181.5t185.5 -477.5q0 -169 -64.5 -321t-174.5 -260.5t-262 -172.5t-320 -64zM877 283q130 0 236 66.5t165 178t59 242.5q0 168 -98 269.5t-260 101.5q-128 0 -234.5 -66t-166.5 -177t-60 -241
q0 -169 98 -271.5t261 -102.5z" />
    <glyph glyph-name="Odieresis" unicode="&#xd6;" horiz-adv-x="1624" 
d="M815 1542q-80 0 -132 48.5t-52 131.5q0 95 69 160.5t166 65.5q83 0 133 -51t50 -130q0 -94 -70 -159.5t-164 -65.5zM1323 1542q-80 0 -132 48.5t-52 131.5q0 95 69 160.5t166 65.5q82 0 131 -51t49 -130q0 -94 -68.5 -159.5t-162.5 -65.5zM854 -27q-148 0 -274 50
t-213.5 137.5t-137 210.5t-49.5 266q0 164 63.5 313.5t173 259.5t263.5 175t326 65q298 0 483.5 -181.5t185.5 -477.5q0 -169 -64.5 -321t-174.5 -260.5t-262 -172.5t-320 -64zM877 283q130 0 236 66.5t165 178t59 242.5q0 168 -98 269.5t-260 101.5q-128 0 -234.5 -66
t-166.5 -177t-60 -241q0 -169 98 -271.5t261 -102.5z" />
    <glyph glyph-name="multiply" unicode="&#xd7;" horiz-adv-x="991" 
d="M1116 926l-307 -260l195 -248l-209 -174l-193 243l-305 -258l-164 201l307 262l-194 248l209 176l194 -246l303 258z" />
    <glyph glyph-name="Oslash" unicode="&#xd8;" horiz-adv-x="1624" 
d="M1776 1303l-189 -166q86 -153 86 -346q0 -169 -64.5 -321t-174 -260.5t-261 -172.5t-319.5 -64q-251 0 -430 136l-193 -170l-151 180l190 168q-90 153 -90 350q0 131 40.5 254t115.5 223.5t175.5 176.5t228 117.5t264.5 41.5q253 0 430 -135l190 170zM518 657
q0 -70 19 -135l641 568q-85 51 -201 51q-128 0 -234 -66t-165.5 -177t-59.5 -241zM1337 770q0 70 -18 129l-639 -565q82 -51 197 -51q129 0 235 66.5t165.5 178t59.5 242.5z" />
    <glyph glyph-name="Ugrave" unicode="&#xd9;" horiz-adv-x="1384" 
d="M1264 1530l-625 196l86 252l621 -229zM702 -27q-184 0 -307 80t-167.5 216.5t-10.5 308.5l162 845h328l-162 -845q-27 -142 27 -219.5t173 -77.5q111 0 182.5 65.5t96.5 190.5l172 886h326l-172 -886q-52 -269 -222.5 -416.5t-425.5 -147.5z" />
    <glyph glyph-name="Uacute" unicode="&#xda;" horiz-adv-x="1384" 
d="M702 1536l-69 223l645 211l74 -254zM702 -27q-184 0 -307 80t-167.5 216.5t-10.5 308.5l162 845h328l-162 -845q-27 -142 27 -219.5t173 -77.5q111 0 182.5 65.5t96.5 190.5l172 886h326l-172 -886q-52 -269 -222.5 -416.5t-425.5 -147.5z" />
    <glyph glyph-name="Ucircumflex" unicode="&#xdb;" horiz-adv-x="1384" 
d="M1001 1720l-176 -168h-307l377 385h264l215 -385h-270zM1196 1423h326l-172 -886q-52 -269 -222.5 -416.5t-425.5 -147.5q-184 0 -307 80t-167.5 216.5t-10.5 308.5l162 845h328l-162 -845q-27 -142 27 -219.5t173 -77.5q111 0 182.5 65.5t96.5 190.5z" />
    <glyph glyph-name="Udieresis" unicode="&#xdc;" horiz-adv-x="1384" 
d="M721 1542q-80 0 -131 48.5t-51 131.5q0 95 68.5 160.5t164.5 65.5q83 0 132.5 -50.5t49.5 -130.5q0 -94 -69 -159.5t-164 -65.5zM1229 1542q-80 0 -131 48.5t-51 131.5q0 95 68 160.5t165 65.5q83 0 132.5 -50.5t49.5 -130.5q0 -94 -69.5 -159.5t-163.5 -65.5zM702 -27
q-184 0 -307 80t-167.5 216.5t-10.5 308.5l162 845h328l-162 -845q-27 -142 27 -219.5t173 -77.5q111 0 182.5 65.5t96.5 190.5l172 886h326l-172 -886q-52 -269 -222.5 -416.5t-425.5 -147.5z" />
    <glyph glyph-name="Yacute" unicode="&#xdd;" horiz-adv-x="1351" 
d="M1288 1716l-647 -180l-72 223l648 211zM1602 1423l-670 -848l-111 -575h-327l112 582l-342 841h330l217 -557l403 557h388z" />
    <glyph glyph-name="Thorn" unicode="&#xde;" horiz-adv-x="1251" 
d="M911 1174q207 0 322.5 -114.5t107.5 -289.5q-5 -153 -83.5 -269t-206 -175.5t-283.5 -59.5h-272l-52 -266h-325l276 1423h326l-49 -249h239zM1004 727q6 68 -33 115t-117 47h-238l-65 -336h237q98 0 154 48t62 126z" />
    <glyph glyph-name="germandbls" unicode="&#xdf;" horiz-adv-x="1265" 
d="M741 -27q-153 0 -217 95l103 247q30 -71 118 -71q89 0 150 54.5t70 145.5q11 93 -42 148t-173 55l47 252q103 0 166.5 51.5t72.5 132.5q9 76 -36.5 123t-122.5 47q-103 0 -170.5 -64t-90.5 -188l-194 -1001h-326l191 983q51 256 225 397.5t440 141.5q150 0 253.5 -54.5
t145.5 -145t23 -202.5q-15 -110 -86.5 -199t-171.5 -130q92 -44 142 -148.5t30 -234.5q-32 -206 -180.5 -320.5t-366.5 -114.5z" />
    <glyph glyph-name="agrave" unicode="&#xe0;" horiz-adv-x="1314" 
d="M1227 1348l-131 -189l-527 316l140 217zM1094 1079h301l-209 -1079h-301l20 104q-144 -131 -330 -131q-191 0 -311.5 133.5t-120.5 346.5q0 172 80.5 321t223 239.5t313.5 90.5q211 0 311 -146zM696 260q120 0 203.5 95.5t83.5 224.5q0 105 -62 171t-161 66
q-120 0 -203.5 -93.5t-83.5 -221.5q0 -105 62 -173.5t161 -68.5z" />
    <glyph glyph-name="aacute" unicode="&#xe1;" horiz-adv-x="1314" 
d="M1229 1475l-563 -293l-115 190l555 326zM1094 1079h301l-209 -1079h-301l20 104q-144 -131 -330 -131q-191 0 -311.5 133.5t-120.5 346.5q0 172 80.5 321t223 239.5t313.5 90.5q211 0 311 -146zM696 260q120 0 203.5 95.5t83.5 224.5q0 105 -62 171t-161 66
q-120 0 -203.5 -93.5t-83.5 -221.5q0 -105 62 -173.5t161 -68.5z" />
    <glyph glyph-name="acircumflex" unicode="&#xe2;" horiz-adv-x="1314" 
d="M952 1432l-182 -205h-291l367 411h264l201 -411h-254zM1094 1079h301l-209 -1079h-301l20 104q-144 -131 -330 -131q-191 0 -311.5 133.5t-120.5 346.5q0 172 80.5 321t223 239.5t313.5 90.5q211 0 311 -146zM696 260q120 0 203.5 95.5t83.5 224.5q0 105 -62 171t-161 66
q-120 0 -203.5 -93.5t-83.5 -221.5q0 -105 62 -173.5t161 -68.5z" />
    <glyph glyph-name="atilde" unicode="&#xe3;" horiz-adv-x="1314" 
d="M784 1350q-72 0 -100 -86l-205 94q39 111 117 184.5t184 73.5q44 0 82 -15.5t61 -33.5t53.5 -33.5t61.5 -15.5q75 0 103 86l202 -95q-37 -111 -115 -184.5t-184 -73.5q-45 0 -83.5 15.5t-61.5 34t-53.5 34t-61.5 15.5zM1094 1079h301l-209 -1079h-301l20 104
q-144 -131 -330 -131q-191 0 -311.5 133.5t-120.5 346.5q0 172 80.5 321t223 239.5t313.5 90.5q211 0 311 -146zM696 260q120 0 203.5 95.5t83.5 224.5q0 105 -62 171t-161 66q-120 0 -203.5 -93.5t-83.5 -221.5q0 -105 62 -173.5t161 -68.5z" />
    <glyph glyph-name="adieresis" unicode="&#xe4;" horiz-adv-x="1314" 
d="M647 1237q-78 0 -126 48t-48 130q0 85 67.5 149t157.5 64q78 0 126 -48t48 -130q0 -84 -67.5 -148.5t-157.5 -64.5zM1137 1237q-78 0 -126 48t-48 130q0 85 67.5 149t157.5 64q79 0 127.5 -48t48.5 -130q0 -84 -68.5 -148.5t-158.5 -64.5zM1094 1079h301l-209 -1079h-301
l20 104q-144 -131 -330 -131q-191 0 -311.5 133.5t-120.5 346.5q0 172 80.5 321t223 239.5t313.5 90.5q211 0 311 -146zM696 260q120 0 203.5 95.5t83.5 224.5q0 105 -62 171t-161 66q-120 0 -203.5 -93.5t-83.5 -221.5q0 -105 62 -173.5t161 -68.5z" />
    <glyph glyph-name="aring" unicode="&#xe5;" horiz-adv-x="1314" 
d="M868 1159q-113 0 -182.5 66.5t-69.5 171.5q0 123 94 212t226 89q112 0 181 -66.5t69 -171.5q0 -123 -93 -212t-225 -89zM909 1520q-42 0 -71 -30t-29 -71q0 -37 21.5 -58.5t58.5 -21.5q43 0 73.5 28.5t30.5 70.5q0 37 -23.5 59.5t-60.5 22.5zM1094 1079h301l-209 -1079
h-301l20 104q-144 -131 -330 -131q-191 0 -311.5 133.5t-120.5 346.5q0 172 80.5 321t223 239.5t313.5 90.5q211 0 311 -146zM696 260q120 0 203.5 95.5t83.5 224.5q0 105 -62 171t-161 66q-120 0 -203.5 -93.5t-83.5 -221.5q0 -105 62 -173.5t161 -68.5z" />
    <glyph glyph-name="ae" unicode="&#xe6;" horiz-adv-x="2068" 
d="M1327 449q10 -104 73.5 -160t160.5 -56q149 0 243 129l205 -157q-199 -232 -485 -232q-230 0 -310 172l-28 -145h-301l20 104q-144 -131 -330 -131q-191 0 -311.5 133.5t-120.5 346.5q0 172 80.5 321t223 239.5t313.5 90.5q211 0 311 -146l23 121h301l-19 -100
q135 125 312 125q98 0 182.5 -36.5t142.5 -97.5t90.5 -142.5t32.5 -170.5q0 -51 -12 -111t-27 -97h-770zM1350 639h499v14q0 102 -51 157.5t-151 55.5q-109 0 -185 -63t-112 -164zM696 260q120 0 203.5 95.5t83.5 224.5q0 105 -62 171t-161 66q-120 0 -203.5 -93.5
t-83.5 -221.5q0 -105 62 -173.5t161 -68.5z" />
    <glyph glyph-name="ccedilla" unicode="&#xe7;" horiz-adv-x="1179" 
d="M684 264q80 0 145 46t103 130l264 -114q-69 -143 -191 -233.5t-274 -112.5l-37 -72q54 -19 86.5 -64.5t32.5 -103.5q0 -99 -84 -167.5t-209 -68.5q-85 0 -153.5 29.5t-100.5 75.5l127 125q30 -58 96 -58q41 0 68 23t27 57q0 33 -20.5 53.5t-55.5 20.5h-16l-21 29l68 125
q-180 32 -288 162.5t-108 318.5q0 171 88.5 318.5t240 234t329.5 86.5q186 0 317.5 -101t143.5 -255l-306 -111q-6 80 -59 128t-137 48q-120 0 -202.5 -91t-82.5 -220q0 -107 56.5 -172.5t152.5 -65.5z" />
    <glyph glyph-name="egrave" unicode="&#xe8;" horiz-adv-x="1216" 
d="M1161 1346l-129 -189l-528 316l141 217zM455 442q12 -99 73.5 -151.5t153.5 -52.5q147 0 238 129l210 -162q-199 -232 -483 -232q-223 0 -363.5 138t-140.5 352q0 128 50.5 246t136 204.5t204 138.5t248.5 52q214 0 346 -131t132 -316q0 -110 -41 -215h-764zM481 647h484
v6q0 98 -50 153.5t-145 55.5q-104 0 -178.5 -59.5t-110.5 -155.5z" />
    <glyph glyph-name="eacute" unicode="&#xe9;" horiz-adv-x="1216" 
d="M1182 1473l-566 -293l-114 190l557 326zM455 442q12 -99 73.5 -151.5t153.5 -52.5q147 0 238 129l210 -162q-199 -232 -483 -232q-223 0 -363.5 138t-140.5 352q0 128 50.5 246t136 204.5t204 138.5t248.5 52q214 0 346 -131t132 -316q0 -110 -41 -215h-764zM481 647h484
v6q0 98 -50 153.5t-145 55.5q-104 0 -178.5 -59.5t-110.5 -155.5z" />
    <glyph glyph-name="ecircumflex" unicode="&#xea;" horiz-adv-x="1216" 
d="M858 1430l-182 -205h-291l369 411h262l201 -411h-252zM455 442q12 -99 73.5 -151.5t153.5 -52.5q147 0 238 129l210 -162q-199 -232 -483 -232q-223 0 -363.5 138t-140.5 352q0 128 50.5 246t136 204.5t204 138.5t248.5 52q214 0 346 -131t132 -316q0 -110 -41 -215h-764
zM481 647h484v6q0 98 -50 153.5t-145 55.5q-104 0 -178.5 -59.5t-110.5 -155.5z" />
    <glyph glyph-name="edieresis" unicode="&#xeb;" horiz-adv-x="1216" 
d="M553 1235q-79 0 -127.5 48t-48.5 130q0 85 68 149t157 64q79 0 127.5 -48t48.5 -130q0 -84 -67.5 -148.5t-157.5 -64.5zM1042 1235q-78 0 -127 48t-49 130q0 85 68.5 149t159.5 64q78 0 126 -48t48 -130q0 -84 -68 -148.5t-158 -64.5zM782 1104q214 0 346 -131t132 -316
q0 -110 -41 -215h-764q12 -99 73.5 -151.5t153.5 -52.5q147 0 238 129l210 -162q-199 -232 -483 -232q-223 0 -363.5 138t-140.5 352q0 128 50.5 246t136 204.5t204 138.5t248.5 52zM481 647h484v6q0 98 -50 153.5t-145 55.5q-104 0 -178.5 -59.5t-110.5 -155.5z" />
    <glyph glyph-name="igrave" unicode="&#xec;" horiz-adv-x="538" 
d="M694 1157l-528 316l139 217l518 -344zM96 0l209 1079h326l-209 -1079h-326z" />
    <glyph glyph-name="iacute" unicode="&#xed;" horiz-adv-x="538" 
d="M299 1180l-115 190l555 326l123 -221zM96 0l209 1079h326l-209 -1079h-326z" />
    <glyph glyph-name="icircumflex" unicode="&#xee;" horiz-adv-x="538" 
d="M698 1636l199 -409h-252l-106 205l-183 -205h-290l368 409h264zM96 0l209 1079h326l-209 -1079h-326z" />
    <glyph glyph-name="idieresis" unicode="&#xef;" horiz-adv-x="538" 
d="M262 1235q-77 0 -125.5 49t-48.5 131q0 84 67.5 147.5t157.5 63.5q78 0 126 -47.5t48 -130.5q0 -84 -67.5 -148.5t-157.5 -64.5zM752 1235q-77 0 -125.5 49t-48.5 131q0 84 67.5 147.5t157.5 63.5q78 0 127 -47.5t49 -130.5q0 -84 -68.5 -148.5t-158.5 -64.5zM96 0
l209 1079h326l-209 -1079h-326z" />
    <glyph glyph-name="eth" unicode="&#xf0;" horiz-adv-x="1261" 
d="M997 1481q162 -122 252 -309.5t90 -413.5q0 -169 -46 -312.5t-132 -248.5t-216.5 -164.5t-291.5 -59.5q-222 0 -368 134t-146 344q0 169 89.5 314t238.5 228.5t319 83.5q127 0 205 -47q-65 154 -227 252l-217 -186l-139 143l151 129q-122 35 -256 35l164 246
q186 0 346 -66l174 150l137 -144zM698 264q123 0 205 93.5t82 213.5q0 93 -62 155t-161 62q-122 0 -204.5 -86.5t-82.5 -209.5q0 -97 60 -162.5t163 -65.5z" />
    <glyph glyph-name="ntilde" unicode="&#xf1;" horiz-adv-x="1239" 
d="M735 1348q-72 0 -100 -86l-205 94q36 109 115.5 183.5t183.5 74.5q45 0 83.5 -15.5t61 -33.5t53.5 -33.5t62 -15.5q73 0 101 86l204 -95q-36 -110 -115 -184t-184 -74q-45 0 -84 15.5t-61.5 34t-53.5 34t-61 15.5zM918 1106q184 0 277.5 -122t55.5 -316l-129 -668h-325
l116 606q20 101 -21 155t-126 54q-76 0 -135 -46t-84 -126l-125 -643h-326l209 1079h307l-18 -98q141 125 324 125z" />
    <glyph glyph-name="ograve" unicode="&#xf2;" horiz-adv-x="1284" 
d="M1071 1157l-526 316l139 217l518 -344zM662 -27q-226 0 -372.5 133t-146.5 357q0 173 87.5 320.5t239.5 234t331 86.5q107 0 200.5 -32.5t164.5 -93.5t112 -154.5t41 -207.5q0 -170 -84 -317t-236 -236.5t-337 -89.5zM698 264q84 0 151.5 46.5t102.5 118.5t35 153
q0 105 -60 169t-161 64q-125 0 -208 -93t-83 -220q0 -106 60.5 -172t162.5 -66z" />
    <glyph glyph-name="oacute" unicode="&#xf3;" horiz-adv-x="1284" 
d="M625 1180l-115 190l557 326l123 -223zM662 -27q-226 0 -372.5 133t-146.5 357q0 173 87.5 320.5t239.5 234t331 86.5q107 0 200.5 -32.5t164.5 -93.5t112 -154.5t41 -207.5q0 -170 -84 -317t-236 -236.5t-337 -89.5zM698 264q84 0 151.5 46.5t102.5 118.5t35 153
q0 105 -60 169t-161 64q-125 0 -208 -93t-83 -220q0 -106 60.5 -172t162.5 -66z" />
    <glyph glyph-name="ocircumflex" unicode="&#xf4;" horiz-adv-x="1284" 
d="M874 1430l-182 -205h-291l367 411h264l201 -411h-254zM801 1104q107 0 200.5 -32.5t164.5 -93.5t112 -154.5t41 -207.5q0 -170 -84 -317t-236 -236.5t-337 -89.5q-226 0 -372.5 133t-146.5 357q0 173 87.5 320.5t239.5 234t331 86.5zM698 264q84 0 151.5 46.5
t102.5 118.5t35 153q0 105 -60 169t-161 64q-125 0 -208 -93t-83 -220q0 -106 60.5 -172t162.5 -66z" />
    <glyph glyph-name="otilde" unicode="&#xf5;" horiz-adv-x="1284" 
d="M971 1249q-45 0 -83.5 15.5t-61 34t-53 34t-60.5 15.5q-73 0 -101 -86l-204 94q36 109 115.5 183.5t183.5 74.5q45 0 83.5 -15.5t61 -33.5t53.5 -33.5t62 -15.5q72 0 100 86l205 -95q-36 -111 -115 -184.5t-186 -73.5zM662 -27q-226 0 -372.5 133t-146.5 357
q0 173 87.5 320.5t239.5 234t331 86.5q107 0 200.5 -32.5t164.5 -93.5t112 -154.5t41 -207.5q0 -170 -84 -317t-236 -236.5t-337 -89.5zM698 264q84 0 151.5 46.5t102.5 118.5t35 153q0 105 -60 169t-161 64q-125 0 -208 -93t-83 -220q0 -106 60.5 -172t162.5 -66z" />
    <glyph glyph-name="odieresis" unicode="&#xf6;" horiz-adv-x="1284" 
d="M596 1235q-78 0 -126 48t-48 130q0 85 67.5 149t157.5 64q79 0 127.5 -48t48.5 -130q0 -84 -68.5 -148.5t-158.5 -64.5zM1087 1235q-79 0 -127.5 48t-48.5 130q0 85 68.5 149t159.5 64q78 0 126 -48t48 -130q0 -84 -68 -148.5t-158 -64.5zM662 -27q-226 0 -372.5 133
t-146.5 357q0 173 87.5 320.5t239.5 234t331 86.5q107 0 200.5 -32.5t164.5 -93.5t112 -154.5t41 -207.5q0 -170 -84 -317t-236 -236.5t-337 -89.5zM698 264q84 0 151.5 46.5t102.5 118.5t35 153q0 105 -60 169t-161 64q-125 0 -208 -93t-83 -220q0 -106 60.5 -172
t162.5 -66z" />
    <glyph glyph-name="divide" unicode="&#xf7;" horiz-adv-x="956" 
d="M670 926q-70 0 -114 43t-44 112q0 81 58.5 143t142.5 62q74 0 117.5 -44.5t43.5 -113.5q0 -80 -59 -141t-145 -61zM158 543l53 272h848l-53 -272h-848zM504 70q-71 0 -115.5 43t-44.5 112q0 81 59 143t144 62q73 0 117.5 -44t44.5 -112q0 -81 -59.5 -142.5t-145.5 -61.5z
" />
    <glyph glyph-name="oslash" unicode="&#xf8;" horiz-adv-x="1314" 
d="M1450 938l-154 -117q39 -92 39 -205q0 -170 -84 -317t-236 -236.5t-337 -89.5q-212 0 -352 115l-176 -131l-119 170l170 127q-41 93 -41 209q0 130 52 248.5t140 204.5t210 137t255 51q212 0 354 -117l162 121zM717 264q124 0 205.5 96.5t81.5 221.5q0 105 -60.5 169
t-161.5 64q-123 0 -205.5 -93t-82.5 -220q0 -106 60 -172t163 -66z" />
    <glyph glyph-name="ugrave" unicode="&#xf9;" horiz-adv-x="1222" 
d="M1153 1348l-129 -189l-528 316l139 217zM981 1079h326l-209 -1079h-307l20 106q-143 -133 -326 -133q-173 0 -265 123t-54 316l127 667h325l-116 -606q-19 -100 21.5 -154.5t119.5 -54.5q80 0 141 56t78 149z" />
    <glyph glyph-name="uacute" unicode="&#xfa;" horiz-adv-x="1222" 
d="M1192 1475l-563 -293l-115 190l555 326zM981 1079h326l-209 -1079h-307l20 106q-143 -133 -326 -133q-173 0 -265 123t-54 316l127 667h325l-116 -606q-19 -100 21.5 -154.5t119.5 -54.5q80 0 141 56t78 149z" />
    <glyph glyph-name="ucircumflex" unicode="&#xfb;" horiz-adv-x="1222" 
d="M877 1432l-183 -205h-291l367 411h264l201 -411h-252zM981 1079h326l-209 -1079h-307l20 106q-143 -133 -326 -133q-173 0 -265 123t-54 316l127 667h325l-116 -606q-19 -100 21.5 -154.5t119.5 -54.5q80 0 141 56t78 149z" />
    <glyph glyph-name="udieresis" unicode="&#xfc;" horiz-adv-x="1222" 
d="M586 1237q-78 0 -126 48t-48 130q0 85 67.5 149t157.5 64q79 0 127.5 -48t48.5 -130q0 -84 -68.5 -148.5t-158.5 -64.5zM1077 1237q-79 0 -127.5 48t-48.5 130q0 85 68 149t157 64q79 0 128 -48t49 -130q0 -84 -68 -148.5t-158 -64.5zM981 1079h326l-209 -1079h-307
l20 106q-143 -133 -326 -133q-173 0 -265 123t-54 316l127 667h325l-116 -606q-19 -100 21.5 -154.5t119.5 -54.5q80 0 141 56t78 149z" />
    <glyph glyph-name="yacute" unicode="&#xfd;" horiz-adv-x="1169" 
d="M1174 1475l-564 -293l-114 190l555 326zM983 1079h360l-585 -1079l-201 -367h-321l213 367h-72l-168 1079h323l93 -760z" />
    <glyph glyph-name="thorn" unicode="&#xfe;" horiz-adv-x="1288" 
d="M928 1104q150 0 254 -73.5t144 -202t9 -289.5q-46 -243 -226.5 -404.5t-408.5 -161.5q-168 0 -264 99l-86 -439h-325l362 1864h326l-97 -498q136 105 312 105zM1010 539q22 118 -32.5 197t-162.5 79q-110 0 -193 -76.5t-106 -199.5t31 -199t164 -76q108 0 191.5 78.5
t107.5 196.5z" />
    <glyph glyph-name="ydieresis" unicode="&#xff;" horiz-adv-x="1169" 
d="M539 1237q-78 0 -126 48t-48 130q0 85 67.5 149t157.5 64q79 0 127.5 -48t48.5 -130q0 -84 -68.5 -148.5t-158.5 -64.5zM1030 1237q-79 0 -127.5 48t-48.5 130q0 85 68 149t157 64q79 0 127.5 -48t48.5 -130q0 -84 -67.5 -148.5t-157.5 -64.5zM983 1079h360l-585 -1079
l-201 -367h-321l213 367h-72l-168 1079h323l93 -760z" />
    <glyph glyph-name="Amacron" unicode="&#x100;" horiz-adv-x="1355" 
d="M651 1878h752l-53 -264h-750zM735 1423h400l184 -1423h-305l-35 287h-498l-143 -287h-338zM614 553h334l-65 541z" />
    <glyph glyph-name="amacron" unicode="&#x101;" horiz-adv-x="1314" 
d="M1276 1548l-47 -243h-686l47 243h686zM1094 1079h301l-209 -1079h-301l20 104q-144 -131 -330 -131q-191 0 -311.5 133.5t-120.5 346.5q0 172 80.5 321t223 239.5t313.5 90.5q211 0 311 -146zM696 260q120 0 203.5 95.5t83.5 224.5q0 105 -62 171t-161 66
q-120 0 -203.5 -93.5t-83.5 -221.5q0 -105 62 -173.5t161 -68.5z" />
    <glyph glyph-name="Abreve" unicode="&#x102;" horiz-adv-x="1355" 
d="M991 1552q-125 0 -210.5 55t-117 141.5t-12.5 188.5h267q-12 -64 12 -104.5t82 -40.5q117 0 143 145h266q-34 -171 -145 -278t-285 -107zM735 1423h400l184 -1423h-305l-35 287h-498l-143 -287h-338zM614 553h334l-65 541z" />
    <glyph glyph-name="abreve" unicode="&#x103;" horiz-adv-x="1314" 
d="M891 1227q-170 0 -269.5 118.5t-66.5 292.5h250q-17 -82 14 -127t92 -45q65 0 108.5 46t55.5 126h254q-80 -411 -438 -411zM1094 1079h301l-209 -1079h-301l20 104q-144 -131 -330 -131q-191 0 -311.5 133.5t-120.5 346.5q0 172 80.5 321t223 239.5t313.5 90.5
q211 0 311 -146zM696 260q120 0 203.5 95.5t83.5 224.5q0 105 -62 171t-161 66q-120 0 -203.5 -93.5t-83.5 -221.5q0 -105 62 -173.5t161 -68.5z" />
    <glyph glyph-name="Aogonek" unicode="&#x104;" horiz-adv-x="1355" 
d="M1239 -254l82 -147q-86 -86 -236 -86q-102 0 -163.5 49t-61.5 137q0 159 213 297l6 4h-65l-35 287h-498l-143 -287h-338l735 1423h400l184 -1423l-137 -115q-76 -62 -76 -116q0 -56 59 -56q36 0 74 33zM614 553h334l-65 541z" />
    <glyph glyph-name="aogonek" unicode="&#x105;" horiz-adv-x="1314" 
d="M1032 -287q36 0 74 33l82 -147q-86 -86 -236 -86q-102 0 -163.5 49t-61.5 137q0 159 213 297l6 4h-61l20 104q-144 -131 -330 -131q-191 0 -311.5 133.5t-120.5 346.5q0 172 80.5 321t223 239.5t313.5 90.5q211 0 311 -146l23 121h301l-209 -1079l-137 -115
q-76 -62 -76 -116q0 -56 59 -56zM696 260q120 0 203.5 95.5t83.5 224.5q0 105 -62 171t-161 66q-120 0 -203.5 -93.5t-83.5 -221.5q0 -105 62 -173.5t161 -68.5z" />
    <glyph glyph-name="Cacute" unicode="&#x106;" horiz-adv-x="1503" 
d="M756 1536l-70 223l645 211l74 -254zM838 -27q-192 0 -342 81.5t-233 230t-83 338.5q0 225 106.5 414.5t295 301t417.5 111.5q250 0 425.5 -134t197.5 -333l-324 -121q-19 131 -106 205t-223 74q-195 0 -323 -142.5t-128 -349.5q0 -163 97.5 -264.5t256.5 -101.5
q252 0 369 249l285 -124q-95 -206 -273.5 -320.5t-414.5 -114.5z" />
    <glyph glyph-name="cacute" unicode="&#x107;" horiz-adv-x="1179" 
d="M621 1182l-113 190l555 326l123 -223zM647 -27q-223 0 -363.5 137.5t-140.5 354.5q0 171 88.5 318.5t240 234t329.5 86.5q186 0 317.5 -101t143.5 -255l-306 -111q-6 80 -59 128t-137 48q-120 0 -202.5 -91t-82.5 -220q0 -107 56.5 -172.5t152.5 -65.5q80 0 145 46
t103 130l264 -114q-78 -164 -224.5 -258.5t-324.5 -94.5z" />
    <glyph glyph-name="Cdotaccent" unicode="&#x10a;" horiz-adv-x="1503" 
d="M1049 1542q-80 0 -133.5 50t-53.5 132q0 92 68.5 158t163.5 66q82 0 134 -52t52 -131q0 -93 -70 -158t-161 -65zM838 -27q-192 0 -342 81.5t-233 230t-83 338.5q0 225 106.5 414.5t295 301t417.5 111.5q250 0 425.5 -134t197.5 -333l-324 -121q-19 131 -106 205t-223 74
q-195 0 -323 -142.5t-128 -349.5q0 -163 97.5 -264.5t256.5 -101.5q252 0 369 249l285 -124q-95 -206 -273.5 -320.5t-414.5 -114.5z" />
    <glyph glyph-name="cdotaccent" unicode="&#x10b;" horiz-adv-x="1179" 
d="M846 1233q-82 0 -135.5 49t-53.5 127q0 92 69.5 159.5t166.5 67.5q82 0 135 -49t53 -127q0 -92 -69 -159.5t-166 -67.5zM647 -27q-223 0 -363.5 137.5t-140.5 354.5q0 171 88.5 318.5t240 234t329.5 86.5q186 0 317.5 -101t143.5 -255l-306 -111q-6 80 -59 128t-137 48
q-120 0 -202.5 -91t-82.5 -220q0 -107 56.5 -172.5t152.5 -65.5q80 0 145 46t103 130l264 -114q-78 -164 -224.5 -258.5t-324.5 -94.5z" />
    <glyph glyph-name="Ccaron" unicode="&#x10c;" horiz-adv-x="1503" 
d="M1155 1552h-264l-215 385h268l105 -168l176 168h307zM872 283q252 0 369 249l285 -124q-95 -206 -273.5 -320.5t-414.5 -114.5q-192 0 -342 81.5t-233 230t-83 338.5q0 225 106.5 414.5t295 301t417.5 111.5q250 0 425.5 -134t197.5 -333l-324 -121q-19 131 -106 205
t-223 74q-195 0 -323 -142.5t-128 -349.5q0 -163 97.5 -264.5t256.5 -101.5z" />
    <glyph glyph-name="ccaron" unicode="&#x10d;" horiz-adv-x="1179" 
d="M950 1227h-264l-199 411h254l105 -204l182 204h291zM760 813q-120 0 -202.5 -91t-82.5 -220q0 -107 56.5 -172.5t152.5 -65.5q80 0 145 46t103 130l264 -114q-78 -164 -224.5 -258.5t-324.5 -94.5q-223 0 -363.5 137.5t-140.5 354.5q0 171 88.5 318.5t240 234t329.5 86.5
q186 0 317.5 -101t143.5 -255l-306 -111q-6 80 -59 128t-137 48z" />
    <glyph glyph-name="Dcaron" unicode="&#x10e;" horiz-adv-x="1484" 
d="M1083 1550h-262l-215 385h268l103 -168l176 168h307zM913 1423q285 0 456 -171.5t171 -456.5q0 -166 -62 -312t-172 -253t-269.5 -168.5t-346.5 -61.5h-571l276 1423h518zM717 289q211 0 348 143.5t137 358.5q0 166 -87 255t-245 89h-206l-162 -846h215z" />
    <glyph glyph-name="dcaron" unicode="&#x10f;" horiz-adv-x="1540" 
d="M1620 1499h244l-162 -524h-213zM1051 985l100 512h326l-291 -1497h-301l20 104q-144 -131 -330 -131q-191 0 -311.5 133.5t-120.5 346.5q0 172 80.5 321t223 239.5t313.5 90.5q192 0 291 -119zM696 260q120 0 203.5 95.5t83.5 224.5q0 105 -62 171t-161 66
q-120 0 -203.5 -93.5t-83.5 -221.5q0 -105 62 -173.5t161 -68.5z" />
    <glyph glyph-name="Dcroat" unicode="&#x110;" horiz-adv-x="1511" 
d="M940 1423q283 0 455 -171.5t172 -456.5q0 -166 -62 -312t-172 -253t-269.5 -168.5t-346.5 -61.5h-572l119 608h-141l43 226h141l115 589h518zM741 289q212 0 350 143.5t138 358.5q0 166 -87 255t-245 89h-207l-57 -301h272l-45 -226h-270l-62 -319h213z" />
    <glyph glyph-name="dcroat" unicode="&#x111;" horiz-adv-x="1314" 
d="M1608 1399l-45 -225h-150l-227 -1174h-301l20 104q-144 -131 -330 -131q-191 0 -311.5 133.5t-120.5 346.5q0 172 80.5 321t223 239.5t313.5 90.5q192 0 291 -119l36 189h-262l43 225h265l18 98h326l-19 -98h150zM696 260q120 0 203.5 95.5t83.5 224.5q0 105 -62 171
t-161 66q-120 0 -203.5 -93.5t-83.5 -221.5q0 -105 62 -173.5t161 -68.5z" />
    <glyph glyph-name="Emacron" unicode="&#x112;" horiz-adv-x="1177" 
d="M1329 1878l-51 -264h-750l52 264h749zM1286 1139h-620l-54 -275h547l-55 -282h-547l-55 -297h633l-58 -285h-958l276 1423h948z" />
    <glyph glyph-name="emacron" unicode="&#x113;" horiz-adv-x="1216" 
d="M1206 1538l-47 -244h-686l47 244h686zM455 442q12 -99 73.5 -151.5t153.5 -52.5q147 0 238 129l210 -162q-199 -232 -483 -232q-223 0 -363.5 138t-140.5 352q0 128 50.5 246t136 204.5t204 138.5t248.5 52q214 0 346 -131t132 -316q0 -110 -41 -215h-764zM481 647h484v6
q0 98 -50 153.5t-145 55.5q-104 0 -178.5 -59.5t-110.5 -155.5z" />
    <glyph glyph-name="Edotaccent" unicode="&#x116;" horiz-adv-x="1177" 
d="M905 1542q-79 0 -132.5 50.5t-53.5 131.5q0 92 69 158t164 66q82 0 134.5 -52t52.5 -131q0 -93 -70.5 -158t-163.5 -65zM1286 1139h-620l-54 -275h547l-55 -282h-547l-55 -297h633l-58 -285h-958l276 1423h948z" />
    <glyph glyph-name="edotaccent" unicode="&#x117;" horiz-adv-x="1216" 
d="M821 1231q-82 0 -135 49t-53 127q0 92 68.5 159.5t164.5 67.5q83 0 136 -49t53 -127q0 -92 -68.5 -159.5t-165.5 -67.5zM455 442q12 -99 73.5 -151.5t153.5 -52.5q147 0 238 129l210 -162q-199 -232 -483 -232q-223 0 -363.5 138t-140.5 352q0 128 50.5 246t136 204.5
t204 138.5t248.5 52q214 0 346 -131t132 -316q0 -110 -41 -215h-764zM481 647h484v6q0 98 -50 153.5t-145 55.5q-104 0 -178.5 -59.5t-110.5 -155.5z" />
    <glyph glyph-name="Eogonek" unicode="&#x118;" horiz-adv-x="1177" 
d="M1286 1139h-620l-54 -275h547l-55 -282h-547l-55 -297h633l-58 -285l-137 -115q-74 -60 -74 -116q0 -27 15.5 -41.5t42.5 -14.5q35 0 73 33l82 -147q-86 -86 -233 -86q-102 0 -165 49.5t-63 136.5q0 157 216 297l6 4h-721l276 1423h948z" />
    <glyph glyph-name="eogonek" unicode="&#x119;" horiz-adv-x="1216" 
d="M455 442q12 -99 73.5 -151.5t153.5 -52.5q147 0 238 129l210 -162q-100 -116 -217 -172l-129 -109q-75 -61 -75 -117q0 -55 57 -55q36 0 74 33l82 -147q-87 -87 -234 -87q-102 0 -164.5 49.5t-62.5 137.5q0 123 133 237q-202 17 -326.5 152.5t-124.5 335.5
q0 128 50.5 246t136 204.5t204 138.5t248.5 52q214 0 346 -131t132 -316q0 -110 -41 -215h-764zM481 647h484v6q0 98 -50 153.5t-145 55.5q-104 0 -178.5 -59.5t-110.5 -155.5z" />
    <glyph glyph-name="Ecaron" unicode="&#x11a;" horiz-adv-x="1177" 
d="M1006 1552h-265l-215 385h271l102 -168l176 168h307zM119 0l276 1423h948l-57 -284h-620l-54 -275h547l-55 -282h-547l-55 -297h633l-58 -285h-958z" />
    <glyph glyph-name="ecaron" unicode="&#x11b;" horiz-adv-x="1216" 
d="M944 1225h-264l-199 411h254l105 -204l182 204h291zM782 1104q214 0 346 -131t132 -316q0 -110 -41 -215h-764q12 -99 73.5 -151.5t153.5 -52.5q147 0 238 129l210 -162q-199 -232 -483 -232q-223 0 -363.5 138t-140.5 352q0 128 50.5 246t136 204.5t204 138.5t248.5 52z
M481 647h484v6q0 98 -50 153.5t-145 55.5q-104 0 -178.5 -59.5t-110.5 -155.5z" />
    <glyph glyph-name="Gbreve" unicode="&#x11e;" horiz-adv-x="1589" 
d="M1055 1552q-125 0 -210.5 55t-117 141.5t-12.5 188.5h266q-13 -64 11 -104.5t83 -40.5q116 0 144 145h264q-32 -170 -143.5 -277.5t-284.5 -107.5zM1647 768q-53 -397 -260 -596t-543 -199q-193 0 -344 81t-235.5 230t-84.5 343q0 169 62 321t170 262.5t262.5 175
t331.5 64.5q236 0 411 -123t207 -309l-321 -123q-25 116 -110.5 181t-215.5 65q-192 0 -326.5 -142t-134.5 -346q0 -175 103 -281t272 -106q256 0 375 256h-387l49 246h719z" />
    <glyph glyph-name="gbreve" unicode="&#x11f;" horiz-adv-x="1312" 
d="M860 1227q-170 0 -269.5 118.5t-66.5 292.5h250q-17 -82 14.5 -127t92.5 -45q65 0 108 46t55 126h254q-80 -411 -438 -411zM1096 1079h301l-178 -913q-110 -559 -644 -559q-207 0 -346 83t-180 234l279 99q20 -72 91.5 -113t174.5 -41q127 0 209.5 69t107.5 197l11 51
q-159 -149 -347 -149t-310 127.5t-122 320.5q0 162 84.5 305t227 228.5t305.5 85.5q210 0 313 -141zM696 293q121 0 204 89t83 214q0 100 -61.5 160.5t-161.5 60.5q-121 0 -204 -87.5t-83 -211.5q0 -100 61.5 -162.5t161.5 -62.5z" />
    <glyph glyph-name="Gdotaccent" unicode="&#x120;" horiz-adv-x="1589" 
d="M1040 1542q-79 0 -132.5 50.5t-53.5 131.5q0 92 69 158t164 66q82 0 133.5 -52t51.5 -131q0 -93 -69.5 -158t-162.5 -65zM1647 768q-53 -397 -260 -596t-543 -199q-193 0 -344 81t-235.5 230t-84.5 343q0 169 62 321t170 262.5t262.5 175t331.5 64.5q236 0 411 -123
t207 -309l-321 -123q-25 116 -110.5 181t-215.5 65q-192 0 -326.5 -142t-134.5 -346q0 -175 103 -281t272 -106q256 0 375 256h-387l49 246h719z" />
    <glyph glyph-name="gdotaccent" unicode="&#x121;" horiz-adv-x="1312" 
d="M856 1233q-82 0 -135 49t-53 127q0 92 69 159.5t166 67.5q82 0 135.5 -49t53.5 -127q0 -92 -69.5 -159.5t-166.5 -67.5zM1096 1079h301l-178 -913q-110 -559 -644 -559q-207 0 -346 83t-180 234l279 99q20 -72 91.5 -113t174.5 -41q127 0 209.5 69t107.5 197l11 51
q-159 -149 -347 -149t-310 127.5t-122 320.5q0 162 84.5 305t227 228.5t305.5 85.5q210 0 313 -141zM696 293q121 0 204 89t83 214q0 100 -61.5 160.5t-161.5 60.5q-121 0 -204 -87.5t-83 -211.5q0 -100 61.5 -162.5t161.5 -62.5z" />
    <glyph glyph-name="uni0122" unicode="&#x122;" horiz-adv-x="1589" 
d="M1647 768q-53 -397 -260 -596t-543 -199q-193 0 -344 81t-235.5 230t-84.5 343q0 169 62 321t170 262.5t262.5 175t331.5 64.5q236 0 411 -123t207 -309l-321 -123q-25 116 -110.5 181t-215.5 65q-192 0 -326.5 -142t-134.5 -346q0 -175 103 -281t272 -106q256 0 375 256
h-387l49 246h719zM754 -98q61 0 103 -36.5t42 -98.5q0 -52 -33 -107.5t-102 -138.5l-109 -135l-118 77l84 115q4 6 11 16t9 13q-31 15 -49.5 46.5t-18.5 72.5q0 73 53 124.5t128 51.5z" />
    <glyph glyph-name="uni0123" unicode="&#x123;" horiz-adv-x="1312" 
d="M836 1206q-61 0 -103.5 37t-42.5 98q0 53 32.5 107.5t102.5 138.5l109 137l119 -77l-84 -117q-15 -18 -19 -29q30 -14 48 -45t18 -72q0 -74 -52.5 -126t-127.5 -52zM1096 1079h301l-178 -913q-110 -559 -644 -559q-207 0 -346 83t-180 234l279 99q20 -72 91.5 -113
t174.5 -41q127 0 209.5 69t107.5 197l11 51q-159 -149 -347 -149t-310 127.5t-122 320.5q0 162 84.5 305t227 228.5t305.5 85.5q210 0 313 -141zM696 293q121 0 204 89t83 214q0 100 -61.5 160.5t-161.5 60.5q-121 0 -204 -87.5t-83 -211.5q0 -100 61.5 -162.5t161.5 -62.5z
" />
    <glyph glyph-name="Hbar" unicode="&#x126;" horiz-adv-x="1515" 
d="M1686 1280l-52 -254h-125l-198 -1026h-326l113 578h-492l-112 -578h-326l199 1026h-125l51 254h123l28 143h326l-29 -143h492l29 143h325l-28 -143h127zM1155 870l29 156h-492l-28 -156h491z" />
    <glyph glyph-name="hbar" unicode="&#x127;" horiz-adv-x="1239" 
d="M918 1106q184 0 277.5 -122t55.5 -316l-129 -668h-325l116 606q20 101 -21 155t-126 54q-76 0 -135 -46t-84 -126l-125 -643h-326l228 1174h-144l43 225h146l18 98h326l-19 -98h269l-45 -225h-269l-33 -175q136 107 302 107z" />
    <glyph glyph-name="Itilde" unicode="&#x128;" horiz-adv-x="583" 
d="M778 1548q-47 0 -89 15.5t-67.5 34t-59 34t-66.5 15.5q-81 0 -109 -86l-205 94q37 110 117 184t190 74q47 0 89.5 -15.5t68 -33.5t59.5 -33.5t68 -15.5q81 0 109 86l204 -95q-37 -111 -117 -184.5t-192 -73.5zM119 0l276 1423h326l-277 -1423h-325z" />
    <glyph glyph-name="itilde" unicode="&#x129;" horiz-adv-x="538" 
d="M639 1249q-38 0 -71 15.5t-52 34t-44.5 34t-51.5 15.5q-61 0 -86 -84l-174 92q32 110 99 184t157 74q37 0 69.5 -15.5t51.5 -33.5t45.5 -33.5t52.5 -15.5q61 0 86 86l174 -95q-32 -111 -99 -184.5t-157 -73.5zM96 0l209 1079h326l-209 -1079h-326z" />
    <glyph glyph-name="Imacron" unicode="&#x12a;" horiz-adv-x="583" 
d="M240 1614l36 264h545l-37 -264h-544zM119 0l276 1423h326l-277 -1423h-325z" />
    <glyph glyph-name="imacron" unicode="&#x12b;" horiz-adv-x="538" 
d="M233 1303l48 243h548l-47 -243h-549zM96 0l209 1079h326l-209 -1079h-326z" />
    <glyph glyph-name="Iogonek" unicode="&#x12e;" horiz-adv-x="583" 
d="M291 -287q36 0 74 33l81 -147q-86 -86 -233 -86q-102 0 -164.5 49.5t-62.5 136.5q0 158 215 297l6 4h-88l276 1423h326l-277 -1423l-137 -115q-74 -63 -74 -116q0 -27 15.5 -41.5t42.5 -14.5z" />
    <glyph glyph-name="iogonek" unicode="&#x12f;" horiz-adv-x="538" 
d="M559 1636q82 0 135.5 -50t53.5 -128q0 -90 -69.5 -158.5t-166.5 -68.5q-82 0 -135 49t-53 127q0 92 69 160.5t166 68.5zM285 -115q-76 -62 -76 -116q0 -56 59 -56q36 0 74 33l82 -147q-86 -86 -236 -86q-102 0 -163.5 49t-61.5 137q0 159 213 297l6 4h-86l209 1079h326
l-209 -1079z" />
    <glyph glyph-name="Idotaccent" unicode="&#x130;" horiz-adv-x="583" 
d="M598 1542q-79 0 -132.5 50.5t-53.5 131.5q0 92 68.5 158t162.5 66q83 0 134.5 -52t51.5 -131q0 -94 -69 -158.5t-162 -64.5zM119 0l276 1423h326l-277 -1423h-325z" />
    <glyph glyph-name="dotlessi" unicode="&#x131;" horiz-adv-x="522" 
d="M96 0l209 1079h326l-209 -1079h-326z" />
    <glyph glyph-name="IJ" unicode="&#x132;" horiz-adv-x="1294" 
d="M119 0l276 1423h326l-277 -1423h-325zM614 0l58 291h76q71 0 116.5 41t59.5 114l188 977h328l-199 -1026q-78 -397 -491 -397h-136z" />
    <glyph glyph-name="ij" unicode="&#x133;" horiz-adv-x="1112" 
d="M512 1231q-82 0 -135 49t-53 127q0 92 69 160.5t166 68.5q82 0 135.5 -50t53.5 -128q0 -90 -69.5 -158.5t-166.5 -68.5zM1094 1231q-82 0 -135.5 50t-53.5 128q0 90 69 158.5t165 68.5q83 0 135.5 -49t52.5 -127q0 -92 -68 -160.5t-165 -68.5zM96 0l209 1079h326
l-209 -1079h-326zM418 -379l53 279h39q64 0 111.5 43t62.5 120l197 1016h325l-196 -1009q-43 -218 -184.5 -333.5t-344.5 -115.5h-63z" />
    <glyph glyph-name="uni0136" unicode="&#x136;" horiz-adv-x="1341" 
d="M1585 1423l-686 -706l420 -717h-352l-392 670l-131 -670h-325l276 1423h326l-117 -600l584 600h397zM684 -98q61 0 103 -36.5t42 -98.5q0 -52 -33 -107.5t-102 -138.5l-108 -135l-119 77l84 115q4 6 11 16t9 13q-69 32 -69 119q0 73 53.5 124.5t128.5 51.5z" />
    <glyph glyph-name="uni0137" unicode="&#x137;" horiz-adv-x="1132" 
d="M1325 1079l-491 -514l286 -565h-344l-256 510l-98 -510h-326l291 1497h326l-160 -817l385 399h387zM573 -98q61 0 103.5 -36.5t42.5 -98.5q0 -52 -33 -107.5t-102 -138.5l-109 -135l-119 77l84 115q5 6 12 16t9 13q-31 15 -49.5 46.5t-18.5 72.5q0 73 52.5 124.5
t127.5 51.5z" />
    <glyph glyph-name="kgreenlandic" unicode="&#x138;" horiz-adv-x="1101" 
d="M1325 1079l-506 -512l301 -567h-352l-258 455l-88 -455h-326l209 1079h326l-86 -442l418 442h362z" />
    <glyph glyph-name="Lacute" unicode="&#x139;" horiz-adv-x="1120" 
d="M938 1716l-647 -180l-70 223l645 211zM502 291h622l-57 -291h-948l276 1423h326z" />
    <glyph glyph-name="lacute" unicode="&#x13a;" horiz-adv-x="538" 
d="M283 1610l-70 223l645 211l74 -254zM96 0l291 1497h326l-291 -1497h-326z" />
    <glyph glyph-name="uni013B" unicode="&#x13b;" horiz-adv-x="1120" 
d="M502 291h622l-57 -291h-948l276 1423h326zM575 -98q63 0 105.5 -36.5t42.5 -98.5q0 -52 -33 -107.5t-102 -138.5l-111 -135l-117 77l84 115q5 6 12 16t9 13q-70 33 -70 119q0 73 53 124.5t127 51.5z" />
    <glyph glyph-name="uni013C" unicode="&#x13c;" horiz-adv-x="538" 
d="M387 1497h326l-291 -1497h-326zM231 -98q61 0 103.5 -36.5t42.5 -98.5q0 -52 -33 -107.5t-102 -138.5l-109 -135l-119 77l84 115q5 6 12 16t9 13q-31 15 -49.5 46.5t-18.5 72.5q0 73 52.5 124.5t127.5 51.5z" />
    <glyph glyph-name="Lcaron" unicode="&#x13d;" horiz-adv-x="1132" 
d="M1268 1446l-162 -524h-213l131 524h244zM721 1423l-219 -1132h622l-57 -291h-948l276 1423h326z" />
    <glyph glyph-name="lcaron" unicode="&#x13e;" horiz-adv-x="761" 
d="M711 975l131 524h243l-161 -524h-213zM96 0l291 1497h326l-291 -1497h-326z" />
    <glyph glyph-name="Ldot" unicode="&#x13f;" horiz-adv-x="1153" 
d="M721 1423l-219 -1132h622l-57 -291h-948l276 1423h326zM1061 1026q71 0 115.5 -44t44.5 -114q0 -80 -59 -141t-146 -61q-70 0 -114 43t-44 112q0 80 59 142.5t144 62.5z" />
    <glyph glyph-name="ldot" unicode="&#x140;" horiz-adv-x="858" 
d="M96 0l291 1497h326l-291 -1497h-326zM803 580q-71 0 -115.5 43.5t-44.5 113.5q0 80 59.5 141.5t145.5 61.5q70 0 114 -43.5t44 -112.5q0 -80 -59 -142t-144 -62z" />
    <glyph glyph-name="Lslash" unicode="&#x141;" horiz-adv-x="1241" 
d="M623 291h622l-57 -291h-950l110 567l-123 -41l-61 203l229 78l121 616h328l-97 -499l177 59l61 -205l-285 -94z" />
    <glyph glyph-name="lslash" unicode="&#x142;" horiz-adv-x="765" 
d="M948 836l-272 -140l-135 -696h-324l100 514l-102 -51l-96 196l252 127l137 711h323l-102 -528l121 61z" />
    <glyph glyph-name="Nacute" unicode="&#x143;" horiz-adv-x="1419" 
d="M1366 1716l-649 -180l-70 223l645 211zM1217 1423h323l-276 -1423h-269l-387 850l-164 -850h-325l276 1423h271l385 -856z" />
    <glyph glyph-name="nacute" unicode="&#x144;" horiz-adv-x="1239" 
d="M1182 1473l-564 -293l-114 190l555 326zM918 1106q184 0 277.5 -122t55.5 -316l-129 -668h-325l116 606q20 101 -21 155t-126 54q-76 0 -135 -46t-84 -126l-125 -643h-326l209 1079h307l-18 -98q141 125 324 125z" />
    <glyph glyph-name="uni0145" unicode="&#x145;" horiz-adv-x="1419" 
d="M1217 1423h323l-276 -1423h-269l-387 850l-164 -850h-325l276 1423h271l385 -856zM688 -98q61 0 103.5 -36.5t42.5 -98.5q0 -52 -33 -107t-103 -139l-108 -135l-119 77l84 115q4 6 11 16t9 13q-67 33 -67 119q0 73 52.5 124.5t127.5 51.5z" />
    <glyph glyph-name="uni0146" unicode="&#x146;" horiz-adv-x="1239" 
d="M918 1106q184 0 277.5 -122t55.5 -316l-129 -668h-325l116 606q20 101 -21 155t-126 54q-76 0 -135 -46t-84 -126l-125 -643h-326l209 1079h307l-18 -98q141 125 324 125zM580 -98q63 0 105 -36.5t42 -98.5q0 -52 -32.5 -105.5t-102.5 -140.5l-111 -135l-116 77l84 115
q4 6 11 16t9 13q-33 14 -51.5 45.5t-18.5 73.5q0 73 53.5 124.5t127.5 51.5z" />
    <glyph glyph-name="Ncaron" unicode="&#x147;" horiz-adv-x="1419" 
d="M1087 1552h-264l-215 385h269l104 -168l176 168h307zM1217 1423h323l-276 -1423h-269l-387 850l-164 -850h-325l276 1423h271l385 -856z" />
    <glyph glyph-name="ncaron" unicode="&#x148;" horiz-adv-x="1239" 
d="M944 1225h-264l-199 411h254l105 -204l182 204h291zM918 1106q184 0 277.5 -122t55.5 -316l-129 -668h-325l116 606q20 101 -21 155t-126 54q-76 0 -135 -46t-84 -126l-125 -643h-326l209 1079h307l-18 -98q141 125 324 125z" />
    <glyph glyph-name="napostrophe" unicode="&#x149;" horiz-adv-x="1501" 
d="M586 1571l-162 -524h-213l129 524h246zM1182 1106q184 0 278 -122t56 -316l-132 -668h-323l117 606q20 101 -22.5 155t-127.5 54t-146.5 -56t-78.5 -151l-119 -608h-324l209 1079h308l-19 -96q143 123 324 123z" />
    <glyph glyph-name="Eng" unicode="&#x14a;" horiz-adv-x="1419" 
d="M1217 1423h323l-276 -1423l-15 -76q-77 -395 -489 -395h-84l55 291h62q138 0 176 157l12 56l-373 817l-164 -850h-325l276 1423h271l385 -856z" />
    <glyph glyph-name="eng" unicode="&#x14b;" horiz-adv-x="1212" 
d="M920 1106q186 0 277.5 -122.5t53.5 -317.5l-116 -596q-39 -204 -187 -326.5t-334 -122.5h-49l56 279h20q61 0 108 45t60 121l104 538q20 102 -20 156.5t-127 54.5q-77 0 -137 -48.5t-82 -127.5l-125 -639h-326l209 1079h307l-18 -98q145 125 326 125z" />
    <glyph glyph-name="Omacron" unicode="&#x14c;" horiz-adv-x="1624" 
d="M666 1614l51 264h751l-51 -264h-751zM854 -27q-148 0 -274 50t-213.5 137.5t-137 210.5t-49.5 266q0 164 63.5 313.5t173 259.5t263.5 175t326 65q298 0 483.5 -181.5t185.5 -477.5q0 -169 -64.5 -321t-174.5 -260.5t-262 -172.5t-320 -64zM877 283q130 0 236 66.5
t165 178t59 242.5q0 168 -98 269.5t-260 101.5q-128 0 -234.5 -66t-166.5 -177t-60 -241q0 -169 98 -271.5t261 -102.5z" />
    <glyph glyph-name="omacron" unicode="&#x14d;" horiz-adv-x="1284" 
d="M498 1303l47 243h686l-47 -243h-686zM662 -27q-226 0 -372.5 133t-146.5 357q0 173 87.5 320.5t239.5 234t331 86.5q107 0 200.5 -32.5t164.5 -93.5t112 -154.5t41 -207.5q0 -170 -84 -317t-236 -236.5t-337 -89.5zM698 264q84 0 151.5 46.5t102.5 118.5t35 153
q0 105 -60 169t-161 64q-125 0 -208 -93t-83 -220q0 -106 60.5 -172t162.5 -66z" />
    <glyph glyph-name="Ohungarumlaut" unicode="&#x150;" horiz-adv-x="1624" 
d="M811 1507l-172 146l342 391l193 -164zM1292 1507l-170 146l344 391l193 -164zM854 -27q-148 0 -274 50t-213.5 137.5t-137 210.5t-49.5 266q0 164 63.5 313.5t173 259.5t263.5 175t326 65q298 0 483.5 -181.5t185.5 -477.5q0 -169 -64.5 -321t-174.5 -260.5t-262 -172.5
t-320 -64zM877 283q130 0 236 66.5t165 178t59 242.5q0 168 -98 269.5t-260 101.5q-128 0 -234.5 -66t-166.5 -177t-60 -241q0 -169 98 -271.5t261 -102.5z" />
    <glyph glyph-name="ohungarumlaut" unicode="&#x151;" horiz-adv-x="1284" 
d="M606 1163l-170 144l340 383l193 -166zM1085 1163l-170 144l340 383l193 -166zM662 -27q-226 0 -372.5 133t-146.5 357q0 173 87.5 320.5t239.5 234t331 86.5q107 0 200.5 -32.5t164.5 -93.5t112 -154.5t41 -207.5q0 -170 -84 -317t-236 -236.5t-337 -89.5zM698 264
q84 0 151.5 46.5t102.5 118.5t35 153q0 105 -60 169t-161 64q-125 0 -208 -93t-83 -220q0 -106 60.5 -172t162.5 -66z" />
    <glyph glyph-name="OE" unicode="&#x152;" horiz-adv-x="2240" 
d="M2376 1139h-621l-53 -275h547l-56 -282h-546l-56 -297h633l-57 -285h-959l19 92q-175 -119 -373 -119q-148 0 -274 50t-213.5 137.5t-137 210.5t-49.5 266q0 164 63.5 313.5t173 259.5t263.5 175t326 65q287 0 450 -174l29 147h948zM877 283q196 0 327 143t131 344
q0 168 -97 269.5t-259 101.5q-128 0 -234.5 -66t-166.5 -177t-60 -241q0 -169 98 -271.5t261 -102.5z" />
    <glyph glyph-name="oe" unicode="&#x153;" horiz-adv-x="2052" 
d="M1296 442q12 -99 74 -151.5t156 -52.5q144 0 235 129l211 -162q-199 -232 -483 -232q-121 0 -220.5 43t-166.5 121q-189 -164 -440 -164q-226 0 -372.5 133t-146.5 357q0 173 87.5 320.5t239.5 234t331 86.5q121 0 225.5 -41.5t175.5 -120.5q183 162 424 162
q107 0 197.5 -36.5t150.5 -98t93.5 -142.5t33.5 -170q0 -110 -41 -215h-764zM1323 647h485v6q0 98 -50.5 153.5t-145.5 55.5q-104 0 -178.5 -59.5t-110.5 -155.5zM698 264q84 0 151.5 46.5t102.5 118.5t35 153q0 105 -60 169t-161 64q-125 0 -208 -93t-83 -220
q0 -106 60.5 -172t162.5 -66z" />
    <glyph glyph-name="Racute" unicode="&#x154;" horiz-adv-x="1296" 
d="M1278 1716l-649 -180l-70 223l645 211zM1393 1038q0 -173 -122 -299.5t-337 -156.5l287 -582h-336l-264 573h-66l-111 -573h-325l276 1423h559q211 0 325 -104.5t114 -280.5zM838 803q107 0 167 50.5t60 131.5q0 72 -42 113t-122 41h-235l-66 -336h238z" />
    <glyph glyph-name="racute" unicode="&#x155;" horiz-adv-x="749" 
d="M993 1473l-563 -293l-115 190l555 326zM612 1079l-22 -114q144 141 323 141l-59 -305q-135 0 -213 -52.5t-104 -162.5l-115 -586h-326l209 1079h307z" />
    <glyph glyph-name="uni0156" unicode="&#x156;" horiz-adv-x="1296" 
d="M1393 1038q0 -173 -122 -299.5t-337 -156.5l287 -582h-336l-264 573h-66l-111 -573h-325l276 1423h559q211 0 325 -104.5t114 -280.5zM838 803q107 0 167 50.5t60 131.5q0 72 -42 113t-122 41h-235l-66 -336h238zM637 -98q63 0 105 -36.5t42 -98.5q0 -52 -32.5 -105.5
t-102.5 -140.5l-110 -135l-117 77l84 115q9 12 18 29q-67 33 -67 119q0 73 53 124.5t127 51.5z" />
    <glyph glyph-name="uni0157" unicode="&#x157;" horiz-adv-x="749" 
d="M590 965q144 141 323 141l-59 -305q-135 0 -213 -52.5t-104 -162.5l-115 -586h-326l209 1079h307zM219 -98q61 0 103.5 -36.5t42.5 -98.5q0 -52 -32.5 -106.5t-101.5 -139.5l-110 -135l-117 77l82 115q4 6 11 16t9 13q-67 33 -67 119q0 73 53 124.5t127 51.5z" />
    <glyph glyph-name="Rcaron" unicode="&#x158;" horiz-adv-x="1296" 
d="M1020 1552h-262l-217 385h270l102 -168l177 168h307zM954 1423q211 0 325 -104.5t114 -280.5q0 -173 -122 -299.5t-337 -156.5l287 -582h-336l-264 573h-66l-111 -573h-325l276 1423h559zM838 803q107 0 167 50.5t60 131.5q0 72 -42 113t-122 41h-235l-66 -336h238z" />
    <glyph glyph-name="rcaron" unicode="&#x159;" horiz-adv-x="749" 
d="M752 1225h-265l-200 411h254l106 -204l180 204h293zM612 1079l-22 -114q144 141 323 141l-59 -305q-135 0 -213 -52.5t-104 -162.5l-115 -586h-326l209 1079h307z" />
    <glyph glyph-name="Sacute" unicode="&#x15a;" horiz-adv-x="1222" 
d="M610 1538l-69 221l645 211l74 -254zM627 -27q-218 0 -354.5 97t-168.5 274l322 117q13 -95 81.5 -150t172.5 -55q89 0 140.5 40.5t51.5 109.5q0 50 -32.5 88t-84 62.5t-114 48.5t-124.5 54.5t-113.5 71t-84 108t-32.5 156.5q0 201 152 328t395 127q204 0 340 -93
t145 -239l-322 -112q-27 165 -192 165q-82 0 -131 -36.5t-49 -96.5q0 -45 32.5 -79.5t84 -58t114 -47.5t124.5 -56.5t113.5 -75.5t84 -114t32.5 -163q0 -211 -160.5 -341t-422.5 -130z" />
    <glyph glyph-name="sacute" unicode="&#x15b;" horiz-adv-x="1024" 
d="M553 1180l-115 190l555 326l123 -221zM526 -27q-189 0 -310 77.5t-138 211.5l280 98q17 -69 68.5 -106t128.5 -37q61 0 100 27t39 73q0 30 -20.5 53.5t-54 38t-76 31t-87 31.5t-87 39.5t-76 54.5t-54 77.5t-20.5 107.5q0 157 130 255.5t337 98.5q165 0 277 -66t131 -174
l-285 -102q-12 51 -47.5 77.5t-89.5 26.5q-55 0 -91 -24.5t-36 -63.5q0 -30 26.5 -53t68.5 -39.5t93 -33t101.5 -41t92.5 -56.5t68.5 -85.5t26.5 -123.5q0 -167 -138.5 -270t-357.5 -103z" />
    <glyph glyph-name="Scedilla" unicode="&#x15e;" horiz-adv-x="1222" 
d="M625 1038q0 -45 32.5 -79.5t84 -58t114 -47.5t124.5 -56.5t113.5 -75.5t84 -114t32.5 -163q0 -189 -130.5 -314t-352.5 -150l-37 -72q54 -19 86.5 -64.5t32.5 -103.5q0 -99 -83.5 -167.5t-209.5 -68.5q-85 0 -152.5 29.5t-99.5 75.5l125 125q30 -58 96 -58q42 0 68.5 23
t26.5 57q0 33 -19.5 53.5t-54.5 20.5h-19l-18 29l66 118q-180 20 -291 115t-140 252l322 117q13 -95 81.5 -150t172.5 -55q89 0 140.5 40.5t51.5 109.5q0 50 -32.5 88t-84 62.5t-114 48.5t-124.5 54.5t-113.5 71t-84 108t-32.5 156.5q0 201 152 328t395 127q204 0 340 -93
t145 -239l-322 -112q-27 165 -192 165q-82 0 -131 -36.5t-49 -96.5z" />
    <glyph glyph-name="scedilla" unicode="&#x15f;" horiz-adv-x="1024" 
d="M545 778q0 -30 26.5 -53t68.5 -39.5t93 -33t101.5 -41t92.5 -56.5t68.5 -85.5t26.5 -123.5q0 -146 -107 -243.5t-286 -122.5l-37 -72q54 -19 86.5 -64.5t32.5 -103.5q0 -99 -83.5 -167.5t-209.5 -68.5q-85 0 -152.5 29.5t-99.5 75.5l125 125q30 -58 96 -58q42 0 68 23
t26 57q0 33 -19.5 53.5t-53.5 20.5h-19l-18 29l63 121q-152 17 -246.5 91t-109.5 191l280 98q17 -69 68.5 -106t128.5 -37q61 0 100 27t39 73q0 30 -20.5 53.5t-54 38t-76 31t-87 31.5t-87 39.5t-76 54.5t-54 77.5t-20.5 107.5q0 157 130 255.5t337 98.5q165 0 277 -66
t131 -174l-285 -102q-12 51 -47.5 77.5t-89.5 26.5q-55 0 -91 -24.5t-36 -63.5z" />
    <glyph glyph-name="Scaron" unicode="&#x160;" horiz-adv-x="1222" 
d="M1010 1552h-265l-215 385h271l102 -168l176 168h307zM805 1171q-82 0 -131 -36.5t-49 -96.5q0 -45 32.5 -79.5t84 -58t114 -47.5t124.5 -56.5t113.5 -75.5t84 -114t32.5 -163q0 -211 -160.5 -341t-422.5 -130q-218 0 -354.5 97t-168.5 274l322 117q13 -95 81.5 -150
t172.5 -55q89 0 140.5 40.5t51.5 109.5q0 50 -32.5 88t-84 62.5t-114 48.5t-124.5 54.5t-113.5 71t-84 108t-32.5 156.5q0 201 152 328t395 127q204 0 340 -93t145 -239l-322 -112q-27 165 -192 165z" />
    <glyph glyph-name="scaron" unicode="&#x161;" horiz-adv-x="1024" 
d="M856 1227h-264l-201 409h254l105 -204l182 204h293zM672 866q-55 0 -91 -24.5t-36 -63.5q0 -30 26.5 -53t68.5 -39.5t93 -33t101.5 -41t92.5 -56.5t68.5 -85.5t26.5 -123.5q0 -167 -138.5 -270t-357.5 -103q-189 0 -310 77.5t-138 211.5l280 98q17 -69 68.5 -106
t128.5 -37q61 0 100 27t39 73q0 30 -20.5 53.5t-54 38t-76 31t-87 31.5t-87 39.5t-76 54.5t-54 77.5t-20.5 107.5q0 157 130 255.5t337 98.5q165 0 277 -66t131 -174l-285 -102q-12 51 -47.5 77.5t-89.5 26.5z" />
    <glyph glyph-name="uni0162" unicode="&#x162;" horiz-adv-x="1218" 
d="M754 0h-56l-49 -96q54 -17 86.5 -63t32.5 -103q0 -99 -83.5 -167.5t-209.5 -68.5q-85 0 -152.5 29.5t-99.5 75.5l125 123q31 -56 96 -56q42 0 68.5 23t26.5 57q0 33 -19.5 53.5t-54.5 20.5h-19l-18 29l76 143h-76l219 1133h-405l57 290h1139l-60 -290h-405z" />
    <glyph glyph-name="uni0163" unicode="&#x163;" horiz-adv-x="845" 
d="M676 801l-64 -330q-18 -92 18.5 -139t121.5 -47h86l-54 -285h-137l-39 -74q54 -19 86.5 -64.5t32.5 -103.5q0 -99 -84 -167t-211 -68q-84 0 -152 29.5t-100 76.5l127 123q28 -55 96 -55q41 0 68 22.5t27 55.5t-20.5 53t-55.5 20h-16l-21 29l80 148q-119 41 -166 146
t-18 261l69 369h-176l53 278h86q56 0 91 30.5t45 88.5l32 166h318l-58 -285h244l-53 -278h-256z" />
    <glyph glyph-name="Tcaron" unicode="&#x164;" horiz-adv-x="1218" 
d="M1016 1552h-264l-215 385h270l102 -168l176 168h308zM1438 1423l-60 -290h-405l-219 -1133h-326l219 1133h-405l57 290h1139z" />
    <glyph glyph-name="tcaron" unicode="&#x165;" horiz-adv-x="845" 
d="M852 1137l131 524h244l-162 -524h-213zM629 0q-205 0 -296 115.5t-52 316.5l69 369h-176l53 278h86q56 0 91 30.5t45 88.5l32 166h318l-58 -285h244l-53 -278h-256l-64 -330q-18 -92 18.5 -139t121.5 -47h86l-54 -285h-155z" />
    <glyph glyph-name="Tbar" unicode="&#x166;" horiz-adv-x="1236" 
d="M1389 1133h-406l-78 -410h205l-43 -225h-207l-96 -498h-328l96 498h-204l45 225h205l77 410h-405l57 290h1139z" />
    <glyph glyph-name="tbar" unicode="&#x167;" horiz-adv-x="854" 
d="M938 801h-256l-27 -135h207l-39 -226h-209q-7 -77 30.5 -116t113.5 -39h88l-55 -285h-156q-205 0 -296 115.5t-52 316.5l2 8h-137l38 226h142l26 135h-178l56 278h83q56 0 91 30.5t45 88.5l32 166h318l-55 -285h243z" />
    <glyph glyph-name="Utilde" unicode="&#x168;" horiz-adv-x="1384" 
d="M1118 1548q-47 0 -89 15.5t-67.5 34t-59 34t-66.5 15.5q-81 0 -109 -86l-205 94q37 110 117 184t190 74q59 0 108.5 -24.5t91.5 -49t83 -24.5q83 0 111 86l202 -95q-37 -112 -116 -185t-191 -73zM702 -27q-184 0 -307 80t-167.5 216.5t-10.5 308.5l162 845h328l-162 -845
q-27 -142 27 -219.5t173 -77.5q111 0 182.5 65.5t96.5 190.5l172 886h326l-172 -886q-52 -269 -222.5 -416.5t-425.5 -147.5z" />
    <glyph glyph-name="utilde" unicode="&#x169;" horiz-adv-x="1222" 
d="M733 1350q-72 0 -100 -86l-205 94q37 110 116 184t185 74q44 0 82 -15.5t61 -33.5t53.5 -33.5t61.5 -15.5q72 0 100 86l205 -95q-36 -110 -115 -184t-184 -74q-45 0 -84 15.5t-61.5 34t-53.5 34t-61 15.5zM981 1079h326l-209 -1079h-307l20 106q-143 -133 -326 -133
q-173 0 -265 123t-54 316l127 667h325l-116 -606q-19 -100 21.5 -154.5t119.5 -54.5q80 0 141 56t78 149z" />
    <glyph glyph-name="Umacron" unicode="&#x16a;" horiz-adv-x="1384" 
d="M582 1614l51 264h751l-51 -264h-751zM702 -27q-184 0 -307 80t-167.5 216.5t-10.5 308.5l162 845h328l-162 -845q-27 -142 27 -219.5t173 -77.5q111 0 182.5 65.5t96.5 190.5l172 886h326l-172 -886q-52 -269 -222.5 -416.5t-425.5 -147.5z" />
    <glyph glyph-name="umacron" unicode="&#x16b;" horiz-adv-x="1222" 
d="M1208 1548l-47 -243h-686l47 243h686zM981 1079h326l-209 -1079h-307l20 106q-143 -133 -326 -133q-173 0 -265 123t-54 316l127 667h325l-116 -606q-19 -100 21.5 -154.5t119.5 -54.5q80 0 141 56t78 149z" />
    <glyph glyph-name="Uring" unicode="&#x16e;" horiz-adv-x="1384" 
d="M950 1413q-112 0 -181 66.5t-69 171.5q0 123 94 211t226 88q112 0 181 -66.5t69 -171.5q0 -122 -94 -210.5t-226 -88.5zM973 1591q42 0 73 29.5t31 71.5q0 35 -23.5 57.5t-60.5 22.5q-43 0 -72.5 -29t-29.5 -70q0 -37 22.5 -59.5t59.5 -22.5zM702 -27q-184 0 -307 80
t-167.5 216.5t-10.5 308.5l162 845h328l-162 -845q-27 -142 27 -219.5t173 -77.5q111 0 182.5 65.5t96.5 190.5l172 886h326l-172 -886q-52 -269 -222.5 -416.5t-425.5 -147.5z" />
    <glyph glyph-name="uring" unicode="&#x16f;" horiz-adv-x="1222" 
d="M831 1159q-112 0 -180.5 66.5t-68.5 171.5q0 123 93.5 212t225.5 89q112 0 180 -66.5t68 -171.5q0 -123 -93 -212t-225 -89zM874 1520q-43 0 -72.5 -30t-29.5 -71q0 -37 22.5 -58.5t59.5 -21.5q42 0 73 28.5t31 70.5q0 37 -23.5 59.5t-60.5 22.5zM981 1079h326
l-209 -1079h-307l20 106q-143 -133 -326 -133q-173 0 -265 123t-54 316l127 667h325l-116 -606q-19 -100 21.5 -154.5t119.5 -54.5q80 0 141 56t78 149z" />
    <glyph glyph-name="Uhungarumlaut" unicode="&#x170;" horiz-adv-x="1384" 
d="M702 1507l-170 146l340 391l193 -164zM1186 1507l-170 146l342 391l192 -164zM702 -27q-184 0 -307 80t-167.5 216.5t-10.5 308.5l162 845h328l-162 -845q-27 -142 27 -219.5t173 -77.5q111 0 182.5 65.5t96.5 190.5l172 886h326l-172 -886q-52 -269 -222.5 -416.5
t-425.5 -147.5z" />
    <glyph glyph-name="uhungarumlaut" unicode="&#x171;" horiz-adv-x="1222" 
d="M924 1526l-363 -361l-170 144l340 383zM1042 1165l-172 144l340 383l193 -166zM862 469l119 610h326l-209 -1079h-307l20 106q-143 -133 -326 -133q-173 0 -265 123t-54 316l127 667h325l-116 -606q-19 -100 21.5 -154.5t119.5 -54.5q80 0 141 56t78 149z" />
    <glyph glyph-name="Uogonek" unicode="&#x172;" horiz-adv-x="1384" 
d="M1196 1423h326l-172 -886q-37 -192 -136 -324.5t-249 -192.5l-134 -110q-75 -61 -75 -117q0 -55 59 -55q36 0 74 33l82 -148q-86 -86 -236 -86q-102 0 -163.5 49.5t-61.5 137.5q0 130 149 251q-170 9 -282.5 91t-152.5 215t-7 297l162 845h328l-162 -845
q-27 -142 27 -219.5t173 -77.5q111 0 182.5 65.5t96.5 190.5z" />
    <glyph glyph-name="uogonek" unicode="&#x173;" horiz-adv-x="1222" 
d="M961 -115q-76 -62 -76 -116q0 -56 57 -56q36 0 74 33l82 -147q-86 -86 -234 -86q-102 0 -164.5 49.5t-62.5 136.5q0 158 215 297l6 4h-67l20 106q-143 -133 -326 -133q-173 0 -265 123t-54 316l127 667h325l-116 -606q-19 -100 21.5 -154.5t119.5 -54.5q80 0 141 56
t78 149l119 610h326l-209 -1079z" />
    <glyph glyph-name="Wcircumflex" unicode="&#x174;" horiz-adv-x="1898" 
d="M1251 1720l-176 -168h-305l375 385h264l215 -385h-268zM1792 1423h332l-592 -1423h-383l-29 963l-407 -963h-381l-41 1423h315l-10 -1036l426 1036h354l23 -1040z" />
    <glyph glyph-name="wcircumflex" unicode="&#x175;" horiz-adv-x="1677" 
d="M1067 1432l-182 -205h-291l367 411h264l200 -411h-251zM1503 1079h334l-477 -1079h-379l-29 705l-295 -705h-381l-63 1079h305l21 -760l301 760h340l30 -760z" />
    <glyph glyph-name="Ycircumflex" unicode="&#x176;" horiz-adv-x="1351" 
d="M956 1720l-176 -168h-307l377 385h264l215 -385h-270zM1602 1423l-670 -848l-111 -575h-327l112 582l-342 841h330l217 -557l403 557h388z" />
    <glyph glyph-name="ycircumflex" unicode="&#x177;" horiz-adv-x="1169" 
d="M815 1432l-180 -205h-293l369 411h264l201 -411h-254zM983 1079h360l-585 -1079l-201 -367h-321l213 367h-72l-168 1079h323l93 -760z" />
    <glyph glyph-name="Ydieresis" unicode="&#x178;" horiz-adv-x="1351" 
d="M666 1542q-80 0 -132.5 48.5t-52.5 131.5q0 95 69.5 160.5t166.5 65.5q83 0 132.5 -50.5t49.5 -130.5q0 -94 -69.5 -159.5t-163.5 -65.5zM1174 1542q-80 0 -132.5 48.5t-52.5 131.5q0 95 69.5 160.5t166.5 65.5q82 0 131 -51t49 -130q0 -94 -68.5 -159.5t-162.5 -65.5z
M1602 1423l-670 -848l-111 -575h-327l112 582l-342 841h330l217 -557l403 557h388z" />
    <glyph glyph-name="Zacute" unicode="&#x179;" horiz-adv-x="1212" 
d="M1253 1716l-647 -180l-71 223l647 211zM1389 1423l-39 -206l-781 -924h605l-52 -293h-1067l39 205l789 934h-594l57 284h1043z" />
    <glyph glyph-name="zacute" unicode="&#x17a;" horiz-adv-x="1028" 
d="M1079 1473l-565 -293l-115 190l557 326zM1139 1079l-49 -239l-551 -578h460l-51 -262h-897l45 227l561 590h-428l52 262h858z" />
    <glyph glyph-name="Zdotaccent" unicode="&#x17b;" horiz-adv-x="1212" 
d="M881 1542q-80 0 -133.5 50t-53.5 132q0 92 68.5 158t163.5 66q82 0 134 -52t52 -131q0 -93 -70 -158t-161 -65zM1389 1423l-39 -206l-781 -924h605l-52 -293h-1067l39 205l789 934h-594l57 284h1043z" />
    <glyph glyph-name="zdotaccent" unicode="&#x17c;" horiz-adv-x="1028" 
d="M723 1231q-82 0 -135 49t-53 127q0 92 69 159.5t166 67.5q82 0 135 -49t53 -127q0 -92 -69 -159.5t-166 -67.5zM1139 1079l-49 -239l-551 -578h460l-51 -262h-897l45 227l561 590h-428l52 262h858z" />
    <glyph glyph-name="Zcaron" unicode="&#x17d;" horiz-adv-x="1212" 
d="M1010 1552h-265l-215 385h271l102 -168l176 168h307zM1389 1423l-39 -206l-781 -924h605l-52 -293h-1067l39 205l789 934h-594l57 284h1043z" />
    <glyph glyph-name="zcaron" unicode="&#x17e;" horiz-adv-x="1028" 
d="M834 1225h-265l-198 411h254l104 -204l182 204h291zM229 817l52 262h858l-49 -239l-551 -578h460l-51 -262h-897l45 227l561 590h-428z" />
    <glyph glyph-name="uni01EA" unicode="&#x1ea;" horiz-adv-x="1624" 
d="M965 -102q-74 -60 -74 -117q0 -55 57 -55q37 0 74 32l82 -147q-86 -86 -234 -86q-102 0 -164.5 49.5t-62.5 136.5q0 141 168 264q-186 9 -330 96t-222.5 234.5t-78.5 331.5q0 164 63.5 313.5t173 259.5t263.5 175t326 65q298 0 483.5 -181.5t185.5 -477.5
q0 -277 -161 -491t-416 -290zM518 657q0 -169 98 -271.5t261 -102.5q130 0 236 66.5t165 178t59 242.5q0 168 -98 269.5t-260 101.5q-128 0 -234.5 -66t-166.5 -177t-60 -241z" />
    <glyph glyph-name="uni01EB" unicode="&#x1eb;" horiz-adv-x="1284" 
d="M750 -102q-74 -60 -74 -115q0 -57 57 -57q40 0 74 34l82 -149q-86 -86 -234 -86q-102 0 -164.5 49.5t-62.5 138.5q0 139 168 262q-202 21 -327.5 151t-125.5 337q0 173 87.5 320.5t239.5 234t331 86.5q107 0 200.5 -32.5t164.5 -93.5t112 -154.5t41 -207.5
q0 -203 -120 -371t-314 -235zM475 502q0 -106 60.5 -172t162.5 -66q84 0 151.5 46.5t102.5 118.5t35 153q0 105 -60 169t-161 64q-125 0 -208 -93t-83 -220z" />
    <glyph glyph-name="AEacute" unicode="&#x1fc;" horiz-adv-x="1955" 
d="M1888 1716l-649 -180l-70 223l646 211zM2046 1139h-621l-53 -275h547l-57 -282h-543l-57 -297h630l-55 -285h-958l53 274h-434l-176 -274h-357l905 1423h1233zM674 553h311l115 586h-51z" />
    <glyph glyph-name="aeacute" unicode="&#x1fd;" horiz-adv-x="2117" 
d="M1606 1475l-564 -293l-114 190l555 326zM1327 449q10 -104 73.5 -160t160.5 -56q149 0 243 129l205 -157q-199 -232 -485 -232q-230 0 -310 172l-28 -145h-301l20 104q-144 -131 -330 -131q-191 0 -311.5 133.5t-120.5 346.5q0 172 80.5 321t223 239.5t313.5 90.5
q211 0 311 -146l23 121h301l-19 -100q135 125 312 125q98 0 182.5 -36.5t142.5 -97.5t90.5 -142.5t32.5 -170.5q0 -51 -12 -111t-27 -97h-770zM1350 639h499v14q0 102 -51 157.5t-151 55.5q-109 0 -185 -63t-112 -164zM696 260q120 0 203.5 95.5t83.5 224.5q0 105 -62 171
t-161 66q-120 0 -203.5 -93.5t-83.5 -221.5q0 -105 62 -173.5t161 -68.5z" />
    <glyph glyph-name="Oslashacute" unicode="&#x1fe;" horiz-adv-x="1630" 
d="M1415 1716l-647 -180l-72 223l647 211zM1776 1303l-189 -166q86 -153 86 -346q0 -169 -64.5 -321t-174 -260.5t-261 -172.5t-319.5 -64q-251 0 -430 136l-193 -170l-151 180l190 168q-90 153 -90 350q0 131 40.5 254t115.5 223.5t175.5 176.5t228 117.5t264.5 41.5
q253 0 430 -135l190 170zM518 657q0 -70 19 -135l641 568q-85 51 -201 51q-128 0 -234 -66t-165.5 -177t-59.5 -241zM1337 770q0 70 -18 129l-639 -565q82 -51 197 -51q129 0 235 66.5t165.5 178t59.5 242.5z" />
    <glyph glyph-name="oslashacute" unicode="&#x1ff;" horiz-adv-x="1331" 
d="M1188 1473l-563 -293l-115 190l555 326zM1450 938l-154 -117q39 -92 39 -205q0 -170 -84 -317t-236 -236.5t-337 -89.5q-212 0 -352 115l-176 -131l-119 170l170 127q-41 93 -41 209q0 130 52 248.5t140 204.5t210 137t255 51q212 0 354 -117l162 121zM717 264
q124 0 205.5 96.5t81.5 221.5q0 105 -60.5 169t-161.5 64q-123 0 -205.5 -93t-82.5 -220q0 -106 60 -172t163 -66z" />
    <glyph glyph-name="uni0218" unicode="&#x218;" horiz-adv-x="1222" 
d="M625 1038q0 -45 32.5 -79.5t84 -58t114 -47.5t124.5 -56.5t113.5 -75.5t84 -114t32.5 -163q0 -211 -160.5 -341t-422.5 -130q-218 0 -354.5 97t-168.5 274l322 117q13 -95 81.5 -150t172.5 -55q89 0 140.5 40.5t51.5 109.5q0 50 -32.5 88t-84 62.5t-114 48.5t-124.5 54.5
t-113.5 71t-84 108t-32.5 156.5q0 201 152 328t395 127q204 0 340 -93t145 -239l-322 -112q-27 165 -192 165q-82 0 -131 -36.5t-49 -96.5zM600 -98q63 0 105.5 -36.5t42.5 -98.5q0 -36 -20.5 -79.5t-44 -75.5t-71.5 -91l-110 -135l-117 77l84 115q9 12 18 29
q-67 33 -67 119q0 73 53 124.5t127 51.5z" />
    <glyph glyph-name="uni0219" unicode="&#x219;" horiz-adv-x="1024" 
d="M545 778q0 -30 26.5 -53t68.5 -39.5t93 -33t101.5 -41t92.5 -56.5t68.5 -85.5t26.5 -123.5q0 -167 -138.5 -270t-357.5 -103q-189 0 -310 77.5t-138 211.5l280 98q17 -69 68.5 -106t128.5 -37q61 0 100 27t39 73q0 30 -20.5 53.5t-54 38t-76 31t-87 31.5t-87 39.5
t-76 54.5t-54 77.5t-20.5 107.5q0 157 130 255.5t337 98.5q165 0 277 -66t131 -174l-285 -102q-12 51 -47.5 77.5t-89.5 26.5q-55 0 -91 -24.5t-36 -63.5zM500 -98q61 0 103 -36.5t42 -98.5q0 -52 -33 -107.5t-102 -138.5l-109 -135l-118 77l84 115q4 6 11 16t9 13
q-31 15 -49.5 46.5t-18.5 72.5q0 73 53 124.5t128 51.5z" />
    <glyph glyph-name="uni021A" unicode="&#x21a;" horiz-adv-x="1218" 
d="M1438 1423l-60 -290h-405l-219 -1133h-326l219 1133h-405l57 290h1139zM565 -98q63 0 105.5 -36.5t42.5 -98.5q0 -52 -32.5 -105.5t-102.5 -140.5l-111 -135l-117 77l84 115q12 15 19 29q-68 33 -68 119q0 73 53 124.5t127 51.5z" />
    <glyph glyph-name="uni021B" unicode="&#x21b;" horiz-adv-x="845" 
d="M676 801l-64 -330q-18 -92 18.5 -139t121.5 -47h86l-54 -285h-155q-205 0 -296 115.5t-52 316.5l69 369h-176l53 278h86q56 0 91 30.5t45 88.5l32 166h318l-58 -285h244l-53 -278h-256zM514 -78q62 0 105 -37t43 -98q0 -37 -21 -80.5t-43.5 -74t-71.5 -91.5l-110 -137
l-117 78l84 117q6 10 18 26q-67 33 -67 119q0 73 53 125.5t127 52.5z" />
    <glyph glyph-name="uni0237" unicode="&#x237;" horiz-adv-x="528" 
d="M-150 -379l54 279h39q64 0 111.5 43t62.5 120l196 1016h326l-197 -1009q-43 -218 -184 -333.5t-344 -115.5h-64z" />
    <glyph glyph-name="circumflex" unicode="&#x2c6;" horiz-adv-x="813" 
d="M1128 1227h-251l-107 205l-182 -205h-291l369 411h262z" />
    <glyph glyph-name="caron" unicode="&#x2c7;" horiz-adv-x="964" 
d="M918 1638h290l-368 -411h-265l-198 411h254l104 -204z" />
    <glyph glyph-name="breve" unicode="&#x2d8;" horiz-adv-x="845" 
d="M713 1227q-111 0 -196 53t-124 148t-16 210h248q-15 -82 15.5 -127t92.5 -45q64 0 108 46t56 126h254q-37 -193 -144.5 -302t-293.5 -109z" />
    <glyph glyph-name="dotaccent" unicode="&#x2d9;" horiz-adv-x="456" 
d="M518 1233q-82 0 -135 49t-53 127q0 92 69 159.5t166 67.5q82 0 135.5 -49t53.5 -127q0 -92 -69.5 -159.5t-166.5 -67.5z" />
    <glyph glyph-name="ring" unicode="&#x2da;" horiz-adv-x="612" 
d="M582 1159q-112 0 -181 66.5t-69 171.5q0 123 93.5 212t225.5 89q112 0 181 -66.5t69 -171.5q0 -123 -93.5 -212t-225.5 -89zM604 1339q43 0 74 28.5t31 70.5q0 37 -23.5 59.5t-60.5 22.5q-43 0 -72 -30t-29 -71q0 -37 21.5 -58.5t58.5 -21.5z" />
    <glyph glyph-name="ogonek" unicode="&#x2db;" horiz-adv-x="622" 
d="M227 -485q-102 0 -163.5 49t-61.5 137q0 159 213 297l145 92l101 -88l-137 -115q-76 -62 -76 -116q0 -56 59 -56q36 0 74 33l82 -147q-86 -86 -236 -86z" />
    <glyph glyph-name="tilde" unicode="&#x2dc;" horiz-adv-x="991" 
d="M885 1251q-45 0 -83.5 15.5t-61 34t-53.5 34t-62 15.5q-73 0 -101 -86l-202 94q37 110 115 184t184 74q44 0 82.5 -15.5t61.5 -33.5t53.5 -33.5t60.5 -15.5q74 0 102 86l203 -95q-37 -111 -115 -184.5t-184 -73.5z" />
    <glyph glyph-name="hungarumlaut" unicode="&#x2dd;" horiz-adv-x="888" 
d="M481 1165l-170 144l340 383l193 -166zM961 1165l-170 144l339 383l193 -166z" />
    <glyph glyph-name="gravecomb" unicode="&#x300;" 
d="M76 1159l-529 316l140 217l518 -344z" />
    <glyph glyph-name="acutecomb" unicode="&#x301;" 
d="M-334 1182l-115 190l555 326l123 -223z" />
    <glyph glyph-name="uni0302" unicode="&#x302;" 
d="M176 1227h-252l-106 205l-183 -205h-290l368 411h262z" />
    <glyph glyph-name="tildecomb" unicode="&#x303;" 
d="M-70 1251q-45 0 -83.5 15.5t-61.5 34t-53.5 34t-61.5 15.5q-72 0 -100 -86l-203 94q37 110 115 184t184 74q44 0 82.5 -15.5t61.5 -33.5t53.5 -33.5t60.5 -15.5q75 0 103 86l202 -95q-37 -111 -115 -184.5t-184 -73.5z" />
    <glyph glyph-name="uni0304" unicode="&#x304;" 
d="M-494 1305l45 243h689l-47 -243h-687z" />
    <glyph glyph-name="uni0306" unicode="&#x306;" 
d="M-145 1227q-111 0 -196 53t-124 148t-16 210h248q-15 -82 15.5 -127t92.5 -45q64 0 108 46t56 126h254q-37 -193 -144.5 -302t-293.5 -109z" />
    <glyph glyph-name="uni0307" unicode="&#x307;" 
d="M-14 1233q-82 0 -135.5 49t-53.5 127q0 92 69.5 159.5t166.5 67.5q82 0 135 -49t53 -127q0 -92 -69 -159.5t-166 -67.5z" />
    <glyph glyph-name="uni0308" unicode="&#x308;" 
d="M-498 1237q-78 0 -126 48t-48 130q0 85 67.5 149t158.5 64q79 0 127.5 -48t48.5 -130q0 -84 -69 -148.5t-159 -64.5zM-6 1237q-79 0 -127.5 48t-48.5 130q0 85 68 149t157 64q79 0 127.5 -48t48.5 -130q0 -84 -67.5 -148.5t-157.5 -64.5z" />
    <glyph glyph-name="uni030A" unicode="&#x30a;" 
d="M-98 1159q-112 0 -181 66.5t-69 171.5q0 123 93.5 212t225.5 89q112 0 181 -66.5t69 -171.5q0 -123 -93.5 -212t-225.5 -89zM-76 1339q43 0 74 28.5t31 70.5q0 37 -23.5 59.5t-60.5 22.5q-43 0 -72 -30t-29 -71q0 -37 21.5 -58.5t58.5 -21.5z" />
    <glyph glyph-name="uni030B" unicode="&#x30b;" 
d="M-606 1165l-170 144l340 383l192 -166zM-125 1165l-170 144l340 383l191 -166z" />
    <glyph glyph-name="uni030C" unicode="&#x30c;" 
d="M-35 1638h291l-369 -411h-264l-198 411h253l105 -204z" />
    <glyph glyph-name="uni0326" unicode="&#x326;" 
d="M-252 -98q61 0 103.5 -36.5t42.5 -98.5q0 -52 -33 -107t-103 -139l-108 -135l-119 77l84 115q4 6 11 16t9 13q-67 33 -67 119q0 73 52.5 124.5t127.5 51.5z" />
    <glyph glyph-name="uni0327" unicode="&#x327;" 
d="M-229 -92q54 -19 86 -64.5t32 -103.5q0 -99 -84.5 -167.5t-210.5 -68.5q-84 0 -151.5 29.5t-99.5 75.5l127 125q30 -58 96 -58q41 0 66.5 23t25.5 57q0 33 -19.5 53.5t-54.5 20.5h-18l-19 29l97 178h194z" />
    <glyph glyph-name="uni0328" unicode="&#x328;" 
d="M-375 -485q-102 0 -163.5 49t-61.5 137q0 159 213 297l145 92l101 -88l-138 -115q-75 -61 -75 -116q0 -56 59 -56q36 0 74 33l82 -147q-86 -86 -236 -86z" />
    <glyph glyph-name="uni0335" unicode="&#x335;" 
d="M-711 463l43 225h740l-43 -225h-740z" />
    <glyph glyph-name="uni0336" unicode="&#x336;" 
d="M-1350 543l50 252h1392l-51 -252h-1391z" />
    <glyph glyph-name="uni0337" unicode="&#x337;" 
d="M-657 356l-99 197l731 371l101 -197z" />
    <glyph glyph-name="uni0338" unicode="&#x338;" 
d="M-332 879l344 260l115 -172l-338 -254zM-848 231l-323 -245l-119 170l323 243z" />
    <glyph glyph-name="Wgrave" unicode="&#x1e80;" horiz-adv-x="1898" 
d="M1599 1749l-81 -219l-625 196l86 252zM1792 1423h332l-592 -1423h-383l-29 963l-407 -963h-381l-41 1423h315l-10 -1036l426 1036h354l23 -1040z" />
    <glyph glyph-name="wgrave" unicode="&#x1e81;" horiz-adv-x="1677" 
d="M1391 1348l-129 -189l-529 316l139 217zM1503 1079h334l-477 -1079h-379l-29 705l-295 -705h-381l-63 1079h305l21 -760l301 760h340l30 -760z" />
    <glyph glyph-name="Wacute" unicode="&#x1e82;" horiz-adv-x="1898" 
d="M1561 1716l-648 -180l-71 223l647 211zM1792 1423h332l-592 -1423h-383l-29 963l-407 -963h-381l-41 1423h315l-10 -1036l426 1036h354l23 -1040z" />
    <glyph glyph-name="wacute" unicode="&#x1e83;" horiz-adv-x="1677" 
d="M1366 1475l-565 -293l-115 190l555 326zM1503 1079h334l-477 -1079h-379l-29 705l-295 -705h-381l-63 1079h305l21 -760l301 760h340l30 -760z" />
    <glyph glyph-name="Wdieresis" unicode="&#x1e84;" horiz-adv-x="1898" 
d="M969 1542q-79 0 -131 48.5t-52 131.5q0 95 69 160.5t165 65.5q83 0 132.5 -50.5t49.5 -130.5q0 -94 -69 -159.5t-164 -65.5zM1477 1542q-80 0 -131.5 48.5t-51.5 131.5q0 95 68.5 160.5t165.5 65.5q83 0 132.5 -50.5t49.5 -130.5q0 -94 -69 -159.5t-164 -65.5zM1792 1423
h332l-592 -1423h-383l-29 963l-407 -963h-381l-41 1423h315l-10 -1036l426 1036h354l23 -1040z" />
    <glyph glyph-name="wdieresis" unicode="&#x1e85;" horiz-adv-x="1677" 
d="M801 1237q-79 0 -127.5 48t-48.5 130q0 85 67.5 149t157.5 64q79 0 127.5 -48t48.5 -130q0 -84 -68 -148.5t-157 -64.5zM1290 1237q-79 0 -127.5 48t-48.5 130q0 85 68 149t159 64q78 0 126.5 -48t48.5 -130q0 -84 -68 -148.5t-158 -64.5zM1503 1079h334l-477 -1079h-379
l-29 705l-295 -705h-381l-63 1079h305l21 -760l301 760h340l30 -760z" />
    <glyph glyph-name="uni1E9E" unicode="&#x1e9e;" horiz-adv-x="1312" 
d="M1104 768q123 -37 184 -137.5t39 -237.5q-31 -191 -178.5 -302t-362.5 -111q-204 0 -260 106l142 240q19 -40 55 -62t80 -22q86 0 140.5 49t62.5 131q10 79 -37.5 123.5t-130.5 44.5h-72l37 184l276 309q-57 80 -184 80q-114 0 -187.5 -62t-95.5 -171l-180 -930h-326
l181 930q30 156 122 273t229.5 179t301.5 62q207 0 328.5 -89t148.5 -245z" />
    <glyph glyph-name="Ygrave" unicode="&#x1ef2;" horiz-adv-x="1351" 
d="M1317 1749l-82 -219l-625 196l88 252zM1602 1423l-670 -848l-111 -575h-327l112 582l-342 841h330l217 -557l403 557h388z" />
    <glyph glyph-name="ygrave" unicode="&#x1ef3;" horiz-adv-x="1169" 
d="M1139 1348l-129 -189l-529 316l140 217zM983 1079h360l-585 -1079l-201 -367h-321l213 367h-72l-168 1079h323l93 -760z" />
    <glyph glyph-name="uni1EF8" unicode="&#x1ef8;" horiz-adv-x="1351" 
d="M786 1647q-81 0 -106 -86l-205 94q37 111 116.5 184.5t190.5 73.5q47 0 88.5 -15.5t67 -33.5t59.5 -33.5t68 -15.5q83 0 111 86l202 -95q-37 -112 -116 -185t-191 -73q-47 0 -89.5 15.5t-68 34t-59.5 34t-68 15.5zM1602 1423l-670 -848l-111 -575h-327l112 582l-342 841
h330l217 -557l403 557h388z" />
    <glyph glyph-name="uni1EF9" unicode="&#x1ef9;" horiz-adv-x="1169" 
d="M682 1350q-75 0 -100 -86l-205 94q37 110 115 184t184 74q44 0 82.5 -15.5t61.5 -33.5t53.5 -33.5t60.5 -15.5q74 0 102 86l203 -95q-37 -111 -115 -184.5t-184 -73.5q-45 0 -83.5 15.5t-61 34t-53 34t-60.5 15.5zM983 1079h360l-585 -1079l-201 -367h-321l213 367h-72
l-168 1079h323l93 -760z" />
    <glyph glyph-name="endash" unicode="&#x2013;" horiz-adv-x="1009" 
d="M168 371l51 262h813l-51 -262h-813z" />
    <glyph glyph-name="emdash" unicode="&#x2014;" horiz-adv-x="1501" 
d="M168 371l51 264h1305l-51 -264h-1305z" />
    <glyph glyph-name="quoteleft" unicode="&#x2018;" horiz-adv-x="468" 
d="M500 1184q47 -12 76.5 -51.5t29.5 -96.5q0 -84 -61 -140t-142 -56q-71 0 -115 44.5t-44 110.5q0 53 20 99t68 116l170 250h180z" />
    <glyph glyph-name="quoteright" unicode="&#x2019;" horiz-adv-x="471" 
d="M514 1479q70 0 115 -44.5t45 -109.5q0 -53 -20 -99t-68 -116l-170 -250h-178l180 275q-48 14 -77.5 53t-29.5 96q0 82 62 138.5t141 56.5z" />
    <glyph glyph-name="quotesinglbase" unicode="&#x201a;" horiz-adv-x="473" 
d="M287 326q71 0 115 -45t44 -111q0 -52 -20.5 -99t-67.5 -116l-170 -248h-178l180 275q-47 12 -76.5 51t-29.5 96q0 84 62 140.5t141 56.5z" />
    <glyph glyph-name="quotedblleft" unicode="&#x201c;" horiz-adv-x="884" 
d="M500 1184q47 -12 76.5 -51.5t29.5 -96.5q0 -84 -61 -140t-142 -56q-71 0 -115 44.5t-44 110.5q0 53 20 99t68 116l170 250h180zM918 1184q46 -14 75 -53t29 -95q0 -84 -61 -140t-140 -56q-72 0 -117 44.5t-45 110.5q0 53 20.5 98.5t68.5 116.5l172 250h178z" />
    <glyph glyph-name="quotedblright" unicode="&#x201d;" horiz-adv-x="888" 
d="M514 1479q70 0 115 -44.5t45 -109.5q0 -53 -20 -99t-68 -116l-170 -250h-178l180 275q-48 14 -77.5 53t-29.5 96q0 82 62 138.5t141 56.5zM930 1479q70 0 115 -44.5t45 -109.5q0 -53 -20.5 -98.5t-68.5 -116.5l-170 -250h-178l181 275q-47 14 -76 53t-29 96
q0 82 61 138.5t140 56.5z" />
    <glyph glyph-name="quotedblbase" unicode="&#x201e;" horiz-adv-x="888" 
d="M287 326q71 0 115 -45t44 -111q0 -52 -20.5 -99t-67.5 -116l-170 -248h-178l180 275q-47 12 -76.5 51t-29.5 96q0 84 62 140.5t141 56.5zM702 326q71 0 115.5 -45t44.5 -111q0 -52 -20.5 -99t-67.5 -116l-170 -248h-178l180 275q-47 12 -75.5 51t-28.5 96
q0 84 60.5 140.5t139.5 56.5z" />
    <glyph glyph-name="dagger" unicode="&#x2020;" horiz-adv-x="780" 
d="M950 1262l-45 -224h-198l-93 -479h-241l94 479h-199l45 224h197l47 235h240l-45 -235h198z" />
    <glyph glyph-name="daggerdbl" unicode="&#x2021;" horiz-adv-x="829" 
d="M946 1114h-198l-35 -172h200l-45 -225h-198l-31 -158h-242l31 158h-195l43 225h197l33 172h-197l43 225h199l31 158h239l-30 -158h200z" />
    <glyph glyph-name="bullet" unicode="&#x2022;" horiz-adv-x="804" 
d="M500 401q-117 0 -189.5 70.5t-72.5 185.5q0 131 96 231.5t237 100.5q116 0 188 -71t72 -185q0 -131 -96.5 -231.5t-234.5 -100.5z" />
    <glyph glyph-name="ellipsis" unicode="&#x2026;" horiz-adv-x="1349" 
d="M244 -20q-71 0 -115.5 43t-44.5 112q0 82 58.5 143.5t144.5 61.5q73 0 116 -44t43 -112q0 -81 -58.5 -142.5t-143.5 -61.5zM680 -20q-70 0 -114 43t-44 112q0 81 58.5 143t142.5 62q75 0 118.5 -44t43.5 -112q0 -81 -59.5 -142.5t-145.5 -61.5zM1118 -20q-71 0 -115.5 43
t-44.5 112q0 81 59 143t144 62q73 0 116.5 -44t43.5 -112q0 -82 -58.5 -143t-144.5 -61z" />
    <glyph glyph-name="perthousand" unicode="&#x2030;" horiz-adv-x="2226" 
d="M553 776q-129 0 -213 83t-84 212q0 148 108.5 259.5t260.5 111.5q127 0 211 -80.5t84 -204.5q0 -97 -46.5 -184t-132 -142t-188.5 -55zM240 0l1065 1423l249 2l-1069 -1423zM571 979q59 0 97.5 45.5t38.5 103.5q0 49 -28.5 80t-74.5 31q-57 0 -96 -44.5t-39 -104.5
q0 -48 28.5 -79.5t73.5 -31.5zM1174 -18q-128 0 -211.5 83.5t-83.5 210.5q0 149 108 260t260 111q127 0 211 -80.5t84 -204.5q0 -95 -46.5 -182t-132.5 -142.5t-189 -55.5zM1878 -18q-128 0 -212.5 83.5t-84.5 210.5q0 149 109.5 260t261.5 111q125 0 209 -80.5t84 -204.5
q0 -95 -46.5 -182t-132 -142.5t-188.5 -55.5zM1194 184q58 0 96.5 47t38.5 105q0 48 -28.5 78t-73.5 30q-57 0 -96 -44t-39 -103q0 -50 28.5 -81.5t73.5 -31.5zM1896 184q59 0 97.5 46.5t38.5 105.5q0 47 -28.5 77.5t-74.5 30.5q-57 0 -95 -44t-38 -103q0 -50 27.5 -81.5
t72.5 -31.5z" />
    <glyph glyph-name="guilsinglleft" unicode="&#x2039;" horiz-adv-x="657" 
d="M743 848l-317 -371l156 -332h-279l-164 353l303 350h301z" />
    <glyph glyph-name="guilsinglright" unicode="&#x203a;" horiz-adv-x="657" 
d="M543 848l166 -350l-303 -353h-304l320 373l-158 330h279z" />
    <glyph glyph-name="fraction" unicode="&#x2044;" horiz-adv-x="833" 
d="M-35 0l946 1423h236l-950 -1423h-232z" />
    <glyph glyph-name="uni2074" unicode="&#x2074;" horiz-adv-x="669" 
d="M821 1423l-86 -436h62l-27 -145h-61l-27 -131h-203l25 131h-299l31 153l382 428h203zM537 987l38 205l-182 -205h144z" />
    <glyph glyph-name="Euro" unicode="&#x20ac;" horiz-adv-x="1542" 
d="M956 283q231 0 332 190l268 -119q-86 -180 -252.5 -280.5t-379.5 -100.5q-243 0 -405 124t-208 337h-213l60 207h139q0 35 6 72h-121l62 211h121q93 208 283 334t429 126q224 0 388 -117.5t192 -293.5l-307 -119q-25 104 -105 162.5t-198 58.5q-103 0 -186 -39.5
t-138 -111.5h338l-62 -211h-362q-6 -69 -6 -72h344l-62 -207h-243q73 -151 286 -151z" />
    <glyph glyph-name="trademark" unicode="&#x2122;" horiz-adv-x="1327" 
d="M758 1208h-156l-82 -420h-166l82 420h-155l30 150h475zM1450 1358l-68 -570h-157l35 299l-136 -284h-139l-24 289l-82 -304h-158l156 570h196l27 -326l153 326h197z" />
    <glyph glyph-name="minus" unicode="&#x2212;" horiz-adv-x="956" 
d="M158 541l53 272h848l-53 -272h-848z" />
    <glyph glyph-name="approxequal" unicode="&#x2248;" horiz-adv-x="1077" 
d="M883 690q-59 0 -111.5 16.5t-84.5 37t-75.5 37t-87.5 16.5q-89 0 -155 -80l-127 190q120 152 286 152q60 0 112.5 -16.5t85 -37t76 -37t87.5 -16.5q86 0 155 80l127 -188q-61 -77 -130 -115.5t-158 -38.5zM791 223q-59 0 -111.5 16.5t-84.5 36t-75.5 36t-87.5 16.5
q-90 0 -156 -80l-126 190q120 152 286 152q60 0 112.5 -16.5t85 -36t76 -36t87.5 -16.5q88 0 155 78l127 -188q-118 -152 -288 -152z" />
    <glyph glyph-name="notequal" unicode="&#x2260;" horiz-adv-x="958" 
d="M1044 741h-243l-99 -202h304l-54 -273h-379l-77 -162h-306l78 162h-164l54 273h241l97 202h-297l53 273h375l78 162h303l-78 -162h168z" />
    <glyph glyph-name="uniF8FF" unicode="&#xf8ff;" horiz-adv-x="4724" 
d="M1149 408q-95 0 -136.5 40t-41.5 130v466h203q0 -62 -40 -122t-98 -86l2 -9q58 35 119 35h105v-162h-86v-98q0 -35 36 -35q28 0 50 15v-154q-36 -20 -113 -20zM1303 418v626h200q0 -67 -47 -122t-115 -70l5 -6q84 16 143 16h16v-444h-202zM2808 408q-95 0 -137.5 40.5
t-42.5 129.5v466h202q0 -62 -39 -122t-98 -86l4 -9q58 35 119 35h102v-162h-86v-98q0 -35 37 -35q27 0 49 15v-154q-36 -20 -110 -20zM205 418v624h203v-624h-203zM584 408q-66 0 -105 34t-39 90q0 60 41 98t111 38q92 0 135 -43h4v71q0 24 -12 38t-35 14q-47 0 -47 -60
l-184 29q37 160 249 160q110 0 172 -50t62 -135v-274h-201v45h-6q-14 -20 -51.5 -37.5t-93.5 -17.5zM1548 418v444h199v-133h6q17 143 145 143q70 0 110 -46t40 -134v-274h-205v264q0 55 -39 55q-22 0 -32 -13t-21 -52v-254h-203zM2337 408q-123 0 -190.5 63.5t-67.5 167.5
t69 168.5t189 64.5q122 0 190 -64.5t68 -168.5q0 -103 -67.5 -167t-190.5 -64zM3463 270v592h203v-133h6q21 143 150 143q170 0 170 -233q0 -115 -51.5 -173t-125.5 -58q-105 0 -141 88h-6v-226h-205zM4274 408q-120 0 -187 63.5t-67 167.5q0 103 70 168t190 65
q107 0 173.5 -64.5t66.5 -158.5v-18h-307q0 -39 18.5 -66.5t50.5 -27.5q55 0 62 69l168 -16q-18 -95 -83 -138.5t-155 -43.5zM3015 262v135h133q115 0 137 25l-2 6h-139q-83 0 -107 80l-110 354h204q6 -37 20 -110t24 -134t14 -110h4q13 125 61 354h203l-145 -424
q-63 -176 -217 -176h-80zM4213 655h12q62 0 87.5 12t25.5 38q0 45 -49 45q-34 0 -55 -26t-21 -69zM3738 506q31 0 46 27.5t15 89.5q0 66 -12 95.5t-43 29.5q-46 0 -62 -68v-148q21 -26 56 -26zM2337 535q59 0 59 104q0 106 -59 106q-58 0 -58 -106q0 -104 58 -104zM686 469
q30 0 45 23v104q-10 16 -39 16q-25 0 -40 -19t-15 -52q0 -72 49 -72z" />
    <glyph glyph-name="uni00A40301" horiz-adv-x="720" 
d="M506 1536l-72 223l647 211l72 -254zM41 0l59 291h76q70 0 116 41t60 114l189 977h325l-198 -1026q-78 -397 -490 -397h-137z" />
    <glyph glyph-name="Q.ss01" horiz-adv-x="1585" 
d="M1675 793q0 -147 -60.5 -276.5t-168.5 -225.5h178l-57 -291h-695q-314 0 -503 176t-189 463q0 163 63.5 312t173 259t263.5 175t326 65q298 0 483.5 -181.5t185.5 -475.5zM518 659q0 -168 98.5 -270t260.5 -102q130 0 236 66.5t165 177.5t59 241q0 166 -98 267.5
t-260 101.5q-128 0 -234.5 -66t-166.5 -176.5t-60 -239.5z" />
    <glyph glyph-name="i.loclTRK" horiz-adv-x="538" 
d="M512 1231q-82 0 -135 49t-53 127q0 92 69 160.5t166 68.5q82 0 135.5 -50t53.5 -128q0 -90 -69.5 -158.5t-166.5 -68.5zM96 0l209 1079h326l-209 -1079h-326z" />
    <glyph glyph-name="uni006A0301" horiz-adv-x="544" 
d="M336 1180l-115 190l555 326l123 -221zM-150 -379l54 279h39q64 0 111.5 43t62.5 120l196 1016h326l-197 -1009q-43 -218 -184 -333.5t-344 -115.5h-64z" />
    <glyph glyph-name="g.ss01" horiz-adv-x="1177" 
d="M1350 1079l-56 -278h-157q8 -36 8 -84q0 -118 -54 -222t-147 -178q146 -92 146 -276q0 -134 -76 -233.5t-205.5 -150t-294.5 -50.5q-215 0 -359.5 87.5t-168.5 223.5l317 113q14 -73 73 -115.5t152 -42.5q102 0 166 49.5t64 122.5q0 66 -46.5 108t-133.5 42
q-192 0 -303 106.5t-111 288.5q0 139 78 258.5t206 188.5t273 69q88 0 174 -27h455zM479 627q0 -74 41.5 -120t114.5 -46q89 0 149 62.5t60 150.5q0 73 -42.5 119.5t-115.5 46.5q-89 0 -148 -61.5t-59 -151.5z" />
    <glyph glyph-name="gbreve.ss01" horiz-adv-x="1206" 
d="M793 1227q-170 0 -269.5 118.5t-66.5 292.5h250q-15 -82 15 -127t91 -45q66 0 110 46t56 126h252q-36 -192 -143 -301.5t-295 -109.5zM1350 1079l-56 -278h-157q8 -36 8 -84q0 -118 -54 -222t-147 -178q146 -92 146 -276q0 -134 -76 -233.5t-205.5 -150t-294.5 -50.5
q-215 0 -359.5 87.5t-168.5 223.5l317 113q14 -73 73 -115.5t152 -42.5q102 0 166 49.5t64 122.5q0 66 -46.5 108t-133.5 42q-192 0 -303 106.5t-111 288.5q0 139 78 258.5t206 188.5t273 69q88 0 174 -27h455zM479 627q0 -74 41.5 -120t114.5 -46q89 0 149 62.5t60 150.5
q0 73 -42.5 119.5t-115.5 46.5q-89 0 -148 -61.5t-59 -151.5z" />
    <glyph glyph-name="uni0123.ss01" horiz-adv-x="1206" 
d="M756 1206q-61 0 -103.5 37t-42.5 98q0 53 32.5 107.5t102.5 138.5l109 137l119 -77l-84 -117q-15 -18 -19 -27q31 -15 49.5 -46.5t18.5 -72.5q0 -73 -53.5 -125.5t-128.5 -52.5zM1350 1079l-56 -278h-157q8 -36 8 -84q0 -118 -54 -222t-147 -178q146 -92 146 -276
q0 -134 -76 -233.5t-205.5 -150t-294.5 -50.5q-215 0 -359.5 87.5t-168.5 223.5l317 113q14 -73 73 -115.5t152 -42.5q102 0 166 49.5t64 122.5q0 66 -46.5 108t-133.5 42q-192 0 -303 106.5t-111 288.5q0 139 78 258.5t206 188.5t273 69q88 0 174 -27h455zM479 627
q0 -74 41.5 -120t114.5 -46q89 0 149 62.5t60 150.5q0 73 -42.5 119.5t-115.5 46.5q-89 0 -148 -61.5t-59 -151.5z" />
    <glyph glyph-name="gdotaccent.ss01" horiz-adv-x="1206" 
d="M791 1233q-82 0 -135.5 49t-53.5 127q0 92 69.5 159.5t166.5 67.5q82 0 135 -49t53 -127q0 -92 -69 -159.5t-166 -67.5zM1350 1079l-56 -278h-157q8 -36 8 -84q0 -118 -54 -222t-147 -178q146 -92 146 -276q0 -134 -76 -233.5t-205.5 -150t-294.5 -50.5
q-215 0 -359.5 87.5t-168.5 223.5l317 113q14 -73 73 -115.5t152 -42.5q102 0 166 49.5t64 122.5q0 66 -46.5 108t-133.5 42q-192 0 -303 106.5t-111 288.5q0 139 78 258.5t206 188.5t273 69q88 0 174 -27h455zM479 627q0 -74 41.5 -120t114.5 -46q89 0 149 62.5t60 150.5
q0 73 -42.5 119.5t-115.5 46.5q-89 0 -148 -61.5t-59 -151.5z" />
    <glyph glyph-name="t.ss01" horiz-adv-x="802" 
d="M236 0l153 801h-217l55 278h125q116 0 137 119l33 166h316l-58 -285h205l-55 -278h-215l-154 -801h-325z" />
    <glyph glyph-name="tbar.ss01" horiz-adv-x="890" 
d="M965 801h-213l-35 -178h219l-43 -224h-219l-78 -399h-324l76 399h-194l43 224h194l35 178h-219l55 278h127q114 0 135 119l33 166h315l-55 -285h203z" />
    <glyph glyph-name="tcaron.ss01" horiz-adv-x="825" 
d="M895 1133l129 522h244l-162 -522h-211zM236 0l153 801h-217l55 278h125q116 0 137 119l33 166h316l-58 -285h205l-55 -278h-215l-154 -801h-325z" />
    <glyph glyph-name="uni0163.ss01" horiz-adv-x="825" 
d="M780 1079h205l-55 -278h-215l-154 -801h-59l-56 -104q54 -19 86.5 -64.5t32.5 -103.5q0 -99 -84 -167.5t-209 -68.5q-85 0 -153 30t-101 77l127 122q29 -57 97 -57q41 0 67.5 23t26.5 57q0 33 -20.5 53.5t-53.5 20.5h-18l-21 28l84 154h-71l153 801h-217l55 278h125
q116 0 137 119l33 166h316z" />
    <glyph glyph-name="uni021B.ss01" horiz-adv-x="825" 
d="M780 1079h205l-55 -278h-215l-154 -801h-325l153 801h-217l55 278h125q116 0 137 119l33 166h316zM369 -109q62 0 104.5 -37t42.5 -98q0 -53 -32.5 -106.5t-102.5 -138.5l-111 -138l-116 78l84 117q13 17 18 26q-31 15 -49.5 46.5t-18.5 72.5q0 73 53.5 125.5t127.5 52.5
z" />
    <glyph glyph-name="u.ss01" horiz-adv-x="1183" 
d="M612 -27q-245 0 -362.5 138.5t-71.5 375.5l117 592h323l-116 -606q-19 -99 21 -155t128 -56q82 0 135.5 48t67.5 124l127 645h326l-125 -633q-42 -220 -189 -346.5t-381 -126.5z" />
    <glyph glyph-name="uacute.ss01" horiz-adv-x="1208" 
d="M633 1182l-115 190l555 326l123 -223zM612 -27q-245 0 -362.5 138.5t-71.5 375.5l117 592h323l-116 -606q-19 -99 21 -155t128 -56q82 0 135.5 48t67.5 124l127 645h326l-125 -633q-42 -220 -189 -346.5t-381 -126.5z" />
    <glyph glyph-name="ucircumflex.ss01" horiz-adv-x="1208" 
d="M879 1432l-181 -205h-292l368 411h264l201 -411h-254zM981 1079h326l-125 -633q-42 -220 -189 -346.5t-381 -126.5q-245 0 -362.5 138.5t-71.5 375.5l117 592h323l-116 -606q-19 -99 21 -155t128 -56q82 0 135.5 48t67.5 124z" />
    <glyph glyph-name="udieresis.ss01" horiz-adv-x="1208" 
d="M588 1237q-79 0 -127.5 48t-48.5 130q0 85 68 149t157 64q79 0 127.5 -48t48.5 -130q0 -84 -67.5 -148.5t-157.5 -64.5zM1077 1237q-78 0 -127 48t-49 130q0 85 68 149t159 64q78 0 126.5 -48t48.5 -130q0 -84 -68 -148.5t-158 -64.5zM612 -27q-245 0 -362.5 138.5
t-71.5 375.5l117 592h323l-116 -606q-19 -99 21 -155t128 -56q82 0 135.5 48t67.5 124l127 645h326l-125 -633q-42 -220 -189 -346.5t-381 -126.5z" />
    <glyph glyph-name="ugrave.ss01" horiz-adv-x="1208" 
d="M1024 1159l-528 316l139 217l518 -344zM612 -27q-245 0 -362.5 138.5t-71.5 375.5l117 592h323l-116 -606q-19 -99 21 -155t128 -56q82 0 135.5 48t67.5 124l127 645h326l-125 -633q-42 -220 -189 -346.5t-381 -126.5z" />
    <glyph glyph-name="uhungarumlaut.ss01" horiz-adv-x="1208" 
d="M561 1165l-170 144l340 383l193 -166zM1040 1165l-170 144l340 383l193 -166zM612 -27q-245 0 -362.5 138.5t-71.5 375.5l117 592h323l-116 -606q-19 -99 21 -155t128 -56q82 0 135.5 48t67.5 124l127 645h326l-125 -633q-42 -220 -189 -346.5t-381 -126.5z" />
    <glyph glyph-name="umacron.ss01" horiz-adv-x="1208" 
d="M485 1305l47 243h687l-48 -243h-686zM612 -27q-245 0 -362.5 138.5t-71.5 375.5l117 592h323l-116 -606q-19 -99 21 -155t128 -56q82 0 135.5 48t67.5 124l127 645h326l-125 -633q-42 -220 -189 -346.5t-381 -126.5z" />
    <glyph glyph-name="uogonek.ss01" horiz-adv-x="1208" 
d="M981 1079h326l-125 -633q-33 -171 -130.5 -287.5t-252.5 -160.5l-135 -113q-76 -62 -76 -116q0 -56 59 -56q36 0 74 33l82 -147q-86 -86 -236 -86q-102 0 -163.5 49t-61.5 137q0 151 186 278q-204 25 -297.5 159.5t-52.5 350.5l117 592h323l-116 -606q-19 -99 21 -155
t128 -56q82 0 135.5 48t67.5 124z" />
    <glyph glyph-name="uring.ss01" horiz-adv-x="1208" 
d="M811 1159q-112 0 -181 66.5t-69 171.5q0 123 94 212t226 89q112 0 180.5 -66.5t68.5 -171.5q0 -123 -93.5 -212t-225.5 -89zM834 1339q42 0 73 28.5t31 70.5q0 37 -23.5 59.5t-60.5 22.5q-43 0 -72.5 -30t-29.5 -71q0 -37 22.5 -58.5t59.5 -21.5zM612 -27
q-245 0 -362.5 138.5t-71.5 375.5l117 592h323l-116 -606q-19 -99 21 -155t128 -56q82 0 135.5 48t67.5 124l127 645h326l-125 -633q-42 -220 -189 -346.5t-381 -126.5z" />
    <glyph glyph-name="utilde.ss01" horiz-adv-x="1208" 
d="M975 1251q-45 0 -83.5 15.5t-61 34t-53 34t-60.5 15.5q-73 0 -101 -86l-204 94q36 109 115.5 183.5t183.5 74.5q45 0 83.5 -15.5t61 -33.5t53.5 -33.5t62 -15.5q72 0 100 86l205 -95q-36 -111 -115 -184.5t-186 -73.5zM612 -27q-245 0 -362.5 138.5t-71.5 375.5l117 592
h323l-116 -606q-19 -99 21 -155t128 -56q82 0 135.5 48t67.5 124l127 645h326l-125 -633q-42 -220 -189 -346.5t-381 -126.5z" />
    <glyph glyph-name="y.ss01" horiz-adv-x="1191" 
d="M979 1079h324l-193 -999q-44 -233 -191 -353t-384 -120q-380 0 -461 287l282 100q18 -62 72.5 -99.5t132.5 -37.5q204 0 252 268l10 53q-68 -64 -153 -99.5t-172 -35.5q-178 0 -268 123.5t-54 308.5l117 604h323l-104 -538q-17 -95 22 -152t121 -55q68 0 125.5 42.5
t83.5 117.5z" />
    <glyph glyph-name="yacute.ss01" horiz-adv-x="1218" 
d="M1204 1475l-563 -293l-115 190l555 326zM979 1079h324l-193 -999q-44 -233 -191 -353t-384 -120q-380 0 -461 287l282 100q18 -62 72.5 -99.5t132.5 -37.5q204 0 252 268l10 53q-68 -64 -153 -99.5t-172 -35.5q-178 0 -268 123.5t-54 308.5l117 604h323l-104 -538
q-17 -95 22 -152t121 -55q68 0 125.5 42.5t83.5 117.5z" />
    <glyph glyph-name="ycircumflex.ss01" horiz-adv-x="1218" 
d="M887 1432l-182 -205h-291l366 411h264l201 -411h-252zM979 1079h324l-193 -999q-44 -233 -191 -353t-384 -120q-380 0 -461 287l282 100q18 -62 72.5 -99.5t132.5 -37.5q204 0 252 268l10 53q-68 -64 -153 -99.5t-172 -35.5q-178 0 -268 123.5t-54 308.5l117 604h323
l-104 -538q-17 -95 22 -152t121 -55q68 0 125.5 42.5t83.5 117.5z" />
    <glyph glyph-name="ydieresis.ss01" horiz-adv-x="1218" 
d="M596 1237q-79 0 -127.5 48t-48.5 130q0 85 68 149t159 64q78 0 126 -48t48 -130q0 -84 -67.5 -148.5t-157.5 -64.5zM1085 1237q-78 0 -126 48t-48 130q0 85 67.5 149t158.5 64q78 0 126 -48t48 -130q0 -84 -68 -148.5t-158 -64.5zM864 494l115 585h324l-193 -999
q-44 -233 -191 -353t-384 -120q-380 0 -461 287l282 100q18 -62 72.5 -99.5t132.5 -37.5q204 0 252 268l10 53q-68 -64 -153 -99.5t-172 -35.5q-178 0 -268 123.5t-54 308.5l117 604h323l-104 -538q-17 -95 22 -152t121 -55q68 0 125.5 42.5t83.5 117.5z" />
    <glyph glyph-name="ygrave.ss01" horiz-adv-x="1218" 
d="M1161 1348l-129 -189l-528 316l139 217zM979 1079h324l-193 -999q-44 -233 -191 -353t-384 -120q-380 0 -461 287l282 100q18 -62 72.5 -99.5t132.5 -37.5q204 0 252 268l10 53q-68 -64 -153 -99.5t-172 -35.5q-178 0 -268 123.5t-54 308.5l117 604h323l-104 -538
q-17 -95 22 -152t121 -55q68 0 125.5 42.5t83.5 117.5z" />
    <glyph glyph-name="uni1EF9.ss01" horiz-adv-x="1218" 
d="M741 1350q-72 0 -100 -86l-205 94q36 109 115.5 183.5t183.5 74.5q45 0 83.5 -15.5t61 -33.5t53.5 -33.5t62 -15.5q73 0 101 86l204 -95q-36 -111 -115 -184.5t-186 -73.5q-45 0 -83.5 15.5t-61 34t-53 34t-60.5 15.5zM979 1079h324l-193 -999q-44 -233 -191 -353
t-384 -120q-380 0 -461 287l282 100q18 -62 72.5 -99.5t132.5 -37.5q204 0 252 268l10 53q-68 -64 -153 -99.5t-172 -35.5q-178 0 -268 123.5t-54 308.5l117 604h323l-104 -538q-17 -95 22 -152t121 -55q68 0 125.5 42.5t83.5 117.5z" />
    <glyph glyph-name="zero.osf" horiz-adv-x="1294" 
d="M680 -27q-146 0 -263.5 58t-188 172t-70.5 264q0 130 52 248t140 203t209 135.5t254 50.5q109 0 203.5 -34t165.5 -96t112 -156t41 -208q0 -129 -52 -247t-140 -203.5t-209 -136t-254 -50.5zM707 264q129 0 216 96t87 228q0 104 -60.5 165.5t-161.5 61.5
q-129 0 -215 -95.5t-86 -227.5q0 -103 60 -165.5t160 -62.5z" />
    <glyph glyph-name="one.osf" horiz-adv-x="925" 
d="M725 279h213l-55 -279h-799l55 279h262l103 530h-275l54 270h598z" />
    <glyph glyph-name="two.osf" horiz-adv-x="1118" 
d="M1120 782q0 -160 -115 -288.5t-329 -237.5h430l-49 -256h-996l41 207q364 155 520 271.5t156 223.5q0 55 -33.5 84t-89.5 29q-115 0 -170 -123l-268 94q59 142 195.5 230t316.5 88q178 0 284.5 -88.5t106.5 -233.5z" />
    <glyph glyph-name="three.osf" horiz-adv-x="1116" 
d="M1184 1079l-49 -256l-344 -291q141 -29 220 -125t79 -235q0 -205 -164 -341t-410 -136q-200 0 -338 90.5t-151 232.5l321 119q9 -69 61.5 -110t137.5 -41q94 0 154.5 51.5t60.5 132.5q0 73 -46 117.5t-136 44.5h-207l41 213l327 264h-491l53 270h881z" />
    <glyph glyph-name="four.osf" horiz-adv-x="1150" 
d="M1174 1079l-160 -819h131l-47 -240h-129l-51 -262h-324l51 262h-600l49 242l760 817h320zM696 260l78 402l-373 -402h295z" />
    <glyph glyph-name="five.osf" horiz-adv-x="1095" 
d="M1102 809h-490l-57 -236h55q219 0 344 -105t125 -288q0 -210 -161.5 -347.5t-409.5 -137.5q-195 0 -330 90.5t-160 241.5l322 118q4 -73 57 -116t135 -43q92 0 154 54t62 136q0 73 -48.5 116.5t-130.5 43.5h-362l186 743h760z" />
    <glyph glyph-name="six.osf" horiz-adv-x="1144" 
d="M813 926q166 -19 274.5 -130.5t108.5 -283.5q0 -153 -79.5 -277t-215 -193t-299.5 -69q-210 0 -339.5 115.5t-129.5 302.5q0 127 58 237.5t184 239.5l465 484h379zM639 250q93 0 161 69t68 166q0 80 -49 131.5t-127 51.5q-97 0 -163 -72t-66 -166q0 -78 49 -129t127 -51z
" />
    <glyph glyph-name="seven.osf" horiz-adv-x="999" 
d="M238 1079h925l-47 -245l-637 -1104h-364l635 1079h-566z" />
    <glyph glyph-name="eight.osf" horiz-adv-x="1171" 
d="M991 705q92 -42 140.5 -124t48.5 -184q0 -127 -78.5 -225t-203.5 -148.5t-271 -50.5q-227 0 -362.5 93.5t-135.5 252.5q0 139 88 249t234 151q-144 77 -144 250t149 291t361 118q208 0 320 -93.5t112 -240.5q0 -118 -69.5 -208.5t-188.5 -130.5zM793 1116
q-74 0 -127.5 -49.5t-53.5 -116.5q0 -58 39 -93.5t99 -33.5q74 2 127 51.5t53 116.5q0 56 -38 90.5t-99 34.5zM637 236q90 1 151.5 59t61.5 137q0 67 -46 108.5t-120 41.5q-87 0 -151 -59t-64 -142q0 -69 47 -108t121 -37z" />
    <glyph glyph-name="nine.osf" horiz-adv-x="1122" 
d="M737 1106q210 0 339.5 -115.5t129.5 -302.5q0 -127 -57.5 -237.5t-181.5 -239.5l-467 -483h-379l407 426q-167 19 -275 130t-108 283q0 153 79 277t214 193t299 69zM649 412q96 0 162 72t66 165q0 78 -49 129t-128 51q-93 0 -161 -69t-68 -166q0 -80 49.5 -131t128.5 -51
z" />
    <glyph glyph-name="uni030C.alt" 
d="M-225 920l129 524h243l-161 -524h-211z" />
    <glyph glyph-name="caron.alt" horiz-adv-x="466" 
d="M281 920l129 524h243l-161 -524h-211z" />
    <glyph glyph-name="uni0308.case" 
d="M-459 1542q-80 0 -132 48.5t-52 131.5q0 95 69 160.5t166 65.5q82 0 131.5 -51t49.5 -130q0 -94 -69 -159.5t-163 -65.5zM49 1542q-80 0 -132 48.5t-52 131.5q0 95 68.5 160.5t164.5 65.5q83 0 133 -51t50 -130q0 -94 -69 -159.5t-163 -65.5z" />
    <glyph glyph-name="uni0307.case" 
d="M49 1542q-79 0 -132.5 50.5t-53.5 131.5q0 92 68 158t163 66q82 0 134.5 -52t52.5 -131q0 -93 -70 -158t-162 -65z" />
    <glyph glyph-name="gravecomb.case" 
d="M182 1530l-624 196l86 252l620 -229z" />
    <glyph glyph-name="acutecomb.case" 
d="M-362 1536l-72 223l647 211l72 -254z" />
    <glyph glyph-name="uni030B.case" 
d="M-545 1507l-172 146l342 391l193 -164zM-63 1507l-170 146l344 391l192 -164z" />
    <glyph glyph-name="uni0302.case" 
d="M240 1552h-271l-102 168l-176 -168h-307l376 385h265z" />
    <glyph glyph-name="uni030C.case" 
d="M6 1937h307l-376 -385h-265l-215 385h271l102 -168z" />
    <glyph glyph-name="uni0306.case" 
d="M-119 1552q-125 0 -210.5 55t-117 141.5t-12.5 188.5h266q-13 -64 11.5 -104.5t83.5 -40.5q117 0 143 145h266q-34 -171 -145 -278t-285 -107z" />
    <glyph glyph-name="uni030A.case" 
d="M-45 1413q-112 0 -181 66.5t-69 171.5q0 123 94 211t226 88q112 0 180.5 -66.5t68.5 -171.5q0 -122 -94 -210.5t-225 -88.5zM-23 1591q43 0 74 29.5t31 71.5q0 35 -23.5 57.5t-60.5 22.5q-43 0 -71.5 -29t-28.5 -70q0 -37 21.5 -59.5t57.5 -22.5z" />
    <glyph glyph-name="tildecomb.case" 
d="M-16 1561q-47 0 -89.5 15.5t-67.5 33.5t-59 33.5t-67 15.5q-82 0 -109 -84l-204 92q37 111 116.5 184.5t190.5 73.5q47 0 89.5 -15.5t68 -33.5t59.5 -33.5t68 -15.5q80 0 108 86l205 -94q-37 -111 -117 -184.5t-192 -73.5z" />
    <glyph glyph-name="uni0304.case" 
d="M-502 1614l53 264h750l-51 -264h-752z" />
    <glyph glyph-name="uni0326.case" 
d="M-268 -98q61 0 103 -36.5t42 -98.5q0 -52 -33 -107.5t-102 -138.5l-109 -135l-118 77l84 115q4 6 11 16t9 13q-31 15 -49.5 46.5t-18.5 72.5q0 73 53 124.5t128 51.5z" />
    <glyph glyph-name="uni0337.case" 
d="M-664 385l-59 203l758 254l59 -205z" />
    <glyph glyph-name="uni0338.case" 
d="M-1360 -20l-153 178l1546 1366l151 -183z" />
    <glyph glyph-name="dieresis.case" horiz-adv-x="964" 
d="M578 1542q-80 0 -132.5 48.5t-52.5 131.5q0 95 69.5 160.5t166.5 65.5q82 0 131 -51t49 -130q0 -94 -68.5 -159.5t-162.5 -65.5zM1085 1542q-80 0 -132 48.5t-52 131.5q0 95 69 160.5t165 65.5q83 0 132.5 -50.5t49.5 -130.5q0 -94 -69 -159.5t-163 -65.5z" />
    <glyph glyph-name="dotaccent.case" horiz-adv-x="391" 
d="M580 1542q-79 0 -133 50.5t-54 131.5q0 92 68.5 158t163.5 66q82 0 134 -52t52 -131q0 -93 -70 -158t-161 -65z" />
    <glyph glyph-name="grave.case" horiz-adv-x="741" 
d="M989 1530l-624 196l86 252l620 -229z" />
    <glyph glyph-name="acute.case" horiz-adv-x="741" 
d="M442 1536l-71 223l647 211l72 -254z" />
    <glyph glyph-name="hungarumlaut.case" horiz-adv-x="1185" 
d="M551 1507l-172 146l342 391l192 -164zM1032 1507l-170 146l344 391l193 -164z" />
    <glyph glyph-name="circumflex.case" horiz-adv-x="964" 
d="M1217 1552h-271l-102 168l-176 -168h-308l377 385h264z" />
    <glyph glyph-name="caron.case" horiz-adv-x="964" 
d="M983 1937h307l-377 -385h-264l-215 385h271l102 -168z" />
    <glyph glyph-name="breve.case" horiz-adv-x="872" 
d="M774 1552q-125 0 -210.5 55t-117 141.5t-12.5 188.5h266q-13 -64 11.5 -104.5t83.5 -40.5q117 0 143 145h266q-34 -171 -145 -278t-285 -107z" />
    <glyph glyph-name="ring.case" horiz-adv-x="612" 
d="M627 1413q-112 0 -181 66.5t-69 171.5q0 123 93.5 211t225.5 88q112 0 181 -66.5t69 -171.5q0 -122 -94 -210.5t-225 -88.5zM649 1591q43 0 74 29.5t31 71.5q0 35 -23.5 57.5t-60.5 22.5q-43 0 -72 -29t-29 -70q0 -37 21.5 -59.5t58.5 -22.5z" />
    <glyph glyph-name="tilde.case" horiz-adv-x="991" 
d="M977 1561q-47 0 -89.5 15.5t-67.5 33.5t-59 33.5t-67 15.5q-81 0 -108 -84l-205 92q37 111 116.5 184.5t190.5 73.5q47 0 89.5 -15.5t68 -33.5t59.5 -33.5t68 -15.5q80 0 108 86l205 -94q-37 -111 -117 -184.5t-192 -73.5z" />
    <glyph glyph-name="macron.case" horiz-adv-x="892" 
d="M371 1614l53 264h750l-52 -264h-751z" />
    <glyph glyph-name="IJacute" horiz-adv-x="1294" 
d="M340 1536l-72 223l647 211l72 -254zM1077 1536l-69 223l645 211l73 -254zM119 0l276 1423h326l-277 -1423h-325zM614 0l58 291h76q71 0 116.5 41t59.5 114l188 977h328l-199 -1026q-78 -397 -491 -397h-136z" />
    <glyph glyph-name="ijacute" horiz-adv-x="1136" 
d="M299 1180l-115 190l555 326l123 -221zM928 1180l-115 190l557 326l123 -221zM96 0l209 1079h326l-209 -1079h-326zM444 -379l54 279h37q64 0 111.5 43t62.5 120l196 1016h326l-195 -1009q-43 -218 -185 -333.5t-345 -115.5h-62z" />
    </font>
</defs>
</svg>
