<?xml version="1.0" standalone="no"?>
<!DOCTYPE svg PUBLIC "-//W3C//DTD SVG 1.1//EN" "http://www.w3.org/Graphics/SVG/1.1/DTD/svg11.dtd" >
<svg xmlns="http://www.w3.org/2000/svg" xmlns:xlink="http://www.w3.org/1999/xlink" version="1.1">
<metadata>
Created by FontForge 20201107 at Thu Oct 31 06:45:08 2024
 By 
Copyright (c) 2019 by Daniel Hernandez &#38; Rodrigo Fuenzalida. All rights reserved.
</metadata>
<defs>
<font id="Biennale-Hair" horiz-adv-x="0" >
  <font-face 
    font-family="Biennale Hair"
    font-weight="250"
    font-stretch="normal"
    units-per-em="2048"
    panose-1="0 0 3 0 0 0 0 0 0 0"
    ascent="1638"
    descent="-410"
    x-height="1079"
    cap-height="1423"
    bbox="-1403 -500 4520 1876"
    underline-thickness="102"
    underline-position="-204"
    unicode-range="U+0020-FB02"
  />
<missing-glyph horiz-adv-x="1290" 
d="M205 1495h880v-1495h-880v1495zM338 1423l307 -587l307 587h-614zM600 748l-313 598v-1196zM692 748l312 -598v1196zM645 659l-307 -587h614z" />
    <glyph glyph-name="fi" unicode="fi" horiz-adv-x="919" 
d="M567 1481q-127 0 -200.5 -81t-73.5 -229v-92h444v-1079h-39v1042h-405v-1042h-39v1042h-229v37h229v92q0 165 85 256t230 91h168v-37h-170z" />
    <glyph glyph-name="fl" unicode="fl" horiz-adv-x="946" 
d="M764 1497v-1497h-39v1460h-158q-127 0 -200.5 -80.5t-73.5 -228.5v-72h274v-37h-274v-1042h-39v1042h-229v37h229v72q0 165 85 255.5t230 90.5h195z" />
    <glyph glyph-name=".notdef" horiz-adv-x="1290" 
d="M205 1495h880v-1495h-880v1495zM338 1423l307 -587l307 587h-614zM600 748l-313 598v-1196zM692 748l312 -598v1196zM645 659l-307 -587h614z" />
    <glyph glyph-name=".null" 
 />
    <glyph glyph-name="nonmarkingreturn" horiz-adv-x="682" 
 />
    <glyph glyph-name="space" unicode=" " horiz-adv-x="524" 
 />
    <glyph glyph-name="exclam" unicode="!" horiz-adv-x="444" 
d="M205 354l-10 1143h51l-4 -1143h-37zM221 -18q-28 0 -45.5 17.5t-17.5 45.5t17.5 46t45.5 18t46 -18t18 -46t-18 -45.5t-46 -17.5z" />
    <glyph glyph-name="quotedbl" unicode="&#x22;" horiz-adv-x="514" 
d="M133 1133l-4 331h45l-4 -331h-37zM344 1133l-4 331h45l-4 -331h-37z" />
    <glyph glyph-name="numbersign" unicode="#" horiz-adv-x="1376" 
d="M1313 961h-277l-137 -498h277v-37h-285l-117 -426h-41l117 426h-477l-117 -426h-41l117 426h-269v37h279l135 498h-274v36h284l117 426h39l-117 -426h480l116 426h39l-117 -426h269v-36zM860 463l135 498h-477l-137 -498h479z" />
    <glyph glyph-name="dollar" unicode="$" horiz-adv-x="913" 
d="M823 338q0 -138 -93.5 -223.5t-248.5 -94.5v-184h-37v184q-144 2 -243.5 74.5t-134.5 204.5l38 14q29 -122 119 -188t228 -66q149 0 240 75t91 200q0 69 -22.5 123t-60.5 90.5t-87.5 65.5t-104 52t-108.5 46t-103.5 52t-87.5 65.5t-60.5 90.5t-22.5 123q0 125 91 205.5
t239 83.5v185h37v-185q245 -12 315 -241l-39 -15q-65 217 -303 217q-140 0 -219.5 -67.5t-79.5 -175.5q0 -65 22.5 -115.5t60.5 -84t87.5 -60.5t104 -49.5t108.5 -45.5t103.5 -54t87.5 -70t60.5 -98t22.5 -134z" />
    <glyph glyph-name="percent" unicode="%" horiz-adv-x="1468" 
d="M375 793q-134 0 -221.5 91.5t-87.5 227.5q0 135 88 228.5t221 93.5t220 -93.5t87 -228.5q0 -136 -86.5 -227.5t-220.5 -91.5zM289 0l841 1423h44l-842 -1423h-43zM375 827q114 0 192 82t78 205q0 117 -78.5 201t-191.5 84q-116 0 -194.5 -84t-78.5 -201q0 -123 78 -205
t195 -82zM1096 -10q-134 0 -222 91.5t-88 227.5q0 135 88 228.5t222 93.5q133 0 220 -93.5t87 -228.5q0 -136 -86.5 -227.5t-220.5 -91.5zM1096 25q114 0 192 82t78 204q0 117 -78.5 201t-191.5 84q-116 0 -194.5 -84t-78.5 -201q0 -123 78 -204.5t195 -81.5z" />
    <glyph glyph-name="ampersand" unicode="&#x26;" horiz-adv-x="1286" 
d="M1202 686q0 -168 -49 -304.5t-121 -211.5l170 -170h-59l-137 139q-144 -159 -424 -159q-128 0 -238.5 53t-177 149t-66.5 213q0 77 20 141t58 112.5t80 83.5t98 69q-69 80 -98 150t-29 163q0 133 99 228.5t260 95.5t259 -82t124 -217h-43q-25 116 -111.5 188t-228.5 72
t-230 -84.5t-88 -200.5q0 -115 48.5 -194.5t170.5 -202.5l515 -518q66 68 111.5 206.5t45.5 296.5zM582 16q261 0 397 150l-520 526q-55 55 -78 80q-53 -31 -91.5 -62.5t-75.5 -76.5t-56 -105t-19 -133q0 -107 61.5 -194.5t163 -136t218.5 -48.5z" />
    <glyph glyph-name="quotesingle" unicode="'" horiz-adv-x="303" 
d="M133 1133l-4 331h45l-4 -331h-37z" />
    <glyph glyph-name="parenleft" unicode="(" horiz-adv-x="593" 
d="M543 -182q-61 36 -119 87.5t-116.5 130t-102.5 170t-71.5 213t-27.5 253.5t27.5 253.5t71.5 213t102.5 170t116.5 130t119 87.5l20 -35q-74 -42 -144 -113.5t-133 -172t-101 -240t-38 -293.5t38 -293.5t101 -240t133 -172t144 -113.5z" />
    <glyph glyph-name="parenright" unicode=")" horiz-adv-x="593" 
d="M51 -182l-20 35q74 42 144 113.5t132.5 172t100.5 240t38 293.5t-38 293.5t-100.5 240t-132.5 172t-144 113.5l20 35q50 -30 98.5 -71.5t98.5 -98t92.5 -128.5t75.5 -155t52 -186.5t19 -214.5t-19 -214.5t-52 -186.5t-75.5 -155t-92.5 -128.5t-98.5 -98t-98.5 -71.5z" />
    <glyph glyph-name="asterisk" unicode="*" horiz-adv-x="808" 
d="M377 856l12 277l-242 -148l-26 47l262 135l-262 136l26 47l242 -150l-12 297h55l-12 -297l242 150l26 -47l-262 -136l262 -135l-26 -47l-242 148l12 -277h-55z" />
    <glyph glyph-name="plus" unicode="+" horiz-adv-x="978" 
d="M911 627v-41h-401v-449h-41v449h-401v41h401v420h41v-420h401z" />
    <glyph glyph-name="comma" unicode="," horiz-adv-x="350" 
d="M176 109q28 0 46 -18.5t18 -47.5q0 -31 -27 -86l-61 -125h-43l71 150h-4q-28 0 -45.5 16.5t-17.5 44.5q0 29 17.5 47.5t45.5 18.5z" />
    <glyph glyph-name="hyphen" unicode="-" horiz-adv-x="751" 
d="M143 508v37h465v-37h-465z" />
    <glyph glyph-name="period" unicode="." horiz-adv-x="368" 
d="M184 -18q-28 0 -45.5 17.5t-17.5 45.5t17.5 46t45.5 18t46 -18t18 -46t-18 -45.5t-46 -17.5z" />
    <glyph glyph-name="slash" unicode="/" horiz-adv-x="622" 
d="M92 -102l395 1558h41l-393 -1558h-43z" />
    <glyph glyph-name="zero" unicode="0" horiz-adv-x="1388" 
d="M696 -18q-265 0 -419 194t-154 533q0 340 154 534.5t419 194.5q264 0 417 -195t153 -534q0 -338 -153 -532.5t-417 -194.5zM696 20q240 0 384.5 186t144.5 503q0 318 -144.5 504t-384.5 186q-243 0 -387.5 -185t-144.5 -505q0 -319 144.5 -504t387.5 -185z" />
    <glyph glyph-name="one" unicode="1" horiz-adv-x="632" 
d="M377 37h215v-37h-502v37h248v1163h-240v37h240v186h39v-1386z" />
    <glyph glyph-name="two" unicode="2" horiz-adv-x="1034" 
d="M150 39h790v-39h-854v27l549 604q36 40 56.5 63.5t60 76.5t61.5 96.5t40.5 102.5t18.5 115q0 137 -98 226.5t-254 89.5q-139 0 -245.5 -74t-145.5 -207l-39 15q41 140 157.5 222.5t270.5 82.5q174 0 283.5 -100.5t109.5 -256.5q0 -57 -17.5 -117.5t-41 -107.5t-61 -99
t-64 -83.5t-63.5 -71.5z" />
    <glyph glyph-name="three" unicode="3" horiz-adv-x="1093" 
d="M555 815q186 0 307 -114t121 -295q0 -184 -125 -305t-328 -121q-172 0 -296.5 87t-161.5 218l39 14q33 -121 148 -201t273 -80q186 0 298 109.5t112 278.5q0 115 -55 201t-141.5 128.5t-188.5 42.5h-121v37l492 569h-803v39h856v-37l-496 -571h70z" />
    <glyph glyph-name="four" unicode="4" horiz-adv-x="1136" 
d="M1077 422v-37h-211v-385h-39v385h-786v21l786 1015h39v-999h211zM827 422v938l-727 -938h727z" />
    <glyph glyph-name="five" unicode="5" horiz-adv-x="1073" 
d="M522 831q201 0 329 -119t128 -306t-128 -306.5t-329 -119.5q-165 0 -283 82.5t-159 226.5l37 14q37 -131 146 -208t259 -77q183 0 299.5 109t116.5 279q0 168 -117.5 277.5t-298.5 109.5h-329l32 630h682v-37h-645l-31 -555h291z" />
    <glyph glyph-name="six" unicode="6" horiz-adv-x="1110" 
d="M565 926q200 0 332.5 -134.5t132.5 -338.5t-132.5 -338.5t-332.5 -134.5q-204 0 -342.5 136.5t-138.5 336.5q0 174 121 325l512 645h51l-444 -559q127 62 241 62zM565 18q184 0 304 123t120 312t-119.5 311.5t-304.5 122.5q-188 0 -314 -124t-126 -310t126 -310.5
t314 -124.5z" />
    <glyph glyph-name="seven" unicode="7" horiz-adv-x="927" 
d="M27 1423h856v-37l-549 -1386h-43l547 1384h-811v39z" />
    <glyph glyph-name="eight" unicode="8" horiz-adv-x="1101" 
d="M680 770q121 -33 213 -139t92 -256q0 -171 -122.5 -283t-311.5 -112t-311.5 112t-122.5 283q0 150 92 256t213 139q-107 35 -176.5 120t-69.5 206q0 144 106.5 243t268.5 99q160 0 267.5 -97.5t107.5 -246.5q0 -120 -69.5 -205t-176.5 -119zM217 1096q0 -128 94.5 -218
t239.5 -90t239.5 90t94.5 218q0 130 -93 216.5t-241 86.5t-241 -86.5t-93 -216.5zM551 18q179 0 286 100.5t107 258.5q0 161 -110 267t-283 106t-283 -106t-110 -267q0 -158 107 -258.5t286 -100.5z" />
    <glyph glyph-name="nine" unicode="9" horiz-adv-x="1103" 
d="M545 1444q204 0 342.5 -136.5t138.5 -336.5q0 -175 -121 -326l-512 -645h-51l444 559q-125 -61 -241 -61q-200 0 -332.5 134.5t-132.5 338.5t132.5 338.5t332.5 134.5zM545 537q188 0 314 124t126 310t-126 310t-314 124q-185 0 -304.5 -122.5t-119.5 -311.5
t119.5 -311.5t304.5 -122.5z" />
    <glyph glyph-name="colon" unicode=":" horiz-adv-x="421" 
d="M211 788q-28 0 -46 18t-18 46t18 45.5t46 17.5t45.5 -17.5t17.5 -45.5t-17.5 -46t-45.5 -18zM211 -18q-28 0 -46 17.5t-18 45.5t18 46t46 18t45.5 -18t17.5 -46t-17.5 -45.5t-45.5 -17.5z" />
    <glyph glyph-name="semicolon" unicode=";" horiz-adv-x="428" 
d="M213 768q-28 0 -45.5 17.5t-17.5 45.5t17.5 46t45.5 18t45.5 -18t17.5 -46t-17.5 -45.5t-45.5 -17.5zM217 109q28 0 46 -18.5t18 -47.5q0 -31 -27 -86l-61 -125h-43l71 150h-4q-28 0 -45.5 16.5t-17.5 44.5q0 29 17.5 47.5t45.5 18.5z" />
    <glyph glyph-name="less" unicode="&#x3c;" horiz-adv-x="808" 
d="M698 1028v-47l-583 -408l583 -409v-49l-626 432v49z" />
    <glyph glyph-name="equal" unicode="=" horiz-adv-x="1150" 
d="M154 799v41h843v-41h-843zM154 313v41h843v-41h-843z" />
    <glyph glyph-name="greater" unicode="&#x3e;" horiz-adv-x="808" 
d="M111 1028l626 -432v-49l-626 -432v47l583 409l-583 408v49z" />
    <glyph glyph-name="question" unicode="?" horiz-adv-x="847" 
d="M322 354v101q0 81 22.5 148.5t58.5 115t79 90t86.5 82.5t79.5 81.5t58.5 98t22.5 123.5q0 135 -78 210t-213 75q-127 0 -218.5 -79t-115.5 -200l-38 10q23 136 128 222t244 86q156 0 244 -86.5t88 -237.5q0 -70 -22.5 -130.5t-58.5 -104.5t-79.5 -85t-87 -82.5
t-79.5 -86.5t-58.5 -107t-22.5 -135v-109h-40zM348 -18q-28 0 -45.5 17.5t-17.5 45.5t17.5 46t45.5 18t46 -18t18 -46t-18 -45.5t-46 -17.5z" />
    <glyph glyph-name="at" unicode="@" horiz-adv-x="1585" 
d="M1219 152q-154 0 -154 161v21q-36 -94 -114.5 -148.5t-186.5 -54.5q-141 0 -235.5 100.5t-94.5 251.5q0 149 96 251t234 102q107 0 186 -54.5t115 -148.5v190h37v-510q0 -59 29.5 -92t87.5 -33q102 0 162.5 76t60.5 217q0 137 -51 259.5t-137.5 211t-207 140t-255.5 51.5
q-137 0 -257.5 -49.5t-208 -136.5t-138 -210.5t-50.5 -265.5q0 -199 87 -350t239.5 -230t347.5 -79q135 0 243 45.5t167 130.5l28 -25q-64 -89 -179.5 -138.5t-258.5 -49.5q-321 0 -516 190.5t-195 505.5q0 152 51 282t141.5 221.5t219.5 143.5t279 52q199 0 357 -92
t244.5 -251.5t86.5 -355.5q0 -153 -73 -241t-187 -88zM764 166q132 0 215.5 89.5t83.5 227.5q0 140 -83.5 229t-215.5 89q-122 0 -207.5 -91t-85.5 -227q0 -137 84 -227t209 -90z" />
    <glyph glyph-name="A" unicode="A" horiz-adv-x="1220" 
d="M1147 0l-201 514h-672l-200 -514h-41l555 1423h43l557 -1423h-41zM289 551h643l-322 823z" />
    <glyph glyph-name="B" unicode="B" horiz-adv-x="1247" 
d="M815 750q151 -28 235.5 -122t84.5 -243q0 -181 -117 -283t-324 -102h-489v1423h489q194 0 292.5 -95t98.5 -251q0 -122 -74.5 -208.5t-195.5 -118.5zM709 1386h-465v-618h454q145 0 247 85.5t102 223.5t-88 223.5t-250 85.5zM698 37q188 0 293 92.5t105 255.5
q0 161 -108.5 252.5t-293.5 91.5h-450v-692h454z" />
    <glyph glyph-name="C" unicode="C" horiz-adv-x="1484" 
d="M803 -20q-198 0 -355.5 92.5t-247 259.5t-89.5 379t89 380t244.5 260.5t348.5 92.5q449 0 616 -438l-39 -17q-159 416 -577 416q-134 0 -252.5 -51.5t-204 -141.5t-135 -220t-49.5 -281q0 -150 49.5 -279.5t136 -220t207 -142t258.5 -51.5q409 0 567 416l39 -16
q-81 -214 -228 -326t-378 -112z" />
    <glyph glyph-name="D" unicode="D" horiz-adv-x="1458" 
d="M680 1423q141 0 264 -51.5t211.5 -143.5t139.5 -225t51 -290q0 -209 -87.5 -372.5t-239 -252t-339.5 -88.5h-475v1423h475zM680 37q176 0 318.5 83.5t225.5 238.5t83 354q0 147 -48.5 273t-132 213.5t-199 137t-247.5 49.5h-436v-1349h436z" />
    <glyph glyph-name="E" unicode="E" horiz-adv-x="1120" 
d="M244 37h794v-37h-833v1423h819v-37h-780v-618h719v-37h-719v-694z" />
    <glyph glyph-name="F" unicode="F" horiz-adv-x="1075" 
d="M1024 1386h-780v-618h717v-37h-717v-731h-39v1423h819v-37z" />
    <glyph glyph-name="G" unicode="G" horiz-adv-x="1566" 
d="M1470 711q0 -212 -88.5 -379t-243 -259.5t-347.5 -92.5t-347.5 92.5t-242.5 259.5t-88 379q0 213 88 380.5t242.5 260t347.5 92.5q449 0 616 -438l-39 -17q-159 416 -577 416q-134 0 -252 -51t-202.5 -141.5t-133.5 -220.5t-49 -281q0 -200 83.5 -359t228.5 -246.5
t325 -87.5q174 0 317 82.5t228.5 233t93.5 340.5h-639v37h679z" />
    <glyph glyph-name="H" unicode="H" horiz-adv-x="1396" 
d="M1153 1423h39v-1423h-39v731h-909v-731h-39v1423h39v-655h909v655z" />
    <glyph glyph-name="I" unicode="I" horiz-adv-x="448" 
d="M205 0v1423h39v-1423h-39z" />
    <glyph glyph-name="J" unicode="J" horiz-adv-x="641" 
d="M27 0v35h108q127 0 201 81.5t74 229.5v1077h39v-1077q0 -164 -86 -255t-230 -91h-106z" />
    <glyph glyph-name="K" unicode="K" horiz-adv-x="1183" 
d="M1200 0h-63l-893 735v-735h-39v1423h39v-655l794 655h58l-813 -669z" />
    <glyph glyph-name="L" unicode="L" horiz-adv-x="1054" 
d="M244 37h782v-37h-821v1423h39v-1386z" />
    <glyph glyph-name="M" unicode="M" horiz-adv-x="1662" 
d="M1501 0h-39l-82 1337l-530 -1269h-37l-530 1269l-82 -1337h-39l88 1423h39l542 -1300l543 1300h39z" />
    <glyph glyph-name="N" unicode="N" horiz-adv-x="1396" 
d="M1153 1423h39v-1423h-35l-913 1352v-1352h-39v1423h35l913 -1349v1349z" />
    <glyph glyph-name="O" unicode="O" horiz-adv-x="1605" 
d="M803 -20q-198 0 -355.5 92.5t-247 259.5t-89.5 379q0 213 89.5 380.5t247 260t355.5 92.5q197 0 354.5 -92.5t247.5 -260t90 -380.5q0 -212 -90 -379t-247.5 -259.5t-354.5 -92.5zM803 18q184 0 332.5 87.5t233.5 246.5t85 359q0 151 -50 281t-136.5 220.5t-206.5 141.5
t-258 51t-258.5 -51t-207 -141.5t-136 -220.5t-49.5 -281q0 -150 49.5 -279.5t136 -220t207 -142t258.5 -51.5z" />
    <glyph glyph-name="P" unicode="P" horiz-adv-x="1177" 
d="M678 1423q197 0 312.5 -102.5t115.5 -276.5t-115 -276t-313 -102h-434v-666h-39v1423h473zM678 705q183 0 285 91.5t102 247.5t-102 249t-285 93h-434v-681h434z" />
    <glyph glyph-name="Q" unicode="Q" horiz-adv-x="1605" 
d="M1495 711q0 -221 -97 -392t-265 -260l307 -305l-25 -30l-319 317q-138 -61 -293 -61q-198 0 -355.5 92.5t-247 259.5t-89.5 379q0 213 89.5 380.5t247 260t355.5 92.5q197 0 354.5 -92.5t247.5 -260t90 -380.5zM152 711q0 -150 49.5 -279.5t136 -220t207 -142
t258.5 -51.5q184 0 332.5 87.5t233.5 246.5t85 359q0 151 -50 281t-136.5 220.5t-206.5 141.5t-258 51t-258.5 -51t-207 -141.5t-136 -220.5t-49.5 -281z" />
    <glyph glyph-name="R" unicode="R" horiz-adv-x="1193" 
d="M678 690h-182l602 -690h-54l-600 690h-200v-690h-39v1423h473q197 0 312.5 -100.5t115.5 -265.5q0 -166 -116 -266.5t-312 -100.5zM244 1386v-657h434q182 0 284.5 90t102.5 238t-102.5 238.5t-284.5 90.5h-434z" />
    <glyph glyph-name="S" unicode="S" horiz-adv-x="1056" 
d="M524 -16q-176 0 -292 81t-156 228l39 14q34 -136 139.5 -210t267.5 -74q176 0 283.5 84.5t107.5 224.5q0 77 -26.5 137.5t-71 101t-102.5 73t-122 58.5t-128 51.5t-122 57.5t-102.5 72t-71 100.5t-26.5 136.5q0 142 107.5 231t283.5 89q316 0 400 -266l-39 -15
q-40 124 -128 183t-233 59q-164 0 -257 -76t-93 -197q0 -73 26.5 -129.5t71 -94t102.5 -68t122 -55t128 -50.5t122 -60t102.5 -77.5t71 -109t26.5 -148.5q0 -161 -118.5 -256.5t-311.5 -95.5z" />
    <glyph glyph-name="T" unicode="T" horiz-adv-x="1050" 
d="M1022 1423v-37h-477v-1386h-39v1386h-477v37h993z" />
    <glyph glyph-name="U" unicode="U" horiz-adv-x="1366" 
d="M1139 1423h39v-921q0 -108 -31 -201.5t-91 -165.5t-155.5 -113.5t-216.5 -41.5q-98 0 -179.5 27t-139.5 74.5t-98.5 113.5t-59.5 143.5t-19 163.5v921h39v-919q0 -102 29 -189.5t84.5 -154.5t144 -105.5t199.5 -38.5q110 0 198 38.5t143.5 106t84.5 155t29 188.5v919z
" />
    <glyph glyph-name="V" unicode="V" horiz-adv-x="1226" 
d="M1155 1423h41l-561 -1423h-43l-561 1423h41l542 -1374z" />
    <glyph glyph-name="W" unicode="W" horiz-adv-x="1701" 
d="M1608 1423h39l-357 -1423h-33l-405 1360l-408 -1360h-32l-357 1423h39l336 -1341l401 1341h39l404 -1339z" />
    <glyph glyph-name="X" unicode="X" horiz-adv-x="1189" 
d="M1171 0h-47l-530 702l-528 -702h-48l553 731l-524 694h47l504 -667l500 667h45l-522 -696z" />
    <glyph glyph-name="Y" unicode="Y" horiz-adv-x="1179" 
d="M1149 1423l-541 -831v-592h-39v598l-536 825h45l514 -790l512 790h45z" />
    <glyph glyph-name="Z" unicode="Z" horiz-adv-x="1054" 
d="M92 37h920v-37h-965v33l903 1353h-878v37h921v-34z" />
    <glyph glyph-name="bracketleft" unicode="[" horiz-adv-x="544" 
d="M504 1485h-262v-1626h262v-41h-303v1708h303v-41z" />
    <glyph glyph-name="backslash" unicode="\" horiz-adv-x="622" 
d="M487 -102l-393 1558h41l395 -1558h-43z" />
    <glyph glyph-name="bracketright" unicode="]" horiz-adv-x="544" 
d="M41 1526h303v-1708h-303v41h262v1626h-262v41z" />
    <glyph glyph-name="asciicircum" unicode="^" horiz-adv-x="823" 
d="M721 811h-45l-273 461l-253 -461h-46l281 506h37z" />
    <glyph glyph-name="underscore" unicode="_" horiz-adv-x="897" 
d="M49 -90v37h799v-37h-799z" />
    <glyph glyph-name="grave" unicode="`" horiz-adv-x="477" 
d="M426 1270l-365 217l21 31l362 -220z" />
    <glyph glyph-name="a" unicode="a" horiz-adv-x="1327" 
d="M1106 1079h39v-1079h-39v326q-55 -158 -182.5 -252t-296.5 -94q-227 0 -377 159.5t-150 401.5q0 157 68.5 285.5t189.5 201t269 72.5q169 0 297 -93t182 -251v323zM623 16q212 0 347.5 147.5t135.5 377.5t-134.5 376t-348.5 146q-206 0 -345 -150t-139 -372
q0 -225 138.5 -375t345.5 -150z" />
    <glyph glyph-name="b" unicode="b" horiz-adv-x="1327" 
d="M700 1100q148 0 269 -72.5t189.5 -201t68.5 -285.5q0 -242 -150 -401.5t-377 -159.5q-169 0 -296.5 94t-182.5 252v-326h-39v1497h39v-741q54 158 182 251t297 93zM705 16q207 0 345 149.5t138 375.5q0 146 -63 266t-174 188t-246 68q-214 0 -349 -146t-135 -376
t136 -377.5t348 -147.5z" />
    <glyph glyph-name="c" unicode="c" horiz-adv-x="1173" 
d="M639 -20q-235 0 -387 158t-152 401t151.5 401t383.5 158q167 0 290.5 -85.5t170.5 -234.5l-37 -14q-44 141 -156.5 219t-267.5 78q-214 0 -355 -147.5t-141 -374.5t141.5 -375t358.5 -148q156 0 269 78t157 219l37 -14q-47 -149 -170.5 -234t-292.5 -85z" />
    <glyph glyph-name="d" unicode="d" horiz-adv-x="1327" 
d="M1106 1497h39v-1497h-39v326q-55 -158 -182.5 -252t-296.5 -94q-227 0 -377 159.5t-150 401.5q0 157 68.5 285.5t189.5 201t269 72.5q169 0 297 -93t182 -251v741zM623 16q212 0 347.5 147.5t135.5 377.5t-134.5 376t-348.5 146q-206 0 -345 -150t-139 -372
q0 -225 138.5 -375t345.5 -150z" />
    <glyph glyph-name="e" unicode="e" horiz-adv-x="1212" 
d="M621 1100q217 0 356 -151t139 -384v-35h-977q3 -221 140.5 -367.5t341.5 -146.5q346 0 446 297l35 -14q-52 -155 -175.5 -237t-305.5 -82q-224 0 -372.5 159t-148.5 400q0 117 40 221t109.5 178.5t166 118t205.5 43.5zM139 567h938v2q0 217 -128 355.5t-328 138.5
q-197 0 -334 -141.5t-148 -354.5z" />
    <glyph glyph-name="f" unicode="f" horiz-adv-x="645" 
d="M567 1481q-127 0 -200.5 -81t-73.5 -229v-92h338v-37h-338v-1042h-39v1042h-229v37h229v92q0 165 85 256t230 91h68v-37h-70z" />
    <glyph glyph-name="g" unicode="g" horiz-adv-x="1327" 
d="M1108 1079h39v-962q0 -233 -139.5 -368.5t-380.5 -135.5q-186 0 -311.5 87.5t-176.5 252.5l37 14q46 -155 162 -236t291 -81q222 0 350.5 125.5t128.5 341.5v209q-55 -158 -182.5 -252t-296.5 -94q-227 0 -377 159.5t-150 401.5q0 157 68.5 285.5t189.5 201t269 72.5
q169 0 297 -93t182 -251v323zM625 16q212 0 347.5 147.5t135.5 377.5q0 229 -134 375.5t-343 146.5q-211 0 -350.5 -149t-139.5 -375q0 -224 138.5 -373.5t345.5 -149.5z" />
    <glyph glyph-name="h" unicode="h" horiz-adv-x="1261" 
d="M641 1100q219 0 337 -122.5t118 -338.5v-639h-39v637q0 202 -107.5 314.5t-304.5 111.5q-91 -1 -171.5 -32.5t-134 -83.5t-85 -117.5t-33.5 -133.5v-696h-39v1497h39v-674q35 113 148.5 195t271.5 82z" />
    <glyph glyph-name="i" unicode="i" horiz-adv-x="403" 
d="M201 1321q-32 0 -54 21t-22 53t22 53.5t54 21.5t53.5 -21.5t21.5 -53.5t-21.5 -53t-53.5 -21zM182 0v1079h39v-1079h-39z" />
    <glyph glyph-name="j" unicode="j" horiz-adv-x="403" 
d="M201 1319q-32 0 -54 21t-22 53t22 53.5t54 21.5t53.5 -21.5t21.5 -53.5t-21.5 -53t-53.5 -21zM-115 -367v39h23q124 0 199 81.5t75 211.5v1114h39v-1114q0 -149 -86 -240.5t-231 -91.5h-19z" />
    <glyph glyph-name="k" unicode="k" horiz-adv-x="966" 
d="M965 0h-60l-684 582v-582h-39v1497h39v-893l658 475h59l-672 -485z" />
    <glyph glyph-name="l" unicode="l" horiz-adv-x="403" 
d="M182 0v1497h39v-1497h-39z" />
    <glyph glyph-name="m" unicode="m" horiz-adv-x="2050" 
d="M1450 1100q198 0 316 -121t118 -320v-659h-39v657q0 185 -107 296t-284 110q-111 -1 -204 -53.5t-144 -130.5t-53 -160v-719h-39v657q0 186 -107 297t-284 109q-84 -1 -159.5 -32t-127 -80t-83 -110t-32.5 -122v-719h-39v1079h39v-241q35 104 144 183t256 79
q159 0 268.5 -80.5t146.5 -220.5q13 52 47.5 104t86 96.5t125.5 72.5t155 28z" />
    <glyph glyph-name="n" unicode="n" horiz-adv-x="1261" 
d="M641 1100q219 0 337 -122.5t118 -338.5v-639h-39v637q0 202 -107.5 314.5t-304.5 111.5q-91 -1 -171.5 -32.5t-134 -83.5t-85 -117.5t-33.5 -133.5v-696h-39v1079h39v-256q35 113 148.5 195t271.5 82z" />
    <glyph glyph-name="o" unicode="o" horiz-adv-x="1275" 
d="M639 -20q-235 0 -387 158.5t-152 400.5q0 160 68.5 288t192 200.5t278.5 72.5q234 0 385.5 -158.5t151.5 -402.5q0 -242 -151.5 -400.5t-385.5 -158.5zM639 16q219 0 358.5 148t139.5 375q0 229 -139.5 376.5t-358.5 147.5t-359.5 -147.5t-140.5 -376.5
q0 -227 140.5 -375t359.5 -148z" />
    <glyph glyph-name="p" unicode="p" horiz-adv-x="1327" 
d="M700 1100q227 0 377 -159.5t150 -401.5q0 -157 -68.5 -285.5t-189.5 -201t-269 -72.5q-169 0 -297 93t-182 251v-691h-39v1446h39v-325q55 158 182.5 252t296.5 94zM705 16q135 0 246 68.5t174 188.5t63 266q0 225 -138 374.5t-345 149.5q-212 0 -348 -147t-136 -377
t135 -376.5t349 -146.5z" />
    <glyph glyph-name="q" unicode="q" horiz-adv-x="1327" 
d="M1106 1079h39v-1446h-39v691q-54 -158 -182 -251t-297 -93q-148 0 -269 72.5t-189.5 201t-68.5 285.5q0 242 150 401.5t377 159.5q169 0 296.5 -94t182.5 -252v325zM623 16q213 0 348 146t135 377q0 230 -135.5 377t-347.5 147q-207 0 -345.5 -149.5t-138.5 -374.5
q0 -146 63.5 -266t174.5 -188.5t246 -68.5z" />
    <glyph glyph-name="r" unicode="r" horiz-adv-x="634" 
d="M221 838q35 104 140 183t241 79v-37q-102 -1 -191 -54.5t-139.5 -134t-50.5 -163.5v-711h-39v1079h39v-241z" />
    <glyph glyph-name="s" unicode="s" horiz-adv-x="937" 
d="M475 -20q-156 0 -262 62t-143 175l41 16q31 -102 125 -158.5t239 -56.5q154 0 246 65t92 181q0 57 -23.5 100.5t-63.5 72t-91.5 51t-108.5 40l-114 35t-108.5 41t-91.5 53t-63.5 76t-23.5 105.5q0 122 92.5 192t245.5 70q129 0 216.5 -52t125.5 -153l-39 -16
q-71 182 -303 182q-139 0 -217 -58.5t-78 -160.5q0 -68 38 -116.5t98.5 -76.5t134 -50t147 -46.5t134 -56.5t98.5 -90t38 -138q0 -137 -104 -212.5t-277 -75.5z" />
    <glyph glyph-name="t" unicode="t" horiz-adv-x="679" 
d="M543 0q-146 0 -225.5 84t-79.5 235v723h-211v37h133q44 0 63 19.5t19 62.5v187h34v-269h381v-37h-381v-723q0 -134 69.5 -208t197.5 -74h137v-37h-137z" />
    <glyph glyph-name="u" unicode="u" horiz-adv-x="1239" 
d="M1018 1079h39v-1079h-39v242q-35 -105 -146 -183.5t-264 -78.5q-205 0 -323.5 120t-118.5 320v659h39v-657q0 -187 108.5 -297t292.5 -109q87 1 165 32t130.5 80t83.5 110t33 122v719z" />
    <glyph glyph-name="v" unicode="v" horiz-adv-x="1064" 
d="M991 1079h43l-485 -1079h-33l-485 1079h45l456 -1024z" />
    <glyph glyph-name="w" unicode="w" horiz-adv-x="1511" 
d="M1423 1079h41l-311 -1079h-41l-356 1026l-357 -1026h-41l-311 1079h41l293 -1016l354 1016h43l352 -1016z" />
    <glyph glyph-name="x" unicode="x" horiz-adv-x="980" 
d="M958 0h-49l-422 526l-421 -526h-46l445 553l-422 526h49l404 -501l395 501h47l-420 -530z" />
    <glyph glyph-name="y" unicode="y" horiz-adv-x="1064" 
d="M991 1079h43l-485 -1079l-164 -367h-41l168 375l-481 1071h43l458 -1024z" />
    <glyph glyph-name="z" unicode="z" horiz-adv-x="899" 
d="M92 37h766v-37h-811v37l739 1005h-704v37h747v-37z" />
    <glyph glyph-name="braceleft" unicode="{" horiz-adv-x="542" 
d="M485 -182q-100 0 -167.5 69.5t-67.5 216.5v322q0 61 -19.5 107.5t-52 71t-68 36.5t-73.5 12h-21v37h21q38 0 73.5 12t68 37t52 71.5t19.5 107.5v321q0 147 67.5 217t167.5 70h11v-41h-11q-91 0 -142.5 -66t-51.5 -180v-321q0 -69 -21.5 -120.5t-54 -76.5t-57.5 -36
t-45 -13q20 -2 45 -13t57.5 -36t54 -76.5t21.5 -120.5v-322q0 -113 52 -179t142 -66h11v-41h-11z" />
    <glyph glyph-name="bar" unicode="|" horiz-adv-x="442" 
d="M201 -164v1620h41v-1620h-41z" />
    <glyph glyph-name="braceright" unicode="}" horiz-adv-x="542" 
d="M47 -182v41h10q90 0 142.5 66t52.5 179v322q0 69 21.5 120.5t54 76.5t57.5 36t45 13q-20 2 -45 13t-57.5 36t-54 76.5t-21.5 120.5v321q0 113 -51.5 179.5t-143.5 66.5h-10v41h10q100 0 168 -70t68 -217v-321q0 -61 19.5 -107.5t52 -71.5t68 -37t73.5 -12h20v-37h-20
q-38 0 -73.5 -12t-68 -36.5t-52 -71t-19.5 -107.5v-322q0 -147 -68 -216.5t-168 -69.5h-10z" />
    <glyph glyph-name="asciitilde" unicode="~" horiz-adv-x="1075" 
d="M721 502q-54 0 -105 18t-85.5 40t-82 40t-94.5 18q-56 0 -104.5 -22t-67.5 -57l-30 22q24 45 77.5 73t124.5 28q54 0 105 -18.5t85.5 -40t82 -40t94.5 -18.5q56 0 104.5 22.5t67.5 57.5l31 -23q-24 -44 -78 -72t-125 -28z" />
    <glyph glyph-name="uni00A0" unicode="&#xa0;" horiz-adv-x="524" 
 />
    <glyph glyph-name="exclamdown" unicode="&#xa1;" horiz-adv-x="413" 
d="M207 973q-28 0 -46 17.5t-18 45.5t18 46t46 18t45.5 -18t17.5 -46t-17.5 -45.5t-45.5 -17.5zM180 -367l10 1094h37l4 -1094h-51z" />
    <glyph glyph-name="cent" unicode="&#xa2;" horiz-adv-x="1073" 
d="M987 467q-40 -127 -143.5 -203t-245.5 -80v-184h-37v184q-199 7 -328 146t-129 346q0 210 129 348.5t328 144.5v185h37v-185q140 -6 242 -81t143 -201l-37 -15q-40 124 -137.5 192.5t-233.5 68.5q-186 0 -309 -129.5t-123 -327.5q0 -197 124 -326t313 -129q136 0 234 68
t136 192z" />
    <glyph glyph-name="sterling" unicode="&#xa3;" horiz-adv-x="1058" 
d="M283 655v-618h678v-37h-717v655h-176v37h176v293q0 106 42.5 193.5t127.5 141.5t198 54q147 0 239.5 -76.5t131.5 -205.5l-39 -15q-36 120 -118 189t-214 69q-157 0 -243 -100.5t-86 -249.5v-293h510v-37h-510z" />
    <glyph glyph-name="currency" unicode="&#xa4;" horiz-adv-x="1155" 
d="M1004 676q0 -172 -105 -293l123 -125l-25 -27l-125 125q-119 -116 -294 -116q-176 0 -295 116l-125 -125l-27 27l127 125q-106 118 -106 293q0 172 104 295l-125 125l27 26l125 -125q120 117 295 117q172 0 292 -117l125 125l27 -26l-125 -123q107 -126 107 -297z
M190 676q0 -173 112.5 -287.5t275.5 -114.5t275 114.5t112 287.5q0 174 -112.5 287.5t-274.5 113.5t-275 -113.5t-113 -287.5z" />
    <glyph glyph-name="yen" unicode="&#xa5;" horiz-adv-x="1101" 
d="M1044 1352l-466 -772h276v-37h-287v-244h287v-37h-287v-262h-39v262h-286v37h286v244h-286v37h282l-467 772h45l449 -748l448 748h45z" />
    <glyph glyph-name="brokenbar" unicode="&#xa6;" horiz-adv-x="442" 
d="M201 819v637h41v-637h-41zM201 -164v637h41v-637h-41z" />
    <glyph glyph-name="section" unicode="&#xa7;" horiz-adv-x="972" 
d="M688 338q137 -80 137 -232q0 -136 -98.5 -212t-249.5 -76q-308 0 -385 237l37 15q67 -215 346 -215q136 0 223.5 65.5t87.5 181.5q0 73 -36.5 125.5t-94.5 82t-128.5 52.5t-140.5 46t-128 53.5t-94.5 84.5t-36.5 130q0 100 63 165.5t172 86.5q-90 38 -140 94.5t-50 148.5
q0 122 92 192.5t244 70.5q127 0 204.5 -51t116.5 -154l-36 -15q-37 95 -104 139t-181 44q-140 0 -218.5 -59t-78.5 -162q0 -55 22.5 -97.5t60.5 -69t87 -47.5t103 -37.5t108.5 -33.5t103.5 -41t87 -55t60.5 -80.5t22.5 -112.5q0 -205 -178 -264zM166 680q0 -64 29 -110
t84 -75t109.5 -48t131 -42.5t123.5 -44.5q184 49 184 238q0 38 -10.5 70.5t-25.5 56.5t-43 45.5t-52 35.5t-63 29.5t-66 24t-71.5 23t-69.5 22.5q-124 -12 -192 -71t-68 -154z" />
    <glyph glyph-name="dieresis" unicode="&#xa8;" horiz-adv-x="567" 
d="M135 1323q-29 0 -51.5 21.5t-22.5 50.5t22 50t52 21q28 0 50 -21t22 -50t-22 -50.5t-50 -21.5zM457 1323q-28 0 -50 21.5t-22 50.5t22 50t50 21q29 0 51 -21t22 -50t-22 -50.5t-51 -21.5z" />
    <glyph glyph-name="copyright" unicode="&#xa9;" horiz-adv-x="1572" 
d="M788 -20q-145 0 -270.5 52t-214 143.5t-139.5 221t-51 279.5q0 195 86.5 355t241.5 251.5t347 91.5q144 0 270 -54t214.5 -146.5t139 -222t50.5 -275.5q0 -150 -50.5 -279.5t-139.5 -221t-214 -143.5t-270 -52zM788 16q132 0 248 48.5t201 134t134.5 209.5t49.5 268
q0 183 -84 335t-229 239t-320 87q-176 0 -321.5 -87t-229 -238.5t-83.5 -335.5q0 -145 49 -268.5t133.5 -209t201.5 -134t250 -48.5zM799 272q-170 0 -280.5 115.5t-110.5 290.5t110 289t279 114q123 0 212 -62t124 -171l-39 -14q-30 100 -108.5 154t-188.5 54
q-155 0 -251.5 -102t-96.5 -262q0 -162 97 -263.5t253 -101.5q112 0 190.5 53.5t108.5 153.5l39 -14q-35 -109 -124.5 -171.5t-213.5 -62.5z" />
    <glyph glyph-name="ordfeminine" unicode="&#xaa;" horiz-adv-x="802" 
d="M629 1663h35v-582h-35v158q-31 -78 -98.5 -124t-157.5 -46q-120 0 -201.5 86t-81.5 217q0 130 82.5 216.5t200.5 86.5q90 0 157.5 -46t98.5 -124v158zM375 1106q112 0 181 75t69 191q0 115 -69.5 190.5t-180.5 75.5q-102 0 -175 -76t-73 -190q0 -115 72.5 -190.5
t175.5 -75.5z" />
    <glyph glyph-name="guillemotleft" unicode="&#xab;" horiz-adv-x="798" 
d="M313 190l-215 334l215 334h47l-215 -334l215 -334h-47zM612 190l-215 334l215 334h47l-215 -334l215 -334h-47z" />
    <glyph glyph-name="logicalnot" unicode="&#xac;" horiz-adv-x="1146" 
d="M137 713h844v-430h-41v389h-803v41z" />
    <glyph glyph-name="registered" unicode="&#xae;" horiz-adv-x="985" 
d="M494 1491q165 0 277 -114.5t112 -276.5t-112 -276.5t-277 -114.5t-278.5 114.5t-113.5 276.5t113.5 276.5t278.5 114.5zM494 741q150 0 253 104.5t103 254.5q0 148 -103 252t-253 104q-148 0 -253.5 -104.5t-105.5 -251.5q0 -149 105.5 -254t253.5 -105zM664 1227
q0 -54 -36.5 -86.5t-99.5 -32.5h-59l193 -221h-44l-190 221h-20v-221h-33v459h153q63 0 99.5 -32.5t36.5 -86.5zM408 1315v-176h120q49 0 76 24t27 64t-27 64t-76 24h-120z" />
    <glyph glyph-name="macron" unicode="&#xaf;" horiz-adv-x="550" 
d="M61 1376v37h510v-37h-510z" />
    <glyph glyph-name="degree" unicode="&#xb0;" horiz-adv-x="700" 
d="M350 936q-106 0 -177 70.5t-71 177.5t71 177.5t177 70.5t177 -70.5t71 -177.5t-71 -177.5t-177 -70.5zM350 975q87 0 147 59.5t60 149.5t-60 149.5t-147 59.5t-147 -59.5t-60 -149.5t60 -149.5t147 -59.5z" />
    <glyph glyph-name="plusminus" unicode="&#xb1;" horiz-adv-x="1089" 
d="M565 717h402v-41h-402v-449h-41v449h-401v41h401v420h41v-420zM123 90v41h844v-41h-844z" />
    <glyph glyph-name="uni00B2" unicode="&#xb2;" horiz-adv-x="684" 
d="M182 745h369v-34h-424v24l260 293q113 125 113 221q0 63 -44.5 105.5t-113.5 42.5q-62 0 -110.5 -35.5t-65.5 -99.5l-37 12q19 70 76 114t135 44q87 0 142 -51.5t55 -131.5q0 -106 -121 -241z" />
    <glyph glyph-name="uni00B3" unicode="&#xb3;" horiz-adv-x="663" 
d="M342 1120q90 0 148.5 -57.5t58.5 -147.5q0 -92 -61.5 -153.5t-161.5 -61.5q-87 0 -148.5 44.5t-79.5 109.5l35 14q18 -59 70 -96t123 -37q85 0 135.5 51t50.5 129q0 81 -51.5 129t-124.5 48h-66v28l228 269h-373v34h418v-32l-230 -271h29z" />
    <glyph glyph-name="acute" unicode="&#xb4;" horiz-adv-x="378" 
d="M80 1270l-19 28l363 220l20 -31z" />
    <glyph glyph-name="paragraph" unicode="&#xb6;" horiz-adv-x="1183" 
d="M971 1423v-1628h-39v1587h-113v-1587h-39v1587h-112v-716h-176q-198 0 -313.5 102t-115.5 276t115.5 276.5t313.5 102.5h479z" />
    <glyph glyph-name="periodcentered" unicode="&#xb7;" horiz-adv-x="421" 
d="M211 575q-28 0 -46 18t-18 46t18 45.5t46 17.5t45.5 -17.5t17.5 -45.5t-17.5 -46t-45.5 -18z" />
    <glyph glyph-name="cedilla" unicode="&#xb8;" horiz-adv-x="464" 
d="M256 -489q-122 0 -195 94l27 24q66 -82 168 -82q72 0 117 42t45 102q0 62 -47.5 104.5t-118.5 42.5h-37l-10 17l76 155h38l-67 -139q92 0 147.5 -51.5t55.5 -128.5q0 -75 -53.5 -127.5t-145.5 -52.5z" />
    <glyph glyph-name="uni00B9" unicode="&#xb9;" horiz-adv-x="534" 
d="M311 745h127v-34h-311v34h147v547h-143v35h143v96h37v-678z" />
    <glyph glyph-name="ordmasculine" unicode="&#xba;" horiz-adv-x="765" 
d="M383 1069q-130 0 -211.5 86.5t-81.5 214.5q0 131 81.5 218t211.5 87q129 0 211 -87t82 -218q0 -130 -82 -215.5t-211 -85.5zM383 1102q115 0 184.5 76t69.5 192q0 118 -69.5 194t-184.5 76q-114 0 -185 -76.5t-71 -193.5q0 -116 71 -192t185 -76z" />
    <glyph glyph-name="guillemotright" unicode="&#xbb;" horiz-adv-x="798" 
d="M139 190l215 334l-215 334h47l215 -334l-215 -334h-47zM438 190l215 334l-215 334h47l215 -334l-215 -334h-47z" />
    <glyph glyph-name="onequarter" unicode="&#xbc;" horiz-adv-x="1189" 
d="M94 711v34h148v547h-144v35h144v96h37v-678h127v-34h-312zM1030 1423h47l-841 -1423h-48zM1104 221v-35h-98v-186h-37v186h-371v25l371 502h37v-492h98zM969 221v432l-320 -432h320z" />
    <glyph glyph-name="onehalf" unicode="&#xbd;" horiz-adv-x="1253" 
d="M94 711v34h148v547h-144v35h144v96h37v-678h127v-34h-312zM1020 1423h47l-842 -1423h-47zM803 35h368v-35h-423v25l260 292q112 123 112 222q0 63 -44 105t-113 42q-62 0 -111 -35.5t-66 -99.5l-36 12q19 70 76 114t135 44q87 0 141.5 -51t54.5 -131q0 -107 -121 -242z
" />
    <glyph glyph-name="threequarters" unicode="&#xbe;" horiz-adv-x="1191" 
d="M518 915q0 -92 -61.5 -153.5t-161.5 -61.5q-87 0 -148 44.5t-79 109.5l34 14q18 -59 70 -96t123 -37q85 0 135.5 51t50.5 129q0 81 -51.5 129t-124.5 48h-65v28l227 269h-373v34h418v-32l-229 -271h28q90 0 148.5 -57.5t58.5 -147.5zM1055 1423h47l-842 -1423h-47z
M991 713v-492h99v-35h-99v-186h-37v186h-370v25l370 502h37zM954 221v432l-319 -432h319z" />
    <glyph glyph-name="questiondown" unicode="&#xbf;" horiz-adv-x="843" 
d="M498 973q-28 0 -46 17.5t-18 45.5t18 46t46 18t45.5 -18t17.5 -46t-17.5 -45.5t-45.5 -17.5zM408 -387q-156 0 -244 85t-88 232q0 66 22.5 122.5t58.5 98.5t79.5 81t86.5 80t79 85.5t58.5 106.5t22.5 135v88h41v-80q0 -81 -22.5 -148.5t-58.5 -115t-79.5 -89t-86.5 -79.5
t-79 -77.5t-58.5 -92.5t-22.5 -115q0 -131 78 -204.5t213 -73.5q127 0 218 78.5t115 199.5l39 -10q-23 -136 -128 -221.5t-244 -85.5z" />
    <glyph glyph-name="Agrave" unicode="&#xc0;" horiz-adv-x="1220" 
d="M825 1622l-12 -31l-422 176l15 35zM1147 0l-201 514h-672l-200 -514h-41l555 1423h43l557 -1423h-41zM289 551h643l-322 823z" />
    <glyph glyph-name="Aacute" unicode="&#xc1;" horiz-adv-x="1220" 
d="M846 1767l-422 -176l-12 31l419 180zM1147 0l-201 514h-672l-200 -514h-41l555 1423h43l557 -1423h-41zM289 551h643l-322 823z" />
    <glyph glyph-name="Acircumflex" unicode="&#xc2;" horiz-adv-x="1220" 
d="M608 1767l-209 -176h-49l242 211h33l241 -211h-49zM1147 0l-201 514h-672l-200 -514h-41l555 1423h43l557 -1423h-41zM289 551h643l-322 823z" />
    <glyph glyph-name="Atilde" unicode="&#xc3;" horiz-adv-x="1220" 
d="M481 1729q-50 0 -80.5 -32t-38.5 -79l-36 14q11 52 51.5 92.5t107.5 40.5q40 0 74 -17t54.5 -38t51 -38t64.5 -17q52 0 83.5 31.5t39.5 78.5l37 -14q-11 -53 -51.5 -93t-110.5 -40q-42 0 -77 17.5t-55.5 38t-50.5 38t-63 17.5zM1147 0l-201 514h-672l-200 -514h-41
l555 1423h43l557 -1423h-41zM289 551h643l-322 823z" />
    <glyph glyph-name="Adieresis" unicode="&#xc4;" horiz-adv-x="1220" 
d="M442 1628q-28 0 -48.5 20t-20.5 48t20.5 47.5t48.5 19.5q27 0 47.5 -20t20.5 -47t-20.5 -47.5t-47.5 -20.5zM772 1628q-26 0 -46.5 20t-20.5 48q0 27 20 47t47 20q28 0 49 -20t21 -47q0 -28 -21 -48t-49 -20zM1147 0l-201 514h-672l-200 -514h-41l555 1423h43l557 -1423
h-41zM289 551h643l-322 823z" />
    <glyph glyph-name="Aring" unicode="&#xc5;" horiz-adv-x="1220" 
d="M608 1520q-66 0 -110.5 43.5t-44.5 107.5q0 65 44.5 108.5t110.5 43.5t111 -44t45 -108t-45 -107.5t-111 -43.5zM608 1788q-51 0 -85 -33.5t-34 -83.5t34 -83.5t85 -33.5t85 33.5t34 83.5t-34 83.5t-85 33.5zM1147 0l-201 514h-672l-200 -514h-41l555 1423h43l557 -1423
h-41zM289 551h643l-322 823z" />
    <glyph glyph-name="AE" unicode="&#xc6;" horiz-adv-x="1843" 
d="M969 37h792v-37h-831v514h-584l-319 -514h-45l882 1423h883v-37h-778v-618h717v-37h-717v-694zM369 551h561v835h-43z" />
    <glyph glyph-name="Ccedilla" unicode="&#xc7;" horiz-adv-x="1486" 
d="M805 18q409 0 567 416l39 -16q-81 -213 -226 -325t-372 -113l-53 -109q92 0 147.5 -51.5t55.5 -128.5q0 -75 -53.5 -127.5t-145.5 -52.5q-122 0 -195 94l27 24q66 -82 168 -82q72 0 117 42t45 102q0 62 -47.5 104.5t-118.5 42.5h-37l-10 17l61 125q-190 8 -340.5 102
t-235.5 258t-85 371q0 212 89 380t244.5 260.5t348.5 92.5q449 0 616 -438l-39 -17q-159 416 -577 416q-134 0 -252.5 -51.5t-204 -141.5t-135 -220t-49.5 -281q0 -150 49.5 -279.5t136 -220t207 -142t258.5 -51.5z" />
    <glyph glyph-name="Egrave" unicode="&#xc8;" horiz-adv-x="1120" 
d="M831 1622l-12 -31l-422 176l15 35zM244 37h794v-37h-833v1423h819v-37h-780v-618h719v-37h-719v-694z" />
    <glyph glyph-name="Eacute" unicode="&#xc9;" horiz-adv-x="1120" 
d="M852 1767l-422 -176l-12 31l420 180zM244 37h794v-37h-833v1423h819v-37h-780v-618h719v-37h-719v-694z" />
    <glyph glyph-name="Ecircumflex" unicode="&#xca;" horiz-adv-x="1120" 
d="M614 1767l-208 -176h-50l242 211h33l241 -211h-49zM244 37h794v-37h-833v1423h819v-37h-780v-618h719v-37h-719v-694z" />
    <glyph glyph-name="Edieresis" unicode="&#xcb;" horiz-adv-x="1120" 
d="M449 1628q-28 0 -49 20t-21 48q0 27 21 47t49 20q27 0 47 -20t20 -47q0 -28 -20 -48t-47 -20zM778 1628q-26 0 -46.5 20t-20.5 48q0 27 20 47t47 20q28 0 49 -20t21 -47q0 -28 -21 -48t-49 -20zM244 37h794v-37h-833v1423h819v-37h-780v-618h719v-37h-719v-694z" />
    <glyph glyph-name="Igrave" unicode="&#xcc;" horiz-adv-x="448" 
d="M430 1591l-422 176l15 35l419 -180zM205 0v1423h39v-1423h-39z" />
    <glyph glyph-name="Iacute" unicode="&#xcd;" horiz-adv-x="448" 
d="M41 1591l-12 31l420 180l14 -35zM205 0v1423h39v-1423h-39z" />
    <glyph glyph-name="Icircumflex" unicode="&#xce;" horiz-adv-x="448" 
d="M242 1802l241 -211h-49l-209 176l-209 -176h-49l242 211h33zM205 0v1423h39v-1423h-39z" />
    <glyph glyph-name="Idieresis" unicode="&#xcf;" horiz-adv-x="448" 
d="M59 1628q-28 0 -48.5 20t-20.5 48t20.5 47.5t48.5 19.5q27 0 47.5 -20t20.5 -47t-20.5 -47.5t-47.5 -20.5zM389 1628q-27 0 -47 20t-20 48q0 27 20 47t47 20q28 0 49 -20t21 -47q0 -28 -21 -48t-49 -20zM205 0v1423h39v-1423h-39z" />
    <glyph glyph-name="Eth" unicode="&#xd0;" horiz-adv-x="1466" 
d="M688 1423q141 0 264 -51.5t211.5 -143.5t139.5 -225t51 -290q0 -209 -87.5 -372.5t-239 -252t-339.5 -88.5h-475v731h-174v37h174v655h475zM688 37q176 0 318.5 83.5t225.5 238.5t83 354q0 147 -48.5 273t-132 213.5t-199 137t-247.5 49.5h-436v-618h338v-37h-338v-694
h436z" />
    <glyph glyph-name="Ntilde" unicode="&#xd1;" horiz-adv-x="1396" 
d="M569 1729q-50 0 -80 -31.5t-38 -79.5l-37 14q11 52 51.5 92.5t107.5 40.5q40 0 74 -17t54.5 -38t51 -38t64.5 -17q52 0 83.5 31.5t39.5 78.5l37 -14q-11 -53 -51.5 -93t-110.5 -40q-42 0 -77 17.5t-55.5 38t-50.5 38t-63 17.5zM1153 1423h39v-1423h-35l-913 1352v-1352
h-39v1423h35l913 -1349v1349z" />
    <glyph glyph-name="Ograve" unicode="&#xd2;" horiz-adv-x="1605" 
d="M1008 1591l-422 176l14 35l420 -180zM803 -20q-198 0 -355.5 92.5t-247 259.5t-89.5 379q0 213 89.5 380.5t247 260t355.5 92.5q197 0 354.5 -92.5t247.5 -260t90 -380.5q0 -212 -90 -379t-247.5 -259.5t-354.5 -92.5zM803 18q184 0 332.5 87.5t233.5 246.5t85 359
q0 151 -50 281t-136.5 220.5t-206.5 141.5t-258 51t-258.5 -51t-207 -141.5t-136 -220.5t-49.5 -281q0 -150 49.5 -279.5t136 -220t207 -142t258.5 -51.5z" />
    <glyph glyph-name="Oacute" unicode="&#xd3;" horiz-adv-x="1605" 
d="M618 1591l-12 31l420 180l14 -35zM803 -20q-198 0 -355.5 92.5t-247 259.5t-89.5 379q0 213 89.5 380.5t247 260t355.5 92.5q197 0 354.5 -92.5t247.5 -260t90 -380.5q0 -212 -90 -379t-247.5 -259.5t-354.5 -92.5zM803 18q184 0 332.5 87.5t233.5 246.5t85 359
q0 151 -50 281t-136.5 220.5t-206.5 141.5t-258 51t-258.5 -51t-207 -141.5t-136 -220.5t-49.5 -281q0 -150 49.5 -279.5t136 -220t207 -142t258.5 -51.5z" />
    <glyph glyph-name="Ocircumflex" unicode="&#xd4;" horiz-adv-x="1605" 
d="M803 1767l-209 -176h-49l241 211h33l242 -211h-49zM803 1444q197 0 354.5 -92.5t247.5 -260t90 -380.5q0 -212 -90 -379t-247.5 -259.5t-354.5 -92.5q-198 0 -355.5 92.5t-247 259.5t-89.5 379q0 213 89.5 380.5t247 260t355.5 92.5zM803 18q184 0 332.5 87.5
t233.5 246.5t85 359q0 151 -50 281t-136.5 220.5t-206.5 141.5t-258 51t-258.5 -51t-207 -141.5t-136 -220.5t-49.5 -281q0 -150 49.5 -279.5t136 -220t207 -142t258.5 -51.5z" />
    <glyph glyph-name="Otilde" unicode="&#xd5;" horiz-adv-x="1605" 
d="M922 1618q-42 0 -77 17.5t-55.5 38t-50.5 38t-63 17.5q-50 0 -80.5 -32t-38.5 -79l-37 14q11 52 52 92.5t108 40.5q40 0 74 -17t54.5 -38t51 -38t64.5 -17q52 0 83.5 31.5t39.5 78.5l36 -14q-11 -53 -51 -93t-110 -40zM803 -20q-198 0 -355.5 92.5t-247 259.5t-89.5 379
q0 213 89.5 380.5t247 260t355.5 92.5q197 0 354.5 -92.5t247.5 -260t90 -380.5q0 -212 -90 -379t-247.5 -259.5t-354.5 -92.5zM803 18q184 0 332.5 87.5t233.5 246.5t85 359q0 151 -50 281t-136.5 220.5t-206.5 141.5t-258 51t-258.5 -51t-207 -141.5t-136 -220.5
t-49.5 -281q0 -150 49.5 -279.5t136 -220t207 -142t258.5 -51.5z" />
    <glyph glyph-name="Odieresis" unicode="&#xd6;" horiz-adv-x="1605" 
d="M637 1628q-28 0 -49 20t-21 48q0 27 21 47t49 20q27 0 47.5 -20t20.5 -47t-20.5 -47.5t-47.5 -20.5zM967 1628q-27 0 -47.5 20.5t-20.5 47.5t20.5 47t47.5 20q28 0 48.5 -19.5t20.5 -47.5t-20.5 -48t-48.5 -20zM803 -20q-198 0 -355.5 92.5t-247 259.5t-89.5 379
q0 213 89.5 380.5t247 260t355.5 92.5q197 0 354.5 -92.5t247.5 -260t90 -380.5q0 -212 -90 -379t-247.5 -259.5t-354.5 -92.5zM803 18q184 0 332.5 87.5t233.5 246.5t85 359q0 151 -50 281t-136.5 220.5t-206.5 141.5t-258 51t-258.5 -51t-207 -141.5t-136 -220.5
t-49.5 -281q0 -150 49.5 -279.5t136 -220t207 -142t258.5 -51.5z" />
    <glyph glyph-name="multiply" unicode="&#xd7;" horiz-adv-x="978" 
d="M848 926l-330 -330l330 -330l-29 -28l-330 329l-329 -329l-29 28l330 330l-330 330l29 28l329 -329l330 329z" />
    <glyph glyph-name="Oslash" unicode="&#xd8;" horiz-adv-x="1611" 
d="M1303 1239q94 -98 145 -233.5t51 -294.5q0 -212 -90 -379t-247.5 -259.5t-354.5 -92.5q-136 0 -256.5 46t-210.5 130l-145 -162l-29 29l143 161q-92 99 -143 234t-51 293q0 213 89.5 380.5t247 260t355.5 92.5q275 0 467 -176l143 159l29 -26zM156 711q0 -301 182 -496
l909 1022q-182 168 -440 168q-138 0 -258.5 -51t-207 -141.5t-136 -220.5t-49.5 -281zM807 18q184 0 332.5 87.5t233.5 246.5t85 359q0 300 -184 497l-907 -1022q182 -168 440 -168z" />
    <glyph glyph-name="Ugrave" unicode="&#xd9;" horiz-adv-x="1366" 
d="M901 1622l-12 -31l-422 176l14 35zM1139 1423h39v-921q0 -108 -31 -201.5t-91 -165.5t-155.5 -113.5t-216.5 -41.5q-98 0 -179.5 27t-139.5 74.5t-98.5 113.5t-59.5 143.5t-19 163.5v921h39v-919q0 -102 29 -189.5t84.5 -154.5t144 -105.5t199.5 -38.5q110 0 198 38.5
t143.5 106t84.5 155t29 188.5v919z" />
    <glyph glyph-name="Uacute" unicode="&#xda;" horiz-adv-x="1366" 
d="M922 1767l-422 -176l-13 31l420 180zM1139 1423h39v-921q0 -108 -31 -201.5t-91 -165.5t-155.5 -113.5t-216.5 -41.5q-98 0 -179.5 27t-139.5 74.5t-98.5 113.5t-59.5 143.5t-19 163.5v921h39v-919q0 -102 29 -189.5t84.5 -154.5t144 -105.5t199.5 -38.5q110 0 198 38.5
t143.5 106t84.5 155t29 188.5v919z" />
    <glyph glyph-name="Ucircumflex" unicode="&#xdb;" horiz-adv-x="1366" 
d="M684 1767l-209 -176h-49l242 211h32l242 -211h-49zM1139 1423h39v-921q0 -108 -31 -201.5t-91 -165.5t-155.5 -113.5t-216.5 -41.5q-98 0 -179.5 27t-139.5 74.5t-98.5 113.5t-59.5 143.5t-19 163.5v921h39v-919q0 -102 29 -189.5t84.5 -154.5t144 -105.5t199.5 -38.5
q110 0 198 38.5t143.5 106t84.5 155t29 188.5v919z" />
    <glyph glyph-name="Udieresis" unicode="&#xdc;" horiz-adv-x="1366" 
d="M518 1628q-28 0 -48.5 20t-20.5 48t20.5 47.5t48.5 19.5q27 0 47.5 -20t20.5 -47t-20.5 -47.5t-47.5 -20.5zM848 1628q-27 0 -47.5 20.5t-20.5 47.5t20.5 47t47.5 20q28 0 49 -20t21 -47q0 -28 -21 -48t-49 -20zM1139 1423h39v-921q0 -108 -31 -201.5t-91 -165.5
t-155.5 -113.5t-216.5 -41.5q-98 0 -179.5 27t-139.5 74.5t-98.5 113.5t-59.5 143.5t-19 163.5v921h39v-919q0 -102 29 -189.5t84.5 -154.5t144 -105.5t199.5 -38.5q110 0 198 38.5t143.5 106t84.5 155t29 188.5v919z" />
    <glyph glyph-name="Yacute" unicode="&#xdd;" horiz-adv-x="1179" 
d="M829 1767l-421 -176l-13 31l420 180zM1149 1423l-541 -831v-592h-39v598l-536 825h45l514 -790l512 790h45z" />
    <glyph glyph-name="Thorn" unicode="&#xde;" horiz-adv-x="1204" 
d="M678 1106q197 0 312.5 -102.5t115.5 -276.5t-115.5 -276.5t-312.5 -102.5h-434v-348h-39v1423h39v-317h434zM678 387q183 0 285 92t102 248t-102 249t-285 93h-434v-682h434z" />
    <glyph glyph-name="germandbls" unicode="&#xdf;" horiz-adv-x="1220" 
d="M764 811q162 -23 260 -139.5t98 -286.5q0 -181 -116.5 -293t-292.5 -112q-166 0 -272 87.5t-140 229.5l35 16q26 -133 123 -215t254 -82q166 0 268 104t102 265q0 174 -114 287.5t-322 113.5v48q92 0 164 30.5t113.5 79.5t62.5 105t21 114q0 142 -99 230t-266 88
q-192 0 -307 -118.5t-115 -315.5v-1047h-39v1047q0 214 126 342.5t335 128.5q186 0 295 -100t109 -255q0 -127 -72 -223.5t-211 -128.5z" />
    <glyph glyph-name="agrave" unicode="&#xe0;" horiz-adv-x="1327" 
d="M807 1298l-19 -28l-364 217l20 31zM1106 1079h39v-1079h-39v326q-55 -158 -182.5 -252t-296.5 -94q-227 0 -377 159.5t-150 401.5q0 157 68.5 285.5t189.5 201t269 72.5q169 0 297 -93t182 -251v323zM623 16q212 0 347.5 147.5t135.5 377.5t-134.5 376t-348.5 146
q-206 0 -345 -150t-139 -372q0 -225 138.5 -375t345.5 -150z" />
    <glyph glyph-name="aacute" unicode="&#xe1;" horiz-adv-x="1327" 
d="M848 1487l-365 -217l-18 28l362 220zM1106 1079h39v-1079h-39v326q-55 -158 -182.5 -252t-296.5 -94q-227 0 -377 159.5t-150 401.5q0 157 68.5 285.5t189.5 201t269 72.5q169 0 297 -93t182 -251v323zM623 16q212 0 347.5 147.5t135.5 377.5t-134.5 376t-348.5 146
q-206 0 -345 -150t-139 -372q0 -225 138.5 -375t345.5 -150z" />
    <glyph glyph-name="acircumflex" unicode="&#xe2;" horiz-adv-x="1327" 
d="M641 1481l-221 -211h-49l254 248h32l254 -248h-49zM1106 1079h39v-1079h-39v326q-55 -158 -182.5 -252t-296.5 -94q-227 0 -377 159.5t-150 401.5q0 157 68.5 285.5t189.5 201t269 72.5q169 0 297 -93t182 -251v323zM623 16q212 0 347.5 147.5t135.5 377.5t-134.5 376
t-348.5 146q-206 0 -345 -150t-139 -372q0 -225 138.5 -375t345.5 -150z" />
    <glyph glyph-name="atilde" unicode="&#xe3;" horiz-adv-x="1327" 
d="M514 1432q-50 0 -80.5 -32t-38.5 -79l-37 14q11 52 52 92.5t108 40.5q40 0 74 -17t54.5 -38t51 -38t64.5 -17q52 0 83.5 31.5t39.5 78.5l37 -14q-11 -53 -51.5 -93t-110.5 -40q-42 0 -77 17.5t-55.5 38t-50.5 38t-63 17.5zM1106 1079h39v-1079h-39v326
q-55 -158 -182.5 -252t-296.5 -94q-227 0 -377 159.5t-150 401.5q0 157 68.5 285.5t189.5 201t269 72.5q169 0 297 -93t182 -251v323zM623 16q212 0 347.5 147.5t135.5 377.5t-134.5 376t-348.5 146q-206 0 -345 -150t-139 -372q0 -225 138.5 -375t345.5 -150z" />
    <glyph glyph-name="adieresis" unicode="&#xe4;" horiz-adv-x="1327" 
d="M479 1323q-29 0 -51 21.5t-22 50.5t22 50t51 21q28 0 50 -21t22 -50t-22 -50.5t-50 -21.5zM801 1323q-28 0 -50 21.5t-22 50.5t22 50t50 21q29 0 51 -21t22 -50t-22 -50.5t-51 -21.5zM1106 1079h39v-1079h-39v326q-55 -158 -182.5 -252t-296.5 -94q-227 0 -377 159.5
t-150 401.5q0 157 68.5 285.5t189.5 201t269 72.5q169 0 297 -93t182 -251v323zM623 16q212 0 347.5 147.5t135.5 377.5t-134.5 376t-348.5 146q-206 0 -345 -150t-139 -372q0 -225 138.5 -375t345.5 -150z" />
    <glyph glyph-name="aring" unicode="&#xe5;" horiz-adv-x="1327" 
d="M641 1217q-66 0 -111 43.5t-45 107.5t45 108t111 44t111 -44t45 -108t-45 -107.5t-111 -43.5zM641 1485q-51 0 -85 -33.5t-34 -83.5t34 -83.5t85 -33.5t85 33.5t34 83.5t-34 83.5t-85 33.5zM1106 1079h39v-1079h-39v326q-55 -158 -182.5 -252t-296.5 -94
q-227 0 -377 159.5t-150 401.5q0 157 68.5 285.5t189.5 201t269 72.5q169 0 297 -93t182 -251v323zM623 16q212 0 347.5 147.5t135.5 377.5t-134.5 376t-348.5 146q-206 0 -345 -150t-139 -372q0 -225 138.5 -375t345.5 -150z" />
    <glyph glyph-name="ae" unicode="&#xe6;" horiz-adv-x="2217" 
d="M1626 1100q217 0 356.5 -151t139.5 -384v-35h-977q3 -221 140 -367.5t341 -146.5q347 0 447 297l34 -14q-52 -155 -175.5 -237t-305.5 -82q-168 0 -296.5 94t-184.5 252v-326h-39v326q-55 -158 -182.5 -252t-296.5 -94q-227 0 -377 159.5t-150 401.5q0 157 68.5 285.5
t189.5 201t269 72.5q169 0 297 -93t182 -251v323h39v-331q56 159 185.5 255.5t295.5 96.5zM623 16q212 0 347.5 147.5t135.5 377.5t-134.5 376t-348.5 146q-206 0 -345 -150t-139 -372q0 -225 138.5 -375t345.5 -150zM1145 565h938v4q0 216 -128.5 355t-328.5 139
q-198 0 -335 -142t-146 -356z" />
    <glyph glyph-name="ccedilla" unicode="&#xe7;" horiz-adv-x="1173" 
d="M1102 299q-47 -147 -167.5 -231.5t-285.5 -87.5l-53 -109q92 0 147.5 -51.5t55.5 -128.5q0 -75 -53.5 -127.5t-145.5 -52.5q-121 0 -194 94l26 24q66 -82 168 -82q72 0 117 42t45 102q0 62 -47.5 104.5t-118.5 42.5h-37l-10 17l61 125q-148 7 -264.5 80.5t-181 198.5
t-64.5 280q0 243 151.5 401t383.5 158q167 0 290.5 -85.5t170.5 -234.5l-37 -14q-44 141 -156.5 219t-267.5 78q-214 0 -355 -147.5t-141 -374.5t141.5 -375t358.5 -148q156 0 269 78t157 219z" />
    <glyph glyph-name="egrave" unicode="&#xe8;" horiz-adv-x="1212" 
d="M793 1296l-19 -28l-364 217l20 31zM621 1100q217 0 356 -151t139 -384v-35h-977q3 -221 140.5 -367.5t341.5 -146.5q346 0 446 297l35 -14q-52 -155 -175.5 -237t-305.5 -82q-224 0 -372.5 159t-148.5 400q0 117 40 221t109.5 178.5t166 118t205.5 43.5zM139 567h938v2
q0 217 -128 355.5t-328 138.5q-197 0 -334 -141.5t-148 -354.5z" />
    <glyph glyph-name="eacute" unicode="&#xe9;" horiz-adv-x="1212" 
d="M834 1485l-365 -217l-18 28l362 220zM621 1100q217 0 356 -151t139 -384v-35h-977q3 -221 140.5 -367.5t341.5 -146.5q346 0 446 297l35 -14q-52 -155 -175.5 -237t-305.5 -82q-224 0 -372.5 159t-148.5 400q0 117 40 221t109.5 178.5t166 118t205.5 43.5zM139 567h938v2
q0 217 -128 355.5t-328 138.5q-197 0 -334 -141.5t-148 -354.5z" />
    <glyph glyph-name="ecircumflex" unicode="&#xea;" horiz-adv-x="1212" 
d="M627 1479l-221 -211h-50l254 248h33l254 -248h-49zM621 1100q217 0 356 -151t139 -384v-35h-977q3 -221 140.5 -367.5t341.5 -146.5q346 0 446 297l35 -14q-52 -155 -175.5 -237t-305.5 -82q-224 0 -372.5 159t-148.5 400q0 117 40 221t109.5 178.5t166 118t205.5 43.5z
M139 567h938v2q0 217 -128 355.5t-328 138.5q-197 0 -334 -141.5t-148 -354.5z" />
    <glyph glyph-name="edieresis" unicode="&#xeb;" horiz-adv-x="1212" 
d="M465 1321q-29 0 -51.5 21.5t-22.5 50.5t22 50t52 21q28 0 50 -21t22 -50t-22 -50.5t-50 -21.5zM786 1321q-28 0 -49.5 21.5t-21.5 50.5t21.5 50t49.5 21q30 0 52 -21t22 -50t-22.5 -50.5t-51.5 -21.5zM621 1100q217 0 356 -151t139 -384v-35h-977q3 -221 140.5 -367.5
t341.5 -146.5q346 0 446 297l35 -14q-52 -155 -175.5 -237t-305.5 -82q-224 0 -372.5 159t-148.5 400q0 117 40 221t109.5 178.5t166 118t205.5 43.5zM139 567h938v2q0 217 -128 355.5t-328 138.5q-197 0 -334 -141.5t-148 -354.5z" />
    <glyph glyph-name="igrave" unicode="&#xec;" horiz-adv-x="403" 
d="M348 1270l-364 217l20 31l363 -220zM182 0v1079h39v-1079h-39z" />
    <glyph glyph-name="iacute" unicode="&#xed;" horiz-adv-x="403" 
d="M43 1270l-18 28l362 220l21 -31zM182 0v1079h39v-1079h-39z" />
    <glyph glyph-name="icircumflex" unicode="&#xee;" horiz-adv-x="403" 
d="M217 1518l254 -248h-49l-221 211l-221 -211h-50l254 248h33zM182 0v1079h39v-1079h-39z" />
    <glyph glyph-name="idieresis" unicode="&#xef;" horiz-adv-x="403" 
d="M39 1323q-29 0 -51.5 21.5t-22.5 50.5t22 50t52 21q28 0 50 -21t22 -50t-22 -50.5t-50 -21.5zM360 1323q-28 0 -49.5 21.5t-21.5 50.5t21.5 50t49.5 21q30 0 52 -21t22 -50t-22.5 -50.5t-51.5 -21.5zM182 0v1079h39v-1079h-39z" />
    <glyph glyph-name="eth" unicode="&#xf0;" horiz-adv-x="1282" 
d="M639 1452q249 -121 393 -357.5t144 -543.5q0 -262 -149.5 -416.5t-387.5 -154.5q-154 0 -278 71.5t-192.5 194.5t-68.5 272q0 150 68.5 273.5t192.5 195.5t278 72q334 0 475 -291q-46 229 -178 395.5t-328 257.5l-258 -258l-26 27l247 248q-189 80 -419 80l20 38
q230 0 432 -86l184 185l27 -27zM639 16q221 0 358.5 140t137.5 370q0 137 -62 250t-176.5 179.5t-257.5 66.5q-218 0 -359 -144t-141 -360q0 -213 141.5 -357.5t358.5 -144.5z" />
    <glyph glyph-name="ntilde" unicode="&#xf1;" horiz-adv-x="1261" 
d="M520 1430q-50 0 -80.5 -32t-38.5 -79l-36 14q11 52 51.5 92.5t107.5 40.5q40 0 74 -17t54.5 -38t51 -38t64.5 -17q52 0 83.5 31.5t39.5 78.5l37 -14q-11 -53 -51.5 -93t-110.5 -40q-42 0 -77 17.5t-55.5 38t-50.5 38t-63 17.5zM641 1100q219 0 337 -122.5t118 -338.5
v-639h-39v637q0 202 -107.5 314.5t-304.5 111.5q-91 -1 -171.5 -32.5t-134 -83.5t-85 -117.5t-33.5 -133.5v-696h-39v1079h39v-256q35 113 148.5 195t271.5 82z" />
    <glyph glyph-name="ograve" unicode="&#xf2;" horiz-adv-x="1275" 
d="M786 1268l-364 217l20 31l363 -220zM639 -20q-235 0 -387 158.5t-152 400.5q0 160 68.5 288t192 200.5t278.5 72.5q234 0 385.5 -158.5t151.5 -402.5q0 -242 -151.5 -400.5t-385.5 -158.5zM639 16q219 0 358.5 148t139.5 375q0 229 -139.5 376.5t-358.5 147.5
t-359.5 -147.5t-140.5 -376.5q0 -227 140.5 -375t359.5 -148z" />
    <glyph glyph-name="oacute" unicode="&#xf3;" horiz-adv-x="1275" 
d="M481 1268l-18 28l362 220l21 -31zM639 -20q-235 0 -387 158.5t-152 400.5q0 160 68.5 288t192 200.5t278.5 72.5q234 0 385.5 -158.5t151.5 -402.5q0 -242 -151.5 -400.5t-385.5 -158.5zM639 16q219 0 358.5 148t139.5 375q0 229 -139.5 376.5t-358.5 147.5
t-359.5 -147.5t-140.5 -376.5q0 -227 140.5 -375t359.5 -148z" />
    <glyph glyph-name="ocircumflex" unicode="&#xf4;" horiz-adv-x="1275" 
d="M639 1479l-221 -211h-49l254 248h32l254 -248h-49zM639 1100q234 0 385.5 -158.5t151.5 -402.5q0 -242 -151.5 -400.5t-385.5 -158.5q-235 0 -387 158.5t-152 400.5q0 160 68.5 288t192 200.5t278.5 72.5zM639 16q219 0 358.5 148t139.5 375q0 229 -139.5 376.5
t-358.5 147.5t-359.5 -147.5t-140.5 -376.5q0 -227 140.5 -375t359.5 -148z" />
    <glyph glyph-name="otilde" unicode="&#xf5;" horiz-adv-x="1275" 
d="M758 1319q-42 0 -77 17.5t-55.5 38t-50.5 38t-63 17.5q-50 0 -80.5 -32t-38.5 -79l-37 14q11 52 52 92.5t108 40.5q40 0 74 -17t54.5 -38t51 -38t64.5 -17q52 0 83.5 31.5t39.5 78.5l37 -14q-11 -53 -51.5 -93t-110.5 -40zM639 -20q-235 0 -387 158.5t-152 400.5
q0 160 68.5 288t192 200.5t278.5 72.5q234 0 385.5 -158.5t151.5 -402.5q0 -242 -151.5 -400.5t-385.5 -158.5zM639 16q219 0 358.5 148t139.5 375q0 229 -139.5 376.5t-358.5 147.5t-359.5 -147.5t-140.5 -376.5q0 -227 140.5 -375t359.5 -148z" />
    <glyph glyph-name="odieresis" unicode="&#xf6;" horiz-adv-x="1275" 
d="M477 1321q-29 0 -51.5 21.5t-22.5 50.5t22 50t52 21q28 0 50 -21t22 -50t-22 -50.5t-50 -21.5zM799 1321q-28 0 -50 21.5t-22 50.5t22 50t50 21q29 0 51 -21t22 -50t-22 -50.5t-51 -21.5zM639 -20q-235 0 -387 158.5t-152 400.5q0 160 68.5 288t192 200.5t278.5 72.5
q234 0 385.5 -158.5t151.5 -402.5q0 -242 -151.5 -400.5t-385.5 -158.5zM639 16q219 0 358.5 148t139.5 375q0 229 -139.5 376.5t-358.5 147.5t-359.5 -147.5t-140.5 -376.5q0 -227 140.5 -375t359.5 -148z" />
    <glyph glyph-name="divide" unicode="&#xf7;" horiz-adv-x="1150" 
d="M584 872q-28 0 -46 18t-18 46t18 45.5t46 17.5t45.5 -17.5t17.5 -45.5t-17.5 -46t-45.5 -18zM154 569v41h843v-41h-843zM588 147q-28 0 -46 18t-18 46t18 45.5t46 17.5t45.5 -17.5t17.5 -45.5t-17.5 -46t-45.5 -18z" />
    <glyph glyph-name="oslash" unicode="&#xf8;" horiz-adv-x="1304" 
d="M1217 1016l-138 -123q111 -149 111 -354q0 -242 -151.5 -400.5t-385.5 -158.5q-248 0 -403 176l-135 -119l-25 29l135 120q-110 148 -110 353q0 244 151.5 402.5t386.5 158.5q123 0 227 -46.5t177 -131.5l135 120zM154 539q0 -188 100 -328l774 686q-67 79 -163.5 122.5
t-211.5 43.5q-219 0 -359 -147.5t-140 -376.5zM1151 539q0 189 -100 329l-772 -686q67 -79 163 -122.5t211 -43.5q219 0 358.5 148t139.5 375z" />
    <glyph glyph-name="ugrave" unicode="&#xf9;" horiz-adv-x="1239" 
d="M754 1298l-19 -28l-364 217l20 31zM1018 1079h39v-1079h-39v242q-35 -105 -146 -183.5t-264 -78.5q-205 0 -323.5 120t-118.5 320v659h39v-657q0 -187 108.5 -297t292.5 -109q87 1 165 32t130.5 80t83.5 110t33 122v719z" />
    <glyph glyph-name="uacute" unicode="&#xfa;" horiz-adv-x="1239" 
d="M795 1487l-365 -217l-18 28l362 220zM1018 1079h39v-1079h-39v242q-35 -105 -146 -183.5t-264 -78.5q-205 0 -323.5 120t-118.5 320v659h39v-657q0 -187 108.5 -297t292.5 -109q87 1 165 32t130.5 80t83.5 110t33 122v719z" />
    <glyph glyph-name="ucircumflex" unicode="&#xfb;" horiz-adv-x="1239" 
d="M588 1481l-221 -211h-50l254 248h33l254 -248h-49zM1018 1079h39v-1079h-39v242q-35 -105 -146 -183.5t-264 -78.5q-205 0 -323.5 120t-118.5 320v659h39v-657q0 -187 108.5 -297t292.5 -109q87 1 165 32t130.5 80t83.5 110t33 122v719z" />
    <glyph glyph-name="udieresis" unicode="&#xfc;" horiz-adv-x="1239" 
d="M426 1323q-29 0 -51.5 21.5t-22.5 50.5t22 50t52 21q28 0 50 -21t22 -50t-22 -50.5t-50 -21.5zM748 1323q-28 0 -50 21.5t-22 50.5t22 50t50 21q29 0 51 -21t22 -50t-22 -50.5t-51 -21.5zM1018 1079h39v-1079h-39v242q-35 -105 -146 -183.5t-264 -78.5q-205 0 -323.5 120
t-118.5 320v659h39v-657q0 -187 108.5 -297t292.5 -109q87 1 165 32t130.5 80t83.5 110t33 122v719z" />
    <glyph glyph-name="yacute" unicode="&#xfd;" horiz-adv-x="1064" 
d="M739 1487l-364 -217l-19 28l363 220zM991 1079h43l-485 -1079l-164 -367h-41l168 375l-481 1071h43l458 -1024z" />
    <glyph glyph-name="thorn" unicode="&#xfe;" horiz-adv-x="1327" 
d="M700 1100q227 0 377 -159.5t150 -401.5q0 -157 -68.5 -285.5t-189.5 -201t-269 -72.5q-169 0 -297 93t-182 251v-691h-39v1864h39v-743q55 158 182.5 252t296.5 94zM705 16q135 0 246 68.5t174 188.5t63 266q0 225 -138 374.5t-345 149.5q-212 0 -348 -147t-136 -377
t135 -376.5t349 -146.5z" />
    <glyph glyph-name="ydieresis" unicode="&#xff;" horiz-adv-x="1064" 
d="M371 1323q-29 0 -51.5 21.5t-22.5 50.5t22 50t52 21q28 0 49.5 -21t21.5 -50t-21.5 -50.5t-49.5 -21.5zM692 1323q-28 0 -49.5 21.5t-21.5 50.5t21.5 50t49.5 21q30 0 52 -21t22 -50t-22.5 -50.5t-51.5 -21.5zM991 1079h43l-485 -1079l-164 -367h-41l168 375l-481 1071
h43l458 -1024z" />
    <glyph glyph-name="Amacron" unicode="&#x100;" horiz-adv-x="1220" 
d="M862 1716v-37h-510v37h510zM1147 0l-201 514h-672l-200 -514h-41l555 1423h43l557 -1423h-41zM289 551h643l-322 823z" />
    <glyph glyph-name="amacron" unicode="&#x101;" horiz-adv-x="1327" 
d="M895 1413v-37h-510v37h510zM1106 1079h39v-1079h-39v326q-55 -158 -182.5 -252t-296.5 -94q-227 0 -377 159.5t-150 401.5q0 157 68.5 285.5t189.5 201t269 72.5q169 0 297 -93t182 -251v323zM623 16q212 0 347.5 147.5t135.5 377.5t-134.5 376t-348.5 146
q-206 0 -345 -150t-139 -372q0 -225 138.5 -375t345.5 -150z" />
    <glyph glyph-name="Abreve" unicode="&#x102;" horiz-adv-x="1220" 
d="M608 1591q-103 0 -166 63.5t-63 147.5h37q0 -69 52 -121.5t140 -52.5t140.5 52.5t52.5 121.5h37q0 -84 -63.5 -147.5t-166.5 -63.5zM1147 0l-201 514h-672l-200 -514h-41l555 1423h43l557 -1423h-41zM289 551h643l-322 823z" />
    <glyph glyph-name="abreve" unicode="&#x103;" horiz-adv-x="1327" 
d="M641 1270q-107 0 -175.5 70t-68.5 178h37q0 -93 57.5 -152t149.5 -59t149.5 59t57.5 152h37q0 -108 -68.5 -178t-175.5 -70zM1106 1079h39v-1079h-39v326q-55 -158 -182.5 -252t-296.5 -94q-227 0 -377 159.5t-150 401.5q0 157 68.5 285.5t189.5 201t269 72.5
q169 0 297 -93t182 -251v323zM623 16q212 0 347.5 147.5t135.5 377.5t-134.5 376t-348.5 146q-206 0 -345 -150t-139 -372q0 -225 138.5 -375t345.5 -150z" />
    <glyph glyph-name="Aogonek" unicode="&#x104;" horiz-adv-x="1220" 
d="M1233 -365l24 -22q-51 -64 -143 -64q-72 0 -115 46.5t-43 115.5q0 58 34 115.5t114 134.5l43 41l-201 512h-672l-200 -514h-41l555 1423h43l557 -1423l-60 -59q-75 -75 -105 -127t-30 -103q0 -56 33.5 -90.5t87.5 -34.5q78 0 119 49zM289 551h643l-322 823z" />
    <glyph glyph-name="aogonek" unicode="&#x105;" horiz-adv-x="1327" 
d="M1190 -365l24 -22q-51 -64 -143 -64q-72 0 -115 46.5t-43 115.5q0 58 34 115.5t114 134.5l45 43v322q-55 -158 -182.5 -252t-296.5 -94q-227 0 -377 159.5t-150 401.5q0 157 68.5 285.5t189.5 201t269 72.5q169 0 297 -93t182 -251v323h39v-1079l-60 -59
q-75 -75 -105 -127t-30 -103q0 -56 33.5 -90.5t87.5 -34.5q78 0 119 49zM623 16q212 0 347.5 147.5t135.5 377.5t-134.5 376t-348.5 146q-206 0 -345 -150t-139 -372q0 -225 138.5 -375t345.5 -150z" />
    <glyph glyph-name="Cacute" unicode="&#x106;" horiz-adv-x="1484" 
d="M596 1591l-12 31l420 180l14 -35zM803 -20q-198 0 -355.5 92.5t-247 259.5t-89.5 379t89 380t244.5 260.5t348.5 92.5q449 0 616 -438l-39 -17q-159 416 -577 416q-134 0 -252.5 -51.5t-204 -141.5t-135 -220t-49.5 -281q0 -150 49.5 -279.5t136 -220t207 -142
t258.5 -51.5q409 0 567 416l39 -16q-81 -214 -228 -326t-378 -112z" />
    <glyph glyph-name="cacute" unicode="&#x107;" horiz-adv-x="1173" 
d="M481 1270l-18 28l362 220l21 -31zM639 -20q-235 0 -387 158t-152 401t151.5 401t383.5 158q167 0 290.5 -85.5t170.5 -234.5l-37 -14q-44 141 -156.5 219t-267.5 78q-214 0 -355 -147.5t-141 -374.5t141.5 -375t358.5 -148q156 0 269 78t157 219l37 -14
q-47 -149 -170.5 -234t-292.5 -85z" />
    <glyph glyph-name="Cdotaccent" unicode="&#x10a;" horiz-adv-x="1484" 
d="M780 1628q-29 0 -48 19.5t-19 48.5q0 28 19 46.5t48 18.5q28 0 47 -18.5t19 -46.5q0 -29 -19 -48.5t-47 -19.5zM803 -20q-198 0 -355.5 92.5t-247 259.5t-89.5 379t89 380t244.5 260.5t348.5 92.5q449 0 616 -438l-39 -17q-159 416 -577 416q-134 0 -252.5 -51.5
t-204 -141.5t-135 -220t-49.5 -281q0 -150 49.5 -279.5t136 -220t207 -142t258.5 -51.5q409 0 567 416l39 -16q-81 -214 -228 -326t-378 -112z" />
    <glyph glyph-name="cdotaccent" unicode="&#x10b;" horiz-adv-x="1173" 
d="M639 1321q-32 0 -54 21t-22 53t22 53.5t54 21.5t54 -21.5t22 -53.5t-22 -53t-54 -21zM639 -20q-235 0 -387 158t-152 401t151.5 401t383.5 158q167 0 290.5 -85.5t170.5 -234.5l-37 -14q-44 141 -156.5 219t-267.5 78q-214 0 -355 -147.5t-141 -374.5t141.5 -375
t358.5 -148q156 0 269 78t157 219l37 -14q-47 -149 -170.5 -234t-292.5 -85z" />
    <glyph glyph-name="Ccaron" unicode="&#x10c;" horiz-adv-x="1484" 
d="M797 1591h-33l-242 211h49l209 -176l209 176h49zM803 18q409 0 567 416l39 -16q-81 -214 -228 -326t-378 -112q-198 0 -355.5 92.5t-247 259.5t-89.5 379t89 380t244.5 260.5t348.5 92.5q449 0 616 -438l-39 -17q-159 416 -577 416q-134 0 -252.5 -51.5t-204 -141.5
t-135 -220t-49.5 -281q0 -150 49.5 -279.5t136 -220t207 -142t258.5 -51.5z" />
    <glyph glyph-name="ccaron" unicode="&#x10d;" horiz-adv-x="1173" 
d="M655 1270h-32l-254 248h49l221 -211l221 211h49zM1065 313l37 -14q-47 -149 -170.5 -234t-292.5 -85q-235 0 -387 158t-152 401t151.5 401t383.5 158q167 0 290.5 -85.5t170.5 -234.5l-37 -14q-44 141 -156.5 219t-267.5 78q-214 0 -355 -147.5t-141 -374.5t141.5 -375
t358.5 -148q156 0 269 78t157 219z" />
    <glyph glyph-name="Dcaron" unicode="&#x10e;" horiz-adv-x="1458" 
d="M709 1591h-33l-242 211h49l209 -176l209 176h49zM680 1423q141 0 264 -51.5t211.5 -143.5t139.5 -225t51 -290q0 -209 -87.5 -372.5t-239 -252t-339.5 -88.5h-475v1423h475zM680 37q176 0 318.5 83.5t225.5 238.5t83 354q0 147 -48.5 273t-132 213.5t-199 137
t-247.5 49.5h-436v-1349h436z" />
    <glyph glyph-name="dcaron" unicode="&#x10f;" horiz-adv-x="1343" 
d="M1106 756v741h39v-1497h-39v326q-55 -158 -182.5 -252t-296.5 -94q-227 0 -377 159.5t-150 401.5q0 157 68.5 285.5t189.5 201t269 72.5q169 0 297 -93t182 -251zM1368 1497h37l-45 -407h-33zM623 16q212 0 347.5 147.5t135.5 377.5t-134.5 376t-348.5 146
q-206 0 -345 -150t-139 -372q0 -225 138.5 -375t345.5 -150z" />
    <glyph glyph-name="Dcroat" unicode="&#x110;" horiz-adv-x="1466" 
d="M688 1423q141 0 264 -51.5t211.5 -143.5t139.5 -225t51 -290q0 -209 -87.5 -372.5t-239 -252t-339.5 -88.5h-475v731h-174v37h174v655h475zM688 37q176 0 318.5 83.5t225.5 238.5t83 354q0 147 -48.5 273t-132 213.5t-199 137t-247.5 49.5h-436v-618h338v-37h-338v-694
h436z" />
    <glyph glyph-name="dcroat" unicode="&#x111;" horiz-adv-x="1327" 
d="M1313 1288v-37h-168v-1251h-39v326q-55 -158 -182.5 -252t-296.5 -94q-227 0 -377 159.5t-150 401.5q0 157 68.5 285.5t189.5 201t269 72.5q169 0 297 -93t182 -251v495h-344v37h344v209h39v-209h168zM623 16q212 0 347.5 147.5t135.5 377.5t-134.5 376t-348.5 146
q-206 0 -345 -150t-139 -372q0 -225 138.5 -375t345.5 -150z" />
    <glyph glyph-name="Emacron" unicode="&#x112;" horiz-adv-x="1120" 
d="M868 1716v-37h-510v37h510zM244 37h794v-37h-833v1423h819v-37h-780v-618h719v-37h-719v-694z" />
    <glyph glyph-name="emacron" unicode="&#x113;" horiz-adv-x="1212" 
d="M881 1411v-37h-510v37h510zM621 1100q217 0 356 -151t139 -384v-35h-977q3 -221 140.5 -367.5t341.5 -146.5q346 0 446 297l35 -14q-52 -155 -175.5 -237t-305.5 -82q-224 0 -372.5 159t-148.5 400q0 117 40 221t109.5 178.5t166 118t205.5 43.5zM139 567h938v2
q0 217 -128 355.5t-328 138.5q-197 0 -334 -141.5t-148 -354.5z" />
    <glyph glyph-name="Edotaccent" unicode="&#x116;" horiz-adv-x="1120" 
d="M614 1628q-29 0 -48 19.5t-19 48.5q0 28 19 46.5t48 18.5q28 0 47 -18.5t19 -46.5q0 -29 -19 -48.5t-47 -19.5zM244 37h794v-37h-833v1423h819v-37h-780v-618h719v-37h-719v-694z" />
    <glyph glyph-name="edotaccent" unicode="&#x117;" horiz-adv-x="1212" 
d="M627 1319q-32 0 -54 21t-22 53t22 53.5t54 21.5t53.5 -21.5t21.5 -53.5t-21.5 -53t-53.5 -21zM621 1100q217 0 356 -151t139 -384v-35h-977q3 -221 140.5 -367.5t341.5 -146.5q346 0 446 297l35 -14q-52 -155 -175.5 -237t-305.5 -82q-224 0 -372.5 159t-148.5 400
q0 117 40 221t109.5 178.5t166 118t205.5 43.5zM139 567h938v2q0 217 -128 355.5t-328 138.5q-197 0 -334 -141.5t-148 -354.5z" />
    <glyph glyph-name="Eogonek" unicode="&#x118;" horiz-adv-x="1120" 
d="M1083 -365l25 -22q-51 -64 -143 -64q-72 0 -115 46.5t-43 115.5q0 59 34 116.5t113 133.5l41 39h-790v1423h819v-37h-780v-618h719v-37h-719v-694h794v-37l-59 -59q-75 -75 -105 -127t-30 -103q0 -56 33.5 -90.5t87.5 -34.5q77 0 118 49z" />
    <glyph glyph-name="eogonek" unicode="&#x119;" horiz-adv-x="1212" 
d="M621 1100q217 0 356 -151t139 -384v-35h-977q3 -221 140.5 -367.5t341.5 -146.5q346 0 446 297l35 -14q-40 -117 -121 -193.5t-197 -105.5l-59 -59q-75 -75 -105 -127t-30 -103q0 -56 33.5 -90.5t87.5 -34.5q77 0 118 49l25 -22q-51 -64 -143 -64q-72 0 -115 46.5
t-43 115.5q0 59 34 116.5t113 133.5l27 27q-44 -8 -106 -8q-224 0 -372.5 159t-148.5 400q0 117 40 221t109.5 178.5t166 118t205.5 43.5zM139 567h938v2q0 217 -128 355.5t-328 138.5q-197 0 -334 -141.5t-148 -354.5z" />
    <glyph glyph-name="Ecaron" unicode="&#x11a;" horiz-adv-x="1120" 
d="M631 1591h-33l-242 211h50l208 -176l209 176h49zM244 37h794v-37h-833v1423h819v-37h-780v-618h719v-37h-719v-694z" />
    <glyph glyph-name="ecaron" unicode="&#x11b;" horiz-adv-x="1212" 
d="M643 1268h-33l-254 248h50l221 -211l221 211h49zM621 1100q217 0 356 -151t139 -384v-35h-977q3 -221 140.5 -367.5t341.5 -146.5q346 0 446 297l35 -14q-52 -155 -175.5 -237t-305.5 -82q-224 0 -372.5 159t-148.5 400q0 117 40 221t109.5 178.5t166 118t205.5 43.5z
M139 567h938v2q0 217 -128 355.5t-328 138.5q-197 0 -334 -141.5t-148 -354.5z" />
    <glyph glyph-name="Gbreve" unicode="&#x11e;" horiz-adv-x="1566" 
d="M791 1591q-103 0 -166.5 63.5t-63.5 147.5h37q0 -69 52.5 -121.5t140.5 -52.5t140 52.5t52 121.5h37q0 -84 -63 -147.5t-166 -63.5zM1470 711q0 -212 -88.5 -379t-243 -259.5t-347.5 -92.5t-347.5 92.5t-242.5 259.5t-88 379q0 213 88 380.5t242.5 260t347.5 92.5
q449 0 616 -438l-39 -17q-159 416 -577 416q-134 0 -252 -51t-202.5 -141.5t-133.5 -220.5t-49 -281q0 -200 83.5 -359t228.5 -246.5t325 -87.5q174 0 317 82.5t228.5 233t93.5 340.5h-639v37h679z" />
    <glyph glyph-name="gbreve" unicode="&#x11f;" horiz-adv-x="1327" 
d="M666 1270q-107 0 -175.5 70t-68.5 178h37q0 -93 57.5 -152t149.5 -59t149 59t57 152h37q0 -108 -68 -178t-175 -70zM1108 1079h39v-962q0 -233 -139.5 -368.5t-380.5 -135.5q-186 0 -311.5 87.5t-176.5 252.5l37 14q46 -155 162 -236t291 -81q222 0 350.5 125.5
t128.5 341.5v209q-55 -158 -182.5 -252t-296.5 -94q-227 0 -377 159.5t-150 401.5q0 157 68.5 285.5t189.5 201t269 72.5q169 0 297 -93t182 -251v323zM625 16q212 0 347.5 147.5t135.5 377.5q0 229 -134 375.5t-343 146.5q-211 0 -350.5 -149t-139.5 -375
q0 -224 138.5 -373.5t345.5 -149.5z" />
    <glyph glyph-name="Gdotaccent" unicode="&#x120;" horiz-adv-x="1566" 
d="M791 1628q-29 0 -48.5 19.5t-19.5 48.5q0 28 19.5 46.5t48.5 18.5q28 0 46.5 -18.5t18.5 -46.5q0 -29 -18.5 -48.5t-46.5 -19.5zM1470 711q0 -212 -88.5 -379t-243 -259.5t-347.5 -92.5t-347.5 92.5t-242.5 259.5t-88 379q0 213 88 380.5t242.5 260t347.5 92.5
q449 0 616 -438l-39 -17q-159 416 -577 416q-134 0 -252 -51t-202.5 -141.5t-133.5 -220.5t-49 -281q0 -200 83.5 -359t228.5 -246.5t325 -87.5q174 0 317 82.5t228.5 233t93.5 340.5h-639v37h679z" />
    <glyph glyph-name="gdotaccent" unicode="&#x121;" horiz-adv-x="1327" 
d="M666 1321q-32 0 -54 21t-22 53t22 53.5t54 21.5t53.5 -21.5t21.5 -53.5t-21.5 -53t-53.5 -21zM1108 1079h39v-962q0 -233 -139.5 -368.5t-380.5 -135.5q-186 0 -311.5 87.5t-176.5 252.5l37 14q46 -155 162 -236t291 -81q222 0 350.5 125.5t128.5 341.5v209
q-55 -158 -182.5 -252t-296.5 -94q-227 0 -377 159.5t-150 401.5q0 157 68.5 285.5t189.5 201t269 72.5q169 0 297 -93t182 -251v323zM625 16q212 0 347.5 147.5t135.5 377.5q0 229 -134 375.5t-343 146.5q-211 0 -350.5 -149t-139.5 -375q0 -224 138.5 -373.5t345.5 -149.5
z" />
    <glyph glyph-name="uni0122" unicode="&#x122;" horiz-adv-x="1566" 
d="M1470 711q0 -212 -88.5 -379t-243 -259.5t-347.5 -92.5t-347.5 92.5t-242.5 259.5t-88 379q0 213 88 380.5t242.5 260t347.5 92.5q449 0 616 -438l-39 -17q-159 416 -577 416q-134 0 -252 -51t-202.5 -141.5t-133.5 -220.5t-49 -281q0 -200 83.5 -359t228.5 -246.5
t325 -87.5q174 0 317 82.5t228.5 233t93.5 340.5h-639v37h679zM791 -102q28 0 46.5 -19.5t18.5 -50.5q0 -34 -27 -86l-84 -156l-30 11l80 153l6 14h-10q-29 0 -48.5 19.5t-19.5 48.5q0 28 19.5 47t48.5 19z" />
    <glyph glyph-name="uni0123" unicode="&#x123;" horiz-adv-x="1327" 
d="M645 1247q-28 0 -46.5 19.5t-18.5 50.5q0 36 26 86l84 156l31 -11l-80 -153l-6 -15h10q29 0 48.5 -19t19.5 -48q0 -28 -19.5 -47t-48.5 -19zM1108 1079h39v-962q0 -233 -139.5 -368.5t-380.5 -135.5q-186 0 -311.5 87.5t-176.5 252.5l37 14q46 -155 162 -236t291 -81
q222 0 350.5 125.5t128.5 341.5v209q-55 -158 -182.5 -252t-296.5 -94q-227 0 -377 159.5t-150 401.5q0 157 68.5 285.5t189.5 201t269 72.5q169 0 297 -93t182 -251v323zM625 16q212 0 347.5 147.5t135.5 377.5q0 229 -134 375.5t-343 146.5q-211 0 -350.5 -149
t-139.5 -375q0 -224 138.5 -373.5t345.5 -149.5z" />
    <glyph glyph-name="Hbar" unicode="&#x126;" horiz-adv-x="1396" 
d="M1329 1130v-36h-137v-1094h-39v731h-909v-731h-39v1094h-137v36h137v293h39v-293h909v293h39v-293h137zM1153 768v326h-909v-326h909z" />
    <glyph glyph-name="hbar" unicode="&#x127;" horiz-adv-x="1261" 
d="M641 1100q219 0 337 -122.5t118 -338.5v-639h-39v637q0 202 -107.5 314.5t-304.5 111.5q-91 -1 -171.5 -32.5t-134 -83.5t-85 -117.5t-33.5 -133.5v-696h-39v1251h-168v37h168v209h39v-209h344v-37h-344v-428q35 113 148.5 195t271.5 82z" />
    <glyph glyph-name="Itilde" unicode="&#x128;" horiz-adv-x="448" 
d="M322 1618q-34 0 -62 17.5t-44 38t-40.5 38t-50.5 17.5q-40 0 -64.5 -32t-31.5 -79l-29 14q9 52 41.5 92.5t85.5 40.5q26 0 49 -11.5t39 -27.5t31.5 -32t35.5 -27.5t42 -11.5q40 0 65.5 32t32.5 78l29 -14q-9 -53 -41 -93t-88 -40zM205 0v1423h39v-1423h-39z" />
    <glyph glyph-name="itilde" unicode="&#x129;" horiz-adv-x="403" 
d="M297 1321q-34 0 -62 17.5t-44 38t-40.5 38t-50.5 17.5q-40 0 -64.5 -32t-31.5 -79l-29 14q9 52 41.5 92.5t85.5 40.5q26 0 49 -11.5t39 -27.5t31.5 -32t35.5 -27.5t42 -11.5q40 0 65.5 32t32.5 78l29 -14q-9 -53 -41 -93t-88 -40zM182 0v1079h39v-1079h-39z" />
    <glyph glyph-name="Imacron" unicode="&#x12a;" horiz-adv-x="448" 
d="M20 1679v37h408v-37h-408zM205 0v1423h39v-1423h-39z" />
    <glyph glyph-name="imacron" unicode="&#x12b;" horiz-adv-x="403" 
d="M-4 1376v37h407v-37h-407zM182 0v1079h39v-1079h-39z" />
    <glyph glyph-name="Iogonek" unicode="&#x12e;" horiz-adv-x="448" 
d="M289 -365l24 -22q-51 -64 -143 -64q-72 0 -115 46.5t-43 115.5q0 58 34 115.5t114 134.5l45 43v1419h39v-1423l-60 -59q-75 -75 -105 -127t-30 -103q0 -56 33.5 -90.5t87.5 -34.5q78 0 119 49z" />
    <glyph glyph-name="iogonek" unicode="&#x12f;" horiz-adv-x="409" 
d="M201 1321q-32 0 -54 21t-22 53t22 53.5t54 21.5t53.5 -21.5t21.5 -53.5t-21.5 -53t-53.5 -21zM266 -365l25 -22q-51 -64 -144 -64q-72 0 -114.5 46t-42.5 116q0 59 34 116.5t113 133.5l45 43v1075h39v-1079l-59 -59q-75 -75 -105 -127t-30 -103q0 -56 33 -90.5t87 -34.5
q78 0 119 49z" />
    <glyph glyph-name="Idotaccent" unicode="&#x130;" horiz-adv-x="448" 
d="M225 1628q-29 0 -48 19.5t-19 48.5q0 28 19 46.5t48 18.5q28 0 47 -18.5t19 -46.5q0 -29 -19 -48.5t-47 -19.5zM205 0v1423h39v-1423h-39z" />
    <glyph glyph-name="dotlessi" unicode="&#x131;" horiz-adv-x="403" 
d="M182 0v1079h39v-1079h-39z" />
    <glyph glyph-name="IJ" unicode="&#x132;" horiz-adv-x="1116" 
d="M205 0v1423h39v-1423h-39zM502 0v35h108q127 0 201 81.5t74 229.5v1077h39v-1077q0 -164 -86 -255t-230 -91h-106z" />
    <glyph glyph-name="ij" unicode="&#x133;" horiz-adv-x="940" 
d="M201 1321q-32 0 -54 21t-22 53t22 53.5t54 21.5t53.5 -21.5t21.5 -53.5t-21.5 -53t-53.5 -21zM737 1319q-32 0 -53.5 21t-21.5 53t21.5 53.5t53.5 21.5t54 -21.5t22 -53.5t-22 -53t-54 -21zM182 0v1079h39v-1079h-39zM422 -367v39h22q124 0 199.5 81.5t75.5 211.5v1114
h39v-1114q0 -149 -86.5 -240.5t-231.5 -91.5h-18z" />
    <glyph glyph-name="uni0136" unicode="&#x136;" horiz-adv-x="1183" 
d="M283 754l917 -754h-63l-893 735v-735h-39v1423h39v-655l794 655h58zM641 -102q28 0 47 -20t19 -50q0 -34 -27 -86l-84 -156l-31 11l80 153l6 14h-10q-29 0 -48.5 19.5t-19.5 48.5q0 28 19.5 47t48.5 19z" />
    <glyph glyph-name="uni0137" unicode="&#x137;" horiz-adv-x="966" 
d="M266 594l699 -594h-60l-684 582v-582h-39v1497h39v-893l658 475h59zM580 -102q28 0 46.5 -19.5t18.5 -50.5q0 -34 -27 -86l-83 -156l-31 11l80 153l6 14h-10q-29 0 -48.5 19.5t-19.5 48.5q0 28 19.5 47t48.5 19z" />
    <glyph glyph-name="kgreenlandic" unicode="&#x138;" horiz-adv-x="968" 
d="M965 0h-58l-686 541v-541h-39v1079h39v-516l658 516h63l-676 -528z" />
    <glyph glyph-name="Lacute" unicode="&#x139;" horiz-adv-x="1054" 
d="M449 1802l14 -35l-422 -176l-12 31zM244 37h782v-37h-821v1423h39v-1386z" />
    <glyph glyph-name="lacute" unicode="&#x13a;" horiz-adv-x="403" 
d="M18 1665l-12 31l420 180l14 -35zM182 0v1497h39v-1497h-39z" />
    <glyph glyph-name="uni013B" unicode="&#x13b;" horiz-adv-x="1054" 
d="M244 37h782v-37h-821v1423h39v-1386zM618 -102q28 0 47 -20t19 -50q0 -34 -27 -86l-84 -156l-30 11l80 153l6 14h-11q-29 0 -48 19.5t-19 48.5q0 28 19 47t48 19z" />
    <glyph glyph-name="uni013C" unicode="&#x13c;" horiz-adv-x="403" 
d="M221 1497v-1497h-39v1497h39zM205 -102q28 0 46.5 -19.5t18.5 -50.5q0 -36 -26 -86l-84 -156l-31 11l80 153l6 14h-10q-29 0 -48.5 19.5t-19.5 48.5q0 28 19.5 47t48.5 19z" />
    <glyph glyph-name="Lcaron" unicode="&#x13d;" horiz-adv-x="1058" 
d="M813 1444l-45 -408h-33l41 408h37zM244 37h782v-37h-821v1423h39v-1386z" />
    <glyph glyph-name="lcaron" unicode="&#x13e;" horiz-adv-x="419" 
d="M182 0v1497h39v-1497h-39zM403 1090l41 407h37l-45 -407h-33z" />
    <glyph glyph-name="Ldot" unicode="&#x13f;" horiz-adv-x="1056" 
d="M244 37h782v-37h-821v1423h39v-1386zM719 690q-28 0 -46 18t-18 46t18 45.5t46 17.5t45.5 -17.5t17.5 -45.5t-17.5 -46t-45.5 -18z" />
    <glyph glyph-name="ldot" unicode="&#x140;" horiz-adv-x="456" 
d="M182 0v1497h39v-1497h-39zM438 696q-28 0 -45.5 18t-17.5 46t17.5 45.5t45.5 17.5t46 -17.5t18 -45.5t-18 -46t-46 -18z" />
    <glyph glyph-name="Lslash" unicode="&#x141;" horiz-adv-x="1110" 
d="M299 37h782v-37h-821v684l-197 -92l-16 33l213 98v700h39v-682l221 103l15 -33l-236 -109v-665z" />
    <glyph glyph-name="lslash" unicode="&#x142;" horiz-adv-x="538" 
d="M506 870l-221 -129v-741h-39v719l-195 -115l-16 29l211 123v741h39v-719l204 121z" />
    <glyph glyph-name="Nacute" unicode="&#x143;" horiz-adv-x="1396" 
d="M934 1767l-422 -176l-12 31l420 180zM1153 1423h39v-1423h-35l-913 1352v-1352h-39v1423h35l913 -1349v1349z" />
    <glyph glyph-name="nacute" unicode="&#x144;" horiz-adv-x="1261" 
d="M854 1485l-365 -217l-18 28l363 220zM641 1100q219 0 337 -122.5t118 -338.5v-639h-39v637q0 202 -107.5 314.5t-304.5 111.5q-91 -1 -171.5 -32.5t-134 -83.5t-85 -117.5t-33.5 -133.5v-696h-39v1079h39v-256q35 113 148.5 195t271.5 82z" />
    <glyph glyph-name="uni0145" unicode="&#x145;" horiz-adv-x="1396" 
d="M1153 1423h39v-1423h-35l-913 1352v-1352h-39v1423h35l913 -1349v1349zM702 -102q28 0 47 -20t19 -50q0 -34 -27 -86l-84 -156l-30 11l80 153l6 14h-11q-29 0 -48 19.5t-19 48.5q0 28 19 47t48 19z" />
    <glyph glyph-name="uni0146" unicode="&#x146;" horiz-adv-x="1261" 
d="M641 1100q219 0 337 -122.5t118 -338.5v-639h-39v637q0 202 -107.5 314.5t-304.5 111.5q-91 -1 -171.5 -32.5t-134 -83.5t-85 -117.5t-33.5 -133.5v-696h-39v1079h39v-256q35 113 148.5 195t271.5 82zM641 -102q28 0 47 -20t19 -50q0 -34 -27 -86l-84 -156l-31 11l80 153
l6 14h-10q-29 0 -48.5 19.5t-19.5 48.5q0 28 19.5 47t48.5 19z" />
    <glyph glyph-name="Ncaron" unicode="&#x147;" horiz-adv-x="1396" 
d="M713 1591h-33l-242 211h49l209 -176l209 176h49zM1153 1423h39v-1423h-35l-913 1352v-1352h-39v1423h35l913 -1349v1349z" />
    <glyph glyph-name="ncaron" unicode="&#x148;" horiz-adv-x="1261" 
d="M664 1268h-33l-254 248h49l221 -211l221 211h50zM641 1100q219 0 337 -122.5t118 -338.5v-639h-39v637q0 202 -107.5 314.5t-304.5 111.5q-91 -1 -171.5 -32.5t-134 -83.5t-85 -117.5t-33.5 -133.5v-696h-39v1079h39v-256q35 113 148.5 195t271.5 82z" />
    <glyph glyph-name="napostrophe" unicode="&#x149;" horiz-adv-x="1382" 
d="M63 1077l41 408h37l-45 -408h-33zM762 1100q219 0 337 -122.5t118 -338.5v-639h-39v637q0 202 -107.5 314.5t-304.5 111.5q-91 -1 -171.5 -32.5t-134 -83.5t-85 -117.5t-33.5 -133.5v-696h-39v1079h39v-256q35 113 148.5 195t271.5 82z" />
    <glyph glyph-name="Eng" unicode="&#x14a;" horiz-adv-x="1396" 
d="M1153 1423h39v-1443q0 -164 -85.5 -255.5t-229.5 -91.5h-25v35h27q126 0 200 81.5t74 230.5v26l-909 1346v-1352h-39v1423h35l913 -1349v1349z" />
    <glyph glyph-name="eng" unicode="&#x14b;" horiz-adv-x="1261" 
d="M641 1100q219 0 337 -122.5t118 -338.5v-674q0 -149 -86.5 -240.5t-231.5 -91.5h-18v39h22q124 0 199.5 81.5t75.5 211.5v672q0 202 -107.5 314.5t-304.5 111.5q-91 -1 -171.5 -32.5t-134 -83.5t-85 -117.5t-33.5 -133.5v-696h-39v1079h39v-256q35 113 148.5 195
t271.5 82z" />
    <glyph glyph-name="Omacron" unicode="&#x14c;" horiz-adv-x="1605" 
d="M547 1679v37h510v-37h-510zM803 -20q-198 0 -355.5 92.5t-247 259.5t-89.5 379q0 213 89.5 380.5t247 260t355.5 92.5q197 0 354.5 -92.5t247.5 -260t90 -380.5q0 -212 -90 -379t-247.5 -259.5t-354.5 -92.5zM803 18q184 0 332.5 87.5t233.5 246.5t85 359q0 151 -50 281
t-136.5 220.5t-206.5 141.5t-258 51t-258.5 -51t-207 -141.5t-136 -220.5t-49.5 -281q0 -150 49.5 -279.5t136 -220t207 -142t258.5 -51.5z" />
    <glyph glyph-name="omacron" unicode="&#x14d;" horiz-adv-x="1275" 
d="M383 1374v37h510v-37h-510zM639 -20q-235 0 -387 158.5t-152 400.5q0 160 68.5 288t192 200.5t278.5 72.5q234 0 385.5 -158.5t151.5 -402.5q0 -242 -151.5 -400.5t-385.5 -158.5zM639 16q219 0 358.5 148t139.5 375q0 229 -139.5 376.5t-358.5 147.5t-359.5 -147.5
t-140.5 -376.5q0 -227 140.5 -375t359.5 -148z" />
    <glyph glyph-name="Ohungarumlaut" unicode="&#x150;" horiz-adv-x="1605" 
d="M594 1532l-29 18l201 314l33 -21zM920 1532l-29 18l201 314l32 -21zM803 -20q-198 0 -355.5 92.5t-247 259.5t-89.5 379q0 213 89.5 380.5t247 260t355.5 92.5q197 0 354.5 -92.5t247.5 -260t90 -380.5q0 -212 -90 -379t-247.5 -259.5t-354.5 -92.5zM803 18
q184 0 332.5 87.5t233.5 246.5t85 359q0 151 -50 281t-136.5 220.5t-206.5 141.5t-258 51t-258.5 -51t-207 -141.5t-136 -220.5t-49.5 -281q0 -150 49.5 -279.5t136 -220t207 -142t258.5 -51.5z" />
    <glyph glyph-name="ohungarumlaut" unicode="&#x151;" horiz-adv-x="1275" 
d="M453 1268l-29 18l201 273l32 -21zM758 1268l-29 18l201 273l33 -21zM639 -20q-235 0 -387 158.5t-152 400.5q0 160 68.5 288t192 200.5t278.5 72.5q234 0 385.5 -158.5t151.5 -402.5q0 -242 -151.5 -400.5t-385.5 -158.5zM639 16q219 0 358.5 148t139.5 375
q0 229 -139.5 376.5t-358.5 147.5t-359.5 -147.5t-140.5 -376.5q0 -227 140.5 -375t359.5 -148z" />
    <glyph glyph-name="OE" unicode="&#x152;" horiz-adv-x="2367" 
d="M1493 37h793v-37h-832v483q-62 -231 -236 -367t-415 -136q-198 0 -355.5 92.5t-247 259.5t-89.5 379q0 213 89.5 380.5t247 260t355.5 92.5q241 0 415 -137t236 -369v485h817v-37h-778v-618h717v-37h-717v-694zM803 18q184 0 332.5 87.5t233.5 246.5t85 359
q0 151 -50 281t-136.5 220.5t-206.5 141.5t-258 51t-258.5 -51t-207 -141.5t-136 -220.5t-49.5 -281q0 -150 49.5 -279.5t136 -220t207 -142t258.5 -51.5z" />
    <glyph glyph-name="oe" unicode="&#x153;" horiz-adv-x="2248" 
d="M1657 1100q217 0 356 -151t139 -384v-35h-976q3 -221 140 -367.5t341 -146.5q346 0 446 297l35 -14q-52 -155 -175.5 -237t-305.5 -82q-184 0 -320 109.5t-182 289.5q-45 -180 -184.5 -289.5t-331.5 -109.5q-235 0 -387 158.5t-152 400.5q0 160 68.5 288t192 200.5
t278.5 72.5q193 0 332.5 -111t185.5 -293q45 180 181.5 292t318.5 112zM639 16q219 0 358.5 148t139.5 375q0 229 -139.5 376.5t-358.5 147.5t-359.5 -147.5t-140.5 -376.5q0 -227 140.5 -375t359.5 -148zM1176 567h938v2q0 216 -128.5 355t-328.5 139q-197 0 -333.5 -141.5
t-147.5 -354.5z" />
    <glyph glyph-name="Racute" unicode="&#x154;" horiz-adv-x="1193" 
d="M825 1767l-422 -176l-12 31l420 180zM678 690h-182l602 -690h-54l-600 690h-200v-690h-39v1423h473q197 0 312.5 -100.5t115.5 -265.5q0 -166 -116 -266.5t-312 -100.5zM244 1386v-657h434q182 0 284.5 90t102.5 238t-102.5 238.5t-284.5 90.5h-434z" />
    <glyph glyph-name="racute" unicode="&#x155;" horiz-adv-x="634" 
d="M578 1485l-365 -217l-18 28l362 220zM221 838q35 104 140 183t241 79v-37q-102 -1 -191 -54.5t-139.5 -134t-50.5 -163.5v-711h-39v1079h39v-241z" />
    <glyph glyph-name="uni0156" unicode="&#x156;" horiz-adv-x="1193" 
d="M678 690h-182l602 -690h-54l-600 690h-200v-690h-39v1423h473q197 0 312.5 -100.5t115.5 -265.5q0 -166 -116 -266.5t-312 -100.5zM244 1386v-657h434q182 0 284.5 90t102.5 238t-102.5 238.5t-284.5 90.5h-434zM590 -102q28 0 46.5 -19.5t18.5 -50.5q0 -36 -26 -86
l-84 -156l-31 11l80 153l6 14h-10q-29 0 -48.5 19.5t-19.5 48.5q0 28 19.5 47t48.5 19z" />
    <glyph glyph-name="uni0157" unicode="&#x157;" horiz-adv-x="634" 
d="M221 838q35 104 140 183t241 79v-37q-102 -1 -191 -54.5t-139.5 -134t-50.5 -163.5v-711h-39v1079h39v-241zM211 -102q28 0 46.5 -19.5t18.5 -50.5q0 -36 -26 -86l-84 -156l-31 11l80 153l6 14h-10q-29 0 -48.5 19.5t-19.5 48.5q0 28 19.5 47t48.5 19z" />
    <glyph glyph-name="Rcaron" unicode="&#x158;" horiz-adv-x="1193" 
d="M604 1591h-33l-241 211h49l209 -176l209 176h49zM678 690h-182l602 -690h-54l-600 690h-200v-690h-39v1423h473q197 0 312.5 -100.5t115.5 -265.5q0 -166 -116 -266.5t-312 -100.5zM244 1386v-657h434q182 0 284.5 90t102.5 238t-102.5 238.5t-284.5 90.5h-434z" />
    <glyph glyph-name="rcaron" unicode="&#x159;" horiz-adv-x="634" 
d="M387 1268h-33l-254 248h50l221 -211l221 211h49zM221 838q35 104 140 183t241 79v-37q-102 -1 -191 -54.5t-139.5 -134t-50.5 -163.5v-711h-39v1079h39v-241z" />
    <glyph glyph-name="Sacute" unicode="&#x15a;" horiz-adv-x="1056" 
d="M346 1591l-12 31l420 180l14 -35zM524 -16q-176 0 -292 81t-156 228l39 14q34 -136 139.5 -210t267.5 -74q176 0 283.5 84.5t107.5 224.5q0 77 -26.5 137.5t-71 101t-102.5 73t-122 58.5t-128 51.5t-122 57.5t-102.5 72t-71 100.5t-26.5 136.5q0 142 107.5 231t283.5 89
q316 0 400 -266l-39 -15q-40 124 -128 183t-233 59q-164 0 -257 -76t-93 -197q0 -73 26.5 -129.5t71 -94t102.5 -68t122 -55t128 -50.5t122 -60t102.5 -77.5t71 -109t26.5 -148.5q0 -161 -118.5 -256.5t-311.5 -95.5z" />
    <glyph glyph-name="sacute" unicode="&#x15b;" horiz-adv-x="937" 
d="M319 1270l-18 28l363 220l20 -31zM475 -20q-156 0 -262 62t-143 175l41 16q31 -102 125 -158.5t239 -56.5q154 0 246 65t92 181q0 57 -23.5 100.5t-63.5 72t-91.5 51t-108.5 40l-114 35t-108.5 41t-91.5 53t-63.5 76t-23.5 105.5q0 122 92.5 192t245.5 70
q129 0 216.5 -52t125.5 -153l-39 -16q-71 182 -303 182q-139 0 -217 -58.5t-78 -160.5q0 -68 38 -116.5t98.5 -76.5t134 -50t147 -46.5t134 -56.5t98.5 -90t38 -138q0 -137 -104 -212.5t-277 -75.5z" />
    <glyph glyph-name="Scedilla" unicode="&#x15e;" horiz-adv-x="1056" 
d="M954 336q0 -146 -97 -238t-259 -110l-57 -117q92 0 147 -51.5t55 -128.5q0 -76 -53 -128t-145 -52q-122 0 -195 94l27 24q66 -82 168 -82q72 0 117 42t45 102q0 62 -47.5 104.5t-118.5 42.5h-37l-10 17l63 129h-33q-176 0 -292 81t-156 228l39 14q34 -136 139.5 -210
t267.5 -74q176 0 283.5 84.5t107.5 224.5q0 77 -26.5 137.5t-71 101t-102.5 73t-122 58.5t-128 51.5t-122 57.5t-102.5 72t-71 100.5t-26.5 136.5q0 142 107.5 231t283.5 89q316 0 400 -266l-39 -15q-40 124 -128 183t-233 59q-164 0 -257 -76t-93 -197q0 -73 26.5 -129.5
t71 -94t102.5 -68t122 -55t128 -50.5t122 -60t102.5 -77.5t71 -109t26.5 -148.5z" />
    <glyph glyph-name="scedilla" unicode="&#x15f;" horiz-adv-x="937" 
d="M856 268q0 -135 -102.5 -210.5t-272.5 -77.5l-53 -109q92 0 147.5 -51.5t55.5 -128.5q0 -75 -53.5 -127.5t-145.5 -52.5q-121 0 -194 94l26 24q66 -82 168 -82q72 0 117 42t45 102q0 62 -47.5 104.5t-118.5 42.5h-37l-10 17l61 125q-144 7 -240.5 69t-131.5 168l41 16
q31 -102 125 -158.5t239 -56.5q154 0 246 65t92 181q0 57 -23.5 100.5t-63.5 72t-91.5 51t-108.5 40l-114 35t-108.5 41t-91.5 53t-63.5 76t-23.5 105.5q0 122 92.5 192t245.5 70q129 0 216.5 -52t125.5 -153l-39 -16q-71 182 -303 182q-139 0 -217 -58.5t-78 -160.5
q0 -68 38 -116.5t98.5 -76.5t134 -50t147 -46.5t134 -56.5t98.5 -90t38 -138z" />
    <glyph glyph-name="Scaron" unicode="&#x160;" horiz-adv-x="1056" 
d="M578 1591h-33l-242 211h49l209 -176l209 176h49zM182 1128q0 -73 26.5 -129.5t71 -94t102.5 -68t122 -55t128 -50.5t122 -60t102.5 -77.5t71 -109t26.5 -148.5q0 -161 -118.5 -256.5t-311.5 -95.5q-176 0 -292 81t-156 228l39 14q34 -136 139.5 -210t267.5 -74
q176 0 283.5 84.5t107.5 224.5q0 77 -26.5 137.5t-71 101t-102.5 73t-122 58.5t-128 51.5t-122 57.5t-102.5 72t-71 100.5t-26.5 136.5q0 142 107.5 231t283.5 89q316 0 400 -266l-39 -15q-40 124 -128 183t-233 59q-164 0 -257 -76t-93 -197z" />
    <glyph glyph-name="scaron" unicode="&#x161;" horiz-adv-x="937" 
d="M494 1270h-33l-254 248h49l221 -211l221 211h50zM168 842q0 -68 38 -116.5t98.5 -76.5t134 -50t147 -46.5t134 -56.5t98.5 -90t38 -138q0 -137 -104 -212.5t-277 -75.5q-156 0 -262 62t-143 175l41 16q31 -102 125 -158.5t239 -56.5q154 0 246 65t92 181
q0 57 -23.5 100.5t-63.5 72t-91.5 51t-108.5 40l-114 35t-108.5 41t-91.5 53t-63.5 76t-23.5 105.5q0 122 92.5 192t245.5 70q129 0 216.5 -52t125.5 -153l-39 -16q-71 182 -303 182q-139 0 -217 -58.5t-78 -160.5z" />
    <glyph glyph-name="uni0162" unicode="&#x162;" horiz-adv-x="1050" 
d="M545 1386v-1386l-68 -139q92 0 147.5 -51.5t55.5 -128.5q0 -76 -53.5 -128.5t-145.5 -52.5q-121 0 -194 94l26 25q66 -82 168 -82q72 0 117 42t45 102q0 62 -47.5 104.5t-118.5 42.5h-37l-10 16l76 156v1386h-477v37h993v-37h-477z" />
    <glyph glyph-name="uni0163" unicode="&#x163;" horiz-adv-x="679" 
d="M543 0q-35 0 -70 6l-57 -121q92 0 147 -51.5t55 -128.5q0 -76 -53 -128t-145 -52q-122 0 -195 94l27 25q66 -82 168 -82q72 0 117 41.5t45 101.5q0 62 -47.5 105t-118.5 43h-37l-10 16l69 143q-97 28 -148.5 107t-51.5 200v723h-211v37h133q44 0 63 19.5t19 62.5v187h34
v-269h381v-37h-381v-723q0 -134 69.5 -208t197.5 -74h137v-37h-137z" />
    <glyph glyph-name="Tcaron" unicode="&#x164;" horiz-adv-x="1050" 
d="M543 1591h-33l-242 211h49l209 -176l209 176h49zM1022 1423v-37h-477v-1386h-39v1386h-477v37h993z" />
    <glyph glyph-name="tcaron" unicode="&#x165;" horiz-adv-x="679" 
d="M561 1151l41 408h37l-45 -408h-33zM543 0q-146 0 -225.5 84t-79.5 235v723h-211v37h133q44 0 63 19.5t19 62.5v187h34v-269h381v-37h-381v-723q0 -134 69.5 -208t197.5 -74h137v-37h-137z" />
    <glyph glyph-name="Tbar" unicode="&#x166;" horiz-adv-x="1071" 
d="M1032 1386h-477v-655h256v-37h-256v-694h-39v694h-256v37h256v655h-477v37h993v-37z" />
    <glyph glyph-name="tbar" unicode="&#x167;" horiz-adv-x="702" 
d="M559 37h137v-37h-137q-146 0 -225.5 84t-79.5 235v252h-186v37h186v434h-211v37h133q44 0 63 19.5t19 62.5v187h35v-269h381v-37h-381v-434h325v-37h-325v-252q0 -134 69 -208t197 -74z" />
    <glyph glyph-name="Utilde" unicode="&#x168;" horiz-adv-x="1366" 
d="M557 1729q-50 0 -80.5 -32t-38.5 -79l-37 14q11 52 52 92.5t108 40.5q40 0 74 -17t54.5 -38t51 -38t64.5 -17q52 0 83.5 31.5t39.5 78.5l37 -14q-11 -53 -51.5 -93t-110.5 -40q-42 0 -77 17.5t-55.5 38t-50.5 38t-63 17.5zM1139 1423h39v-921q0 -108 -31 -201.5
t-91 -165.5t-155.5 -113.5t-216.5 -41.5q-98 0 -179.5 27t-139.5 74.5t-98.5 113.5t-59.5 143.5t-19 163.5v921h39v-919q0 -102 29 -189.5t84.5 -154.5t144 -105.5t199.5 -38.5q110 0 198 38.5t143.5 106t84.5 155t29 188.5v919z" />
    <glyph glyph-name="utilde" unicode="&#x169;" horiz-adv-x="1239" 
d="M461 1432q-50 0 -80.5 -32t-38.5 -79l-37 14q11 52 52 92.5t108 40.5q40 0 74 -17t54.5 -38t51 -38t64.5 -17q52 0 83 31.5t39 78.5l37 -14q-11 -53 -51 -93t-110 -40q-42 0 -77 17.5t-55.5 38t-50.5 38t-63 17.5zM1018 1079h39v-1079h-39v242q-35 -105 -146 -183.5
t-264 -78.5q-205 0 -323.5 120t-118.5 320v659h39v-657q0 -187 108.5 -297t292.5 -109q87 1 165 32t130.5 80t83.5 110t33 122v719z" />
    <glyph glyph-name="Umacron" unicode="&#x16a;" horiz-adv-x="1366" 
d="M938 1716v-37h-510v37h510zM1139 1423h39v-921q0 -108 -31 -201.5t-91 -165.5t-155.5 -113.5t-216.5 -41.5q-98 0 -179.5 27t-139.5 74.5t-98.5 113.5t-59.5 143.5t-19 163.5v921h39v-919q0 -102 29 -189.5t84.5 -154.5t144 -105.5t199.5 -38.5q110 0 198 38.5t143.5 106
t84.5 155t29 188.5v919z" />
    <glyph glyph-name="umacron" unicode="&#x16b;" horiz-adv-x="1239" 
d="M842 1413v-37h-510v37h510zM1018 1079h39v-1079h-39v242q-35 -105 -146 -183.5t-264 -78.5q-205 0 -323.5 120t-118.5 320v659h39v-657q0 -187 108.5 -297t292.5 -109q87 1 165 32t130.5 80t83.5 110t33 122v719z" />
    <glyph glyph-name="Uring" unicode="&#x16e;" horiz-adv-x="1366" 
d="M684 1520q-66 0 -111 43.5t-45 107.5t45 108t111 44t111 -44t45 -108t-45 -107.5t-111 -43.5zM684 1788q-51 0 -85 -33.5t-34 -83.5t34 -83.5t85 -33.5t85 33.5t34 83.5t-34 83.5t-85 33.5zM1139 1423h39v-921q0 -108 -31 -201.5t-91 -165.5t-155.5 -113.5t-216.5 -41.5
q-98 0 -179.5 27t-139.5 74.5t-98.5 113.5t-59.5 143.5t-19 163.5v921h39v-919q0 -102 29 -189.5t84.5 -154.5t144 -105.5t199.5 -38.5q110 0 198 38.5t143.5 106t84.5 155t29 188.5v919z" />
    <glyph glyph-name="uring" unicode="&#x16f;" horiz-adv-x="1239" 
d="M588 1217q-66 0 -111 43.5t-45 107.5t45 108t111 44t110.5 -43.5t44.5 -108.5q0 -64 -44.5 -107.5t-110.5 -43.5zM588 1485q-51 0 -85 -33.5t-34 -83.5t34 -83.5t85 -33.5t85 33.5t34 83.5t-34 83.5t-85 33.5zM1018 1079h39v-1079h-39v242q-35 -105 -146 -183.5
t-264 -78.5q-205 0 -323.5 120t-118.5 320v659h39v-657q0 -187 108.5 -297t292.5 -109q87 1 165 32t130.5 80t83.5 110t33 122v719z" />
    <glyph glyph-name="Uhungarumlaut" unicode="&#x170;" horiz-adv-x="1366" 
d="M680 1843l-205 -311l-29 18l201 314zM1006 1843l-205 -311l-29 18l201 314zM1139 1423h39v-921q0 -108 -31 -201.5t-91 -165.5t-155.5 -113.5t-216.5 -41.5q-98 0 -179.5 27t-139.5 74.5t-98.5 113.5t-59.5 143.5t-19 163.5v921h39v-919q0 -102 29 -189.5t84.5 -154.5
t144 -105.5t199.5 -38.5q110 0 198 38.5t143.5 106t84.5 155t29 188.5v919z" />
    <glyph glyph-name="uhungarumlaut" unicode="&#x171;" horiz-adv-x="1239" 
d="M606 1540l-205 -270l-28 18l200 273zM911 1540l-204 -270l-29 18l201 273zM1018 1079h39v-1079h-39v242q-35 -105 -146 -183.5t-264 -78.5q-205 0 -323.5 120t-118.5 320v659h39v-657q0 -187 108.5 -297t292.5 -109q87 1 165 32t130.5 80t83.5 110t33 122v719z" />
    <glyph glyph-name="Uogonek" unicode="&#x172;" horiz-adv-x="1366" 
d="M1139 1423h39v-921q0 -162 -69 -289.5t-200 -187.5l-59 -60q-75 -75 -105 -126.5t-30 -102.5q0 -56 33.5 -90.5t87.5 -34.5q77 0 118 49l25 -22q-51 -64 -143 -64q-72 0 -115 46.5t-43 115.5q0 59 34 116.5t113 133.5l15 14q-67 -20 -156 -20q-98 0 -179.5 27
t-139.5 74.5t-98.5 113.5t-59.5 143.5t-19 163.5v921h39v-919q0 -102 29 -189.5t84.5 -154.5t144 -105.5t199.5 -38.5q110 0 198 38.5t143.5 106t84.5 155t29 188.5v919z" />
    <glyph glyph-name="uogonek" unicode="&#x173;" horiz-adv-x="1239" 
d="M1102 -365l24 -22q-51 -64 -143 -64q-72 0 -115 46.5t-43 115.5q0 58 34 115.5t114 134.5l45 43v238q-35 -105 -146 -183.5t-264 -78.5q-205 0 -323.5 120t-118.5 320v659h39v-657q0 -187 108.5 -297t292.5 -109q87 1 165 32t130.5 80t83.5 110t33 122v719h39v-1079
l-60 -59q-75 -75 -105 -127t-30 -103q0 -56 33.5 -90.5t87.5 -34.5q78 0 119 49z" />
    <glyph glyph-name="Wcircumflex" unicode="&#x174;" horiz-adv-x="1701" 
d="M854 1767l-209 -176h-49l242 211h32l242 -211h-49zM1608 1423h39l-357 -1423h-33l-405 1360l-408 -1360h-32l-357 1423h39l336 -1341l401 1341h39l404 -1339z" />
    <glyph glyph-name="wcircumflex" unicode="&#x175;" horiz-adv-x="1511" 
d="M756 1481l-221 -211h-50l254 248h33l254 -248h-49zM1423 1079h41l-311 -1079h-41l-356 1026l-357 -1026h-41l-311 1079h41l293 -1016l354 1016h43l352 -1016z" />
    <glyph glyph-name="Ycircumflex" unicode="&#x176;" horiz-adv-x="1179" 
d="M592 1767l-209 -176h-49l241 211h33l242 -211h-49zM1149 1423l-541 -831v-592h-39v598l-536 825h45l514 -790l512 790h45z" />
    <glyph glyph-name="ycircumflex" unicode="&#x177;" horiz-adv-x="1064" 
d="M532 1481l-221 -211h-49l254 248h33l254 -248h-49zM991 1079h43l-485 -1079l-164 -367h-41l168 375l-481 1071h43l458 -1024z" />
    <glyph glyph-name="Ydieresis" unicode="&#x178;" horiz-adv-x="1179" 
d="M426 1628q-28 0 -49 20t-21 48q0 27 21 47t49 20q27 0 47.5 -20t20.5 -47t-20.5 -47.5t-47.5 -20.5zM756 1628q-27 0 -47.5 20.5t-20.5 47.5t20.5 47t47.5 20q28 0 48.5 -19.5t20.5 -47.5t-20.5 -48t-48.5 -20zM1149 1423l-541 -831v-592h-39v598l-536 825h45l514 -790
l512 790h45z" />
    <glyph glyph-name="Zacute" unicode="&#x179;" horiz-adv-x="1054" 
d="M764 1767l-422 -176l-12 31l420 180zM92 37h920v-37h-965v33l903 1353h-878v37h921v-34z" />
    <glyph glyph-name="zacute" unicode="&#x17a;" horiz-adv-x="899" 
d="M659 1485l-364 -217l-19 28l363 220zM92 37h766v-37h-811v37l739 1005h-704v37h747v-37z" />
    <glyph glyph-name="Zdotaccent" unicode="&#x17b;" horiz-adv-x="1054" 
d="M526 1628q-29 0 -48 19.5t-19 48.5q0 28 19 46.5t48 18.5q28 0 47 -18.5t19 -46.5q0 -29 -19 -48.5t-47 -19.5zM92 37h920v-37h-965v33l903 1353h-878v37h921v-34z" />
    <glyph glyph-name="zdotaccent" unicode="&#x17c;" horiz-adv-x="899" 
d="M453 1319q-32 0 -54 21t-22 53t22 53.5t54 21.5t53.5 -21.5t21.5 -53.5t-21.5 -53t-53.5 -21zM92 37h766v-37h-811v37l739 1005h-704v37h747v-37z" />
    <glyph glyph-name="Zcaron" unicode="&#x17d;" horiz-adv-x="1054" 
d="M543 1591h-33l-242 211h49l209 -176l209 176h49zM92 37h920v-37h-965v33l903 1353h-878v37h921v-34z" />
    <glyph glyph-name="zcaron" unicode="&#x17e;" horiz-adv-x="899" 
d="M469 1268h-33l-254 248h49l222 -211l221 211h49zM92 37h766v-37h-811v37l739 1005h-704v37h747v-37z" />
    <glyph glyph-name="uni01EA" unicode="&#x1ea;" horiz-adv-x="1605" 
d="M999 6l-55 -55q-75 -75 -105 -127t-30 -103q0 -55 33.5 -89.5t87.5 -34.5q78 0 119 49l24 -23q-50 -63 -143 -63q-72 0 -115 46t-43 115q0 58 34 115.5t114 134.5l22 21q-68 -12 -139 -12q-198 0 -355.5 92.5t-247 259.5t-89.5 379q0 213 89.5 380.5t247 260t355.5 92.5
q197 0 354.5 -92.5t247.5 -260t90 -380.5q0 -264 -136 -453.5t-360 -251.5zM152 711q0 -150 49.5 -279.5t136 -220t207 -142t258.5 -51.5q184 0 332.5 87.5t233.5 246.5t85 359q0 151 -50 281t-136.5 220.5t-206.5 141.5t-258 51t-258.5 -51t-207 -141.5t-136 -220.5
t-49.5 -281z" />
    <glyph glyph-name="uni01EB" unicode="&#x1eb;" horiz-adv-x="1275" 
d="M793 0l-60 -59q-75 -75 -105 -127t-30 -103q0 -56 33.5 -90.5t87.5 -34.5q78 0 119 49l24 -22q-51 -64 -143 -64q-72 0 -115 46.5t-43 115.5q0 58 34 115.5t114 134.5l26 27q-41 -8 -96 -8q-235 0 -387 158.5t-152 400.5q0 160 68.5 288t192 200.5t278.5 72.5
q234 0 385.5 -158.5t151.5 -402.5q0 -198 -105 -344.5t-278 -194.5zM139 539q0 -227 140.5 -375t359.5 -148t358.5 148t139.5 375q0 229 -139.5 376.5t-358.5 147.5t-359.5 -147.5t-140.5 -376.5z" />
    <glyph glyph-name="AEacute" unicode="&#x1fc;" horiz-adv-x="1843" 
d="M1495 1767l-422 -176l-12 31l420 180zM969 37h792v-37h-831v514h-584l-319 -514h-45l882 1423h883v-37h-778v-618h717v-37h-717v-694zM369 551h561v835h-43z" />
    <glyph glyph-name="aeacute" unicode="&#x1fd;" horiz-adv-x="2217" 
d="M1333 1487l-364 -217l-19 28l363 220zM1626 1100q217 0 356.5 -151t139.5 -384v-35h-977q3 -221 140 -367.5t341 -146.5q347 0 447 297l34 -14q-52 -155 -175.5 -237t-305.5 -82q-168 0 -296.5 94t-184.5 252v-326h-39v326q-55 -158 -182.5 -252t-296.5 -94
q-227 0 -377 159.5t-150 401.5q0 157 68.5 285.5t189.5 201t269 72.5q169 0 297 -93t182 -251v323h39v-331q56 159 185.5 255.5t295.5 96.5zM623 16q212 0 347.5 147.5t135.5 377.5t-134.5 376t-348.5 146q-206 0 -345 -150t-139 -372q0 -225 138.5 -375t345.5 -150z
M1145 565h938v4q0 216 -128.5 355t-328.5 139q-198 0 -335 -142t-146 -356z" />
    <glyph glyph-name="Oslashacute" unicode="&#x1fe;" horiz-adv-x="1611" 
d="M1044 1767l-421 -176l-13 31l420 180zM1303 1239q94 -98 145 -233.5t51 -294.5q0 -212 -90 -379t-247.5 -259.5t-354.5 -92.5q-136 0 -256.5 46t-210.5 130l-145 -162l-29 29l143 161q-92 99 -143 234t-51 293q0 213 89.5 380.5t247 260t355.5 92.5q275 0 467 -176
l143 159l29 -26zM156 711q0 -301 182 -496l909 1022q-182 168 -440 168q-138 0 -258.5 -51t-207 -141.5t-136 -220.5t-49.5 -281zM807 18q184 0 332.5 87.5t233.5 246.5t85 359q0 300 -184 497l-907 -1022q182 -168 440 -168z" />
    <glyph glyph-name="oslashacute" unicode="&#x1ff;" horiz-adv-x="1304" 
d="M860 1485l-364 -217l-19 28l363 220zM1217 1016l-138 -123q111 -149 111 -354q0 -242 -151.5 -400.5t-385.5 -158.5q-248 0 -403 176l-135 -119l-25 29l135 120q-110 148 -110 353q0 244 151.5 402.5t386.5 158.5q123 0 227 -46.5t177 -131.5l135 120zM154 539
q0 -188 100 -328l774 686q-67 79 -163.5 122.5t-211.5 43.5q-219 0 -359 -147.5t-140 -376.5zM1151 539q0 189 -100 329l-772 -686q67 -79 163 -122.5t211 -43.5q219 0 358.5 148t139.5 375z" />
    <glyph glyph-name="uni0218" unicode="&#x218;" horiz-adv-x="1056" 
d="M182 1128q0 -73 26.5 -129.5t71 -94t102.5 -68t122 -55t128 -50.5t122 -60t102.5 -77.5t71 -109t26.5 -148.5q0 -161 -118.5 -256.5t-311.5 -95.5q-176 0 -292 81t-156 228l39 14q34 -136 139.5 -210t267.5 -74q176 0 283.5 84.5t107.5 224.5q0 77 -26.5 137.5t-71 101
t-102.5 73t-122 58.5t-128 51.5t-122 57.5t-102.5 72t-71 100.5t-26.5 136.5q0 142 107.5 231t283.5 89q316 0 400 -266l-39 -15q-40 124 -128 183t-233 59q-164 0 -257 -76t-93 -197zM584 -102q28 0 46.5 -19.5t18.5 -50.5q0 -36 -26 -86l-84 -156l-31 11l80 153l6 14h-10
q-29 0 -48.5 19.5t-19.5 48.5q0 28 19.5 47t48.5 19z" />
    <glyph glyph-name="uni0219" unicode="&#x219;" horiz-adv-x="937" 
d="M168 842q0 -68 38 -116.5t98.5 -76.5t134 -50t147 -46.5t134 -56.5t98.5 -90t38 -138q0 -137 -104 -212.5t-277 -75.5q-156 0 -262 62t-143 175l41 16q31 -102 125 -158.5t239 -56.5q154 0 246 65t92 181q0 57 -23.5 100.5t-63.5 72t-91.5 51t-108.5 40l-114 35
t-108.5 41t-91.5 53t-63.5 76t-23.5 105.5q0 122 92.5 192t245.5 70q129 0 216.5 -52t125.5 -153l-39 -16q-71 182 -303 182q-139 0 -217 -58.5t-78 -160.5zM498 -102q28 0 46.5 -19.5t18.5 -50.5q0 -36 -26 -86l-84 -156l-31 11l80 153l6 14h-10q-29 0 -48.5 19.5
t-19.5 48.5q0 28 19.5 47t48.5 19z" />
    <glyph glyph-name="uni021A" unicode="&#x21a;" horiz-adv-x="1050" 
d="M1022 1423v-37h-477v-1386h-39v1386h-477v37h993zM528 -102q28 0 47 -20t19 -50q0 -34 -27 -86l-84 -156l-30 11l79 153l7 14h-11q-29 0 -48 19.5t-19 48.5q0 28 19 47t48 19z" />
    <glyph glyph-name="uni021B" unicode="&#x21b;" horiz-adv-x="679" 
d="M543 37h137v-37h-137q-146 0 -225.5 84t-79.5 235v723h-211v37h133q44 0 63 19.5t19 62.5v187h34v-269h381v-37h-381v-723q0 -134 69.5 -208t197.5 -74zM477 -88q28 0 47 -20t19 -50q0 -34 -27 -86l-84 -155l-31 10l80 153l6 15h-10q-29 0 -48 19t-19 48q0 28 19 47
t48 19z" />
    <glyph glyph-name="uni0237" unicode="&#x237;" horiz-adv-x="403" 
d="M-115 -367v39h23q124 0 199 81.5t75 211.5v1114h39v-1114q0 -149 -86 -240.5t-231 -91.5h-19z" />
    <glyph glyph-name="circumflex" unicode="&#x2c6;" horiz-adv-x="595" 
d="M602 1270h-49l-221 211l-221 -211h-50l254 248h33z" />
    <glyph glyph-name="caron" unicode="&#x2c7;" horiz-adv-x="595" 
d="M553 1518h49l-254 -248h-33l-254 248h50l221 -211z" />
    <glyph glyph-name="breve" unicode="&#x2d8;" horiz-adv-x="540" 
d="M305 1270q-107 0 -175.5 70t-68.5 178h37q0 -93 57.5 -152t149.5 -59t149.5 59t57.5 152h37q0 -108 -68.5 -178t-175.5 -70z" />
    <glyph glyph-name="dotaccent" unicode="&#x2d9;" horiz-adv-x="184" 
d="M137 1321q-32 0 -54 21t-22 53t22 53.5t54 21.5t54 -21.5t22 -53.5t-22 -53t-54 -21z" />
    <glyph glyph-name="ring" unicode="&#x2da;" horiz-adv-x="335" 
d="M217 1217q-66 0 -111 43.5t-45 107.5t45 108t111 44t111 -44t45 -108t-45 -107.5t-111 -43.5zM217 1251q51 0 85 33.5t34 83.5t-34 83.5t-85 33.5t-85 -33.5t-34 -83.5t34 -83.5t85 -33.5z" />
    <glyph glyph-name="ogonek" unicode="&#x2db;" horiz-adv-x="423" 
d="M219 -449q-72 0 -115 46.5t-43 115.5q0 58 34 115.5t114 134.5l61 60l23 -21l-60 -59q-75 -75 -105 -127t-30 -103q0 -56 33.5 -90.5t87.5 -34.5q78 0 119 50l24 -23q-51 -64 -143 -64z" />
    <glyph glyph-name="tilde" unicode="&#x2dc;" horiz-adv-x="710" 
d="M463 1321q-42 0 -77 17.5t-55.5 38t-50.5 38t-63 17.5q-50 0 -80.5 -32t-38.5 -79l-37 14q11 52 52 92.5t108 40.5q40 0 74 -17t54.5 -38t51 -38t64.5 -17q52 0 83.5 31.5t39.5 78.5l37 -14q-11 -53 -51.5 -93t-110.5 -40z" />
    <glyph glyph-name="hungarumlaut" unicode="&#x2dd;" horiz-adv-x="516" 
d="M63 1270l-28 18l201 273l32 -21zM369 1270l-29 18l201 273l32 -21z" />
    <glyph glyph-name="gravecomb" unicode="&#x300;" 
d="M-80 1270l-364 217l20 31l363 -220z" />
    <glyph glyph-name="acutecomb" unicode="&#x301;" 
d="M-426 1270l-18 28l362 220l21 -31z" />
    <glyph glyph-name="uni0302" unicode="&#x302;" 
d="M-61 1270h-50l-221 211l-221 -211h-49l254 248h33z" />
    <glyph glyph-name="tildecomb" unicode="&#x303;" 
d="M-223 1321q-42 0 -77 17.5t-55.5 38t-50.5 38t-63 17.5q-50 0 -80.5 -32t-38.5 -79l-37 14q11 52 52 92.5t108 40.5q40 0 74 -17t54.5 -38t51 -38t64.5 -17q52 0 83.5 31.5t39.5 78.5l37 -14q-11 -53 -51.5 -93t-110.5 -40z" />
    <glyph glyph-name="uni0304" unicode="&#x304;" 
d="M-571 1376v37h510v-37h-510z" />
    <glyph glyph-name="uni0306" unicode="&#x306;" 
d="M-305 1270q-107 0 -175.5 70t-68.5 178h37q0 -93 57.5 -152t149.5 -59t149.5 59t57.5 152h37q0 -108 -68.5 -178t-175.5 -70z" />
    <glyph glyph-name="uni0307" unicode="&#x307;" 
d="M-137 1321q-32 0 -54 21t-22 53t22 53.5t54 21.5t54 -21.5t22 -53.5t-22 -53t-54 -21z" />
    <glyph glyph-name="uni0308" unicode="&#x308;" 
d="M-457 1323q-29 0 -51 21.5t-22 50.5t22 50t51 21q28 0 50 -21t22 -50t-22 -50.5t-50 -21.5zM-135 1323q-28 0 -50 21.5t-22 50.5t22 50t50 21q30 0 52 -21t22 -50t-22.5 -50.5t-51.5 -21.5z" />
    <glyph glyph-name="uni030A" unicode="&#x30a;" 
d="M-217 1217q-66 0 -111 43.5t-45 107.5t45 108t111 44t111 -44t45 -108t-45 -107.5t-111 -43.5zM-217 1251q51 0 85 33.5t34 83.5t-34 83.5t-85 33.5t-85 -33.5t-34 -83.5t34 -83.5t85 -33.5z" />
    <glyph glyph-name="uni030B" unicode="&#x30b;" 
d="M-571 1270l-29 18l201 273l32 -21zM-266 1270l-29 18l201 273l33 -21z" />
    <glyph glyph-name="uni030C" unicode="&#x30c;" 
d="M-111 1518h50l-254 -248h-33l-254 248h49l221 -211z" />
    <glyph glyph-name="uni0326" unicode="&#x326;" 
d="M-127 -102q28 0 47 -20t19 -50q0 -34 -27 -86l-84 -156l-31 11l80 153l6 14h-10q-29 0 -48.5 19.5t-19.5 48.5q0 28 19.5 47t48.5 19z" />
    <glyph glyph-name="uni0327" unicode="&#x327;" 
d="M-260 -489q-122 0 -195 94l27 24q66 -82 168 -82q72 0 117 42t45 102q0 62 -47.5 104.5t-118.5 42.5h-37l-10 17l75 155h39l-67 -139q92 0 147.5 -51.5t55.5 -128.5q0 -75 -53.5 -127.5t-145.5 -52.5z" />
    <glyph glyph-name="uni0328" unicode="&#x328;" 
d="M-205 -449q-72 0 -114.5 46t-42.5 116q0 59 34 116.5t113 133.5l61 60l23 -21l-59 -59q-75 -75 -105.5 -127.5t-30.5 -102.5q0 -56 33.5 -90.5t87.5 -34.5q78 0 119 50l25 -23q-51 -64 -144 -64z" />
    <glyph glyph-name="uni0335" unicode="&#x335;" 
d="M-612 520v37h551v-37h-551z" />
    <glyph glyph-name="uni0336" unicode="&#x336;" 
d="M-1323 592v37h1262v-37h-1262z" />
    <glyph glyph-name="uni0337" unicode="&#x337;" 
d="M-541 365l-16 28l455 266l16 -28z" />
    <glyph glyph-name="uni0338" unicode="&#x338;" 
d="M-1163 0l-25 29l1102 977l25 -27z" />
    <glyph glyph-name="Wgrave" unicode="&#x1e80;" horiz-adv-x="1701" 
d="M1071 1622l-12 -31l-422 176l14 35zM1608 1423h39l-357 -1423h-33l-405 1360l-408 -1360h-32l-357 1423h39l336 -1341l401 1341h39l404 -1339z" />
    <glyph glyph-name="wgrave" unicode="&#x1e81;" horiz-adv-x="1511" 
d="M922 1298l-19 -28l-364 217l20 31zM1423 1079h41l-311 -1079h-41l-356 1026l-357 -1026h-41l-311 1079h41l293 -1016l354 1016h43l352 -1016z" />
    <glyph glyph-name="Wacute" unicode="&#x1e82;" horiz-adv-x="1701" 
d="M1092 1767l-422 -176l-13 31l420 180zM1608 1423h39l-357 -1423h-33l-405 1360l-408 -1360h-32l-357 1423h39l336 -1341l401 1341h39l404 -1339z" />
    <glyph glyph-name="wacute" unicode="&#x1e83;" horiz-adv-x="1511" 
d="M963 1487l-365 -217l-18 28l362 220zM1423 1079h41l-311 -1079h-41l-356 1026l-357 -1026h-41l-311 1079h41l293 -1016l354 1016h43l352 -1016z" />
    <glyph glyph-name="Wdieresis" unicode="&#x1e84;" horiz-adv-x="1701" 
d="M688 1628q-28 0 -49 20t-21 48q0 27 21 47t49 20q27 0 47.5 -20t20.5 -47t-20.5 -47.5t-47.5 -20.5zM1018 1628q-27 0 -47.5 20.5t-20.5 47.5t20.5 47t47.5 20q28 0 48.5 -19.5t20.5 -47.5t-20.5 -48t-48.5 -20zM1608 1423h39l-357 -1423h-33l-405 1360l-408 -1360h-32
l-357 1423h39l336 -1341l401 1341h39l404 -1339z" />
    <glyph glyph-name="wdieresis" unicode="&#x1e85;" horiz-adv-x="1511" 
d="M594 1323q-29 0 -51.5 21.5t-22.5 50.5t22 50t52 21q28 0 50 -21t22 -50t-22 -50.5t-50 -21.5zM915 1323q-28 0 -49.5 21.5t-21.5 50.5t21.5 50t49.5 21q30 0 52 -21t22 -50t-22.5 -50.5t-51.5 -21.5zM1423 1079h41l-311 -1079h-41l-356 1026l-357 -1026h-41l-311 1079
h41l293 -1016l354 1016h43l352 -1016z" />
    <glyph glyph-name="uni1E9E" unicode="&#x1e9e;" horiz-adv-x="1282" 
d="M756 770q193 -3 306.5 -110t113.5 -283t-110 -284.5t-280 -108.5q-154 0 -260.5 81.5t-146.5 227.5l39 14q34 -135 130 -209.5t236 -74.5q154 0 252.5 98t98.5 256q0 161 -105 257.5t-287 96.5h-53v25l385 403q-36 79 -86 131.5t-132.5 83.5t-194.5 31q-195 0 -315 -116
t-120 -316v-973h-39v969q0 221 130.5 348t343.5 127q95 0 170 -20t129.5 -59.5t93 -90.5t67.5 -119z" />
    <glyph glyph-name="Ygrave" unicode="&#x1ef2;" horiz-adv-x="1179" 
d="M809 1622l-12 -31l-422 176l14 35zM1149 1423l-541 -831v-592h-39v598l-536 825h45l514 -790l512 790h45z" />
    <glyph glyph-name="ygrave" unicode="&#x1ef3;" horiz-adv-x="1064" 
d="M698 1298l-18 -28l-365 217l21 31zM991 1079h43l-485 -1079l-164 -367h-41l168 375l-481 1071h43l458 -1024z" />
    <glyph glyph-name="uni1EF8" unicode="&#x1ef8;" horiz-adv-x="1179" 
d="M465 1729q-50 0 -80.5 -32t-38.5 -79l-37 14q11 52 52 92.5t108 40.5q40 0 74 -17t54.5 -38t51 -38t64.5 -17q52 0 83.5 31.5t39.5 78.5l36 -14q-11 -53 -51 -93t-110 -40q-42 0 -77 17.5t-55.5 38t-50.5 38t-63 17.5zM1149 1423l-541 -831v-592h-39v598l-536 825h45
l514 -790l512 790h45z" />
    <glyph glyph-name="uni1EF9" unicode="&#x1ef9;" horiz-adv-x="1064" 
d="M406 1432q-50 0 -80.5 -32t-38.5 -79l-37 14q11 52 52 92.5t108 40.5q33 0 60.5 -11.5t47.5 -27.5t39 -32t43.5 -27.5t52.5 -11.5q52 0 83.5 31.5t39.5 78.5l37 -14q-11 -53 -51.5 -93t-110.5 -40q-42 0 -77 17.5t-55 38t-50 38t-63 17.5zM991 1079h43l-485 -1079
l-164 -367h-41l168 375l-481 1071h43l458 -1024z" />
    <glyph glyph-name="endash" unicode="&#x2013;" horiz-adv-x="1085" 
d="M143 508v37h799v-37h-799z" />
    <glyph glyph-name="emdash" unicode="&#x2014;" horiz-adv-x="1660" 
d="M143 504v37h1375v-37h-1375z" />
    <glyph glyph-name="quoteleft" unicode="&#x2018;" horiz-adv-x="346" 
d="M168 1300q28 0 45.5 -16.5t17.5 -44.5q0 -29 -17.5 -47t-45.5 -18t-46 18t-18 47q0 31 27 86l68 139h43l-78 -164h4z" />
    <glyph glyph-name="quoteright" unicode="&#x2019;" horiz-adv-x="337" 
d="M186 1464q28 0 46 -18t18 -47q0 -31 -27 -86l-67 -139h-43l77 163h-4q-28 0 -45.5 17t-17.5 45q0 29 17.5 47t45.5 18z" />
    <glyph glyph-name="quotesinglbase" unicode="&#x201a;" horiz-adv-x="344" 
d="M174 109q28 0 46 -18.5t18 -47.5q0 -31 -27 -86l-68 -139h-43l78 164h-4q-28 0 -45.5 16.5t-17.5 44.5q0 29 17.5 47.5t45.5 18.5z" />
    <glyph glyph-name="quotedblleft" unicode="&#x201c;" horiz-adv-x="555" 
d="M199 1464h43l-78 -164h4q28 0 45.5 -16.5t17.5 -44.5q0 -29 -17.5 -47t-45.5 -18t-46 18t-18 47q0 31 27 86zM377 1300q28 0 45.5 -16.5t17.5 -44.5q0 -29 -17.5 -47t-45.5 -18t-46 18t-18 47q0 31 27 86l68 139h43l-78 -164h4z" />
    <glyph glyph-name="quotedblright" unicode="&#x201d;" horiz-adv-x="546" 
d="M186 1464q28 0 46 -18t18 -47q0 -31 -27 -86l-67 -139h-43l77 163h-4q-28 0 -45.5 17t-17.5 45q0 29 17.5 47t45.5 18zM395 1464q28 0 46 -18t18 -47q0 -31 -27 -86l-67 -139h-43l77 163h-4q-28 0 -45.5 17t-17.5 45q0 29 17.5 47t45.5 18z" />
    <glyph glyph-name="quotedblbase" unicode="&#x201e;" horiz-adv-x="552" 
d="M174 109q28 0 46 -18.5t18 -47.5q0 -31 -27 -86l-68 -139h-43l78 164h-4q-28 0 -45.5 16.5t-17.5 44.5q0 29 17.5 47.5t45.5 18.5zM383 109q28 0 45.5 -18.5t17.5 -47.5q0 -33 -26 -86l-68 -139h-43l78 164h-4q-28 0 -46 17t-18 44q0 29 18 47.5t46 18.5z" />
    <glyph glyph-name="dagger" unicode="&#x2020;" horiz-adv-x="616" 
d="M514 1298v-36h-184v-586h-43v586h-185v36h185v199h43v-199h184z" />
    <glyph glyph-name="daggerdbl" unicode="&#x2021;" horiz-adv-x="649" 
d="M530 1262h-184v-351h184v-37h-184v-198h-43v198h-184v37h184v351h-184v36h184v199h43v-199h184v-36z" />
    <glyph glyph-name="bullet" unicode="&#x2022;" horiz-adv-x="651" 
d="M326 563q-57 0 -97.5 40.5t-40.5 96.5t40.5 97t97.5 41t97 -41t40 -97t-40 -96.5t-97 -40.5z" />
    <glyph glyph-name="ellipsis" unicode="&#x2026;" horiz-adv-x="1011" 
d="M184 -18q-28 0 -45.5 17.5t-17.5 45.5t17.5 46t45.5 18t46 -18t18 -46t-18 -45.5t-46 -17.5zM506 -18q-28 0 -46 17.5t-18 45.5t18 46t46 18t45.5 -18t17.5 -46t-17.5 -45.5t-45.5 -17.5zM827 -18q-28 0 -45.5 17.5t-17.5 45.5t17.5 46t45.5 18t46 -18t18 -46t-18 -45.5
t-46 -17.5z" />
    <glyph glyph-name="perthousand" unicode="&#x2030;" horiz-adv-x="2142" 
d="M375 793q-134 0 -221.5 91.5t-87.5 227.5q0 135 88 228.5t221 93.5t220 -93.5t87 -228.5q0 -136 -86.5 -227.5t-220.5 -91.5zM289 0l841 1423h44l-842 -1423h-43zM375 827q114 0 192 82t78 205q0 117 -78.5 201t-191.5 84q-116 0 -194.5 -84t-78.5 -201q0 -123 78 -205
t195 -82zM1096 -10q-134 0 -222 91.5t-88 227.5q0 135 88 228.5t222 93.5q133 0 220 -93.5t87 -228.5q0 -136 -86.5 -227.5t-220.5 -91.5zM1772 -10q-134 0 -222 91.5t-88 227.5q0 135 88 228.5t222 93.5q133 0 220 -93.5t87 -228.5q0 -136 -86.5 -227.5t-220.5 -91.5z
M1096 25q114 0 192 82t78 204q0 117 -78.5 201t-191.5 84q-116 0 -194.5 -84t-78.5 -201q0 -123 78 -204.5t195 -81.5zM1772 25q114 0 192 82t78 204q0 117 -78.5 201t-191.5 84q-116 0 -194.5 -84t-78.5 -201q0 -123 78 -204.5t195 -81.5z" />
    <glyph glyph-name="guilsinglleft" unicode="&#x2039;" horiz-adv-x="499" 
d="M313 190l-215 334l215 334h47l-215 -334l215 -334h-47z" />
    <glyph glyph-name="guilsinglright" unicode="&#x203a;" horiz-adv-x="499" 
d="M139 190l215 334l-215 334h47l215 -334l-215 -334h-47z" />
    <glyph glyph-name="fraction" unicode="&#x2044;" horiz-adv-x="849" 
d="M-14 0l841 1423h47l-841 -1423h-47z" />
    <glyph glyph-name="uni2074" unicode="&#x2074;" horiz-adv-x="659" 
d="M567 932v-35h-98v-186h-37v186h-371v25l371 501h37v-491h98zM432 932v432l-319 -432h319z" />
    <glyph glyph-name="Euro" unicode="&#x20ac;" horiz-adv-x="1513" 
d="M1389 233l32 -28q-166 -225 -489 -225q-250 0 -430.5 144.5t-231.5 383.5h-207l7 37h194q-10 72 -10 131t10 131h-155l6 37h155q51 238 229.5 383t422.5 145q319 0 495 -223l-33 -29q-161 213 -462 213q-226 0 -393 -134t-216 -355h656l-6 -37h-658q-10 -68 -10 -131
t10 -131h619l-6 -37h-605q51 -222 220 -356t399 -134q298 0 457 215z" />
    <glyph glyph-name="trademark" unicode="&#x2122;" horiz-adv-x="1259" 
d="M473 1413v-35h-186v-534h-37v534h-187v35h410zM1106 844h-37l-33 504l-190 -480h-37l-191 480l-32 -504h-35l35 569h43l198 -498l199 498h43z" />
    <glyph glyph-name="minus" unicode="&#x2212;" horiz-adv-x="1146" 
d="M152 586v41h843v-41h-843z" />
    <glyph glyph-name="approxequal" unicode="&#x2248;" horiz-adv-x="1079" 
d="M725 700q-54 0 -105 18.5t-85.5 40t-82 40t-94.5 18.5q-56 0 -104.5 -22.5t-67.5 -57.5l-30 23q24 45 77.5 72.5t124.5 27.5q54 0 105 -18.5t85.5 -40t82 -40t94.5 -18.5q56 0 104.5 22.5t67.5 57.5l31 -22q-24 -45 -78 -73t-125 -28zM723 279q-54 0 -105 18t-85.5 40
t-82 40t-94.5 18q-56 0 -104.5 -22.5t-67.5 -57.5l-30 23q24 45 77.5 72.5t124.5 27.5q54 0 105 -18t85.5 -40t82 -40t94.5 -18q56 0 104.5 22t67.5 57l31 -22q-24 -44 -78 -72t-125 -28z" />
    <glyph glyph-name="notequal" unicode="&#x2260;" horiz-adv-x="1150" 
d="M997 799h-340l-141 -445h481v-41h-493l-101 -313h-43l101 313h-307v41h319l143 445h-462v41h475l98 307h41l-98 -307h327v-41z" />
    <glyph glyph-name="uniF8FF" unicode="&#xf8ff;" horiz-adv-x="4724" 
d="M1149 408q-95 0 -136.5 40t-41.5 130v466h203q0 -62 -40 -122t-98 -86l2 -9q58 35 119 35h105v-162h-86v-98q0 -35 36 -35q28 0 50 15v-154q-36 -20 -113 -20zM1303 418v626h200q0 -67 -47 -122t-115 -70l5 -6q84 16 143 16h16v-444h-202zM2808 408q-95 0 -137.5 40.5
t-42.5 129.5v466h202q0 -62 -39 -122t-98 -86l4 -9q58 35 119 35h102v-162h-86v-98q0 -35 37 -35q27 0 49 15v-154q-36 -20 -110 -20zM205 418v624h203v-624h-203zM584 408q-66 0 -105 34t-39 90q0 60 41 98t111 38q92 0 135 -43h4v71q0 24 -12 38t-35 14q-47 0 -47 -60
l-184 29q37 160 249 160q110 0 172 -50t62 -135v-274h-201v45h-6q-14 -20 -51.5 -37.5t-93.5 -17.5zM1548 418v444h199v-133h6q17 143 145 143q70 0 110 -46t40 -134v-274h-205v264q0 55 -39 55q-22 0 -32 -13t-21 -52v-254h-203zM2337 408q-123 0 -190.5 63.5t-67.5 167.5
t69 168.5t189 64.5q122 0 190 -64.5t68 -168.5q0 -103 -67.5 -167t-190.5 -64zM3463 270v592h203v-133h6q21 143 150 143q170 0 170 -233q0 -115 -51.5 -173t-125.5 -58q-105 0 -141 88h-6v-226h-205zM4274 408q-120 0 -187 63.5t-67 167.5q0 103 70 168t190 65
q107 0 173.5 -64.5t66.5 -158.5v-18h-307q0 -39 18.5 -66.5t50.5 -27.5q55 0 62 69l168 -16q-18 -95 -83 -138.5t-155 -43.5zM3015 262v135h133q115 0 137 25l-2 6h-139q-83 0 -107 80l-110 354h204q6 -37 20 -110t24 -134t14 -110h4q13 125 61 354h203l-145 -424
q-63 -176 -217 -176h-80zM4213 655h12q62 0 87.5 12t25.5 38q0 45 -49 45q-34 0 -55 -26t-21 -69zM3738 506q31 0 46 27.5t15 89.5q0 66 -12 95.5t-43 29.5q-46 0 -62 -68v-148q21 -26 56 -26zM2337 535q59 0 59 104q0 106 -59 106q-58 0 -58 -106q0 -104 58 -104zM686 469
q30 0 45 23v104q-10 16 -39 16q-25 0 -40 -19t-15 -52q0 -72 49 -72z" />
    <glyph glyph-name="uni00A40301" horiz-adv-x="641" 
d="M246 1591l-13 31l420 180l15 -35zM27 0v35h108q127 0 201 81.5t74 229.5v1077h39v-1077q0 -164 -86 -255t-230 -91h-106z" />
    <glyph glyph-name="Q.ss01" horiz-adv-x="1605" 
d="M1012 37h512v-37h-721q-201 0 -359 92t-245.5 256.5t-87.5 372.5t89.5 373.5t247.5 257.5t355 92q196 0 354 -92t248 -257.5t90 -373.5q0 -252 -131.5 -436.5t-351.5 -247.5zM152 721q0 -195 84.5 -351.5t233.5 -243.5t333 -87q137 0 258 51t207 140.5t136 217t50 273.5
q0 147 -50 274.5t-136.5 217.5t-207 141t-257.5 51q-138 0 -258.5 -51t-207 -141t-136 -217.5t-49.5 -274.5z" />
    <glyph glyph-name="i.loclTRK" horiz-adv-x="403" 
d="M201 1321q-32 0 -54 21t-22 53t22 53.5t54 21.5t53.5 -21.5t21.5 -53.5t-21.5 -53t-53.5 -21zM182 0v1079h39v-1079h-39z" />
    <glyph glyph-name="uni006A0301" horiz-adv-x="403" 
d="M43 1268l-18 28l362 220l21 -31zM-115 -367v39h23q124 0 199 81.5t75 211.5v1114h39v-1114q0 -149 -86 -240.5t-231 -91.5h-19z" />
    <glyph glyph-name="g.ss01" horiz-adv-x="1089" 
d="M1057 1079v-37h-322q95 -55 150 -150.5t55 -215.5q0 -146 -80.5 -255t-212.5 -149q157 -27 245.5 -110t88.5 -211q0 -157 -120 -247.5t-339 -90.5q-385 0 -491 299l37 14q47 -134 155.5 -205t298.5 -71q205 0 312.5 79t107.5 222q0 141 -115.5 221t-316.5 80
q-185 0 -307.5 120t-122.5 304t122.5 304t307.5 120q74 0 139 -21h408zM901 676q0 170 -110 278.5t-281 108.5t-281 -108.5t-110 -278.5t110 -278.5t281 -108.5t281 108.5t110 278.5z" />
    <glyph glyph-name="gbreve.ss01" horiz-adv-x="1089" 
d="M524 1270q-107 0 -175 70t-68 178h36q0 -93 57.5 -152t149.5 -59t149.5 59t57.5 152h37q0 -108 -68.5 -178t-175.5 -70zM1057 1079v-37h-322q95 -55 150 -150.5t55 -215.5q0 -146 -80.5 -255t-212.5 -149q157 -27 245.5 -110t88.5 -211q0 -157 -120 -247.5t-339 -90.5
q-385 0 -491 299l37 14q47 -134 155.5 -205t298.5 -71q205 0 312.5 79t107.5 222q0 141 -115.5 221t-316.5 80q-185 0 -307.5 120t-122.5 304t122.5 304t307.5 120q74 0 139 -21h408zM901 676q0 170 -110 278.5t-281 108.5t-281 -108.5t-110 -278.5t110 -278.5t281 -108.5
t281 108.5t110 278.5z" />
    <glyph glyph-name="uni0123.ss01" horiz-adv-x="1089" 
d="M522 1247q-28 0 -46.5 19.5t-18.5 50.5q0 36 26 86l84 156l31 -11l-80 -153l-6 -15h10q29 0 48.5 -19t19.5 -48q0 -28 -19.5 -47t-48.5 -19zM1057 1079v-37h-322q95 -55 150 -150.5t55 -215.5q0 -146 -80.5 -255t-212.5 -149q157 -27 245.5 -110t88.5 -211
q0 -157 -120 -247.5t-339 -90.5q-385 0 -491 299l37 14q47 -134 155.5 -205t298.5 -71q205 0 312.5 79t107.5 222q0 141 -115.5 221t-316.5 80q-185 0 -307.5 120t-122.5 304t122.5 304t307.5 120q74 0 139 -21h408zM901 676q0 170 -110 278.5t-281 108.5t-281 -108.5
t-110 -278.5t110 -278.5t281 -108.5t281 108.5t110 278.5z" />
    <glyph glyph-name="gdotaccent.ss01" horiz-adv-x="1089" 
d="M524 1321q-32 0 -53.5 21t-21.5 53t21.5 53.5t53.5 21.5t54 -21.5t22 -53.5t-22 -53t-54 -21zM1057 1079v-37h-322q95 -55 150 -150.5t55 -215.5q0 -146 -80.5 -255t-212.5 -149q157 -27 245.5 -110t88.5 -211q0 -157 -120 -247.5t-339 -90.5q-385 0 -491 299l37 14
q47 -134 155.5 -205t298.5 -71q205 0 312.5 79t107.5 222q0 141 -115.5 221t-316.5 80q-185 0 -307.5 120t-122.5 304t122.5 304t307.5 120q74 0 139 -21h408zM901 676q0 170 -110 278.5t-281 108.5t-281 -108.5t-110 -278.5t110 -278.5t281 -108.5t281 108.5t110 278.5z
" />
    <glyph glyph-name="t.ss01" horiz-adv-x="665" 
d="M303 0v1042h-285v37h207q44 0 63 19.5t19 62.5v187h35v-269h307v-37h-307v-1042h-39z" />
    <glyph glyph-name="tbar.ss01" horiz-adv-x="751" 
d="M696 1042h-307v-393h258v-37h-258v-612h-39v612h-254v37h254v393h-284v37h206q44 0 63 19.5t19 62.5v187h35v-269h307v-37z" />
    <glyph glyph-name="tcaron.ss01" horiz-adv-x="665" 
d="M553 1151l41 408h37l-45 -408h-33zM303 0v1042h-285v37h207q44 0 63 19.5t19 62.5v187h35v-269h307v-37h-307v-1042h-39z" />
    <glyph glyph-name="uni0163.ss01" horiz-adv-x="665" 
d="M342 1042v-1042l-68 -139q92 0 147.5 -51.5t55.5 -128.5q0 -76 -53 -128.5t-145 -52.5q-122 0 -195 94l27 25q66 -82 168 -82q72 0 116.5 42t44.5 102q0 62 -47.5 104.5t-118.5 42.5h-36l-11 16l76 156v1042h-285v37h207q44 0 63 19.5t19 62.5v187h35v-269h307v-37h-307z
" />
    <glyph glyph-name="uni021B.ss01" horiz-adv-x="665" 
d="M342 1079h307v-37h-307v-1042h-39v1042h-285v37h207q44 0 63 19.5t19 62.5v187h35v-269zM336 -113q28 0 46.5 -19.5t18.5 -49.5q0 -36 -26 -86l-84 -156l-31 10l80 154l6 14h-10q-29 0 -48.5 19.5t-19.5 48.5q0 28 19.5 46.5t48.5 18.5z" />
    <glyph glyph-name="u.ss01" horiz-adv-x="1224" 
d="M612 -20q-208 0 -327 120t-119 320v659h39v-657q0 -187 109.5 -297.5t297.5 -110.5t298 110.5t110 297.5v657h39v-659q0 -200 -119.5 -320t-327.5 -120z" />
    <glyph glyph-name="uacute.ss01" horiz-adv-x="1224" 
d="M455 1270l-19 28l363 220l20 -31zM612 -20q-208 0 -327 120t-119 320v659h39v-657q0 -187 109.5 -297.5t297.5 -110.5t298 110.5t110 297.5v657h39v-659q0 -200 -119.5 -320t-327.5 -120z" />
    <glyph glyph-name="ucircumflex.ss01" horiz-adv-x="1224" 
d="M612 1481l-221 -211h-49l254 248h33l254 -248h-49zM1020 1079h39v-659q0 -200 -119.5 -320t-327.5 -120t-327 120t-119 320v659h39v-657q0 -187 109.5 -297.5t297.5 -110.5t298 110.5t110 297.5v657z" />
    <glyph glyph-name="udieresis.ss01" horiz-adv-x="1224" 
d="M451 1323q-29 0 -51.5 21.5t-22.5 50.5t22 50t52 21q28 0 49.5 -21t21.5 -50t-21.5 -50.5t-49.5 -21.5zM772 1323q-28 0 -50 21.5t-22 50.5t22 50t50 21q30 0 52 -21t22 -50t-22.5 -50.5t-51.5 -21.5zM612 -20q-208 0 -327 120t-119 320v659h39v-657q0 -187 109.5 -297.5
t297.5 -110.5t298 110.5t110 297.5v657h39v-659q0 -200 -119.5 -320t-327.5 -120z" />
    <glyph glyph-name="ugrave.ss01" horiz-adv-x="1224" 
d="M760 1270l-365 217l21 31l362 -220zM612 -20q-208 0 -327 120t-119 320v659h39v-657q0 -187 109.5 -297.5t297.5 -110.5t298 110.5t110 297.5v657h39v-659q0 -200 -119.5 -320t-327.5 -120z" />
    <glyph glyph-name="uhungarumlaut.ss01" horiz-adv-x="1224" 
d="M426 1270l-29 18l201 273l33 -21zM731 1270l-29 18l201 273l33 -21zM612 -20q-208 0 -327 120t-119 320v659h39v-657q0 -187 109.5 -297.5t297.5 -110.5t298 110.5t110 297.5v657h39v-659q0 -200 -119.5 -320t-327.5 -120z" />
    <glyph glyph-name="umacron.ss01" horiz-adv-x="1224" 
d="M356 1376v37h510v-37h-510zM612 -20q-208 0 -327 120t-119 320v659h39v-657q0 -187 109.5 -297.5t297.5 -110.5t298 110.5t110 297.5v657h39v-659q0 -200 -119.5 -320t-327.5 -120z" />
    <glyph glyph-name="uogonek.ss01" horiz-adv-x="1224" 
d="M1020 1079h39v-659q0 -159 -77 -269.5t-216 -150.5l-59 -59q-75 -75 -105.5 -127.5t-30.5 -102.5q0 -56 33.5 -90.5t87.5 -34.5q78 0 119 49l25 -22q-51 -64 -144 -64q-72 0 -114.5 46t-42.5 116q0 59 34 116.5t113 133.5l27 27q-41 -8 -97 -8q-208 0 -327 120t-119 320
v659h39v-657q0 -187 109.5 -297.5t297.5 -110.5t298 110.5t110 297.5v657z" />
    <glyph glyph-name="uring.ss01" horiz-adv-x="1224" 
d="M612 1217q-66 0 -110.5 43.5t-44.5 107.5q0 65 44.5 108.5t110.5 43.5t111 -44t45 -108t-45 -107.5t-111 -43.5zM612 1251q51 0 85 33.5t34 83.5t-34 83.5t-85 33.5t-84.5 -33.5t-33.5 -83.5t33.5 -83.5t84.5 -33.5zM612 -20q-208 0 -327 120t-119 320v659h39v-657
q0 -187 109.5 -297.5t297.5 -110.5t298 110.5t110 297.5v657h39v-659q0 -200 -119.5 -320t-327.5 -120z" />
    <glyph glyph-name="utilde.ss01" horiz-adv-x="1224" 
d="M731 1321q-42 0 -77 17.5t-55.5 38t-50.5 38t-63 17.5q-50 0 -80 -31.5t-38 -79.5l-37 14q11 52 51.5 92.5t107.5 40.5q40 0 74 -17t54.5 -38t51 -38t64.5 -17q52 0 83.5 31.5t39.5 78.5l37 -14q-11 -53 -51.5 -93t-110.5 -40zM612 -20q-208 0 -327 120t-119 320v659h39
v-657q0 -187 109.5 -297.5t297.5 -110.5t298 110.5t110 297.5v657h39v-659q0 -200 -119.5 -320t-327.5 -120z" />
    <glyph glyph-name="y.ss01" horiz-adv-x="1236" 
d="M1018 1079h39v-1016q0 -218 -115.5 -333t-333.5 -115q-158 0 -267 76t-153 217l35 12q38 -129 138 -198.5t249 -69.5q200 0 304 104.5t104 306.5v175q-36 -107 -154 -182.5t-256 -75.5q-203 0 -322.5 119t-119.5 321v659h39v-657q0 -187 109 -297.5t292 -108.5
q106 1 201 48.5t152 127t59 168.5v719z" />
    <glyph glyph-name="yacute.ss01" horiz-adv-x="1236" 
d="M813 1487l-364 -217l-19 28l363 220zM1018 1079h39v-1016q0 -218 -115.5 -333t-333.5 -115q-158 0 -267 76t-153 217l35 12q38 -129 138 -198.5t249 -69.5q200 0 304 104.5t104 306.5v175q-36 -107 -154 -182.5t-256 -75.5q-203 0 -322.5 119t-119.5 321v659h39v-657
q0 -187 109 -297.5t292 -108.5q106 1 201 48.5t152 127t59 168.5v719z" />
    <glyph glyph-name="ycircumflex.ss01" horiz-adv-x="1236" 
d="M606 1481l-221 -211h-49l254 248h33l254 -248h-50zM1018 1079h39v-1016q0 -218 -115.5 -333t-333.5 -115q-158 0 -267 76t-153 217l35 12q38 -129 138 -198.5t249 -69.5q200 0 304 104.5t104 306.5v175q-36 -107 -154 -182.5t-256 -75.5q-203 0 -322.5 119t-119.5 321
v659h39v-657q0 -187 109 -297.5t292 -108.5q106 1 201 48.5t152 127t59 168.5v719z" />
    <glyph glyph-name="ydieresis.ss01" horiz-adv-x="1236" 
d="M444 1323q-29 0 -51 21.5t-22 50.5t22 50t51 21q28 0 50 -21t22 -50t-22 -50.5t-50 -21.5zM766 1323q-28 0 -50 21.5t-22 50.5t22 50t50 21q30 0 52 -21t22 -50t-22.5 -50.5t-51.5 -21.5zM1018 1079h39v-1016q0 -218 -115.5 -333t-333.5 -115q-158 0 -267 76t-153 217
l35 12q38 -129 138 -198.5t249 -69.5q200 0 304 104.5t104 306.5v175q-36 -107 -154 -182.5t-256 -75.5q-203 0 -322.5 119t-119.5 321v659h39v-657q0 -187 109 -297.5t292 -108.5q106 1 201 48.5t152 127t59 168.5v719z" />
    <glyph glyph-name="ygrave.ss01" horiz-adv-x="1236" 
d="M772 1298l-18 -28l-365 217l21 31zM1018 1079h39v-1016q0 -218 -115.5 -333t-333.5 -115q-158 0 -267 76t-153 217l35 12q38 -129 138 -198.5t249 -69.5q200 0 304 104.5t104 306.5v175q-36 -107 -154 -182.5t-256 -75.5q-203 0 -322.5 119t-119.5 321v659h39v-657
q0 -187 109 -297.5t292 -108.5q106 1 201 48.5t152 127t59 168.5v719z" />
    <glyph glyph-name="uni1EF9.ss01" horiz-adv-x="1236" 
d="M479 1432q-50 0 -80.5 -32t-38.5 -79l-36 14q11 52 51.5 92.5t107.5 40.5q40 0 74 -17t54.5 -38t51 -38t64.5 -17q52 0 83.5 31.5t39.5 78.5l37 -14q-11 -53 -51.5 -93t-110.5 -40q-42 0 -77 17.5t-55.5 38t-50.5 38t-63 17.5zM1018 1079h39v-1016q0 -218 -115.5 -333
t-333.5 -115q-158 0 -267 76t-153 217l35 12q38 -129 138 -198.5t249 -69.5q200 0 304 104.5t104 306.5v175q-36 -107 -154 -182.5t-256 -75.5q-203 0 -322.5 119t-119.5 321v659h39v-657q0 -187 109 -297.5t292 -108.5q106 1 201 48.5t152 127t59 168.5v719z" />
    <glyph glyph-name="zero.osf" horiz-adv-x="1331" 
d="M668 -18q-115 0 -216 38.5t-176.5 109t-119 177t-43.5 234.5t43.5 234.5t119 177t176.5 109t216 38.5q154 0 278.5 -66t198.5 -194.5t74 -298.5t-74 -298.5t-198.5 -194.5t-278.5 -66zM668 18q138 0 253.5 61.5t187 182.5t71.5 279t-71.5 278.5t-187 182t-253.5 61.5
q-141 0 -257 -61t-187.5 -181.5t-71.5 -279.5q0 -158 71 -279t187 -182.5t258 -61.5z" />
    <glyph glyph-name="one.osf" horiz-adv-x="712" 
d="M420 37h256v-37h-584v37h289v1005h-299v37h338v-1042z" />
    <glyph glyph-name="two.osf" horiz-adv-x="1054" 
d="M182 37h811v-37h-903v27q399 204 576.5 374t177.5 349q0 143 -93.5 228t-250.5 85q-137 0 -236 -62.5t-131 -169.5l-39 15q37 118 146 186t260 68q173 0 278 -95t105 -253q0 -183 -167.5 -353.5t-533.5 -361.5z" />
    <glyph glyph-name="three.osf" horiz-adv-x="1024" 
d="M520 502q176 0 291 -108.5t115 -280.5q0 -174 -118.5 -290t-311.5 -116q-164 0 -283 83.5t-154 207.5l37 14q32 -114 141.5 -191t260.5 -77q176 0 282.5 104t106.5 265q0 162 -107.5 258t-259.5 96h-114v35l466 540h-761v37h811v-37l-469 -540h67z" />
    <glyph glyph-name="four.osf" horiz-adv-x="1079" 
d="M1024 150v-37h-193v-357h-38v357h-723v22l723 942h38v-927h193zM793 150v868l-666 -868h666z" />
    <glyph glyph-name="five.osf" horiz-adv-x="1005" 
d="M489 516q191 0 313 -112.5t122 -290.5t-122.5 -292t-312.5 -114q-155 0 -267.5 77.5t-153.5 217.5l36 14q34 -124 137 -198t248 -74q171 0 283.5 103.5t112.5 265.5q0 158 -113 262t-283 104h-315l33 600h647v-37h-612l-29 -526h276z" />
    <glyph glyph-name="six.osf" horiz-adv-x="1052" 
d="M535 881q189 0 314.5 -128.5t125.5 -322.5q0 -193 -125.5 -321.5t-314.5 -128.5q-194 0 -326.5 130t-132.5 320q0 166 114 309l486 613h49l-420 -531q123 60 230 60zM535 16q175 0 288 117t113 297t-113 297t-288 117q-180 0 -300 -118.5t-120 -295.5t120 -295.5
t300 -118.5z" />
    <glyph glyph-name="seven.osf" horiz-adv-x="886" 
d="M27 1079h815v-37l-523 -1314h-43l521 1312h-770v39z" />
    <glyph glyph-name="eight.osf" horiz-adv-x="1077" 
d="M666 731q54 -15 105 -45t95.5 -75t71.5 -110t27 -139q0 -170 -120 -276t-306 -106q-187 0 -306.5 106.5t-119.5 275.5q0 95 46 175.5t112 127t141 66.5q-106 32 -174 111t-68 198q0 143 104 235t265 91q160 -2 263 -91.5t103 -236.5q0 -121 -68 -198.5t-171 -108.5z
M209 1040q0 -128 92 -209t238 -81t236.5 81t90.5 209q0 130 -89.5 209.5t-237.5 79.5q-149 0 -239.5 -80t-90.5 -209zM539 16q178 0 282.5 95t104.5 254q0 152 -108 250t-279 98q-172 0 -279.5 -98t-107.5 -250q0 -159 104.5 -254t282.5 -95z" />
    <glyph glyph-name="nine.osf" horiz-adv-x="1042" 
d="M514 1100q193 0 325 -130t132 -321q0 -164 -115 -309l-485 -612h-49l421 530q-120 -57 -229 -57q-189 0 -315.5 127.5t-126.5 320.5q0 194 126 322.5t316 128.5zM514 238q179 0 298.5 117t119.5 294q0 178 -119.5 296t-298.5 118q-175 0 -289 -116.5t-114 -297.5
q0 -180 114 -295.5t289 -115.5z" />
    <glyph glyph-name="uni030C.alt" 
d="M-201 1036l41 408h37l-45 -408h-33z" />
    <glyph glyph-name="caron.alt" horiz-adv-x="194" 
d="M123 1036l41 408h37l-45 -408h-33z" />
    <glyph glyph-name="uni0308.case" 
d="M-461 1628q-28 0 -48.5 20t-20.5 48t20.5 47.5t48.5 19.5q27 0 47.5 -20t20.5 -47t-20.5 -47.5t-47.5 -20.5zM-131 1628q-27 0 -47.5 20.5t-20.5 47.5t20.5 47t47.5 20q28 0 49 -20t21 -47q0 -28 -21 -48t-49 -20z" />
    <glyph glyph-name="uni0307.case" 
d="M-127 1628q-29 0 -48.5 19.5t-19.5 48.5q0 28 19.5 46.5t48.5 18.5q28 0 47 -18.5t19 -46.5q0 -29 -19 -48.5t-47 -19.5z" />
    <glyph glyph-name="gravecomb.case" 
d="M-74 1591l-422 176l15 35l420 -180z" />
    <glyph glyph-name="acutecomb.case" 
d="M-481 1591l-13 31l420 180l15 -35z" />
    <glyph glyph-name="uni030B.case" 
d="M-592 1532l-29 18l201 314l33 -21zM-266 1532l-29 18l201 314l33 -21z" />
    <glyph glyph-name="uni0302.case" 
d="M-61 1591h-50l-208 176l-209 -176h-50l242 211h33z" />
    <glyph glyph-name="uni030C.case" 
d="M-111 1802h50l-242 -211h-33l-242 211h50l209 -176z" />
    <glyph glyph-name="uni0306.case" 
d="M-291 1591q-103 0 -166 63.5t-63 147.5h37q0 -69 52 -121.5t140 -52.5t140.5 52.5t52.5 121.5h37q0 -84 -63.5 -147.5t-166.5 -63.5z" />
    <glyph glyph-name="uni030A.case" 
d="M-203 1520q-66 0 -110.5 43.5t-44.5 107.5q0 65 44.5 108.5t110.5 43.5t111 -44t45 -108t-45 -107.5t-111 -43.5zM-203 1554q51 0 85 33.5t34 83.5t-34 83.5t-85 33.5t-85 -33.5t-34 -83.5t34 -83.5t85 -33.5z" />
    <glyph glyph-name="tildecomb.case" 
d="M-223 1618q-42 0 -77 17.5t-55.5 38t-50.5 38t-63 17.5q-50 0 -80.5 -32t-38.5 -79l-37 14q11 52 52 92.5t108 40.5q40 0 74 -17t54.5 -38t51 -38t64.5 -17q52 0 83.5 31.5t39.5 78.5l37 -14q-11 -53 -51.5 -93t-110.5 -40z" />
    <glyph glyph-name="uni0304.case" 
d="M-571 1679v37h510v-37h-510z" />
    <glyph glyph-name="uni0326.case" 
d="M-127 -102q28 0 47 -20t19 -50q0 -34 -27 -86l-84 -156l-31 11l80 153l6 14h-10q-29 0 -48.5 19.5t-19.5 48.5q0 28 19.5 47t48.5 19z" />
    <glyph glyph-name="uni0337.case" 
d="M-532 389l-17 33l473 219l15 -33z" />
    <glyph glyph-name="uni0338.case" 
d="M-1374 37l-29 29l1251 1404l29 -26z" />
    <glyph glyph-name="dieresis.case" horiz-adv-x="526" 
d="M131 1628q-28 0 -49 20t-21 48q0 27 21 47t49 20q27 0 47.5 -20t20.5 -47t-20.5 -47.5t-47.5 -20.5zM461 1628q-27 0 -47.5 20.5t-20.5 47.5t20.5 47t47.5 20q28 0 48.5 -19.5t20.5 -47.5t-20.5 -48t-48.5 -20z" />
    <glyph glyph-name="dotaccent.case" horiz-adv-x="184" 
d="M129 1628q-29 0 -48.5 19.5t-19.5 48.5q0 28 19.5 46.5t48.5 18.5q28 0 47 -18.5t19 -46.5q0 -29 -19 -48.5t-47 -19.5z" />
    <glyph glyph-name="grave.case" horiz-adv-x="442" 
d="M483 1591l-422 176l15 35l420 -180z" />
    <glyph glyph-name="acute.case" horiz-adv-x="442" 
d="M74 1591l-13 31l420 180l15 -35z" />
    <glyph glyph-name="hungarumlaut.case" horiz-adv-x="804" 
d="M90 1532l-29 18l201 314l33 -21zM416 1532l-29 18l201 314l33 -21z" />
    <glyph glyph-name="circumflex.case" horiz-adv-x="595" 
d="M578 1591h-50l-209 176l-208 -176h-50l242 211h33z" />
    <glyph glyph-name="caron.case" horiz-adv-x="595" 
d="M528 1802h50l-242 -211h-33l-242 211h50l208 -176z" />
    <glyph glyph-name="breve.case" horiz-adv-x="540" 
d="M291 1591q-103 0 -166.5 63.5t-63.5 147.5h37q0 -69 52.5 -121.5t140.5 -52.5t140 52.5t52 121.5h37q0 -84 -63 -147.5t-166 -63.5z" />
    <glyph glyph-name="ring.case" horiz-adv-x="335" 
d="M203 1520q-66 0 -111 43.5t-45 107.5t45 108t111 44t110.5 -43.5t44.5 -108.5q0 -64 -44.5 -107.5t-110.5 -43.5zM203 1554q51 0 85 33.5t34 83.5t-34 83.5t-85 33.5t-85 -33.5t-34 -83.5t34 -83.5t85 -33.5z" />
    <glyph glyph-name="tilde.case" horiz-adv-x="710" 
d="M463 1618q-42 0 -77 17.5t-55.5 38t-50.5 38t-63 17.5q-50 0 -80.5 -32t-38.5 -79l-37 14q11 52 52 92.5t108 40.5q40 0 74 -17t54.5 -38t51 -38t64.5 -17q52 0 83.5 31.5t39.5 78.5l37 -14q-11 -53 -51.5 -93t-110.5 -40z" />
    <glyph glyph-name="macron.case" horiz-adv-x="612" 
d="M61 1679v37h510v-37h-510z" />
    <glyph glyph-name="IJacute" horiz-adv-x="1116" 
d="M41 1591l-12 31l420 180l14 -35zM721 1591l-12 31l419 180l15 -35zM205 0v1423h39v-1423h-39zM502 0v35h108q127 0 201 81.5t74 229.5v1077h39v-1077q0 -164 -86 -255t-230 -91h-106z" />
    <glyph glyph-name="ijacute" horiz-adv-x="940" 
d="M43 1270l-18 28l362 220l21 -31zM580 1268l-19 28l363 220l20 -31zM182 0v1079h39v-1079h-39zM422 -367v39h22q124 0 199.5 81.5t75.5 211.5v1114h39v-1114q0 -149 -86.5 -240.5t-231.5 -91.5h-18z" />
    </font>
</defs>
</svg>
