<?xml version="1.0" standalone="no"?>
<!DOCTYPE svg PUBLIC "-//W3C//DTD SVG 1.1//EN" "http://www.w3.org/Graphics/SVG/1.1/DTD/svg11.dtd" >
<svg xmlns="http://www.w3.org/2000/svg" xmlns:xlink="http://www.w3.org/1999/xlink" version="1.1">
<metadata>
Created by FontForge 20201107 at Thu Oct 31 06:45:09 2024
 By 
Copyright (c) 2019 by Daniel Hernandez &#38; Rodrigo Fuenzalida. All rights reserved.
</metadata>
<defs>
<font id="Biennale-Book" horiz-adv-x="0" >
  <font-face 
    font-family="Biennale Book"
    font-weight="375"
    font-stretch="normal"
    units-per-em="2048"
    panose-1="0 0 4 0 0 0 0 0 0 0"
    ascent="1638"
    descent="-410"
    x-height="1079"
    cap-height="1423"
    bbox="-1460 -502 4520 1933"
    underline-thickness="102"
    underline-position="-204"
    unicode-range="U+0020-FB02"
  />
<missing-glyph horiz-adv-x="1290" 
d="M205 1495h880v-1495h-880v1495zM338 1423l307 -587l307 587h-614zM600 748l-313 598v-1196zM692 748l312 -598v1196zM645 659l-307 -587h614z" />
    <glyph glyph-name="fi" unicode="fi" horiz-adv-x="1009" 
d="M606 1409q-110 0 -172.5 -67.5t-62.5 -192.5v-70h483v-1079h-135v961h-348v-961h-135v961h-207v118h207v60q0 180 97.5 280.5t270.5 100.5h250v-111h-248z" />
    <glyph glyph-name="fl" unicode="fl" horiz-adv-x="1044" 
d="M889 1497v-1497h-135v1386h-148q-110 0 -172.5 -67.5t-62.5 -192.5v-53h235v-112h-235v-961h-135v961h-207v118h207v37q0 180 97.5 280.5t270.5 100.5h285z" />
    <glyph glyph-name=".notdef" horiz-adv-x="1290" 
d="M205 1495h880v-1495h-880v1495zM338 1423l307 -587l307 587h-614zM600 748l-313 598v-1196zM692 748l312 -598v1196zM645 659l-307 -587h614z" />
    <glyph glyph-name=".null" 
 />
    <glyph glyph-name="nonmarkingreturn" horiz-adv-x="682" 
 />
    <glyph glyph-name="space" unicode=" " horiz-adv-x="479" 
 />
    <glyph glyph-name="exclam" unicode="!" horiz-adv-x="485" 
d="M186 406l-24 1091h160l-23 -1091h-113zM242 -18q-43 0 -73 29t-30 71q0 45 30 74.5t73 29.5q45 0 74.5 -29.5t29.5 -74.5q0 -43 -30 -71.5t-74 -28.5z" />
    <glyph glyph-name="quotedbl" unicode="&#x22;" horiz-adv-x="618" 
d="M123 1057l-10 407h127l-13 -407h-104zM391 1057l-10 407h125l-10 -407h-105z" />
    <glyph glyph-name="numbersign" unicode="#" horiz-adv-x="1396" 
d="M1337 930h-264l-115 -424h242v-107h-270l-109 -399h-119l109 399h-395l-109 -399h-117l109 399h-238v107h269l114 424h-243v106h272l107 387h114l-104 -387h395l107 387h116l-104 -387h233v-106zM842 506l114 424h-397l-115 -424h398z" />
    <glyph glyph-name="dollar" unicode="$" horiz-adv-x="968" 
d="M887 356q0 -137 -91 -227t-247 -109v-186h-113v184q-141 9 -241 86.5t-136 210.5l121 45q28 -111 107 -171t200 -60q123 0 197 60.5t74 162.5q0 59 -22 105t-59 76.5t-85 55.5t-101 46t-106.5 43.5t-101.5 52t-85 66.5t-59 93t-22 126q0 130 88 218t239 101v185h113v-187
q120 -14 200.5 -80t112.5 -178l-120 -45q-57 197 -261 197q-116 0 -180.5 -55t-64.5 -144q0 -55 22 -98.5t59 -72t85.5 -52t102 -44t106.5 -43t101.5 -54t85.5 -71t59 -100.5t22 -137z" />
    <glyph glyph-name="percent" unicode="%" horiz-adv-x="1511" 
d="M377 786q-137 0 -227.5 93.5t-90.5 230.5t90.5 231.5t227.5 94.5q136 0 225.5 -94.5t89.5 -231.5q0 -138 -89 -231t-226 -93zM283 0l829 1423h115l-832 -1423h-112zM377 879q93 0 156 67t63 166q0 96 -63 165t-156 69q-95 0 -159 -68.5t-64 -165.5q0 -100 63.5 -166.5
t159.5 -66.5zM1137 -12q-137 0 -227.5 93t-90.5 230t90.5 231.5t227.5 94.5q136 0 225.5 -94.5t89.5 -231.5q0 -138 -89 -230.5t-226 -92.5zM1137 78q94 0 157.5 67t63.5 168q0 95 -64 163.5t-157 68.5q-94 0 -158 -68.5t-64 -163.5q0 -101 63.5 -168t158.5 -67z" />
    <glyph glyph-name="ampersand" unicode="&#x26;" horiz-adv-x="1339" 
d="M1280 0h-158l-127 127q-156 -147 -415 -147q-132 0 -244 52.5t-179 148t-67 212.5q0 140 66 235.5t186 164.5q-61 74 -86 142.5t-25 154.5q0 149 108.5 249.5t287.5 100.5q177 0 287.5 -95.5t132.5 -254.5h-144q-18 98 -88.5 158.5t-189.5 60.5q-114 0 -185 -68.5
t-71 -161.5q0 -41 9.5 -77t23 -65t47 -70.5t62 -72.5t87.5 -92l389 -401q57 71 93.5 187.5t39.5 250.5l129 -53q-4 -155 -51 -278t-121 -199zM582 102q197 0 323 115l-434 436l-53 54q-60 -36 -99 -73t-65.5 -95.5t-26.5 -132.5q0 -129 105.5 -216.5t249.5 -87.5z" />
    <glyph glyph-name="quotesingle" unicode="'" horiz-adv-x="350" 
d="M123 1057l-10 407h127l-13 -407h-104z" />
    <glyph glyph-name="parenleft" unicode="(" horiz-adv-x="634" 
d="M528 -209q-87 59 -161.5 141.5t-138 192t-100 253.5t-36.5 304q0 159 36.5 302.5t100 253t138 192t161.5 141.5l86 -94q-80 -55 -147.5 -130t-123.5 -173t-88 -224.5t-32 -267.5t32 -268.5t88 -226t123.5 -174t147.5 -130.5z" />
    <glyph glyph-name="parenright" unicode=")" horiz-adv-x="634" 
d="M106 -209l-86 92q80 55 147.5 130.5t124 174t88.5 226t32 268.5t-32 267.5t-88.5 224.5t-124 173t-147.5 130l86 94q87 -59 162 -141.5t139 -192t101 -253t37 -302.5q0 -160 -37 -304t-101 -253.5t-139 -192t-162 -141.5z" />
    <glyph glyph-name="asterisk" unicode="*" horiz-adv-x="825" 
d="M356 823l15 250l-213 -139l-56 102l236 117l-236 119l56 100l213 -139l-15 264h113l-14 -264l213 139l57 -100l-238 -119l238 -117l-57 -102l-213 139l14 -250h-113z" />
    <glyph glyph-name="plus" unicode="+" horiz-adv-x="991" 
d="M928 690v-121h-371v-409h-123v409h-371v121h371v395h123v-395h371z" />
    <glyph glyph-name="comma" unicode="," horiz-adv-x="393" 
d="M197 186q43 0 72.5 -29.5t29.5 -74.5q0 -51 -35 -117l-82 -164h-88l92 185q-41 3 -66.5 29.5t-25.5 68.5q0 44 30 73t73 29z" />
    <glyph glyph-name="hyphen" unicode="-" horiz-adv-x="768" 
d="M129 461v114h508v-114h-508z" />
    <glyph glyph-name="period" unicode="." horiz-adv-x="407" 
d="M203 -18q-43 0 -73 29t-30 71q0 45 30 74.5t73 29.5q45 0 74.5 -29.5t29.5 -74.5q0 -43 -30 -71.5t-74 -28.5z" />
    <glyph glyph-name="slash" unicode="/" horiz-adv-x="675" 
d="M78 -102l395 1558h121l-391 -1558h-125z" />
    <glyph glyph-name="zero" unicode="0" horiz-adv-x="1409" 
d="M707 -20q-276 0 -437 195.5t-161 535.5q0 342 160.5 536.5t437.5 194.5q275 0 434 -194t159 -537q0 -339 -160.5 -535t-432.5 -196zM707 109q206 0 330 161t124 441t-124 440t-330 160q-209 0 -334 -160t-125 -440q0 -281 125 -441.5t334 -160.5z" />
    <glyph glyph-name="one" unicode="1" horiz-adv-x="712" 
d="M465 115h201v-115h-578v115h242v1001h-234v115h234v192h135v-1308z" />
    <glyph glyph-name="two" unicode="2" horiz-adv-x="1091" 
d="M276 117h725v-117h-921v90l530 557q228 233 228 414q0 116 -81.5 189t-213.5 73q-119 0 -209 -65t-123 -185l-129 43q40 149 166 238.5t295 89.5q194 0 313 -105.5t119 -273.5q0 -71 -21.5 -140t-62 -131.5t-81.5 -112t-95 -103.5z" />
    <glyph glyph-name="three" unicode="3" horiz-adv-x="1132" 
d="M598 829q190 0 314 -116t124 -299q0 -189 -135 -313t-350 -124q-185 0 -319 89t-175 227l127 49q32 -107 130.5 -176.5t234.5 -69.5q157 0 251.5 91.5t94.5 232.5q0 144 -95.5 228.5t-232.5 84.5h-161v96l446 482h-733v112h889v-110l-447 -484h37z" />
    <glyph glyph-name="four" unicode="4" horiz-adv-x="1177" 
d="M1116 463v-109h-190v-354h-135v354h-752v92l752 975h135v-958h190zM791 463v778l-601 -778h601z" />
    <glyph glyph-name="five" unicode="5" horiz-adv-x="1110" 
d="M539 860q217 0 351 -121.5t134 -318.5q0 -196 -134.5 -319.5t-354.5 -123.5q-176 0 -301.5 83.5t-172.5 236.5l125 49q32 -116 126.5 -183t224.5 -67q155 0 251.5 91.5t96.5 234.5q0 141 -98 234.5t-252 93.5h-353l37 673h725v-110h-608l-25 -453h228z" />
    <glyph glyph-name="six" unicode="6" horiz-adv-x="1146" 
d="M584 938q215 0 354 -133t139 -344q0 -212 -140.5 -348t-352.5 -136q-216 0 -361 138t-145 346q0 179 125 338l485 624h162l-393 -501q57 16 127 16zM584 96q154 0 254 103.5t100 261.5t-100 260t-254 102q-157 0 -262 -103.5t-105 -258.5q0 -157 105 -261t262 -104z" />
    <glyph glyph-name="seven" unicode="7" horiz-adv-x="972" 
d="M29 1423h899v-108l-518 -1315h-152l518 1305h-747v118z" />
    <glyph glyph-name="eight" unicode="8" horiz-adv-x="1142" 
d="M748 762q124 -37 208 -140t84 -243q0 -176 -132 -289t-337 -113t-337 113t-132 289q0 140 83.5 243t207.5 142q-103 37 -167 120.5t-64 200.5q0 153 112.5 255t296.5 102q182 0 296 -101.5t114 -255.5q0 -119 -64 -201.5t-169 -121.5zM293 1071q0 -109 78.5 -183.5
t199.5 -74.5t200 74.5t79 183.5q0 110 -77.5 183t-201.5 73q-123 0 -200.5 -73t-77.5 -183zM571 92q152 0 242 84.5t90 218.5q0 135 -92 223.5t-240 88.5q-146 0 -238.5 -88.5t-92.5 -223.5q0 -134 90.5 -218.5t240.5 -84.5z" />
    <glyph glyph-name="nine" unicode="9" horiz-adv-x="1142" 
d="M563 1446q216 0 361 -137.5t145 -345.5q0 -179 -125 -338l-485 -625h-160l391 502q-61 -17 -127 -17q-214 0 -353.5 133.5t-139.5 344.5q0 212 140 347.5t353 135.5zM563 600q157 0 262 104t105 259q0 156 -105 260t-262 104q-154 0 -254 -103t-100 -261t100 -260.5
t254 -102.5z" />
    <glyph glyph-name="colon" unicode=":" horiz-adv-x="458" 
d="M229 725q-44 0 -73 29t-29 73t29 73.5t73 29.5t73.5 -29.5t29.5 -73.5t-29.5 -73t-73.5 -29zM229 -18q-44 0 -73 28.5t-29 71.5q0 46 29 75t73 29q45 0 74 -29t29 -75q0 -43 -29.5 -71.5t-73.5 -28.5z" />
    <glyph glyph-name="semicolon" unicode=";" horiz-adv-x="464" 
d="M231 711q-44 0 -73 29.5t-29 72.5q0 45 29 75t73 30t73.5 -30.5t29.5 -74.5q0 -43 -29.5 -72.5t-73.5 -29.5zM233 186q43 0 73 -29.5t30 -74.5q0 -51 -35 -117l-82 -164h-88l92 185q-41 3 -66.5 29.5t-25.5 68.5q0 44 29.5 73t72.5 29z" />
    <glyph glyph-name="less" unicode="&#x3c;" horiz-adv-x="839" 
d="M731 1067v-131l-534 -336l534 -340v-131l-668 422v96z" />
    <glyph glyph-name="equal" unicode="=" horiz-adv-x="1128" 
d="M139 778v121h850v-121h-850zM139 297v121h850v-121h-850z" />
    <glyph glyph-name="greater" unicode="&#x3e;" horiz-adv-x="839" 
d="M106 1067l668 -420v-96l-668 -422v131l535 338l-535 338v131z" />
    <glyph glyph-name="question" unicode="?" horiz-adv-x="901" 
d="M315 406v92q0 73 20.5 135.5t53.5 106t72.5 83t79.5 75t73 72.5t53.5 86t20.5 105q0 106 -62.5 165.5t-170.5 59.5q-101 0 -175.5 -64.5t-93.5 -162.5l-129 39q26 143 138.5 231.5t267.5 88.5q170 0 268 -92t98 -252q0 -70 -21.5 -129t-56.5 -102t-76.5 -82.5t-83.5 -77
t-77 -77.5t-56.5 -94t-21.5 -116v-90h-121zM381 -18q-44 0 -73 28.5t-29 71.5q0 46 29 75t73 29t73 -29t29 -73t-29 -73t-73 -29z" />
    <glyph glyph-name="at" unicode="@" horiz-adv-x="1605" 
d="M1042 813h88v-467q0 -54 25.5 -83.5t75.5 -29.5q84 0 133 66.5t49 189.5q0 126 -45.5 237.5t-125 192.5t-193.5 128t-246 47q-176 0 -317.5 -81t-220.5 -221.5t-79 -312.5q0 -276 171 -442t450 -166q122 0 219.5 39t151.5 110l61 -69q-65 -81 -179 -127.5t-253 -46.5
q-325 0 -522 194t-197 508q0 201 89.5 362t253.5 253t372 92q156 0 289.5 -53.5t225 -146.5t143.5 -221.5t52 -275.5q0 -156 -80.5 -253t-201.5 -97q-78 0 -127.5 40t-59.5 112q-38 -78 -109 -122t-169 -44q-142 0 -236 101t-94 251q0 151 93.5 252.5t236.5 101.5
q94 0 165.5 -43.5t110.5 -119.5v145zM780 221q107 0 175.5 72.5t68.5 183.5q0 114 -68.5 186t-175.5 72q-102 0 -170.5 -73t-68.5 -185q0 -109 67.5 -182.5t171.5 -73.5z" />
    <glyph glyph-name="A" unicode="A" horiz-adv-x="1263" 
d="M1106 0l-164 438h-620l-164 -438h-135l526 1423h164l528 -1423h-135zM362 551h539l-268 725z" />
    <glyph glyph-name="B" unicode="B" horiz-adv-x="1263" 
d="M885 754q134 -39 208 -133t74 -230q0 -181 -119 -286t-331 -105h-539v1423h547q190 0 291.5 -94.5t101.5 -251.5q0 -112 -63 -197t-170 -126zM981 1055q0 116 -72.5 186t-208.5 70h-387v-512h379q123 0 206 70t83 186zM702 113q156 0 242 76t86 212q0 134 -89 209.5
t-241 75.5h-387v-573h389z" />
    <glyph glyph-name="C" unicode="C" horiz-adv-x="1490" 
d="M803 -23q-150 0 -281 54.5t-225 150.5t-147.5 233t-53.5 296t53.5 296.5t147 233.5t223 150.5t277.5 54.5q240 0 400 -121.5t235 -327.5l-132 -53q-63 178 -189.5 275.5t-315.5 97.5q-241 0 -400 -170t-159 -436q0 -175 73 -313.5t202 -215t290 -76.5q368 0 499 373
l132 -53q-74 -209 -231 -329t-398 -120z" />
    <glyph glyph-name="D" unicode="D" horiz-adv-x="1466" 
d="M682 1423q148 0 275 -51t218 -142.5t143 -224.5t52 -292t-52 -292.5t-143 -225.5t-218 -143.5t-275 -51.5h-504v1423h504zM678 123q241 0 397 161.5t156 426.5t-156 427t-397 162h-365v-1177h365z" />
    <glyph glyph-name="E" unicode="E" horiz-adv-x="1138" 
d="M313 121h748v-121h-883v1423h869v-120h-734v-502h668v-121h-668v-559z" />
    <glyph glyph-name="F" unicode="F" horiz-adv-x="1093" 
d="M1044 1303h-731v-508h662v-119h-662v-676h-135v1423h866v-120z" />
    <glyph glyph-name="G" unicode="G" horiz-adv-x="1574" 
d="M1491 731q0 -169 -53 -311t-145.5 -238.5t-220.5 -150.5t-275 -54q-149 0 -279 55t-223 151t-146 233t-53 295q0 159 53.5 296t146.5 233t222.5 151t278.5 55q237 0 397 -117.5t236 -318.5l-132 -54q-65 175 -192.5 268t-310.5 93q-160 0 -287.5 -77t-199.5 -216
t-72 -315q0 -268 160 -437.5t411 -169.5q223 0 373.5 139.5t179.5 381.5h-565v108h696z" />
    <glyph glyph-name="H" unicode="H" horiz-adv-x="1402" 
d="M1090 1423h135v-1423h-135v680h-777v-680h-135v1423h135v-620h777v620z" />
    <glyph glyph-name="I" unicode="I" horiz-adv-x="491" 
d="M178 0v1423h135v-1423h-135z" />
    <glyph glyph-name="J" unicode="J" horiz-adv-x="667" 
d="M33 0v121h98q108 0 171 68.5t63 191.5v1042h137v-1042q0 -179 -97 -280t-266 -101h-106z" />
    <glyph glyph-name="K" unicode="K" horiz-adv-x="1234" 
d="M1249 0h-168l-768 707v-707h-135v1423h135v-643l699 643h164l-719 -675z" />
    <glyph glyph-name="L" unicode="L" horiz-adv-x="1075" 
d="M313 123h736v-123h-871v1423h135v-1300z" />
    <glyph glyph-name="M" unicode="M" horiz-adv-x="1695" 
d="M1561 0h-127l-80 1221l-447 -1162h-116l-447 1162l-80 -1221h-129l94 1423h129v-2l25 2l465 -1206l465 1206l26 -2v2h127z" />
    <glyph glyph-name="N" unicode="N" horiz-adv-x="1404" 
d="M1090 1423h137v-1423h-115l-799 1186v-1186h-135v1423h115l797 -1187v1187z" />
    <glyph glyph-name="O" unicode="O" horiz-adv-x="1611" 
d="M807 -23q-151 0 -283 55t-226.5 151.5t-149 233.5t-54.5 294q0 211 92.5 379t255.5 262t365 94q199 0 361 -93.5t255 -262.5t93 -379t-93 -378t-255 -262t-361 -94zM807 106q162 0 292 77t203.5 215.5t73.5 312.5q0 266 -160.5 436t-408.5 170q-251 0 -412.5 -170
t-161.5 -436q0 -175 74 -313t205 -215t295 -77z" />
    <glyph glyph-name="P" unicode="P" horiz-adv-x="1204" 
d="M690 1423q210 0 332.5 -109t122.5 -294t-123 -295.5t-332 -110.5h-377v-614h-135v1423h512zM684 737q153 0 237.5 76.5t84.5 206.5q0 129 -85 206t-237 77h-371v-566h371z" />
    <glyph glyph-name="Q" unicode="Q" horiz-adv-x="1611" 
d="M1516 711q0 -207 -90.5 -373t-247.5 -260l292 -285l-92 -98l-331 321q-115 -39 -240 -39q-151 0 -283 55t-226.5 151.5t-149 233.5t-54.5 294q0 211 92.5 379t255.5 262t365 94q199 0 361 -93.5t255 -262.5t93 -379zM233 711q0 -175 74 -313t205 -215t295 -77
q162 0 292 77t203.5 215.5t73.5 312.5q0 266 -160.5 436t-408.5 170q-251 0 -412.5 -170t-161.5 -436z" />
    <glyph glyph-name="R" unicode="R" horiz-adv-x="1226" 
d="M989 0l-526 651h-150v-651h-135v1423h512q209 0 332 -106.5t123 -280.5q0 -172 -124 -278.5t-331 -106.5h-76l535 -651h-160zM313 1303v-549h375q151 0 236.5 75t85.5 199t-85.5 199.5t-236.5 75.5h-375z" />
    <glyph glyph-name="S" unicode="S" horiz-adv-x="1110" 
d="M549 -20q-187 0 -314.5 87t-171.5 244l132 49q31 -124 125 -192t237 -68q148 0 236 68.5t88 183.5q0 65 -25.5 116t-69 85.5t-100 62t-119 51t-125 47.5t-119 57t-100 73.5t-69 102.5t-25.5 140q0 159 117 258t315 99q171 0 282.5 -76t153.5 -213l-131 -49
q-33 112 -110 164.5t-201 52.5q-136 0 -212.5 -61t-76.5 -160q0 -62 26 -110t69.5 -80t100 -58t119 -49.5t125 -48t119 -59.5t100 -79t69.5 -111t26 -151q0 -170 -128.5 -273t-342.5 -103z" />
    <glyph glyph-name="T" unicode="T" horiz-adv-x="1103" 
d="M1077 1423v-123h-456v-1300h-138v1300h-456v123h1050z" />
    <glyph glyph-name="U" unicode="U" horiz-adv-x="1372" 
d="M1073 1423h137v-903q0 -112 -33 -209.5t-96 -172.5t-164 -118t-229 -43q-129 0 -231 43t-165.5 118t-96.5 172.5t-33 209.5v903h137v-901q0 -183 100.5 -299.5t288.5 -116.5q186 0 285.5 117t99.5 299v901z" />
    <glyph glyph-name="V" unicode="V" horiz-adv-x="1273" 
d="M1112 1423h141l-534 -1423h-164l-535 1423h142l475 -1265z" />
    <glyph glyph-name="W" unicode="W" horiz-adv-x="1765" 
d="M1589 1423h135l-346 -1423h-151l-344 1235l-346 -1235h-152l-344 1423h133l291 -1247l344 1247h145l346 -1247z" />
    <glyph glyph-name="X" unicode="X" horiz-adv-x="1255" 
d="M1247 0h-157l-467 633l-459 -633h-158l541 735l-508 690h158l438 -596l428 596h158l-508 -700z" />
    <glyph glyph-name="Y" unicode="Y" horiz-adv-x="1234" 
d="M1219 1423l-535 -837v-586h-135v590l-531 833h154l446 -721l447 721h154z" />
    <glyph glyph-name="Z" unicode="Z" horiz-adv-x="1105" 
d="M1055 123l2 -123h-1006v96l819 1207h-798v120h970v-98l-823 -1202h836z" />
    <glyph glyph-name="bracketleft" unicode="[" horiz-adv-x="589" 
d="M543 1452h-238v-1542h238v-119h-369v1780h369v-119z" />
    <glyph glyph-name="backslash" unicode="\" horiz-adv-x="677" 
d="M475 -102l-395 1558h123l397 -1558h-125z" />
    <glyph glyph-name="bracketright" unicode="]" horiz-adv-x="589" 
d="M47 1571h369v-1780h-369v119h238v1542h-238v119z" />
    <glyph glyph-name="asciicircum" unicode="^" horiz-adv-x="923" 
d="M838 782h-138l-243 418l-234 -418h-135l322 561h90z" />
    <glyph glyph-name="underscore" unicode="_" horiz-adv-x="991" 
d="M51 -164v115h889v-115h-889z" />
    <glyph glyph-name="grave" unicode="`" horiz-adv-x="550" 
d="M477 1235l-416 242l64 102l407 -256z" />
    <glyph glyph-name="a" unicode="a" horiz-adv-x="1323" 
d="M1040 1079h127v-1079h-127v233q-63 -120 -173 -188t-253 -68q-228 0 -378 160.5t-150 403.5q0 157 68.5 284t189 198t270.5 71q143 0 253.5 -66t172.5 -184v235zM629 98q180 0 293.5 124t113.5 319q0 194 -113 317t-294 123q-175 0 -291.5 -126t-116.5 -314
q0 -191 115.5 -317t292.5 -126z" />
    <glyph glyph-name="b" unicode="b" horiz-adv-x="1323" 
d="M711 1102q150 0 271 -73.5t189 -201.5t68 -286q0 -160 -68.5 -289t-190 -202t-271.5 -73q-140 0 -251 66.5t-175 183.5v-227h-127v1497h135v-631q66 111 174.5 173.5t245.5 62.5zM694 98q177 0 293.5 126t116.5 317q0 188 -117.5 314t-292.5 126q-181 0 -294 -123
t-113 -317q0 -195 113.5 -319t293.5 -124z" />
    <glyph glyph-name="c" unicode="c" horiz-adv-x="1175" 
d="M635 -23q-238 0 -394.5 159.5t-156.5 402.5q0 242 155.5 401.5t391.5 159.5q181 0 309.5 -94t173.5 -238l-123 -49q-37 122 -130.5 190t-225.5 68q-180 0 -297 -123t-117 -315q0 -193 117.5 -316t298.5 -123q133 0 228 68t132 188l123 -47q-45 -145 -174 -238.5
t-311 -93.5z" />
    <glyph glyph-name="d" unicode="d" horiz-adv-x="1323" 
d="M1032 1497h135v-1497h-127v227q-64 -117 -175 -183.5t-251 -66.5q-228 0 -378 160.5t-150 403.5q0 158 67.5 286t188 201.5t270.5 73.5q137 0 245.5 -62.5t174.5 -173.5v631zM629 98q180 0 293.5 124t113.5 319q0 194 -113 317t-294 123q-175 0 -291.5 -126t-116.5 -314
q0 -191 115.5 -317t292.5 -126z" />
    <glyph glyph-name="e" unicode="e" horiz-adv-x="1214" 
d="M221 502q12 -183 124 -294.5t282 -111.5q289 0 377 236l104 -64q-59 -139 -179.5 -215t-303.5 -76q-156 0 -280 73t-192.5 201.5t-68.5 287.5q0 155 70 284.5t192.5 204t269.5 74.5q151 0 270 -72.5t183 -195t64 -271.5q0 -40 -3 -61h-909zM221 604h780q-11 175 -113 280
t-267 105q-164 0 -272.5 -105.5t-127.5 -279.5z" />
    <glyph glyph-name="f" unicode="f" horiz-adv-x="688" 
d="M606 1409q-110 0 -172.5 -67.5t-62.5 -192.5v-70h299v-118h-299v-961h-135v961h-207v118h207v60q0 180 97.5 280.5t270.5 100.5h70v-111h-68z" />
    <glyph glyph-name="g" unicode="g" horiz-adv-x="1323" 
d="M1042 1079h127v-946q0 -240 -145.5 -381t-400.5 -141q-196 0 -325 87t-183 245l118 45q41 -128 142 -194t250 -66q193 0 305 106t112 289v133q-63 -120 -173 -188t-253 -68q-151 0 -272.5 72.5t-189.5 198.5t-68 280q0 233 151.5 392t378.5 159q143 0 253 -67t173 -187
v231zM629 109q178 0 291.5 122.5t113.5 313.5t-112 313.5t-289 122.5t-294.5 -125t-117.5 -311t116.5 -311t291.5 -125z" />
    <glyph glyph-name="h" unicode="h" horiz-adv-x="1253" 
d="M670 1102q210 0 327 -120.5t117 -328.5v-653h-137v631q0 165 -89.5 257t-248.5 91q-149 0 -247 -90.5t-101 -212.5v-676h-135v1497h135v-588q55 85 153.5 139t225.5 54z" />
    <glyph glyph-name="i" unicode="i" horiz-adv-x="446" 
d="M223 1290q-51 0 -86 33t-35 84t35 85t86 34t86 -34t35 -85t-35 -84t-86 -33zM156 0v1079h135v-1079h-135z" />
    <glyph glyph-name="j" unicode="j" horiz-adv-x="448" 
d="M227 1290q-52 0 -86.5 32.5t-34.5 84.5q0 51 35 85t86 34t86 -34t35 -85q0 -52 -34.5 -84.5t-86.5 -32.5zM-102 -371v119h22q107 0 172.5 71t65.5 185v1075h135v-1073q0 -171 -100.5 -274t-262.5 -103h-32z" />
    <glyph glyph-name="k" unicode="k" horiz-adv-x="1019" 
d="M1024 0h-158l-575 551v-551h-135v1497h135v-879l553 461h162l-570 -495z" />
    <glyph glyph-name="l" unicode="l" horiz-adv-x="446" 
d="M156 0v1497h135v-1497h-135z" />
    <glyph glyph-name="m" unicode="m" horiz-adv-x="1994" 
d="M1427 1102q198 0 312 -121t114 -317v-664h-135v641q0 153 -86.5 246t-232.5 92q-139 0 -231.5 -90t-94.5 -197v-692h-137v641q0 154 -86 246.5t-232 91.5q-70 0 -132 -26t-103.5 -67t-65.5 -92t-26 -102v-692h-135v1079h129v-176q49 86 145.5 142.5t220.5 56.5
q144 0 241 -63t142 -179q42 101 145.5 171.5t247.5 70.5z" />
    <glyph glyph-name="n" unicode="n" horiz-adv-x="1253" 
d="M670 1102q210 0 327 -120.5t117 -328.5v-653h-137v631q0 165 -89.5 257t-248.5 91q-149 0 -247 -90.5t-101 -212.5v-676h-135v1079h129v-180q53 89 154 146t231 57z" />
    <glyph glyph-name="o" unicode="o" horiz-adv-x="1277" 
d="M639 -23q-159 0 -286.5 73t-198 201.5t-70.5 287.5q0 244 156.5 403.5t398.5 159.5t398.5 -159.5t156.5 -403.5q0 -159 -70.5 -287.5t-198 -201.5t-286.5 -73zM641 100q184 0 300 124t116 315q0 194 -116 317t-300 123q-186 0 -303 -123t-117 -317q0 -191 117.5 -315
t302.5 -124z" />
    <glyph glyph-name="p" unicode="p" horiz-adv-x="1323" 
d="M711 1102q229 0 378.5 -160.5t149.5 -402.5q0 -159 -68.5 -287.5t-190 -201.5t-271.5 -73q-136 0 -244 62t-174 172v-578h-135v1446h127v-229q64 118 175.5 185t252.5 67zM694 98q175 0 292.5 126t117.5 315q0 191 -116.5 316.5t-293.5 125.5q-180 0 -293.5 -123.5
t-113.5 -318.5t113 -318t294 -123z" />
    <glyph glyph-name="q" unicode="q" horiz-adv-x="1323" 
d="M1040 1079h127v-1446h-135v578q-66 -110 -174 -172t-244 -62q-227 0 -377.5 160t-150.5 402t149 402.5t377 160.5q141 0 252.5 -67t175.5 -185v229zM629 98q181 0 294 123t113 318t-113.5 318.5t-293.5 123.5q-177 0 -292.5 -125.5t-115.5 -316.5q0 -189 116.5 -315
t291.5 -126z" />
    <glyph glyph-name="r" unicode="r" horiz-adv-x="671" 
d="M285 903q53 87 146.5 143t207.5 56v-127q-147 -1 -247.5 -93t-100.5 -214v-668h-135v1079h129v-176z" />
    <glyph glyph-name="s" unicode="s" horiz-adv-x="964" 
d="M487 -23q-166 0 -278 66.5t-152 187.5l117 45q28 -92 110 -142t208 -50q123 0 195.5 51.5t72.5 143.5q0 60 -36 103t-93 68.5t-126 46.5t-138.5 45t-126.5 55.5t-93 87t-36 130.5q0 132 101.5 209.5t268.5 77.5q142 0 237 -56t132 -161l-115 -45q-61 157 -254 157
q-113 0 -175 -46t-62 -128q0 -57 36 -97t93 -63.5t126 -43t138.5 -43.5t126.5 -57t93 -91.5t36 -138.5q0 -147 -110 -229.5t-296 -82.5z" />
    <glyph glyph-name="t" unicode="t" horiz-adv-x="733" 
d="M569 0q-165 0 -254.5 92.5t-89.5 257.5v611h-200v118h118q93 0 93 95v180h129v-275h337v-118h-340v-599q0 -116 59 -178.5t171 -62.5h129v-121h-152z" />
    <glyph glyph-name="u" unicode="u" horiz-adv-x="1232" 
d="M942 1079h137v-1079h-129v176q-53 -87 -151.5 -143t-223.5 -56q-203 0 -318.5 121t-115.5 318v663h135v-647q0 -152 89.5 -242.5t240.5 -89.5q143 0 238.5 88t97.5 201v690z" />
    <glyph glyph-name="v" unicode="v" horiz-adv-x="1097" 
d="M934 1079h141l-452 -1079h-150l-453 1079h144l385 -942z" />
    <glyph glyph-name="w" unicode="w" horiz-adv-x="1568" 
d="M1393 1079h143l-299 -1079h-160l-291 924l-288 -924h-162l-301 1079h141l246 -938l289 938h153l285 -934z" />
    <glyph glyph-name="x" unicode="x" horiz-adv-x="1040" 
d="M1030 0h-153l-361 461l-364 -461h-146l436 555l-411 524h153l344 -438l338 438h148l-412 -532z" />
    <glyph glyph-name="y" unicode="y" horiz-adv-x="1097" 
d="M936 1079h141l-606 -1446h-135l158 367h-31l-440 1079h141l381 -958z" />
    <glyph glyph-name="z" unicode="z" horiz-adv-x="940" 
d="M219 113h676v-113h-846v102l658 865h-627v112h790v-104z" />
    <glyph glyph-name="braceleft" unicode="{" horiz-adv-x="604" 
d="M516 -209q-128 0 -206.5 82.5t-78.5 243.5v319q0 97 -52 142t-124 45h-32v116h32q33 0 62.5 9.5t56 30t42 58t15.5 87.5v319q0 162 78.5 244t206.5 82h37v-117h-21q-81 0 -126.5 -56t-45.5 -153v-317q0 -190 -165 -246q165 -56 165 -246v-315q0 -97 45.5 -153t126.5 -56
h21v-119h-37z" />
    <glyph glyph-name="bar" unicode="|" horiz-adv-x="456" 
d="M174 -174v1636h109v-1636h-109z" />
    <glyph glyph-name="braceright" unicode="}" horiz-adv-x="604" 
d="M51 -209v119h21q81 0 126.5 56t45.5 153v315q0 190 166 246q-166 56 -166 246v317q0 98 -45 153.5t-127 55.5h-21v117h37q128 0 206.5 -82t78.5 -244v-319q0 -95 53 -140t123 -45h33v-116h-33q-32 0 -61.5 -10t-56 -30.5t-42.5 -58.5t-16 -88v-319q0 -161 -78.5 -243.5
t-206.5 -82.5h-37z" />
    <glyph glyph-name="asciitilde" unicode="~" horiz-adv-x="1073" 
d="M725 498q-55 0 -106 17.5t-84 38.5t-79 38.5t-91 17.5q-54 0 -101 -21.5t-67 -58.5l-74 76q33 57 92.5 90t134.5 33q55 0 106.5 -18t84.5 -39.5t79 -39.5t91 -18q53 0 100 22t68 58l71 -73q-31 -57 -90.5 -90t-134.5 -33z" />
    <glyph glyph-name="uni00A0" unicode="&#xa0;" horiz-adv-x="479" 
 />
    <glyph glyph-name="exclamdown" unicode="&#xa1;" horiz-adv-x="458" 
d="M229 891q-43 0 -72.5 29.5t-29.5 74.5q0 43 29.5 72t72.5 29q44 0 73.5 -29t29.5 -72q0 -45 -29 -74.5t-74 -29.5zM150 -367l24 1039h113l22 -1039h-159z" />
    <glyph glyph-name="cent" unicode="&#xa2;" horiz-adv-x="1081" 
d="M1006 477q-35 -114 -133.5 -195t-239.5 -98v-184h-113v184q-189 20 -308.5 157t-119.5 335t119.5 336t308.5 157v185h113v-187q139 -14 235 -94.5t133 -195.5l-118 -48q-32 105 -112.5 163.5t-195.5 58.5q-153 0 -253.5 -105t-100.5 -270q0 -163 101 -268t256 -105
q115 0 196.5 58t112.5 161z" />
    <glyph glyph-name="sterling" unicode="&#xa3;" horiz-adv-x="1103" 
d="M369 612v-491h637v-121h-775v612h-163v119h163v236q0 173 111.5 292t292.5 119q163 0 263.5 -79.5t137.5 -213.5l-121 -45q-65 215 -274 215q-131 0 -201.5 -82.5t-70.5 -205.5v-236h460v-119h-460z" />
    <glyph glyph-name="currency" unicode="&#xa4;" horiz-adv-x="1163" 
d="M1022 676q0 -152 -88 -270l115 -115l-80 -80l-115 115q-117 -90 -272 -90q-156 0 -273 90l-116 -115l-80 80l116 115q-88 118 -88 270q0 154 88 272l-116 117l80 80l114 -115q120 90 275 90q152 0 272 -90l113 115l82 -80l-117 -115q90 -120 90 -274zM582 346
q135 0 226 93.5t91 236.5q0 145 -91 238.5t-226 93.5t-227.5 -94t-92.5 -238q0 -143 92 -236.5t228 -93.5z" />
    <glyph glyph-name="yen" unicode="&#xa5;" horiz-adv-x="1159" 
d="M1106 1352l-442 -754h251v-96h-270v-185h270v-94h-270v-223h-135v223h-272v94h272v185h-272v96h256l-443 754h148l381 -672l378 672h148z" />
    <glyph glyph-name="brokenbar" unicode="&#xa6;" horiz-adv-x="456" 
d="M174 815v647h109v-647h-109zM174 -174v649h109v-649h-109z" />
    <glyph glyph-name="section" unicode="&#xa7;" horiz-adv-x="1011" 
d="M754 330q125 -79 125 -230q0 -149 -106.5 -233t-274.5 -84q-334 0 -416 250l115 43q61 -193 297 -193q111 0 183.5 54.5t72.5 148.5q0 63 -35 108t-91.5 72t-124.5 49t-136.5 46.5t-125 57.5t-91.5 89.5t-35 134.5q0 95 52.5 162t145.5 100q-73 39 -113 95.5t-40 142.5
q0 135 99.5 213t268.5 78q278 0 353 -217l-113 -43q-33 81 -89.5 119t-150.5 38q-113 0 -176 -48t-63 -132q0 -53 27 -93t71.5 -63t101.5 -44t116.5 -37t116.5 -42.5t101.5 -58.5t71.5 -86.5t27 -126.5q0 -95 -43 -163.5t-121 -106.5zM242 655q0 -42 17.5 -76t42.5 -55.5
t69 -42.5t79.5 -32.5t92.5 -29.5t90 -30q74 20 114.5 71.5t40.5 127.5q0 43 -17 78.5t-42.5 58.5t-67 44t-78 34t-89.5 30q-23 7 -35 11q-104 -9 -160.5 -59.5t-56.5 -129.5z" />
    <glyph glyph-name="dieresis" unicode="&#xa8;" horiz-adv-x="692" 
d="M176 1294q-47 0 -81 33t-34 82q0 47 34.5 80t82.5 33q46 0 79.5 -34t33.5 -81t-34 -80t-81 -33zM557 1294q-45 0 -79 33.5t-34 81.5q0 47 34.5 80t80.5 33q47 0 81 -34t34 -81t-34.5 -80t-82.5 -33z" />
    <glyph glyph-name="copyright" unicode="&#xa9;" horiz-adv-x="1568" 
d="M786 -23q-199 0 -356 89t-244.5 248.5t-87.5 361.5q0 197 87 356.5t245 251.5t356 92t355.5 -92t244.5 -251.5t87 -356.5q0 -151 -51 -281t-141 -222t-218 -144t-277 -52zM786 70q123 0 231.5 44t187 122.5t124 192.5t45.5 247q0 126 -45.5 239t-123.5 194t-187.5 128
t-231.5 47q-124 0 -233.5 -47t-187.5 -128t-123 -194t-45 -239q0 -178 77 -316.5t211 -214t301 -75.5zM795 281q-168 0 -278.5 113t-110.5 284q0 170 110 282.5t277 112.5q129 0 219.5 -65.5t122.5 -169.5l-101 -35q-25 80 -87.5 125t-151.5 45q-124 0 -201.5 -82
t-77.5 -213t77.5 -213t203.5 -82q91 0 153.5 44t87.5 126l101 -37q-32 -104 -123.5 -169.5t-220.5 -65.5z" />
    <glyph glyph-name="ordfeminine" unicode="&#xaa;" horiz-adv-x="806" 
d="M604 1669h80v-590h-80v127q-74 -141 -242 -141q-121 0 -204.5 87.5t-83.5 221.5t83.5 221.5t204.5 87.5q84 0 145.5 -36t96.5 -101v123zM379 1159q91 0 148 61t57 154t-57 154t-148 61q-86 0 -145.5 -61t-59.5 -154t59 -154t146 -61z" />
    <glyph glyph-name="guillemotleft" unicode="&#xab;" horiz-adv-x="894" 
d="M303 174l-221 340l221 340h133l-221 -340l221 -340h-133zM641 174l-221 340l221 340h133l-221 -340l221 -340h-133z" />
    <glyph glyph-name="logicalnot" unicode="&#xac;" horiz-adv-x="1120" 
d="M121 748h850v-476h-129v357h-721v119z" />
    <glyph glyph-name="registered" unicode="&#xae;" horiz-adv-x="1011" 
d="M508 1489q174 0 293 -121.5t119 -294.5q0 -172 -119.5 -293t-292.5 -121q-176 0 -296 120.5t-120 293.5t120 294.5t296 121.5zM508 725q148 0 247 100t99 248q0 147 -99.5 247.5t-246.5 100.5t-248.5 -100.5t-101.5 -247.5t101.5 -247.5t248.5 -100.5zM541 1065h-13
l158 -205h-72l-155 205h-21v-205h-61v455h164q63 0 102 -34t39 -91t-39 -91t-102 -34zM438 1264v-148h97q40 0 61.5 19.5t21.5 54.5t-21.5 54.5t-61.5 19.5h-97z" />
    <glyph glyph-name="macron" unicode="&#xaf;" horiz-adv-x="614" 
d="M61 1352v112h574v-112h-574z" />
    <glyph glyph-name="degree" unicode="&#xb0;" horiz-adv-x="737" 
d="M369 872q-123 0 -203 79t-80 200t80.5 201t202.5 80q123 0 203.5 -79.5t80.5 -199.5q0 -123 -80.5 -202t-203.5 -79zM369 963q79 0 132.5 53t53.5 135t-53.5 136t-132.5 54q-77 0 -132 -54.5t-55 -135.5t54 -134.5t133 -53.5z" />
    <glyph glyph-name="plusminus" unicode="&#xb1;" horiz-adv-x="1079" 
d="M602 811h365v-121h-365v-397h-123v397h-366v121h366v383h123v-383zM113 74v121h854v-121h-854z" />
    <glyph glyph-name="uni00B2" unicode="&#xb2;" horiz-adv-x="694" 
d="M246 791h329v-80h-462v61l247 266q109 105 109 195q0 51 -35.5 85t-89.5 34q-53 0 -92.5 -31t-52.5 -88l-88 31q18 75 81 122.5t152 47.5q99 0 159 -54t60 -141q0 -119 -129 -248z" />
    <glyph glyph-name="uni00B3" unicode="&#xb3;" horiz-adv-x="663" 
d="M354 1128q93 0 153 -58t60 -150q0 -95 -67.5 -158.5t-173.5 -63.5q-94 0 -159 44.5t-85 113.5l86 35q14 -50 56 -80.5t100 -30.5q68 0 108.5 41.5t40.5 104.5q0 64 -41 101.5t-102 37.5h-84v63l203 218h-336v77h436v-75l-203 -220h8z" />
    <glyph glyph-name="acute" unicode="&#xb4;" horiz-adv-x="489" 
d="M117 1235l-56 88l408 256l63 -102z" />
    <glyph glyph-name="paragraph" unicode="&#xb6;" horiz-adv-x="1234" 
d="M1047 1423v-1628h-84v1510h-103v-1510h-82v1510h-102v-691h-166q-207 0 -330 110.5t-123 295.5t122 294t331 109h537z" />
    <glyph glyph-name="periodcentered" unicode="&#xb7;" horiz-adv-x="448" 
d="M225 553q-44 0 -73 29.5t-29 72.5q0 45 29 75t73 30q43 0 73 -30.5t30 -74.5q0 -43 -30 -72.5t-73 -29.5z" />
    <glyph glyph-name="cedilla" unicode="&#xb8;" horiz-adv-x="499" 
d="M276 -492q-136 0 -215 95l54 61q60 -72 147 -72q62 0 99.5 34t37.5 85q0 53 -39.5 89t-101.5 36h-35l-12 14l74 168h90l-60 -133q83 -1 135 -53.5t52 -128.5q0 -84 -62 -139.5t-164 -55.5z" />
    <glyph glyph-name="uni00B9" unicode="&#xb9;" horiz-adv-x="557" 
d="M356 795h117v-84h-358v84h143v444h-141v84h141v100h98v-628z" />
    <glyph glyph-name="ordmasculine" unicode="&#xba;" horiz-adv-x="761" 
d="M381 1065q-136 0 -221.5 88.5t-85.5 220.5q0 134 85.5 223t221.5 89q135 0 221 -89t86 -223q0 -133 -86 -221t-221 -88zM381 1155q95 0 151 61.5t56 157.5t-56 157.5t-151 61.5q-94 0 -151.5 -62t-57.5 -157t57.5 -157t151.5 -62z" />
    <glyph glyph-name="guillemotright" unicode="&#xbb;" horiz-adv-x="894" 
d="M119 174l223 340l-223 340h133l223 -340l-223 -340h-133zM457 174l223 340l-223 340h133l223 -340l-223 -340h-133z" />
    <glyph glyph-name="onequarter" unicode="&#xbc;" horiz-adv-x="1261" 
d="M84 711v84h143v444h-139v84h139v100h99v-628h116v-84h-358zM1006 1423h112l-792 -1423h-111zM1186 240v-72h-88v-168h-92v168h-351v68l351 477h92v-473h88zM1006 240v358l-265 -358h265z" />
    <glyph glyph-name="onehalf" unicode="&#xbd;" horiz-adv-x="1327" 
d="M84 711v84h143v444h-139v84h139v100h99v-628h116v-84h-358zM999 1423h111l-793 -1423h-108zM926 80h329v-80h-464v61l249 267q107 107 107 194q0 51 -35 85t-90 34q-51 0 -90.5 -31t-52.5 -88l-91 31q19 75 82.5 122.5t153.5 47.5q99 0 158 -54t59 -141q0 -120 -127 -247
z" />
    <glyph glyph-name="threequarters" unicode="&#xbe;" horiz-adv-x="1277" 
d="M547 920q0 -95 -68 -158.5t-174 -63.5q-94 0 -160.5 45t-85.5 113l86 35q15 -50 57 -80.5t101 -30.5q68 0 109 41.5t41 104.5q0 64 -42 101.5t-102 37.5h-86v63l205 218h-338v77h438v-75l-204 -220h10q93 0 153 -58t60 -150zM1036 1423h113l-793 -1423h-110zM1186 240
v-72h-86v-168h-92v168h-351v68l351 477h92v-473h86zM1008 240v358l-265 -358h265z" />
    <glyph glyph-name="questiondown" unicode="&#xbf;" horiz-adv-x="897" 
d="M518 891q-46 0 -75 29t-29 73t30 73.5t74 29.5q43 0 73 -29t30 -72q0 -45 -30 -74.5t-73 -29.5zM436 -387q-171 0 -268.5 89t-97.5 243q0 67 21.5 124t56 98t76 79t83.5 74.5t76.5 75.5t56 92t21.5 114v70h121v-72q0 -72 -20.5 -133t-53 -103.5t-72 -80t-79.5 -71
t-72.5 -68t-53 -80t-20.5 -97.5q0 -105 62 -164t169 -59q102 0 176 64t95 163l129 -39q-28 -143 -139.5 -231t-266.5 -88z" />
    <glyph glyph-name="Agrave" unicode="&#xc0;" horiz-adv-x="1263" 
d="M891 1669l-33 -100l-489 178l37 113zM1106 0l-164 438h-620l-164 -438h-135l526 1423h164l528 -1423h-135zM362 551h539l-268 725z" />
    <glyph glyph-name="Aacute" unicode="&#xc1;" horiz-adv-x="1263" 
d="M911 1747l-489 -178l-33 100l485 191zM1106 0l-164 438h-620l-164 -438h-135l526 1423h164l528 -1423h-135zM362 551h539l-268 725z" />
    <glyph glyph-name="Acircumflex" unicode="&#xc2;" horiz-adv-x="1263" 
d="M631 1757l-189 -178h-129l262 268h113l260 -268h-131zM1106 0l-164 438h-620l-164 -438h-135l526 1423h164l528 -1423h-135zM362 551h539l-268 725z" />
    <glyph glyph-name="Atilde" unicode="&#xc3;" horiz-adv-x="1263" 
d="M512 1702q-47 0 -76 -29t-37 -74l-100 41q16 70 68.5 123.5t136.5 53.5q42 0 78.5 -16.5t58.5 -37t53.5 -37t63.5 -16.5q47 0 75.5 28t38.5 72l99 -41q-16 -71 -67.5 -122.5t-137.5 -51.5q-36 0 -66.5 11t-52 26.5t-41.5 31.5t-44 27t-50 11zM1106 0l-164 438h-620
l-164 -438h-135l526 1423h164l528 -1423h-135zM362 551h539l-268 725z" />
    <glyph glyph-name="Adieresis" unicode="&#xc4;" horiz-adv-x="1263" 
d="M432 1599q-47 0 -81 32.5t-34 82.5q0 47 34.5 79t82.5 32q46 0 79.5 -33t33.5 -80q0 -49 -33.5 -81t-81.5 -32zM825 1599q-47 0 -80.5 32.5t-33.5 82.5q0 47 34 79t82 32q46 0 80.5 -33t34.5 -80q0 -49 -34.5 -81t-82.5 -32zM1106 0l-164 438h-620l-164 -438h-135
l526 1423h164l528 -1423h-135zM362 551h539l-268 725z" />
    <glyph glyph-name="Aring" unicode="&#xc5;" horiz-adv-x="1263" 
d="M631 1483q-86 0 -142.5 54.5t-56.5 137.5q0 82 56.5 136.5t142.5 54.5t142 -54.5t56 -136.5q0 -83 -56 -137.5t-142 -54.5zM631 1782q-47 0 -79 -31t-32 -76q0 -46 32 -77t79 -31t78.5 31t31.5 77q0 45 -31.5 76t-78.5 31zM1106 0l-164 438h-620l-164 -438h-135l526 1423
h164l528 -1423h-135zM362 551h539l-268 725z" />
    <glyph glyph-name="AE" unicode="&#xc6;" horiz-adv-x="1880" 
d="M1057 121h743v-121h-880v434h-549l-250 -434h-146l807 1423h1006v-120h-731v-502h663v-121h-663v-559zM436 551h484v752h-52z" />
    <glyph glyph-name="Ccedilla" unicode="&#xc7;" horiz-adv-x="1492" 
d="M801 106q368 0 499 373l134 -53q-73 -201 -220 -320t-372 -129l-41 -92q83 -1 134.5 -53t51.5 -129q0 -84 -61.5 -139.5t-163.5 -55.5q-136 0 -215 95l53 61q60 -72 148 -72q62 0 99.5 34t37.5 85q0 53 -40 89t-102 36h-34l-13 14l58 130q-189 11 -338.5 106.5
t-234.5 258.5t-85 366q0 212 92 380.5t252 261.5t359 93q240 0 400 -121.5t235 -327.5l-134 -53q-63 179 -189 276t-316 97q-241 0 -400 -170t-159 -436q0 -175 73 -313.5t202 -215t290 -76.5z" />
    <glyph glyph-name="Egrave" unicode="&#xc8;" horiz-adv-x="1138" 
d="M872 1669l-30 -100l-490 178l35 113zM313 121h748v-121h-883v1423h869v-120h-734v-502h668v-121h-668v-559z" />
    <glyph glyph-name="Eacute" unicode="&#xc9;" horiz-adv-x="1138" 
d="M893 1747l-490 -178l-30 100l485 191zM313 121h748v-121h-883v1423h869v-120h-734v-502h668v-121h-668v-559z" />
    <glyph glyph-name="Ecircumflex" unicode="&#xca;" horiz-adv-x="1138" 
d="M612 1757l-186 -178h-131l264 268h111l260 -268h-131zM313 121h748v-121h-883v1423h869v-120h-734v-502h668v-121h-668v-559z" />
    <glyph glyph-name="Edieresis" unicode="&#xcb;" horiz-adv-x="1138" 
d="M414 1599q-47 0 -81 32.5t-34 82.5q0 47 34.5 79t82.5 32q46 0 79 -33t33 -80q0 -49 -33 -81t-81 -32zM807 1599q-47 0 -81 32.5t-34 82.5q0 47 34.5 79t82.5 32q46 0 80.5 -33t34.5 -80q0 -49 -34.5 -81t-82.5 -32zM313 121h748v-121h-883v1423h869v-120h-734v-502h668
v-121h-668v-559z" />
    <glyph glyph-name="Igrave" unicode="&#xcc;" horiz-adv-x="491" 
d="M475 1569l-489 178l37 113l485 -191zM178 0v1423h135v-1423h-135z" />
    <glyph glyph-name="Iacute" unicode="&#xcd;" horiz-adv-x="491" 
d="M39 1569l-33 100l486 191l36 -113zM178 0v1423h135v-1423h-135z" />
    <glyph glyph-name="Icircumflex" unicode="&#xce;" horiz-adv-x="491" 
d="M303 1847l260 -268h-129l-186 178l-189 -178h-129l263 268h110zM178 0v1423h135v-1423h-135z" />
    <glyph glyph-name="Idieresis" unicode="&#xcf;" horiz-adv-x="491" 
d="M49 1599q-47 0 -81 32.5t-34 82.5q0 47 34.5 79t82.5 32q46 0 79.5 -33t33.5 -80q0 -48 -34 -80.5t-81 -32.5zM442 1599q-47 0 -80.5 32.5t-33.5 82.5q0 47 34 79t80 32q47 0 81 -33t34 -80q0 -49 -33.5 -81t-81.5 -32zM178 0v1423h135v-1423h-135z" />
    <glyph glyph-name="Eth" unicode="&#xd0;" horiz-adv-x="1480" 
d="M696 1423q147 0 273.5 -51t217.5 -142.5t143 -225t52 -291.5q0 -159 -52 -292.5t-143 -225.5t-217.5 -143.5t-273.5 -51.5h-503v690h-156v101h156v632h503zM692 123q241 0 397 161.5t156 426.5t-156 427t-397 162h-364v-509h327v-101h-327v-567h364z" />
    <glyph glyph-name="Ntilde" unicode="&#xd1;" horiz-adv-x="1404" 
d="M571 1702q-45 0 -73.5 -29.5t-36.5 -73.5l-101 41q16 70 68 123.5t135 53.5q43 0 80 -16.5t59 -37t53.5 -37t63.5 -16.5q45 0 74 28t39 72l100 -41q-17 -71 -68.5 -122.5t-136.5 -51.5q-44 0 -81.5 16.5t-59 37t-52.5 37t-63 16.5zM1090 1423h137v-1423h-115l-799 1186
v-1186h-135v1423h115l797 -1187v1187z" />
    <glyph glyph-name="Ograve" unicode="&#xd2;" horiz-adv-x="1611" 
d="M1034 1569l-489 178l37 113l485 -191zM807 -23q-151 0 -283 55t-226.5 151.5t-149 233.5t-54.5 294q0 211 92.5 379t255.5 262t365 94q199 0 361 -93.5t255 -262.5t93 -379t-93 -378t-255 -262t-361 -94zM807 106q162 0 292 77t203.5 215.5t73.5 312.5q0 266 -160.5 436
t-408.5 170q-251 0 -412.5 -170t-161.5 -436q0 -175 74 -313t205 -215t295 -77z" />
    <glyph glyph-name="Oacute" unicode="&#xd3;" horiz-adv-x="1611" 
d="M598 1569l-33 100l486 191l36 -113zM807 -23q-151 0 -283 55t-226.5 151.5t-149 233.5t-54.5 294q0 211 92.5 379t255.5 262t365 94q199 0 361 -93.5t255 -262.5t93 -379t-93 -378t-255 -262t-361 -94zM807 106q162 0 292 77t203.5 215.5t73.5 312.5q0 266 -160.5 436
t-408.5 170q-251 0 -412.5 -170t-161.5 -436q0 -175 74 -313t205 -215t295 -77z" />
    <glyph glyph-name="Ocircumflex" unicode="&#xd4;" horiz-adv-x="1611" 
d="M807 1757l-189 -178h-131l265 268h110l260 -268h-129zM807 1446q199 0 361 -93.5t255 -262.5t93 -379t-93 -378t-255 -262t-361 -94q-151 0 -283 55t-226.5 151.5t-149 233.5t-54.5 294q0 211 92.5 379t255.5 262t365 94zM807 106q162 0 292 77t203.5 215.5t73.5 312.5
q0 266 -160.5 436t-408.5 170q-251 0 -412.5 -170t-161.5 -436q0 -175 74 -313t205 -215t295 -77z" />
    <glyph glyph-name="Otilde" unicode="&#xd5;" horiz-adv-x="1611" 
d="M942 1595q-44 0 -81.5 16.5t-59 37t-52.5 37t-63 16.5q-45 0 -74 -29.5t-37 -73.5l-100 41q16 70 68 123.5t135 53.5q43 0 80 -16.5t59 -37t53.5 -37t63.5 -16.5q47 0 75 27.5t38 72.5l100 -41q-17 -71 -68.5 -122.5t-136.5 -51.5zM807 -23q-151 0 -283 55t-226.5 151.5
t-149 233.5t-54.5 294q0 211 92.5 379t255.5 262t365 94q199 0 361 -93.5t255 -262.5t93 -379t-93 -378t-255 -262t-361 -94zM807 106q162 0 292 77t203.5 215.5t73.5 312.5q0 266 -160.5 436t-408.5 170q-251 0 -412.5 -170t-161.5 -436q0 -175 74 -313t205 -215t295 -77z
" />
    <glyph glyph-name="Odieresis" unicode="&#xd6;" horiz-adv-x="1611" 
d="M608 1599q-47 0 -80.5 32.5t-33.5 82.5q0 47 34 79t82 32q46 0 79.5 -33t33.5 -80q0 -48 -34 -80.5t-81 -32.5zM999 1599q-46 0 -79 32.5t-33 82.5q0 47 34 79t80 32q47 0 81 -33t34 -80q0 -49 -33.5 -81t-83.5 -32zM807 -23q-151 0 -283 55t-226.5 151.5t-149 233.5
t-54.5 294q0 211 92.5 379t255.5 262t365 94q199 0 361 -93.5t255 -262.5t93 -379t-93 -378t-255 -262t-361 -94zM807 106q162 0 292 77t203.5 215.5t73.5 312.5q0 266 -160.5 436t-408.5 170q-251 0 -412.5 -170t-161.5 -436q0 -175 74 -313t205 -215t295 -77z" />
    <glyph glyph-name="multiply" unicode="&#xd7;" horiz-adv-x="1001" 
d="M889 926l-301 -301l301 -303l-86 -86l-303 301l-301 -301l-88 86l303 303l-303 301l88 88l301 -303l303 303z" />
    <glyph glyph-name="Oslash" unicode="&#xd8;" horiz-adv-x="1617" 
d="M1341 1210q179 -201 179 -499q0 -157 -54.5 -294t-148.5 -233.5t-226 -151.5t-282 -55q-258 0 -451 156l-143 -158l-82 80l143 156q-178 203 -178 500q0 158 54.5 295t148.5 233.5t226 151.5t282 55q258 0 451 -156l143 156l82 -78zM238 711q0 -238 131 -400l802 881
q-150 125 -362 125q-250 0 -410.5 -170t-160.5 -436zM809 106q248 0 409.5 170t161.5 435q0 237 -129 401l-802 -881q150 -125 360 -125z" />
    <glyph glyph-name="Ugrave" unicode="&#xd9;" horiz-adv-x="1372" 
d="M948 1669l-33 -100l-489 178l37 113zM1073 1423h137v-903q0 -112 -33 -209.5t-96 -172.5t-164 -118t-229 -43q-129 0 -231 43t-165.5 118t-96.5 172.5t-33 209.5v903h137v-901q0 -183 100.5 -299.5t288.5 -116.5q186 0 285.5 117t99.5 299v901z" />
    <glyph glyph-name="Uacute" unicode="&#xda;" horiz-adv-x="1372" 
d="M969 1747l-490 -178l-33 100l486 191zM1073 1423h137v-903q0 -112 -33 -209.5t-96 -172.5t-164 -118t-229 -43q-129 0 -231 43t-165.5 118t-96.5 172.5t-33 209.5v903h137v-901q0 -183 100.5 -299.5t288.5 -116.5q186 0 285.5 117t99.5 299v901z" />
    <glyph glyph-name="Ucircumflex" unicode="&#xdb;" horiz-adv-x="1372" 
d="M688 1757l-188 -178h-131l264 268h110l261 -268h-130zM1073 1423h137v-903q0 -112 -33 -209.5t-96 -172.5t-164 -118t-229 -43q-129 0 -231 43t-165.5 118t-96.5 172.5t-33 209.5v903h137v-901q0 -183 100.5 -299.5t288.5 -116.5q186 0 285.5 117t99.5 299v901z" />
    <glyph glyph-name="Udieresis" unicode="&#xdc;" horiz-adv-x="1372" 
d="M489 1599q-47 0 -80.5 32.5t-33.5 82.5q0 47 34.5 79t82.5 32q46 0 79 -33t33 -80q0 -48 -34 -80.5t-81 -32.5zM881 1599q-46 0 -79.5 32.5t-33.5 82.5q0 47 34.5 79t80.5 32q47 0 80.5 -33t33.5 -80q0 -49 -33 -81t-83 -32zM1073 1423h137v-903q0 -112 -33 -209.5
t-96 -172.5t-164 -118t-229 -43q-129 0 -231 43t-165.5 118t-96.5 172.5t-33 209.5v903h137v-901q0 -183 100.5 -299.5t288.5 -116.5q186 0 285.5 117t99.5 299v901z" />
    <glyph glyph-name="Yacute" unicode="&#xdd;" horiz-adv-x="1234" 
d="M901 1747l-489 -178l-33 100l485 191zM1219 1423l-535 -837v-586h-135v590l-531 833h154l446 -721l447 721h154z" />
    <glyph glyph-name="Thorn" unicode="&#xde;" horiz-adv-x="1228" 
d="M690 1128q210 0 332.5 -109t122.5 -294t-123 -295.5t-332 -110.5h-377v-319h-135v1423h135v-295h377zM684 442q153 0 237.5 76.5t84.5 206.5q0 129 -85 206t-237 77h-371v-566h371z" />
    <glyph glyph-name="germandbls" unicode="&#xdf;" horiz-adv-x="1245" 
d="M854 805q137 -34 222 -147.5t85 -268.5q0 -188 -121.5 -300t-310.5 -112q-145 0 -238.5 69t-132.5 183l43 95q28 -105 107.5 -168.5t204.5 -63.5q139 0 224 87t85 224q0 147 -96 241.5t-275 94.5v117q76 0 136 25t95.5 66t53.5 89t18 99q0 121 -83.5 194.5t-223.5 73.5
q-164 0 -260 -100.5t-96 -272.5v-1030h-135v1024q0 228 134.5 362t364.5 134q200 0 318.5 -105.5t118.5 -267.5q0 -119 -62.5 -212t-175.5 -130z" />
    <glyph glyph-name="agrave" unicode="&#xe0;" horiz-adv-x="1323" 
d="M864 1323l-57 -88l-414 242l62 102zM1040 1079h127v-1079h-127v233q-63 -120 -173 -188t-253 -68q-228 0 -378 160.5t-150 403.5q0 157 68.5 284t189 198t270.5 71q143 0 253.5 -66t172.5 -184v235zM629 98q180 0 293.5 124t113.5 319q0 194 -113 317t-294 123
q-175 0 -291.5 -126t-116.5 -314q0 -191 115.5 -317t292.5 -126z" />
    <glyph glyph-name="aacute" unicode="&#xe1;" horiz-adv-x="1323" 
d="M895 1477l-414 -242l-57 88l410 256zM1040 1079h127v-1079h-127v233q-63 -120 -173 -188t-253 -68q-228 0 -378 160.5t-150 403.5q0 157 68.5 284t189 198t270.5 71q143 0 253.5 -66t172.5 -184v235zM629 98q180 0 293.5 124t113.5 319q0 194 -113 317t-294 123
q-175 0 -291.5 -126t-116.5 -314q0 -191 115.5 -317t292.5 -126z" />
    <glyph glyph-name="acircumflex" unicode="&#xe2;" horiz-adv-x="1323" 
d="M651 1475l-194 -220h-127l264 304h117l262 -304h-127zM1040 1079h127v-1079h-127v233q-63 -120 -173 -188t-253 -68q-228 0 -378 160.5t-150 403.5q0 157 68.5 284t189 198t270.5 71q143 0 253.5 -66t172.5 -184v235zM629 98q180 0 293.5 124t113.5 319q0 194 -113 317
t-294 123q-175 0 -291.5 -126t-116.5 -314q0 -191 115.5 -317t292.5 -126z" />
    <glyph glyph-name="atilde" unicode="&#xe3;" horiz-adv-x="1323" 
d="M530 1405q-43 0 -71.5 -29t-38.5 -73l-98 40q16 72 64.5 124.5t129.5 52.5q34 0 63.5 -11t51 -27t41.5 -31.5t44.5 -26.5t51.5 -11q45 0 74 28t39 72l98 -40q-16 -72 -64 -123.5t-131 -51.5q-35 0 -65.5 11t-52 27t-41.5 31.5t-44.5 26.5t-50.5 11zM1040 1079h127v-1079
h-127v233q-63 -120 -173 -188t-253 -68q-228 0 -378 160.5t-150 403.5q0 157 68.5 284t189 198t270.5 71q143 0 253.5 -66t172.5 -184v235zM629 98q180 0 293.5 124t113.5 319q0 194 -113 317t-294 123q-175 0 -291.5 -126t-116.5 -314q0 -191 115.5 -317t292.5 -126z" />
    <glyph glyph-name="adieresis" unicode="&#xe4;" horiz-adv-x="1323" 
d="M459 1294q-47 0 -81 33t-34 82q0 47 34.5 80t82.5 33q46 0 79 -34t33 -81t-33.5 -80t-80.5 -33zM840 1294q-45 0 -80 33.5t-35 81.5q0 47 35.5 80t81.5 33q47 0 80.5 -34t33.5 -81t-34 -80t-82 -33zM1040 1079h127v-1079h-127v233q-63 -120 -173 -188t-253 -68
q-228 0 -378 160.5t-150 403.5q0 157 68.5 284t189 198t270.5 71q143 0 253.5 -66t172.5 -184v235zM629 98q180 0 293.5 124t113.5 319q0 194 -113 317t-294 123q-175 0 -291.5 -126t-116.5 -314q0 -191 115.5 -317t292.5 -126z" />
    <glyph glyph-name="aring" unicode="&#xe5;" horiz-adv-x="1323" 
d="M651 1198q-86 0 -142 54t-56 137q0 82 56 136t142 54t142.5 -54t56.5 -136q0 -83 -56.5 -137t-142.5 -54zM651 1497q-47 0 -78.5 -31t-31.5 -77t31.5 -77.5t78.5 -31.5t79 31.5t32 77.5t-32 77t-79 31zM1040 1079h127v-1079h-127v233q-63 -120 -173 -188t-253 -68
q-228 0 -378 160.5t-150 403.5q0 157 68.5 284t189 198t270.5 71q143 0 253.5 -66t172.5 -184v235zM629 98q180 0 293.5 124t113.5 319q0 194 -113 317t-294 123q-175 0 -291.5 -126t-116.5 -314q0 -191 115.5 -317t292.5 -126z" />
    <glyph glyph-name="ae" unicode="&#xe6;" horiz-adv-x="2185" 
d="M1186 502q12 -183 125.5 -297.5t281.5 -114.5q293 0 383 240l113 -47q-55 -143 -175 -224.5t-300 -81.5q-158 0 -272.5 71.5t-174.5 197.5v-246h-127v233q-63 -120 -173 -188t-253 -68q-228 0 -378 160.5t-150 403.5q0 157 68.5 285.5t189.5 202t270 73.5
q142 0 252.5 -67.5t173.5 -186.5v231h127v-254q62 128 175.5 202.5t261.5 74.5t263 -72.5t175.5 -194.5t60.5 -272q0 -47 -2 -61h-915zM1186 590h794q-8 181 -114.5 294t-274.5 113q-167 0 -279 -113.5t-126 -293.5zM629 98q180 0 293.5 124t113.5 319q0 194 -113 317
t-294 123q-175 0 -291.5 -126t-116.5 -314q0 -191 115.5 -317t292.5 -126z" />
    <glyph glyph-name="ccedilla" unicode="&#xe7;" horiz-adv-x="1175" 
d="M1120 309q-41 -134 -158 -225.5t-282 -103.5l-43 -95q83 -1 134.5 -53t51.5 -129q0 -84 -60.5 -139.5t-162.5 -55.5q-136 0 -215 95l53 61q56 -72 148 -72q60 0 97.5 34t37.5 85q0 53 -39 89t-100 36h-37l-13 14l58 130q-221 15 -363.5 172t-142.5 387q0 242 155.5 401.5
t391.5 159.5q181 0 309.5 -94t173.5 -238l-123 -49q-37 122 -130.5 190t-225.5 68q-180 0 -297 -123t-117 -315q0 -193 117.5 -316t298.5 -123q133 0 228 68t132 188z" />
    <glyph glyph-name="egrave" unicode="&#xe8;" horiz-adv-x="1214" 
d="M836 1321l-56 -88l-415 242l61 102zM221 502q12 -183 124 -294.5t282 -111.5q289 0 377 236l104 -64q-59 -139 -179.5 -215t-303.5 -76q-156 0 -280 73t-192.5 201.5t-68.5 287.5q0 155 70 284.5t192.5 204t269.5 74.5q151 0 270 -72.5t183 -195t64 -271.5q0 -40 -3 -61
h-909zM221 604h780q-11 175 -113 280t-267 105q-164 0 -272.5 -105.5t-127.5 -279.5z" />
    <glyph glyph-name="eacute" unicode="&#xe9;" horiz-adv-x="1214" 
d="M868 1475l-415 -242l-58 88l410 256zM221 502q12 -183 124 -294.5t282 -111.5q289 0 377 236l104 -64q-59 -139 -179.5 -215t-303.5 -76q-156 0 -280 73t-192.5 201.5t-68.5 287.5q0 155 70 284.5t192.5 204t269.5 74.5q151 0 270 -72.5t183 -195t64 -271.5q0 -40 -3 -61
h-909zM221 604h780q-11 175 -113 280t-267 105q-164 0 -272.5 -105.5t-127.5 -279.5z" />
    <glyph glyph-name="ecircumflex" unicode="&#xea;" horiz-adv-x="1214" 
d="M623 1473l-193 -220h-129l266 303h115l262 -303h-127zM221 502q12 -183 124 -294.5t282 -111.5q289 0 377 236l104 -64q-59 -139 -179.5 -215t-303.5 -76q-156 0 -280 73t-192.5 201.5t-68.5 287.5q0 155 70 284.5t192.5 204t269.5 74.5q151 0 270 -72.5t183 -195
t64 -271.5q0 -40 -3 -61h-909zM221 604h780q-11 175 -113 280t-267 105q-164 0 -272.5 -105.5t-127.5 -279.5z" />
    <glyph glyph-name="edieresis" unicode="&#xeb;" horiz-adv-x="1214" 
d="M430 1292q-47 0 -81 33t-34 82q0 47 34.5 80t82.5 33q46 0 80.5 -34t34.5 -81t-34.5 -80t-82.5 -33zM811 1292q-45 0 -79 33.5t-34 81.5q0 47 34.5 80t80.5 33q47 0 81 -34t34 -81t-34 -80t-83 -33zM221 502q12 -183 124 -294.5t282 -111.5q289 0 377 236l104 -64
q-59 -139 -179.5 -215t-303.5 -76q-156 0 -280 73t-192.5 201.5t-68.5 287.5q0 155 70 284.5t192.5 204t269.5 74.5q151 0 270 -72.5t183 -195t64 -271.5q0 -40 -3 -61h-909zM221 604h780q-11 175 -113 280t-267 105q-164 0 -272.5 -105.5t-127.5 -279.5z" />
    <glyph glyph-name="igrave" unicode="&#xec;" horiz-adv-x="446" 
d="M379 1233l-416 244l64 100l409 -254zM156 0v1079h135v-1079h-135z" />
    <glyph glyph-name="iacute" unicode="&#xed;" horiz-adv-x="446" 
d="M53 1233l-57 90l410 254l61 -100zM156 0v1079h135v-1079h-135z" />
    <glyph glyph-name="icircumflex" unicode="&#xee;" horiz-adv-x="446" 
d="M283 1559l262 -304h-129l-193 218l-194 -218h-127l264 304h117zM156 0v1079h135v-1079h-135z" />
    <glyph glyph-name="idieresis" unicode="&#xef;" horiz-adv-x="446" 
d="M31 1294q-47 0 -81 32.5t-34 82.5q0 47 34.5 80t82.5 33q46 0 79 -34t33 -81q0 -49 -33.5 -81t-80.5 -32zM412 1294q-47 0 -81 32.5t-34 82.5q0 47 34.5 80t82.5 33q46 0 80 -34t34 -81q0 -49 -34 -81t-82 -32zM156 0v1079h135v-1079h-135z" />
    <glyph glyph-name="eth" unicode="&#xf0;" horiz-adv-x="1286" 
d="M676 1464q240 -129 379 -365t139 -528q0 -276 -153.5 -435t-401.5 -159q-159 0 -286.5 72.5t-198 196.5t-70.5 274q0 152 70.5 276.5t197 196.5t283.5 72q248 0 377 -172q-53 160 -164 282t-266 195l-236 -235l-72 71l207 207q-177 60 -370 60l55 114q224 0 412 -78
l172 172l71 -71zM641 100q185 0 300.5 117.5t115.5 310.5q0 176 -117 296t-299 120q-184 0 -302 -121t-118 -303q0 -179 118 -299.5t302 -120.5z" />
    <glyph glyph-name="ntilde" unicode="&#xf1;" horiz-adv-x="1253" 
d="M524 1403q-45 0 -73.5 -29.5t-36.5 -73.5l-101 41q16 71 65.5 124t131.5 53q33 0 62.5 -11t50.5 -27t41 -31.5t44.5 -26.5t51.5 -11q45 0 74.5 28t37.5 72l101 -41q-18 -73 -65.5 -123.5t-131.5 -50.5q-35 0 -65.5 11t-52 27t-41.5 31.5t-43.5 26.5t-49.5 11zM670 1102
q210 0 327 -120.5t117 -328.5v-653h-137v631q0 165 -89.5 257t-248.5 91q-149 0 -247 -90.5t-101 -212.5v-676h-135v1079h129v-180q53 89 154 146t231 57z" />
    <glyph glyph-name="ograve" unicode="&#xf2;" horiz-adv-x="1277" 
d="M799 1233l-416 242l63 102l408 -256zM639 -23q-159 0 -286.5 73t-198 201.5t-70.5 287.5q0 244 156.5 403.5t398.5 159.5t398.5 -159.5t156.5 -403.5q0 -159 -70.5 -287.5t-198 -201.5t-286.5 -73zM641 100q184 0 300 124t116 315q0 194 -116 317t-300 123
q-186 0 -303 -123t-117 -317q0 -191 117.5 -315t302.5 -124z" />
    <glyph glyph-name="oacute" unicode="&#xf3;" horiz-adv-x="1277" 
d="M471 1233l-55 88l407 256l64 -102zM639 -23q-159 0 -286.5 73t-198 201.5t-70.5 287.5q0 244 156.5 403.5t398.5 159.5t398.5 -159.5t156.5 -403.5q0 -159 -70.5 -287.5t-198 -201.5t-286.5 -73zM641 100q184 0 300 124t116 315q0 194 -116 317t-300 123
q-186 0 -303 -123t-117 -317q0 -191 117.5 -315t302.5 -124z" />
    <glyph glyph-name="ocircumflex" unicode="&#xf4;" horiz-adv-x="1277" 
d="M641 1473l-192 -220h-127l264 303h114l263 -303h-127zM639 1102q242 0 398.5 -159.5t156.5 -403.5q0 -159 -70.5 -287.5t-198 -201.5t-286.5 -73t-286.5 73t-198 201.5t-70.5 287.5q0 244 156.5 403.5t398.5 159.5zM641 100q184 0 300 124t116 315q0 194 -116 317
t-300 123q-186 0 -303 -123t-117 -317q0 -191 117.5 -315t302.5 -124z" />
    <glyph glyph-name="otilde" unicode="&#xf5;" horiz-adv-x="1277" 
d="M774 1296q-35 0 -65.5 11t-52 27t-41.5 31.5t-43.5 26.5t-49.5 11q-45 0 -73.5 -29.5t-36.5 -73.5l-101 41q16 71 65 124t130 53q34 0 63.5 -11t51 -27t41.5 -31.5t44.5 -26.5t51.5 -11q45 0 74.5 28t37.5 72l101 -41q-18 -73 -66 -123.5t-131 -50.5zM639 -23
q-159 0 -286.5 73t-198 201.5t-70.5 287.5q0 244 156.5 403.5t398.5 159.5t398.5 -159.5t156.5 -403.5q0 -159 -70.5 -287.5t-198 -201.5t-286.5 -73zM641 100q184 0 300 124t116 315q0 194 -116 317t-300 123q-186 0 -303 -123t-117 -317q0 -191 117.5 -315t302.5 -124z
" />
    <glyph glyph-name="odieresis" unicode="&#xf6;" horiz-adv-x="1277" 
d="M451 1292q-48 0 -82.5 33t-34.5 82q0 47 34.5 80t84.5 33q45 0 78.5 -34t33.5 -81t-34 -80t-80 -33zM831 1292q-47 0 -80.5 33t-33.5 82q0 47 34 80t80 33q47 0 82 -34t35 -81t-34.5 -80t-82.5 -33zM639 -23q-159 0 -286.5 73t-198 201.5t-70.5 287.5q0 244 156.5 403.5
t398.5 159.5t398.5 -159.5t156.5 -403.5q0 -159 -70.5 -287.5t-198 -201.5t-286.5 -73zM641 100q184 0 300 124t116 315q0 194 -116 317t-300 123q-186 0 -303 -123t-117 -317q0 -191 117.5 -315t302.5 -124z" />
    <glyph glyph-name="divide" unicode="&#xf7;" horiz-adv-x="1105" 
d="M559 889q-44 0 -73 29.5t-29 72.5q0 45 29 75t73 30t73.5 -30.5t29.5 -74.5q0 -43 -29.5 -72.5t-73.5 -29.5zM127 559v119h852v-119h-852zM561 121q-43 0 -72.5 28.5t-29.5 71.5q0 45 29.5 75t72.5 30q45 0 75 -30t30 -75q0 -43 -30.5 -71.5t-74.5 -28.5z" />
    <glyph glyph-name="oslash" unicode="&#xf8;" horiz-adv-x="1312" 
d="M1247 991l-135 -119q98 -143 98 -333q0 -159 -70.5 -287.5t-198 -201.5t-286.5 -73q-234 0 -387 150l-133 -117l-67 78l133 117q-101 147 -101 334q0 244 156.5 403.5t398.5 159.5q234 0 392 -152l133 117zM238 539q0 -140 63 -244l647 569q-115 115 -291 115
q-186 0 -302.5 -123t-116.5 -317zM1073 539q0 137 -61 243l-647 -569q116 -113 292 -113q184 0 300 124t116 315z" />
    <glyph glyph-name="ugrave" unicode="&#xf9;" horiz-adv-x="1232" 
d="M805 1323l-57 -88l-414 242l61 102zM942 1079h137v-1079h-129v176q-53 -87 -151.5 -143t-223.5 -56q-203 0 -318.5 121t-115.5 318v663h135v-647q0 -152 89.5 -242.5t240.5 -89.5q143 0 238.5 88t97.5 201v690z" />
    <glyph glyph-name="uacute" unicode="&#xfa;" horiz-adv-x="1232" 
d="M836 1477l-414 -242l-57 88l409 256zM942 1079h137v-1079h-129v176q-53 -87 -151.5 -143t-223.5 -56q-203 0 -318.5 121t-115.5 318v663h135v-647q0 -152 89.5 -242.5t240.5 -89.5q143 0 238.5 88t97.5 201v690z" />
    <glyph glyph-name="ucircumflex" unicode="&#xfb;" horiz-adv-x="1232" 
d="M592 1475l-195 -220h-127l265 304h116l262 -304h-127zM942 1079h137v-1079h-129v176q-53 -87 -151.5 -143t-223.5 -56q-203 0 -318.5 121t-115.5 318v663h135v-647q0 -152 89.5 -242.5t240.5 -89.5q143 0 238.5 88t97.5 201v690z" />
    <glyph glyph-name="udieresis" unicode="&#xfc;" horiz-adv-x="1232" 
d="M399 1294q-47 0 -80.5 33t-33.5 82q0 47 34 80t82 33q46 0 79.5 -34t33.5 -81t-34.5 -80t-80.5 -33zM780 1294q-45 0 -79.5 33.5t-34.5 81.5q0 47 35 80t81 33q47 0 81 -34t34 -81t-34.5 -80t-82.5 -33zM942 1079h137v-1079h-129v176q-53 -87 -151.5 -143t-223.5 -56
q-203 0 -318.5 121t-115.5 318v663h135v-647q0 -152 89.5 -242.5t240.5 -89.5q143 0 238.5 88t97.5 201v690z" />
    <glyph glyph-name="yacute" unicode="&#xfd;" horiz-adv-x="1097" 
d="M795 1477l-416 -242l-55 88l407 256zM936 1079h141l-606 -1446h-135l158 367h-31l-440 1079h141l381 -958z" />
    <glyph glyph-name="thorn" unicode="&#xfe;" horiz-adv-x="1323" 
d="M711 1102q229 0 378.5 -160.5t149.5 -402.5q0 -159 -68.5 -287.5t-190 -201.5t-271.5 -73q-136 0 -244 62t-174 172v-578h-135v1864h135v-633q66 112 174.5 175t245.5 63zM694 100q175 0 291.5 125.5t116.5 313.5q0 190 -116.5 315t-291.5 125q-180 0 -293.5 -123
t-113.5 -317t113.5 -316.5t293.5 -122.5z" />
    <glyph glyph-name="ydieresis" unicode="&#xff;" horiz-adv-x="1097" 
d="M356 1294q-47 0 -80.5 33t-33.5 82q0 47 34 80t82 33q46 0 80.5 -34t34.5 -81t-34.5 -80t-82.5 -33zM737 1294q-45 0 -78.5 33t-33.5 82q0 47 34 80t80 33q47 0 81 -34t34 -81t-34 -80t-83 -33zM936 1079h141l-606 -1446h-135l158 367h-31l-440 1079h141l381 -958z" />
    <glyph glyph-name="Amacron" unicode="&#x100;" horiz-adv-x="1263" 
d="M928 1772v-115h-596v115h596zM1106 0l-164 438h-620l-164 -438h-135l526 1423h164l528 -1423h-135zM362 551h539l-268 725z" />
    <glyph glyph-name="amacron" unicode="&#x101;" horiz-adv-x="1323" 
d="M936 1464v-112h-571v112h571zM1040 1079h127v-1079h-127v233q-63 -120 -173 -188t-253 -68q-228 0 -378 160.5t-150 403.5q0 157 68.5 284t189 198t270.5 71q143 0 253.5 -66t172.5 -184v235zM629 98q180 0 293.5 124t113.5 319q0 194 -113 317t-294 123
q-175 0 -291.5 -126t-116.5 -314q0 -191 115.5 -317t292.5 -126z" />
    <glyph glyph-name="Abreve" unicode="&#x102;" horiz-adv-x="1263" 
d="M631 1579q-128 0 -206.5 78t-78.5 190h115q0 -68 46 -116t124 -48q76 0 122 48t46 116h114q0 -113 -77 -190.5t-205 -77.5zM1106 0l-164 438h-620l-164 -438h-135l526 1423h164l528 -1423h-135zM362 551h539l-268 725z" />
    <glyph glyph-name="abreve" unicode="&#x103;" horiz-adv-x="1323" 
d="M651 1255q-132 0 -212.5 84.5t-80.5 219.5h109q0 -90 51 -143.5t133 -53.5q83 0 134 53.5t51 143.5h110q0 -134 -81 -219t-214 -85zM1040 1079h127v-1079h-127v233q-63 -120 -173 -188t-253 -68q-228 0 -378 160.5t-150 403.5q0 157 68.5 284t189 198t270.5 71
q143 0 253.5 -66t172.5 -184v235zM629 98q180 0 293.5 124t113.5 319q0 194 -113 317t-294 123q-175 0 -291.5 -126t-116.5 -314q0 -191 115.5 -317t292.5 -126z" />
    <glyph glyph-name="Aogonek" unicode="&#x104;" horiz-adv-x="1263" 
d="M1260 -326l55 -67q-60 -70 -174 -70q-87 0 -139 50.5t-52 129.5q0 64 38.5 125.5t123.5 137.5l25 20h-31l-164 438h-620l-164 -438h-135l526 1423h164l528 -1423l-67 -68q-65 -65 -91 -109t-26 -87q0 -47 28 -76t72 -29q68 0 103 43zM362 551h539l-268 725z" />
    <glyph glyph-name="aogonek" unicode="&#x105;" horiz-adv-x="1323" 
d="M1186 -326l55 -67q-57 -70 -174 -70q-86 0 -138 50.5t-52 129.5q0 64 38.5 126t124.5 137l25 20h-25v233q-63 -120 -173 -188t-253 -68q-228 0 -378 160.5t-150 403.5q0 157 68.5 284t189 198t270.5 71q143 0 253.5 -66t172.5 -184v235h127v-1079l-67 -68
q-65 -65 -91 -109t-26 -87q0 -47 28.5 -76t73.5 -29q66 0 101 43zM629 98q180 0 293.5 124t113.5 319q0 194 -113 317t-294 123q-175 0 -291.5 -126t-116.5 -314q0 -191 115.5 -317t292.5 -126z" />
    <glyph glyph-name="Cacute" unicode="&#x106;" horiz-adv-x="1490" 
d="M575 1569l-30 100l485 191l35 -113zM803 -23q-150 0 -281 54.5t-225 150.5t-147.5 233t-53.5 296t53.5 296.5t147 233.5t223 150.5t277.5 54.5q240 0 400 -121.5t235 -327.5l-132 -53q-63 178 -189.5 275.5t-315.5 97.5q-241 0 -400 -170t-159 -436q0 -175 73 -313.5
t202 -215t290 -76.5q368 0 499 373l132 -53q-74 -209 -231 -329t-398 -120z" />
    <glyph glyph-name="cacute" unicode="&#x107;" horiz-adv-x="1175" 
d="M465 1235l-57 88l409 256l62 -102zM635 -23q-238 0 -394.5 159.5t-156.5 402.5q0 242 155.5 401.5t391.5 159.5q181 0 309.5 -94t173.5 -238l-123 -49q-37 122 -130.5 190t-225.5 68q-180 0 -297 -123t-117 -315q0 -193 117.5 -316t298.5 -123q133 0 228 68t132 188
l123 -47q-45 -145 -174 -238.5t-311 -93.5z" />
    <glyph glyph-name="Cdotaccent" unicode="&#x10a;" horiz-adv-x="1490" 
d="M784 1599q-48 0 -81 32.5t-33 82.5q0 47 33.5 79t82.5 32q46 0 78.5 -33t32.5 -80q0 -49 -32.5 -81t-80.5 -32zM803 -23q-150 0 -281 54.5t-225 150.5t-147.5 233t-53.5 296t53.5 296.5t147 233.5t223 150.5t277.5 54.5q240 0 400 -121.5t235 -327.5l-132 -53
q-63 178 -189.5 275.5t-315.5 97.5q-241 0 -400 -170t-159 -436q0 -175 73 -313.5t202 -215t290 -76.5q368 0 499 373l132 -53q-74 -209 -231 -329t-398 -120z" />
    <glyph glyph-name="cdotaccent" unicode="&#x10b;" horiz-adv-x="1175" 
d="M635 1290q-51 0 -86 33t-35 84q0 52 35 86.5t86 34.5t86 -34.5t35 -86.5q0 -51 -35 -84t-86 -33zM635 -23q-238 0 -394.5 159.5t-156.5 402.5q0 242 155.5 401.5t391.5 159.5q181 0 309.5 -94t173.5 -238l-123 -49q-37 122 -130.5 190t-225.5 68q-180 0 -297 -123
t-117 -315q0 -193 117.5 -316t298.5 -123q133 0 228 68t132 188l123 -47q-45 -145 -174 -238.5t-311 -93.5z" />
    <glyph glyph-name="Ccaron" unicode="&#x10c;" horiz-adv-x="1490" 
d="M842 1579h-111l-264 268h131l186 -178l187 178h131zM801 106q368 0 499 373l132 -53q-74 -209 -231 -329t-398 -120q-150 0 -281 54.5t-225 150.5t-147.5 233t-53.5 296t53.5 296.5t147 233.5t223 150.5t277.5 54.5q240 0 400 -121.5t235 -327.5l-132 -53
q-63 178 -189.5 275.5t-315.5 97.5q-241 0 -400 -170t-159 -436q0 -175 73 -313.5t202 -215t290 -76.5z" />
    <glyph glyph-name="ccaron" unicode="&#x10d;" horiz-adv-x="1175" 
d="M694 1255h-116l-265 304h127l195 -218l194 218h127zM997 356l123 -47q-45 -145 -174 -238.5t-311 -93.5q-238 0 -394.5 159.5t-156.5 402.5q0 242 155.5 401.5t391.5 159.5q181 0 309.5 -94t173.5 -238l-123 -49q-37 122 -130.5 190t-225.5 68q-180 0 -297 -123
t-117 -315q0 -193 117.5 -316t298.5 -123q133 0 228 68t132 188z" />
    <glyph glyph-name="Dcaron" unicode="&#x10e;" horiz-adv-x="1466" 
d="M750 1577h-111l-264 270h131l186 -182l189 182h129zM682 1423q148 0 275 -51t218 -142.5t143 -224.5t52 -292t-52 -292.5t-143 -225.5t-218 -143.5t-275 -51.5h-504v1423h504zM678 123q241 0 397 161.5t156 426.5t-156 427t-397 162h-365v-1177h365z" />
    <glyph glyph-name="dcaron" unicode="&#x10f;" horiz-adv-x="1406" 
d="M1032 866v631h135v-1497h-127v227q-64 -117 -175 -183.5t-251 -66.5q-228 0 -378 160.5t-150 403.5q0 158 67.5 286t188 201.5t270.5 73.5q137 0 245.5 -62.5t174.5 -173.5zM1364 1497h102l-49 -446h-94zM629 98q180 0 293.5 124t113.5 319q0 194 -113 317t-294 123
q-175 0 -291.5 -126t-116.5 -314q0 -191 115.5 -317t292.5 -126z" />
    <glyph glyph-name="Dcroat" unicode="&#x110;" horiz-adv-x="1480" 
d="M696 1423q147 0 273.5 -51t217.5 -142.5t143 -225t52 -291.5q0 -159 -52 -292.5t-143 -225.5t-217.5 -143.5t-273.5 -51.5h-503v690h-156v101h156v632h503zM692 123q241 0 397 161.5t156 426.5t-156 427t-397 162h-364v-509h327v-101h-327v-567h364z" />
    <glyph glyph-name="dcroat" unicode="&#x111;" horiz-adv-x="1323" 
d="M1323 1325v-100h-156v-1225h-127v227q-64 -117 -175 -183.5t-251 -66.5q-228 0 -378 160.5t-150 403.5q0 158 67.5 286t188 201.5t270.5 73.5q137 0 245.5 -62.5t174.5 -173.5v359h-327v100h327v172h135v-172h156zM629 98q180 0 293.5 124t113.5 319q0 194 -113 317
t-294 123q-175 0 -291.5 -126t-116.5 -314q0 -191 115.5 -317t292.5 -126z" />
    <glyph glyph-name="Emacron" unicode="&#x112;" horiz-adv-x="1138" 
d="M909 1772v-115h-596v115h596zM313 121h748v-121h-883v1423h869v-120h-734v-502h668v-121h-668v-559z" />
    <glyph glyph-name="emacron" unicode="&#x113;" horiz-adv-x="1214" 
d="M909 1462v-112h-573v112h573zM221 502q12 -183 124 -294.5t282 -111.5q289 0 377 236l104 -64q-59 -139 -179.5 -215t-303.5 -76q-156 0 -280 73t-192.5 201.5t-68.5 287.5q0 155 70 284.5t192.5 204t269.5 74.5q151 0 270 -72.5t183 -195t64 -271.5q0 -40 -3 -61h-909z
M221 604h780q-11 175 -113 280t-267 105q-164 0 -272.5 -105.5t-127.5 -279.5z" />
    <glyph glyph-name="Edotaccent" unicode="&#x116;" horiz-adv-x="1138" 
d="M612 1599q-48 0 -81 32.5t-33 82.5q0 47 33 79t81 32q47 0 80 -33t33 -80q0 -49 -32.5 -81t-80.5 -32zM313 121h748v-121h-883v1423h869v-120h-734v-502h668v-121h-668v-559z" />
    <glyph glyph-name="edotaccent" unicode="&#x117;" horiz-adv-x="1214" 
d="M623 1288q-51 0 -85 33t-34 84q0 52 34 86.5t85 34.5t85.5 -34.5t34.5 -86.5q0 -51 -34.5 -84t-85.5 -33zM221 502q12 -183 124 -294.5t282 -111.5q289 0 377 236l104 -64q-59 -139 -179.5 -215t-303.5 -76q-156 0 -280 73t-192.5 201.5t-68.5 287.5q0 155 70 284.5
t192.5 204t269.5 74.5q151 0 270 -72.5t183 -195t64 -271.5q0 -40 -3 -61h-909zM221 604h780q-11 175 -113 280t-267 105q-164 0 -272.5 -105.5t-127.5 -279.5z" />
    <glyph glyph-name="Eogonek" unicode="&#x118;" horiz-adv-x="1138" 
d="M1079 -326l56 -67q-60 -70 -177 -70q-85 0 -136.5 50.5t-51.5 129.5q0 65 38 126.5t124 136.5l24 20h-778v1423h869v-120h-734v-502h668v-121h-668v-559h748v-121l-68 -68q-66 -64 -91 -108t-25 -88q0 -47 28 -76t72 -29q65 0 102 43z" />
    <glyph glyph-name="eogonek" unicode="&#x119;" horiz-adv-x="1214" 
d="M221 502q12 -183 124 -294.5t282 -111.5q289 0 377 236l104 -64q-83 -199 -285 -262l-61 -61q-64 -64 -89.5 -108.5t-25.5 -88.5q0 -47 28 -75.5t73 -28.5q65 0 102 43l55 -66q-59 -72 -176 -72q-85 0 -137.5 51.5t-52.5 129.5q0 61 35.5 120t115.5 130q-34 -3 -65 -3
q-156 0 -280 73t-192.5 201.5t-68.5 287.5q0 155 70 284.5t192.5 204t269.5 74.5q151 0 270 -72.5t183 -195t64 -271.5q0 -40 -3 -61h-909zM221 604h780q-11 175 -113 280t-267 105q-164 0 -272.5 -105.5t-127.5 -279.5z" />
    <glyph glyph-name="Ecaron" unicode="&#x11a;" horiz-adv-x="1138" 
d="M670 1579h-111l-264 268h131l186 -178l187 178h131zM313 121h748v-121h-883v1423h869v-120h-734v-502h668v-121h-668v-559z" />
    <glyph glyph-name="ecaron" unicode="&#x11b;" horiz-adv-x="1214" 
d="M682 1253h-115l-266 303h129l193 -217l194 217h127zM221 502q12 -183 124 -294.5t282 -111.5q289 0 377 236l104 -64q-59 -139 -179.5 -215t-303.5 -76q-156 0 -280 73t-192.5 201.5t-68.5 287.5q0 155 70 284.5t192.5 204t269.5 74.5q151 0 270 -72.5t183 -195
t64 -271.5q0 -40 -3 -61h-909zM221 604h780q-11 175 -113 280t-267 105q-164 0 -272.5 -105.5t-127.5 -279.5z" />
    <glyph glyph-name="Gbreve" unicode="&#x11e;" horiz-adv-x="1574" 
d="M795 1579q-128 0 -206.5 78t-78.5 190h115q0 -68 46 -116t124 -48q76 0 122 48t46 116h114q0 -112 -77.5 -190t-204.5 -78zM1491 731q0 -169 -53 -311t-145.5 -238.5t-220.5 -150.5t-275 -54q-149 0 -279 55t-223 151t-146 233t-53 295q0 159 53.5 296t146.5 233
t222.5 151t278.5 55q237 0 397 -117.5t236 -318.5l-132 -54q-65 175 -192.5 268t-310.5 93q-160 0 -287.5 -77t-199.5 -216t-72 -315q0 -268 160 -437.5t411 -169.5q223 0 373.5 139.5t179.5 381.5h-565v108h696z" />
    <glyph glyph-name="gbreve" unicode="&#x11f;" horiz-adv-x="1323" 
d="M657 1255q-133 0 -214 85t-81 219h111q0 -90 51 -143.5t133 -53.5t132.5 53.5t50.5 143.5h110q0 -134 -81 -219t-212 -85zM1042 1079h127v-946q0 -240 -145.5 -381t-400.5 -141q-196 0 -325 87t-183 245l118 45q41 -128 142 -194t250 -66q193 0 305 106t112 289v133
q-63 -120 -173 -188t-253 -68q-151 0 -272.5 72.5t-189.5 198.5t-68 280q0 233 151.5 392t378.5 159q143 0 253 -67t173 -187v231zM629 109q178 0 291.5 122.5t113.5 313.5t-112 313.5t-289 122.5t-294.5 -125t-117.5 -311t116.5 -311t291.5 -125z" />
    <glyph glyph-name="Gdotaccent" unicode="&#x120;" horiz-adv-x="1574" 
d="M795 1599q-48 0 -81.5 32.5t-33.5 82.5q0 47 33.5 79t81.5 32q47 0 79.5 -33t32.5 -80q0 -49 -32 -81t-80 -32zM1491 731q0 -169 -53 -311t-145.5 -238.5t-220.5 -150.5t-275 -54q-149 0 -279 55t-223 151t-146 233t-53 295q0 159 53.5 296t146.5 233t222.5 151t278.5 55
q237 0 397 -117.5t236 -318.5l-132 -54q-65 175 -192.5 268t-310.5 93q-160 0 -287.5 -77t-199.5 -216t-72 -315q0 -268 160 -437.5t411 -169.5q223 0 373.5 139.5t179.5 381.5h-565v108h696z" />
    <glyph glyph-name="gdotaccent" unicode="&#x121;" horiz-adv-x="1323" 
d="M657 1290q-51 0 -85.5 33t-34.5 84q0 52 34.5 86.5t85.5 34.5t85 -34.5t34 -86.5q0 -51 -34 -84t-85 -33zM1042 1079h127v-946q0 -240 -145.5 -381t-400.5 -141q-196 0 -325 87t-183 245l118 45q41 -128 142 -194t250 -66q193 0 305 106t112 289v133q-63 -120 -173 -188
t-253 -68q-151 0 -272.5 72.5t-189.5 198.5t-68 280q0 233 151.5 392t378.5 159q143 0 253 -67t173 -187v231zM629 109q178 0 291.5 122.5t113.5 313.5t-112 313.5t-289 122.5t-294.5 -125t-117.5 -311t116.5 -311t291.5 -125z" />
    <glyph glyph-name="uni0122" unicode="&#x122;" horiz-adv-x="1574" 
d="M1491 731q0 -169 -53 -311t-145.5 -238.5t-220.5 -150.5t-275 -54q-149 0 -279 55t-223 151t-146 233t-53 295q0 159 53.5 296t146.5 233t222.5 151t278.5 55q237 0 397 -117.5t236 -318.5l-132 -54q-65 175 -192.5 268t-310.5 93q-160 0 -287.5 -77t-199.5 -216
t-72 -315q0 -268 160 -437.5t411 -169.5q223 0 373.5 139.5t179.5 381.5h-565v108h696zM793 -100q42 0 70 -28.5t28 -72.5q0 -57 -51 -137l-78 -139l-70 24l76 144l6 14q-34 6 -57 33t-23 65q0 41 29 69t70 28z" />
    <glyph glyph-name="uni0123" unicode="&#x123;" horiz-adv-x="1323" 
d="M643 1235q-42 0 -69 27t-27 71q0 58 49 137l78 142l71 -27l-77 -141l-6 -17q36 -6 58.5 -32.5t22.5 -65.5q0 -41 -28.5 -67.5t-71.5 -26.5zM1042 1079h127v-946q0 -240 -145.5 -381t-400.5 -141q-196 0 -325 87t-183 245l118 45q41 -128 142 -194t250 -66q193 0 305 106
t112 289v133q-63 -120 -173 -188t-253 -68q-151 0 -272.5 72.5t-189.5 198.5t-68 280q0 233 151.5 392t378.5 159q143 0 253 -67t173 -187v231zM629 109q178 0 291.5 122.5t113.5 313.5t-112 313.5t-289 122.5t-294.5 -125t-117.5 -311t116.5 -311t291.5 -125z" />
    <glyph glyph-name="Hbar" unicode="&#x126;" horiz-adv-x="1433" 
d="M1374 1182v-111h-133v-1071h-135v680h-776v-680h-137v1071h-134v111h134v241h137v-241h776v241h135v-241h133zM1106 803v268h-776v-268h776z" />
    <glyph glyph-name="hbar" unicode="&#x127;" horiz-adv-x="1253" 
d="M670 1102q210 0 327 -120.5t117 -328.5v-653h-137v631q0 165 -89.5 257t-248.5 91q-149 0 -247 -90.5t-101 -212.5v-676h-135v1225h-156v100h156v172h135v-172h327v-100h-327v-316q55 85 153.5 139t225.5 54z" />
    <glyph glyph-name="Itilde" unicode="&#x128;" horiz-adv-x="491" 
d="M356 1595q-31 0 -57.5 11t-45.5 26.5t-36 31.5t-38 27t-44 11q-39 0 -63.5 -29t-32.5 -74l-86 41q12 70 57.5 123.5t118.5 53.5q37 0 68.5 -16.5t50.5 -37t45.5 -37t54.5 -16.5q40 0 65 28t33 72l86 -41q-14 -71 -58.5 -122.5t-117.5 -51.5zM178 0v1423h135v-1423h-135z
" />
    <glyph glyph-name="itilde" unicode="&#x129;" horiz-adv-x="446" 
d="M330 1296q-29 0 -53.5 11t-42 27t-34 31.5t-36.5 26.5t-41 11q-36 0 -59 -28.5t-31 -74.5l-80 43q12 70 52 122.5t106 52.5q34 0 63 -16.5t46.5 -37t43 -37t51.5 -16.5q38 0 62.5 28.5t30.5 73.5l81 -40q-14 -73 -53 -125t-106 -52zM156 0v1079h135v-1079h-135z" />
    <glyph glyph-name="Imacron" unicode="&#x12a;" horiz-adv-x="491" 
d="M18 1657v115h461v-115h-461zM178 0v1423h135v-1423h-135z" />
    <glyph glyph-name="imacron" unicode="&#x12b;" horiz-adv-x="446" 
d="M-8 1352v112h459v-112h-459zM156 0v1079h135v-1079h-135z" />
    <glyph glyph-name="Iogonek" unicode="&#x12e;" horiz-adv-x="491" 
d="M332 -326l55 -67q-57 -70 -174 -70q-86 0 -138 50.5t-52 129.5q0 64 38.5 126t124.5 137l25 20h-33v1423h135v-1423l-67 -68q-65 -65 -91 -109t-26 -87q0 -47 28.5 -76t73.5 -29q66 0 101 43z" />
    <glyph glyph-name="iogonek" unicode="&#x12f;" horiz-adv-x="450" 
d="M223 1290q-51 0 -86 33t-35 84t35 85t86 34t86 -34t35 -85t-35 -84t-86 -33zM307 -326l55 -67q-60 -70 -174 -70q-86 0 -138 50.5t-52 129.5q0 64 38.5 125.5t123.5 137.5l24 20h-28v1079h135v-1079h-2l-68 -68q-65 -65 -91 -109t-26 -87q0 -47 28.5 -76t74.5 -29
q65 0 100 43z" />
    <glyph glyph-name="Idotaccent" unicode="&#x130;" horiz-adv-x="491" 
d="M246 1599q-48 0 -80.5 32.5t-32.5 82.5q0 47 33 79t82 32q47 0 79.5 -33t32.5 -80q0 -49 -33 -81t-81 -32zM178 0v1423h135v-1423h-135z" />
    <glyph glyph-name="dotlessi" unicode="&#x131;" horiz-adv-x="446" 
d="M156 0v1079h135v-1079h-135z" />
    <glyph glyph-name="IJ" unicode="&#x132;" horiz-adv-x="1173" 
d="M178 0v1423h135v-1423h-135zM539 0v121h98q109 0 171 68t62 192v1042h138v-1042q0 -179 -97 -280t-266 -101h-106z" />
    <glyph glyph-name="ij" unicode="&#x133;" horiz-adv-x="1003" 
d="M223 1290q-51 0 -86 33t-35 84t35 85t86 34t86 -34t35 -85t-35 -84t-86 -33zM782 1290q-52 0 -86 32.5t-34 84.5q0 51 34.5 85t85.5 34t85 -34t34 -85q0 -52 -33.5 -84.5t-85.5 -32.5zM156 0v1079h135v-1079h-135zM453 -371v119h22q107 0 172.5 71t65.5 185v1075h135
v-1073q0 -171 -100.5 -274t-262.5 -103h-32z" />
    <glyph glyph-name="uni0136" unicode="&#x136;" horiz-adv-x="1234" 
d="M457 748l792 -748h-168l-768 707v-707h-135v1423h135v-643l699 643h164zM668 -100q42 0 70 -28.5t28 -72.5q0 -57 -51 -137l-78 -139l-70 24l76 144q1 1 4 6t4 8q-36 6 -59 33t-23 65q0 41 29 69t70 28z" />
    <glyph glyph-name="uni0137" unicode="&#x137;" horiz-adv-x="1019" 
d="M436 584l588 -584h-158l-575 551v-551h-135v1497h135v-879l553 461h162zM573 -100q42 0 69.5 -28.5t27.5 -72.5q0 -55 -49 -137l-78 -139l-72 24l78 144l6 14q-34 5 -58 32.5t-24 65.5q0 41 28.5 69t71.5 28z" />
    <glyph glyph-name="kgreenlandic" unicode="&#x138;" horiz-adv-x="1021" 
d="M1024 0h-156l-577 516v-516h-135v1079h135v-495l553 495h166l-578 -526z" />
    <glyph glyph-name="Lacute" unicode="&#x139;" horiz-adv-x="1075" 
d="M492 1860l36 -113l-489 -178l-33 100zM313 123h736v-123h-871v1423h135v-1300z" />
    <glyph glyph-name="lacute" unicode="&#x13a;" horiz-adv-x="446" 
d="M16 1642l-32 101l485 190l37 -112zM156 0v1497h135v-1497h-135z" />
    <glyph glyph-name="uni013B" unicode="&#x13b;" horiz-adv-x="1075" 
d="M313 123h736v-123h-871v1423h135v-1300zM614 -100q42 0 70.5 -28.5t28.5 -72.5q0 -55 -49 -137l-80 -139l-70 24l76 144q0 1 3.5 6t4.5 8q-36 6 -59 33t-23 65q0 41 28.5 69t69.5 28z" />
    <glyph glyph-name="uni013C" unicode="&#x13c;" horiz-adv-x="446" 
d="M291 1497v-1497h-135v1497h135zM223 -100q42 0 70.5 -28.5t28.5 -72.5q0 -55 -52 -137l-77 -139l-70 24l76 144l6 14q-34 6 -57 33t-23 65q0 41 28.5 69t69.5 28z" />
    <glyph glyph-name="Lcaron" unicode="&#x13d;" horiz-adv-x="1081" 
d="M877 1444l-52 -447h-92l41 447h103zM313 123h736v-123h-871v1423h135v-1300z" />
    <glyph glyph-name="lcaron" unicode="&#x13e;" horiz-adv-x="528" 
d="M156 0v1497h135v-1497h-135zM446 1051l41 446h103l-51 -446h-93z" />
    <glyph glyph-name="Ldot" unicode="&#x13f;" horiz-adv-x="1087" 
d="M313 123h736v-123h-871v1423h135v-1300zM774 690q-44 0 -73 29.5t-29 73.5t29 73t73 29q43 0 73 -29t30 -73t-30 -73.5t-73 -29.5z" />
    <glyph glyph-name="ldot" unicode="&#x140;" horiz-adv-x="585" 
d="M156 0v1497h135v-1497h-135zM522 657q-44 0 -73 30t-29 73q0 44 29 74t73 30t73.5 -30t29.5 -74q0 -43 -29.5 -73t-73.5 -30z" />
    <glyph glyph-name="Lslash" unicode="&#x141;" horiz-adv-x="1150" 
d="M389 123h735v-123h-870v645l-180 -74l-33 91l213 88v673h135v-618l207 86l33 -90l-240 -99v-579z" />
    <glyph glyph-name="lslash" unicode="&#x142;" horiz-adv-x="620" 
d="M602 858l-225 -129v-729h-135v651l-166 -94l-53 88l219 125v727h135v-649l174 98z" />
    <glyph glyph-name="Nacute" unicode="&#x143;" horiz-adv-x="1404" 
d="M973 1747l-490 -178l-32 100l485 191zM1090 1423h137v-1423h-115l-799 1186v-1186h-135v1423h115l797 -1187v1187z" />
    <glyph glyph-name="nacute" unicode="&#x144;" horiz-adv-x="1253" 
d="M889 1475l-416 -242l-55 88l407 256zM670 1102q210 0 327 -120.5t117 -328.5v-653h-137v631q0 165 -89.5 257t-248.5 91q-149 0 -247 -90.5t-101 -212.5v-676h-135v1079h129v-180q53 89 154 146t231 57z" />
    <glyph glyph-name="uni0145" unicode="&#x145;" horiz-adv-x="1404" 
d="M1090 1423h137v-1423h-115l-799 1186v-1186h-135v1423h115l797 -1187v1187zM713 -100q41 0 68.5 -28.5t27.5 -72.5q0 -55 -49 -137l-80 -139l-70 24l78 144l6 14q-34 5 -58 32.5t-24 65.5q0 41 29 69t72 28z" />
    <glyph glyph-name="uni0146" unicode="&#x146;" horiz-adv-x="1253" 
d="M670 1102q210 0 327 -120.5t117 -328.5v-653h-137v631q0 165 -89.5 257t-248.5 91q-149 0 -247 -90.5t-101 -212.5v-676h-135v1079h129v-180q53 89 154 146t231 57zM633 -100q41 0 68.5 -28.5t27.5 -72.5q0 -55 -49 -137l-80 -139l-70 24l78 144l6 14q-34 5 -58 32.5
t-24 65.5q0 41 29 69t72 28z" />
    <glyph glyph-name="Ncaron" unicode="&#x147;" horiz-adv-x="1404" 
d="M748 1579h-111l-264 268h131l188 -178l187 178h129zM1090 1423h137v-1423h-115l-799 1186v-1186h-135v1423h115l797 -1187v1187z" />
    <glyph glyph-name="ncaron" unicode="&#x148;" horiz-adv-x="1253" 
d="M705 1253h-117l-264 303h127l194 -217l193 217h127zM670 1102q210 0 327 -120.5t117 -328.5v-653h-137v631q0 165 -89.5 257t-248.5 91q-149 0 -247 -90.5t-101 -212.5v-676h-135v1079h129v-180q53 89 154 146t231 57z" />
    <glyph glyph-name="napostrophe" unicode="&#x149;" horiz-adv-x="1421" 
d="M51 1065l41 446h103l-52 -446h-92zM836 1102q210 0 327 -120.5t117 -328.5v-653h-135v631q0 164 -90 256.5t-250 91.5q-148 0 -246.5 -91t-101.5 -212v-676h-135v1079h129v-180q53 89 154 146t231 57z" />
    <glyph glyph-name="Eng" unicode="&#x14a;" horiz-adv-x="1404" 
d="M1090 1423h137v-1441q0 -180 -95.5 -280.5t-261.5 -100.5h-32v120h36q108 0 171 69t63 192v24l-795 1180v-1186h-135v1423h115l797 -1187v1187z" />
    <glyph glyph-name="eng" unicode="&#x14b;" horiz-adv-x="1253" 
d="M670 1102q210 0 327 -120.5t117 -328.5v-653q0 -167 -100 -269t-260 -102h-29v119h23q103 0 166 69.5t63 180.5v633q0 165 -89.5 257t-248.5 91q-149 0 -247 -90.5t-101 -212.5v-676h-135v1079h129v-180q53 89 154 146t231 57z" />
    <glyph glyph-name="Omacron" unicode="&#x14c;" horiz-adv-x="1611" 
d="M508 1657v115h594v-115h-594zM807 -23q-151 0 -283 55t-226.5 151.5t-149 233.5t-54.5 294q0 211 92.5 379t255.5 262t365 94q199 0 361 -93.5t255 -262.5t93 -379t-93 -378t-255 -262t-361 -94zM807 106q162 0 292 77t203.5 215.5t73.5 312.5q0 266 -160.5 436
t-408.5 170q-251 0 -412.5 -170t-161.5 -436q0 -175 74 -313t205 -215t295 -77z" />
    <glyph glyph-name="omacron" unicode="&#x14d;" horiz-adv-x="1277" 
d="M354 1350v112h574v-112h-574zM639 -23q-159 0 -286.5 73t-198 201.5t-70.5 287.5q0 244 156.5 403.5t398.5 159.5t398.5 -159.5t156.5 -403.5q0 -159 -70.5 -287.5t-198 -201.5t-286.5 -73zM641 100q184 0 300 124t116 315q0 194 -116 317t-300 123q-186 0 -303 -123
t-117 -317q0 -191 117.5 -315t302.5 -124z" />
    <glyph glyph-name="Ohungarumlaut" unicode="&#x150;" horiz-adv-x="1611" 
d="M580 1524l-86 61l225 340l96 -70zM961 1524l-87 61l226 340l96 -70zM807 -23q-151 0 -283 55t-226.5 151.5t-149 233.5t-54.5 294q0 211 92.5 379t255.5 262t365 94q199 0 361 -93.5t255 -262.5t93 -379t-93 -378t-255 -262t-361 -94zM807 106q162 0 292 77t203.5 215.5
t73.5 312.5q0 266 -160.5 436t-408.5 170q-251 0 -412.5 -170t-161.5 -436q0 -175 74 -313t205 -215t295 -77z" />
    <glyph glyph-name="ohungarumlaut" unicode="&#x151;" horiz-adv-x="1277" 
d="M434 1233l-86 59l225 310l97 -68zM801 1233l-86 59l225 310l96 -68zM639 -23q-159 0 -286.5 73t-198 201.5t-70.5 287.5q0 244 156.5 403.5t398.5 159.5t398.5 -159.5t156.5 -403.5q0 -159 -70.5 -287.5t-198 -201.5t-286.5 -73zM641 100q184 0 300 124t116 315
q0 194 -116 317t-300 123q-186 0 -303 -123t-117 -317q0 -191 117.5 -315t302.5 -124z" />
    <glyph glyph-name="OE" unicode="&#x152;" horiz-adv-x="2336" 
d="M1513 121h744v-121h-881v289q-89 -147 -236.5 -229.5t-332.5 -82.5q-151 0 -283 55t-226.5 151.5t-149 233.5t-54.5 294q0 211 92.5 379t255.5 262t365 94q185 0 332.5 -82t236.5 -229v288h869v-120h-732v-502h664v-121h-664v-559zM807 106q162 0 292 77t203.5 215.5
t73.5 312.5q0 266 -160.5 436t-408.5 170q-251 0 -412.5 -170t-161.5 -436q0 -175 74 -313t205 -215t295 -77z" />
    <glyph glyph-name="oe" unicode="&#x153;" horiz-adv-x="2189" 
d="M1198 502q12 -183 123 -294.5t281 -111.5q288 0 376 236l105 -64q-57 -139 -179 -215t-305 -76q-157 0 -281.5 75.5t-191.5 205.5q-70 -130 -198 -205.5t-289 -75.5q-159 0 -286.5 73t-198 201.5t-70.5 287.5q0 244 156.5 403.5t398.5 159.5q163 0 291 -76t198 -209
q69 131 192 208t273 77q151 0 270 -72.5t182.5 -195t63.5 -271.5q0 -13 -1 -34t-1 -27h-909zM1198 604h778q-11 174 -113.5 279.5t-267.5 105.5q-163 0 -270.5 -105.5t-126.5 -279.5zM641 100q184 0 300 124t116 315q0 194 -116 317t-300 123q-186 0 -303 -123t-117 -317
q0 -191 117.5 -315t302.5 -124z" />
    <glyph glyph-name="Racute" unicode="&#x154;" horiz-adv-x="1226" 
d="M883 1747l-490 -178l-33 100l486 191zM989 0l-526 651h-150v-651h-135v1423h512q209 0 332 -106.5t123 -280.5q0 -172 -124 -278.5t-331 -106.5h-76l535 -651h-160zM313 1303v-549h375q151 0 236.5 75t85.5 199t-85.5 199.5t-236.5 75.5h-375z" />
    <glyph glyph-name="racute" unicode="&#x155;" horiz-adv-x="671" 
d="M625 1475l-416 -242l-55 88l409 256zM285 903q53 87 146.5 143t207.5 56v-127q-147 -1 -247.5 -93t-100.5 -214v-668h-135v1079h129v-176z" />
    <glyph glyph-name="uni0156" unicode="&#x156;" horiz-adv-x="1226" 
d="M614 651l535 -651h-160l-526 651h-150v-651h-135v1423h512q209 0 332 -106.5t123 -280.5q0 -172 -124 -278.5t-331 -106.5h-76zM313 1303v-549h375q151 0 236.5 75t85.5 199t-85.5 199.5t-236.5 75.5h-375zM608 -100q40 0 68.5 -28.5t28.5 -72.5q0 -54 -50 -137l-80 -139
l-69 24l76 144q0 1 3.5 6t4.5 8q-36 6 -59 33t-23 65q0 41 28.5 69t71.5 28z" />
    <glyph glyph-name="uni0157" unicode="&#x157;" horiz-adv-x="671" 
d="M285 903q53 87 146.5 143t207.5 56v-127q-147 -1 -247.5 -93t-100.5 -214v-668h-135v1079h129v-176zM227 -100q42 0 70.5 -28.5t28.5 -72.5q0 -55 -52 -137l-77 -139l-70 24l76 144l6 14q-34 6 -57 33t-23 65q0 41 28.5 69t69.5 28z" />
    <glyph glyph-name="Rcaron" unicode="&#x158;" horiz-adv-x="1226" 
d="M659 1579h-112l-262 268h129l188 -178l186 178h132zM989 0l-526 651h-150v-651h-135v1423h512q209 0 332 -106.5t123 -280.5q0 -172 -124 -278.5t-331 -106.5h-76l535 -651h-160zM313 1303v-549h375q151 0 236.5 75t85.5 199t-85.5 199.5t-236.5 75.5h-375z" />
    <glyph glyph-name="rcaron" unicode="&#x159;" horiz-adv-x="671" 
d="M440 1253h-116l-265 303h127l195 -217l192 217h129zM285 903q53 87 146.5 143t207.5 56v-127q-147 -1 -247.5 -93t-100.5 -214v-668h-135v1079h129v-176z" />
    <glyph glyph-name="Sacute" unicode="&#x15a;" horiz-adv-x="1110" 
d="M352 1569l-33 100l486 191l37 -113zM549 -20q-187 0 -314.5 87t-171.5 244l132 49q31 -124 125 -192t237 -68q148 0 236 68.5t88 183.5q0 65 -25.5 116t-69 85.5t-100 62t-119 51t-125 47.5t-119 57t-100 73.5t-69 102.5t-25.5 140q0 159 117 258t315 99q171 0 282.5 -76
t153.5 -213l-131 -49q-33 112 -110 164.5t-201 52.5q-136 0 -212.5 -61t-76.5 -160q0 -62 26 -110t69.5 -80t100 -58t119 -49.5t125 -48t119 -59.5t100 -79t69.5 -111t26 -151q0 -170 -128.5 -273t-342.5 -103z" />
    <glyph glyph-name="sacute" unicode="&#x15b;" horiz-adv-x="964" 
d="M324 1233l-58 90l410 254l61 -100zM487 -23q-166 0 -278 66.5t-152 187.5l117 45q28 -92 110 -142t208 -50q123 0 195.5 51.5t72.5 143.5q0 60 -36 103t-93 68.5t-126 46.5t-138.5 45t-126.5 55.5t-93 87t-36 130.5q0 132 101.5 209.5t268.5 77.5q142 0 237 -56t132 -161
l-115 -45q-61 157 -254 157q-113 0 -175 -46t-62 -128q0 -57 36 -97t93 -63.5t126 -43t138.5 -43.5t126.5 -57t93 -91.5t36 -138.5q0 -147 -110 -229.5t-296 -82.5z" />
    <glyph glyph-name="Scedilla" unicode="&#x15e;" horiz-adv-x="1110" 
d="M1020 356q0 -150 -100.5 -248.5t-272.5 -121.5l-47 -101q83 -1 134.5 -53t51.5 -129q0 -84 -60.5 -139.5t-162.5 -55.5q-134 0 -217 95l55 61q56 -72 148 -72q60 0 97.5 34t37.5 85q0 53 -39 89t-100 36h-37l-12 14l57 130h-4q-187 0 -314.5 87t-171.5 244l132 49
q31 -124 125 -192t237 -68q148 0 236 68.5t88 183.5q0 65 -25.5 116t-69 85.5t-100 62t-119 51t-125 47.5t-119 57t-100 73.5t-69 102.5t-25.5 140q0 159 117 258t315 99q171 0 282.5 -76t153.5 -213l-131 -49q-33 112 -110 164.5t-201 52.5q-136 0 -212.5 -61t-76.5 -160
q0 -62 26 -110t69.5 -80t100 -58t119 -49.5t125 -48t119 -59.5t100 -79t69.5 -111t26 -151z" />
    <glyph glyph-name="scedilla" unicode="&#x15f;" horiz-adv-x="964" 
d="M893 289q0 -138 -98.5 -219t-266.5 -90l-41 -95q82 -1 133.5 -53.5t51.5 -128.5q0 -84 -60.5 -139.5t-162.5 -55.5q-137 0 -216 95l54 61q56 -72 147 -72q60 0 97.5 34t37.5 85q0 53 -39 89t-100 36h-35l-12 14l55 130q-147 9 -245.5 74t-135.5 177l117 45
q28 -92 110 -142t208 -50q123 0 195.5 51.5t72.5 143.5q0 60 -36 103t-93 68.5t-126 46.5t-138.5 45t-126.5 55.5t-93 87t-36 130.5q0 132 101.5 209.5t268.5 77.5q142 0 237 -56t132 -161l-115 -45q-61 157 -254 157q-113 0 -175 -46t-62 -128q0 -57 36 -97t93 -63.5
t126 -43t138.5 -43.5t126.5 -57t93 -91.5t36 -138.5z" />
    <glyph glyph-name="Scaron" unicode="&#x160;" horiz-adv-x="1110" 
d="M639 1579h-111l-264 268h131l189 -178l186 178h129zM266 1102q0 -62 26 -110t69.5 -80t100 -58t119 -49.5t125 -48t119 -59.5t100 -79t69.5 -111t26 -151q0 -170 -128.5 -273t-342.5 -103q-187 0 -314.5 87t-171.5 244l132 49q31 -124 125 -192t237 -68q148 0 236 68.5
t88 183.5q0 65 -25.5 116t-69 85.5t-100 62t-119 51t-125 47.5t-119 57t-100 73.5t-69 102.5t-25.5 140q0 159 117 258t315 99q171 0 282.5 -76t153.5 -213l-131 -49q-33 112 -110 164.5t-201 52.5q-136 0 -212.5 -61t-76.5 -160z" />
    <glyph glyph-name="scaron" unicode="&#x161;" horiz-adv-x="964" 
d="M553 1255h-117l-264 304h127l195 -220l192 220h129zM244 823q0 -57 36 -97t93 -63.5t126 -43t138.5 -43.5t126.5 -57t93 -91.5t36 -138.5q0 -147 -110 -229.5t-296 -82.5q-166 0 -278 66.5t-152 187.5l117 45q28 -92 110 -142t208 -50q123 0 195.5 51.5t72.5 143.5
q0 60 -36 103t-93 68.5t-126 46.5t-138.5 45t-126.5 55.5t-93 87t-36 130.5q0 132 101.5 209.5t268.5 77.5q142 0 237 -56t132 -161l-115 -45q-61 157 -254 157q-113 0 -175 -46t-62 -128z" />
    <glyph glyph-name="uni0162" unicode="&#x162;" horiz-adv-x="1103" 
d="M621 0h-23l-53 -121q83 -3 134.5 -55.5t51.5 -128.5q0 -84 -61.5 -139.5t-163.5 -55.5q-138 0 -215 97l53 59q60 -72 148 -72q61 0 99 35t38 86q0 52 -40 87.5t-102 35.5h-34l-13 16l68 156h-25v1300h-456v123h1050v-123h-456v-1300z" />
    <glyph glyph-name="uni0163" unicode="&#x163;" horiz-adv-x="733" 
d="M569 0q-37 0 -53 2l-45 -100q84 -3 135 -55t51 -130q0 -82 -60.5 -137t-162.5 -55q-135 0 -217 94l55 62q56 -72 146 -72q62 0 99.5 34t37.5 85q0 53 -39.5 87.5t-101.5 34.5h-35l-12 17l67 153q-102 34 -155.5 118.5t-53.5 211.5v611h-200v118h118q93 0 93 95v180h129
v-275h337v-118h-340v-599q0 -116 59 -178.5t171 -62.5h129v-121h-152z" />
    <glyph glyph-name="Tcaron" unicode="&#x164;" horiz-adv-x="1103" 
d="M610 1579h-110l-264 268h131l186 -178l188 178h129zM1077 1423v-123h-456v-1300h-138v1300h-456v123h1050z" />
    <glyph glyph-name="tcaron" unicode="&#x165;" horiz-adv-x="733" 
d="M590 1143l41 446h100l-49 -446h-92zM569 0q-165 0 -254.5 92.5t-89.5 257.5v611h-200v118h118q93 0 93 95v180h129v-275h337v-118h-340v-599q0 -116 59 -178.5t171 -62.5h129v-121h-152z" />
    <glyph glyph-name="Tbar" unicode="&#x166;" horiz-adv-x="1124" 
d="M1087 1300h-456v-569h239v-100h-239v-631h-137v631h-242v100h242v569h-457v123h1050v-123z" />
    <glyph glyph-name="tbar" unicode="&#x167;" horiz-adv-x="751" 
d="M604 121h129v-121h-151q-164 0 -253 93t-89 257v178h-172v101h172v332h-201v118h117q49 0 70.5 23.5t21.5 71.5v180h131v-275h338v-118h-342v-332h295v-101h-295v-166q0 -116 59.5 -178.5t169.5 -62.5z" />
    <glyph glyph-name="Utilde" unicode="&#x168;" horiz-adv-x="1372" 
d="M567 1702q-45 0 -73.5 -29.5t-36.5 -73.5l-101 41q16 70 68 123.5t135 53.5q43 0 80 -16.5t59 -37t53.5 -37t63.5 -16.5q47 0 75 27.5t38 72.5l100 -41q-17 -71 -68.5 -122.5t-136.5 -51.5q-44 0 -81.5 16.5t-59 37t-52.5 37t-63 16.5zM1073 1423h137v-903
q0 -112 -33 -209.5t-96 -172.5t-164 -118t-229 -43q-129 0 -231 43t-165.5 118t-96.5 172.5t-33 209.5v903h137v-901q0 -183 100.5 -299.5t288.5 -116.5q186 0 285.5 117t99.5 299v901z" />
    <glyph glyph-name="utilde" unicode="&#x169;" horiz-adv-x="1232" 
d="M471 1405q-43 0 -72 -29t-39 -73l-98 40q16 71 65 124t130 53q34 0 63.5 -11t51 -27t41.5 -31.5t44.5 -26.5t51.5 -11q45 0 73.5 28t38.5 72l99 -40q-16 -72 -64 -123.5t-131 -51.5q-35 0 -65.5 11t-52 27t-41.5 31.5t-44.5 26.5t-50.5 11zM942 1079h137v-1079h-129v176
q-53 -87 -151.5 -143t-223.5 -56q-203 0 -318.5 121t-115.5 318v663h135v-647q0 -152 89.5 -242.5t240.5 -89.5q143 0 238.5 88t97.5 201v690z" />
    <glyph glyph-name="Umacron" unicode="&#x16a;" horiz-adv-x="1372" 
d="M983 1772v-115h-594v115h594zM1073 1423h137v-903q0 -112 -33 -209.5t-96 -172.5t-164 -118t-229 -43q-129 0 -231 43t-165.5 118t-96.5 172.5t-33 209.5v903h137v-901q0 -183 100.5 -299.5t288.5 -116.5q186 0 285.5 117t99.5 299v901z" />
    <glyph glyph-name="umacron" unicode="&#x16b;" horiz-adv-x="1232" 
d="M877 1464v-112h-572v112h572zM942 1079h137v-1079h-129v176q-53 -87 -151.5 -143t-223.5 -56q-203 0 -318.5 121t-115.5 318v663h135v-647q0 -152 89.5 -242.5t240.5 -89.5q143 0 238.5 88t97.5 201v690z" />
    <glyph glyph-name="Uring" unicode="&#x16e;" horiz-adv-x="1372" 
d="M688 1483q-86 0 -142.5 54.5t-56.5 137.5q0 82 56.5 136.5t142.5 54.5q85 0 141 -54.5t56 -136.5q0 -83 -56 -137.5t-141 -54.5zM688 1782q-47 0 -78.5 -31t-31.5 -76q0 -46 31.5 -77t78.5 -31q46 0 77.5 31t31.5 77q0 44 -31.5 75.5t-77.5 31.5zM1073 1423h137v-903
q0 -112 -33 -209.5t-96 -172.5t-164 -118t-229 -43q-129 0 -231 43t-165.5 118t-96.5 172.5t-33 209.5v903h137v-901q0 -183 100.5 -299.5t288.5 -116.5q186 0 285.5 117t99.5 299v901z" />
    <glyph glyph-name="uring" unicode="&#x16f;" horiz-adv-x="1232" 
d="M592 1198q-86 0 -142.5 54t-56.5 137q0 82 56.5 136t142.5 54t142.5 -54t56.5 -136q0 -83 -56.5 -137t-142.5 -54zM592 1497q-47 0 -79 -31t-32 -77t32 -77.5t79 -31.5t78.5 31.5t31.5 77.5t-31.5 77t-78.5 31zM942 1079h137v-1079h-129v176q-53 -87 -151.5 -143
t-223.5 -56q-203 0 -318.5 121t-115.5 318v663h135v-647q0 -152 89.5 -242.5t240.5 -89.5q143 0 238.5 88t97.5 201v690z" />
    <glyph glyph-name="Uhungarumlaut" unicode="&#x170;" horiz-adv-x="1372" 
d="M696 1855l-235 -331l-86 61l225 340zM1077 1855l-235 -331l-86 61l225 340zM1073 1423h137v-903q0 -112 -33 -209.5t-96 -172.5t-164 -118t-229 -43q-129 0 -231 43t-165.5 118t-96.5 172.5t-33 209.5v903h137v-901q0 -183 100.5 -299.5t288.5 -116.5q186 0 285.5 117
t99.5 299v901z" />
    <glyph glyph-name="uhungarumlaut" unicode="&#x171;" horiz-adv-x="1232" 
d="M621 1536l-236 -301l-86 59l223 310zM987 1536l-235 -301l-86 59l223 310zM942 1079h137v-1079h-129v176q-53 -87 -151.5 -143t-223.5 -56q-203 0 -318.5 121t-115.5 318v663h135v-647q0 -152 89.5 -242.5t240.5 -89.5q143 0 238.5 88t97.5 201v690z" />
    <glyph glyph-name="Uogonek" unicode="&#x172;" horiz-adv-x="1372" 
d="M1073 1423h137v-903q0 -170 -73.5 -303t-214.5 -194l-66 -66q-65 -65 -91 -109.5t-26 -87.5q0 -47 28.5 -75.5t74.5 -28.5q65 0 100 43l55 -68q-59 -69 -174 -69q-86 0 -138 50.5t-52 129.5q0 59 33 116t104 124q-63 -5 -82 -5q-129 0 -231 43t-165.5 118t-96.5 172.5
t-33 209.5v903h137v-901q0 -183 100.5 -299.5t288.5 -116.5q186 0 285.5 117t99.5 299v901z" />
    <glyph glyph-name="uogonek" unicode="&#x173;" horiz-adv-x="1232" 
d="M1098 -326l55 -67q-60 -70 -176 -70q-85 0 -137 50.5t-52 129.5q0 65 38 126.5t124 136.5l25 20h-25v176q-53 -87 -151.5 -143t-223.5 -56q-203 0 -318.5 121t-115.5 318v663h135v-647q0 -152 89.5 -242.5t240.5 -89.5q143 0 238.5 88t97.5 201v690h137v-1079l-67 -68
q-66 -64 -91.5 -108t-25.5 -88q0 -47 28 -76t72 -29q66 0 103 43z" />
    <glyph glyph-name="Wcircumflex" unicode="&#x174;" horiz-adv-x="1765" 
d="M885 1757l-189 -178h-129l262 268h111l260 -268h-129zM1589 1423h135l-346 -1423h-151l-344 1235l-346 -1235h-152l-344 1423h133l291 -1247l344 1247h145l346 -1247z" />
    <glyph glyph-name="wcircumflex" unicode="&#x175;" horiz-adv-x="1564" 
d="M782 1475l-194 -220h-127l264 304h117l262 -304h-129zM1393 1079h143l-299 -1079h-160l-291 924l-288 -924h-162l-301 1079h141l246 -938l289 938h153l285 -934z" />
    <glyph glyph-name="Ycircumflex" unicode="&#x176;" horiz-adv-x="1234" 
d="M621 1757l-189 -178h-129l262 268h111l260 -268h-129zM1219 1423l-535 -837v-586h-135v590l-531 833h154l446 -721l447 721h154z" />
    <glyph glyph-name="ycircumflex" unicode="&#x177;" horiz-adv-x="1097" 
d="M549 1475l-193 -220h-129l267 304h114l262 -304h-127zM936 1079h141l-606 -1446h-135l158 367h-31l-440 1079h141l381 -958z" />
    <glyph glyph-name="Ydieresis" unicode="&#x178;" horiz-adv-x="1234" 
d="M422 1599q-47 0 -81 32.5t-34 82.5q0 47 34.5 79t82.5 32q46 0 79.5 -33t33.5 -80q0 -48 -34 -80.5t-81 -32.5zM815 1599q-47 0 -81 32.5t-34 82.5q0 47 34.5 79t80.5 32q47 0 81 -33t34 -80q0 -49 -33.5 -81t-81.5 -32zM1219 1423l-535 -837v-586h-135v590l-531 833h154
l446 -721l447 721h154z" />
    <glyph glyph-name="Zacute" unicode="&#x179;" horiz-adv-x="1105" 
d="M834 1747l-490 -178l-33 100l486 191zM1055 123l2 -123h-1006v96l819 1207h-798v120h970v-98l-823 -1202h836z" />
    <glyph glyph-name="zacute" unicode="&#x17a;" horiz-adv-x="940" 
d="M715 1475l-416 -242l-55 88l407 256zM219 113h676v-113h-846v102l658 865h-627v112h790v-104z" />
    <glyph glyph-name="Zdotaccent" unicode="&#x17b;" horiz-adv-x="1105" 
d="M551 1599q-47 0 -80 32.5t-33 82.5q0 47 33.5 79t81.5 32q47 0 80 -33t33 -80q0 -49 -32.5 -81t-82.5 -32zM1055 123l2 -123h-1006v96l819 1207h-798v120h970v-98l-823 -1202h836z" />
    <glyph glyph-name="zdotaccent" unicode="&#x17c;" horiz-adv-x="940" 
d="M471 1288q-53 0 -87 33t-34 84q0 53 34 87t87 34q51 0 85 -34.5t34 -86.5q0 -51 -34 -84t-85 -33zM219 113h676v-113h-846v102l658 865h-627v112h790v-104z" />
    <glyph glyph-name="Zcaron" unicode="&#x17d;" horiz-adv-x="1105" 
d="M608 1579h-110l-262 268h129l188 -178l186 178h129zM1055 123l2 -123h-1006v96l819 1207h-798v120h970v-98l-823 -1202h836z" />
    <glyph glyph-name="zcaron" unicode="&#x17e;" horiz-adv-x="940" 
d="M530 1253h-116l-264 303h126l193 -217l195 217h127zM219 113h676v-113h-846v102l658 865h-627v112h790v-104z" />
    <glyph glyph-name="uni01EA" unicode="&#x1ea;" horiz-adv-x="1611" 
d="M1016 6l-64 -63q-65 -65 -90.5 -109t-25.5 -88q0 -46 28 -75t72 -29q65 0 102 43l56 -66q-59 -72 -174 -72q-86 0 -138.5 52t-52.5 131q0 61 36.5 121t115.5 131q-63 -5 -74 -5q-151 0 -283 55t-226.5 151.5t-149 233.5t-54.5 294q0 211 92.5 379t255.5 262t365 94
q199 0 361 -93.5t255 -262.5t93 -379q0 -257 -137.5 -447.5t-362.5 -257.5zM233 711q0 -175 74 -313t205 -215t295 -77q162 0 292 77t203.5 215.5t73.5 312.5q0 266 -160.5 436t-408.5 170q-251 0 -412.5 -170t-161.5 -436z" />
    <glyph glyph-name="uni01EB" unicode="&#x1eb;" horiz-adv-x="1277" 
d="M750 -63q-66 -64 -91.5 -108.5t-25.5 -88.5q0 -47 28 -76t72 -29q66 0 103 43l55 -67q-60 -70 -176 -70q-85 0 -137 50.5t-52 129.5q0 63 36.5 124.5t119.5 134.5q-21 -3 -43 -3q-159 0 -286.5 73t-198 201.5t-70.5 287.5q0 244 156.5 403.5t398.5 159.5t398.5 -159.5
t156.5 -403.5q0 -192 -103 -337t-274 -198zM221 539q0 -191 117.5 -315t302.5 -124q184 0 300 124t116 315q0 194 -116 317t-300 123q-186 0 -303 -123t-117 -317z" />
    <glyph glyph-name="AEacute" unicode="&#x1fc;" horiz-adv-x="1880" 
d="M1520 1747l-490 -178l-33 100l488 191zM1057 121h743v-121h-880v434h-549l-250 -434h-146l807 1423h1006v-120h-731v-502h663v-121h-663v-559zM436 551h484v752h-52z" />
    <glyph glyph-name="aeacute" unicode="&#x1fd;" horiz-adv-x="2185" 
d="M1352 1477l-416 -242l-57 88l409 256zM1186 502q12 -183 125.5 -297.5t281.5 -114.5q293 0 383 240l113 -47q-55 -143 -175 -224.5t-300 -81.5q-158 0 -272.5 71.5t-174.5 197.5v-246h-127v233q-63 -120 -173 -188t-253 -68q-228 0 -378 160.5t-150 403.5
q0 157 68.5 285.5t189.5 202t270 73.5q142 0 252.5 -67.5t173.5 -186.5v231h127v-254q62 128 175.5 202.5t261.5 74.5t263 -72.5t175.5 -194.5t60.5 -272q0 -47 -2 -61h-915zM1186 590h794q-8 181 -114.5 294t-274.5 113q-167 0 -279 -113.5t-126 -293.5zM629 98
q180 0 293.5 124t113.5 319q0 194 -113 317t-294 123q-175 0 -291.5 -126t-116.5 -314q0 -191 115.5 -317t292.5 -126z" />
    <glyph glyph-name="Oslashacute" unicode="&#x1fe;" horiz-adv-x="1617" 
d="M1092 1747l-490 -178l-33 100l486 191zM1341 1210q179 -201 179 -499q0 -157 -54.5 -294t-148.5 -233.5t-226 -151.5t-282 -55q-258 0 -451 156l-143 -158l-82 80l143 156q-178 203 -178 500q0 158 54.5 295t148.5 233.5t226 151.5t282 55q258 0 451 -156l143 156l82 -78
zM238 711q0 -238 131 -400l802 881q-150 125 -362 125q-250 0 -410.5 -170t-160.5 -436zM809 106q248 0 409.5 170t161.5 435q0 237 -129 401l-802 -881q150 -125 360 -125z" />
    <glyph glyph-name="oslashacute" unicode="&#x1ff;" horiz-adv-x="1312" 
d="M903 1475l-416 -242l-55 88l408 256zM1247 991l-135 -119q98 -143 98 -333q0 -159 -70.5 -287.5t-198 -201.5t-286.5 -73q-234 0 -387 150l-133 -117l-67 78l133 117q-101 147 -101 334q0 244 156.5 403.5t398.5 159.5q234 0 392 -152l133 117zM238 539q0 -140 63 -244
l647 569q-115 115 -291 115q-186 0 -302.5 -123t-116.5 -317zM1073 539q0 137 -61 243l-647 -569q116 -113 292 -113q184 0 300 124t116 315z" />
    <glyph glyph-name="uni0218" unicode="&#x218;" horiz-adv-x="1110" 
d="M266 1102q0 -62 26 -110t69.5 -80t100 -58t119 -49.5t125 -48t119 -59.5t100 -79t69.5 -111t26 -151q0 -170 -128.5 -273t-342.5 -103q-187 0 -314.5 87t-171.5 244l132 49q31 -124 125 -192t237 -68q148 0 236 68.5t88 183.5q0 65 -25.5 116t-69 85.5t-100 62t-119 51
t-125 47.5t-119 57t-100 73.5t-69 102.5t-25.5 140q0 159 117 258t315 99q171 0 282.5 -76t153.5 -213l-131 -49q-33 112 -110 164.5t-201 52.5q-136 0 -212.5 -61t-76.5 -160zM594 -100q41 0 68.5 -28.5t27.5 -72.5q0 -55 -49 -137l-80 -139l-69 24l77 144l6 14
q-34 5 -57.5 32.5t-23.5 65.5q0 41 28.5 69t71.5 28z" />
    <glyph glyph-name="uni0219" unicode="&#x219;" horiz-adv-x="964" 
d="M244 823q0 -57 36 -97t93 -63.5t126 -43t138.5 -43.5t126.5 -57t93 -91.5t36 -138.5q0 -147 -110 -229.5t-296 -82.5q-166 0 -278 66.5t-152 187.5l117 45q28 -92 110 -142t208 -50q123 0 195.5 51.5t72.5 143.5q0 60 -36 103t-93 68.5t-126 46.5t-138.5 45t-126.5 55.5
t-93 87t-36 130.5q0 132 101.5 209.5t268.5 77.5q142 0 237 -56t132 -161l-115 -45q-61 157 -254 157q-113 0 -175 -46t-62 -128zM512 -100q42 0 70 -28.5t28 -72.5q0 -57 -51 -137l-78 -139l-69 24l75 144l7 14q-34 6 -57 33t-23 65q0 41 28.5 69t69.5 28z" />
    <glyph glyph-name="uni021A" unicode="&#x21a;" horiz-adv-x="1103" 
d="M1077 1423v-123h-456v-1300h-138v1300h-456v123h1050zM555 -100q41 0 68.5 -28.5t27.5 -72.5q0 -55 -49 -137l-80 -139l-69 24l77 144l7 14q-34 5 -58 32.5t-24 65.5q0 41 28.5 69t71.5 28z" />
    <glyph glyph-name="uni021B" unicode="&#x21b;" horiz-adv-x="733" 
d="M592 121h129v-121h-152q-165 0 -254.5 92.5t-89.5 257.5v611h-200v118h118q93 0 93 95v180h129v-275h337v-118h-340v-599q0 -116 59 -178.5t171 -62.5zM492 -84q42 0 69 -28t27 -72q0 -59 -49 -138l-78 -141l-72 27l78 141l6 16q-36 6 -59 33t-23 66q0 41 29 68.5
t72 27.5z" />
    <glyph glyph-name="uni0237" unicode="&#x237;" horiz-adv-x="448" 
d="M-102 -371v119h22q107 0 172.5 71t65.5 185v1075h135v-1073q0 -171 -100.5 -274t-262.5 -103h-32z" />
    <glyph glyph-name="circumflex" unicode="&#x2c6;" horiz-adv-x="665" 
d="M705 1255h-127l-195 220l-195 -220h-127l265 304h116z" />
    <glyph glyph-name="caron" unicode="&#x2c7;" horiz-adv-x="714" 
d="M578 1559h127l-263 -304h-116l-265 304h127l195 -218z" />
    <glyph glyph-name="breve" unicode="&#x2d8;" horiz-adv-x="638" 
d="M356 1255q-133 0 -214 85t-81 219h111q0 -90 51 -143.5t133 -53.5q81 0 132 53.5t51 143.5h110q0 -134 -81 -219t-212 -85z" />
    <glyph glyph-name="dotaccent" unicode="&#x2d9;" horiz-adv-x="270" 
d="M182 1290q-51 0 -86 33t-35 84q0 52 35 86.5t86 34.5t85 -34.5t34 -86.5q0 -51 -34 -84t-85 -33z" />
    <glyph glyph-name="ring" unicode="&#x2da;" horiz-adv-x="423" 
d="M260 1198q-86 0 -142.5 54t-56.5 137q0 82 56.5 136t142.5 54t142.5 -54t56.5 -136q0 -83 -56.5 -137t-142.5 -54zM260 1280q47 0 79 31.5t32 77.5t-32 77t-79 31t-78.5 -31t-31.5 -77t31.5 -77.5t78.5 -31.5z" />
    <glyph glyph-name="ogonek" unicode="&#x2db;" horiz-adv-x="487" 
d="M252 -461q-87 0 -139 50.5t-52 129.5q0 64 38.5 125.5t123.5 137.5l76 63l53 -43l-67 -68q-65 -65 -91 -109t-26 -87q0 -47 28 -76t74 -29q66 0 101 43l55 -67q-60 -70 -174 -70z" />
    <glyph glyph-name="tilde" unicode="&#x2dc;" horiz-adv-x="800" 
d="M524 1298q-35 0 -65.5 11t-52 27t-41.5 31.5t-43.5 26.5t-49.5 11q-45 0 -73.5 -29t-38.5 -73l-99 40q16 71 65 124t130 53q34 0 63.5 -11t51 -27t41.5 -31.5t44.5 -26.5t51.5 -11q45 0 74 28t39 72l98 -40q-16 -72 -64 -123.5t-131 -51.5z" />
    <glyph glyph-name="hungarumlaut" unicode="&#x2dd;" horiz-adv-x="634" 
d="M129 1235l-86 59l223 310l99 -68zM496 1235l-86 59l223 310l98 -68z" />
    <glyph glyph-name="gravecomb" unicode="&#x300;" 
d="M-117 1235l-415 242l63 102l408 -256z" />
    <glyph glyph-name="acutecomb" unicode="&#x301;" 
d="M-477 1235l-55 88l407 256l64 -102z" />
    <glyph glyph-name="uni0302" unicode="&#x302;" 
d="M-61 1255h-127l-195 220l-195 -220h-127l265 304h116z" />
    <glyph glyph-name="tildecomb" unicode="&#x303;" 
d="M-256 1298q-35 0 -65.5 11t-52 27t-41.5 31.5t-43.5 26.5t-49.5 11q-45 0 -74 -29t-39 -73l-98 40q16 71 65 124t130 53q34 0 63.5 -11t51 -27t41.5 -31.5t44.5 -26.5t51.5 -11q45 0 73.5 28t38.5 72l99 -40q-16 -72 -64 -123.5t-131 -51.5z" />
    <glyph glyph-name="uni0304" unicode="&#x304;" 
d="M-635 1352v112h574v-112h-574z" />
    <glyph glyph-name="uni0306" unicode="&#x306;" 
d="M-342 1255q-133 0 -214 85t-81 219h111q0 -90 51 -143.5t133 -53.5q81 0 131.5 53.5t50.5 143.5h111q0 -134 -81 -219t-212 -85z" />
    <glyph glyph-name="uni0307" unicode="&#x307;" 
d="M-180 1290q-51 0 -86 33t-35 84q0 52 35 86.5t86 34.5t85 -34.5t34 -86.5q0 -51 -34 -84t-85 -33z" />
    <glyph glyph-name="uni0308" unicode="&#x308;" 
d="M-559 1294q-47 0 -81 33t-34 82q0 47 34.5 80t82.5 33q46 0 79.5 -34t33.5 -81t-34 -80t-81 -33zM-178 1294q-45 0 -79 33.5t-34 81.5q0 47 34.5 80t80.5 33q47 0 81 -34t34 -81t-34.5 -80t-82.5 -33z" />
    <glyph glyph-name="uni030A" unicode="&#x30a;" 
d="M-260 1198q-86 0 -142.5 54t-56.5 137q0 82 56.5 136t142.5 54t142.5 -54t56.5 -136q0 -83 -56.5 -137t-142.5 -54zM-260 1280q47 0 78.5 31.5t31.5 77.5t-31.5 77t-78.5 31t-79 -31t-32 -77t32 -77.5t79 -31.5z" />
    <glyph glyph-name="uni030B" unicode="&#x30b;" 
d="M-664 1235l-86 59l224 310l98 -68zM-297 1235l-86 59l223 310l99 -68z" />
    <glyph glyph-name="uni030C" unicode="&#x30c;" 
d="M-188 1559h127l-263 -304h-116l-265 304h127l195 -218z" />
    <glyph glyph-name="uni0326" unicode="&#x326;" 
d="M-158 -100q42 0 69.5 -28.5t27.5 -72.5q0 -54 -50 -137l-79 -139l-70 24l78 144l6 14q-34 5 -58 32.5t-24 65.5q0 41 28.5 69t71.5 28z" />
    <glyph glyph-name="uni0327" unicode="&#x327;" 
d="M-287 -492q-136 0 -215 95l53 61q60 -72 148 -72q62 0 99.5 34t37.5 85q0 53 -39.5 89t-101.5 36h-35l-12 14l73 168h91l-60 -133q83 -1 135 -53.5t52 -128.5q0 -84 -62 -139.5t-164 -55.5z" />
    <glyph glyph-name="uni0328" unicode="&#x328;" 
d="M-236 -461q-86 0 -138 50.5t-52 129.5q0 64 38.5 125.5t123.5 137.5l76 63l53 -43l-68 -68q-65 -65 -90.5 -109t-25.5 -87q0 -47 28 -76t74 -29q65 0 100 43l56 -67q-60 -70 -175 -70z" />
    <glyph glyph-name="uni0335" unicode="&#x335;" 
d="M-680 502v98h619v-98h-619z" />
    <glyph glyph-name="uni0336" unicode="&#x336;" 
d="M-1376 575v111h1315v-111h-1315z" />
    <glyph glyph-name="uni0337" unicode="&#x337;" 
d="M-612 358l-54 88l529 302l51 -86z" />
    <glyph glyph-name="uni0338" unicode="&#x338;" 
d="M-1174 -6l-67 78l1114 979l66 -76z" />
    <glyph glyph-name="Wgrave" unicode="&#x1e80;" horiz-adv-x="1765" 
d="M1145 1669l-33 -100l-489 178l36 113zM1589 1423h135l-346 -1423h-151l-344 1235l-346 -1235h-152l-344 1423h133l291 -1247l344 1247h145l346 -1247z" />
    <glyph glyph-name="wgrave" unicode="&#x1e81;" horiz-adv-x="1564" 
d="M995 1323l-57 -88l-416 242l64 102zM1393 1079h143l-299 -1079h-160l-291 924l-288 -924h-162l-301 1079h141l246 -938l289 938h153l285 -934z" />
    <glyph glyph-name="Wacute" unicode="&#x1e82;" horiz-adv-x="1765" 
d="M1165 1747l-489 -178l-33 100l485 191zM1589 1423h135l-346 -1423h-151l-344 1235l-346 -1235h-152l-344 1423h133l291 -1247l344 1247h145l346 -1247z" />
    <glyph glyph-name="wacute" unicode="&#x1e83;" horiz-adv-x="1564" 
d="M1026 1477l-414 -242l-57 88l410 256zM1393 1079h143l-299 -1079h-160l-291 924l-288 -924h-162l-301 1079h141l246 -938l289 938h153l285 -934z" />
    <glyph glyph-name="Wdieresis" unicode="&#x1e84;" horiz-adv-x="1765" 
d="M686 1599q-47 0 -81 32.5t-34 82.5q0 47 34.5 79t82.5 32q46 0 79.5 -33t33.5 -80q0 -48 -34 -80.5t-81 -32.5zM1079 1599q-47 0 -80.5 32.5t-33.5 82.5q0 47 34 79t80 32q47 0 81 -33t34 -80q0 -49 -33.5 -81t-81.5 -32zM1589 1423h135l-346 -1423h-151l-344 1235
l-346 -1235h-152l-344 1423h133l291 -1247l344 1247h145l346 -1247z" />
    <glyph glyph-name="wdieresis" unicode="&#x1e85;" horiz-adv-x="1564" 
d="M590 1294q-47 0 -81 33t-34 82q0 47 34.5 80t82.5 33q46 0 79.5 -34t33.5 -81t-34.5 -80t-80.5 -33zM971 1294q-47 0 -81 33t-34 82q0 47 34.5 80t82.5 33q46 0 80 -34t34 -81t-34 -80t-82 -33zM1393 1079h143l-299 -1079h-160l-291 924l-288 -924h-162l-301 1079h141
l246 -938l289 938h153l285 -934z" />
    <glyph glyph-name="uni1E9E" unicode="&#x1e9e;" horiz-adv-x="1302" 
d="M836 772q171 -17 272.5 -122.5t101.5 -270.5q0 -180 -115.5 -288.5t-301.5 -108.5q-138 0 -233 63t-134 178l59 90q31 -103 108.5 -160t186.5 -57q131 0 212 80.5t81 212.5q0 135 -89 215t-243 80h-59v78l332 379q-97 182 -344 182q-169 0 -270 -98t-101 -267v-958h-137
v954q0 226 139.5 358t366.5 132q366 0 489 -305z" />
    <glyph glyph-name="Ygrave" unicode="&#x1ef2;" horiz-adv-x="1234" 
d="M881 1669l-33 -100l-490 178l37 113zM1219 1423l-535 -837v-586h-135v590l-531 833h154l446 -721l447 721h154z" />
    <glyph glyph-name="ygrave" unicode="&#x1ef3;" horiz-adv-x="1097" 
d="M762 1323l-55 -88l-416 242l63 102zM936 1079h141l-606 -1446h-135l158 367h-31l-440 1079h141l381 -958z" />
    <glyph glyph-name="uni1EF8" unicode="&#x1ef8;" horiz-adv-x="1234" 
d="M500 1702q-45 0 -74 -29.5t-37 -73.5l-100 41q16 70 68.5 123.5t136.5 53.5q42 0 78.5 -16.5t58.5 -37t53.5 -37t63.5 -16.5q47 0 75.5 28t36.5 72l101 -41q-17 -71 -68.5 -122.5t-136.5 -51.5q-44 0 -81.5 16.5t-59 37t-52.5 37t-63 16.5zM1219 1423l-535 -837v-586
h-135v590l-531 833h154l446 -721l447 721h154z" />
    <glyph glyph-name="uni1EF9" unicode="&#x1ef9;" horiz-adv-x="1097" 
d="M430 1405q-45 0 -74 -29t-39 -73l-98 40q16 71 65 124t130 53q34 0 63.5 -11t51 -27t41.5 -31.5t44.5 -26.5t51.5 -11q45 0 74.5 28t37.5 72l101 -40q-18 -73 -66 -124t-131 -51q-35 0 -65.5 11t-52 27t-41.5 31.5t-43.5 26.5t-49.5 11zM936 1079h141l-606 -1446h-135
l158 367h-31l-440 1079h141l381 -958z" />
    <glyph glyph-name="endash" unicode="&#x2013;" horiz-adv-x="1069" 
d="M129 461v114h811v-114h-811z" />
    <glyph glyph-name="emdash" unicode="&#x2014;" horiz-adv-x="1619" 
d="M129 459v112h1362v-112h-1362z" />
    <glyph glyph-name="quoteleft" unicode="&#x2018;" horiz-adv-x="387" 
d="M201 1264q39 -3 64.5 -30t25.5 -69q0 -45 -30 -74.5t-73 -29.5t-72.5 29.5t-29.5 76.5q0 46 35 117l86 180h88z" />
    <glyph glyph-name="quoteright" unicode="&#x2019;" horiz-adv-x="382" 
d="M207 1470q43 0 72.5 -30.5t29.5 -75.5q0 -50 -33 -117l-86 -180h-88l95 201q-41 3 -67 29.5t-26 68.5q0 44 30 74t73 30z" />
    <glyph glyph-name="quotesinglbase" unicode="&#x201a;" horiz-adv-x="389" 
d="M197 182q43 0 72.5 -29.5t29.5 -76.5q0 -46 -35 -117l-86 -180h-88l94 201q-39 3 -64.5 29.5t-25.5 68.5q0 45 30 74.5t73 29.5z" />
    <glyph glyph-name="quotedblleft" unicode="&#x201c;" horiz-adv-x="667" 
d="M207 1464h88l-94 -200q39 -3 64.5 -30t25.5 -69q0 -45 -30 -74.5t-73 -29.5t-72.5 29.5t-29.5 76.5q0 46 35 117zM481 1264q39 -3 64.5 -30t25.5 -69q0 -46 -29 -75t-73 -29q-43 0 -71.5 29.5t-28.5 76.5q0 52 32 117l86 180h88z" />
    <glyph glyph-name="quotedblright" unicode="&#x201d;" horiz-adv-x="663" 
d="M207 1470q43 0 72.5 -30.5t29.5 -75.5q0 -50 -33 -117l-86 -180h-88l95 201q-41 3 -67 29.5t-26 68.5q0 44 30 74t73 30zM487 1470q44 0 73.5 -30t29.5 -76q0 -50 -33 -117l-86 -180h-88l94 201q-39 3 -64.5 29.5t-25.5 68.5q0 44 28.5 74t71.5 30z" />
    <glyph glyph-name="quotedblbase" unicode="&#x201e;" horiz-adv-x="669" 
d="M197 182q43 0 72.5 -29.5t29.5 -76.5q0 -46 -35 -117l-86 -180h-88l94 201q-39 3 -64.5 29.5t-25.5 68.5q0 45 30 74.5t73 29.5zM477 182q43 0 73 -30t30 -76t-35 -117l-84 -180h-90l94 201q-39 3 -64.5 29.5t-25.5 68.5q0 45 29.5 74.5t72.5 29.5z" />
    <glyph glyph-name="dagger" unicode="&#x2020;" horiz-adv-x="675" 
d="M584 1286v-100h-191v-549h-110v549h-191v100h191v211h110v-211h191z" />
    <glyph glyph-name="daggerdbl" unicode="&#x2021;" horiz-adv-x="714" 
d="M602 1212h-190v-290h190v-101h-190v-184h-111v184h-188v101h188v290h-188v101h188v184h111v-184h190v-101z" />
    <glyph glyph-name="bullet" unicode="&#x2022;" horiz-adv-x="706" 
d="M354 508q-79 0 -134.5 55t-55.5 133q0 82 55 137.5t135 55.5t134.5 -55.5t54.5 -137.5q0 -78 -55 -133t-134 -55z" />
    <glyph glyph-name="ellipsis" unicode="&#x2026;" horiz-adv-x="1132" 
d="M203 -18q-43 0 -73 29t-30 71q0 45 30 74.5t73 29.5q45 0 74.5 -29.5t29.5 -74.5q0 -43 -30 -71.5t-74 -28.5zM567 -18q-44 0 -73 28.5t-29 71.5q0 46 29 75t73 29q43 0 73 -29.5t30 -74.5q0 -42 -30 -71t-73 -29zM930 -18q-44 0 -73.5 28.5t-29.5 71.5q0 46 29.5 75
t73.5 29q43 0 72.5 -29.5t29.5 -74.5q0 -43 -29.5 -71.5t-72.5 -28.5z" />
    <glyph glyph-name="perthousand" unicode="&#x2030;" horiz-adv-x="2172" 
d="M377 786q-137 0 -227.5 93.5t-90.5 230.5t90.5 231.5t227.5 94.5q136 0 225.5 -94.5t89.5 -231.5q0 -138 -89 -231t-226 -93zM272 0l832 1423h113l-832 -1423h-113zM377 879q94 0 157.5 66.5t63.5 166.5q0 96 -64 165t-157 69q-95 0 -159 -68.5t-64 -165.5
q0 -100 64 -166.5t159 -66.5zM1116 -12q-136 0 -225.5 93t-89.5 230q0 136 90 231t225 95q136 0 226 -94.5t90 -231.5q0 -138 -89.5 -230.5t-226.5 -92.5zM1802 -12q-137 0 -227 93t-90 230t90.5 231.5t226.5 94.5t226 -94.5t90 -231.5q0 -138 -89.5 -230.5t-226.5 -92.5z
M1116 78q94 0 157.5 67t63.5 168q0 95 -64 163.5t-157 68.5q-94 0 -157.5 -68.5t-63.5 -163.5q0 -101 63 -168t158 -67zM1802 78q94 0 156.5 67t62.5 168q0 95 -63 163.5t-156 68.5q-95 0 -159 -68.5t-64 -163.5q0 -101 64 -168t159 -67z" />
    <glyph glyph-name="guilsinglleft" unicode="&#x2039;" horiz-adv-x="557" 
d="M303 174l-221 340l221 340h133l-221 -340l221 -340h-133z" />
    <glyph glyph-name="guilsinglright" unicode="&#x203a;" horiz-adv-x="557" 
d="M119 174l223 340l-223 340h133l223 -340l-223 -340h-133z" />
    <glyph glyph-name="fraction" unicode="&#x2044;" horiz-adv-x="849" 
d="M-20 0l790 1423h111l-791 -1423h-110z" />
    <glyph glyph-name="uni2074" unicode="&#x2074;" horiz-adv-x="667" 
d="M586 950v-71h-86v-168h-94v168h-351v67l351 477h94v-473h86zM406 950v359l-263 -359h263z" />
    <glyph glyph-name="Euro" unicode="&#x20ac;" horiz-adv-x="1525" 
d="M1331 311l117 -82q-82 -118 -213.5 -185t-310.5 -67q-247 0 -429 138.5t-241 367.5h-195l11 95h168q-7 58 -7 98q0 42 7 100h-140l13 94h145q59 229 239.5 367.5t422.5 138.5q341 0 526 -250l-117 -82q-135 201 -414 201q-184 0 -322 -101.5t-192 -273.5h559l-10 -94
h-569q-8 -44 -8 -100q0 -52 6 -98h541l-11 -95h-508q54 -172 195 -274.5t328 -102.5q273 0 409 205z" />
    <glyph glyph-name="trademark" unicode="&#x2122;" horiz-adv-x="1290" 
d="M494 1395v-74h-177v-496h-81v496h-177v74h435zM1157 825h-78l-30 447l-154 -426h-72l-153 426l-31 -447h-76l37 570h78v-2l18 2l164 -455l162 455l18 -2v2h76z" />
    <glyph glyph-name="minus" unicode="&#x2212;" horiz-adv-x="1126" 
d="M137 569v121h852v-121h-852z" />
    <glyph glyph-name="approxequal" unicode="&#x2248;" horiz-adv-x="1087" 
d="M731 696q-54 0 -105 17.5t-83.5 39t-78.5 39t-91 17.5q-55 0 -102 -21t-68 -57l-72 74q33 57 92.5 90t134.5 33q55 0 106 -17.5t84 -39t78.5 -39t90.5 -17.5q55 0 102 21t68 57l71 -74q-31 -56 -91.5 -89.5t-135.5 -33.5zM731 260q-55 0 -106 17.5t-84 39t-79 39
t-91 17.5q-54 0 -101 -21.5t-67 -58.5l-74 74q33 58 92 90t135 32q55 0 106.5 -17.5t84.5 -38.5t79 -38.5t91 -17.5q54 0 100.5 21.5t67.5 58.5l71 -74q-31 -58 -90 -90.5t-135 -32.5z" />
    <glyph glyph-name="notequal" unicode="&#x2260;" horiz-adv-x="1128" 
d="M989 778h-311l-115 -360h426v-121h-463l-86 -270h-129l86 270h-258v121h297l115 360h-412v121h451l84 266h127l-84 -266h272v-121z" />
    <glyph glyph-name="uniF8FF" unicode="&#xf8ff;" horiz-adv-x="4724" 
d="M1149 408q-95 0 -136.5 40t-41.5 130v466h203q0 -62 -40 -122t-98 -86l2 -9q58 35 119 35h105v-162h-86v-98q0 -35 36 -35q28 0 50 15v-154q-36 -20 -113 -20zM1303 418v626h200q0 -67 -47 -122t-115 -70l5 -6q84 16 143 16h16v-444h-202zM2808 408q-95 0 -137.5 40.5
t-42.5 129.5v466h202q0 -62 -39 -122t-98 -86l4 -9q58 35 119 35h102v-162h-86v-98q0 -35 37 -35q27 0 49 15v-154q-36 -20 -110 -20zM205 418v624h203v-624h-203zM584 408q-66 0 -105 34t-39 90q0 60 41 98t111 38q92 0 135 -43h4v71q0 24 -12 38t-35 14q-47 0 -47 -60
l-184 29q37 160 249 160q110 0 172 -50t62 -135v-274h-201v45h-6q-14 -20 -51.5 -37.5t-93.5 -17.5zM1548 418v444h199v-133h6q17 143 145 143q70 0 110 -46t40 -134v-274h-205v264q0 55 -39 55q-22 0 -32 -13t-21 -52v-254h-203zM2337 408q-123 0 -190.5 63.5t-67.5 167.5
t69 168.5t189 64.5q122 0 190 -64.5t68 -168.5q0 -103 -67.5 -167t-190.5 -64zM3463 270v592h203v-133h6q21 143 150 143q170 0 170 -233q0 -115 -51.5 -173t-125.5 -58q-105 0 -141 88h-6v-226h-205zM4274 408q-120 0 -187 63.5t-67 167.5q0 103 70 168t190 65
q107 0 173.5 -64.5t66.5 -158.5v-18h-307q0 -39 18.5 -66.5t50.5 -27.5q55 0 62 69l168 -16q-18 -95 -83 -138.5t-155 -43.5zM3015 262v135h133q115 0 137 25l-2 6h-139q-83 0 -107 80l-110 354h204q6 -37 20 -110t24 -134t14 -110h4q13 125 61 354h203l-145 -424
q-63 -176 -217 -176h-80zM4213 655h12q62 0 87.5 12t25.5 38q0 45 -49 45q-34 0 -55 -26t-21 -69zM3738 506q31 0 46 27.5t15 89.5q0 66 -12 95.5t-43 29.5q-46 0 -62 -68v-148q21 -26 56 -26zM2337 535q59 0 59 104q0 106 -59 106q-58 0 -58 -106q0 -104 58 -104zM686 469
q30 0 45 23v104q-10 16 -39 16q-25 0 -40 -19t-15 -52q0 -72 49 -72z" />
    <glyph glyph-name="uni00A40301" horiz-adv-x="667" 
d="M225 1569l-32 100l485 191l37 -113zM33 0v121h98q108 0 171 68.5t63 191.5v1042h137v-1042q0 -179 -97 -280t-266 -101h-106z" />
    <glyph glyph-name="Q.ss01" horiz-adv-x="1611" 
d="M1176 123h364v-123h-733q-206 0 -369 92t-253.5 256t-90.5 371q0 155 54.5 290.5t149 231t226.5 150.5t283 55q149 0 280 -54.5t224.5 -149.5t147.5 -228.5t54 -286.5q0 -202 -88.5 -359.5t-248.5 -244.5zM805 123q247 0 408 168t161 428q0 172 -73 308.5t-203 213
t-293 76.5q-249 0 -410.5 -168.5t-161.5 -429.5q0 -260 162 -428t410 -168z" />
    <glyph glyph-name="i.loclTRK" horiz-adv-x="446" 
d="M223 1290q-51 0 -86 33t-35 84t35 85t86 34t86 -34t35 -85t-35 -84t-86 -33zM156 0v1079h135v-1079h-135z" />
    <glyph glyph-name="uni006A0301" horiz-adv-x="448" 
d="M57 1233l-57 88l410 256l61 -100zM-102 -371v119h22q107 0 172.5 71t65.5 185v1075h135v-1073q0 -171 -100.5 -274t-262.5 -103h-32z" />
    <glyph glyph-name="g.ss01" horiz-adv-x="1126" 
d="M1094 1079v-118h-232q109 -118 109 -293q0 -125 -56 -224t-155 -153q127 -40 194.5 -122.5t67.5 -199.5q0 -162 -130 -260t-357 -98q-402 0 -512 303l122 47q42 -115 134 -175t253 -60q171 0 262 67.5t91 186.5q0 117 -95.5 184t-265.5 67q-198 0 -326 123t-128 314
q0 188 128 311t326 123q75 0 152 -23h418zM524 346q141 0 231.5 90.5t90.5 231.5q0 140 -90.5 229.5t-231.5 89.5q-142 0 -232.5 -89.5t-90.5 -229.5q0 -141 91 -231.5t232 -90.5z" />
    <glyph glyph-name="gbreve.ss01" horiz-adv-x="1126" 
d="M541 1255q-133 0 -214 85t-81 219h110q0 -90 51 -143.5t134 -53.5q82 0 132 53.5t50 143.5h111q0 -134 -81 -219t-212 -85zM1094 1079v-118h-232q109 -118 109 -293q0 -125 -56 -224t-155 -153q127 -40 194.5 -122.5t67.5 -199.5q0 -162 -130 -260t-357 -98
q-402 0 -512 303l122 47q42 -115 134 -175t253 -60q171 0 262 67.5t91 186.5q0 117 -95.5 184t-265.5 67q-198 0 -326 123t-128 314q0 188 128 311t326 123q75 0 152 -23h418zM524 346q141 0 231.5 90.5t90.5 231.5q0 140 -90.5 229.5t-231.5 89.5q-142 0 -232.5 -89.5
t-90.5 -229.5q0 -141 91 -231.5t232 -90.5z" />
    <glyph glyph-name="uni0123.ss01" horiz-adv-x="1126" 
d="M545 1235q-42 0 -70.5 27.5t-28.5 70.5q0 58 52 137l77 142l70 -27l-76 -141q-5 -7 -8 -17q36 -5 59 -32t23 -66q0 -41 -28 -67.5t-70 -26.5zM1094 1079v-118h-232q109 -118 109 -293q0 -125 -56 -224t-155 -153q127 -40 194.5 -122.5t67.5 -199.5q0 -162 -130 -260
t-357 -98q-402 0 -512 303l122 47q42 -115 134 -175t253 -60q171 0 262 67.5t91 186.5q0 117 -95.5 184t-265.5 67q-198 0 -326 123t-128 314q0 188 128 311t326 123q75 0 152 -23h418zM524 346q141 0 231.5 90.5t90.5 231.5q0 140 -90.5 229.5t-231.5 89.5
q-142 0 -232.5 -89.5t-90.5 -229.5q0 -141 91 -231.5t232 -90.5z" />
    <glyph glyph-name="gdotaccent.ss01" horiz-adv-x="1126" 
d="M541 1290q-53 0 -87 33t-34 84q0 53 34 87t87 34q51 0 84.5 -34.5t33.5 -86.5q0 -51 -33.5 -84t-84.5 -33zM1094 1079v-118h-232q109 -118 109 -293q0 -125 -56 -224t-155 -153q127 -40 194.5 -122.5t67.5 -199.5q0 -162 -130 -260t-357 -98q-402 0 -512 303l122 47
q42 -115 134 -175t253 -60q171 0 262 67.5t91 186.5q0 117 -95.5 184t-265.5 67q-198 0 -326 123t-128 314q0 188 128 311t326 123q75 0 152 -23h418zM524 346q141 0 231.5 90.5t90.5 231.5q0 140 -90.5 229.5t-231.5 89.5q-142 0 -232.5 -89.5t-90.5 -229.5
q0 -141 91 -231.5t232 -90.5z" />
    <glyph glyph-name="t.ss01" horiz-adv-x="716" 
d="M283 0v961h-265v118h183q92 0 92 95v180h129v-275h274v-118h-276v-961h-137z" />
    <glyph glyph-name="tbar.ss01" horiz-adv-x="796" 
d="M741 961h-278v-318h242v-100h-242v-543h-135v543h-242v100h242v318h-267v118h183q49 0 70.5 23.5t21.5 71.5v180h131v-275h274v-118z" />
    <glyph glyph-name="tcaron.ss01" horiz-adv-x="716" 
d="M598 1143l41 446h102l-49 -446h-94zM283 0v961h-265v118h183q92 0 92 95v180h129v-275h274v-118h-276v-961h-137z" />
    <glyph glyph-name="uni0163.ss01" horiz-adv-x="716" 
d="M420 0h-23l-55 -125q83 -3 134.5 -55t51.5 -129q0 -84 -61.5 -138.5t-163.5 -54.5q-137 0 -215 94l53 62q56 -72 148 -72q60 0 97.5 34t37.5 85q0 53 -39 88t-100 35h-35l-12 16l67 160h-22v961h-265v118h183q92 0 92 95v180h129v-275h274v-118h-276v-961z" />
    <glyph glyph-name="uni021B.ss01" horiz-adv-x="716" 
d="M422 1079h274v-118h-276v-961h-137v961h-265v118h183q92 0 92 95v180h129v-275zM362 -111q42 0 69.5 -28t27.5 -72q0 -58 -49 -137l-80 -141l-70 26l78 141l6 17q-35 5 -58.5 32t-23.5 66q0 41 28.5 68.5t71.5 27.5z" />
    <glyph glyph-name="u.ss01" horiz-adv-x="1218" 
d="M610 -23q-221 0 -346 124t-125 335v643h137v-647q0 -153 89.5 -243.5t244.5 -90.5t244.5 90.5t89.5 243.5v647h135v-643q0 -211 -124 -335t-345 -124z" />
    <glyph glyph-name="uacute.ss01" horiz-adv-x="1218" 
d="M438 1235l-55 88l408 256l63 -102zM610 -23q-221 0 -346 124t-125 335v643h137v-647q0 -153 89.5 -243.5t244.5 -90.5t244.5 90.5t89.5 243.5v647h135v-643q0 -211 -124 -335t-345 -124z" />
    <glyph glyph-name="ucircumflex.ss01" horiz-adv-x="1218" 
d="M610 1475l-194 -220h-127l264 304h117l260 -304h-127zM944 1079h135v-643q0 -211 -124 -335t-345 -124t-346 124t-125 335v643h137v-647q0 -153 89.5 -243.5t244.5 -90.5t244.5 90.5t89.5 243.5v647z" />
    <glyph glyph-name="udieresis.ss01" horiz-adv-x="1218" 
d="M418 1294q-47 0 -81 33t-34 82q0 47 34.5 80t82.5 33q46 0 79 -34t33 -81t-34 -80t-80 -33zM799 1294q-47 0 -81 33t-34 82q0 47 34.5 80t82.5 33q46 0 80 -34t34 -81t-34 -80t-82 -33zM610 -23q-221 0 -346 124t-125 335v643h137v-647q0 -153 89.5 -243.5t244.5 -90.5
t244.5 90.5t89.5 243.5v647h135v-643q0 -211 -124 -335t-345 -124z" />
    <glyph glyph-name="ugrave.ss01" horiz-adv-x="1218" 
d="M766 1235l-416 242l64 102l407 -256zM610 -23q-221 0 -346 124t-125 335v643h137v-647q0 -153 89.5 -243.5t244.5 -90.5t244.5 90.5t89.5 243.5v647h135v-643q0 -211 -124 -335t-345 -124z" />
    <glyph glyph-name="uhungarumlaut.ss01" horiz-adv-x="1218" 
d="M403 1235l-86 59l224 310l98 -68zM768 1235l-86 59l225 310l97 -68zM610 -23q-221 0 -346 124t-125 335v643h137v-647q0 -153 89.5 -243.5t244.5 -90.5t244.5 90.5t89.5 243.5v647h135v-643q0 -211 -124 -335t-345 -124z" />
    <glyph glyph-name="umacron.ss01" horiz-adv-x="1218" 
d="M322 1352v112h573v-112h-573zM610 -23q-221 0 -346 124t-125 335v643h137v-647q0 -153 89.5 -243.5t244.5 -90.5t244.5 90.5t89.5 243.5v647h135v-643q0 -211 -124 -335t-345 -124z" />
    <glyph glyph-name="uogonek.ss01" horiz-adv-x="1218" 
d="M944 1079h135v-643q0 -167 -78.5 -281t-224.5 -155l-67 -68q-65 -65 -91 -109t-26 -87q0 -47 28.5 -76t73.5 -29q66 0 101 43l55 -67q-57 -70 -174 -70q-87 0 -139 50.5t-52 129.5q0 64 38.5 125t123.5 135h-37q-221 0 -346 124t-125 335v643h137v-647
q0 -153 89.5 -243.5t244.5 -90.5t244.5 90.5t89.5 243.5v647z" />
    <glyph glyph-name="uring.ss01" horiz-adv-x="1218" 
d="M610 1198q-86 0 -142 54t-56 137q0 82 56 136t142 54t141.5 -54t55.5 -136q0 -83 -55.5 -137t-141.5 -54zM610 1280q46 0 77.5 31.5t31.5 77.5t-31.5 77t-77.5 31q-47 0 -78.5 -31t-31.5 -77t31.5 -77.5t78.5 -31.5zM610 -23q-221 0 -346 124t-125 335v643h137v-647
q0 -153 89.5 -243.5t244.5 -90.5t244.5 90.5t89.5 243.5v647h135v-643q0 -211 -124 -335t-345 -124z" />
    <glyph glyph-name="utilde.ss01" horiz-adv-x="1218" 
d="M741 1298q-35 0 -65.5 11t-52 27t-41.5 31.5t-43.5 26.5t-49.5 11q-45 0 -73.5 -29t-36.5 -73l-100 40q16 71 65.5 124t130.5 53q33 0 62.5 -11t50.5 -27t41 -31.5t44.5 -26.5t51.5 -11q45 0 75 28.5t38 71.5l100 -40q-18 -73 -65.5 -124t-131.5 -51zM610 -23
q-221 0 -346 124t-125 335v643h137v-647q0 -153 89.5 -243.5t244.5 -90.5t244.5 90.5t89.5 243.5v647h135v-643q0 -211 -124 -335t-345 -124z" />
    <glyph glyph-name="y.ss01" horiz-adv-x="1230" 
d="M942 1079h135v-1003q0 -222 -122 -342.5t-351 -120.5q-167 0 -280.5 75.5t-163.5 213.5l114 45q35 -109 120 -167.5t212 -58.5q167 0 254.5 88.5t87.5 258.5v127q-55 -86 -157.5 -140.5t-217.5 -54.5q-201 0 -317.5 120t-116.5 318v641h137v-624q0 -153 89 -243t239 -89
q137 2 237 87t101 204v665z" />
    <glyph glyph-name="yacute.ss01" horiz-adv-x="1230" 
d="M852 1477l-414 -242l-57 88l410 256zM942 1079h135v-1003q0 -222 -122 -342.5t-351 -120.5q-167 0 -280.5 75.5t-163.5 213.5l114 45q35 -109 120 -167.5t212 -58.5q167 0 254.5 88.5t87.5 258.5v127q-55 -86 -157.5 -140.5t-217.5 -54.5q-201 0 -317.5 120t-116.5 318
v641h137v-624q0 -153 89 -243t239 -89q137 2 237 87t101 204v665z" />
    <glyph glyph-name="ycircumflex.ss01" horiz-adv-x="1230" 
d="M608 1475l-194 -220h-127l264 304h117l262 -304h-127zM942 1079h135v-1003q0 -222 -122 -342.5t-351 -120.5q-167 0 -280.5 75.5t-163.5 213.5l114 45q35 -109 120 -167.5t212 -58.5q167 0 254.5 88.5t87.5 258.5v127q-55 -86 -157.5 -140.5t-217.5 -54.5
q-201 0 -317.5 120t-116.5 318v641h137v-624q0 -153 89 -243t239 -89q137 2 237 87t101 204v665z" />
    <glyph glyph-name="ydieresis.ss01" horiz-adv-x="1230" 
d="M416 1294q-47 0 -81 33t-34 82q0 47 34.5 80t82.5 33q46 0 79 -34t33 -81t-34 -80t-80 -33zM797 1294q-45 0 -80 33.5t-35 81.5q0 47 35.5 80t81.5 33q47 0 80.5 -34t33.5 -81t-34 -80t-82 -33zM942 1079h135v-1003q0 -222 -122 -342.5t-351 -120.5q-167 0 -280.5 75.5
t-163.5 213.5l114 45q35 -109 120 -167.5t212 -58.5q167 0 254.5 88.5t87.5 258.5v127q-55 -86 -157.5 -140.5t-217.5 -54.5q-201 0 -317.5 120t-116.5 318v641h137v-624q0 -153 89 -243t239 -89q137 2 237 87t101 204v665z" />
    <glyph glyph-name="ygrave.ss01" horiz-adv-x="1230" 
d="M821 1323l-57 -88l-414 242l62 102zM942 1079h135v-1003q0 -222 -122 -342.5t-351 -120.5q-167 0 -280.5 75.5t-163.5 213.5l114 45q35 -109 120 -167.5t212 -58.5q167 0 254.5 88.5t87.5 258.5v127q-55 -86 -157.5 -140.5t-217.5 -54.5q-201 0 -317.5 120t-116.5 318
v641h137v-624q0 -153 89 -243t239 -89q137 2 237 87t101 204v665z" />
    <glyph glyph-name="uni1EF9.ss01" horiz-adv-x="1230" 
d="M487 1405q-43 0 -71.5 -29t-38.5 -73l-98 40q16 72 64.5 124.5t129.5 52.5q34 0 63.5 -11t51 -27t41.5 -31.5t44.5 -26.5t51.5 -11q45 0 74 28t39 72l98 -40q-16 -72 -64 -123.5t-131 -51.5q-35 0 -65.5 11t-52 27t-41.5 31.5t-44.5 26.5t-50.5 11zM942 1079h135v-1003
q0 -222 -122 -342.5t-351 -120.5q-167 0 -280.5 75.5t-163.5 213.5l114 45q35 -109 120 -167.5t212 -58.5q167 0 254.5 88.5t87.5 258.5v127q-55 -86 -157.5 -140.5t-217.5 -54.5q-201 0 -317.5 120t-116.5 318v641h137v-624q0 -153 89 -243t239 -89q137 2 237 87t101 204
v665z" />
    <glyph glyph-name="zero.osf" horiz-adv-x="1329" 
d="M666 -20q-119 0 -222.5 40t-180.5 111.5t-121 178t-44 233.5q0 128 44 234t121 176.5t180.5 109.5t222.5 39q160 0 287.5 -66.5t202.5 -195t75 -297.5t-75.5 -298.5t-203 -197t-286.5 -67.5zM666 100q181 0 305.5 121t124.5 320q0 198 -124.5 318t-305.5 120
q-183 0 -308 -119.5t-125 -318.5q0 -200 124.5 -320.5t308.5 -120.5z" />
    <glyph glyph-name="one.osf" horiz-adv-x="790" 
d="M508 119h244v-119h-662v119h283v842h-293v118h428v-960z" />
    <glyph glyph-name="two.osf" horiz-adv-x="1083" 
d="M328 111h694v-111h-940v88q380 188 540 337t160 302q0 116 -74 184t-200 68q-112 0 -191.5 -52t-107.5 -143l-125 41q37 126 154.5 201.5t277.5 75.5q185 0 294.5 -96.5t109.5 -260.5q0 -170 -139.5 -320.5t-452.5 -313.5z" />
    <glyph glyph-name="three.osf" horiz-adv-x="1062" 
d="M565 516q178 0 295 -110.5t117 -284.5q0 -180 -128 -299t-335 -119q-175 0 -302 86t-165 217l125 49q30 -100 123.5 -164.5t220.5 -64.5q147 0 236.5 85.5t89.5 217.5q0 133 -90 213t-220 80h-155v94l409 445h-680v118h840v-110l-416 -453h35z" />
    <glyph glyph-name="four.osf" horiz-adv-x="1112" 
d="M1057 186v-104h-172v-326h-135v326h-689v96l689 899h135v-891h172zM750 186v717l-547 -717h547z" />
    <glyph glyph-name="five.osf" horiz-adv-x="1044" 
d="M506 535q211 0 338 -112t127 -298t-129.5 -304t-337.5 -118q-168 0 -287 79t-166 228l125 49q30 -106 117 -169.5t211 -63.5q145 0 237.5 85.5t92.5 217.5q0 130 -92.5 215.5t-233.5 85.5h-342l35 649h690v-118h-574l-24 -426h213z" />
    <glyph glyph-name="six.osf" horiz-adv-x="1091" 
d="M557 897q203 0 334 -129t131 -328q0 -200 -132.5 -331.5t-336.5 -131.5q-207 0 -345 132t-138 329q0 176 127 334l450 580h160l-369 -469q57 14 119 14zM553 96q148 0 242 96.5t94 247.5t-94 247.5t-242 96.5q-149 0 -248.5 -98t-99.5 -246t99.5 -246t248.5 -98z" />
    <glyph glyph-name="seven.osf" horiz-adv-x="929" 
d="M29 1079h858v-106l-494 -1245h-149l491 1235h-706v116z" />
    <glyph glyph-name="eight.osf" horiz-adv-x="1116" 
d="M739 723q118 -34 198.5 -129.5t80.5 -226.5q0 -176 -127.5 -283t-331.5 -107q-206 0 -333.5 107.5t-127.5 282.5q0 131 78.5 227t198.5 131q-98 36 -159.5 113.5t-61.5 189.5q0 150 111 246.5t294 95.5q181 -1 291.5 -95.5t110.5 -246.5q0 -115 -62 -192.5t-160 -112.5z
M285 1016q0 -106 76.5 -174t197.5 -68q120 0 195 68t75 174q0 109 -73.5 175t-196.5 66q-124 0 -199 -66t-75 -175zM559 90q149 0 237.5 79.5t88.5 211.5q0 125 -91 207t-235 82q-146 0 -236 -81.5t-90 -207.5q0 -133 88 -212t238 -79z" />
    <glyph glyph-name="nine.osf" horiz-adv-x="1077" 
d="M532 1102q204 0 343 -131.5t139 -329.5q0 -164 -119 -322l-459 -591h-160l365 469q-57 -13 -111 -13q-203 0 -336 127t-133 328q0 134 61.5 240t169 164.5t240.5 58.5zM532 297q148 0 247.5 97.5t99.5 244.5q0 149 -99.5 246.5t-247.5 97.5q-147 0 -242 -96t-95 -248
q0 -150 95 -246t242 -96z" />
    <glyph glyph-name="uni030C.alt" 
d="M-268 997l41 447h102l-51 -447h-92z" />
    <glyph glyph-name="caron.alt" horiz-adv-x="280" 
d="M119 997l41 447h102l-51 -447h-92z" />
    <glyph glyph-name="uni0308.case" 
d="M-569 1599q-47 0 -81 32.5t-34 82.5q0 47 34.5 79t82.5 32q46 0 79 -33t33 -80q0 -49 -33.5 -81t-80.5 -32zM-176 1599q-47 0 -81 32.5t-34 82.5q0 47 34.5 79t80.5 32q47 0 81 -33t34 -80q0 -49 -33.5 -81t-81.5 -32z" />
    <glyph glyph-name="uni0307.case" 
d="M-176 1599q-47 0 -80 32.5t-33 82.5q0 47 33.5 79t81.5 32q47 0 80 -33t33 -80q0 -49 -32.5 -81t-82.5 -32z" />
    <glyph glyph-name="gravecomb.case" 
d="M-94 1569l-490 178l37 113l486 -191z" />
    <glyph glyph-name="acutecomb.case" 
d="M-549 1569l-33 100l486 191l37 -113z" />
    <glyph glyph-name="uni030B.case" 
d="M-678 1524l-86 61l223 340l99 -70zM-297 1524l-86 61l225 340l97 -70z" />
    <glyph glyph-name="uni0302.case" 
d="M-61 1579h-132l-186 178l-186 -178h-131l264 268h110z" />
    <glyph glyph-name="uni030C.case" 
d="M-193 1847h132l-261 -268h-110l-264 268h131l186 -178z" />
    <glyph glyph-name="uni0306.case" 
d="M-346 1579q-128 0 -205.5 77.5t-77.5 190.5h115q0 -68 46 -116t122 -48q78 0 124 48t46 116h115q0 -112 -78.5 -190t-206.5 -78z" />
    <glyph glyph-name="uni030A.case" 
d="M-248 1483q-86 0 -142 54.5t-56 137.5q0 82 56 136.5t142 54.5t141.5 -54.5t55.5 -136.5q0 -83 -55.5 -137.5t-141.5 -54.5zM-248 1567q46 0 77.5 31t31.5 77q0 44 -31.5 75.5t-77.5 31.5q-47 0 -78.5 -31t-31.5 -76q0 -46 31.5 -77t78.5 -31z" />
    <glyph glyph-name="tildecomb.case" 
d="M-266 1599q-44 0 -81.5 16.5t-59 37t-52.5 37t-63 16.5q-45 0 -74 -29t-37 -73l-100 41q16 70 68 123t135 53q43 0 80 -16.5t59 -37t53.5 -37t63.5 -16.5q45 0 73.5 28.5t38.5 74.5l101 -43q-17 -72 -68.5 -123.5t-136.5 -51.5z" />
    <glyph glyph-name="uni0304.case" 
d="M-655 1657v115h594v-115h-594z" />
    <glyph glyph-name="uni0326.case" 
d="M-158 -100q42 0 69.5 -28.5t27.5 -72.5q0 -54 -50 -137l-79 -139l-70 24l78 144l6 14q-34 5 -58 32.5t-24 65.5q0 41 28.5 69t71.5 28z" />
    <glyph glyph-name="uni0337.case" 
d="M-616 387l-33 92l555 230l33 -91z" />
    <glyph glyph-name="uni0338.case" 
d="M-1378 16l-82 80l1270 1393l81 -80z" />
    <glyph glyph-name="dieresis.case" horiz-adv-x="665" 
d="M176 1599q-47 0 -81 32.5t-34 82.5q0 47 34.5 79t82.5 32q46 0 79.5 -33t33.5 -80q0 -48 -34 -80.5t-81 -32.5zM569 1599q-47 0 -80.5 32.5t-33.5 82.5q0 47 34 79t80 32q47 0 81 -33t34 -80q0 -49 -33.5 -81t-81.5 -32z" />
    <glyph glyph-name="dotaccent.case" horiz-adv-x="249" 
d="M174 1599q-47 0 -80 32.5t-33 82.5q0 47 33.5 79t81.5 32q47 0 80 -33t33 -80q0 -49 -32.5 -81t-82.5 -32z" />
    <glyph glyph-name="grave.case" horiz-adv-x="538" 
d="M551 1569l-490 178l37 113l486 -191z" />
    <glyph glyph-name="acute.case" horiz-adv-x="538" 
d="M94 1569l-33 100l486 191l37 -113z" />
    <glyph glyph-name="hungarumlaut.case" horiz-adv-x="927" 
d="M147 1524l-86 61l224 340l98 -70zM528 1524l-86 61l226 340l96 -70z" />
    <glyph glyph-name="circumflex.case" horiz-adv-x="714" 
d="M696 1579h-131l-186 178l-186 -178h-132l265 268h110z" />
    <glyph glyph-name="caron.case" horiz-adv-x="714" 
d="M565 1847h131l-260 -268h-110l-265 268h132l186 -178z" />
    <glyph glyph-name="breve.case" horiz-adv-x="647" 
d="M344 1579q-128 0 -205.5 77.5t-77.5 190.5h115q0 -68 46 -116t122 -48q78 0 124 48t46 116h115q0 -112 -78.5 -190t-206.5 -78z" />
    <glyph glyph-name="ring.case" horiz-adv-x="423" 
d="M250 1483q-86 0 -142.5 54.5t-56.5 137.5q0 82 56.5 136.5t142.5 54.5t141 -54.5t55 -136.5q0 -84 -55 -138t-141 -54zM250 1567q46 0 77 31t31 77q0 45 -31 76t-77 31q-47 0 -79 -31t-32 -76q0 -46 32 -77t79 -31z" />
    <glyph glyph-name="tilde.case" horiz-adv-x="800" 
d="M528 1599q-44 0 -81.5 16.5t-59 37t-52.5 37t-63 16.5q-45 0 -73.5 -29t-36.5 -73l-101 41q16 70 68 123t135 53q43 0 80 -16.5t59 -37t53.5 -37t63.5 -16.5q45 0 74 29t39 74l100 -43q-17 -72 -68.5 -123.5t-136.5 -51.5z" />
    <glyph glyph-name="macron.case" horiz-adv-x="702" 
d="M61 1657v115h594v-115h-594z" />
    <glyph glyph-name="IJacute" horiz-adv-x="1173" 
d="M39 1569l-33 100l486 191l36 -113zM731 1569l-33 100l488 191l35 -113zM178 0v1423h135v-1423h-135zM539 0v121h98q109 0 171 68t62 192v1042h138v-1042q0 -179 -97 -280t-266 -101h-106z" />
    <glyph glyph-name="ijacute" horiz-adv-x="1003" 
d="M53 1233l-57 90l410 254l61 -100zM610 1233l-55 88l408 256l63 -100zM156 0v1079h135v-1079h-135zM453 -371v119h22q107 0 172.5 71t65.5 185v1075h135v-1073q0 -171 -100.5 -274t-262.5 -103h-32z" />
    </font>
</defs>
</svg>
