<?xml version="1.0" standalone="no"?>
<!DOCTYPE svg PUBLIC "-//W3C//DTD SVG 1.1//EN" "http://www.w3.org/Graphics/SVG/1.1/DTD/svg11.dtd" >
<svg xmlns="http://www.w3.org/2000/svg" xmlns:xlink="http://www.w3.org/1999/xlink" version="1.1">
<metadata>
Created by FontForge 20201107 at Thu Oct 31 06:45:08 2024
 By 
Copyright (c) 2019 by Daniel Hernandez &#38; Rodrigo Fuenzalida. All rights reserved.
</metadata>
<defs>
<font id="Biennale-BookIt" horiz-adv-x="0" >
  <font-face 
    font-family="Biennale Book It"
    font-weight="375"
    font-style="italic"
    font-stretch="normal"
    units-per-em="2048"
    panose-1="0 0 4 0 0 0 0 0 0 0"
    ascent="1638"
    descent="-410"
    x-height="1079"
    cap-height="1423"
    bbox="-1405 -502 4520 1929"
    underline-thickness="102"
    underline-position="-204"
    slope="-11"
    unicode-range="U+0020-FB02"
  />
<missing-glyph horiz-adv-x="1191" 
d="M455 1495h856l-291 -1495h-856zM1167 1423h-596l185 -587zM506 1348l-234 -1201l422 601zM971 152l229 1191l-416 -595zM721 659l-412 -587h596z" />
    <glyph glyph-name="fi" unicode="fi" horiz-adv-x="978" 
d="M850 1397q-102 0 -174 -62.5t-96 -183.5l-15 -72h469l-209 -1079h-131l187 965h-338l-187 -965h-131l187 965h-201l22 114h201l12 62q35 177 144 269.5t276 92.5h252l-20 -106h-248z" />
    <glyph glyph-name="fl" unicode="fl" horiz-adv-x="1013" 
d="M1151 1497l-291 -1497h-131l270 1391h-151q-102 0 -174 -63t-96 -185l-13 -68h228l-21 -110h-229l-187 -965h-131l189 965h-203l22 114h203l10 56q33 177 142 269.5t276 92.5h287z" />
    <glyph glyph-name=".notdef" horiz-adv-x="1191" 
d="M455 1495h856l-291 -1495h-856zM1167 1423h-596l185 -587zM506 1348l-234 -1201l422 601zM971 152l229 1191l-416 -595zM721 659l-412 -587h596z" />
    <glyph glyph-name=".null" 
 />
    <glyph glyph-name="nonmarkingreturn" horiz-adv-x="682" 
 />
    <glyph glyph-name="space" unicode=" " horiz-adv-x="466" 
 />
    <glyph glyph-name="exclam" unicode="!" horiz-adv-x="471" 
d="M256 403l190 1094h152l-240 -1094h-102zM238 -18q-39 0 -65 24.5t-26 63.5q0 46 33 79t80 33q41 0 65.5 -24.5t24.5 -63.5q0 -46 -32.5 -79t-79.5 -33z" />
    <glyph glyph-name="quotedbl" unicode="&#x22;" horiz-adv-x="600" 
d="M326 1061l67 403h121l-90 -403h-98zM580 1061l69 403h119l-88 -403h-100z" />
    <glyph glyph-name="numbersign" unicode="#" horiz-adv-x="1357" 
d="M1477 932h-256l-195 -428h234l-21 -105h-262l-182 -399h-115l184 399h-385l-184 -399h-113l185 399h-234l19 105h262l196 428h-237l20 102h266l179 389h110l-178 -389h387l178 389h111l-178 -389h229zM911 504l197 428h-385l-197 -428h385z" />
    <glyph glyph-name="dollar" unicode="$" horiz-adv-x="942" 
d="M430 1001q0 -51 22 -92.5t58 -69t81.5 -55.5t93.5 -51t93.5 -55.5t81.5 -69.5t58 -93.5t22 -125.5q0 -158 -104 -257.5t-279 -113.5l-37 -184h-108l34 184q-141 14 -229.5 91.5t-103.5 203.5l120 41q9 -106 86 -167.5t199 -61.5q132 0 212.5 68t80.5 180q0 55 -22 100.5
t-58 75.5t-81.5 59.5t-93.5 52.5t-93.5 55t-81.5 67t-58 88.5t-22 119.5q0 145 105 242t272 104l35 183h108l-37 -189q116 -19 186 -85.5t83 -170.5l-121 -43q-12 97 -70.5 147t-161.5 50q-120 0 -195 -63.5t-75 -164.5z" />
    <glyph glyph-name="percent" unicode="%" horiz-adv-x="1472" 
d="M535 788q-120 0 -194.5 77.5t-74.5 197.5q0 94 46.5 179.5t131 139.5t183.5 54q119 0 192.5 -76.5t73.5 -194.5q0 -94 -45.5 -180.5t-129 -141.5t-183.5 -55zM274 0l1086 1423h108l-1085 -1423h-109zM545 877q71 0 131 41.5t92.5 105t32.5 131.5q0 86 -52.5 139.5
t-134.5 53.5q-105 0 -179.5 -86t-74.5 -191q0 -86 52.5 -140t132.5 -54zM1120 -12q-121 0 -194.5 77t-73.5 197q0 94 46 179.5t129.5 139.5t182.5 54q120 0 194.5 -76.5t74.5 -193.5q0 -70 -27.5 -138t-74 -121t-114.5 -85.5t-143 -32.5zM1130 76q105 0 179.5 86.5
t74.5 191.5q0 84 -52 138.5t-132 54.5q-106 0 -181 -86.5t-75 -192.5q0 -85 52 -138.5t134 -53.5z" />
    <glyph glyph-name="ampersand" unicode="&#x26;" horiz-adv-x="1300" 
d="M1346 686q-33 -147 -104.5 -276t-156.5 -207l154 -203h-154l-98 129q-170 -149 -428 -149q-178 0 -291.5 98.5t-113.5 249.5q0 303 340 471q-70 124 -70 231q0 171 120 290.5t314 119.5q166 0 268.5 -94.5t102.5 -251.5h-137q-2 96 -68 157.5t-180 61.5
q-124 0 -205.5 -85t-81.5 -210q0 -71 32.5 -135t119.5 -183l307 -405q70 73 129.5 190t85.5 250zM586 96q196 0 338 119l-336 447q-16 21 -39 55q-128 -69 -192 -154t-64 -211q0 -113 83.5 -184.5t209.5 -71.5z" />
    <glyph glyph-name="quotesingle" unicode="'" horiz-adv-x="346" 
d="M326 1061l67 403h121l-90 -403h-98z" />
    <glyph glyph-name="parenleft" unicode="(" horiz-adv-x="618" 
d="M477 -205q-119 97 -200.5 279.5t-81.5 406.5q0 333 169 627.5t447 460.5l72 -90q-256 -158 -407.5 -426.5t-151.5 -563.5q0 -203 72 -363.5t177 -242.5z" />
    <glyph glyph-name="parenright" unicode=")" horiz-adv-x="618" 
d="M66 -205l-72 90q258 159 408.5 426.5t150.5 562.5q0 202 -72 363.5t-176 243.5l96 88q118 -95 199.5 -278t81.5 -406q0 -330 -167.5 -626.5t-448.5 -463.5z" />
    <glyph glyph-name="asterisk" unicode="*" horiz-adv-x="804" 
d="M506 825l63 250l-235 -137l-35 98l252 117l-207 121l74 96l180 -139l37 266h110l-65 -266l233 141l37 -100l-254 -119l207 -117l-74 -98l-180 137l-35 -250h-108z" />
    <glyph glyph-name="plus" unicode="+" horiz-adv-x="962" 
d="M1032 686l-22 -113h-359l-82 -415h-118l81 415h-362l23 113h360l78 397h119l-78 -397h360z" />
    <glyph glyph-name="comma" unicode="," horiz-adv-x="385" 
d="M215 182q41 0 66.5 -25.5t25.5 -62.5q0 -32 -12 -60t-43 -73l-115 -158h-86l125 185q-31 3 -51.5 27t-20.5 59q0 46 33 77t78 31z" />
    <glyph glyph-name="hyphen" unicode="-" horiz-adv-x="745" 
d="M213 465l20 108h494l-22 -108h-492z" />
    <glyph glyph-name="period" unicode="." horiz-adv-x="397" 
d="M199 -18q-39 0 -64.5 24.5t-25.5 63.5q0 46 32.5 79t79.5 33q41 0 65.5 -24.5t24.5 -63.5q0 -46 -32.5 -79t-79.5 -33z" />
    <glyph glyph-name="slash" unicode="/" horiz-adv-x="655" 
d="M53 -102l686 1558h117l-684 -1558h-119z" />
    <glyph glyph-name="zero" unicode="0" horiz-adv-x="1370" 
d="M717 -20q-230 0 -364 150.5t-134 428.5q0 130 29.5 257t89.5 240t143 199t197.5 136.5t245.5 50.5q229 0 364 -150.5t135 -427.5q0 -129 -29.5 -255.5t-89.5 -240t-143 -200t-198 -137.5t-246 -51zM729 104q102 0 192 43t155.5 116t113.5 168.5t72 202t24 214.5
q0 223 -101.5 345t-275.5 122q-101 0 -190.5 -43t-155 -116t-113.5 -168t-72 -202t-24 -215q0 -221 101 -344t274 -123z" />
    <glyph glyph-name="one" unicode="1" horiz-adv-x="690" 
d="M725 1423l-256 -1312h195l-21 -111h-559l20 111h234l197 1009h-228l23 111h227l37 192h131z" />
    <glyph glyph-name="two" unicode="2" horiz-adv-x="1060" 
d="M811 580l-526 -467h708l-22 -113h-897l18 88l625 559q78 69 128 120t93.5 108t63.5 113t20 116q0 101 -68.5 162t-179.5 61q-117 0 -213 -64.5t-155 -187.5l-113 41q75 161 202 244.5t293 83.5q167 0 269 -88t102 -230q0 -143 -85 -267.5t-263 -278.5z" />
    <glyph glyph-name="three" unicode="3" horiz-adv-x="1101" 
d="M1251 1423l-18 -106l-524 -488q173 -4 278 -110.5t105 -274.5q0 -197 -152.5 -332t-382.5 -135q-191 0 -314 90t-132 224l125 45q12 -107 102 -175.5t229 -68.5q164 0 275.5 100t111.5 244q0 138 -82.5 218.5t-218.5 80.5h-121l21 94l522 486h-708l20 108h864z" />
    <glyph glyph-name="four" unicode="4" horiz-adv-x="1144" 
d="M1171 1421l-186 -960h186l-20 -107h-186l-70 -354h-129l70 354h-732l19 90l919 977h129zM856 461l152 778l-732 -778h580z" />
    <glyph glyph-name="five" unicode="5" horiz-adv-x="1079" 
d="M1169 1317h-589l-117 -459h182q201 0 319.5 -107.5t118.5 -289.5q0 -210 -152 -347t-390 -137q-176 0 -292.5 86t-133.5 234l127 47q9 -117 95 -184.5t222 -67.5q164 0 276.5 103.5t112.5 255.5q0 138 -86 219.5t-235 81.5h-308l168 671h705z" />
    <glyph glyph-name="six" unicode="6" horiz-adv-x="1114" 
d="M725 936q187 0 302.5 -112t115.5 -300q0 -147 -70.5 -272t-200 -200t-290.5 -75q-194 0 -312 110.5t-118 291.5q0 121 50.5 230t129.5 190l612 624h158l-490 -499q56 12 113 12zM596 92q116 0 212 61t148 157t52 204q0 139 -83.5 225t-219.5 86q-121 0 -218.5 -63.5
t-148.5 -160.5t-51 -204q0 -133 85.5 -219t223.5 -86z" />
    <glyph glyph-name="seven" unicode="7" horiz-adv-x="946" 
d="M299 1423h877l-21 -104l-760 -1319h-149l766 1311h-736z" />
    <glyph glyph-name="eight" unicode="8" horiz-adv-x="1112" 
d="M866 762q105 -35 165.5 -122.5t60.5 -205.5q0 -123 -66.5 -227.5t-186 -167t-264.5 -62.5q-184 0 -297.5 95.5t-113.5 253.5q0 157 107 281.5t268 158.5q-85 34 -133 105.5t-48 168.5q0 169 132.5 285.5t324.5 116.5q160 0 256 -85.5t96 -221.5q0 -130 -84 -233
t-217 -140zM803 1331q-129 0 -223.5 -88t-94.5 -209q0 -99 63 -161t167 -62q129 0 226 90t97 213q0 99 -65.5 158t-169.5 59zM582 88q161 0 270 103.5t109 252.5q0 121 -73.5 193t-201.5 72q-159 0 -274 -107t-115 -256q0 -121 77.5 -189.5t207.5 -68.5z" />
    <glyph glyph-name="nine" unicode="9" horiz-adv-x="1110" 
d="M803 1446q194 0 312 -110.5t118 -291.5q0 -233 -180 -419l-611 -625h-159l489 500q-60 -13 -110 -13q-188 0 -304 111.5t-116 300.5q0 147 70.5 272t200 200t290.5 75zM682 598q91 0 170 37t132 97.5t83.5 137.5t30.5 156q0 133 -86 219t-224 86q-116 0 -211.5 -61
t-147.5 -157t-52 -204q0 -139 84 -225t221 -86z" />
    <glyph glyph-name="colon" unicode=":" horiz-adv-x="446" 
d="M371 727q-40 0 -66 25t-26 65q0 46 32.5 79.5t79.5 33.5q40 0 65 -24.5t25 -65.5q0 -46 -32.5 -79.5t-77.5 -33.5zM223 -18q-39 0 -64.5 24.5t-25.5 63.5q0 46 33 79t80 33q40 0 65 -24t25 -64q0 -46 -33 -79t-80 -33z" />
    <glyph glyph-name="semicolon" unicode=";" horiz-adv-x="450" 
d="M393 930q39 0 64.5 -24.5t25.5 -65.5q0 -46 -32.5 -79.5t-79.5 -33.5q-40 0 -65 25t-25 65q0 47 31.5 80t80.5 33zM246 182q41 0 66.5 -25.5t25.5 -62.5q0 -32 -12 -60t-43 -73l-115 -158h-86l125 185q-31 3 -51.5 27t-20.5 59q0 46 33 77t78 31z" />
    <glyph glyph-name="less" unicode="&#x3c;" horiz-adv-x="806" 
d="M913 1065l-26 -135l-592 -342l459 -344l-23 -115l-567 420l18 94z" />
    <glyph glyph-name="equal" unicode="=" horiz-adv-x="972" 
d="M221 780l23 113h829l-22 -113h-830zM129 299l23 113h827l-23 -113h-827z" />
    <glyph glyph-name="greater" unicode="&#x3e;" horiz-adv-x="806" 
d="M303 1065l567 -420l-18 -94l-731 -422l26 133l592 344l-458 344z" />
    <glyph glyph-name="question" unicode="?" horiz-adv-x="874" 
d="M381 403l18 97q17 82 53.5 152t81.5 118.5t95.5 91.5t97.5 80.5t85.5 75t61.5 85.5t23 103q0 91 -54.5 139t-144.5 48q-106 0 -182.5 -63.5t-116.5 -168.5l-114 37q56 148 167 234t265 86q143 0 232 -74.5t89 -210.5q0 -69 -25 -129t-66.5 -105.5t-92.5 -87.5t-104.5 -86
t-100 -91t-83 -112t-50.5 -139l-16 -80h-119zM377 -18q-39 0 -63.5 24.5t-24.5 63.5q0 47 31.5 79.5t80.5 32.5q39 0 63.5 -24.5t24.5 -63.5q0 -47 -31.5 -79.5t-80.5 -32.5z" />
    <glyph glyph-name="at" unicode="@" horiz-adv-x="1560" 
d="M975 1186q270 0 436 -158t166 -418q0 -202 -95 -335.5t-237 -133.5q-80 0 -126 39t-48 103q-52 -74 -125.5 -116t-157.5 -42q-125 0 -203.5 85.5t-78.5 219.5q0 163 111 282t266 119q96 0 162.5 -46t93.5 -126l30 154h84l-84 -436q-10 -49 -10 -66q0 -80 92 -80
q102 0 166 103t64 270q0 219 -142 355.5t-376 136.5q-143 0 -274 -59.5t-225.5 -158t-151 -231.5t-56.5 -274q0 -227 142.5 -365.5t375.5 -138.5q236 0 373 149l47 -67q-153 -172 -434 -172q-274 0 -437 159.5t-163 421.5q0 224 109 414t296.5 301t409.5 111zM813 219
q112 0 196.5 94t84.5 219q0 93 -56 149t-149 56q-116 0 -197.5 -87.5t-81.5 -211.5q0 -98 56 -158.5t147 -60.5z" />
    <glyph glyph-name="A" unicode="A" horiz-adv-x="1228" 
d="M1079 0l-73 442h-605l-243 -442h-140l791 1423h158l237 -1423h-125zM461 551h528l-123 739z" />
    <glyph glyph-name="B" unicode="B" horiz-adv-x="1226" 
d="M995 745q105 -39 163.5 -122.5t58.5 -198.5q0 -191 -141.5 -307.5t-377.5 -116.5h-528l276 1423h515q162 0 248.5 -82t86.5 -219q0 -138 -82 -237t-219 -140zM1161 1094q0 104 -64.5 162.5t-183.5 58.5h-358l-100 -518h370q141 0 238.5 84t97.5 213zM698 109
q179 0 283 84.5t104 226.5q0 123 -74.5 195.5t-205.5 72.5h-371l-112 -579h376z" />
    <glyph glyph-name="C" unicode="C" horiz-adv-x="1449" 
d="M809 -23q-266 0 -433 169.5t-167 435.5q0 171 59 328.5t161.5 276t251.5 189t320 70.5q230 0 383 -127t183 -322l-131 -45q-30 168 -147 268.5t-302 100.5q-139 0 -260 -60t-204 -160.5t-130 -232.5t-47 -274q0 -218 131.5 -355t345.5 -137q182 0 309 89t222 276l116 -53
q-111 -220 -271 -328.5t-390 -108.5z" />
    <glyph glyph-name="D" unicode="D" horiz-adv-x="1427" 
d="M899 1423q266 0 426 -165.5t160 -440.5q0 -167 -62.5 -318t-169 -260.5t-256.5 -174t-317 -64.5h-510l276 1423h453zM692 117q178 0 329 94.5t239 255t88 348.5q0 226 -126 359t-341 133h-326l-231 -1190h368z" />
    <glyph glyph-name="E" unicode="E" horiz-adv-x="1105" 
d="M1268 1307h-713l-98 -508h649l-25 -115h-647l-110 -567h725l-21 -117h-858l276 1423h844z" />
    <glyph glyph-name="F" unicode="F" horiz-adv-x="1062" 
d="M1266 1307h-711l-100 -512h645l-25 -117h-643l-131 -678h-131l276 1423h842z" />
    <glyph glyph-name="G" unicode="G" horiz-adv-x="1529" 
d="M1587 729q-60 -358 -264 -555t-508 -197q-273 0 -439.5 169.5t-166.5 451.5q0 230 105 425t288 309t402 114q222 0 378 -119.5t191 -316.5l-131 -47q-29 167 -149.5 262.5t-303.5 95.5q-174 0 -322.5 -96t-235.5 -260.5t-87 -356.5q0 -233 132.5 -371.5t354.5 -138.5
q219 0 377 137.5t230 389.5h-549l20 104h678z" />
    <glyph glyph-name="H" unicode="H" horiz-adv-x="1363" 
d="M1333 1423h131l-276 -1423h-131l133 682h-756l-133 -682h-131l276 1423h132l-121 -622h755z" />
    <glyph glyph-name="I" unicode="I" horiz-adv-x="477" 
d="M170 0l276 1423h132l-277 -1423h-131z" />
    <glyph glyph-name="J" unicode="J" horiz-adv-x="649" 
d="M29 0l22 117h92q108 0 183 66.5t98 181.5l205 1058h131l-209 -1075q-32 -167 -139.5 -257.5t-270.5 -90.5h-112z" />
    <glyph glyph-name="K" unicode="K" horiz-adv-x="1200" 
d="M1417 1423l-837 -680l632 -743h-151l-621 717l-139 -717h-131l276 1423h132l-123 -637l788 637h174z" />
    <glyph glyph-name="L" unicode="L" horiz-adv-x="1044" 
d="M324 119h714l-22 -119h-846l276 1423h132z" />
    <glyph glyph-name="M" unicode="M" horiz-adv-x="1648" 
d="M1579 1423h121l-184 -1423h-125l161 1223l-663 -1162h-113l-207 1166l-313 -1227h-127l369 1423h123v-2l20 2l219 -1200l690 1200l29 -4v4z" />
    <glyph glyph-name="N" unicode="N" horiz-adv-x="1363" 
d="M1335 1423h129l-276 -1423h-109l-544 1194l-234 -1194h-131l276 1423h111l545 -1194z" />
    <glyph glyph-name="O" unicode="O" horiz-adv-x="1566" 
d="M821 -23q-275 0 -443.5 175t-168.5 458q0 225 108 417.5t293.5 305.5t403.5 113q274 0 442 -173.5t168 -457.5q0 -170 -64 -325.5t-171.5 -267.5t-256 -178.5t-311.5 -66.5zM831 102q132 0 254 56.5t210.5 151.5t141 225.5t52.5 271.5q0 231 -133 372.5t-352 141.5
q-133 0 -255 -56.5t-210 -151t-140.5 -224.5t-52.5 -271q0 -232 133 -374t352 -142z" />
    <glyph glyph-name="P" unicode="P" horiz-adv-x="1169" 
d="M922 1423q186 0 289.5 -94t103.5 -260q0 -200 -143.5 -325.5t-372.5 -125.5h-377l-121 -618h-131l276 1423h476zM813 735q162 0 264.5 90.5t102.5 231.5q0 120 -73 185t-208 65h-344l-111 -572h369z" />
    <glyph glyph-name="Q" unicode="Q" horiz-adv-x="1611" 
d="M1624 815q0 -241 -120 -441t-318 -306l284 -275l-92 -98l-327 317q-110 -35 -230 -35q-275 0 -443.5 175t-168.5 458q0 225 108 417.5t293.5 305.5t403.5 113q274 0 442 -173.5t168 -457.5zM346 618q0 -232 133 -374t352 -142q132 0 254 56.5t210.5 151.5t141 225.5
t52.5 271.5q0 231 -133 372.5t-352 141.5q-133 0 -255 -56.5t-210 -151t-140.5 -224.5t-52.5 -271z" />
    <glyph glyph-name="R" unicode="R" horiz-adv-x="1191" 
d="M1317 1083q0 -186 -142 -308t-374 -122h-86l397 -653h-141l-389 653h-154l-127 -653h-131l276 1423h476q188 0 291.5 -91.5t103.5 -248.5zM555 1307l-106 -553h364q164 0 267.5 88.5t103.5 224.5q0 114 -73 177t-208 63h-348z" />
    <glyph glyph-name="S" unicode="S" horiz-adv-x="1079" 
d="M569 -18q-195 0 -312.5 86t-137.5 243l131 45q9 -120 100 -189t240 -69q155 0 247.5 74.5t92.5 200.5q0 72 -33.5 128t-86.5 93t-117.5 70t-129 68t-117.5 76.5t-86.5 106t-33.5 146.5q0 169 129.5 276t335.5 107q170 0 278.5 -78t122.5 -209l-131 -45
q-12 104 -85.5 160.5t-195.5 56.5q-141 0 -230 -70t-89 -182q0 -64 33.5 -114t86.5 -84.5t117.5 -66t129 -68t117.5 -81t86.5 -114t33.5 -158.5q0 -187 -135 -298t-361 -111z" />
    <glyph glyph-name="T" unicode="T" horiz-adv-x="1073" 
d="M1321 1423l-23 -118h-444l-254 -1305h-131l254 1305h-444l22 118h1020z" />
    <glyph glyph-name="U" unicode="U" horiz-adv-x="1335" 
d="M686 -23q-239 0 -355.5 158t-68.5 406l170 882h131l-170 -882q-40 -201 46 -321t266 -120q170 0 284.5 105t151.5 295l178 923h131l-178 -923q-47 -251 -200 -387t-386 -136z" />
    <glyph glyph-name="V" unicode="V" horiz-adv-x="1236" 
d="M1337 1423h146l-797 -1423h-158l-245 1423h131l217 -1276z" />
    <glyph glyph-name="W" unicode="W" horiz-adv-x="1720" 
d="M1819 1423h133l-611 -1423h-147l-94 1239l-580 -1239h-143l-62 1423h127l39 -1249l582 1249h139l92 -1253z" />
    <glyph glyph-name="X" unicode="X" horiz-adv-x="1220" 
d="M1458 1425l-631 -706l381 -719h-141l-334 631l-565 -631h-164l672 739l-365 686h144l315 -596l526 596h162z" />
    <glyph glyph-name="Y" unicode="Y" horiz-adv-x="1200" 
d="M1456 1423l-682 -839l-112 -584h-132l115 592l-352 831h133l303 -723l569 723h158z" />
    <glyph glyph-name="Z" unicode="Z" horiz-adv-x="1075" 
d="M1286 1423l-18 -90l-1016 -1214h795l-23 -119h-977l16 88l1022 1219h-763l22 116h942z" />
    <glyph glyph-name="bracketleft" unicode="[" horiz-adv-x="573" 
d="M807 1454h-229l-304 -1548h234l-23 -113h-358l344 1774h358z" />
    <glyph glyph-name="backslash" unicode="\" horiz-adv-x="657" 
d="M438 -102l-82 1558h119l84 -1558h-121z" />
    <glyph glyph-name="bracketright" unicode="]" horiz-adv-x="571" 
d="M348 1567h359l-347 -1774h-358l23 113h233l301 1548h-235z" />
    <glyph glyph-name="asciicircum" unicode="^" horiz-adv-x="897" 
d="M963 782h-123l-156 416l-307 -416h-141l419 559h88z" />
    <glyph glyph-name="underscore" unicode="_" horiz-adv-x="962" 
d="M14 -160l21 111h864l-20 -111h-865z" />
    <glyph glyph-name="grave" unicode="`" horiz-adv-x="550" 
d="M727 1235l-408 248l58 90l403 -258z" />
    <glyph glyph-name="a" unicode="a" horiz-adv-x="1288" 
d="M1219 1079h122l-208 -1079h-123l43 217q-82 -111 -197.5 -175.5t-251.5 -64.5q-197 0 -314.5 128.5t-117.5 340.5q0 130 48 250t129 209.5t196 143t243 53.5q147 0 245.5 -72t137.5 -201zM643 94q131 0 241.5 74.5t173 197.5t62.5 263q0 164 -89 260t-243 96
q-99 0 -189 -43t-154 -114.5t-102 -167t-38 -197.5q0 -163 92.5 -266t245.5 -103z" />
    <glyph glyph-name="b" unicode="b" horiz-adv-x="1288" 
d="M891 1102q192 0 310 -129t118 -336q0 -128 -46 -247.5t-126 -211t-198 -146.5t-253 -55q-139 0 -238 69t-139 194l-47 -240h-122l288 1497h131l-118 -616q81 103 194 162t246 59zM700 94q106 0 198.5 45.5t154.5 119t97.5 167.5t35.5 192q0 164 -93.5 265.5t-244.5 101.5
q-135 0 -246 -77t-171 -199t-60 -258q0 -162 89.5 -259.5t239.5 -97.5z" />
    <glyph glyph-name="c" unicode="c" horiz-adv-x="1144" 
d="M637 -23q-212 0 -338.5 132t-126.5 344q0 128 49.5 247t133 207.5t201 141.5t247.5 53q172 0 288.5 -92t131.5 -242l-125 -41q-12 116 -96 186t-214 70q-133 0 -245.5 -73t-175 -191.5t-62.5 -251.5q0 -164 94 -267.5t252 -103.5q125 0 225.5 66t161.5 192l109 -47
q-81 -162 -211.5 -246t-298.5 -84z" />
    <glyph glyph-name="d" unicode="d" horiz-adv-x="1288" 
d="M1292 1497h131l-290 -1497h-123l41 215q-81 -110 -196.5 -174t-250.5 -64q-197 0 -314.5 128.5t-117.5 340.5q0 130 48 250t129 209.5t196 143t243 53.5q143 0 240 -66t139 -188zM643 94q131 0 241.5 74.5t173 197.5t62.5 263q0 164 -89 260t-243 96q-99 0 -189 -43
t-154 -114.5t-102 -167t-38 -197.5q0 -163 92.5 -266t245.5 -103z" />
    <glyph glyph-name="e" unicode="e" horiz-adv-x="1181" 
d="M795 1102q191 0 308.5 -118t117.5 -302q0 -37 -9 -94t-18 -84h-891q-2 -16 -2 -49q0 -165 96.5 -265t249.5 -100q255 0 385 242l94 -64q-86 -144 -206 -217.5t-289 -73.5q-200 0 -329.5 131.5t-129.5 333.5q0 180 82.5 331.5t226 240t314.5 88.5zM319 602h773q6 41 6 76
q0 148 -82 231.5t-228 83.5q-170 0 -298.5 -110t-170.5 -281z" />
    <glyph glyph-name="f" unicode="f" horiz-adv-x="667" 
d="M848 1397q-103 0 -173.5 -62t-94.5 -184l-15 -72h291l-22 -114h-291l-187 -965h-131l189 965h-203l22 114h203l13 66q34 175 138.5 266.5t272.5 91.5h84l-20 -106h-76z" />
    <glyph glyph-name="g" unicode="g" horiz-adv-x="1286" 
d="M1223 1079h123l-185 -946q-103 -522 -600 -522q-190 0 -313.5 87.5t-147.5 248.5l115 39q17 -128 111 -197.5t243 -69.5q187 0 308 103.5t159 300.5l23 123q-81 -115 -200 -181.5t-255 -66.5q-195 0 -313.5 127.5t-118.5 331.5q0 170 82 318.5t224.5 237.5t309.5 89
q147 0 247.5 -70t138.5 -198zM643 104q131 0 241.5 73.5t173 195t62.5 260.5q0 162 -89 257t-243 95q-99 0 -189 -42.5t-154 -112.5t-102 -165t-38 -196q0 -163 91.5 -264t246.5 -101z" />
    <glyph glyph-name="h" unicode="h" horiz-adv-x="1220" 
d="M856 1102q196 0 293.5 -121.5t56.5 -331.5l-125 -649h-131l121 629q33 169 -40.5 261.5t-225.5 92.5q-144 0 -253 -89t-142 -228l-129 -666h-131l290 1497h131l-114 -588q69 88 172.5 140.5t226.5 52.5z" />
    <glyph glyph-name="i" unicode="i" horiz-adv-x="446" 
d="M473 1292q-47 0 -75.5 29t-28.5 72q0 54 39.5 92.5t93.5 38.5q47 0 75.5 -29t28.5 -74q0 -52 -39.5 -90.5t-93.5 -38.5zM150 0l208 1079h131l-208 -1079h-131z" />
    <glyph glyph-name="j" unicode="j" horiz-adv-x="448" 
d="M477 1290q-45 0 -74.5 29t-29.5 74q0 52 39.5 90.5t93.5 38.5q46 0 75 -29t29 -72q0 -54 -39 -92.5t-94 -38.5zM-174 -371l22 115h31q99 0 173.5 68.5t97.5 183.5l208 1083h131l-208 -1081q-35 -176 -147 -272.5t-271 -96.5h-37z" />
    <glyph glyph-name="k" unicode="k" horiz-adv-x="993" 
d="M1184 1079l-652 -504l461 -575h-145l-459 561l-108 -561h-131l290 1497h131l-170 -876l613 458h170z" />
    <glyph glyph-name="l" unicode="l" horiz-adv-x="434" 
d="M150 0l290 1497h131l-290 -1497h-131z" />
    <glyph glyph-name="m" unicode="m" horiz-adv-x="1941" 
d="M1595 1102q183 0 279 -116.5t57 -319.5l-131 -666h-129l123 645q31 164 -39.5 251t-210.5 87q-135 0 -243 -96t-134 -244l-127 -643h-129l123 645q31 164 -39.5 251t-210.5 87q-131 0 -236.5 -89.5t-137.5 -227.5l-129 -666h-131l208 1079h125l-34 -180q67 92 169 147.5
t220 55.5q138 0 225.5 -66.5t107.5 -191.5q64 114 177.5 186t246.5 72z" />
    <glyph glyph-name="n" unicode="n" horiz-adv-x="1220" 
d="M856 1102q196 0 293.5 -121.5t56.5 -331.5l-125 -649h-131l121 629q33 169 -40.5 261.5t-225.5 92.5q-144 0 -253 -89t-142 -228l-129 -666h-131l208 1079h125l-34 -180q69 92 175 147.5t232 55.5z" />
    <glyph glyph-name="o" unicode="o" horiz-adv-x="1243" 
d="M645 -23q-212 0 -342.5 128.5t-130.5 343.5q0 129 48.5 248.5t131.5 208.5t201 142.5t250 53.5q212 0 341.5 -128t129.5 -345q0 -127 -47.5 -246t-129 -208.5t-200 -143.5t-252.5 -54zM659 96q136 0 248 75t173 194.5t61 252.5q0 165 -95.5 265t-254.5 100
q-136 0 -249 -74.5t-175 -193t-62 -250.5q0 -166 97 -267.5t257 -101.5z" />
    <glyph glyph-name="p" unicode="p" horiz-adv-x="1288" 
d="M887 1102q195 0 313.5 -129.5t118.5 -337.5q0 -177 -82.5 -328.5t-225.5 -240.5t-311 -89q-138 0 -235.5 66t-140.5 186l-115 -596h-131l280 1446h123l-41 -213q81 110 198 173t249 63zM705 94q130 0 241 71t175.5 192t64.5 261q0 164 -94 265.5t-248 101.5
q-127 0 -236 -72.5t-173 -196t-64 -265.5q0 -163 91 -260t243 -97z" />
    <glyph glyph-name="q" unicode="q" horiz-adv-x="1288" 
d="M1219 1079h122l-280 -1446h-131l110 570q-79 -105 -191.5 -165.5t-244.5 -60.5q-197 0 -314.5 128.5t-117.5 340.5q0 130 48 250t129 209.5t196 143t243 53.5q148 0 247 -72t136 -201zM643 94q131 0 241.5 74.5t173 197.5t62.5 263q0 164 -89 260t-243 96q-99 0 -189 -43
t-154 -114.5t-102 -167t-38 -197.5q0 -163 92.5 -266t245.5 -103z" />
    <glyph glyph-name="r" unicode="r" horiz-adv-x="653" 
d="M446 889q67 94 168 153.5t217 59.5l-22 -123q-147 -1 -256.5 -90.5t-142.5 -222.5l-129 -666h-131l208 1079h125z" />
    <glyph glyph-name="s" unicode="s" horiz-adv-x="937" 
d="M494 -23q-164 0 -271.5 67.5t-124.5 186.5l113 39q12 -90 93.5 -140t203.5 -50q126 0 207.5 56t81.5 155q0 55 -29.5 96t-77 66t-104.5 46.5t-114.5 45.5t-105 54.5t-77 81t-29.5 118.5q0 135 108 219t281 84q143 0 236 -59t110 -158l-114 -41q-15 77 -78 117t-158 40
q-113 0 -183.5 -52.5t-70.5 -139.5q0 -46 23 -82t61 -57.5t86.5 -43t99 -38t99 -42t86.5 -55.5t61 -78t23 -110q0 -151 -123 -238.5t-313 -87.5z" />
    <glyph glyph-name="t" unicode="t" horiz-adv-x="712" 
d="M571 0q-164 0 -240 100t-42 269l117 596h-197l20 114h117q91 0 109 95l34 180h125l-53 -275h328l-21 -114h-333l-113 -584q-26 -128 25.5 -196t168.5 -68h105l-23 -117h-127z" />
    <glyph glyph-name="u" unicode="u" horiz-adv-x="1200" 
d="M1126 1079h129l-208 -1079h-123l34 188q-68 -95 -172.5 -153t-228.5 -58q-188 0 -284 122t-56 331l127 649h129l-121 -628q-33 -169 39.5 -262t218.5 -93q141 0 251 94.5t138 239.5z" />
    <glyph glyph-name="v" unicode="v" horiz-adv-x="1067" 
d="M1106 1079h147l-651 -1079h-143l-232 1079h131l195 -952z" />
    <glyph glyph-name="w" unicode="w" horiz-adv-x="1523" 
d="M1559 1079h137l-500 -1079h-152l-106 934l-465 -934h-151l-84 1079h127l61 -950l463 950h145l101 -948z" />
    <glyph glyph-name="x" unicode="x" horiz-adv-x="1011" 
d="M1192 1079l-508 -536l313 -543h-137l-266 461l-436 -461h-156l535 559l-301 520h139l254 -440l405 440h158z" />
    <glyph glyph-name="y" unicode="y" horiz-adv-x="1069" 
d="M1106 1079h147l-872 -1446h-133l227 367h-16l-232 1079h131l195 -952z" />
    <glyph glyph-name="z" unicode="z" horiz-adv-x="915" 
d="M1053 1079l-21 -102l-792 -868h649l-23 -109h-821l18 98l795 873h-596l21 108h770z" />
    <glyph glyph-name="braceleft" unicode="{" horiz-adv-x="585" 
d="M459 -207q-121 0 -183 85.5t-32 238.5l61 319q11 46 5.5 78.5t-16.5 53.5t-32.5 33.5t-42.5 17t-47 4.5h-31l21 114h31q71 0 129 45t77 142l68 336q61 307 336 307h35l-21 -113h-20q-78 0 -132.5 -50.5t-72.5 -146.5l-66 -331q-10 -51 -29.5 -92t-39.5 -65t-48.5 -43.5
t-47 -28t-44.5 -17.5q150 -61 113 -246l-61 -315q-19 -98 15.5 -155.5t111.5 -57.5h20l-22 -113h-35z" />
    <glyph glyph-name="bar" unicode="|" horiz-adv-x="444" 
d="M133 -174l318 1636h104l-317 -1636h-105z" />
    <glyph glyph-name="braceright" unicode="}" horiz-adv-x="585" 
d="M6 -207l25 113h20q77 0 131 50t72 146l65 332q11 52 31 93.5t40.5 66t49 43.5t46.5 27t42 16q-11 5 -20 9.5t-22.5 12.5t-23.5 18t-21 23.5t-17.5 31.5t-11 40t-3.5 50.5t7 60.5l61 317q19 97 -15.5 154t-111.5 57h-20l22 113h35q121 0 183 -85.5t32 -238.5l-61 -319
q-11 -46 -5 -79t17.5 -54t33.5 -33t43 -16.5t46 -4.5h29l-21 -114h-31q-71 0 -130 -45t-79 -142l-65 -334q-61 -309 -338 -309h-35z" />
    <glyph glyph-name="asciitilde" unicode="~" horiz-adv-x="1044" 
d="M823 500q-60 0 -113 17.5t-85.5 38.5t-79 38.5t-96.5 17.5q-44 0 -86 -22.5t-72 -59.5l-60 78q86 115 222 115q60 0 112 -17.5t84.5 -39t79 -39t96.5 -17.5q44 0 87 22.5t73 59.5l59 -78q-86 -114 -221 -114z" />
    <glyph glyph-name="uni00A0" unicode="&#xa0;" horiz-adv-x="466" 
 />
    <glyph glyph-name="exclamdown" unicode="&#xa1;" horiz-adv-x="446" 
d="M403 895q-41 0 -65.5 25t-24.5 65q0 46 32 78.5t81 32.5q39 0 64.5 -24.5t25.5 -63.5q0 -46 -33 -79.5t-80 -33.5zM72 -367l233 1041h103l-185 -1041h-151z" />
    <glyph glyph-name="cent" unicode="&#xa2;" horiz-adv-x="1050" 
d="M629 299q108 0 194 55t138 162l104 -43q-64 -134 -171 -207.5t-243 -81.5l-35 -184h-108l35 188q-156 22 -246 133.5t-90 278.5q0 146 68 274t188.5 208t265.5 89l37 183h108l-36 -189q124 -19 203 -95t92 -191l-121 -41q-12 100 -82 158.5t-182 58.5q-115 0 -211 -62.5
t-149.5 -163.5t-53.5 -215q0 -140 80 -227.5t215 -87.5z" />
    <glyph glyph-name="sterling" unicode="&#xa3;" horiz-adv-x="1071" 
d="M858 1378q148 0 245.5 -81.5t108.5 -211.5l-122 -43q-9 102 -71.5 160t-164.5 58q-119 0 -203.5 -79t-109.5 -214l-45 -238h448l-22 -115h-449l-96 -497h620l-22 -117h-754l121 614h-162l23 115h162l49 252q35 184 155 290.5t289 106.5z" />
    <glyph glyph-name="currency" unicode="&#xa4;" horiz-adv-x="1130" 
d="M1085 946q48 -88 48 -196q0 -96 -38.5 -189.5t-107.5 -167.5l90 -114l-80 -68l-88 115q-131 -93 -284 -93q-157 0 -260 93l-140 -115l-65 82l139 117q-47 83 -47 194q0 97 38 191t107 166l-90 114l80 68l90 -115q129 92 285 92t258 -92l139 115l64 -82zM641 342
q104 0 191.5 58.5t134.5 149t47 187.5q0 123 -75 199t-196 76q-104 0 -191 -59t-134 -149.5t-47 -187.5q0 -122 74.5 -198t195.5 -76z" />
    <glyph glyph-name="yen" unicode="&#xa5;" horiz-adv-x="1126" 
d="M1331 1354l-577 -758h250l-19 -92h-264l-37 -187h264l-18 -92h-264l-43 -225h-129l43 225h-265l17 92h266l35 187h-262l16 92h254l-283 758h134l241 -672l492 672h149z" />
    <glyph glyph-name="brokenbar" unicode="&#xa6;" horiz-adv-x="444" 
d="M324 815l127 647h104l-127 -647h-104zM133 -174l125 649h104l-124 -649h-105z" />
    <glyph glyph-name="section" unicode="&#xa7;" horiz-adv-x="970" 
d="M485 1137q0 -54 28 -94t73.5 -65t100 -47t109 -47.5t100 -58t73.5 -86.5t28 -125q0 -106 -61.5 -181t-169.5 -111q102 -81 102 -211q0 -150 -120 -238t-299 -88q-154 0 -255 68t-118 186l110 39q12 -89 88 -140t185 -51q118 0 198 57t80 156q0 56 -28 98t-73 68.5
t-99 49.5t-108 48.5t-99 56.5t-73 82.5t-28 119.5q0 106 66.5 182.5t181.5 107.5q-121 81 -121 215q0 136 106 221t275 85q138 0 229.5 -58.5t108.5 -156.5l-114 -43q-17 79 -77 118t-149 39q-109 0 -179.5 -53.5t-70.5 -142.5zM666 381q91 21 146.5 79t55.5 140
q0 50 -18 87.5t-61.5 67.5t-72 44.5t-93.5 41.5l-21 9q-108 -2 -179 -60.5t-71 -148.5q0 -37 14 -68t34 -52t55.5 -42t63.5 -33.5t74 -32t73 -32.5z" />
    <glyph glyph-name="dieresis" unicode="&#xa8;" horiz-adv-x="692" 
d="M428 1296q-45 0 -72.5 27t-27.5 74t39 84t90 37q43 0 70.5 -27t27.5 -74q0 -48 -38 -84.5t-89 -36.5zM799 1296q-44 0 -71.5 27.5t-27.5 73.5q0 48 38 84.5t89 36.5q44 0 71.5 -27.5t27.5 -73.5q0 -48 -38 -84.5t-89 -36.5z" />
    <glyph glyph-name="copyright" unicode="&#xa9;" horiz-adv-x="1525" 
d="M797 -23q-171 0 -306 77.5t-209.5 214.5t-74.5 309q0 126 40 246.5t112.5 219.5t168.5 174.5t215 117.5t244 42q171 0 305 -76.5t208.5 -213t74.5 -308.5q0 -159 -62.5 -307t-167 -257t-248.5 -174t-300 -65zM805 70q132 0 256.5 57.5t216 152.5t146.5 224.5t55 267.5
q0 224 -140 368t-360 144q-134 0 -259 -57.5t-216 -153t-146 -224t-55 -265.5q0 -222 141 -368t361 -146zM842 281q-149 0 -238.5 93t-89.5 242q0 185 129.5 321t314.5 136q122 0 204.5 -64t92.5 -169l-98 -35q-8 80 -62.5 125t-144.5 45q-140 0 -233.5 -103.5t-93.5 -244.5
q0 -115 60 -181.5t171 -66.5q177 0 260 174l88 -39q-114 -233 -360 -233z" />
    <glyph glyph-name="ordfeminine" unicode="&#xaa;" horiz-adv-x="784" 
d="M909 1669h78l-117 -590h-75l22 115q-44 -60 -106.5 -94.5t-135.5 -34.5q-106 0 -175.5 71t-69.5 187q0 141 98 250.5t236 109.5q80 0 137.5 -40t81.5 -107zM600 1157q100 0 168 78t68 178q0 80 -46.5 130t-127.5 50q-90 0 -162 -76t-72 -182q0 -78 48.5 -128t123.5 -50z
" />
    <glyph glyph-name="guillemotleft" unicode="&#xab;" horiz-adv-x="868" 
d="M594 854l-293 -348l148 -330h-121l-152 340l285 338h133zM922 854l-293 -348l147 -330h-121l-149 340l282 338h134z" />
    <glyph glyph-name="logicalnot" unicode="&#xac;" horiz-adv-x="1073" 
d="M1083 752l-92 -473h-123l68 358h-703l23 115h827z" />
    <glyph glyph-name="registered" unicode="&#xae;" horiz-adv-x="985" 
d="M754 1489q157 0 255.5 -98.5t98.5 -253.5q0 -126 -62.5 -235t-169.5 -173.5t-233 -64.5q-159 0 -256.5 99t-97.5 255q0 124 62 232t169.5 173.5t233.5 65.5zM649 727q160 0 275.5 121t115.5 282q0 127 -81.5 210t-210.5 83q-104 0 -195 -55.5t-144 -148t-53 -197.5
q0 -127 81.5 -211t211.5 -84zM762 1317q59 0 95 -30.5t36 -82.5q0 -61 -45 -99t-115 -38h-18l114 -205h-67l-109 205h-24l-39 -205h-62l88 455h146zM733 1116q44 0 71 22.5t27 57.5q0 70 -79 70h-84l-29 -150h94z" />
    <glyph glyph-name="macron" unicode="&#xaf;" horiz-adv-x="614" 
d="M322 1354l18 102h557l-18 -102h-557z" />
    <glyph glyph-name="degree" unicode="&#xb0;" horiz-adv-x="716" 
d="M549 877q-111 0 -181.5 67.5t-70.5 177.5q0 129 93 219.5t222 90.5q110 0 181 -68.5t71 -177.5q0 -128 -92.5 -218.5t-222.5 -90.5zM555 963q87 0 149 63t62 152q0 73 -45 119t-115 46q-87 0 -150 -61.5t-63 -151.5q0 -73 46 -120t116 -47z" />
    <glyph glyph-name="plusminus" unicode="&#xb1;" horiz-adv-x="956" 
d="M690 803h357l-23 -111h-354l-80 -403h-119l78 403h-356l22 111h354l76 387h121zM74 78l22 112h832l-23 -112h-831z" />
    <glyph glyph-name="uni00B2" unicode="&#xb2;" horiz-adv-x="673" 
d="M602 981l-213 -193h320l-15 -77h-450l12 59l276 252q86 78 124 127t38 102q0 47 -30 75t-80 28q-106 0 -156 -119l-80 29q76 170 250 170q84 0 137 -46t53 -122q0 -73 -44 -135.5t-142 -149.5z" />
    <glyph glyph-name="uni00B3" unicode="&#xb3;" horiz-adv-x="647" 
d="M809 1423l-14 -73l-238 -224q82 -7 129 -57.5t47 -130.5q0 -102 -76.5 -171t-191.5 -69q-89 0 -153 46t-70 112l88 33q6 -51 44 -81t95 -30q74 0 123 47t49 117q0 58 -37 91.5t-102 33.5h-60l13 61l237 220h-323l14 75h426z" />
    <glyph glyph-name="acute" unicode="&#xb4;" horiz-adv-x="489" 
d="M356 1241l-47 80l447 254l51 -92z" />
    <glyph glyph-name="paragraph" unicode="&#xb6;" horiz-adv-x="1200" 
d="M1288 1423l-315 -1628h-82l295 1514h-99l-294 -1514h-80l293 1514h-99l-133 -691h-141q-182 0 -286.5 92t-104.5 253q0 194 143 327t365 133h538z" />
    <glyph glyph-name="periodcentered" unicode="&#xb7;" horiz-adv-x="436" 
d="M332 555q-40 0 -65 25t-25 65q0 45 32.5 78t79.5 33q40 0 66 -25t26 -63q0 -45 -33 -79t-81 -34z" />
    <glyph glyph-name="cedilla" unicode="&#xb8;" horiz-adv-x="499" 
d="M285 -117q65 -9 105 -57t40 -115q0 -86 -68.5 -144.5t-173.5 -58.5q-73 0 -126.5 28.5t-79.5 70.5l61 55q40 -74 137 -74q67 0 108.5 36t41.5 91q0 52 -32.5 86.5t-88.5 34.5h-23l-10 21l100 161h89z" />
    <glyph glyph-name="uni00B9" unicode="&#xb9;" horiz-adv-x="542" 
d="M621 1423l-123 -630h112l-16 -82h-348l16 82h141l89 450h-140l17 80h137l20 100h95z" />
    <glyph glyph-name="ordmasculine" unicode="&#xba;" horiz-adv-x="741" 
d="M598 1065q-120 0 -194 73t-74 195q0 142 100.5 247.5t243.5 105.5q119 0 192.5 -75t73.5 -196q0 -143 -99 -246.5t-243 -103.5zM608 1153q98 0 168 75t70 175q0 86 -51 138t-133 52q-98 0 -167 -75t-69 -175q0 -84 51 -137t131 -53z" />
    <glyph glyph-name="guillemotright" unicode="&#xbb;" horiz-adv-x="868" 
d="M410 854l149 -338l-283 -340h-133l291 350l-145 328h121zM737 854l150 -338l-283 -340h-133l291 348l-146 330h121z" />
    <glyph glyph-name="onequarter" unicode="&#xbc;" horiz-adv-x="1261" 
d="M1262 1423h104l-1047 -1423h-104zM217 711l14 82h142l88 450h-137l16 80h135l21 100h94l-123 -630h113l-15 -82h-348zM1204 713h90l-92 -473h84l-12 -72h-86l-33 -168h-90l33 168h-340l12 65zM860 240h254l68 356z" />
    <glyph glyph-name="onehalf" unicode="&#xbd;" horiz-adv-x="1327" 
d="M1253 1423h105l-1047 -1423h-102zM217 711l14 82h142l88 450h-137l16 80h135l21 100h94l-123 -630h113l-15 -82h-348zM1221 270l-213 -192h321l-14 -78h-451l10 59l277 252q85 78 123.5 127.5t38.5 102.5q0 47 -30.5 74.5t-78.5 27.5q-105 0 -155 -119l-80 29
q73 170 248 170q84 0 137 -46t53 -122q0 -73 -44 -136.5t-142 -148.5z" />
    <glyph glyph-name="threequarters" unicode="&#xbe;" horiz-adv-x="1277" 
d="M444 698q-89 0 -153.5 46t-69.5 112l88 33q4 -51 42.5 -81t97.5 -30q74 0 123 47t49 117q0 57 -37.5 91t-102.5 34h-59l10 61l238 220h-322l14 75h424l-14 -73l-235 -224q80 -8 127 -58.5t47 -129.5q0 -102 -76.5 -171t-190.5 -69zM1292 1423h105l-1047 -1423h-104z
M1208 713h90l-92 -473h84l-12 -72h-86l-33 -168h-90l33 168h-340l12 65zM864 240h254l68 356z" />
    <glyph glyph-name="questiondown" unicode="&#xbf;" horiz-adv-x="870" 
d="M670 895q-39 0 -64.5 24.5t-25.5 63.5q0 46 32.5 79.5t79.5 33.5q40 0 65 -24t25 -64q0 -46 -32.5 -79.5t-79.5 -33.5zM356 -389q-144 0 -233.5 75t-89.5 210q0 69 25.5 129t67 105t92.5 87t105 85t101.5 88t84.5 106.5t52 132.5l10 45h119l-14 -62q-17 -78 -54 -145
t-82.5 -113.5t-96.5 -88.5t-98 -78.5t-86 -74t-62 -85.5t-23 -103q0 -92 55 -140t146 -48q107 0 184 62.5t119 168.5l113 -37q-56 -147 -168 -233t-267 -86z" />
    <glyph glyph-name="Agrave" unicode="&#xc0;" horiz-adv-x="1263" 
d="M1202 1663l-35 -90l-499 182l37 105zM1079 0l-73 442h-605l-243 -442h-140l791 1423h158l237 -1423h-125zM461 551h528l-123 739z" />
    <glyph glyph-name="Aacute" unicode="&#xc1;" horiz-adv-x="1263" 
d="M1241 1753l-510 -178l-31 90l508 190zM809 1423h158l237 -1423h-125l-73 442h-605l-243 -442h-140zM461 551h528l-123 739z" />
    <glyph glyph-name="Acircumflex" unicode="&#xc2;" horiz-adv-x="1263" 
d="M971 1759l-221 -180h-134l308 266h108l199 -266h-115zM809 1423h158l237 -1423h-125l-73 442h-605l-243 -442h-140zM461 551h528l-123 739z" />
    <glyph glyph-name="Atilde" unicode="&#xc3;" horiz-adv-x="1263" 
d="M1206 1808l86 -39q-28 -79 -81 -126.5t-130 -47.5q-43 0 -80.5 16.5t-59.5 37t-53.5 37t-64.5 16.5q-44 0 -72 -25.5t-46 -77.5l-91 41q68 172 211 172q42 0 78 -16.5t58 -36.5t54.5 -36.5t67.5 -16.5q84 0 123 102zM809 1423h158l237 -1423h-125l-73 442h-605l-243 -442
h-140zM461 551h528l-123 739z" />
    <glyph glyph-name="Adieresis" unicode="&#xc4;" horiz-adv-x="1263" 
d="M743 1602q-43 0 -70.5 26.5t-27.5 71.5q0 51 37 87t90 36q44 0 70 -28t26 -73q0 -51 -37 -85.5t-88 -34.5zM1153 1823q44 0 70 -28t26 -73q0 -51 -37 -85.5t-88 -34.5q-43 0 -70.5 26.5t-27.5 71.5q0 51 37 87t90 36zM809 1423h158l237 -1423h-125l-73 442h-605
l-243 -442h-140zM461 551h528l-123 739z" />
    <glyph glyph-name="Aring" unicode="&#xc5;" horiz-adv-x="1263" 
d="M922 1485q-77 0 -123.5 47.5t-46.5 122.5q0 86 64.5 147.5t154.5 61.5q77 0 124.5 -48t47.5 -122q0 -86 -65.5 -147.5t-155.5 -61.5zM963 1782q-52 0 -88.5 -34.5t-36.5 -86.5q0 -41 24.5 -67.5t67.5 -26.5q51 0 88 35t37 88q0 39 -25 65.5t-67 26.5zM1079 0l-73 442
h-605l-243 -442h-140l791 1423h158l237 -1423h-125zM461 551h528l-123 739z" />
    <glyph glyph-name="AE" unicode="&#xc6;" horiz-adv-x="1826" 
d="M1989 1307h-711l-98 -508h645l-23 -115h-645l-110 -567h722l-22 -117h-854l86 438h-530l-330 -438h-144l1059 1423h977zM535 551h464l148 756h-43z" />
    <glyph glyph-name="Ccedilla" unicode="&#xc7;" horiz-adv-x="1492" 
d="M823 102q183 0 310.5 89t222.5 276l117 -53q-109 -216 -267 -325t-381 -112l-55 -94q65 -9 105 -57t40 -115q0 -86 -68 -144.5t-173 -58.5q-73 0 -127 28.5t-80 70.5l61 55q40 -74 138 -74q67 0 109 36t42 91q0 53 -33 87t-90 34h-22l-10 21l77 125q-238 23 -383 188
t-145 412q0 137 37 266t108 236.5t166.5 189t220 127t261.5 45.5q230 0 382.5 -127t182.5 -322l-131 -45q-32 169 -148.5 269t-302.5 100q-139 0 -260 -60t-204 -160.5t-130 -232.5t-47 -274q0 -218 131.5 -355t345.5 -137z" />
    <glyph glyph-name="Egrave" unicode="&#xc8;" horiz-adv-x="1138" 
d="M1184 1663l-35 -90l-500 182l37 105zM1268 1307h-713l-98 -508h649l-25 -115h-647l-110 -567h725l-21 -117h-858l276 1423h844z" />
    <glyph glyph-name="Eacute" unicode="&#xc9;" horiz-adv-x="1138" 
d="M1198 1753l-510 -178l-31 90l508 190zM1268 1307h-713l-98 -508h649l-25 -115h-647l-110 -567h725l-21 -117h-858l276 1423h844z" />
    <glyph glyph-name="Ecircumflex" unicode="&#xca;" horiz-adv-x="1138" 
d="M936 1759l-219 -180h-135l309 266h106l201 -266h-117zM1268 1307h-713l-98 -508h649l-25 -115h-647l-110 -567h725l-21 -117h-858l276 1423h844z" />
    <glyph glyph-name="Edieresis" unicode="&#xcb;" horiz-adv-x="1138" 
d="M705 1602q-43 0 -70 26.5t-27 71.5q0 51 37 87t88 36q45 0 71.5 -28t26.5 -73q0 -50 -37 -85t-89 -35zM1085 1602q-42 0 -69 26.5t-27 71.5q0 51 37 87t88 36q45 0 71.5 -28t26.5 -73q0 -50 -37.5 -85t-89.5 -35zM1268 1307h-713l-98 -508h649l-25 -115h-647l-110 -567
h725l-21 -117h-858l276 1423h844z" />
    <glyph glyph-name="Igrave" unicode="&#xcc;" horiz-adv-x="491" 
d="M784 1573l-501 182l39 105l497 -197zM170 0l276 1423h132l-277 -1423h-131z" />
    <glyph glyph-name="Iacute" unicode="&#xcd;" horiz-adv-x="491" 
d="M348 1575l-31 90l508 190l33 -102zM170 0l276 1423h132l-277 -1423h-131z" />
    <glyph glyph-name="Icircumflex" unicode="&#xce;" horiz-adv-x="491" 
d="M848 1579h-115l-145 180l-221 -180h-134l308 266h106zM170 0l276 1423h132l-277 -1423h-131z" />
    <glyph glyph-name="Idieresis" unicode="&#xcf;" horiz-adv-x="491" 
d="M360 1602q-43 0 -70.5 26.5t-27.5 71.5q0 51 37 87t90 36q44 0 70 -28t26 -73q0 -51 -37 -85.5t-88 -34.5zM741 1602q-43 0 -70.5 26.5t-27.5 71.5q0 51 37 87t90 36q44 0 70 -28t26 -73q0 -51 -37 -85.5t-88 -34.5zM170 0l276 1423h132l-277 -1423h-131z" />
    <glyph glyph-name="Eth" unicode="&#xd0;" horiz-adv-x="1480" 
d="M911 1423q267 0 427.5 -165.5t160.5 -440.5q0 -167 -62.5 -318t-169 -260.5t-256.5 -174t-317 -64.5h-510l135 692h-176l19 96h176l123 635h450zM707 117q177 0 328 94.5t239 255.5t88 348q0 226 -126 359t-341 133h-326l-100 -519h293l-19 -96h-292l-113 -575h369z" />
    <glyph glyph-name="Ntilde" unicode="&#xd1;" horiz-adv-x="1404" 
d="M870 1702q-44 0 -72 -25.5t-46 -77.5l-90 41q68 172 210 172q42 0 78 -16.5t58 -36.5t54.5 -36.5t67.5 -16.5q84 0 123 102l86 -39q-28 -79 -81 -126.5t-130 -47.5q-43 0 -80.5 16.5t-59.5 37t-53.5 37t-64.5 16.5zM1335 1423h129l-276 -1423h-109l-544 1194l-234 -1194
h-131l276 1423h111l545 -1194z" />
    <glyph glyph-name="Ograve" unicode="&#xd2;" horiz-adv-x="1611" 
d="M1343 1573l-501 182l39 105l497 -197zM821 -23q-275 0 -443.5 175t-168.5 458q0 225 108 417.5t293.5 305.5t403.5 113q274 0 442 -173.5t168 -457.5q0 -170 -64 -325.5t-171.5 -267.5t-256 -178.5t-311.5 -66.5zM831 102q132 0 254 56.5t210.5 151.5t141 225.5
t52.5 271.5q0 231 -133 372.5t-352 141.5q-133 0 -255 -56.5t-210 -151t-140.5 -224.5t-52.5 -271q0 -232 133 -374t352 -142z" />
    <glyph glyph-name="Oacute" unicode="&#xd3;" horiz-adv-x="1611" 
d="M887 1575l-31 90l508 190l33 -102zM821 -23q-275 0 -443.5 175t-168.5 458q0 225 108 417.5t293.5 305.5t403.5 113q274 0 442 -173.5t168 -457.5q0 -170 -64 -325.5t-171.5 -267.5t-256 -178.5t-311.5 -66.5zM831 102q132 0 254 56.5t210.5 151.5t141 225.5t52.5 271.5
q0 231 -133 372.5t-352 141.5q-133 0 -255 -56.5t-210 -151t-140.5 -224.5t-52.5 -271q0 -232 133 -374t352 -142z" />
    <glyph glyph-name="Ocircumflex" unicode="&#xd4;" horiz-adv-x="1611" 
d="M1116 1759l-219 -180h-135l309 266h107l198 -266h-114zM1014 1446q274 0 442 -173.5t168 -457.5q0 -170 -64 -325.5t-171.5 -267.5t-256 -178.5t-311.5 -66.5q-275 0 -443.5 175t-168.5 458q0 225 108 417.5t293.5 305.5t403.5 113zM831 102q132 0 254 56.5t210.5 151.5
t141 225.5t52.5 271.5q0 231 -133 372.5t-352 141.5q-133 0 -255 -56.5t-210 -151t-140.5 -224.5t-52.5 -271q0 -232 133 -374t352 -142z" />
    <glyph glyph-name="Otilde" unicode="&#xd5;" horiz-adv-x="1611" 
d="M1229 1595q-43 0 -80.5 16.5t-59.5 37t-53.5 37t-64.5 16.5q-83 0 -119 -103l-90 41q30 77 83 124.5t128 47.5q42 0 78 -16.5t58 -36.5t54.5 -36.5t67.5 -16.5q84 0 123 102l86 -39q-28 -79 -81 -126.5t-130 -47.5zM821 -23q-275 0 -443.5 175t-168.5 458
q0 225 108 417.5t293.5 305.5t403.5 113q274 0 442 -173.5t168 -457.5q0 -170 -64 -325.5t-171.5 -267.5t-256 -178.5t-311.5 -66.5zM831 102q132 0 254 56.5t210.5 151.5t141 225.5t52.5 271.5q0 231 -133 372.5t-352 141.5q-133 0 -255 -56.5t-210 -151t-140.5 -224.5
t-52.5 -271q0 -232 133 -374t352 -142z" />
    <glyph glyph-name="Odieresis" unicode="&#xd6;" horiz-adv-x="1611" 
d="M893 1602q-43 0 -70.5 26.5t-27.5 71.5q0 51 37 87t90 36q44 0 71 -28t27 -73q0 -50 -37.5 -85t-89.5 -35zM1274 1602q-43 0 -70.5 26.5t-27.5 71.5q0 51 38 87t89 36q44 0 71 -28t27 -73q0 -50 -37.5 -85t-89.5 -35zM821 -23q-275 0 -443.5 175t-168.5 458
q0 225 108 417.5t293.5 305.5t403.5 113q274 0 442 -173.5t168 -457.5q0 -170 -64 -325.5t-171.5 -267.5t-256 -178.5t-311.5 -66.5zM831 102q132 0 254 56.5t210.5 151.5t141 225.5t52.5 271.5q0 231 -133 372.5t-352 141.5q-133 0 -255 -56.5t-210 -151t-140.5 -224.5
t-52.5 -271q0 -232 133 -374t352 -142z" />
    <glyph glyph-name="multiply" unicode="&#xd7;" horiz-adv-x="962" 
d="M1036 926l-360 -310l235 -303l-88 -71l-233 301l-361 -307l-67 83l360 310l-235 303l86 74l235 -304l359 310z" />
    <glyph glyph-name="Oslash" unicode="&#xd8;" horiz-adv-x="1615" 
d="M1704 1370l-184 -172q108 -157 108 -383q0 -170 -64 -325.5t-171.5 -267.5t-256 -178.5t-311.5 -66.5q-275 0 -440 170l-186 -172l-66 78l189 174q-109 159 -109 383q0 168 63.5 322.5t171 267t256.5 179.5t312 67q270 0 440 -170l182 170zM348 618q0 -169 76 -296
l930 862q-134 137 -348 137q-133 0 -255 -56.5t-210 -151t-140.5 -224.5t-52.5 -271zM1491 807q0 170 -76 297l-930 -864q135 -138 349 -138q133 0 255 56.5t210 152t140 225.5t52 271z" />
    <glyph glyph-name="Ugrave" unicode="&#xd9;" horiz-adv-x="1372" 
d="M1212 1573l-501 182l39 105l497 -197zM686 -23q-239 0 -355.5 158t-68.5 406l170 882h131l-170 -882q-40 -201 46 -321t266 -120q170 0 284.5 105t151.5 295l178 923h131l-178 -923q-47 -251 -200 -387t-386 -136z" />
    <glyph glyph-name="Uacute" unicode="&#xda;" horiz-adv-x="1372" 
d="M762 1575l-31 90l506 190l33 -102zM686 -23q-239 0 -355.5 158t-68.5 406l170 882h131l-170 -882q-40 -201 46 -321t266 -120q170 0 284.5 105t151.5 295l178 923h131l-178 -923q-47 -251 -200 -387t-386 -136z" />
    <glyph glyph-name="Ucircumflex" unicode="&#xdb;" horiz-adv-x="1372" 
d="M997 1759l-219 -180h-135l309 266h107l201 -266h-117zM1319 1423h131l-178 -923q-47 -251 -200 -387t-386 -136q-239 0 -355.5 158t-68.5 406l170 882h131l-170 -882q-40 -201 46 -321t266 -120q170 0 284.5 105t151.5 295z" />
    <glyph glyph-name="Udieresis" unicode="&#xdc;" horiz-adv-x="1372" 
d="M780 1602q-43 0 -69.5 26.5t-26.5 71.5q0 51 37 87t88 36q45 0 71.5 -28t26.5 -73q0 -50 -37.5 -85t-89.5 -35zM1161 1602q-42 0 -69 26.5t-27 71.5q0 51 37 87t88 36q45 0 71.5 -28t26.5 -73q0 -50 -37.5 -85t-89.5 -35zM686 -23q-239 0 -355.5 158t-68.5 406l170 882
h131l-170 -882q-40 -201 46 -321t266 -120q170 0 284.5 105t151.5 295l178 923h131l-178 -923q-47 -251 -200 -387t-386 -136z" />
    <glyph glyph-name="Yacute" unicode="&#xdd;" horiz-adv-x="1234" 
d="M1190 1753l-510 -178l-31 90l508 190zM1456 1423l-682 -839l-112 -584h-132l115 592l-352 831h133l303 -723l569 723h158z" />
    <glyph glyph-name="Thorn" unicode="&#xde;" horiz-adv-x="1193" 
d="M883 1128q195 0 294.5 -107t73.5 -280q-25 -192 -167 -305.5t-349 -113.5h-373l-61 -322h-131l276 1423h132l-58 -295h363zM1116 727q22 129 -45 207t-213 78h-360l-111 -572h361q151 0 248.5 78t119.5 209z" />
    <glyph glyph-name="germandbls" unicode="&#xdf;" horiz-adv-x="1210" 
d="M723 -23q-141 0 -223.5 68.5t-93.5 177.5l55 90q5 -101 71 -163t189 -62q160 0 257.5 96.5t100.5 245.5q3 141 -80 226t-241 85l20 113q90 0 162.5 27t117 72.5t68 99.5t25.5 112q3 106 -70 174t-200 68q-156 0 -260 -93.5t-138 -266.5l-202 -1047h-131l200 1040
q44 226 191 353t366 127q188 0 288 -97.5t91 -248.5q-4 -136 -98 -237t-236 -132q119 -30 190.5 -134.5t65.5 -252.5q-9 -198 -143.5 -319.5t-341.5 -121.5z" />
    <glyph glyph-name="agrave" unicode="&#xe0;" horiz-adv-x="1323" 
d="M1112 1315l-55 -80l-408 248l60 90zM1219 1079h122l-208 -1079h-123l43 217q-82 -111 -197.5 -175.5t-251.5 -64.5q-197 0 -314.5 128.5t-117.5 340.5q0 130 48 250t129 209.5t196 143t243 53.5q147 0 245.5 -72t137.5 -201zM643 94q131 0 241.5 74.5t173 197.5t62.5 263
q0 164 -89 260t-243 96q-99 0 -189 -43t-154 -114.5t-102 -167t-38 -197.5q0 -163 92.5 -266t245.5 -103z" />
    <glyph glyph-name="aacute" unicode="&#xe1;" horiz-adv-x="1323" 
d="M1157 1483l-450 -242l-45 80l446 254zM1219 1079h122l-208 -1079h-123l43 217q-82 -111 -197.5 -175.5t-251.5 -64.5q-197 0 -314.5 128.5t-117.5 340.5q0 130 48 250t129 209.5t196 143t243 53.5q147 0 245.5 -72t137.5 -201zM643 94q131 0 241.5 74.5t173 197.5
t62.5 263q0 164 -89 260t-243 96q-99 0 -189 -43t-154 -114.5t-102 -167t-38 -197.5q0 -163 92.5 -266t245.5 -103z" />
    <glyph glyph-name="acircumflex" unicode="&#xe2;" horiz-adv-x="1323" 
d="M934 1475l-232 -220h-131l318 301h106l201 -301h-111zM1219 1079h122l-208 -1079h-123l43 217q-82 -111 -197.5 -175.5t-251.5 -64.5q-197 0 -314.5 128.5t-117.5 340.5q0 130 48 250t129 209.5t196 143t243 53.5q147 0 245.5 -72t137.5 -201zM643 94q131 0 241.5 74.5
t173 197.5t62.5 263q0 164 -89 260t-243 96q-99 0 -189 -43t-154 -114.5t-102 -167t-38 -197.5q0 -163 92.5 -266t245.5 -103z" />
    <glyph glyph-name="atilde" unicode="&#xe3;" horiz-adv-x="1323" 
d="M776 1405q-78 0 -114 -102l-91 40q29 77 81.5 125t125.5 48q41 0 76.5 -16.5t56.5 -37t52 -37t65 -16.5q82 0 121 102l86 -38q-63 -175 -207 -175q-35 0 -64.5 11t-50.5 27t-41 31.5t-44.5 26.5t-51.5 11zM1219 1079h122l-208 -1079h-123l43 217q-82 -111 -197.5 -175.5
t-251.5 -64.5q-197 0 -314.5 128.5t-117.5 340.5q0 130 48 250t129 209.5t196 143t243 53.5q147 0 245.5 -72t137.5 -201zM643 94q131 0 241.5 74.5t173 197.5t62.5 263q0 164 -89 260t-243 96q-99 0 -189 -43t-154 -114.5t-102 -167t-38 -197.5q0 -163 92.5 -266
t245.5 -103z" />
    <glyph glyph-name="adieresis" unicode="&#xe4;" horiz-adv-x="1323" 
d="M707 1296q-45 0 -73 27t-28 74t39 84t90 37q44 0 71.5 -27.5t27.5 -73.5q0 -48 -38 -84.5t-89 -36.5zM1077 1296q-44 0 -72 27.5t-28 73.5q0 47 39 84t90 37q44 0 71 -27t27 -74q0 -48 -38 -84.5t-89 -36.5zM1219 1079h122l-208 -1079h-123l43 217
q-82 -111 -197.5 -175.5t-251.5 -64.5q-197 0 -314.5 128.5t-117.5 340.5q0 130 48 250t129 209.5t196 143t243 53.5q147 0 245.5 -72t137.5 -201zM643 94q131 0 241.5 74.5t173 197.5t62.5 263q0 164 -89 260t-243 96q-99 0 -189 -43t-154 -114.5t-102 -167t-38 -197.5
q0 -163 92.5 -266t245.5 -103z" />
    <glyph glyph-name="aring" unicode="&#xe5;" horiz-adv-x="1323" 
d="M860 1198q-77 0 -124.5 48t-47.5 122q0 86 65.5 147.5t155.5 61.5q77 0 123.5 -47.5t46.5 -122.5q0 -86 -64.5 -147.5t-154.5 -61.5zM899 1495q-50 0 -86.5 -34.5t-36.5 -86.5q0 -41 24.5 -67.5t67.5 -26.5q51 0 88 35t37 86q0 41 -25.5 67.5t-68.5 26.5zM1219 1079h122
l-208 -1079h-123l43 217q-82 -111 -197.5 -175.5t-251.5 -64.5q-197 0 -314.5 128.5t-117.5 340.5q0 130 48 250t129 209.5t196 143t243 53.5q147 0 245.5 -72t137.5 -201zM643 94q131 0 241.5 74.5t173 197.5t62.5 263q0 164 -89 260t-243 96q-99 0 -189 -43t-154 -114.5
t-102 -167t-38 -197.5q0 -163 92.5 -266t245.5 -103z" />
    <glyph glyph-name="ae" unicode="&#xe6;" horiz-adv-x="2127" 
d="M1751 1102q186 0 302 -118.5t116 -301.5q0 -35 -9 -91.5t-18 -86.5h-895q-2 -16 -2 -49q0 -165 98.5 -267t251.5 -102q257 0 390 244l90 -62q-174 -291 -496 -291q-155 0 -255.5 84t-135.5 228l-55 -289h-123l41 215q-81 -110 -196.5 -174t-250.5 -64
q-197 0 -314.5 128.5t-117.5 340.5q0 130 48 250t129 209.5t196 143t243 53.5q147 0 245.5 -70t137.5 -198l48 245h122l-43 -221q79 113 196.5 178.5t256.5 65.5zM1260 590h782q8 41 8 88q0 148 -83.5 234.5t-229.5 86.5q-174 0 -305 -116t-172 -293zM643 94
q131 0 241.5 74.5t173 197.5t62.5 263q0 164 -89 260t-243 96q-99 0 -189 -43t-154 -114.5t-102 -167t-38 -197.5q0 -163 92.5 -266t245.5 -103z" />
    <glyph glyph-name="ccedilla" unicode="&#xe7;" horiz-adv-x="1175" 
d="M651 96q125 0 225.5 66t161.5 192l109 -47q-77 -156 -200.5 -239t-282.5 -91l-56 -94q65 -9 105.5 -57t40.5 -115q0 -86 -68.5 -144.5t-173.5 -58.5q-73 0 -127.5 28.5t-79.5 70.5l62 55q40 -74 137 -74q67 0 109 36t42 91q0 53 -33 87t-90 34h-22l-10 21l78 123
q-186 20 -296 149t-110 324q0 128 49.5 247t133 207.5t201 141.5t247.5 53q172 0 288.5 -92t131.5 -242l-125 -41q-12 116 -96 186t-214 70q-133 0 -245.5 -73t-175 -191.5t-62.5 -251.5q0 -164 94 -267.5t252 -103.5z" />
    <glyph glyph-name="egrave" unicode="&#xe8;" horiz-adv-x="1214" 
d="M1059 1313l-53 -80l-408 248l59 90zM795 1102q191 0 308.5 -118t117.5 -302q0 -37 -9 -94t-18 -84h-891q-2 -16 -2 -49q0 -165 96.5 -265t249.5 -100q255 0 385 242l94 -64q-86 -144 -206 -217.5t-289 -73.5q-200 0 -329.5 131.5t-129.5 333.5q0 180 82.5 331.5t226 240
t314.5 88.5zM319 602h773q6 41 6 76q0 148 -82 231.5t-228 83.5q-170 0 -298.5 -110t-170.5 -281z" />
    <glyph glyph-name="eacute" unicode="&#xe9;" horiz-adv-x="1214" 
d="M1112 1481l-450 -242l-48 80l447 254zM795 1102q191 0 308.5 -118t117.5 -302q0 -37 -9 -94t-18 -84h-891q-2 -16 -2 -49q0 -165 96.5 -265t249.5 -100q255 0 385 242l94 -64q-86 -144 -206 -217.5t-289 -73.5q-200 0 -329.5 131.5t-129.5 333.5q0 180 82.5 331.5
t226 240t314.5 88.5zM319 602h773q6 41 6 76q0 148 -82 231.5t-228 83.5q-170 0 -298.5 -110t-170.5 -281z" />
    <glyph glyph-name="ecircumflex" unicode="&#xea;" horiz-adv-x="1214" 
d="M872 1473l-231 -220h-131l319 301h107l199 -301h-111zM795 1102q191 0 308.5 -118t117.5 -302q0 -37 -9 -94t-18 -84h-891q-2 -16 -2 -49q0 -165 96.5 -265t249.5 -100q255 0 385 242l94 -64q-86 -144 -206 -217.5t-289 -73.5q-200 0 -329.5 131.5t-129.5 333.5
q0 180 82.5 331.5t226 240t314.5 88.5zM319 602h773q6 41 6 76q0 148 -82 231.5t-228 83.5q-170 0 -298.5 -110t-170.5 -281z" />
    <glyph glyph-name="edieresis" unicode="&#xeb;" horiz-adv-x="1214" 
d="M645 1294q-45 0 -72.5 27t-27.5 74t39 84t90 37q44 0 71 -27t27 -74q0 -48 -38 -84.5t-89 -36.5zM1016 1294q-44 0 -71 27t-27 74q0 48 37.5 84.5t88.5 36.5q44 0 72.5 -27.5t28.5 -73.5q0 -47 -39 -84t-90 -37zM795 1102q191 0 308.5 -118t117.5 -302q0 -37 -9 -94
t-18 -84h-891q-2 -16 -2 -49q0 -165 96.5 -265t249.5 -100q255 0 385 242l94 -64q-86 -144 -206 -217.5t-289 -73.5q-200 0 -329.5 131.5t-129.5 333.5q0 180 82.5 331.5t226 240t314.5 88.5zM319 602h773q6 41 6 76q0 148 -82 231.5t-228 83.5q-170 0 -298.5 -110
t-170.5 -281z" />
    <glyph glyph-name="igrave" unicode="&#xec;" horiz-adv-x="446" 
d="M629 1233l-408 250l60 90l401 -260zM150 0l208 1079h131l-208 -1079h-131z" />
    <glyph glyph-name="iacute" unicode="&#xed;" horiz-adv-x="446" 
d="M291 1241l-47 80l446 254l51 -92zM150 0l208 1079h131l-208 -1079h-131z" />
    <glyph glyph-name="icircumflex" unicode="&#xee;" horiz-adv-x="446" 
d="M764 1255h-111l-151 220l-232 -220h-131l318 301h108zM150 0l208 1079h131l-208 -1079h-131z" />
    <glyph glyph-name="idieresis" unicode="&#xef;" horiz-adv-x="446" 
d="M283 1294q-43 0 -71 28t-28 75q0 48 38 84.5t89 36.5q45 0 73 -28t28 -75t-39 -84t-90 -37zM653 1294q-43 0 -70.5 28t-27.5 75q0 48 38.5 84.5t90.5 36.5q43 0 70.5 -28t27.5 -75q0 -48 -38.5 -84.5t-90.5 -36.5zM150 0l208 1079h131l-208 -1079h-131z" />
    <glyph glyph-name="eth" unicode="&#xf0;" horiz-adv-x="1249" 
d="M930 1458q169 -107 263.5 -290.5t94.5 -417.5q0 -225 -81 -401t-229 -274t-339 -98q-213 0 -342 130.5t-129 332.5q0 171 84 315t226.5 227t309.5 83q114 0 213 -48t154 -138q-21 164 -106 290.5t-220 202.5l-268 -229l-61 63l243 209q-157 66 -348 66l66 104
q210 0 385 -82l207 176l63 -61zM657 96q132 0 243.5 72.5t175 191t63.5 252.5q0 145 -103 240.5t-260 95.5q-199 0 -336 -141.5t-137 -347.5q0 -157 95.5 -260t258.5 -103z" />
    <glyph glyph-name="ntilde" unicode="&#xf1;" horiz-adv-x="1253" 
d="M735 1403q-78 0 -114 -103l-91 41q29 77 81 124.5t126 47.5q41 0 76.5 -16.5t56.5 -36.5t52 -36.5t65 -16.5q82 0 121 102l86 -39q-28 -79 -80 -126.5t-127 -47.5q-35 0 -65 11t-51 27t-41 31.5t-44 26.5t-51 11zM856 1102q196 0 293.5 -121.5t56.5 -331.5l-125 -649
h-131l121 629q33 169 -40.5 261.5t-225.5 92.5q-144 0 -253 -89t-142 -228l-129 -666h-131l208 1079h125l-34 -180q69 92 175 147.5t232 55.5z" />
    <glyph glyph-name="ograve" unicode="&#xf2;" horiz-adv-x="1277" 
d="M1049 1233l-408 248l57 90l404 -258zM645 -23q-212 0 -342.5 128.5t-130.5 343.5q0 129 48.5 248.5t131.5 208.5t201 142.5t250 53.5q212 0 341.5 -128t129.5 -345q0 -127 -47.5 -246t-129 -208.5t-200 -143.5t-252.5 -54zM659 96q136 0 248 75t173 194.5t61 252.5
q0 165 -95.5 265t-254.5 100q-136 0 -249 -74.5t-175 -193t-62 -250.5q0 -166 97 -267.5t257 -101.5z" />
    <glyph glyph-name="oacute" unicode="&#xf3;" horiz-adv-x="1277" 
d="M684 1239l-45 80l446 254l50 -92zM645 -23q-212 0 -342.5 128.5t-130.5 343.5q0 129 48.5 248.5t131.5 208.5t201 142.5t250 53.5q212 0 341.5 -128t129.5 -345q0 -127 -47.5 -246t-129 -208.5t-200 -143.5t-252.5 -54zM659 96q136 0 248 75t173 194.5t61 252.5
q0 165 -95.5 265t-254.5 100q-136 0 -249 -74.5t-175 -193t-62 -250.5q0 -166 97 -267.5t257 -101.5z" />
    <glyph glyph-name="ocircumflex" unicode="&#xf4;" horiz-adv-x="1277" 
d="M893 1473l-231 -220h-132l320 301h106l199 -301h-111zM803 1102q212 0 341.5 -128t129.5 -345q0 -127 -47.5 -246t-129 -208.5t-200 -143.5t-252.5 -54q-212 0 -342.5 128.5t-130.5 343.5q0 129 48.5 248.5t131.5 208.5t201 142.5t250 53.5zM659 96q136 0 248 75
t173 194.5t61 252.5q0 165 -95.5 265t-254.5 100q-136 0 -249 -74.5t-175 -193t-62 -250.5q0 -166 97 -267.5t257 -101.5z" />
    <glyph glyph-name="otilde" unicode="&#xf5;" horiz-adv-x="1277" 
d="M989 1296q-35 0 -64.5 11t-50.5 27t-41 31.5t-44.5 26.5t-51.5 11q-78 0 -114 -103l-91 41q29 77 81 124.5t126 47.5q41 0 76.5 -16.5t56.5 -36.5t52 -36.5t65 -16.5q82 0 121 102l86 -39q-26 -79 -78.5 -126.5t-128.5 -47.5zM645 -23q-212 0 -342.5 128.5t-130.5 343.5
q0 129 48.5 248.5t131.5 208.5t201 142.5t250 53.5q212 0 341.5 -128t129.5 -345q0 -127 -47.5 -246t-129 -208.5t-200 -143.5t-252.5 -54zM659 96q136 0 248 75t173 194.5t61 252.5q0 165 -95.5 265t-254.5 100q-136 0 -249 -74.5t-175 -193t-62 -250.5q0 -166 97 -267.5
t257 -101.5z" />
    <glyph glyph-name="odieresis" unicode="&#xf6;" horiz-adv-x="1277" 
d="M668 1294q-45 0 -73 27t-28 74t39 84t90 37q44 0 71.5 -27.5t27.5 -73.5q0 -48 -38 -84.5t-89 -36.5zM1038 1294q-44 0 -71 27t-27 74q0 48 38 84.5t89 36.5q45 0 72.5 -27t27.5 -74t-39 -84t-90 -37zM645 -23q-212 0 -342.5 128.5t-130.5 343.5q0 129 48.5 248.5
t131.5 208.5t201 142.5t250 53.5q212 0 341.5 -128t129.5 -345q0 -127 -47.5 -246t-129 -208.5t-200 -143.5t-252.5 -54zM659 96q136 0 248 75t173 194.5t61 252.5q0 165 -95.5 265t-254.5 100q-136 0 -249 -74.5t-175 -193t-62 -250.5q0 -166 97 -267.5t257 -101.5z" />
    <glyph glyph-name="divide" unicode="&#xf7;" horiz-adv-x="950" 
d="M655 899q-39 0 -64.5 24.5t-25.5 63.5q0 47 33 80t80 33q41 0 65.5 -24.5t24.5 -63.5q0 -46 -33 -79.5t-80 -33.5zM170 573l23 113h829l-23 -113h-829zM510 133q-40 0 -65 24t-25 64q0 46 32.5 79.5t79.5 33.5q40 0 65.5 -25t25.5 -63q0 -47 -33 -80t-80 -33z" />
    <glyph glyph-name="oslash" unicode="&#xf8;" horiz-adv-x="1261" 
d="M1395 991l-168 -129q51 -102 51 -233q0 -127 -47.5 -246t-129 -208.5t-200 -143.5t-252.5 -54q-237 0 -368 156l-158 -123l-51 76l159 123q-55 101 -55 240q0 129 49 248.5t132 208.5t201 142.5t249 53.5q243 0 375 -166l164 127zM309 465q0 -89 33 -170l731 559
q-93 129 -278 129q-136 0 -249 -74.5t-175 -193t-62 -250.5zM1145 618q0 86 -29 158l-727 -559q98 -121 275 -121q102 0 193 44t153.5 117t98.5 167.5t36 193.5z" />
    <glyph glyph-name="ugrave" unicode="&#xf9;" horiz-adv-x="1232" 
d="M1051 1315l-56 -80l-405 248l57 90zM1126 1079h129l-208 -1079h-123l34 188q-68 -95 -172.5 -153t-228.5 -58q-188 0 -284 122t-56 331l127 649h129l-121 -628q-33 -169 39.5 -262t218.5 -93q141 0 251 94.5t138 239.5z" />
    <glyph glyph-name="uacute" unicode="&#xfa;" horiz-adv-x="1232" 
d="M1110 1483l-451 -242l-47 80l447 254zM1126 1079h129l-208 -1079h-123l34 188q-68 -95 -172.5 -153t-228.5 -58q-188 0 -284 122t-56 331l127 649h129l-121 -628q-33 -169 39.5 -262t218.5 -93q141 0 251 94.5t138 239.5z" />
    <glyph glyph-name="ucircumflex" unicode="&#xfb;" horiz-adv-x="1232" 
d="M864 1475l-231 -220h-131l319 301h107l198 -301h-110zM1126 1079h129l-208 -1079h-123l34 188q-68 -95 -172.5 -153t-228.5 -58q-188 0 -284 122t-56 331l127 649h129l-121 -628q-33 -169 39.5 -262t218.5 -93q141 0 251 94.5t138 239.5z" />
    <glyph glyph-name="udieresis" unicode="&#xfc;" horiz-adv-x="1232" 
d="M645 1296q-43 0 -70.5 27t-27.5 74q0 48 38 84.5t89 36.5q45 0 72.5 -27t27.5 -74t-39 -84t-90 -37zM1018 1296q-45 0 -72.5 27t-27.5 74t39 84t90 37q43 0 70.5 -27t27.5 -74q0 -48 -38 -84.5t-89 -36.5zM1126 1079h129l-208 -1079h-123l34 188q-68 -95 -172.5 -153
t-228.5 -58q-188 0 -284 122t-56 331l127 649h129l-121 -628q-33 -169 39.5 -262t218.5 -93q141 0 251 94.5t138 239.5z" />
    <glyph glyph-name="yacute" unicode="&#xfd;" horiz-adv-x="1097" 
d="M1053 1483l-451 -242l-47 80l446 254zM1106 1079h147l-872 -1446h-133l227 367h-16l-232 1079h131l195 -952z" />
    <glyph glyph-name="thorn" unicode="&#xfe;" horiz-adv-x="1288" 
d="M903 1102q146 0 249 -73t144 -202t11 -288q-46 -241 -224.5 -401.5t-400.5 -160.5q-133 0 -227 62t-136 174l-110 -580h-131l362 1864h131l-122 -633q86 112 203.5 175t250.5 63zM1176 539q37 191 -52 317.5t-260 126.5q-175 0 -310 -124t-173 -320t49.5 -319.5
t261.5 -123.5q169 0 308 127t176 316z" />
    <glyph glyph-name="ydieresis" unicode="&#xff;" horiz-adv-x="1097" 
d="M578 1296q-44 0 -71.5 27.5t-27.5 73.5q0 48 38 84.5t89 36.5q45 0 73 -27t28 -74t-39 -84t-90 -37zM948 1296q-44 0 -71 27t-27 74q0 48 38 84.5t89 36.5q45 0 72.5 -27t27.5 -74q0 -48 -38.5 -84.5t-90.5 -36.5zM1106 1079h147l-872 -1446h-133l227 367h-16l-232 1079
h131l195 -952z" />
    <glyph glyph-name="Amacron" unicode="&#x100;" horiz-adv-x="1263" 
d="M670 1767h577l-20 -108h-578zM809 1423h158l237 -1423h-125l-73 442h-605l-243 -442h-140zM461 551h528l-123 739z" />
    <glyph glyph-name="amacron" unicode="&#x101;" horiz-adv-x="1323" 
d="M1190 1456l-19 -102h-557l21 102h555zM1219 1079h122l-208 -1079h-123l43 217q-82 -111 -197.5 -175.5t-251.5 -64.5q-197 0 -314.5 128.5t-117.5 340.5q0 130 48 250t129 209.5t196 143t243 53.5q147 0 245.5 -72t137.5 -201zM643 94q131 0 241.5 74.5t173 197.5
t62.5 263q0 164 -89 260t-243 96q-99 0 -189 -43t-154 -114.5t-102 -167t-38 -197.5q0 -163 92.5 -266t245.5 -103z" />
    <glyph glyph-name="Abreve" unicode="&#x102;" horiz-adv-x="1263" 
d="M938 1579q-128 0 -192.5 80.5t-43.5 185.5h109q-13 -67 23 -115.5t114 -48.5q73 0 127 47.5t66 116.5h110q-21 -113 -105 -189.5t-208 -76.5zM809 1423h158l237 -1423h-125l-73 442h-605l-243 -442h-140zM461 551h528l-123 739z" />
    <glyph glyph-name="abreve" unicode="&#x103;" horiz-adv-x="1323" 
d="M887 1255q-87 0 -149 45.5t-85 113.5t-8 142h105q-13 -78 24 -138t123 -60q88 0 142.5 59.5t68.5 138.5h106q-24 -129 -105.5 -215t-221.5 -86zM1219 1079h122l-208 -1079h-123l43 217q-82 -111 -197.5 -175.5t-251.5 -64.5q-197 0 -314.5 128.5t-117.5 340.5
q0 130 48 250t129 209.5t196 143t243 53.5q147 0 245.5 -72t137.5 -201zM643 94q131 0 241.5 74.5t173 197.5t62.5 263q0 164 -89 260t-243 96q-99 0 -189 -43t-154 -114.5t-102 -167t-38 -197.5q0 -163 92.5 -266t245.5 -103z" />
    <glyph glyph-name="Aogonek" unicode="&#x104;" horiz-adv-x="1263" 
d="M1055 -375q62 0 104 45l41 -61q-69 -72 -174 -72q-74 0 -119 40.5t-45 109.5q0 133 203 284l37 29h-23l-73 442h-605l-243 -442h-140l791 1423h158l237 -1423l-90 -78q-72 -61 -109.5 -110t-37.5 -103q0 -41 23 -62.5t65 -21.5zM461 551h528l-123 739z" />
    <glyph glyph-name="aogonek" unicode="&#x105;" horiz-adv-x="1323" 
d="M1042 -78q-72 -62 -108.5 -110.5t-36.5 -102.5q0 -84 86 -84q65 0 107 45l38 -61q-69 -72 -174 -72q-74 0 -117.5 40.5t-43.5 109.5q0 77 55.5 146.5t146.5 137.5l37 29h-22l43 217q-82 -111 -197.5 -175.5t-251.5 -64.5q-197 0 -314.5 128.5t-117.5 340.5q0 130 48 250
t129 209.5t196 143t243 53.5q147 0 245.5 -72t137.5 -201l48 250h122l-208 -1079zM643 94q131 0 241.5 74.5t173 197.5t62.5 263q0 164 -89 260t-243 96q-99 0 -189 -43t-154 -114.5t-102 -167t-38 -197.5q0 -163 92.5 -266t245.5 -103z" />
    <glyph glyph-name="Cacute" unicode="&#x106;" horiz-adv-x="1490" 
d="M846 1575l-33 90l508 190l33 -102zM809 -23q-266 0 -433 169.5t-167 435.5q0 171 59 328.5t161.5 276t251.5 189t320 70.5q230 0 383 -127t183 -322l-131 -45q-30 168 -147 268.5t-302 100.5q-139 0 -260 -60t-204 -160.5t-130 -232.5t-47 -274q0 -218 131.5 -355
t345.5 -137q182 0 309 89t222 276l116 -53q-111 -220 -271 -328.5t-390 -108.5z" />
    <glyph glyph-name="cacute" unicode="&#x107;" horiz-adv-x="1175" 
d="M692 1241l-47 80l447 254l51 -92zM637 -23q-212 0 -338.5 132t-126.5 344q0 128 49.5 247t133 207.5t201 141.5t247.5 53q172 0 288.5 -92t131.5 -242l-125 -41q-12 116 -96 186t-214 70q-133 0 -245.5 -73t-175 -191.5t-62.5 -251.5q0 -164 94 -267.5t252 -103.5
q125 0 225.5 66t161.5 192l109 -47q-81 -162 -211.5 -246t-298.5 -84z" />
    <glyph glyph-name="Cdotaccent" unicode="&#x10a;" horiz-adv-x="1490" 
d="M1067 1602q-43 0 -72.5 28t-29.5 70q0 49 37 85t88 36q44 0 72 -29t28 -72q0 -49 -36.5 -83.5t-86.5 -34.5zM809 -23q-266 0 -433 169.5t-167 435.5q0 171 59 328.5t161.5 276t251.5 189t320 70.5q230 0 383 -127t183 -322l-131 -45q-30 168 -147 268.5t-302 100.5
q-139 0 -260 -60t-204 -160.5t-130 -232.5t-47 -274q0 -218 131.5 -355t345.5 -137q182 0 309 89t222 276l116 -53q-111 -220 -271 -328.5t-390 -108.5z" />
    <glyph glyph-name="cdotaccent" unicode="&#x10b;" horiz-adv-x="1175" 
d="M848 1292q-46 0 -75.5 29.5t-29.5 73.5q0 53 40.5 91t95.5 38q45 0 74.5 -29t29.5 -72q0 -54 -39.5 -92.5t-95.5 -38.5zM637 -23q-212 0 -338.5 132t-126.5 344q0 128 49.5 247t133 207.5t201 141.5t247.5 53q172 0 288.5 -92t131.5 -242l-125 -41q-12 116 -96 186
t-214 70q-133 0 -245.5 -73t-175 -191.5t-62.5 -251.5q0 -164 94 -267.5t252 -103.5q125 0 225.5 66t161.5 192l109 -47q-81 -162 -211.5 -246t-298.5 -84z" />
    <glyph glyph-name="Ccaron" unicode="&#x10c;" horiz-adv-x="1490" 
d="M1100 1579h-107l-198 266h114l148 -180l217 180h135zM823 102q182 0 309 89t222 276l116 -53q-111 -220 -271 -328.5t-390 -108.5q-266 0 -433 169.5t-167 435.5q0 171 59 328.5t161.5 276t251.5 189t320 70.5q230 0 383 -127t183 -322l-131 -45q-30 168 -147 268.5
t-302 100.5q-139 0 -260 -60t-204 -160.5t-130 -232.5t-47 -274q0 -218 131.5 -355t345.5 -137z" />
    <glyph glyph-name="ccaron" unicode="&#x10d;" horiz-adv-x="1175" 
d="M889 1255h-107l-196 301h110l150 -219l231 219h131zM651 96q125 0 225.5 66t161.5 192l109 -47q-81 -162 -211.5 -246t-298.5 -84q-212 0 -338.5 132t-126.5 344q0 128 49.5 247t133 207.5t201 141.5t247.5 53q172 0 288.5 -92t131.5 -242l-125 -41q-12 116 -96 186
t-214 70q-133 0 -245.5 -73t-175 -191.5t-62.5 -251.5q0 -164 94 -267.5t252 -103.5z" />
    <glyph glyph-name="Dcaron" unicode="&#x10e;" horiz-adv-x="1466" 
d="M1030 1579h-106l-201 266h115l147 -180l219 180h133zM899 1423q266 0 426 -165.5t160 -440.5q0 -167 -62.5 -318t-169 -260.5t-256.5 -174t-317 -64.5h-510l276 1423h453zM692 117q178 0 329 94.5t239 255t88 348.5q0 226 -126 359t-341 133h-326l-231 -1190h368z" />
    <glyph glyph-name="dcaron" unicode="&#x10f;" horiz-adv-x="1406" 
d="M1167 848l125 649h131l-290 -1497h-123l41 215q-81 -110 -196.5 -174t-250.5 -64q-197 0 -314.5 128.5t-117.5 340.5q0 130 48 250t129 209.5t196 143t243 53.5q143 0 240 -66t139 -188zM1632 1497h105l-135 -444h-93zM643 94q131 0 241.5 74.5t173 197.5t62.5 263
q0 164 -89 260t-243 96q-99 0 -189 -43t-154 -114.5t-102 -167t-38 -197.5q0 -163 92.5 -266t245.5 -103z" />
    <glyph glyph-name="Dcroat" unicode="&#x110;" horiz-adv-x="1480" 
d="M911 1423q267 0 427.5 -165.5t160.5 -440.5q0 -167 -62.5 -318t-169 -260.5t-256.5 -174t-317 -64.5h-510l135 692h-176l19 96h176l123 635h450zM707 117q177 0 328 94.5t239 255.5t88 348q0 226 -126 359t-341 133h-326l-100 -519h293l-19 -96h-292l-113 -575h369z" />
    <glyph glyph-name="dcroat" unicode="&#x111;" horiz-adv-x="1323" 
d="M1563 1323l-19 -96h-174l-237 -1227h-123l41 215q-81 -110 -196.5 -174t-250.5 -64q-197 0 -314.5 128.5t-117.5 340.5q0 130 48 250t129 209.5t196 143t243 53.5q143 0 240 -66t139 -188l74 379h-297l19 96h297l32 174h131l-34 -174h174zM643 94q131 0 241.5 74.5
t173 197.5t62.5 263q0 164 -89 260t-243 96q-99 0 -189 -43t-154 -114.5t-102 -167t-38 -197.5q0 -163 92.5 -266t245.5 -103z" />
    <glyph glyph-name="Emacron" unicode="&#x112;" horiz-adv-x="1138" 
d="M1223 1767l-21 -108h-577l20 108h578zM1268 1307h-713l-98 -508h649l-25 -115h-647l-110 -567h725l-21 -117h-858l276 1423h844z" />
    <glyph glyph-name="emacron" unicode="&#x113;" horiz-adv-x="1214" 
d="M1139 1452l-21 -102h-555l19 102h557zM795 1102q191 0 308.5 -118t117.5 -302q0 -37 -9 -94t-18 -84h-891q-2 -16 -2 -49q0 -165 96.5 -265t249.5 -100q255 0 385 242l94 -64q-86 -144 -206 -217.5t-289 -73.5q-200 0 -329.5 131.5t-129.5 333.5q0 180 82.5 331.5
t226 240t314.5 88.5zM319 602h773q6 41 6 76q0 148 -82 231.5t-228 83.5q-170 0 -298.5 -110t-170.5 -281z" />
    <glyph glyph-name="Edotaccent" unicode="&#x116;" horiz-adv-x="1138" 
d="M901 1602q-43 0 -71.5 27.5t-28.5 70.5q0 50 36 85.5t87 35.5q44 0 73 -29t29 -72q0 -49 -37.5 -83.5t-87.5 -34.5zM1268 1307h-713l-98 -508h649l-25 -115h-647l-110 -567h725l-21 -117h-858l276 1423h844z" />
    <glyph glyph-name="edotaccent" unicode="&#x117;" horiz-adv-x="1214" 
d="M840 1290q-46 0 -75.5 29.5t-29.5 73.5q0 52 39.5 90.5t93.5 38.5q47 0 77 -29t30 -72q0 -54 -39.5 -92.5t-95.5 -38.5zM795 1102q191 0 308.5 -118t117.5 -302q0 -37 -9 -94t-18 -84h-891q-2 -16 -2 -49q0 -165 96.5 -265t249.5 -100q255 0 385 242l94 -64
q-86 -144 -206 -217.5t-289 -73.5q-200 0 -329.5 131.5t-129.5 333.5q0 180 82.5 331.5t226 240t314.5 88.5zM319 602h773q6 41 6 76q0 148 -82 231.5t-228 83.5q-170 0 -298.5 -110t-170.5 -281z" />
    <glyph glyph-name="Eogonek" unicode="&#x118;" horiz-adv-x="1138" 
d="M1268 1307h-713l-98 -508h649l-25 -115h-647l-110 -567h725l-21 -117l-90 -78q-72 -61 -109.5 -110t-37.5 -103q0 -41 23 -62.5t65 -21.5q65 0 104 45l41 -61q-69 -72 -174 -72q-74 0 -119 40.5t-45 109.5q0 77 55.5 145.5t147.5 138.5l37 29h-756l276 1423h844z" />
    <glyph glyph-name="eogonek" unicode="&#x119;" horiz-adv-x="1214" 
d="M795 1102q191 0 308.5 -118t117.5 -302q0 -37 -9 -94t-18 -84h-891q-2 -16 -2 -49q0 -165 96.5 -265t249.5 -100q255 0 385 242l94 -64q-118 -200 -303 -262l-84 -72q-71 -60 -108 -109t-37 -104q0 -83 86 -83q61 0 106 45l39 -62q-72 -72 -174 -72q-74 0 -118 40.5
t-44 109.5q0 76 53 144t142 137q-24 -3 -53 -3q-200 0 -329.5 131.5t-129.5 333.5q0 180 82.5 331.5t226 240t314.5 88.5zM319 602h773q6 41 6 76q0 148 -82 231.5t-228 83.5q-170 0 -298.5 -110t-170.5 -281z" />
    <glyph glyph-name="Ecaron" unicode="&#x11a;" horiz-adv-x="1138" 
d="M938 1579h-107l-198 266h115l147 -180l217 180h135zM1268 1307h-713l-98 -508h649l-25 -115h-647l-110 -567h725l-21 -117h-858l276 1423h844z" />
    <glyph glyph-name="ecaron" unicode="&#x11b;" horiz-adv-x="1214" 
d="M877 1253h-107l-197 301h111l150 -219l233 219h131zM795 1102q191 0 308.5 -118t117.5 -302q0 -37 -9 -94t-18 -84h-891q-2 -16 -2 -49q0 -165 96.5 -265t249.5 -100q255 0 385 242l94 -64q-86 -144 -206 -217.5t-289 -73.5q-200 0 -329.5 131.5t-129.5 333.5
q0 180 82.5 331.5t226 240t314.5 88.5zM319 602h773q6 41 6 76q0 148 -82 231.5t-228 83.5q-170 0 -298.5 -110t-170.5 -281z" />
    <glyph glyph-name="Gbreve" unicode="&#x11e;" horiz-adv-x="1574" 
d="M1057 1579q-127 0 -192 80.5t-44 185.5h109q-13 -67 23 -115.5t114 -48.5q73 0 127 47.5t66 116.5h110q-21 -113 -105 -189.5t-208 -76.5zM1587 729q-60 -358 -264 -555t-508 -197q-273 0 -439.5 169.5t-166.5 451.5q0 230 105 425t288 309t402 114q222 0 378 -119.5
t191 -316.5l-131 -47q-29 167 -149.5 262.5t-303.5 95.5q-174 0 -322.5 -96t-235.5 -260.5t-87 -356.5q0 -233 132.5 -371.5t354.5 -138.5q219 0 377 137.5t230 389.5h-549l20 104h678z" />
    <glyph glyph-name="gbreve" unicode="&#x11f;" horiz-adv-x="1323" 
d="M870 1255q-86 0 -147 45.5t-84 113.5t-8 142h104q-15 -78 22.5 -138t123.5 -60q89 0 144 59.5t69 138.5h106q-24 -129 -107 -215t-223 -86zM1223 1079h123l-185 -946q-103 -522 -600 -522q-190 0 -313.5 87.5t-147.5 248.5l115 39q17 -128 111 -197.5t243 -69.5
q187 0 308 103.5t159 300.5l23 123q-81 -115 -200 -181.5t-255 -66.5q-195 0 -313.5 127.5t-118.5 331.5q0 170 82 318.5t224.5 237.5t309.5 89q147 0 247.5 -70t138.5 -198zM643 104q131 0 241.5 73.5t173 195t62.5 260.5q0 162 -89 257t-243 95q-99 0 -189 -42.5
t-154 -112.5t-102 -165t-38 -196q0 -163 91.5 -264t246.5 -101z" />
    <glyph glyph-name="Gdotaccent" unicode="&#x120;" horiz-adv-x="1574" 
d="M1051 1602q-42 0 -71.5 28t-29.5 70q0 50 36.5 85.5t88.5 35.5q44 0 72.5 -29t28.5 -72q0 -49 -37 -83.5t-88 -34.5zM1587 729q-60 -358 -264 -555t-508 -197q-273 0 -439.5 169.5t-166.5 451.5q0 230 105 425t288 309t402 114q222 0 378 -119.5t191 -316.5l-131 -47
q-29 167 -149.5 262.5t-303.5 95.5q-174 0 -322.5 -96t-235.5 -260.5t-87 -356.5q0 -233 132.5 -371.5t354.5 -138.5q219 0 377 137.5t230 389.5h-549l20 104h678z" />
    <glyph glyph-name="gdotaccent" unicode="&#x121;" horiz-adv-x="1323" 
d="M862 1292q-47 0 -75.5 29t-28.5 74q0 53 39 91t94 38q45 0 74.5 -29t29.5 -72q0 -54 -39.5 -92.5t-93.5 -38.5zM1223 1079h123l-185 -946q-103 -522 -600 -522q-190 0 -313.5 87.5t-147.5 248.5l115 39q17 -128 111 -197.5t243 -69.5q187 0 308 103.5t159 300.5l23 123
q-81 -115 -200 -181.5t-255 -66.5q-195 0 -313.5 127.5t-118.5 331.5q0 170 82 318.5t224.5 237.5t309.5 89q147 0 247.5 -70t138.5 -198zM643 104q131 0 241.5 73.5t173 195t62.5 260.5q0 162 -89 257t-243 95q-99 0 -189 -42.5t-154 -112.5t-102 -165t-38 -196
q0 -163 91.5 -264t246.5 -101z" />
    <glyph glyph-name="uni0122" unicode="&#x122;" horiz-adv-x="1574" 
d="M1587 729q-60 -358 -264 -555t-508 -197q-273 0 -439.5 169.5t-166.5 451.5q0 230 105 425t288 309t402 114q222 0 378 -119.5t191 -316.5l-131 -47q-29 167 -149.5 262.5t-303.5 95.5q-174 0 -322.5 -96t-235.5 -260.5t-87 -356.5q0 -233 132.5 -371.5t354.5 -138.5
q219 0 377 137.5t230 389.5h-549l20 104h678zM758 -100q38 0 62 -22.5t24 -59.5q0 -33 -18.5 -67t-59.5 -87l-107 -141l-57 35l100 137l11 16q-28 5 -46 27t-18 55q0 42 32.5 74.5t76.5 32.5z" />
    <glyph glyph-name="uni0123" unicode="&#x123;" horiz-adv-x="1323" 
d="M827 1235q-38 0 -62 22.5t-24 59.5q0 31 18.5 64.5t59.5 86.5l107 144l57 -35l-100 -139l-11 -17q29 -5 46.5 -26t17.5 -54q0 -43 -32.5 -74.5t-76.5 -31.5zM1223 1079h123l-185 -946q-103 -522 -600 -522q-190 0 -313.5 87.5t-147.5 248.5l115 39q17 -128 111 -197.5
t243 -69.5q187 0 308 103.5t159 300.5l23 123q-81 -115 -200 -181.5t-255 -66.5q-195 0 -313.5 127.5t-118.5 331.5q0 170 82 318.5t224.5 237.5t309.5 89q147 0 247.5 -70t138.5 -198zM643 104q131 0 241.5 73.5t173 195t62.5 260.5q0 162 -89 257t-243 95
q-99 0 -189 -42.5t-154 -112.5t-102 -165t-38 -196q0 -163 91.5 -264t246.5 -101z" />
    <glyph glyph-name="Hbar" unicode="&#x126;" horiz-adv-x="1433" 
d="M1563 1178l-21 -107h-129l-209 -1071h-131l133 682h-755l-134 -682h-131l209 1071h-131l21 107h131l47 245h131l-47 -245h756l47 245h131l-47 -245h129zM1229 801l53 270h-756l-53 -270h756z" />
    <glyph glyph-name="hbar" unicode="&#x127;" horiz-adv-x="1253" 
d="M856 1102q196 0 293.5 -121.5t56.5 -331.5l-125 -649h-131l121 629q33 169 -40.5 261.5t-225.5 92.5q-144 0 -253 -89t-142 -228l-129 -666h-131l237 1227h-166l19 96h166l34 174h131l-32 -174h301l-19 -96h-303l-61 -318q69 88 172.5 140.5t226.5 52.5z" />
    <glyph glyph-name="Itilde" unicode="&#x128;" horiz-adv-x="491" 
d="M666 1595q-31 0 -57 11t-45 26.5t-36.5 31.5t-39.5 27t-46 11q-71 0 -102 -103l-76 41q57 172 180 172q37 0 68.5 -16.5t50.5 -36.5t47 -36.5t58 -16.5q75 0 106 102l74 -39q-23 -79 -69 -126.5t-113 -47.5zM170 0l276 1423h132l-277 -1423h-131z" />
    <glyph glyph-name="itilde" unicode="&#x129;" horiz-adv-x="446" 
d="M584 1298q-35 0 -64.5 16.5t-47 37t-42.5 37t-51 16.5q-66 0 -94 -102l-74 38q24 78 66.5 126.5t103.5 48.5q34 0 62.5 -16.5t46 -37t42.5 -37t52 -16.5q70 0 98 102l72 -41q-23 -79 -66 -125.5t-104 -46.5zM150 0l208 1079h131l-208 -1079h-131z" />
    <glyph glyph-name="Imacron" unicode="&#x12a;" horiz-adv-x="491" 
d="M266 1659l15 108h448l-16 -108h-447zM170 0l276 1423h132l-277 -1423h-131z" />
    <glyph glyph-name="imacron" unicode="&#x12b;" horiz-adv-x="446" 
d="M248 1354l16 102h447l-17 -102h-446zM150 0l208 1079h131l-208 -1079h-131z" />
    <glyph glyph-name="Iogonek" unicode="&#x12e;" horiz-adv-x="491" 
d="M211 -78q-72 -62 -108.5 -110.5t-36.5 -102.5q0 -84 86 -84q64 0 106 45l39 -61q-69 -72 -174 -72q-74 0 -118 40.5t-44 109.5q0 133 203 284l37 29h-31l276 1423h132l-277 -1423z" />
    <glyph glyph-name="iogonek" unicode="&#x12f;" horiz-adv-x="450" 
d="M502 1524q47 0 75.5 -29t28.5 -74q0 -52 -39.5 -90.5t-93.5 -38.5q-47 0 -75.5 29t-28.5 72q0 54 39.5 92.5t93.5 38.5zM150 0l208 1079h131l-208 -1079l-91 -78q-72 -61 -109.5 -110t-37.5 -103q0 -41 23 -62.5t65 -21.5q66 0 105 45l40 -61q-69 -72 -174 -72
q-74 0 -118.5 40.5t-44.5 109.5q0 77 55.5 146.5t146.5 137.5l37 29h-28z" />
    <glyph glyph-name="Idotaccent" unicode="&#x130;" horiz-adv-x="491" 
d="M561 1602q-43 0 -72.5 28t-29.5 70q0 49 37 85t88 36q44 0 72 -29t28 -72q0 -49 -36.5 -83.5t-86.5 -34.5zM170 0l276 1423h132l-277 -1423h-131z" />
    <glyph glyph-name="dotlessi" unicode="&#x131;" horiz-adv-x="434" 
d="M150 0l208 1079h131l-208 -1079h-131z" />
    <glyph glyph-name="IJ" unicode="&#x132;" horiz-adv-x="1173" 
d="M170 0l276 1423h132l-277 -1423h-131zM535 0l22 117h92q108 0 183 66.5t98 181.5l205 1058h131l-209 -1075q-32 -167 -139.5 -257.5t-270.5 -90.5h-112z" />
    <glyph glyph-name="ij" unicode="&#x133;" horiz-adv-x="911" 
d="M473 1292q-47 0 -75.5 29t-28.5 72q0 54 39.5 92.5t93.5 38.5q47 0 75.5 -29t28.5 -74q0 -52 -39.5 -90.5t-93.5 -38.5zM940 1290q-46 0 -75 29t-29 74q0 52 39.5 90.5t93.5 38.5q47 0 75.5 -29t28.5 -72q0 -54 -39 -92.5t-94 -38.5zM150 0l208 1079h131l-208 -1079h-131
zM289 -371l22 115h31q99 0 173 68.5t97 183.5l209 1083h131l-209 -1081q-35 -176 -146.5 -272.5t-270.5 -96.5h-37z" />
    <glyph glyph-name="uni0136" unicode="&#x136;" horiz-adv-x="1234" 
d="M1417 1423l-837 -680l632 -743h-151l-621 717l-139 -717h-131l276 1423h132l-123 -637l788 637h174zM633 -100q38 0 62 -22.5t24 -59.5q0 -33 -18 -66.5t-58 -87.5l-108 -141l-58 35l101 137q9 14 10 16q-28 5 -45 27t-17 55q0 42 31.5 74.5t75.5 32.5z" />
    <glyph glyph-name="uni0137" unicode="&#x137;" horiz-adv-x="1019" 
d="M1184 1079l-652 -504l461 -575h-145l-459 561l-108 -561h-131l290 1497h131l-170 -876l613 458h170zM537 -100q37 0 60.5 -22.5t23.5 -59.5q0 -33 -18 -68t-58 -86l-107 -141l-57 35l98 137q9 14 10 16q-28 5 -44.5 26.5t-16.5 55.5q0 42 32 74.5t77 32.5z" />
    <glyph glyph-name="kgreenlandic" unicode="&#x138;" horiz-adv-x="991" 
d="M1186 1079l-664 -526l471 -553h-151l-461 516l-100 -516h-131l208 1079h131l-96 -495l635 495h158z" />
    <glyph glyph-name="Lacute" unicode="&#x139;" horiz-adv-x="1075" 
d="M842 1753l-510 -178l-31 90l508 190zM324 119h714l-22 -119h-846l276 1423h132z" />
    <glyph glyph-name="lacute" unicode="&#x13a;" horiz-adv-x="446" 
d="M315 1649l-30 90l506 190l34 -102zM150 0l290 1497h131l-290 -1497h-131z" />
    <glyph glyph-name="uni013B" unicode="&#x13b;" horiz-adv-x="1075" 
d="M324 119h714l-22 -119h-846l276 1423h132zM584 -100q38 0 62 -22.5t24 -59.5q0 -33 -18 -66.5t-58 -87.5l-109 -141l-57 35l100 137q1 2 4 5t4.5 5.5t2.5 5.5q-28 5 -45 27t-17 55q0 42 31.5 74.5t75.5 32.5z" />
    <glyph glyph-name="uni013C" unicode="&#x13c;" horiz-adv-x="446" 
d="M440 1497h131l-290 -1497h-131zM193 -100q37 0 61.5 -23t24.5 -59q0 -33 -18.5 -67t-59.5 -87l-107 -141l-57 35l98 137q9 14 10 16q-27 5 -44 27t-17 55q0 42 32.5 74.5t76.5 32.5z" />
    <glyph glyph-name="Lcaron" unicode="&#x13d;" horiz-adv-x="1081" 
d="M1145 1444l-137 -445h-90l120 445h107zM578 1423l-254 -1304h714l-22 -119h-846l276 1423h132z" />
    <glyph glyph-name="lcaron" unicode="&#x13e;" horiz-adv-x="528" 
d="M150 0l290 1497h131l-290 -1497h-131zM633 1053l123 444h104l-135 -444h-92z" />
    <glyph glyph-name="Ldot" unicode="&#x13f;" horiz-adv-x="1087" 
d="M324 119h714l-22 -119h-846l276 1423h132zM913 659q-38 0 -63 25.5t-25 65.5q0 45 32.5 78.5t80.5 33.5q40 0 65 -25t25 -65q0 -44 -33.5 -78.5t-81.5 -34.5z" />
    <glyph glyph-name="ldot" unicode="&#x140;" horiz-adv-x="585" 
d="M150 0l290 1497h131l-290 -1497h-131zM629 659q-40 0 -65 25.5t-25 65.5q0 45 32.5 77.5t79.5 32.5q40 0 66 -25t26 -63q0 -45 -33 -79t-81 -34z" />
    <glyph glyph-name="Lslash" unicode="&#x141;" horiz-adv-x="1150" 
d="M399 119h715l-22 -119h-846l125 641l-178 -70l-27 86l225 91l131 675h131l-121 -620l218 86l30 -88l-268 -105z" />
    <glyph glyph-name="lslash" unicode="&#x142;" horiz-adv-x="512" 
d="M707 858l-248 -129l-142 -729h-129l127 653l-180 -94l-41 82l244 127l141 729h129l-127 -653l183 96z" />
    <glyph glyph-name="Nacute" unicode="&#x143;" horiz-adv-x="1404" 
d="M1270 1753l-510 -178l-31 90l508 190zM1335 1423h129l-276 -1423h-109l-544 1194l-234 -1194h-131l276 1423h111l545 -1194z" />
    <glyph glyph-name="nacute" unicode="&#x144;" horiz-adv-x="1253" 
d="M1147 1481l-451 -242l-47 80l447 254zM856 1102q196 0 293.5 -121.5t56.5 -331.5l-125 -649h-131l121 629q33 169 -40.5 261.5t-225.5 92.5q-144 0 -253 -89t-142 -228l-129 -666h-131l208 1079h125l-34 -180q69 92 175 147.5t232 55.5z" />
    <glyph glyph-name="uni0145" unicode="&#x145;" horiz-adv-x="1404" 
d="M1335 1423h129l-276 -1423h-109l-544 1194l-234 -1194h-131l276 1423h111l545 -1194zM678 -100q37 0 60.5 -22.5t23.5 -59.5q0 -33 -18 -68t-58 -86l-106 -141l-58 35l99 137q9 14 10 16q-28 5 -45 27t-17 55q0 42 32 74.5t77 32.5z" />
    <glyph glyph-name="uni0146" unicode="&#x146;" horiz-adv-x="1253" 
d="M856 1102q196 0 293.5 -121.5t56.5 -331.5l-125 -649h-131l121 629q33 169 -40.5 261.5t-225.5 92.5q-144 0 -253 -89t-142 -228l-129 -666h-131l208 1079h125l-34 -180q69 92 175 147.5t232 55.5zM612 -100q38 0 62 -22.5t24 -59.5q0 -33 -18 -67t-57 -87l-109 -141
l-55 35l98 137q9 14 10 16q-28 5 -44.5 26.5t-16.5 55.5q0 42 31.5 74.5t74.5 32.5z" />
    <glyph glyph-name="Ncaron" unicode="&#x147;" horiz-adv-x="1404" 
d="M1028 1579h-106l-201 266h115l147 -180l219 180h133zM1335 1423h129l-276 -1423h-109l-544 1194l-234 -1194h-131l276 1423h111l545 -1194z" />
    <glyph glyph-name="ncaron" unicode="&#x148;" horiz-adv-x="1253" 
d="M899 1253h-106l-197 301h111l149 -219l234 219h129zM856 1102q196 0 293.5 -121.5t56.5 -331.5l-125 -649h-131l121 629q33 169 -40.5 261.5t-225.5 92.5q-144 0 -253 -89t-142 -228l-129 -666h-131l208 1079h125l-34 -180q69 92 175 147.5t232 55.5z" />
    <glyph glyph-name="napostrophe" unicode="&#x149;" horiz-adv-x="1421" 
d="M469 1511l-135 -444h-92l123 444h104zM1022 1102q196 0 294.5 -121.5t57.5 -331.5l-127 -649h-131l121 629q33 170 -40 262t-226 92q-144 0 -253.5 -89t-142.5 -228l-129 -666h-131l209 1079h125l-35 -182q67 93 173.5 149t234.5 56z" />
    <glyph glyph-name="Eng" unicode="&#x14a;" horiz-adv-x="1404" 
d="M1335 1423h129l-276 -1423l-10 -51q-34 -168 -139.5 -258t-268.5 -90h-49l20 116h41q108 0 183 66.5t98 181.5l10 49l-538 1180l-234 -1194h-131l276 1423h111l545 -1194z" />
    <glyph glyph-name="eng" unicode="&#x14b;" horiz-adv-x="1220" 
d="M860 1102q204 0 296 -123t50 -332l-125 -649q-34 -166 -150.5 -267.5t-271.5 -101.5h-28l24 115h21q101 0 176 70t98 184l121 629q31 171 -37 264t-225 92q-144 -1 -257 -92t-140 -215l-131 -676h-131l208 1079h125l-34 -184q69 90 178 148.5t233 58.5z" />
    <glyph glyph-name="Omacron" unicode="&#x14c;" horiz-adv-x="1611" 
d="M784 1659l23 108h575l-20 -108h-578zM821 -23q-275 0 -443.5 175t-168.5 458q0 225 108 417.5t293.5 305.5t403.5 113q274 0 442 -173.5t168 -457.5q0 -170 -64 -325.5t-171.5 -267.5t-256 -178.5t-311.5 -66.5zM831 102q132 0 254 56.5t210.5 151.5t141 225.5
t52.5 271.5q0 231 -133 372.5t-352 141.5q-133 0 -255 -56.5t-210 -151t-140.5 -224.5t-52.5 -271q0 -232 133 -374t352 -142z" />
    <glyph glyph-name="omacron" unicode="&#x14d;" horiz-adv-x="1277" 
d="M586 1352l18 102h557l-18 -102h-557zM645 -23q-212 0 -342.5 128.5t-130.5 343.5q0 129 48.5 248.5t131.5 208.5t201 142.5t250 53.5q212 0 341.5 -128t129.5 -345q0 -127 -47.5 -246t-129 -208.5t-200 -143.5t-252.5 -54zM659 96q136 0 248 75t173 194.5t61 252.5
q0 165 -95.5 265t-254.5 100q-136 0 -249 -74.5t-175 -193t-62 -250.5q0 -166 97 -267.5t257 -101.5z" />
    <glyph glyph-name="Ohungarumlaut" unicode="&#x150;" horiz-adv-x="1611" 
d="M850 1524l-74 59l285 338l82 -66zM1217 1524l-70 59l283 338l83 -66zM821 -23q-275 0 -443.5 175t-168.5 458q0 225 108 417.5t293.5 305.5t403.5 113q274 0 442 -173.5t168 -457.5q0 -170 -64 -325.5t-171.5 -267.5t-256 -178.5t-311.5 -66.5zM831 102q132 0 254 56.5
t210.5 151.5t141 225.5t52.5 271.5q0 231 -133 372.5t-352 141.5q-133 0 -255 -56.5t-210 -151t-140.5 -224.5t-52.5 -271q0 -232 133 -374t352 -142z" />
    <glyph glyph-name="ohungarumlaut" unicode="&#x151;" horiz-adv-x="1277" 
d="M651 1235l-69 59l276 308l82 -68zM1008 1235l-72 59l278 308l80 -68zM645 -23q-212 0 -342.5 128.5t-130.5 343.5q0 129 48.5 248.5t131.5 208.5t201 142.5t250 53.5q212 0 341.5 -128t129.5 -345q0 -127 -47.5 -246t-129 -208.5t-200 -143.5t-252.5 -54zM659 96
q136 0 248 75t173 194.5t61 252.5q0 165 -95.5 265t-254.5 100q-136 0 -249 -74.5t-175 -193t-62 -250.5q0 -166 97 -267.5t257 -101.5z" />
    <glyph glyph-name="OE" unicode="&#x152;" horiz-adv-x="2279" 
d="M2441 1307h-712l-99 -508h647l-22 -115h-647l-111 -567h725l-22 -117h-857l52 260q-110 -131 -258 -207t-316 -76q-275 0 -443.5 175t-168.5 458q0 225 108 417.5t293.5 305.5t403.5 113q201 0 340 -95t200 -266l66 338h844zM831 102q177 0 327 96t236.5 258t86.5 351
q0 232 -129.5 373t-347.5 141q-133 0 -255 -56.5t-210 -151t-140.5 -224.5t-52.5 -271q0 -232 133 -374t352 -142z" />
    <glyph glyph-name="oe" unicode="&#x153;" horiz-adv-x="2146" 
d="M1753 1102q191 0 308.5 -118t117.5 -302q0 -37 -9 -94t-18 -84h-890v-6q-2 -14 -2 -43q0 -164 97 -264.5t249 -100.5q255 0 385 242l94 -64q-86 -144 -206.5 -217.5t-289.5 -73.5q-150 0 -263 76.5t-163 206.5q-86 -130 -220.5 -206.5t-297.5 -76.5q-212 0 -342.5 128.5
t-130.5 343.5q0 129 48.5 248.5t131.5 208.5t201 142.5t250 53.5q158 0 273 -74.5t165 -208.5q86 131 220.5 207t291.5 76zM1278 602h772q6 41 6 76q0 148 -81.5 231.5t-227.5 83.5q-170 0 -298.5 -110t-170.5 -281zM659 96q136 0 248 75t173 194.5t61 252.5
q0 165 -95.5 265t-254.5 100q-136 0 -249 -74.5t-175 -193t-62 -250.5q0 -166 97 -267.5t257 -101.5z" />
    <glyph glyph-name="Racute" unicode="&#x154;" horiz-adv-x="1226" 
d="M1196 1753l-508 -178l-31 90l506 190zM1317 1083q0 -186 -142 -308t-374 -122h-86l397 -653h-141l-389 653h-154l-127 -653h-131l276 1423h476q188 0 291.5 -91.5t103.5 -248.5zM555 1307l-106 -553h364q164 0 267.5 88.5t103.5 224.5q0 114 -73 177t-208 63h-348z" />
    <glyph glyph-name="racute" unicode="&#x155;" horiz-adv-x="671" 
d="M899 1481l-450 -242l-48 80l447 254zM446 889q67 94 168 153.5t217 59.5l-22 -123q-147 -1 -256.5 -90.5t-142.5 -222.5l-129 -666h-131l208 1079h125z" />
    <glyph glyph-name="uni0156" unicode="&#x156;" horiz-adv-x="1226" 
d="M1317 1083q0 -186 -142 -308t-374 -122h-86l397 -653h-141l-389 653h-154l-127 -653h-131l276 1423h476q188 0 291.5 -91.5t103.5 -248.5zM555 1307l-106 -553h364q164 0 267.5 88.5t103.5 224.5q0 114 -73 177t-208 63h-348zM602 -100q38 0 62 -22.5t24 -59.5
q0 -33 -18 -66.5t-58 -87.5l-108 -141l-58 35l101 137l10 16q-28 5 -45.5 27t-17.5 55q0 42 32 74.5t76 32.5z" />
    <glyph glyph-name="uni0157" unicode="&#x157;" horiz-adv-x="671" 
d="M446 889q67 94 168 153.5t217 59.5l-22 -123q-147 -1 -256.5 -90.5t-142.5 -222.5l-129 -666h-131l208 1079h125zM193 -100q38 0 62 -22.5t24 -59.5q0 -33 -18 -66.5t-58 -87.5l-109 -141l-57 35l100 137l10 16q-28 5 -45.5 27t-17.5 55q0 42 32.5 74.5t76.5 32.5z" />
    <glyph glyph-name="Rcaron" unicode="&#x158;" horiz-adv-x="1226" 
d="M940 1579h-106l-201 266h115l147 -180l219 180h133zM1317 1083q0 -186 -142 -308t-374 -122h-86l397 -653h-141l-389 653h-154l-127 -653h-131l276 1423h476q188 0 291.5 -91.5t103.5 -248.5zM555 1307l-106 -553h364q164 0 267.5 88.5t103.5 224.5q0 114 -73 177
t-208 63h-348z" />
    <glyph glyph-name="rcaron" unicode="&#x159;" horiz-adv-x="671" 
d="M662 1253h-107l-197 301h111l149 -219l234 219h131zM446 889q67 94 168 153.5t217 59.5l-22 -123q-147 -1 -256.5 -90.5t-142.5 -222.5l-129 -666h-131l208 1079h125z" />
    <glyph glyph-name="Sacute" unicode="&#x15a;" horiz-adv-x="1110" 
d="M633 1577l-31 90l508 191l33 -105zM569 -18q-195 0 -312.5 86t-137.5 243l131 45q9 -120 100 -189t240 -69q155 0 247.5 74.5t92.5 200.5q0 72 -33.5 128t-86.5 93t-117.5 70t-129 68t-117.5 76.5t-86.5 106t-33.5 146.5q0 169 129.5 276t335.5 107q170 0 278.5 -78
t122.5 -209l-131 -45q-12 104 -85.5 160.5t-195.5 56.5q-141 0 -230 -70t-89 -182q0 -64 33.5 -114t86.5 -84.5t117.5 -66t129 -68t117.5 -81t86.5 -114t33.5 -158.5q0 -187 -135 -298t-361 -111z" />
    <glyph glyph-name="sacute" unicode="&#x15b;" horiz-adv-x="964" 
d="M553 1241l-47 80l446 254l52 -92zM494 -23q-164 0 -271.5 67.5t-124.5 186.5l113 39q12 -90 93.5 -140t203.5 -50q126 0 207.5 56t81.5 155q0 55 -29.5 96t-77 66t-104.5 46.5t-114.5 45.5t-105 54.5t-77 81t-29.5 118.5q0 135 108 219t281 84q143 0 236 -59t110 -158
l-114 -41q-15 77 -78 117t-158 40q-113 0 -183.5 -52.5t-70.5 -139.5q0 -46 23 -82t61 -57.5t86.5 -43t99 -38t99 -42t86.5 -55.5t61 -78t23 -110q0 -151 -123 -238.5t-313 -87.5z" />
    <glyph glyph-name="Scedilla" unicode="&#x15e;" horiz-adv-x="1110" 
d="M461 1077q0 -64 33.5 -114t86.5 -84.5t117.5 -66t129 -68t117.5 -81t86.5 -114t33.5 -158.5q0 -174 -119 -283.5t-321 -123.5l-60 -101q65 -9 105.5 -57t40.5 -115q0 -86 -68.5 -144.5t-173.5 -58.5q-73 0 -126.5 28.5t-80.5 70.5l62 55q40 -74 137 -74q67 0 109 36
t42 91q0 53 -33 87t-90 34h-22l-10 21l78 125q-180 7 -288.5 93.5t-127.5 235.5l131 45q9 -120 100 -189t240 -69q155 0 247.5 74.5t92.5 200.5q0 72 -33.5 128t-86.5 93t-117.5 70t-129 68t-117.5 76.5t-86.5 106t-33.5 146.5q0 169 129.5 276t335.5 107q170 0 278.5 -78
t122.5 -209l-131 -45q-12 104 -85.5 160.5t-195.5 56.5q-141 0 -230 -70t-89 -182z" />
    <glyph glyph-name="scedilla" unicode="&#x15f;" horiz-adv-x="964" 
d="M391 809q0 -46 23 -82t61 -57.5t86.5 -43t99 -38t99 -42t86.5 -55.5t61 -78t23 -110q0 -139 -106.5 -225t-274.5 -98l-57 -97q64 -7 105.5 -56.5t41.5 -115.5q0 -86 -69.5 -144.5t-174.5 -58.5q-73 0 -126.5 28.5t-80.5 70.5l62 55q40 -74 137 -74q67 0 109.5 36t42.5 91
q0 53 -33 87t-90 34h-23l-10 21l76 120q-151 8 -248.5 75t-112.5 179l113 39q12 -90 93.5 -140t203.5 -50q126 0 207.5 56t81.5 155q0 55 -29.5 96t-77 66t-104.5 46.5t-114.5 45.5t-105 54.5t-77 81t-29.5 118.5q0 135 108 219t281 84q143 0 236 -59t110 -158l-114 -41
q-15 77 -78 117t-158 40q-113 0 -183.5 -52.5t-70.5 -139.5z" />
    <glyph glyph-name="Scaron" unicode="&#x160;" horiz-adv-x="1110" 
d="M891 1581h-107l-198 266h114l148 -178l217 178h135zM780 1329q-141 0 -230 -70t-89 -182q0 -64 33.5 -114t86.5 -84.5t117.5 -66t129 -68t117.5 -81t86.5 -114t33.5 -158.5q0 -187 -135 -298t-361 -111q-195 0 -312.5 86t-137.5 243l131 45q9 -120 100 -189t240 -69
q155 0 247.5 74.5t92.5 200.5q0 72 -33.5 128t-86.5 93t-117.5 70t-129 68t-117.5 76.5t-86.5 106t-33.5 146.5q0 169 129.5 276t335.5 107q170 0 278.5 -78t122.5 -209l-131 -45q-12 104 -85.5 160.5t-195.5 56.5z" />
    <glyph glyph-name="scaron" unicode="&#x161;" horiz-adv-x="964" 
d="M750 1255h-107l-197 301h111l150 -219l231 219h131zM645 1001q-113 0 -183.5 -52.5t-70.5 -139.5q0 -46 23 -82t61 -57.5t86.5 -43t99 -38t99 -42t86.5 -55.5t61 -78t23 -110q0 -151 -123 -238.5t-313 -87.5q-164 0 -271.5 67.5t-124.5 186.5l113 39q12 -90 93.5 -140
t203.5 -50q126 0 207.5 56t81.5 155q0 55 -29.5 96t-77 66t-104.5 46.5t-114.5 45.5t-105 54.5t-77 81t-29.5 118.5q0 135 108 219t281 84q143 0 236 -59t110 -158l-114 -41q-15 77 -78 117t-158 40z" />
    <glyph glyph-name="uni0162" unicode="&#x162;" horiz-adv-x="1103" 
d="M600 0h-18l-74 -125q65 -9 105 -57t40 -113q0 -87 -68 -146t-173 -59q-73 0 -127.5 28.5t-79.5 70.5l61 55q40 -74 137 -74q66 0 108 36.5t42 90.5q0 53 -32 87t-89 34h-22l-11 20l95 152h-25l254 1305h-444l22 118h1020l-23 -118h-444z" />
    <glyph glyph-name="uni0163" unicode="&#x163;" horiz-adv-x="733" 
d="M535 965l-113 -584q-26 -128 25.5 -196t168.5 -68h105l-23 -117h-127q-24 0 -36 2l-60 -102q65 -10 105.5 -58.5t40.5 -113.5q0 -87 -68.5 -145t-173.5 -58q-74 0 -128 27.5t-79 70.5l61 55q39 -73 138 -73q66 0 107.5 36t41.5 89t-32.5 86.5t-88.5 33.5h-22l-10 21
l88 145q-105 32 -149.5 125.5t-16.5 227.5l117 596h-197l20 114h117q91 0 109 95l34 180h125l-53 -275h328l-21 -114h-333z" />
    <glyph glyph-name="Tcaron" unicode="&#x164;" horiz-adv-x="1103" 
d="M885 1579h-107l-200 266h116l148 -180l217 180h135zM1321 1423l-23 -118h-444l-254 -1305h-131l254 1305h-444l22 118h1020z" />
    <glyph glyph-name="tcaron" unicode="&#x165;" horiz-adv-x="733" 
d="M784 1147l123 444h105l-135 -444h-93zM571 0q-164 0 -240 100t-42 269l117 596h-197l20 114h117q91 0 109 95l34 180h125l-53 -275h328l-21 -114h-333l-113 -584q-26 -128 25.5 -196t168.5 -68h105l-23 -117h-127z" />
    <glyph glyph-name="Tbar" unicode="&#x166;" horiz-adv-x="1124" 
d="M1307 1305h-445l-112 -576h235l-18 -98h-236l-123 -631h-131l123 631h-233l18 98h233l113 576h-444l22 118h1022z" />
    <glyph glyph-name="tbar" unicode="&#x167;" horiz-adv-x="751" 
d="M881 965h-332l-66 -338h277l-19 -97h-278l-29 -149q-26 -128 26.5 -196t170.5 -68h104l-24 -117h-125q-165 0 -241 99.5t-44 269.5l31 161h-172l16 97h176l66 338h-197l23 114h114q91 0 109 95l35 180h127l-56 -275h330z" />
    <glyph glyph-name="Utilde" unicode="&#x168;" horiz-adv-x="1372" 
d="M1118 1595q-44 0 -81.5 16.5t-59.5 37t-53.5 37t-65.5 16.5q-81 0 -117 -103l-90 41q29 77 81.5 124.5t129.5 47.5q42 0 78 -16.5t58 -36.5t54 -36.5t66 -16.5q87 0 123 102l86 -39q-27 -79 -79 -126.5t-130 -47.5zM686 -23q-239 0 -355.5 158t-68.5 406l170 882h131
l-170 -882q-40 -201 46 -321t266 -120q170 0 284.5 105t151.5 295l178 923h131l-178 -923q-47 -251 -200 -387t-386 -136z" />
    <glyph glyph-name="utilde" unicode="&#x169;" horiz-adv-x="1232" 
d="M723 1405q-79 0 -115 -102l-90 40q68 173 209 173q41 0 76.5 -16.5t56.5 -37t52 -37t65 -16.5q80 0 119 102l86 -38q-27 -79 -79.5 -127t-127.5 -48q-35 0 -64.5 11t-50.5 27t-41 31.5t-44.5 26.5t-51.5 11zM1126 1079h129l-208 -1079h-123l34 188q-68 -95 -172.5 -153
t-228.5 -58q-188 0 -284 122t-56 331l127 649h129l-121 -628q-33 -169 39.5 -262t218.5 -93q141 0 251 94.5t138 239.5z" />
    <glyph glyph-name="Umacron" unicode="&#x16a;" horiz-adv-x="1372" 
d="M680 1659l20 108h578l-21 -108h-577zM686 -23q-239 0 -355.5 158t-68.5 406l170 882h131l-170 -882q-40 -201 46 -321t266 -120q170 0 284.5 105t151.5 295l178 923h131l-178 -923q-47 -251 -200 -387t-386 -136z" />
    <glyph glyph-name="umacron" unicode="&#x16b;" horiz-adv-x="1232" 
d="M1130 1456l-18 -102h-557l18 102h557zM1126 1079h129l-208 -1079h-123l34 188q-68 -95 -172.5 -153t-228.5 -58q-188 0 -284 122t-56 331l127 649h129l-121 -628q-33 -169 39.5 -262t218.5 -93q141 0 251 94.5t138 239.5z" />
    <glyph glyph-name="Uring" unicode="&#x16e;" horiz-adv-x="1372" 
d="M956 1485q-76 0 -123 48t-47 122q0 86 66 147.5t156 61.5q76 0 123 -48t47 -122q0 -86 -65.5 -147.5t-156.5 -61.5zM967 1567q49 0 87 35.5t38 87.5q0 39 -26 65.5t-69 26.5q-51 0 -88 -35t-37 -86q0 -41 26 -67.5t69 -26.5zM686 -23q-239 0 -355.5 158t-68.5 406
l170 882h131l-170 -882q-40 -201 46 -321t266 -120q170 0 284.5 105t151.5 295l178 923h131l-178 -923q-47 -251 -200 -387t-386 -136z" />
    <glyph glyph-name="uring" unicode="&#x16f;" horiz-adv-x="1232" 
d="M827 1198q-77 0 -123.5 47.5t-46.5 122.5q0 86 65 147.5t155 61.5q77 0 123.5 -47.5t46.5 -122.5q0 -86 -65 -147.5t-155 -61.5zM868 1495q-52 0 -88.5 -34.5t-36.5 -86.5q0 -41 25 -67.5t68 -26.5q51 0 88 35t37 86q0 41 -25.5 67.5t-67.5 26.5zM1126 1079h129
l-208 -1079h-123l34 188q-68 -95 -172.5 -153t-228.5 -58q-188 0 -284 122t-56 331l127 649h129l-121 -628q-33 -169 39.5 -262t218.5 -93q141 0 251 94.5t138 239.5z" />
    <glyph glyph-name="Uhungarumlaut" unicode="&#x170;" horiz-adv-x="1372" 
d="M748 1524l-72 59l282 338l84 -66zM1116 1524l-72 59l285 338l82 -66zM686 -23q-239 0 -355.5 158t-68.5 406l170 882h131l-170 -882q-40 -201 46 -321t266 -120q170 0 284.5 105t151.5 295l178 923h131l-178 -923q-47 -251 -200 -387t-386 -136z" />
    <glyph glyph-name="uhungarumlaut" unicode="&#x171;" horiz-adv-x="1232" 
d="M903 1536l-287 -299l-71 59l276 308zM971 1237l-72 59l279 308l79 -68zM999 430l127 649h129l-208 -1079h-123l34 188q-68 -95 -172.5 -153t-228.5 -58q-188 0 -284 122t-56 331l127 649h129l-121 -628q-33 -169 39.5 -262t218.5 -93q141 0 251 94.5t138 239.5z" />
    <glyph glyph-name="Uogonek" unicode="&#x172;" horiz-adv-x="1372" 
d="M1319 1423h131l-178 -923q-35 -183 -127.5 -306t-231.5 -178l-82 -69q-72 -61 -109.5 -110t-37.5 -103q0 -41 23 -62.5t65 -21.5q65 0 107 45l39 -62q-68 -71 -175 -71q-74 0 -117.5 40t-43.5 109q0 128 182 271q-62 -5 -78 -5q-239 0 -355.5 158t-68.5 406l170 882h131
l-170 -882q-40 -201 46 -321t266 -120q170 0 284.5 105t151.5 295z" />
    <glyph glyph-name="uogonek" unicode="&#x173;" horiz-adv-x="1232" 
d="M958 -78q-72 -61 -109.5 -110t-37.5 -103q0 -41 23 -62.5t63 -21.5q65 0 107 45l40 -61q-72 -72 -174 -72q-74 0 -118.5 40.5t-44.5 109.5q0 77 55.5 146.5t146.5 137.5l37 29h-22l34 188q-68 -95 -172.5 -153t-228.5 -58q-188 0 -284 122t-56 331l127 649h129l-121 -628
q-33 -169 39.5 -262t218.5 -93q141 0 251 94.5t138 239.5l127 649h129l-208 -1079z" />
    <glyph glyph-name="Wcircumflex" unicode="&#x174;" horiz-adv-x="1765" 
d="M1200 1759l-221 -180h-133l307 266h107l200 -266h-114zM1819 1423h133l-611 -1423h-147l-94 1239l-580 -1239h-143l-62 1423h127l39 -1249l582 1249h139l92 -1253z" />
    <glyph glyph-name="wcircumflex" unicode="&#x175;" horiz-adv-x="1564" 
d="M1034 1475l-231 -220h-131l317 301h109l198 -301h-110zM1559 1079h137l-500 -1079h-152l-106 934l-465 -934h-151l-84 1079h127l61 -950l463 950h145l101 -948z" />
    <glyph glyph-name="Ycircumflex" unicode="&#x176;" horiz-adv-x="1234" 
d="M926 1759l-219 -180h-136l310 266h106l201 -266h-117zM1456 1423l-682 -839l-112 -584h-132l115 592l-352 831h133l303 -723l569 723h158z" />
    <glyph glyph-name="ycircumflex" unicode="&#x177;" horiz-adv-x="1097" 
d="M801 1475l-232 -220h-131l318 301h108l199 -301h-111zM1106 1079h147l-872 -1446h-133l227 367h-16l-232 1079h131l195 -952z" />
    <glyph glyph-name="Ydieresis" unicode="&#x178;" horiz-adv-x="1234" 
d="M702 1602q-43 0 -70.5 26.5t-27.5 71.5q0 51 37 87t90 36q44 0 70 -28t26 -73q0 -51 -37 -85.5t-88 -34.5zM1083 1602q-43 0 -70.5 26.5t-27.5 71.5q0 51 37 87t90 36q44 0 70 -28t26 -73q0 -51 -37 -85.5t-88 -34.5zM1456 1423l-682 -839l-112 -584h-132l115 592
l-352 831h133l303 -723l569 723h158z" />
    <glyph glyph-name="Zacute" unicode="&#x179;" horiz-adv-x="1105" 
d="M1135 1753l-510 -178l-31 90l506 190zM1286 1423l-18 -90l-1016 -1214h795l-23 -119h-977l16 88l1022 1219h-763l22 116h942z" />
    <glyph glyph-name="zacute" unicode="&#x17a;" horiz-adv-x="940" 
d="M969 1481l-453 -242l-45 80l447 254zM1053 1079l-21 -102l-792 -868h649l-23 -109h-821l18 98l795 873h-596l21 108h770z" />
    <glyph glyph-name="Zdotaccent" unicode="&#x17b;" horiz-adv-x="1105" 
d="M842 1602q-43 0 -73 28t-30 70q0 49 37 85t88 36q44 0 73.5 -29t29.5 -72q0 -49 -37.5 -83.5t-87.5 -34.5zM1286 1423l-18 -90l-1016 -1214h795l-23 -119h-977l16 88l1022 1219h-763l22 116h942z" />
    <glyph glyph-name="zdotaccent" unicode="&#x17c;" horiz-adv-x="940" 
d="M684 1290q-47 0 -75.5 29t-28.5 74q0 52 39.5 90.5t93.5 38.5q47 0 75.5 -29t28.5 -72q0 -54 -39.5 -92.5t-93.5 -38.5zM1053 1079l-21 -102l-792 -868h649l-23 -109h-821l18 98l795 873h-596l21 108h770z" />
    <glyph glyph-name="Zcaron" unicode="&#x17d;" horiz-adv-x="1105" 
d="M879 1579h-107l-201 266h117l148 -180l217 180h135zM1286 1423l-18 -90l-1016 -1214h795l-23 -119h-977l16 88l1022 1219h-763l22 116h942z" />
    <glyph glyph-name="zcaron" unicode="&#x17e;" horiz-adv-x="940" 
d="M731 1253h-106l-199 301h113l147 -219l234 219h131zM1053 1079l-21 -102l-792 -868h649l-23 -109h-821l18 98l795 873h-596l21 108h770z" />
    <glyph glyph-name="uni01EA" unicode="&#x1ea;" horiz-adv-x="1611" 
d="M946 -66q-72 -65 -108.5 -113t-36.5 -102q0 -84 86 -84q61 0 106 48l39 -64q-72 -72 -172 -72q-75 0 -119.5 40.5t-44.5 109.5q0 76 54.5 145.5t144.5 139.5q-62 -5 -74 -5q-275 0 -443.5 175t-168.5 458q0 225 108 417.5t293.5 305.5t403.5 113q274 0 442 -173.5
t168 -457.5q0 -287 -167 -511t-425 -298zM346 618q0 -232 133 -374t352 -142q132 0 254 56.5t210.5 151.5t141 225.5t52.5 271.5q0 231 -133 372.5t-352 141.5q-133 0 -255 -56.5t-210 -151t-140.5 -224.5t-52.5 -271z" />
    <glyph glyph-name="uni01EB" unicode="&#x1eb;" horiz-adv-x="1277" 
d="M727 -74q-72 -61 -109.5 -110t-37.5 -103q0 -41 23 -62.5t63 -21.5q64 0 106 45l41 -61q-72 -72 -174 -72q-74 0 -119 40.5t-45 109.5q0 133 203 284l4 5q-18 -3 -37 -3q-212 0 -342.5 128.5t-130.5 343.5q0 129 48.5 248.5t131.5 208.5t201 142.5t250 53.5
q212 0 341.5 -128t129.5 -345q0 -219 -129 -396t-336 -233zM305 465q0 -166 97 -267.5t257 -101.5q136 0 248 75t173 194.5t61 252.5q0 165 -95.5 265t-254.5 100q-136 0 -249 -74.5t-175 -193t-62 -250.5z" />
    <glyph glyph-name="AEacute" unicode="&#x1fc;" horiz-adv-x="1880" 
d="M1829 1753l-508 -178l-33 90l508 190zM1989 1307h-711l-98 -508h645l-23 -115h-645l-110 -567h722l-22 -117h-854l86 438h-530l-330 -438h-144l1059 1423h977zM535 551h464l148 756h-43z" />
    <glyph glyph-name="aeacute" unicode="&#x1fd;" horiz-adv-x="2185" 
d="M1608 1483l-451 -242l-45 80l447 254zM1751 1102q186 0 302 -118.5t116 -301.5q0 -35 -9 -91.5t-18 -86.5h-895q-2 -16 -2 -49q0 -165 98.5 -267t251.5 -102q257 0 390 244l90 -62q-174 -291 -496 -291q-155 0 -255.5 84t-135.5 228l-55 -289h-123l41 215
q-81 -110 -196.5 -174t-250.5 -64q-197 0 -314.5 128.5t-117.5 340.5q0 130 48 250t129 209.5t196 143t243 53.5q147 0 245.5 -70t137.5 -198l48 245h122l-43 -221q79 113 196.5 178.5t256.5 65.5zM1260 590h782q8 41 8 88q0 148 -83.5 234.5t-229.5 86.5q-174 0 -305 -116
t-172 -293zM643 94q131 0 241.5 74.5t173 197.5t62.5 263q0 164 -89 260t-243 96q-99 0 -189 -43t-154 -114.5t-102 -167t-38 -197.5q0 -163 92.5 -266t245.5 -103z" />
    <glyph glyph-name="Oslashacute" unicode="&#x1fe;" horiz-adv-x="1617" 
d="M1391 1753l-510 -178l-31 90l508 190zM1704 1370l-184 -172q108 -157 108 -383q0 -170 -64 -325.5t-171.5 -267.5t-256 -178.5t-311.5 -66.5q-275 0 -440 170l-186 -172l-66 78l189 174q-109 159 -109 383q0 168 63.5 322.5t171 267t256.5 179.5t312 67q270 0 440 -170
l182 170zM348 618q0 -169 76 -296l930 862q-134 137 -348 137q-133 0 -255 -56.5t-210 -151t-140.5 -224.5t-52.5 -271zM1491 807q0 170 -76 297l-930 -864q135 -138 349 -138q133 0 255 56.5t210 152t140 225.5t52 271z" />
    <glyph glyph-name="oslashacute" unicode="&#x1ff;" horiz-adv-x="1312" 
d="M1124 1481l-450 -242l-45 80l446 254zM1395 991l-168 -129q51 -102 51 -233q0 -127 -47.5 -246t-129 -208.5t-200 -143.5t-252.5 -54q-237 0 -368 156l-158 -123l-51 76l159 123q-55 101 -55 240q0 129 49 248.5t132 208.5t201 142.5t249 53.5q243 0 375 -166l164 127z
M309 465q0 -89 33 -170l731 559q-93 129 -278 129q-136 0 -249 -74.5t-175 -193t-62 -250.5zM1145 618q0 86 -29 158l-727 -559q98 -121 275 -121q102 0 193 44t153.5 117t98.5 167.5t36 193.5z" />
    <glyph glyph-name="uni0218" unicode="&#x218;" horiz-adv-x="1110" 
d="M461 1077q0 -64 33.5 -114t86.5 -84.5t117.5 -66t129 -68t117.5 -81t86.5 -114t33.5 -158.5q0 -187 -135 -298t-361 -111q-195 0 -312.5 86t-137.5 243l131 45q9 -120 100 -189t240 -69q155 0 247.5 74.5t92.5 200.5q0 72 -33.5 128t-86.5 93t-117.5 70t-129 68
t-117.5 76.5t-86.5 106t-33.5 146.5q0 169 129.5 276t335.5 107q170 0 278.5 -78t122.5 -209l-131 -45q-12 104 -85.5 160.5t-195.5 56.5q-141 0 -230 -70t-89 -182zM565 -100q38 0 62 -22.5t24 -59.5q0 -33 -18 -66.5t-58 -87.5l-108 -141l-57 35l100 137l10 16
q-28 5 -45.5 27t-17.5 55q0 42 32 74.5t76 32.5z" />
    <glyph glyph-name="uni0219" unicode="&#x219;" horiz-adv-x="964" 
d="M391 809q0 -46 23 -82t61 -57.5t86.5 -43t99 -38t99 -42t86.5 -55.5t61 -78t23 -110q0 -151 -123 -238.5t-313 -87.5q-164 0 -271.5 67.5t-124.5 186.5l113 39q12 -90 93.5 -140t203.5 -50q126 0 207.5 56t81.5 155q0 55 -29.5 96t-77 66t-104.5 46.5t-114.5 45.5
t-105 54.5t-77 81t-29.5 118.5q0 135 108 219t281 84q143 0 236 -59t110 -158l-114 -41q-15 77 -78 117t-158 40q-113 0 -183.5 -52.5t-70.5 -139.5zM477 -100q38 0 62 -22.5t24 -59.5q0 -33 -18 -66.5t-58 -87.5l-108 -141l-57 35l100 137l10 16q-28 5 -45.5 27t-17.5 55
q0 42 32 74.5t76 32.5z" />
    <glyph glyph-name="uni021A" unicode="&#x21a;" horiz-adv-x="1103" 
d="M1321 1423l-23 -118h-444l-254 -1305h-131l254 1305h-444l22 118h1020zM520 -100q37 0 61.5 -23t24.5 -59q0 -33 -18.5 -67t-59.5 -87l-106 -141l-57 35l98 137q9 14 10 16q-28 5 -44.5 26.5t-16.5 55.5q0 42 32 74.5t76 32.5z" />
    <glyph glyph-name="uni021B" unicode="&#x21b;" horiz-adv-x="733" 
d="M535 965l-113 -584q-26 -128 25.5 -196t168.5 -68h105l-23 -117h-127q-164 0 -240 100t-42 269l117 596h-197l20 114h117q91 0 109 95l34 180h125l-53 -275h328l-21 -114h-333zM469 -84q37 0 61.5 -23.5t24.5 -60.5q0 -31 -18.5 -64.5t-59.5 -86.5l-106 -144l-58 35
l99 139q9 13 10 17q-28 5 -45 26t-17 53q0 43 32.5 76t76.5 33z" />
    <glyph glyph-name="uni0237" unicode="&#x237;" horiz-adv-x="434" 
d="M-174 -371l22 115h31q99 0 173.5 68.5t97.5 183.5l208 1083h131l-208 -1081q-35 -176 -147 -272.5t-271 -96.5h-37z" />
    <glyph glyph-name="circumflex" unicode="&#x2c6;" horiz-adv-x="665" 
d="M926 1255h-109l-151 220l-232 -220h-131l318 301h106z" />
    <glyph glyph-name="caron" unicode="&#x2c7;" horiz-adv-x="714" 
d="M854 1556h131l-321 -301h-107l-197 301h111l150 -219z" />
    <glyph glyph-name="breve" unicode="&#x2d8;" horiz-adv-x="638" 
d="M602 1255q-87 0 -149 45.5t-85 113.5t-8 142h105q-15 -78 22 -138t123 -60q89 0 144 59.5t69 138.5h107q-11 -60 -36 -112.5t-64 -95.5t-97.5 -68t-130.5 -25z" />
    <glyph glyph-name="dotaccent" unicode="&#x2d9;" horiz-adv-x="270" 
d="M432 1292q-47 0 -75.5 29t-28.5 74q0 52 39.5 90.5t93.5 38.5q47 0 75.5 -29t28.5 -72q0 -54 -39.5 -92.5t-93.5 -38.5z" />
    <glyph glyph-name="ring" unicode="&#x2da;" horiz-adv-x="423" 
d="M496 1198q-77 0 -123.5 47.5t-46.5 122.5q0 86 64.5 147.5t154.5 61.5q77 0 123.5 -47.5t46.5 -122.5q0 -86 -64.5 -147.5t-154.5 -61.5zM504 1280q51 0 88 35t37 86q0 41 -25.5 67.5t-68.5 26.5q-50 0 -86.5 -34.5t-36.5 -86.5q0 -41 24.5 -67.5t67.5 -26.5z" />
    <glyph glyph-name="ogonek" unicode="&#x2db;" horiz-adv-x="487" 
d="M162 -461q-74 0 -118 40.5t-44 109.5q0 77 55 146t146 138l94 72l45 -43l-90 -78q-73 -62 -110.5 -110.5t-37.5 -102.5q0 -41 23 -62.5t65 -21.5q66 0 105 45l41 -61q-69 -72 -174 -72z" />
    <glyph glyph-name="tilde" unicode="&#x2dc;" horiz-adv-x="800" 
d="M774 1298q-35 0 -64.5 11t-50.5 27t-41 31.5t-44.5 26.5t-51.5 11q-78 0 -114 -102l-89 40q29 77 81.5 125t125.5 48q41 0 76.5 -16.5t56.5 -37t52 -37t65 -16.5q83 0 119 102l86 -38q-27 -79 -79.5 -127t-127.5 -48z" />
    <glyph glyph-name="hungarumlaut" unicode="&#x2dd;" horiz-adv-x="634" 
d="M362 1237l-71 59l276 308l82 -68zM717 1237l-72 59l279 308l80 -68z" />
    <glyph glyph-name="gravecomb" unicode="&#x300;" 
d="M150 1235l-408 248l57 90l404 -258z" />
    <glyph glyph-name="acutecomb" unicode="&#x301;" 
d="M-221 1241l-47 80l446 254l51 -92z" />
    <glyph glyph-name="uni0302" unicode="&#x302;" 
d="M180 1255h-108l-152 220l-231 -220h-131l317 301h107z" />
    <glyph glyph-name="tildecomb" unicode="&#x303;" 
d="M14 1298q-35 0 -64.5 11t-50.5 27t-41 31.5t-44.5 26.5t-51.5 11q-78 0 -114 -102l-88 40q29 77 81.5 125t125.5 48q34 0 63 -11t49.5 -27t40 -31.5t44 -26.5t52.5 -11q83 0 119 102l86 -38q-27 -79 -79.5 -127t-127.5 -48z" />
    <glyph glyph-name="uni0304" unicode="&#x304;" 
d="M-356 1354l18 102h557l-18 -102h-557z" />
    <glyph glyph-name="uni0306" unicode="&#x306;" 
d="M-76 1255q-130 0 -197 93t-44 208h104q-15 -78 22 -138t123 -60q89 0 144 59.5t69 138.5h107q-11 -60 -36 -112.5t-64 -95.5t-97.5 -68t-130.5 -25z" />
    <glyph glyph-name="uni0307" unicode="&#x307;" 
d="M80 1292q-47 0 -76 29t-29 74q0 52 40 90.5t94 38.5q47 0 75.5 -29t28.5 -72q0 -54 -39.5 -92.5t-93.5 -38.5z" />
    <glyph glyph-name="uni0308" unicode="&#x308;" 
d="M-287 1296q-45 0 -72.5 27t-27.5 74t39 84t90 37q44 0 71 -27t27 -74q0 -48 -38 -84.5t-89 -36.5zM84 1296q-44 0 -71 27t-27 74q0 48 38 84.5t89 36.5q43 0 70.5 -27t27.5 -74q0 -48 -38 -84.5t-89 -36.5z" />
    <glyph glyph-name="uni030A" unicode="&#x30a;" 
d="M-10 1198q-77 0 -123.5 47.5t-46.5 122.5q0 86 64.5 147.5t154.5 61.5q77 0 123.5 -47.5t46.5 -122.5q0 -86 -64.5 -147.5t-154.5 -61.5zM-2 1280q51 0 88 35t37 86q0 41 -25.5 67.5t-68.5 26.5q-50 0 -86.5 -34.5t-36.5 -86.5q0 -41 24.5 -67.5t67.5 -26.5z" />
    <glyph glyph-name="uni030B" unicode="&#x30b;" 
d="M-408 1237l-69 59l276 308l82 -68zM-51 1237l-72 59l279 308l80 -68z" />
    <glyph glyph-name="uni030C" unicode="&#x30c;" 
d="M109 1556h131l-322 -301h-106l-197 301h111l149 -219z" />
    <glyph glyph-name="uni0326" unicode="&#x326;" 
d="M-184 -100q38 0 62 -22.5t24 -59.5q0 -33 -18 -66.5t-58 -87.5l-109 -141l-57 35l100 137q1 2 4 5t4.5 5.5t2.5 5.5q-28 5 -45 27t-17 55q0 42 31.5 74.5t75.5 32.5z" />
    <glyph glyph-name="uni0327" unicode="&#x327;" 
d="M-264 -117q65 -9 105 -57t40 -115q0 -86 -68 -144.5t-173 -58.5q-73 0 -127.5 28.5t-79.5 70.5l61 55q40 -74 137 -74q67 0 108.5 36t41.5 91q0 52 -32.5 86.5t-88.5 34.5h-22l-11 21l101 161h88z" />
    <glyph glyph-name="uni0328" unicode="&#x328;" 
d="M-313 -461q-74 0 -118 40.5t-44 109.5q0 77 55 146t146 138l94 72l45 -43l-90 -78q-73 -62 -110.5 -110.5t-37.5 -102.5q0 -41 23 -62.5t65 -21.5q66 0 105 45l41 -61q-69 -72 -174 -72z" />
    <glyph glyph-name="uni0335" unicode="&#x335;" 
d="M-567 502l18 96h600l-18 -96h-600z" />
    <glyph glyph-name="uni0336" unicode="&#x336;" 
d="M-1229 575l21 107h1278l-21 -107h-1278z" />
    <glyph glyph-name="uni0337" unicode="&#x337;" 
d="M-522 362l-41 82l569 299l43 -81z" />
    <glyph glyph-name="uni0338" unicode="&#x338;" 
d="M-1145 -4l-51 74l1274 979l49 -74z" />
    <glyph glyph-name="Wgrave" unicode="&#x1e80;" horiz-adv-x="1765" 
d="M1440 1663l-33 -90l-502 182l37 105zM1819 1423h133l-611 -1423h-147l-94 1239l-580 -1239h-143l-62 1423h127l39 -1249l582 1249h139l92 -1253z" />
    <glyph glyph-name="wgrave" unicode="&#x1e81;" horiz-adv-x="1564" 
d="M1241 1315l-53 -80l-408 248l60 90zM1559 1079h137l-500 -1079h-152l-106 934l-465 -934h-151l-84 1079h127l61 -950l463 950h145l101 -948z" />
    <glyph glyph-name="Wacute" unicode="&#x1e82;" horiz-adv-x="1765" 
d="M1442 1753l-510 -178l-31 90l506 190zM1819 1423h133l-611 -1423h-147l-94 1239l-580 -1239h-143l-62 1423h127l39 -1249l582 1249h139l92 -1253z" />
    <glyph glyph-name="wacute" unicode="&#x1e83;" horiz-adv-x="1564" 
d="M1280 1483l-451 -242l-47 80l447 254zM1559 1079h137l-500 -1079h-152l-106 934l-465 -934h-151l-84 1079h127l61 -950l463 950h145l101 -948z" />
    <glyph glyph-name="Wdieresis" unicode="&#x1e84;" horiz-adv-x="1765" 
d="M977 1602q-43 0 -69.5 26.5t-26.5 71.5q0 51 37 87t88 36q44 0 71 -28t27 -73q0 -50 -37.5 -85t-89.5 -35zM1358 1602q-43 0 -69.5 26.5t-26.5 71.5q0 51 36.5 87t87.5 36q44 0 71.5 -28.5t27.5 -72.5q0 -50 -37.5 -85t-89.5 -35zM1819 1423h133l-611 -1423h-147
l-94 1239l-580 -1239h-143l-62 1423h127l39 -1249l582 1249h139l92 -1253z" />
    <glyph glyph-name="wdieresis" unicode="&#x1e85;" horiz-adv-x="1564" 
d="M819 1296q-45 0 -72.5 27t-27.5 74t39 84t90 37q44 0 71 -27t27 -74q0 -48 -38 -84.5t-89 -36.5zM1190 1296q-44 0 -71 27t-27 74q0 48 38 84.5t89 36.5q43 0 70.5 -27t27.5 -74q0 -48 -38 -84.5t-89 -36.5zM1559 1079h137l-500 -1079h-152l-106 934l-465 -934h-151
l-84 1079h127l61 -950l463 950h145l101 -948z" />
    <glyph glyph-name="uni1E9E" unicode="&#x1e9e;" horiz-adv-x="1267" 
d="M961 772q138 -20 219.5 -120t74.5 -244q-7 -122 -71.5 -219.5t-172 -152t-237.5 -54.5q-137 0 -220 65t-97 180l71 86q10 -104 77 -162.5t173 -58.5q144 0 243.5 93.5t102.5 230.5q3 119 -73.5 194.5t-198.5 75.5h-57l16 76l397 381q-64 184 -301 184
q-171 0 -285.5 -97.5t-148.5 -271.5l-186 -958h-131l188 963q43 227 196.5 354t381.5 127q176 0 285 -79.5t139 -223.5z" />
    <glyph glyph-name="Ygrave" unicode="&#x1ef2;" horiz-adv-x="1234" 
d="M1171 1663l-34 -90l-500 182l37 105zM1456 1423l-682 -839l-112 -584h-132l115 592l-352 831h133l303 -723l569 723h158z" />
    <glyph glyph-name="ygrave" unicode="&#x1ef3;" horiz-adv-x="1097" 
d="M1010 1315l-56 -80l-405 248l57 90zM1106 1079h147l-872 -1446h-133l227 367h-16l-232 1079h131l195 -952z" />
    <glyph glyph-name="uni1EF8" unicode="&#x1ef8;" horiz-adv-x="1234" 
d="M768 1702q-81 0 -117 -103l-90 41q29 77 81.5 124.5t129.5 47.5q42 0 78 -16.5t58 -36.5t54 -36.5t66 -16.5q87 0 123 102l86 -39q-27 -79 -79 -126.5t-130 -47.5q-44 0 -81.5 16.5t-59.5 37t-53.5 37t-65.5 16.5zM1456 1423l-682 -839l-112 -584h-132l115 592l-352 831
h133l303 -723l569 723h158z" />
    <glyph glyph-name="uni1EF9" unicode="&#x1ef9;" horiz-adv-x="1097" 
d="M653 1405q-80 0 -116 -102l-88 40q29 77 81 125t125 48q41 0 76.5 -16.5t56.5 -37t52 -37t65 -16.5q82 0 121 102l86 -38q-28 -79 -81 -127t-128 -48q-43 0 -79 16.5t-57 37t-51.5 37t-62.5 16.5zM1106 1079h147l-872 -1446h-133l227 367h-16l-232 1079h131l195 -952z
" />
    <glyph glyph-name="endash" unicode="&#x2013;" horiz-adv-x="1038" 
d="M213 465l20 108h787l-21 -108h-786z" />
    <glyph glyph-name="emdash" unicode="&#x2014;" horiz-adv-x="1574" 
d="M213 461l20 110h1323l-20 -110h-1323z" />
    <glyph glyph-name="quoteleft" unicode="&#x2018;" horiz-adv-x="378" 
d="M440 1264q31 -3 51.5 -26.5t20.5 -59.5q0 -48 -33.5 -79.5t-77.5 -31.5q-42 0 -68 25t-26 63q0 31 12.5 58.5t45.5 74.5l118 174h88z" />
    <glyph glyph-name="quoteright" unicode="&#x2019;" horiz-adv-x="374" 
d="M473 1468q41 0 66.5 -25.5t25.5 -62.5q0 -31 -12 -58.5t-43 -74.5l-121 -174h-86l131 199q-32 5 -52 28.5t-20 59.5q0 46 33 77t78 31z" />
    <glyph glyph-name="quotesinglbase" unicode="&#x201a;" horiz-adv-x="378" 
d="M213 178q41 0 66.5 -25.5t25.5 -62.5q0 -33 -11.5 -60t-43.5 -73l-121 -174h-86l131 199q-31 3 -51.5 26.5t-20.5 59.5q0 48 33.5 79t77.5 31z" />
    <glyph glyph-name="quotedblleft" unicode="&#x201c;" horiz-adv-x="651" 
d="M483 1462h88l-131 -198q31 -3 51.5 -26.5t20.5 -59.5q0 -48 -33.5 -79.5t-77.5 -31.5q-42 0 -68 25t-26 63q0 31 12.5 58.5t45.5 74.5zM711 1264q31 -3 51 -26.5t20 -59.5q0 -48 -33 -79.5t-77 -31.5q-41 0 -66.5 25.5t-25.5 62.5q0 32 12 60t43 73l121 174h86z" />
    <glyph glyph-name="quotedblright" unicode="&#x201d;" horiz-adv-x="647" 
d="M473 1468q41 0 66.5 -25.5t25.5 -62.5q0 -31 -12 -58.5t-43 -74.5l-121 -174h-86l131 199q-32 5 -52 28.5t-20 59.5q0 46 33 77t78 31zM743 1468q41 0 67 -25.5t26 -62.5q0 -31 -12 -59t-44 -74l-121 -174h-86l132 199q-32 5 -52 28.5t-20 59.5q0 46 33 77t77 31z" />
    <glyph glyph-name="quotedblbase" unicode="&#x201e;" horiz-adv-x="651" 
d="M213 178q41 0 66.5 -25.5t25.5 -62.5q0 -33 -11.5 -60t-43.5 -73l-121 -174h-86l131 199q-31 3 -51.5 26.5t-20.5 59.5q0 48 33.5 79t77.5 31zM483 178q42 0 68.5 -25.5t26.5 -62.5q0 -32 -12.5 -58.5t-45.5 -74.5l-119 -174h-86l131 199q-33 5 -53 28t-20 58q0 48 33 79
t77 31z" />
    <glyph glyph-name="dagger" unicode="&#x2020;" horiz-adv-x="657" 
d="M813 1286l-18 -96h-185l-108 -551h-107l109 551h-185l17 96h186l41 211h107l-41 -211h184z" />
    <glyph glyph-name="daggerdbl" unicode="&#x2021;" horiz-adv-x="696" 
d="M817 1214h-184l-58 -292h187l-21 -99h-184l-37 -184h-106l37 184h-185l19 99h184l57 292h-184l18 97h185l37 186h106l-37 -186h187z" />
    <glyph glyph-name="bullet" unicode="&#x2022;" horiz-adv-x="690" 
d="M455 512q-73 0 -119.5 47t-46.5 121q0 83 60 144t147 61q75 0 121.5 -46t46.5 -120q0 -84 -60 -145.5t-149 -61.5z" />
    <glyph glyph-name="ellipsis" unicode="&#x2026;" horiz-adv-x="1101" 
d="M199 -18q-39 0 -64.5 24.5t-25.5 63.5q0 46 32.5 79t79.5 33q41 0 65.5 -24.5t24.5 -63.5q0 -46 -32.5 -79t-79.5 -33zM553 -18q-40 0 -65 24t-25 64q0 46 31.5 79t78.5 33q41 0 67 -25t26 -63q0 -46 -33 -79t-80 -33zM903 -18q-39 0 -64.5 24.5t-25.5 63.5q0 46 33 79
t80 33q41 0 65.5 -24.5t24.5 -63.5q0 -46 -33 -79t-80 -33z" />
    <glyph glyph-name="perthousand" unicode="&#x2030;" horiz-adv-x="2127" 
d="M535 788q-120 0 -194.5 77.5t-74.5 197.5q0 94 46.5 179.5t131 139.5t183.5 54q119 0 192.5 -76.5t73.5 -194.5q0 -94 -45.5 -180.5t-129 -141.5t-183.5 -55zM264 0l1086 1423h108l-1085 -1423h-109zM545 877q71 0 131 41.5t92.5 105t32.5 131.5q0 86 -52.5 139.5
t-134.5 53.5q-105 0 -179.5 -86t-74.5 -191q0 -86 52.5 -140t132.5 -54zM1102 -12q-120 0 -193 77t-73 197q0 94 46 179.5t129.5 139.5t182.5 54q120 0 193 -76.5t73 -193.5q0 -94 -45 -180.5t-128.5 -141.5t-184.5 -55zM1774 -12q-120 0 -194.5 77t-74.5 197
q0 94 46.5 179.5t131 139.5t183.5 54q119 0 192.5 -76.5t73.5 -193.5q0 -94 -45.5 -180.5t-129 -141.5t-183.5 -55zM1112 76q71 0 131 41.5t92.5 105t32.5 131.5q0 84 -52 138.5t-132 54.5q-106 0 -181 -86.5t-75 -192.5q0 -84 52 -138t132 -54zM1784 76q106 0 180 86
t74 192q0 85 -51.5 139t-133.5 54q-105 0 -179.5 -86t-74.5 -193q0 -84 52.5 -138t132.5 -54z" />
    <glyph glyph-name="guilsinglleft" unicode="&#x2039;" horiz-adv-x="540" 
d="M594 854l-293 -348l148 -330h-121l-152 340l285 338h133z" />
    <glyph glyph-name="guilsinglright" unicode="&#x203a;" horiz-adv-x="540" 
d="M410 854l149 -338l-283 -340h-133l291 350l-145 328h121z" />
    <glyph glyph-name="fraction" unicode="&#x2044;" horiz-adv-x="827" 
d="M-20 0l1044 1423h104l-1046 -1423h-102z" />
    <glyph glyph-name="uni2074" unicode="&#x2074;" horiz-adv-x="651" 
d="M758 1423l-92 -473h86l-15 -71h-86l-33 -168h-90l35 168h-340l13 65l434 479h88zM578 950l69 359l-321 -359h252z" />
    <glyph glyph-name="Euro" unicode="&#x20ac;" horiz-adv-x="1490" 
d="M1077 1251q-182 0 -329 -105t-220 -278h559l-28 -92h-561q-27 -95 -27 -198v-3h518l-28 -92h-484q25 -181 143.5 -281t307.5 -100q272 0 426 222l104 -56q-90 -140 -229.5 -215.5t-313.5 -75.5q-243 0 -396.5 136.5t-178.5 369.5h-203l27 92h172q0 99 26 201h-131l31 92
h129q84 226 275 367t424 141q173 0 305.5 -80.5t189.5 -218.5l-123 -55q-49 110 -149.5 169.5t-235.5 59.5z" />
    <glyph glyph-name="trademark" unicode="&#x2122;" horiz-adv-x="1255" 
d="M733 1323h-172l-96 -498h-78l96 498h-172l15 72h422zM1278 1395h76l-74 -570h-74l56 435l-232 -412h-67l-70 420l-115 -443h-76l150 570h88l74 -451l252 451l12 -2v2z" />
    <glyph glyph-name="minus" unicode="&#x2212;" horiz-adv-x="950" 
d="M170 573l23 113h829l-23 -113h-829z" />
    <glyph glyph-name="approxequal" unicode="&#x2248;" horiz-adv-x="1056" 
d="M868 698q-60 0 -112 17.5t-84.5 39t-79 39t-96.5 17.5q-45 0 -88 -22t-72 -60l-57 78q38 53 95 84t124 31q60 0 113 -17.5t85.5 -39t79 -39t96.5 -17.5q44 0 87 22.5t73 59.5l58 -76q-38 -53 -96 -85t-126 -32zM782 262q-49 0 -91.5 11.5t-74 28t-61.5 33.5t-67.5 28.5
t-79.5 11.5q-44 0 -86 -22.5t-72 -59.5l-60 78q88 114 222 114q60 0 112.5 -17.5t84.5 -38.5t79.5 -38.5t97.5 -17.5q44 0 86.5 22t73.5 60l58 -78q-86 -115 -222 -115z" />
    <glyph glyph-name="notequal" unicode="&#x2260;" horiz-adv-x="952" 
d="M1038 780h-303l-182 -368h416l-23 -113h-448l-131 -266h-125l131 266h-256l22 113h289l182 368h-399l22 113h433l131 264h125l-131 -264h270z" />
    <glyph glyph-name="uniF8FF" unicode="&#xf8ff;" horiz-adv-x="4724" 
d="M1149 408q-95 0 -136.5 40t-41.5 130v466h203q0 -62 -40 -122t-98 -86l2 -9q58 35 119 35h105v-162h-86v-98q0 -35 36 -35q28 0 50 15v-154q-36 -20 -113 -20zM1303 418v626h200q0 -67 -47 -122t-115 -70l5 -6q84 16 143 16h16v-444h-202zM2808 408q-95 0 -137.5 40.5
t-42.5 129.5v466h202q0 -62 -39 -122t-98 -86l4 -9q58 35 119 35h102v-162h-86v-98q0 -35 37 -35q27 0 49 15v-154q-36 -20 -110 -20zM205 418v624h203v-624h-203zM584 408q-66 0 -105 34t-39 90q0 60 41 98t111 38q92 0 135 -43h4v71q0 24 -12 38t-35 14q-47 0 -47 -60
l-184 29q37 160 249 160q110 0 172 -50t62 -135v-274h-201v45h-6q-14 -20 -51.5 -37.5t-93.5 -17.5zM1548 418v444h199v-133h6q17 143 145 143q70 0 110 -46t40 -134v-274h-205v264q0 55 -39 55q-22 0 -32 -13t-21 -52v-254h-203zM2337 408q-123 0 -190.5 63.5t-67.5 167.5
t69 168.5t189 64.5q122 0 190 -64.5t68 -168.5q0 -103 -67.5 -167t-190.5 -64zM3463 270v592h203v-133h6q21 143 150 143q170 0 170 -233q0 -115 -51.5 -173t-125.5 -58q-105 0 -141 88h-6v-226h-205zM4274 408q-120 0 -187 63.5t-67 167.5q0 103 70 168t190 65
q107 0 173.5 -64.5t66.5 -158.5v-18h-307q0 -39 18.5 -66.5t50.5 -27.5q55 0 62 69l168 -16q-18 -95 -83 -138.5t-155 -43.5zM3015 262v135h133q115 0 137 25l-2 6h-139q-83 0 -107 80l-110 354h204q6 -37 20 -110t24 -134t14 -110h4q13 125 61 354h203l-145 -424
q-63 -176 -217 -176h-80zM4213 655h12q62 0 87.5 12t25.5 38q0 45 -49 45q-34 0 -55 -26t-21 -69zM3738 506q31 0 46 27.5t15 89.5q0 66 -12 95.5t-43 29.5q-46 0 -62 -68v-148q21 -26 56 -26zM2337 535q59 0 59 104q0 106 -59 106q-58 0 -58 -106q0 -104 58 -104zM686 469
q30 0 45 23v104q-10 16 -39 16q-25 0 -40 -19t-15 -52q0 -72 49 -72z" />
    <glyph glyph-name="uni00A40301" horiz-adv-x="667" 
d="M541 1575l-31 90l508 190l33 -102zM29 0l22 117h92q108 0 183 66.5t98 181.5l205 1058h131l-209 -1075q-32 -167 -139.5 -257.5t-270.5 -90.5h-112z" />
    <glyph glyph-name="Q.ss01" horiz-adv-x="1566" 
d="M1624 823q0 -226 -117.5 -416t-310.5 -288h332l-25 -119h-676q-279 0 -448.5 170.5t-169.5 447.5q0 166 64 318.5t171.5 264.5t257 178.5t312.5 66.5q273 0 441.5 -172t168.5 -451zM346 627q0 -227 133 -367.5t352 -140.5q132 0 254 56t210.5 150t141 222t52.5 266
q0 227 -133 367.5t-352 140.5q-133 0 -255 -56t-210 -150t-140.5 -222t-52.5 -266z" />
    <glyph glyph-name="i.loclTRK" horiz-adv-x="446" 
d="M473 1292q-47 0 -75.5 29t-28.5 72q0 54 39.5 92.5t93.5 38.5q47 0 75.5 -29t28.5 -74q0 -52 -39.5 -90.5t-93.5 -38.5zM150 0l208 1079h131l-208 -1079h-131z" />
    <glyph glyph-name="uni006A0301" horiz-adv-x="448" 
d="M303 1239l-47 82l446 252l52 -92zM-174 -371l22 115h31q99 0 173.5 68.5t97.5 183.5l208 1083h131l-208 -1081q-35 -176 -147 -272.5t-271 -96.5h-37z" />
    <glyph glyph-name="g.ss01" horiz-adv-x="1095" 
d="M1270 1079l-23 -114h-243q77 -99 77 -238q0 -142 -79.5 -260.5t-208.5 -181.5q96 -37 147 -110t51 -175q0 -176 -142 -282.5t-372 -106.5q-194 0 -323 83t-152 220l129 45q17 -111 111 -174.5t241 -63.5q168 0 272.5 78t104.5 201q0 107 -78 170t-215 63h-2
q-171 0 -275 103.5t-104 271.5q0 99 41 190.5t109.5 158t161.5 106t192 39.5q74 0 148 -23h432zM584 344q153 0 263.5 110t110.5 261q0 122 -77.5 199t-202.5 77q-151 0 -257 -108t-106 -262q0 -125 73 -201t196 -76z" />
    <glyph glyph-name="gbreve.ss01" horiz-adv-x="1126" 
d="M748 1255q-129 0 -196 93t-44 208h104q-15 -78 22.5 -138t123.5 -60q89 0 144 59.5t69 138.5h106q-24 -129 -106.5 -215t-222.5 -86zM1270 1079l-23 -114h-243q77 -99 77 -238q0 -142 -79.5 -260.5t-208.5 -181.5q96 -37 147 -110t51 -175q0 -176 -142 -282.5
t-372 -106.5q-194 0 -323 83t-152 220l129 45q17 -111 111 -174.5t241 -63.5q168 0 272.5 78t104.5 201q0 107 -78 170t-215 63h-2q-171 0 -275 103.5t-104 271.5q0 99 41 190.5t109.5 158t161.5 106t192 39.5q74 0 148 -23h432zM584 344q153 0 263.5 110t110.5 261
q0 122 -77.5 199t-202.5 77q-151 0 -257 -108t-106 -262q0 -125 73 -201t196 -76z" />
    <glyph glyph-name="uni0123.ss01" horiz-adv-x="1126" 
d="M743 1235q-38 0 -62 22.5t-24 59.5q0 31 18.5 64.5t59.5 86.5l107 144l57 -35l-100 -139l-11 -17q29 -5 46.5 -26t17.5 -54q0 -43 -32.5 -74.5t-76.5 -31.5zM1270 1079l-23 -114h-243q77 -99 77 -238q0 -142 -79.5 -260.5t-208.5 -181.5q96 -37 147 -110t51 -175
q0 -176 -142 -282.5t-372 -106.5q-194 0 -323 83t-152 220l129 45q17 -111 111 -174.5t241 -63.5q168 0 272.5 78t104.5 201q0 107 -78 170t-215 63h-2q-171 0 -275 103.5t-104 271.5q0 99 41 190.5t109.5 158t161.5 106t192 39.5q74 0 148 -23h432zM584 344
q153 0 263.5 110t110.5 261q0 122 -77.5 199t-202.5 77q-151 0 -257 -108t-106 -262q0 -125 73 -201t196 -76z" />
    <glyph glyph-name="gdotaccent.ss01" horiz-adv-x="1126" 
d="M752 1292q-47 0 -76 29t-29 74q0 52 39.5 90.5t93.5 38.5q47 0 76 -29t29 -72q0 -54 -39.5 -92.5t-93.5 -38.5zM1270 1079l-23 -114h-243q77 -99 77 -238q0 -142 -79.5 -260.5t-208.5 -181.5q96 -37 147 -110t51 -175q0 -176 -142 -282.5t-372 -106.5q-194 0 -323 83
t-152 220l129 45q17 -111 111 -174.5t241 -63.5q168 0 272.5 78t104.5 201q0 107 -78 170t-215 63h-2q-171 0 -275 103.5t-104 271.5q0 99 41 190.5t109.5 158t161.5 106t192 39.5q74 0 148 -23h432zM584 344q153 0 263.5 110t110.5 261q0 122 -77.5 199t-202.5 77
q-151 0 -257 -108t-106 -262q0 -125 73 -201t196 -76z" />
    <glyph glyph-name="t.ss01" horiz-adv-x="696" 
d="M272 0l189 965h-258l22 114h176q91 0 109 95l35 180h125l-54 -275h267l-21 -114h-270l-189 -965h-131z" />
    <glyph glyph-name="tbar.ss01" horiz-adv-x="796" 
d="M905 965h-270l-64 -324h238l-18 -96h-238l-107 -545h-129l105 545h-232l19 96h231l64 324h-258l22 114h176q94 0 109 95l37 180h125l-56 -275h267z" />
    <glyph glyph-name="tcaron.ss01" horiz-adv-x="716" 
d="M793 1145l122 444h105l-135 -444h-92zM272 0l189 965h-258l22 114h176q91 0 109 95l35 180h125l-54 -275h267l-21 -114h-270l-189 -965h-131z" />
    <glyph glyph-name="uni0163.ss01" horiz-adv-x="716" 
d="M616 1079h267l-21 -114h-270l-189 -965h-18l-76 -127q65 -10 105.5 -58.5t40.5 -113.5q0 -87 -68.5 -145t-173.5 -58q-74 0 -128 28t-79 71l62 55q40 -74 137 -74q66 0 107.5 36t41.5 89q0 54 -32.5 87.5t-88.5 33.5h-22l-10 20l96 156h-25l189 965h-258l22 114h176
q91 0 109 95l35 180h125z" />
    <glyph glyph-name="uni021B.ss01" horiz-adv-x="716" 
d="M616 1079h267l-21 -114h-270l-189 -965h-131l189 965h-258l22 114h176q91 0 109 95l35 180h125zM315 -111q37 0 61.5 -23.5t24.5 -60.5q0 -32 -18 -65.5t-59 -85.5l-107 -143l-57 34l98 140q9 14 10 16q-27 5 -44 26.5t-17 53.5q0 43 32 75.5t76 32.5z" />
    <glyph glyph-name="u.ss01" horiz-adv-x="1185" 
d="M614 -23q-219 0 -326.5 130t-64.5 348l121 624h131l-123 -626q-32 -166 44.5 -262.5t230.5 -96.5q147 0 243 87t125 231l131 667h131l-129 -665q-39 -202 -172 -319.5t-342 -117.5z" />
    <glyph glyph-name="uacute.ss01" horiz-adv-x="1218" 
d="M678 1241l-47 80l446 254l51 -92zM614 -23q-219 0 -326.5 130t-64.5 348l121 624h131l-123 -626q-32 -166 44.5 -262.5t230.5 -96.5q147 0 243 87t125 231l131 667h131l-129 -665q-39 -202 -172 -319.5t-342 -117.5z" />
    <glyph glyph-name="ucircumflex.ss01" horiz-adv-x="1218" 
d="M881 1475l-232 -220h-131l320 301h106l199 -301h-111zM1126 1079h131l-129 -665q-39 -202 -172 -319.5t-342 -117.5q-219 0 -326.5 130t-64.5 348l121 624h131l-123 -626q-32 -166 44.5 -262.5t230.5 -96.5q147 0 243 87t125 231z" />
    <glyph glyph-name="udieresis.ss01" horiz-adv-x="1218" 
d="M653 1296q-45 0 -72.5 27t-27.5 74t39 84t90 37q44 0 71 -27t27 -74q0 -48 -38 -84.5t-89 -36.5zM1024 1296q-44 0 -71 27t-27 74q0 48 38 84.5t89 36.5q45 0 72.5 -27t27.5 -74t-39 -84t-90 -37zM614 -23q-219 0 -326.5 130t-64.5 348l121 624h131l-123 -626
q-32 -166 44.5 -262.5t230.5 -96.5q147 0 243 87t125 231l131 667h131l-129 -665q-39 -202 -172 -319.5t-342 -117.5z" />
    <glyph glyph-name="ugrave.ss01" horiz-adv-x="1218" 
d="M999 1235l-405 248l57 90l404 -258zM614 -23q-219 0 -326.5 130t-64.5 348l121 624h131l-123 -626q-32 -166 44.5 -262.5t230.5 -96.5q147 0 243 87t125 231l131 667h131l-129 -665q-39 -202 -172 -319.5t-342 -117.5z" />
    <glyph glyph-name="uhungarumlaut.ss01" horiz-adv-x="1218" 
d="M621 1237l-72 59l276 308l82 -68zM975 1237l-72 59l279 308l80 -68zM614 -23q-219 0 -326.5 130t-64.5 348l121 624h131l-123 -626q-32 -166 44.5 -262.5t230.5 -96.5q147 0 243 87t125 231l131 667h131l-129 -665q-39 -202 -172 -319.5t-342 -117.5z" />
    <glyph glyph-name="umacron.ss01" horiz-adv-x="1218" 
d="M563 1354l19 102h557l-19 -102h-557zM614 -23q-219 0 -326.5 130t-64.5 348l121 624h131l-123 -626q-32 -166 44.5 -262.5t230.5 -96.5q147 0 243 87t125 231l131 667h131l-129 -665q-39 -202 -172 -319.5t-342 -117.5z" />
    <glyph glyph-name="uogonek.ss01" horiz-adv-x="1218" 
d="M1126 1079h131l-129 -665q-33 -167 -130 -277t-250 -145l-80 -70q-73 -62 -110.5 -110.5t-37.5 -102.5q0 -41 23 -62.5t65 -21.5q65 0 107 45l39 -61q-69 -72 -174 -72q-74 0 -118 40.5t-44 109.5q0 77 54.5 146t145.5 138l9 6h-13q-219 0 -326.5 130t-64.5 348l121 624
h131l-123 -626q-32 -166 44.5 -262.5t230.5 -96.5q147 0 243 87t125 231z" />
    <glyph glyph-name="uring.ss01" horiz-adv-x="1218" 
d="M823 1198q-76 0 -123 48t-47 122q0 86 65 147.5t156 61.5q76 0 123 -48t47 -122q0 -86 -65.5 -147.5t-155.5 -61.5zM831 1280q51 0 88 35t37 86q0 41 -25 67.5t-67 26.5q-52 0 -88.5 -34.5t-36.5 -86.5q0 -41 25 -67.5t67 -26.5zM614 -23q-219 0 -326.5 130t-64.5 348
l121 624h131l-123 -626q-32 -166 44.5 -262.5t230.5 -96.5q147 0 243 87t125 231l131 667h131l-129 -665q-39 -202 -172 -319.5t-342 -117.5z" />
    <glyph glyph-name="utilde.ss01" horiz-adv-x="1218" 
d="M973 1298q-43 0 -79.5 16.5t-58 37t-52 37t-62.5 16.5q-79 0 -115 -102l-90 40q29 77 81.5 125t125.5 48q41 0 76.5 -16.5t56.5 -37t52 -37t65 -16.5q82 0 121 102l86 -38q-28 -79 -80 -127t-127 -48zM614 -23q-219 0 -326.5 130t-64.5 348l121 624h131l-123 -626
q-32 -166 44.5 -262.5t230.5 -96.5q147 0 243 87t125 231l131 667h131l-129 -665q-39 -202 -172 -319.5t-342 -117.5z" />
    <glyph glyph-name="y.ss01" horiz-adv-x="1198" 
d="M1124 1079h131l-196 -1018q-44 -225 -174 -336.5t-336 -111.5q-178 0 -284.5 76.5t-131.5 214.5l117 39q14 -105 95.5 -165.5t211.5 -60.5q313 0 381 367l25 125q-67 -96 -175 -152.5t-231 -56.5q-188 0 -282 123t-56 319l123 637h131l-119 -620q-31 -154 42.5 -248.5
t219.5 -91.5q133 0 242 88t141 225z" />
    <glyph glyph-name="yacute.ss01" horiz-adv-x="1230" 
d="M1126 1483l-450 -242l-47 80l446 254zM1124 1079h131l-196 -1018q-44 -225 -174 -336.5t-336 -111.5q-178 0 -284.5 76.5t-131.5 214.5l117 39q14 -105 95.5 -165.5t211.5 -60.5q313 0 381 367l25 125q-67 -96 -175 -152.5t-231 -56.5q-188 0 -282 123t-56 319l123 637
h131l-119 -620q-31 -154 42.5 -248.5t219.5 -91.5q133 0 242 88t141 225z" />
    <glyph glyph-name="ycircumflex.ss01" horiz-adv-x="1230" 
d="M874 1475l-231 -220h-131l319 301h107l199 -301h-111zM1124 1079h131l-196 -1018q-44 -225 -174 -336.5t-336 -111.5q-178 0 -284.5 76.5t-131.5 214.5l117 39q14 -105 95.5 -165.5t211.5 -60.5q313 0 381 367l25 125q-67 -96 -175 -152.5t-231 -56.5q-188 0 -282 123
t-56 319l123 637h131l-119 -620q-31 -154 42.5 -248.5t219.5 -91.5q133 0 242 88t141 225z" />
    <glyph glyph-name="ydieresis.ss01" horiz-adv-x="1230" 
d="M651 1296q-43 0 -70.5 27t-27.5 74q0 48 38 84.5t89 36.5q45 0 72.5 -27t27.5 -74t-39 -84t-90 -37zM1022 1296q-44 0 -71 27t-27 74q0 48 38 84.5t89 36.5q45 0 72.5 -27t27.5 -74q0 -48 -38.5 -84.5t-90.5 -36.5zM1124 1079h131l-196 -1018q-44 -225 -174 -336.5
t-336 -111.5q-178 0 -284.5 76.5t-131.5 214.5l117 39q14 -105 95.5 -165.5t211.5 -60.5q313 0 381 367l25 125q-67 -96 -175 -152.5t-231 -56.5q-188 0 -282 123t-56 319l123 637h131l-119 -620q-31 -154 42.5 -248.5t219.5 -91.5q133 0 242 88t141 225z" />
    <glyph glyph-name="ygrave.ss01" horiz-adv-x="1230" 
d="M1053 1315l-54 -80l-407 248l57 90zM1124 1079h131l-196 -1018q-44 -225 -174 -336.5t-336 -111.5q-178 0 -284.5 76.5t-131.5 214.5l117 39q14 -105 95.5 -165.5t211.5 -60.5q313 0 381 367l25 125q-67 -96 -175 -152.5t-231 -56.5q-188 0 -282 123t-56 319l123 637h131
l-119 -620q-31 -154 42.5 -248.5t219.5 -91.5q133 0 242 88t141 225z" />
    <glyph glyph-name="uni1EF9.ss01" horiz-adv-x="1230" 
d="M725 1405q-81 0 -117 -102l-88 40q29 77 81.5 125t125.5 48q41 0 76.5 -16.5t56.5 -37t52 -37t65 -16.5q82 0 121 102l86 -38q-28 -79 -80.5 -127t-126.5 -48q-43 0 -79.5 16.5t-58 37t-52 37t-62.5 16.5zM1124 1079h131l-196 -1018q-44 -225 -174 -336.5t-336 -111.5
q-178 0 -284.5 76.5t-131.5 214.5l117 39q14 -105 95.5 -165.5t211.5 -60.5q313 0 381 367l25 125q-67 -96 -175 -152.5t-231 -56.5q-188 0 -282 123t-56 319l123 637h131l-119 -620q-31 -154 42.5 -248.5t219.5 -91.5q133 0 242 88t141 225z" />
    <glyph glyph-name="zero.osf" horiz-adv-x="1292" 
d="M682 -20q-219 0 -357.5 134t-138.5 355q0 129 49.5 246t133 202t200 135t244.5 50q220 0 359 -134.5t139 -355.5q0 -172 -84 -317.5t-229 -230t-316 -84.5zM688 96q132 0 245.5 69.5t179 186t65.5 250.5q0 170 -103.5 275.5t-269.5 105.5q-132 0 -244.5 -68.5t-178 -185
t-65.5 -252.5q0 -169 103 -275t268 -106z" />
    <glyph glyph-name="one.osf" horiz-adv-x="768" 
d="M514 115h234l-21 -115h-641l20 115h277l164 852h-285l23 112h415z" />
    <glyph glyph-name="two.osf" horiz-adv-x="1054" 
d="M1044 793q0 -84 -37 -165t-99 -149.5t-155 -136t-192.5 -123.5t-222.5 -113h674l-21 -106h-915l18 84q150 70 263.5 129.5t220.5 129t176 135t110 139.5t41 149q0 102 -66.5 159.5t-176.5 57.5q-102 0 -184 -51.5t-126 -145.5l-112 41q57 123 173 199t271 76
q162 0 261 -84.5t99 -224.5z" />
    <glyph glyph-name="three.osf" horiz-adv-x="1034" 
d="M1130 1079l-22 -106l-490 -457q167 -7 264 -105t97 -253q0 -194 -147.5 -324.5t-364.5 -130.5q-175 0 -293 84.5t-129 216.5l129 47q8 -101 90.5 -165t210.5 -64q157 0 265 95.5t108 238.5q0 119 -76 193.5t-211 74.5h-112l16 92l483 451h-659l22 112h819z" />
    <glyph glyph-name="four.osf" horiz-adv-x="1079" 
d="M1065 1077l-174 -893h168l-21 -100h-168l-63 -328h-129l63 328h-667l18 92l844 901h129zM762 184l139 713l-668 -713h529z" />
    <glyph glyph-name="five.osf" horiz-adv-x="1013" 
d="M1051 967h-559l-109 -432h170q190 0 305 -103t115 -272q0 -195 -144 -326t-360 -131q-174 0 -289.5 84.5t-132.5 222.5l129 47q6 -104 89.5 -169.5t207.5 -65.5q152 0 259.5 97.5t107.5 236.5q0 123 -84.5 200.5t-218.5 77.5h-297l161 645h672z" />
    <glyph glyph-name="six.osf" horiz-adv-x="1058" 
d="M690 897q175 0 287.5 -108.5t112.5 -286.5q0 -146 -72 -267t-195.5 -189.5t-271.5 -68.5q-185 0 -297.5 106t-112.5 279q0 224 183 410l571 580h156l-455 -465q39 10 94 10zM567 92q157 0 274 119t117 281q0 132 -80 213t-210 81q-162 0 -279 -120t-117 -285
q0 -128 82.5 -208.5t212.5 -80.5z" />
    <glyph glyph-name="seven.osf" horiz-adv-x="905" 
d="M233 1079h834l-18 -104l-723 -1247h-148l721 1239h-686z" />
    <glyph glyph-name="eight.osf" horiz-adv-x="1085" 
d="M854 721q99 -33 155 -116t56 -193q0 -121 -68.5 -221.5t-183.5 -157t-250 -56.5q-183 0 -295 90t-112 238t102.5 269t257.5 153q-80 33 -126 99.5t-46 158.5q0 157 130 271t314 114q160 0 255.5 -83t95.5 -214q0 -119 -79.5 -216t-205.5 -136zM780 1262q-127 0 -219 -85
t-92 -198q0 -91 63.5 -149t163.5 -58q123 0 218.5 86.5t95.5 198.5q0 89 -64.5 147t-165.5 58zM565 86q154 1 261.5 100.5t107.5 235.5q0 112 -73 180t-193 68q-152 0 -264.5 -104t-112.5 -240q0 -108 76 -174t198 -66z" />
    <glyph glyph-name="nine.osf" horiz-adv-x="1046" 
d="M707 1102q184 0 296.5 -106t112.5 -279q0 -225 -182 -410l-572 -579h-155l457 465q-45 -11 -97 -11q-175 0 -287 109t-112 287q0 146 72 266.5t195.5 189t271.5 68.5zM590 293q162 0 277.5 120t115.5 285q0 128 -81.5 208.5t-211.5 80.5q-159 0 -275 -118.5t-116 -280.5
q0 -132 80.5 -213.5t210.5 -81.5z" />
    <glyph glyph-name="uni030C.alt" 
d="M-74 999l123 445h105l-136 -445h-92z" />
    <glyph glyph-name="caron.alt" horiz-adv-x="280" 
d="M303 999l123 445h104l-135 -445h-92z" />
    <glyph glyph-name="uni0308.case" 
d="M-238 1602q-43 0 -70.5 26.5t-27.5 71.5q0 51 37 87t90 36q44 0 70 -28t26 -73q0 -51 -37 -85.5t-88 -34.5zM143 1602q-43 0 -70.5 26.5t-27.5 71.5q0 51 37 87t90 36q44 0 70 -28t26 -73q0 -51 -37 -85.5t-88 -34.5z" />
    <glyph glyph-name="uni0307.case" 
d="M150 1602q-43 0 -73 28t-30 70q0 49 37 85t88 36q44 0 72 -29t28 -72q0 -49 -36 -83.5t-86 -34.5z" />
    <glyph glyph-name="gravecomb.case" 
d="M233 1573l-501 182l39 105l497 -197z" />
    <glyph glyph-name="acutecomb.case" 
d="M-221 1575l-31 90l508 190l33 -102z" />
    <glyph glyph-name="uni030B.case" 
d="M-365 1524l-73 59l284 338l82 -66zM2 1524l-70 59l283 338l82 -66z" />
    <glyph glyph-name="uni0302.case" 
d="M244 1579h-115l-145 180l-220 -180h-135l310 266h106z" />
    <glyph glyph-name="uni030C.case" 
d="M162 1845h135l-309 -266h-107l-200 266h116l146 -180z" />
    <glyph glyph-name="uni0306.case" 
d="M-18 1579q-128 0 -193 80.5t-45 185.5h111q-13 -67 23 -115.5t112 -48.5q74 0 127 47t67 117h111q-23 -114 -106.5 -190t-206.5 -76z" />
    <glyph glyph-name="uni030A.case" 
d="M57 1485q-77 0 -123.5 47.5t-46.5 122.5q0 86 64.5 147.5t154.5 61.5q77 0 123.5 -47.5t46.5 -122.5q0 -86 -64.5 -147.5t-154.5 -61.5zM66 1567q51 0 87.5 35t36.5 88q0 39 -25.5 65.5t-68.5 26.5q-50 0 -86.5 -34.5t-36.5 -86.5q0 -41 25 -67.5t68 -26.5z" />
    <glyph glyph-name="tildecomb.case" 
d="M72 1599q-44 0 -81.5 16.5t-59.5 37t-53.5 37t-65.5 16.5q-81 0 -117 -102l-90 41q29 77 81.5 124.5t127.5 47.5q35 0 65 -11t51.5 -26.5t42 -31.5t46 -27t53.5 -11q87 0 123 102l86 -38q-27 -79 -79.5 -127t-129.5 -48z" />
    <glyph glyph-name="uni0304.case" 
d="M-319 1659l20 108h578l-21 -108h-577z" />
    <glyph glyph-name="uni0326.case" 
d="M-195 -100q38 0 62 -22.5t24 -59.5q0 -33 -18 -67t-57 -87l-109 -141l-57 35l100 137q9 14 10 16q-28 5 -44.5 26.5t-16.5 55.5q0 42 31.5 74.5t74.5 32.5z" />
    <glyph glyph-name="uni0337.case" 
d="M-512 387l-29 88l586 230l29 -87z" />
    <glyph glyph-name="uni0338.case" 
d="M-1339 18l-66 76l1505 1393l66 -76z" />
    <glyph glyph-name="dieresis.case" horiz-adv-x="665" 
d="M487 1602q-43 0 -70.5 26.5t-27.5 71.5q0 51 37 87t90 36q44 0 70 -28t26 -73q0 -51 -37 -85.5t-88 -34.5zM868 1602q-43 0 -70.5 26.5t-27.5 71.5q0 51 37 87t90 36q44 0 70 -28t26 -73q0 -51 -37 -85.5t-88 -34.5z" />
    <glyph glyph-name="dotaccent.case" horiz-adv-x="249" 
d="M489 1602q-43 0 -72.5 28t-29.5 70q0 49 37 85t88 36q44 0 72 -29t28 -72q0 -49 -36.5 -83.5t-86.5 -34.5z" />
    <glyph glyph-name="grave.case" horiz-adv-x="538" 
d="M860 1573l-502 182l39 105l498 -197z" />
    <glyph glyph-name="acute.case" horiz-adv-x="538" 
d="M403 1575l-30 90l508 190l32 -102z" />
    <glyph glyph-name="hungarumlaut.case" horiz-adv-x="927" 
d="M438 1524l-73 59l284 338l82 -66zM805 1524l-70 59l283 338l82 -66z" />
    <glyph glyph-name="circumflex.case" horiz-adv-x="714" 
d="M979 1579h-115l-145 180l-219 -180h-135l309 266h106z" />
    <glyph glyph-name="caron.case" horiz-adv-x="714" 
d="M897 1845h135l-309 -266h-107l-200 266h116l146 -180z" />
    <glyph glyph-name="breve.case" horiz-adv-x="647" 
d="M653 1579q-85 0 -145 39t-82.5 99t-9.5 128h110q-13 -67 23.5 -115.5t112.5 -48.5q74 0 127 47t67 117h111q-23 -113 -107 -189.5t-207 -76.5z" />
    <glyph glyph-name="ring.case" horiz-adv-x="423" 
d="M541 1485q-77 0 -123.5 47.5t-46.5 122.5q0 86 64.5 147.5t154.5 61.5q77 0 123.5 -47.5t46.5 -122.5q0 -86 -64.5 -147.5t-154.5 -61.5zM549 1567q51 0 88 35t37 88q0 39 -25.5 65.5t-68.5 26.5q-50 0 -86.5 -34.5t-36.5 -86.5q0 -41 24.5 -67.5t67.5 -26.5z" />
    <glyph glyph-name="tilde.case" horiz-adv-x="800" 
d="M844 1599q-44 0 -81.5 16.5t-59.5 37t-53.5 37t-65.5 16.5q-81 0 -117 -102l-90 41q29 77 81.5 124.5t127.5 47.5q35 0 65 -11t51.5 -26.5t42 -31.5t46 -27t53.5 -11q87 0 123 102l86 -38q-27 -79 -79.5 -127t-129.5 -48z" />
    <glyph glyph-name="macron.case" horiz-adv-x="702" 
d="M379 1659l20 108h578l-21 -108h-577z" />
    <glyph glyph-name="IJacute" horiz-adv-x="1173" 
d="M348 1575l-31 90l508 190l33 -102zM1047 1575l-31 90l508 190l32 -102zM170 0l276 1423h132l-277 -1423h-131zM535 0l22 117h92q108 0 183 66.5t98 181.5l205 1058h131l-209 -1075q-32 -167 -139.5 -257.5t-270.5 -90.5h-112z" />
    <glyph glyph-name="ijacute" horiz-adv-x="1003" 
d="M291 1241l-47 80l446 254l51 -92zM856 1239l-45 82l446 252l50 -92zM150 0l208 1079h131l-208 -1079h-131zM381 -371l22 115h29q100 0 175 68.5t98 183.5l208 1083h131l-208 -1081q-35 -176 -147.5 -272.5t-270.5 -96.5h-37z" />
    </font>
</defs>
</svg>
