<?xml version="1.0" standalone="no"?>
<!DOCTYPE svg PUBLIC "-//W3C//DTD SVG 1.1//EN" "http://www.w3.org/Graphics/SVG/1.1/DTD/svg11.dtd" >
<svg xmlns="http://www.w3.org/2000/svg" xmlns:xlink="http://www.w3.org/1999/xlink" version="1.1">
<metadata>
Created by FontForge 20201107 at Thu Oct 31 06:45:14 2024
 By 
Copyright (c) 2019 by Daniel Hernandez &#38; Rodrigo Fuenzalida. All rights reserved.
</metadata>
<defs>
<font id="Biennale-UltraLightIt" horiz-adv-x="0" >
  <font-face 
    font-family="Biennale UltraLight It"
    font-weight="300"
    font-style="italic"
    font-stretch="normal"
    units-per-em="2048"
    panose-1="0 0 4 0 0 0 0 0 0 0"
    ascent="1638"
    descent="-410"
    x-height="1079"
    cap-height="1423"
    bbox="-1376 -502 4520 1898"
    underline-thickness="102"
    underline-position="-204"
    slope="-11"
    unicode-range="U+0020-FB02"
  />
<missing-glyph horiz-adv-x="1218" 
d="M469 1495h856l-291 -1495h-856zM1182 1423h-598l186 -587zM520 1348l-233 -1201l422 601zM985 152l229 1191l-417 -595zM735 659l-413 -587h598z" />
    <glyph glyph-name="fi" unicode="fi" horiz-adv-x="929" 
d="M834 1434q-111 0 -189.5 -68.5t-105.5 -202.5l-17 -84h447l-209 -1079h-78l195 1010h-369l-195 -1010h-77l196 1010h-213l12 69h213l17 80q33 168 132.5 254t250.5 86h207l-13 -65h-204z" />
    <glyph glyph-name="fl" unicode="fl" horiz-adv-x="958" 
d="M1081 1497l-290 -1497h-78l278 1432h-157q-111 0 -189.5 -69t-105.5 -204l-17 -82h250l-12 -67h-250l-197 -1010h-77l196 1010h-213l12 69h215l15 78q33 168 132.5 254t250.5 86h237z" />
    <glyph glyph-name=".notdef" horiz-adv-x="1218" 
d="M469 1495h856l-291 -1495h-856zM1182 1423h-598l186 -587zM520 1348l-233 -1201l422 601zM985 152l229 1191l-417 -595zM735 659l-413 -587h598z" />
    <glyph glyph-name=".null" 
 />
    <glyph glyph-name="nonmarkingreturn" horiz-adv-x="682" 
 />
    <glyph glyph-name="space" unicode=" " horiz-adv-x="491" 
 />
    <glyph glyph-name="exclam" unicode="!" horiz-adv-x="446" 
d="M260 375l203 1122h94l-233 -1122h-64zM225 -18q-31 0 -51 19t-20 50q0 38 25.5 63t62.5 25q31 0 50 -19t19 -50q0 -38 -24.5 -63t-61.5 -25z" />
    <glyph glyph-name="quotedbl" unicode="&#x22;" horiz-adv-x="542" 
d="M338 1102l61 362h78l-76 -362h-63zM561 1102l64 362h75l-75 -362h-64z" />
    <glyph glyph-name="numbersign" unicode="#" horiz-adv-x="1345" 
d="M1464 948h-262l-215 -469h252l-12 -63h-269l-190 -416h-72l191 416h-430l-191 -416h-71l190 416h-248l10 63h269l215 469h-254l12 66h273l188 409h68l-189 -409h432l189 409h69l-188 -409h246zM915 479l218 469h-433l-215 -469h430z" />
    <glyph glyph-name="dollar" unicode="$" horiz-adv-x="909" 
d="M688 1266q-135 0 -219 -71t-84 -185q0 -62 28.5 -111t73.5 -82.5t100 -64t110 -63.5t100 -73t73.5 -101t28.5 -138q0 -156 -103 -252t-274 -105l-35 -184h-67l37 182q-146 7 -236 83t-104 202l71 25q9 -111 91.5 -176.5t214.5 -65.5q148 0 237.5 76.5t89.5 202.5
q0 60 -22 109.5t-58 82t-82 64.5t-94 56t-94 57t-82 67.5t-58 86.5t-22 116q0 144 103 235t268 94l35 185h67l-34 -189q114 -12 183 -77t83 -171l-72 -24q-12 103 -76.5 156t-177.5 53z" />
    <glyph glyph-name="percent" unicode="%" horiz-adv-x="1445" 
d="M530 793q-118 0 -189 75.5t-71 192.5q0 93 45.5 179t129 141t182.5 55q118 0 189 -76.5t71 -192.5q0 -93 -45.5 -178.5t-129 -140.5t-182.5 -55zM276 0l1092 1423h68l-1090 -1423h-70zM539 850q119 0 202.5 96t83.5 215q0 96 -58 156.5t-149 60.5q-120 0 -204 -97
t-84 -216q0 -95 59 -155t150 -60zM1090 -12q-118 0 -189.5 76t-71.5 192q0 146 104 260.5t253 114.5q118 0 189 -75t71 -191q0 -93 -45 -179.5t-128 -142t-183 -55.5zM1098 45q120 0 204 97t84 216q0 95 -58.5 155t-149.5 60q-119 0 -203 -96.5t-84 -214.5q0 -96 58 -156.5
t149 -60.5z" />
    <glyph glyph-name="ampersand" unicode="&#x26;" horiz-adv-x="1269" 
d="M1319 686q-34 -156 -108.5 -293t-157.5 -211l139 -182h-94l-103 135q-172 -155 -434 -155q-176 0 -288.5 97.5t-112.5 248.5q0 160 87 275.5t251 199.5q-74 125 -74 229q0 174 115.5 291t302.5 117q157 0 252.5 -88t95.5 -230h-82q-2 106 -76 175t-201 69
q-140 0 -232.5 -97t-92.5 -239q0 -78 32.5 -143.5t112.5 -173.5l361 -473q75 75 141.5 203t95.5 274zM573 49q120 0 212 33.5t171 103.5l-374 494q-48 66 -50 70q-144 -75 -217 -171.5t-73 -240.5q0 -126 94.5 -207.5t236.5 -81.5z" />
    <glyph glyph-name="quotesingle" unicode="'" horiz-adv-x="317" 
d="M338 1102l61 362h78l-76 -362h-63z" />
    <glyph glyph-name="parenleft" unicode="(" horiz-adv-x="593" 
d="M483 -190q-116 84 -198 262t-82 405q0 327 171 619t443 448l39 -59q-261 -150 -418 -427.5t-157 -578.5q0 -211 77 -375.5t181 -238.5z" />
    <glyph glyph-name="parenright" unicode=")" horiz-adv-x="593" 
d="M35 -190l-39 57q174 100 305.5 261.5t200.5 354t69 389.5q0 212 -77.5 376.5t-182.5 238.5l56 57q116 -84 199 -263t83 -404q0 -324 -169.5 -618t-444.5 -449z" />
    <glyph glyph-name="asterisk" unicode="*" horiz-adv-x="794" 
d="M518 844l68 264l-252 -143l-25 69l269 127l-220 129l52 68l194 -146l41 285h78l-68 -285l252 148l25 -72l-268 -127l217 -127l-50 -69l-194 143l-41 -264h-78z" />
    <glyph glyph-name="plus" unicode="+" horiz-adv-x="954" 
d="M1016 649l-15 -67h-376l-86 -437h-74l86 437h-377l14 67h375l82 412h74l-82 -412h379z" />
    <glyph glyph-name="comma" unicode="," horiz-adv-x="360" 
d="M195 139q33 0 53 -19.5t20 -49.5q0 -27 -10 -50t-37 -61l-98 -139h-62l111 164q-28 2 -45.5 21t-17.5 48q0 37 25.5 61.5t60.5 24.5z" />
    <glyph glyph-name="hyphen" unicode="-" horiz-adv-x="735" 
d="M225 489l13 68h469l-15 -68h-467z" />
    <glyph glyph-name="period" unicode="." horiz-adv-x="374" 
d="M186 -18q-31 0 -50 19t-19 50q0 38 24.5 63t61.5 25q32 0 51.5 -19t19.5 -50q0 -38 -25.5 -63t-62.5 -25z" />
    <glyph glyph-name="slash" unicode="/" horiz-adv-x="624" 
d="M59 -102l686 1558h74l-684 -1558h-76z" />
    <glyph glyph-name="zero" unicode="0" horiz-adv-x="1357" 
d="M709 -20q-224 0 -354 150t-130 423q0 129 29.5 256.5t89 241t141.5 200.5t194.5 138t240.5 51q222 0 352.5 -150t130.5 -424q0 -128 -29 -255t-88.5 -240.5t-141 -200.5t-194.5 -138.5t-241 -51.5zM715 55q111 0 209.5 47t170 127.5t123 184t77.5 218.5t26 230
q0 240 -111.5 371t-298.5 131q-110 0 -208 -47t-169 -127.5t-123 -184t-78 -218.5t-26 -230q0 -238 109.5 -370t298.5 -132z" />
    <glyph glyph-name="one" unicode="1" horiz-adv-x="645" 
d="M674 1423l-264 -1355h202l-12 -68h-516l12 68h238l215 1099h-232l13 68h231l37 188h76z" />
    <glyph glyph-name="two" unicode="2" horiz-adv-x="1028" 
d="M780 594l-575 -524h743l-12 -70h-858l10 51l639 586q81 74 130.5 125t96.5 113.5t68.5 123t21.5 125.5q0 112 -76 179t-200 67q-127 0 -232 -69t-169 -199l-66 24q73 156 194.5 236t280.5 80q157 0 252.5 -84.5t95.5 -220.5q0 -74 -23.5 -143t-73 -137t-106 -127.5
t-141.5 -135.5z" />
    <glyph glyph-name="three" unicode="3" horiz-adv-x="1077" 
d="M1237 1423l-12 -65l-563 -537h10q177 0 283 -106.5t106 -276.5q0 -193 -147 -325.5t-369 -132.5q-184 0 -301.5 88.5t-126.5 218.5l73 26q11 -115 108.5 -189.5t252.5 -74.5q180 0 304 111.5t124 269.5q0 152 -90 241t-238 89h-96l12 61l559 535h-749l14 67h846z" />
    <glyph glyph-name="four" unicode="4" horiz-adv-x="1120" 
d="M1145 438l-12 -65h-199l-72 -373h-78l74 373h-747l8 49l942 999h78l-191 -983h197zM872 438l166 867l-817 -867h651z" />
    <glyph glyph-name="five" unicode="5" horiz-adv-x="1056" 
d="M1155 1358h-610l-129 -514h217q193 0 307.5 -108t114.5 -290q0 -200 -149 -333t-376 -133q-171 0 -281.5 84.5t-125.5 228.5l76 26q9 -124 102.5 -197t241.5 -73q181 0 305.5 114.5t124.5 280.5q0 154 -94.5 243t-257.5 89h-291l159 647h680z" />
    <glyph glyph-name="six" unicode="6" horiz-adv-x="1091" 
d="M709 930q183 0 294 -111t111 -297q0 -108 -40 -206.5t-110.5 -173t-174 -118.5t-222.5 -44q-188 0 -300.5 107.5t-112.5 285.5q0 116 46.5 221.5t125.5 185.5l632 643h99l-518 -522q88 29 170 29zM578 49q129 0 235.5 68t163.5 175t57 226q0 153 -92.5 248.5t-243.5 95.5
q-101 0 -189.5 -41.5t-148 -109.5t-93.5 -153t-34 -173q0 -147 95.5 -241.5t249.5 -94.5z" />
    <glyph glyph-name="seven" unicode="7" horiz-adv-x="919" 
d="M299 1423h850l-12 -65l-785 -1358h-88l787 1356h-766z" />
    <glyph glyph-name="eight" unicode="8" horiz-adv-x="1087" 
d="M831 766q105 -32 166.5 -120.5t61.5 -207.5q0 -190 -143.5 -324t-354.5 -134q-173 0 -282 93t-109 249q0 161 111.5 289.5t273.5 156.5q-87 32 -136.5 105t-49.5 171q0 163 127.5 279.5t308.5 116.5q151 0 241.5 -83.5t90.5 -215.5q0 -130 -86.5 -234.5t-219.5 -140.5z
M444 1042q0 -107 70 -175t186 -68q141 0 251 99.5t110 234.5q0 107 -73.5 172t-188.5 65q-145 0 -250 -97t-105 -231zM563 47q179 0 298.5 115.5t119.5 279.5q0 132 -80.5 211.5t-220.5 79.5q-114 0 -213 -54.5t-158 -148t-59 -200.5q0 -133 86 -208t227 -75z" />
    <glyph glyph-name="nine" unicode="9" horiz-adv-x="1085" 
d="M795 1444q188 0 300.5 -107.5t112.5 -285.5q0 -233 -172 -408l-633 -643h-98l518 522q-85 -28 -170 -28q-183 0 -294 111t-111 296q0 108 40 207t110.5 173t174 118.5t222.5 44.5zM664 561q101 0 189.5 41.5t147.5 109.5t93 153t34 173q0 148 -95 242t-249 94
q-129 0 -235.5 -68t-163.5 -175t-57 -226q0 -153 92.5 -248.5t243.5 -95.5z" />
    <glyph glyph-name="colon" unicode=":" horiz-adv-x="423" 
d="M365 764q-31 0 -51.5 19t-20.5 51q0 37 25.5 62.5t62.5 25.5q31 0 51.5 -20t20.5 -52q0 -37 -25.5 -61.5t-62.5 -24.5zM211 -18q-31 0 -50.5 19t-19.5 50q0 38 24.5 63t61.5 25q31 0 51.5 -19.5t20.5 -49.5q0 -38 -25.5 -63t-62.5 -25z" />
    <glyph glyph-name="semicolon" unicode=";" horiz-adv-x="430" 
d="M381 922q31 0 51.5 -20t20.5 -52q0 -37 -25.5 -61.5t-62.5 -24.5q-31 0 -51.5 19t-20.5 51q0 37 25.5 62.5t62.5 25.5zM227 139q32 0 53 -20t21 -49q0 -27 -10 -50t-37 -61l-98 -139h-62l111 164q-28 2 -46 20.5t-18 48.5q0 38 25 62t61 24z" />
    <glyph glyph-name="less" unicode="&#x3c;" horiz-adv-x="794" 
d="M891 1042l-17 -84l-626 -383l477 -382l-14 -72l-543 426l14 69z" />
    <glyph glyph-name="equal" unicode="=" horiz-adv-x="958" 
d="M219 791l14 69h824l-15 -69h-823zM125 307l14 68h824l-15 -68h-823z" />
    <glyph glyph-name="greater" unicode="&#x3e;" horiz-adv-x="794" 
d="M305 1042l541 -426l-12 -67l-709 -428l14 84l627 385l-475 381z" />
    <glyph glyph-name="question" unicode="?" horiz-adv-x="843" 
d="M377 375l20 98q18 88 57 163t87 126t101 97t103 85.5t90 80.5t64.5 93t24.5 113q0 103 -62.5 157t-165.5 54q-120 0 -205.5 -70t-130.5 -188l-69 22q54 145 161 228.5t253 83.5q135 0 218 -71t83 -202q0 -70 -25.5 -130t-68 -106t-94 -89.5t-106.5 -89.5t-103 -96
t-86.5 -120t-53.5 -151l-18 -88h-74zM354 -18q-31 0 -51 19t-20 50q0 38 25.5 63t62.5 25q31 0 51 -19t20 -50q0 -38 -25.5 -63t-62.5 -25z" />
    <glyph glyph-name="at" unicode="@" horiz-adv-x="1548" 
d="M969 1182q264 0 425.5 -157.5t161.5 -418.5q0 -199 -90.5 -329t-228.5 -130q-73 0 -114.5 35.5t-41.5 98.5q0 12 2 20q-54 -79 -131.5 -125.5t-165.5 -46.5q-126 0 -204 84.5t-78 218.5q0 164 112 283t267 119q103 0 171.5 -52t92.5 -143l35 180h55l-86 -454
q-12 -54 -12 -72q0 -86 100 -86q112 0 183 110t71 283q0 232 -148 378t-387 146q-193 0 -362 -104.5t-268 -279t-99 -371.5q0 -238 148 -383.5t391 -145.5q250 0 397 166l35 -43q-160 -180 -440 -180q-270 0 -432 158t-162 421q0 166 64 318t171.5 262t256 175t311.5 65z
M799 188q127 0 221 106.5t94 248.5q0 105 -62 168t-165 63q-130 0 -223 -100t-93 -238q0 -110 63.5 -179t164.5 -69z" />
    <glyph glyph-name="A" unicode="A" horiz-adv-x="1202" 
d="M1098 0l-86 483h-631l-272 -483h-84l804 1423h91l251 -1423h-73zM418 551h581l-139 784z" />
    <glyph glyph-name="B" unicode="B" horiz-adv-x="1216" 
d="M958 745q111 -36 174.5 -121.5t63.5 -205.5q0 -191 -138.5 -304.5t-375.5 -113.5h-498l277 1423h487q160 0 245 -81t85 -214q0 -145 -88 -246t-232 -137zM526 1356l-112 -576h409q158 0 267.5 94t109.5 238q0 112 -69.5 178t-204.5 66h-400zM686 68q200 0 316 94t116 252
q0 135 -83 216t-226 81h-410l-125 -643h412z" />
    <glyph glyph-name="C" unicode="C" horiz-adv-x="1443" 
d="M801 -20q-259 0 -421.5 165.5t-162.5 425.5q0 137 36.5 267t106.5 239t164.5 191.5t218.5 129t261 46.5q223 0 369 -123.5t179 -316.5l-77 -27q-35 177 -160 285t-324 108q-151 0 -282 -65.5t-220 -175t-139.5 -253t-50.5 -298.5q0 -232 140.5 -378.5t369.5 -146.5
q198 0 334.5 96t240.5 300l70 -33q-115 -223 -269.5 -329.5t-383.5 -106.5z" />
    <glyph glyph-name="D" unicode="D" horiz-adv-x="1419" 
d="M893 1423q262 0 418.5 -164t156.5 -436q0 -168 -62 -320t-167.5 -262.5t-252 -175.5t-308.5 -65h-494l277 1423h432zM686 70q141 0 271 60.5t224.5 161.5t151 240t56.5 289q0 243 -137.5 388t-368.5 145h-359l-248 -1284h410z" />
    <glyph glyph-name="E" unicode="E" horiz-adv-x="1093" 
d="M1264 1354h-740l-110 -574h676l-15 -69h-676l-125 -641h752l-12 -70h-830l277 1423h815z" />
    <glyph glyph-name="F" unicode="F" horiz-adv-x="1050" 
d="M1262 1354h-738l-110 -576h673l-16 -69h-672l-137 -709h-78l277 1423h813z" />
    <glyph glyph-name="G" unicode="G" horiz-adv-x="1523" 
d="M1573 719q-63 -349 -266 -544t-498 -195q-269 0 -430.5 165.5t-161.5 444.5q0 174 62 332t167 272.5t250 182t305 67.5q219 0 371 -119t187 -317l-78 -27q-32 181 -162.5 285t-325.5 104q-188 0 -348.5 -104.5t-254 -283t-93.5 -388.5q0 -248 141 -395.5t379 -147.5
q245 0 420 159t244 443h-588l12 66h668z" />
    <glyph glyph-name="H" unicode="H" horiz-adv-x="1357" 
d="M1366 1423h78l-277 -1423h-77l137 711h-828l-137 -711h-78l277 1423h78l-125 -641h827z" />
    <glyph glyph-name="I" unicode="I" horiz-adv-x="452" 
d="M184 0l277 1423h78l-277 -1423h-78z" />
    <glyph glyph-name="J" unicode="J" horiz-adv-x="632" 
d="M25 0l14 70h96q118 0 200 73t107 199l211 1081h76l-211 -1087q-31 -159 -133 -247.5t-254 -88.5h-106z" />
    <glyph glyph-name="K" unicode="K" horiz-adv-x="1169" 
d="M1370 1423l-883 -678l695 -745h-97l-682 727l-141 -727h-78l277 1423h78l-125 -647l846 647h110z" />
    <glyph glyph-name="L" unicode="L" horiz-adv-x="1032" 
d="M276 72h738l-13 -72h-817l277 1423h78z" />
    <glyph glyph-name="M" unicode="M" horiz-adv-x="1628" 
d="M1595 1423h72l-188 -1423h-74l172 1290l-721 -1224h-68l-239 1230l-330 -1296h-76l365 1423h74v-2l8 2l250 -1257l743 1257l12 -2v2z" />
    <glyph glyph-name="N" unicode="N" horiz-adv-x="1357" 
d="M1368 1423h76l-277 -1423h-65l-590 1288l-250 -1288h-78l277 1423h65l592 -1286z" />
    <glyph glyph-name="O" unicode="O" horiz-adv-x="1562" 
d="M813 -20q-267 0 -431.5 171.5t-164.5 452.5q0 169 64 324.5t171 268.5t255 180t309 67q267 0 431.5 -171t164.5 -450q0 -171 -63.5 -327.5t-171 -269t-255.5 -179.5t-309 -67zM817 53q191 0 355.5 103.5t261 280t96.5 380.5q0 248 -142.5 400.5t-375.5 152.5
q-192 0 -356.5 -103.5t-260.5 -279t-96 -379.5q0 -249 142.5 -402t375.5 -153z" />
    <glyph glyph-name="P" unicode="P" horiz-adv-x="1153" 
d="M911 1423q181 0 282 -90.5t101 -251.5q0 -194 -138.5 -315t-360.5 -121h-408l-125 -645h-78l277 1423h450zM805 717q181 0 295 100.5t114 259.5q0 132 -81.5 204.5t-231.5 72.5h-377l-123 -637h404z" />
    <glyph glyph-name="Q" unicode="Q" horiz-adv-x="1607" 
d="M1612 823q0 -248 -126 -453.5t-331 -308.5l297 -292l-51 -58l-322 318q-125 -49 -266 -49q-267 0 -431.5 171.5t-164.5 452.5q0 169 64 324.5t171 268.5t255 180t309 67q267 0 431.5 -171t164.5 -450zM299 608q0 -249 142.5 -402t375.5 -153q191 0 355.5 103.5t261 280
t96.5 380.5q0 248 -142.5 400.5t-375.5 152.5q-192 0 -356.5 -103.5t-260.5 -279t-96 -379.5z" />
    <glyph glyph-name="R" unicode="R" horiz-adv-x="1171" 
d="M1296 1096q0 -184 -138 -302t-361 -118h-146l430 -676h-88l-424 676h-176l-131 -676h-78l277 1423h452q182 0 282.5 -87t100.5 -240zM524 1354l-118 -615h399q182 0 298 98.5t116 249.5q0 125 -82 196t-232 71h-381z" />
    <glyph glyph-name="S" unicode="S" horiz-adv-x="1048" 
d="M553 -16q-188 0 -301.5 84t-126.5 233l76 27q8 -128 104.5 -200.5t259.5 -72.5q174 0 277.5 84t103.5 226q0 61 -21 112t-56 87t-81 67.5t-96.5 58.5l-101 54t-96.5 59t-81 69.5t-56 90.5t-21 116q0 161 123 263t319 102q160 0 261.5 -75t115.5 -202l-76 -24
q-12 109 -92.5 169t-212.5 60q-158 0 -257 -79t-99 -206q0 -55 21 -100.5t56 -78t80.5 -61.5t96 -55t101 -53.5t96 -62t80.5 -75t56 -98.5t21 -128q0 -180 -128 -285.5t-345 -105.5z" />
    <glyph glyph-name="T" unicode="T" horiz-adv-x="1042" 
d="M1288 1423l-12 -71h-457l-262 -1352h-78l262 1352h-452l12 71h987z" />
    <glyph glyph-name="U" unicode="U" horiz-adv-x="1331" 
d="M682 -20q-230 0 -342.5 153t-65.5 397l172 893h78l-172 -893q-43 -218 51 -348.5t291 -130.5q186 0 312.5 115.5t167.5 322.5l180 934h78l-183 -934q-46 -246 -193 -377.5t-374 -131.5z" />
    <glyph glyph-name="V" unicode="V" horiz-adv-x="1210" 
d="M1362 1423h86l-809 -1423h-92l-258 1423h78l239 -1335z" />
    <glyph glyph-name="W" unicode="W" horiz-adv-x="1681" 
d="M1825 1423h80l-617 -1423h-80l-114 1305l-627 -1305h-78l-65 1423h75l54 -1302l620 1302h82l111 -1306z" />
    <glyph glyph-name="X" unicode="X" horiz-adv-x="1181" 
d="M1413 1425l-637 -700l389 -725h-84l-360 670l-612 -670h-99l676 735l-371 690h86l340 -634l576 634h96z" />
    <glyph glyph-name="Y" unicode="Y" horiz-adv-x="1167" 
d="M1417 1423l-684 -833l-115 -590h-77l116 596l-358 827h82l324 -761l616 761h96z" />
    <glyph glyph-name="Z" unicode="Z" horiz-adv-x="1044" 
d="M1257 1423l-10 -57l-1079 -1294h842l-13 -72h-952l10 55l1084 1299h-807l12 69h913z" />
    <glyph glyph-name="bracketleft" unicode="[" horiz-adv-x="546" 
d="M788 1473h-243l-312 -1594h246l-14 -72h-322l338 1737h322z" />
    <glyph glyph-name="backslash" unicode="\" horiz-adv-x="626" 
d="M444 -102l-79 1558h73l82 -1558h-76z" />
    <glyph glyph-name="bracketright" unicode="]" horiz-adv-x="546" 
d="M340 1544h322l-338 -1737h-322l14 72h244l311 1594h-245z" />
    <glyph glyph-name="asciicircum" unicode="^" horiz-adv-x="839" 
d="M901 799h-76l-168 442l-321 -442h-88l391 528h57z" />
    <glyph glyph-name="underscore" unicode="_" horiz-adv-x="909" 
d="M23 -119l12 68h811l-12 -68h-811z" />
    <glyph glyph-name="grave" unicode="`" horiz-adv-x="507" 
d="M696 1255l-372 230l34 55l371 -235z" />
    <glyph glyph-name="a" unicode="a" horiz-adv-x="1288" 
d="M1253 1079h74l-209 -1079h-74l52 260q-82 -129 -208 -204.5t-278 -75.5q-197 0 -313.5 127t-116.5 337q0 130 48 250t129.5 209.5t196.5 143t243 53.5q163 0 266 -84t133 -236zM629 49q146 0 268.5 82.5t192 218.5t69.5 291q0 180 -97 284.5t-265 104.5
q-147 0 -272 -80.5t-196 -213t-71 -283.5q0 -181 100.5 -292.5t270.5 -111.5z" />
    <glyph glyph-name="b" unicode="b" horiz-adv-x="1288" 
d="M883 1100q192 0 310 -125.5t118 -333.5q0 -102 -28.5 -200t-84 -181t-130.5 -146t-173.5 -98.5t-208.5 -35.5q-152 0 -255.5 81t-135.5 226l-57 -287h-74l289 1497h77l-129 -666q82 124 206.5 196.5t275.5 72.5zM692 49q118 0 221.5 50.5t172 132.5t108 186t39.5 213
q0 179 -103 289t-268 110q-149 0 -272.5 -85.5t-190.5 -220.5t-67 -286q0 -178 98 -283.5t262 -105.5z" />
    <glyph glyph-name="c" unicode="c" horiz-adv-x="1140" 
d="M633 -20q-207 0 -330 130.5t-123 338.5q0 172 81.5 321t225.5 239.5t316 90.5q169 0 280.5 -88.5t128.5 -237.5l-75 -24q-14 128 -106 204t-236 76q-111 0 -211.5 -48t-171 -127t-112.5 -183.5t-42 -214.5q0 -180 104.5 -294t278.5 -114q138 0 248.5 72t177.5 209l68 -27
q-165 -323 -502 -323z" />
    <glyph glyph-name="d" unicode="d" horiz-adv-x="1288" 
d="M1331 1497h78l-291 -1497h-74l50 258q-81 -127 -207 -202.5t-277 -75.5q-197 0 -313.5 127t-116.5 337q0 130 48 250t129.5 209.5t196.5 143t243 53.5q158 0 261.5 -80.5t137.5 -226.5zM629 49q146 0 268.5 82.5t192 218.5t69.5 291q0 180 -97 284.5t-265 104.5
q-147 0 -272 -80.5t-196 -213t-71 -283.5q0 -181 100.5 -292.5t270.5 -111.5z" />
    <glyph glyph-name="e" unicode="e" horiz-adv-x="1177" 
d="M799 1100q184 0 297.5 -115t113.5 -297q0 -33 -8 -88.5t-16 -79.5h-922q-4 -50 -4 -76q0 -174 106 -283.5t271 -109.5q140 0 248 70t178 201l61 -35q-84 -156 -205 -231.5t-292 -75.5q-195 0 -321 129t-126 327q0 183 82 335.5t224.5 240.5t312.5 88zM276 592h848
q9 74 9 92q0 161 -90.5 252.5t-249.5 91.5q-186 0 -329 -123t-188 -313z" />
    <glyph glyph-name="f" unicode="f" horiz-adv-x="643" 
d="M840 1499h82l-13 -65h-75q-111 0 -189.5 -68.5t-105.5 -202.5l-17 -84h312l-13 -69h-313l-195 -1010h-77l196 1010h-213l12 69h213l17 82q33 167 130.5 252.5t248.5 85.5z" />
    <glyph glyph-name="g" unicode="g" horiz-adv-x="1288" 
d="M1257 1079h74l-186 -956q-50 -253 -197.5 -381.5t-390.5 -128.5q-185 0 -303.5 89t-138.5 253l69 20q15 -143 116 -220t263 -77q203 0 334.5 112.5t173.5 328.5l31 157q-82 -132 -211 -210t-281 -78q-197 0 -313.5 127t-116.5 334q0 172 81 321.5t224 239.5t312 90
q161 0 265.5 -83.5t135.5 -232.5zM629 53q146 0 268.5 82t192 217.5t69.5 290.5q0 180 -96.5 283.5t-265.5 103.5q-147 0 -272 -80t-196 -212t-71 -283q0 -179 100.5 -290.5t270.5 -111.5z" />
    <glyph glyph-name="h" unicode="h" horiz-adv-x="1222" 
d="M840 1100q198 0 297 -121.5t57 -333.5l-125 -645h-78l123 637q36 188 -46 290.5t-253 102.5q-159 0 -281.5 -98t-158.5 -248l-133 -684h-78l291 1497h77l-124 -633q65 105 178.5 170.5t253.5 65.5z" />
    <glyph glyph-name="i" unicode="i" horiz-adv-x="421" 
d="M463 1309q-37 0 -59.5 22.5t-22.5 57.5q0 42 31 73t73 31q38 0 60 -23t22 -59q0 -41 -31.5 -71.5t-72.5 -30.5zM164 0l209 1079h78l-209 -1079h-78z" />
    <glyph glyph-name="j" unicode="j" horiz-adv-x="421" 
d="M465 1307q-38 0 -60 23t-22 59q0 41 31.5 71.5t72.5 30.5q37 0 59.5 -22.5t22.5 -57.5q0 -42 -31 -73t-73 -31zM-182 -369l14 72h29q110 0 192 74.5t107 199.5l213 1102h76l-213 -1099q-32 -165 -136.5 -257t-249.5 -92h-32z" />
    <glyph glyph-name="k" unicode="k" horiz-adv-x="962" 
d="M1145 1079l-705 -497l518 -582h-92l-514 571l-110 -571h-78l291 1497h77l-172 -885l674 467h111z" />
    <glyph glyph-name="l" unicode="l" horiz-adv-x="409" 
d="M164 0l291 1497h77l-290 -1497h-78z" />
    <glyph glyph-name="m" unicode="m" horiz-adv-x="1968" 
d="M1606 1100q186 0 282 -114.5t56 -321.5l-129 -664h-76l125 655q34 181 -45.5 278t-237.5 97q-153 0 -274 -107.5t-150 -269.5l-2 2l-127 -655h-76l125 655q34 182 -45 278.5t-237 96.5q-145 0 -265 -98t-155 -246l-133 -686h-78l209 1079h73l-40 -221q61 107 171 174.5
t242 67.5q149 0 240.5 -75t103.5 -214q59 127 178 208t265 81z" />
    <glyph glyph-name="n" unicode="n" horiz-adv-x="1222" 
d="M840 1100q198 0 297 -121.5t57 -333.5l-125 -645h-78l123 637q36 188 -46 290.5t-253 102.5q-159 0 -281.5 -98t-158.5 -248l-133 -684h-78l209 1079h73l-40 -221q63 108 177 175t257 67z" />
    <glyph glyph-name="o" unicode="o" horiz-adv-x="1239" 
d="M641 -20q-210 0 -335.5 125.5t-125.5 338.5q0 129 47.5 248.5t129.5 209.5t199 144t249 54q207 0 332 -126.5t125 -340.5q0 -127 -46.5 -246t-127.5 -209t-198 -144t-249 -54zM649 49q113 0 213.5 49.5t170.5 130t110.5 185.5t40.5 215q0 182 -105 291.5t-280 109.5
q-151 0 -277 -83t-195 -214.5t-69 -277.5q0 -183 107 -294.5t284 -111.5z" />
    <glyph glyph-name="p" unicode="p" horiz-adv-x="1288" 
d="M877 1100q198 0 316 -126.5t118 -336.5q0 -133 -49.5 -254.5t-132 -209.5t-197 -140.5t-238.5 -52.5q-156 0 -260.5 81t-138.5 226l-125 -654h-78l281 1446h73l-49 -256q84 128 209 202.5t271 74.5zM698 49q144 0 267.5 79t195.5 213t72 290q0 180 -103.5 289.5
t-273.5 109.5q-140 0 -261 -81t-192 -217.5t-71 -293.5q0 -180 98.5 -284.5t267.5 -104.5z" />
    <glyph glyph-name="q" unicode="q" horiz-adv-x="1288" 
d="M1253 1079h74l-280 -1446h-78l121 619q-82 -126 -206.5 -199t-273.5 -73q-197 0 -313.5 127t-116.5 337q0 130 48 250t129.5 209.5t196.5 143t243 53.5q161 0 264.5 -83.5t134.5 -234.5zM629 49q146 0 268.5 82.5t192 218.5t69.5 291q0 180 -97 284.5t-265 104.5
q-147 0 -272 -80.5t-196 -213t-71 -283.5q0 -181 100.5 -292.5t270.5 -111.5z" />
    <glyph glyph-name="r" unicode="r" horiz-adv-x="630" 
d="M403 852q61 106 170 177t238 71l-14 -72q-150 -3 -267.5 -102t-154.5 -238l-133 -688h-78l209 1079h73z" />
    <glyph glyph-name="s" unicode="s" horiz-adv-x="921" 
d="M485 -20q-159 0 -262.5 64.5t-118.5 178.5l68 23q10 -96 100 -149.5t224 -53.5q144 0 236.5 63.5t92.5 176.5q0 48 -19 86t-51 63.5t-73.5 46.5t-87.5 38.5t-92.5 35t-88 40.5t-73.5 51.5t-51 71t-19 95.5q0 130 101.5 209.5t267.5 79.5q137 0 226 -56.5t106 -152.5
l-72 -25q-17 85 -86 128.5t-174 43.5q-128 0 -209.5 -61t-81.5 -160q0 -58 30.5 -100.5t80 -68.5t109 -48t118.5 -47t108.5 -56t80 -83.5t30.5 -122.5q0 -98 -57.5 -170t-151 -106.5t-211.5 -34.5z" />
    <glyph glyph-name="t" unicode="t" horiz-adv-x="681" 
d="M555 0q-152 0 -223.5 94.5t-40.5 257.5l129 658h-201l12 69h123q86 0 101 86l37 185h73l-55 -271h352l-12 -69h-354l-127 -652q-27 -138 29 -213t182 -75h108l-14 -70h-119z" />
    <glyph glyph-name="u" unicode="u" horiz-adv-x="1202" 
d="M1165 1079h78l-209 -1079h-76l43 223q-63 -109 -174.5 -176t-251.5 -67q-190 0 -288 121.5t-56 332.5l125 645h78l-123 -637q-36 -187 45 -290t244 -103q159 0 283 106t155 265z" />
    <glyph glyph-name="v" unicode="v" horiz-adv-x="1048" 
d="M1139 1079h90l-668 -1079h-80l-250 1079h80l224 -997z" />
    <glyph glyph-name="w" unicode="w" horiz-adv-x="1490" 
d="M1573 1079h84l-506 -1079h-90l-129 983l-508 -983h-90l-88 1079h78l71 -989l508 989h90l123 -989z" />
    <glyph glyph-name="x" unicode="x" horiz-adv-x="976" 
d="M1147 1079l-508 -532l317 -547h-84l-290 498l-476 -498h-96l539 557l-305 522h84l276 -473l447 473h96z" />
    <glyph glyph-name="y" unicode="y" horiz-adv-x="1048" 
d="M1139 1079h90l-895 -1446h-82l231 367h-2l-250 1079h80l224 -997z" />
    <glyph glyph-name="z" unicode="z" horiz-adv-x="890" 
d="M1028 1079l-12 -63l-856 -948h698l-12 -68h-801l10 61l858 951h-641l13 67h743z" />
    <glyph glyph-name="braceleft" unicode="{" horiz-adv-x="550" 
d="M442 -193q-102 0 -160 80.5t-30 223.5l61 319q12 52 6 89t-18.5 60.5t-36.5 37.5t-48 19t-52 5h-25l13 68h24q78 0 144.5 51t89.5 160l67 340q54 284 303 284h21l-15 -71h-14q-83 0 -141 -54.5t-78 -158.5l-68 -338q-14 -68 -42 -118t-63 -75.5t-60 -36.5t-50 -16
q10 -3 20.5 -7t26.5 -13t28 -21.5t25 -31.5t18.5 -43t8 -57t-7.5 -73l-61 -319q-20 -106 16.5 -169t118.5 -63h14l-14 -72h-21z" />
    <glyph glyph-name="bar" unicode="|" horiz-adv-x="434" 
d="M147 -168l316 1626h67l-315 -1626h-68z" />
    <glyph glyph-name="braceright" unicode="}" horiz-adv-x="550" 
d="M8 -193l15 72h14q84 0 141.5 54t77.5 159l68 338q14 69 42 119t63 75t59.5 36t50.5 16q-11 3 -21 7t-26 12.5t-27.5 20.5t-25.5 31t-18.5 43.5t-7.5 57.5t7 74l61 319q20 106 -16.5 169t-118.5 63h-14l14 71h21q102 0 160 -80.5t30 -222.5l-61 -321q-12 -52 -6 -89
t19 -60.5t37 -37.5t47.5 -19t51.5 -5h25l-15 -68h-24q-77 0 -143 -50.5t-89 -160.5l-67 -338q-54 -285 -303 -285h-21z" />
    <glyph glyph-name="asciitilde" unicode="~" horiz-adv-x="1042" 
d="M821 502q-60 0 -113 18t-85.5 39t-80.5 39t-100 18q-44 0 -87.5 -22.5t-71.5 -58.5l-39 45q34 47 87 76.5t113 29.5t113.5 -18t86 -39.5t80.5 -39.5t99 -18q45 0 89.5 23t72.5 59l39 -45q-34 -46 -88 -76t-115 -30z" />
    <glyph glyph-name="uni00A0" unicode="&#xa0;" horiz-adv-x="491" 
 />
    <glyph glyph-name="exclamdown" unicode="&#xa1;" horiz-adv-x="419" 
d="M397 940q-31 0 -51 20t-20 52q0 37 25.5 61.5t62.5 24.5q31 0 51 -19t20 -51q0 -37 -25.5 -62.5t-62.5 -25.5zM88 -367l227 1072h66l-199 -1072h-94z" />
    <glyph glyph-name="cent" unicode="&#xa2;" horiz-adv-x="1044" 
d="M621 254q120 0 215.5 60.5t154.5 179.5l62 -25q-67 -137 -175 -208.5t-249 -76.5l-35 -184h-68l37 186q-161 17 -254.5 128.5t-93.5 281.5q0 150 70 280.5t194.5 210t274.5 82.5l32 185h68l-37 -189q128 -14 210 -88.5t95 -193.5l-71 -23q-14 111 -93 175.5t-204 64.5
q-128 0 -235.5 -70t-167.5 -184t-60 -242q0 -156 89 -253t241 -97z" />
    <glyph glyph-name="sterling" unicode="&#xa3;" horiz-adv-x="1044" 
d="M848 1376q140 0 232 -78.5t104 -207.5l-76 -27q-12 114 -81 178t-181 64q-132 0 -227.5 -89t-124.5 -239l-52 -268h476l-13 -70h-477l-111 -569h644l-15 -70h-719l125 639h-168l15 70h166l55 278q35 180 150.5 284.5t277.5 104.5z" />
    <glyph glyph-name="currency" unicode="&#xa4;" horiz-adv-x="1124" 
d="M1122 752q0 -102 -41.5 -199.5t-115.5 -171.5l88 -115l-52 -43l-86 113q-134 -100 -294 -100q-171 0 -269 106l-145 -119l-41 53l145 121q-55 85 -55 205q0 102 42 199.5t116 171.5l-90 114l51 43l88 -112q134 100 295 100q170 0 268 -106l143 118l41 -53l-143 -121
q55 -85 55 -204zM330 608q0 -136 83.5 -220.5t217.5 -84.5q117 0 215.5 66t151.5 167t53 209q0 136 -84 221t-219 85q-117 0 -215 -66t-150.5 -167.5t-52.5 -209.5z" />
    <glyph glyph-name="yen" unicode="&#xa5;" horiz-adv-x="1093" 
d="M1296 1354l-589 -768h260l-13 -60h-272l-43 -219h272l-12 -59h-270l-49 -248h-76l47 248h-272l10 59h272l43 219h-270l10 60h266l-291 768h80l267 -715l538 715h92z" />
    <glyph glyph-name="brokenbar" unicode="&#xa6;" horiz-adv-x="434" 
d="M338 817l125 641h67l-124 -641h-68zM147 -168l123 641h68l-123 -641h-68z" />
    <glyph glyph-name="section" unicode="&#xa7;" horiz-adv-x="958" 
d="M733 1370q-123 0 -202.5 -60.5t-79.5 -160.5q0 -58 29 -101.5t75 -70t102 -49.5t112 -48t102 -56.5t75 -84t29 -123.5q0 -108 -65.5 -181t-176.5 -105q111 -79 111 -213q0 -146 -116.5 -230t-287.5 -84q-146 0 -241.5 66t-110.5 180l66 23q12 -96 94 -149.5t201 -53.5
q134 0 224.5 64t90.5 178q0 54 -22.5 95.5t-59 67.5t-83 49.5t-95.5 41t-95.5 43t-83 54.5t-59 76t-22.5 107q0 108 71.5 183t192.5 98q-133 79 -133 219q0 130 99.5 209.5t258.5 79.5q131 0 218 -56.5t104 -152.5l-70 -27q-18 86 -86 129t-166 43zM897 608q0 27 -5 51
t-17 44.5t-24 36.5t-34 32t-37.5 26.5t-44 24t-45 20.5t-49 20.5t-47.5 19.5q-120 -3 -198.5 -67t-78.5 -163q0 -51 20.5 -90t61.5 -67t79.5 -45.5t99 -42t94.5 -41.5q100 23 162.5 85.5t62.5 155.5z" />
    <glyph glyph-name="dieresis" unicode="&#xa8;" horiz-adv-x="618" 
d="M406 1311q-36 0 -57 22t-21 60q0 37 30.5 66.5t69.5 29.5q34 0 56 -22t22 -60q0 -37 -30.5 -66.5t-69.5 -29.5zM743 1311q-34 0 -55.5 22t-21.5 60q0 37 30.5 66.5t69.5 29.5q36 0 58 -22t22 -60q0 -37 -31.5 -66.5t-71.5 -29.5z" />
    <glyph glyph-name="copyright" unicode="&#xa9;" horiz-adv-x="1525" 
d="M791 -23q-167 0 -298.5 76.5t-204.5 211.5t-73 304q0 157 63 305.5t168 258.5t249 176.5t298 66.5q253 0 414.5 -166.5t161.5 -423.5q0 -211 -106 -398t-286 -299t-386 -112zM795 39q138 0 269 61.5t227 163t154 238t58 280.5q0 230 -144 381.5t-370 151.5
q-140 0 -271 -61.5t-226.5 -163t-153 -238t-57.5 -279.5q0 -232 144 -383t370 -151zM840 274q-149 0 -236.5 94t-87.5 244q0 123 58 230t161 172t226 65q121 0 200.5 -63t91.5 -170l-63 -23q-9 91 -71 141t-163 50q-159 0 -265.5 -117.5t-106.5 -278.5q0 -128 69 -203
t193 -75q201 0 293 195l59 -27q-120 -234 -358 -234z" />
    <glyph glyph-name="ordfeminine" unicode="&#xaa;" horiz-adv-x="780" 
d="M922 1665h53l-117 -584h-51l24 125q-44 -64 -109.5 -101.5t-141.5 -37.5q-104 0 -173 70t-69 184q0 91 43.5 173t120 132.5t166.5 50.5q82 0 141.5 -44.5t83.5 -119.5zM594 1126q112 0 188 89t76 202q0 91 -52.5 147t-141.5 56q-100 0 -181.5 -86t-81.5 -205
q0 -90 54 -146.5t139 -56.5z" />
    <glyph glyph-name="guillemotleft" unicode="&#xab;" horiz-adv-x="815" 
d="M551 856l-285 -342l146 -330h-78l-148 336l279 336h86zM858 856l-287 -344l146 -328h-78l-145 336l278 336h86z" />
    <glyph glyph-name="logicalnot" unicode="&#xac;" horiz-adv-x="1095" 
d="M1085 729l-86 -448h-75l71 378h-745l12 70h823z" />
    <glyph glyph-name="registered" unicode="&#xae;" horiz-adv-x="968" 
d="M750 1489q152 0 246 -94t94 -242q0 -122 -61 -229t-166 -170.5t-226 -63.5q-153 0 -246.5 94.5t-93.5 243.5q0 121 61 227.5t166 170t226 63.5zM639 737q107 0 199.5 57.5t146 152.5t53.5 202q0 126 -81.5 209.5t-211.5 83.5q-161 0 -280 -123.5t-119 -286.5
q0 -127 81.5 -211t211.5 -84zM758 1333q59 0 93 -29t34 -81q0 -60 -43 -95.5t-113 -35.5h-43l133 -215h-51l-129 215h-23l-41 -215h-45l88 456h140zM731 1130q50 0 80.5 24t30.5 65q0 75 -88 75h-99l-30 -164h106z" />
    <glyph glyph-name="macron" unicode="&#xaf;" horiz-adv-x="577" 
d="M324 1366l12 66h520l-10 -66h-522z" />
    <glyph glyph-name="degree" unicode="&#xb0;" horiz-adv-x="696" 
d="M545 911q-104 0 -170 64.5t-66 167.5q0 120 86.5 204.5t206.5 84.5q104 0 169 -64.5t65 -167.5q0 -120 -85.5 -204.5t-205.5 -84.5zM547 971q92 0 158.5 65.5t66.5 159.5q0 77 -48.5 126.5t-121.5 49.5q-93 0 -160 -65.5t-67 -161.5q0 -76 48.5 -125t123.5 -49z" />
    <glyph glyph-name="plusminus" unicode="&#xb1;" horiz-adv-x="950" 
d="M655 752h375l-14 -68h-375l-84 -430h-74l84 430h-374l14 68h375l80 407h73zM78 86l14 68h823l-14 -68h-823z" />
    <glyph glyph-name="uni00B2" unicode="&#xb2;" horiz-adv-x="667" 
d="M586 985l-238 -221h342l-10 -53h-428l8 39l283 264q60 56 89.5 87.5t55 75.5t25.5 85q0 53 -34.5 84.5t-90.5 31.5q-118 0 -174 -127l-54 19q74 162 236 162q78 0 128 -44.5t50 -117.5q0 -70 -45 -133t-143 -152z" />
    <glyph glyph-name="uni00B3" unicode="&#xb3;" horiz-adv-x="645" 
d="M805 1423l-10 -49l-256 -250q83 -4 132.5 -55t49.5 -131q0 -101 -74.5 -169.5t-183.5 -68.5q-85 0 -145.5 44.5t-65.5 109.5l57 23q6 -56 49 -89.5t107 -33.5q85 0 141 52.5t56 133.5q0 66 -42 103.5t-116 37.5h-45l8 43l256 248h-342l10 51h414z" />
    <glyph glyph-name="acute" unicode="&#xb4;" horiz-adv-x="425" 
d="M338 1257l-29 52l416 233l31 -57z" />
    <glyph glyph-name="paragraph" unicode="&#xb6;" horiz-adv-x="1169" 
d="M1245 1423l-317 -1628h-56l304 1557h-105l-303 -1557h-57l303 1557h-105l-137 -707h-145q-177 0 -278 88.5t-101 245.5q0 188 137 316t352 128h508z" />
    <glyph glyph-name="periodcentered" unicode="&#xb7;" horiz-adv-x="419" 
d="M324 567q-31 0 -50.5 20t-19.5 52q0 36 25 61t63 25q31 0 51.5 -20.5t20.5 -49.5q0 -36 -26 -62t-64 -26z" />
    <glyph glyph-name="cedilla" unicode="&#xb8;" horiz-adv-x="479" 
d="M248 -123q68 -6 111.5 -55.5t43.5 -116.5q0 -84 -65 -139t-164 -55q-70 0 -120 27t-74 67l45 39q17 -34 54 -57t93 -23q73 0 119.5 40t46.5 99t-36 96t-99 37h-25l-8 19l102 159h60z" />
    <glyph glyph-name="uni00B9" unicode="&#xb9;" horiz-adv-x="530" 
d="M596 1423l-129 -657h119l-11 -55h-321l8 55h144l100 506h-139l10 53h139l19 98h61z" />
    <glyph glyph-name="ordmasculine" unicode="&#xba;" horiz-adv-x="743" 
d="M600 1067q-116 0 -189 72.5t-73 191.5q0 141 98 244.5t236 103.5q116 0 189 -73.5t73 -192.5q0 -141 -97 -243.5t-237 -102.5zM604 1124q112 0 190 84.5t78 198.5q0 96 -57 155.5t-147 59.5q-112 0 -190.5 -85.5t-78.5 -199.5q0 -96 57.5 -154.5t147.5 -58.5z" />
    <glyph glyph-name="guillemotright" unicode="&#xbb;" horiz-adv-x="815" 
d="M373 856l145 -336l-278 -336h-86l286 344l-145 328h78zM678 856l147 -336l-278 -336h-86l284 344l-145 328h78z" />
    <glyph glyph-name="onequarter" unicode="&#xbc;" horiz-adv-x="1218" 
d="M1272 1423h69l-1073 -1423h-67zM221 711l10 55h144l100 506h-141l12 53h139l19 98h59l-129 -657h119l-10 -55h-322zM1194 713h59l-94 -484h90l-8 -51h-92l-35 -178h-59l37 178h-353l9 43zM819 229h283l76 396z" />
    <glyph glyph-name="onehalf" unicode="&#xbd;" horiz-adv-x="1284" 
d="M1264 1423h67l-1073 -1423h-68zM221 711l10 55h144l100 506h-141l12 53h139l19 98h59l-129 -657h119l-10 -55h-322zM1182 274l-240 -221h342l-8 -53h-428l6 39l283 264q60 56 89.5 87.5t55 75.5t25.5 85q0 54 -34.5 85.5t-90.5 31.5q-119 0 -172 -127l-56 18
q78 162 236 162q78 0 128 -44.5t50 -117.5q0 -70 -44.5 -132.5t-141.5 -152.5z" />
    <glyph glyph-name="threequarters" unicode="&#xbe;" horiz-adv-x="1226" 
d="M436 700q-85 0 -145.5 44.5t-65.5 109.5l58 23q6 -56 48.5 -89.5t106.5 -33.5q85 0 141 52.5t56 133.5q0 66 -42 103.5t-116 37.5h-45l8 43l256 248h-342l8 51h414l-8 -49l-256 -250q84 -6 133 -56t49 -130q0 -101 -74.5 -169.5t-183.5 -68.5zM1298 1423h70l-1073 -1423
h-68zM1188 713h59l-94 -484h90l-8 -51h-92l-35 -178h-59l34 178h-350l8 43zM811 229h285l75 398z" />
    <glyph glyph-name="questiondown" unicode="&#xbf;" horiz-adv-x="839" 
d="M672 940q-31 0 -50.5 20t-19.5 52q0 37 24.5 61.5t61.5 24.5q31 0 51.5 -19t20.5 -51q0 -37 -25.5 -62.5t-62.5 -25.5zM340 -387q-137 0 -220 70.5t-83 201.5q0 70 25.5 130t68 106t95 88.5t108 88t105 95t89 117.5t56.5 147l8 48h74l-13 -58q-19 -86 -59 -159
t-88 -123.5t-102 -95t-103.5 -84t-90 -80t-65 -92.5t-24.5 -113q0 -104 62 -158.5t165 -54.5q119 0 205 70.5t133 189.5l70 -23q-54 -145 -161.5 -228t-254.5 -83z" />
    <glyph glyph-name="Agrave" unicode="&#xc0;" horiz-adv-x="1239" 
d="M1167 1638l-22 -53l-467 178l24 62zM1098 0l-86 483h-631l-272 -483h-84l804 1423h91l251 -1423h-73zM418 551h581l-139 784z" />
    <glyph glyph-name="Aacute" unicode="&#xc1;" horiz-adv-x="1239" 
d="M1206 1763l-473 -178l-20 55l471 185zM829 1423h91l251 -1423h-73l-86 483h-631l-272 -483h-84zM418 551h581l-139 784z" />
    <glyph glyph-name="Acircumflex" unicode="&#xc2;" horiz-adv-x="1239" 
d="M956 1763l-229 -178h-88l291 236h63l195 -236h-74zM829 1423h91l251 -1423h-73l-86 483h-631l-272 -483h-84zM418 551h581l-139 784z" />
    <glyph glyph-name="Atilde" unicode="&#xc3;" horiz-adv-x="1239" 
d="M1190 1784l53 -25q-53 -151 -182 -151q-43 0 -79 17t-57.5 38t-52.5 38t-65 17q-81 0 -121 -108l-57 24q60 152 184 152q40 0 75 -17.5t56 -38t52.5 -38t66.5 -17.5q84 0 127 109zM829 1423h91l251 -1423h-73l-86 483h-631l-272 -483h-84zM418 551h581l-139 784z" />
    <glyph glyph-name="Adieresis" unicode="&#xc4;" horiz-adv-x="1239" 
d="M750 1616q-33 0 -53.5 21t-20.5 57q0 38 29 66t69 28q34 0 54 -21t20 -57q0 -37 -29.5 -65.5t-68.5 -28.5zM1098 1616q-34 0 -55 21t-21 57q0 38 29 66t69 28q34 0 54 -21t20 -57q0 -37 -29 -65.5t-67 -28.5zM829 1423h91l251 -1423h-73l-86 483h-631l-272 -483h-84z
M418 551h581l-139 784z" />
    <glyph glyph-name="Aring" unicode="&#xc5;" horiz-adv-x="1239" 
d="M911 1505q-66 0 -106.5 43t-40.5 109q0 74 57.5 128t134.5 54q68 0 109 -42t41 -107q0 -76 -58 -130.5t-137 -54.5zM952 1786q-54 0 -92.5 -36.5t-38.5 -92.5q0 -41 26.5 -69.5t70.5 -28.5q52 0 91.5 37.5t39.5 91.5q0 42 -26 70t-71 28zM1098 0l-86 483h-631l-272 -483
h-84l804 1423h91l251 -1423h-73zM418 551h581l-139 784z" />
    <glyph glyph-name="AE" unicode="&#xc6;" horiz-adv-x="1804" 
d="M1972 1354h-735l-111 -574h674l-14 -69h-674l-125 -641h750l-13 -70h-827l94 481h-553l-375 -481h-86l1102 1423h908zM494 551h510l155 803h-41z" />
    <glyph glyph-name="Ccedilla" unicode="&#xc7;" horiz-adv-x="1488" 
d="M993 1370q-121 0 -230.5 -42.5t-193 -117.5t-145 -174t-93.5 -217t-32 -241q0 -232 141.5 -378.5t370.5 -146.5q198 0 334.5 96t240.5 300l70 -33q-113 -221 -267 -328t-380 -108l-64 -103q68 -6 112 -55.5t44 -116.5q0 -84 -64 -139t-165 -55q-70 0 -119.5 26.5
t-73.5 67.5l43 39q45 -80 148 -80q74 0 121 40t47 99q0 58 -37.5 95.5t-100.5 37.5h-22l-8 19l82 127q-239 17 -386 180t-147 409q0 137 36.5 267t106.5 239t164.5 191.5t218.5 129t261 46.5q223 0 369 -123.5t179 -316.5l-77 -27q-35 177 -160 285t-324 108z" />
    <glyph glyph-name="Egrave" unicode="&#xc8;" horiz-adv-x="1128" 
d="M1163 1638l-22 -53l-467 178l24 62zM1264 1354h-740l-110 -574h676l-15 -69h-676l-125 -641h752l-12 -70h-830l277 1423h815z" />
    <glyph glyph-name="Eacute" unicode="&#xc9;" horiz-adv-x="1128" 
d="M1180 1763l-473 -178l-19 55l469 185zM1264 1354h-740l-110 -574h676l-15 -69h-676l-125 -641h752l-12 -70h-830l277 1423h815z" />
    <glyph glyph-name="Ecircumflex" unicode="&#xca;" horiz-adv-x="1128" 
d="M934 1763l-229 -178h-89l291 236h64l194 -236h-73zM1264 1354h-740l-110 -574h676l-15 -69h-676l-125 -641h752l-12 -70h-830l277 1423h815z" />
    <glyph glyph-name="Edieresis" unicode="&#xcb;" horiz-adv-x="1128" 
d="M723 1616q-34 0 -54 21t-20 57q0 38 28 66t68 28q34 0 54 -21t20 -57q0 -37 -29 -65.5t-67 -28.5zM1069 1616q-34 0 -54 21t-20 57q0 38 28.5 66t68.5 28q34 0 53.5 -20.5t19.5 -57.5t-29 -65.5t-67 -28.5zM1264 1354h-740l-110 -574h676l-15 -69h-676l-125 -641h752
l-12 -70h-830l277 1423h815z" />
    <glyph glyph-name="Igrave" unicode="&#xcc;" horiz-adv-x="466" 
d="M762 1585l-467 178l24 62l463 -187zM184 0l277 1423h78l-277 -1423h-78z" />
    <glyph glyph-name="Iacute" unicode="&#xcd;" horiz-adv-x="466" 
d="M350 1585l-20 55l471 185l20 -62zM184 0l277 1423h78l-277 -1423h-78z" />
    <glyph glyph-name="Icircumflex" unicode="&#xce;" horiz-adv-x="466" 
d="M805 1585h-74l-158 178l-231 -178h-86l289 236h63zM184 0l277 1423h78l-277 -1423h-78z" />
    <glyph glyph-name="Idieresis" unicode="&#xcf;" horiz-adv-x="466" 
d="M367 1616q-33 0 -53.5 21t-20.5 57q0 38 29 66t67 28q35 0 55.5 -20.5t20.5 -57.5t-29.5 -65.5t-68.5 -28.5zM713 1616q-33 0 -53.5 21t-20.5 57q0 38 29 66t69 28q34 0 54 -21t20 -57q0 -37 -29.5 -65.5t-68.5 -28.5zM184 0l277 1423h78l-277 -1423h-78z" />
    <glyph glyph-name="Eth" unicode="&#xd0;" horiz-adv-x="1472" 
d="M905 1423q261 0 418.5 -164t157.5 -436q0 -168 -62.5 -320t-168.5 -262.5t-253 -175.5t-309 -65h-493l139 715h-184l10 61h186l125 647h434zM696 70q141 0 271 60.5t224.5 161.5t151 240t56.5 289q0 243 -137.5 388t-368.5 145h-358l-111 -578h299l-12 -61h-299
l-125 -645h409z" />
    <glyph glyph-name="Ntilde" unicode="&#xd1;" horiz-adv-x="1398" 
d="M868 1718q-83 0 -120 -108l-58 24q56 152 182 152q41 0 75.5 -17.5t56 -38t53 -38t65.5 -17.5q87 0 127 109l54 -25q-53 -151 -183 -151q-35 0 -64.5 11.5t-50.5 27.5t-40.5 32t-44 27.5t-52.5 11.5zM1368 1423h76l-277 -1423h-65l-590 1288l-250 -1288h-78l277 1423h65
l592 -1286z" />
    <glyph glyph-name="Ograve" unicode="&#xd2;" horiz-adv-x="1607" 
d="M1331 1585l-467 178l25 62l465 -187zM813 -20q-267 0 -431.5 171.5t-164.5 452.5q0 169 64 324.5t171 268.5t255 180t309 67q267 0 431.5 -171t164.5 -450q0 -171 -63.5 -327.5t-171 -269t-255.5 -179.5t-309 -67zM817 53q191 0 355.5 103.5t261 280t96.5 380.5
q0 248 -142.5 400.5t-375.5 152.5q-192 0 -356.5 -103.5t-260.5 -279t-96 -379.5q0 -249 142.5 -402t375.5 -153z" />
    <glyph glyph-name="Oacute" unicode="&#xd3;" horiz-adv-x="1607" 
d="M911 1585l-20 55l471 185l20 -62zM813 -20q-267 0 -431.5 171.5t-164.5 452.5q0 169 64 324.5t171 268.5t255 180t309 67q267 0 431.5 -171t164.5 -450q0 -171 -63.5 -327.5t-171 -269t-255.5 -179.5t-309 -67zM817 53q191 0 355.5 103.5t261 280t96.5 380.5
q0 248 -142.5 400.5t-375.5 152.5q-192 0 -356.5 -103.5t-260.5 -279t-96 -379.5q0 -249 142.5 -402t375.5 -153z" />
    <glyph glyph-name="Ocircumflex" unicode="&#xd4;" horiz-adv-x="1607" 
d="M1124 1765l-231 -180h-86l289 236h63l197 -236h-74zM1016 1444q267 0 431.5 -171t164.5 -450q0 -171 -63.5 -327.5t-171 -269t-255.5 -179.5t-309 -67q-267 0 -431.5 171.5t-164.5 452.5q0 169 64 324.5t171 268.5t255 180t309 67zM817 53q191 0 355.5 103.5t261 280
t96.5 380.5q0 248 -142.5 400.5t-375.5 152.5q-192 0 -356.5 -103.5t-260.5 -279t-96 -379.5q0 -249 142.5 -402t375.5 -153z" />
    <glyph glyph-name="Otilde" unicode="&#xd5;" horiz-adv-x="1607" 
d="M1235 1608q-35 0 -64.5 11.5t-50.5 27.5t-40.5 32t-44 27.5t-52.5 11.5q-84 0 -121 -108l-57 24q60 152 182 152q41 0 75.5 -17.5t56 -38t53 -38t65.5 -17.5q87 0 127 109l53 -25q-53 -151 -182 -151zM813 -20q-267 0 -431.5 171.5t-164.5 452.5q0 169 64 324.5
t171 268.5t255 180t309 67q267 0 431.5 -171t164.5 -450q0 -171 -63.5 -327.5t-171 -269t-255.5 -179.5t-309 -67zM817 53q191 0 355.5 103.5t261 280t96.5 380.5q0 248 -142.5 400.5t-375.5 152.5q-192 0 -356.5 -103.5t-260.5 -279t-96 -379.5q0 -249 142.5 -402
t375.5 -153z" />
    <glyph glyph-name="Odieresis" unicode="&#xd6;" horiz-adv-x="1607" 
d="M915 1616q-34 0 -54.5 21t-20.5 57q0 38 29 66t69 28q34 0 54 -21t20 -57q0 -37 -29.5 -65.5t-67.5 -28.5zM1262 1616q-34 0 -55 21t-21 57q0 38 29 66t69 28q34 0 54 -21t20 -57q0 -37 -29 -65.5t-67 -28.5zM813 -20q-267 0 -431.5 171.5t-164.5 452.5q0 169 64 324.5
t171 268.5t255 180t309 67q267 0 431.5 -171t164.5 -450q0 -171 -63.5 -327.5t-171 -269t-255.5 -179.5t-309 -67zM817 53q191 0 355.5 103.5t261 280t96.5 380.5q0 248 -142.5 400.5t-375.5 152.5q-192 0 -356.5 -103.5t-260.5 -279t-96 -379.5q0 -249 142.5 -402
t375.5 -153z" />
    <glyph glyph-name="multiply" unicode="&#xd7;" horiz-adv-x="954" 
d="M1016 926l-377 -324l248 -317l-56 -45l-245 317l-375 -321l-43 55l375 321l-246 318l53 45l246 -318l377 322z" />
    <glyph glyph-name="Oslash" unicode="&#xd8;" horiz-adv-x="1613" 
d="M1686 1389l-187 -175q115 -159 115 -391q0 -171 -63.5 -327.5t-170.5 -269t-254.5 -179.5t-308.5 -67q-280 0 -442 182l-187 -176l-38 49l186 174q-115 162 -115 395q0 169 64 324.5t171 268.5t255 180t309 67q277 0 440 -180l185 172zM301 608q0 -199 94 -342l1006 940
q-145 164 -387 164q-191 0 -355.5 -103.5t-261 -279t-96.5 -379.5zM1534 817q0 197 -94 340l-1006 -940q145 -164 387 -164q191 0 355.5 103.5t261 280t96.5 380.5z" />
    <glyph glyph-name="Ugrave" unicode="&#xd9;" horiz-adv-x="1368" 
d="M1198 1585l-467 178l25 62l463 -187zM682 -20q-230 0 -342.5 153t-65.5 397l172 893h78l-172 -893q-43 -218 51 -348.5t291 -130.5q186 0 312.5 115.5t167.5 322.5l180 934h78l-183 -934q-46 -246 -193 -377.5t-374 -131.5z" />
    <glyph glyph-name="Uacute" unicode="&#xda;" horiz-adv-x="1368" 
d="M776 1585l-18 55l469 185l22 -62zM682 -20q-230 0 -342.5 153t-65.5 397l172 893h78l-172 -893q-43 -218 51 -348.5t291 -130.5q186 0 312.5 115.5t167.5 322.5l180 934h78l-183 -934q-46 -246 -193 -377.5t-374 -131.5z" />
    <glyph glyph-name="Ucircumflex" unicode="&#xdb;" horiz-adv-x="1368" 
d="M995 1763l-229 -178h-88l291 236h63l195 -236h-74zM1354 1423h78l-183 -934q-46 -246 -193 -377.5t-374 -131.5q-230 0 -342.5 153t-65.5 397l172 893h78l-172 -893q-43 -218 51 -348.5t291 -130.5q186 0 312.5 115.5t167.5 322.5z" />
    <glyph glyph-name="Udieresis" unicode="&#xdc;" horiz-adv-x="1368" 
d="M797 1616q-33 0 -53.5 21t-20.5 57q0 38 29 66t67 28q34 0 55 -21t21 -57q0 -37 -29.5 -65.5t-68.5 -28.5zM1143 1616q-33 0 -53.5 21t-20.5 57q0 38 29 66t69 28q34 0 54 -21t20 -57q0 -37 -29.5 -65.5t-68.5 -28.5zM682 -20q-230 0 -342.5 153t-65.5 397l172 893h78
l-172 -893q-43 -218 51 -348.5t291 -130.5q186 0 312.5 115.5t167.5 322.5l180 934h78l-183 -934q-46 -246 -193 -377.5t-374 -131.5z" />
    <glyph glyph-name="Yacute" unicode="&#xdd;" horiz-adv-x="1202" 
d="M1161 1763l-471 -178l-20 55l471 185zM1417 1423l-684 -833l-115 -590h-77l116 596l-358 827h82l324 -761l616 761h96z" />
    <glyph glyph-name="Thorn" unicode="&#xde;" horiz-adv-x="1177" 
d="M874 1114q193 0 288.5 -103.5t66.5 -277.5q-31 -182 -167 -288.5t-335 -106.5h-399l-66 -338h-78l277 1423h78l-60 -309h395zM1147 727q27 144 -48 230.5t-239 86.5h-395l-123 -634h395q165 0 274 86t136 231z" />
    <glyph glyph-name="germandbls" unicode="&#xdf;" horiz-adv-x="1196" 
d="M717 -20q-158 0 -248 79t-98 207l45 45q2 -119 78.5 -191.5t220.5 -72.5q179 0 286 106.5t109 270.5q2 155 -89.5 249.5t-260.5 94.5l14 74q99 0 179.5 31t129 81.5t74.5 110t27 121.5q2 117 -79.5 190.5t-221.5 73.5q-171 0 -286.5 -103t-150.5 -288l-204 -1059h-78
l205 1057q43 218 181 339.5t345 121.5q178 0 275 -92.5t92 -237.5q-1 -143 -100.5 -247t-252.5 -132q124 -25 202 -130t77 -257q-4 -196 -135.5 -319t-335.5 -123z" />
    <glyph glyph-name="agrave" unicode="&#xe0;" horiz-adv-x="1325" 
d="M1079 1305l-32 -50l-375 230l37 55zM1253 1079h74l-209 -1079h-74l52 260q-82 -129 -208 -204.5t-278 -75.5q-197 0 -313.5 127t-116.5 337q0 130 48 250t129.5 209.5t196.5 143t243 53.5q163 0 266 -84t133 -236zM629 49q146 0 268.5 82.5t192 218.5t69.5 291
q0 180 -97 284.5t-265 104.5q-147 0 -272 -80.5t-196 -213t-71 -283.5q0 -181 100.5 -292.5t270.5 -111.5z" />
    <glyph glyph-name="aacute" unicode="&#xe1;" horiz-adv-x="1325" 
d="M1139 1485l-420 -228l-29 52l418 233zM1253 1079h74l-209 -1079h-74l52 260q-82 -129 -208 -204.5t-278 -75.5q-197 0 -313.5 127t-116.5 337q0 130 48 250t129.5 209.5t196.5 143t243 53.5q163 0 266 -84t133 -236zM629 49q146 0 268.5 82.5t192 218.5t69.5 291
q0 180 -97 284.5t-265 104.5q-147 0 -272 -80.5t-196 -213t-71 -283.5q0 -181 100.5 -292.5t270.5 -111.5z" />
    <glyph glyph-name="acircumflex" unicode="&#xe2;" horiz-adv-x="1325" 
d="M928 1479l-244 -215h-88l305 270h64l198 -270h-71zM1253 1079h74l-209 -1079h-74l52 260q-82 -129 -208 -204.5t-278 -75.5q-197 0 -313.5 127t-116.5 337q0 130 48 250t129.5 209.5t196.5 143t243 53.5q163 0 266 -84t133 -236zM629 49q146 0 268.5 82.5t192 218.5
t69.5 291q0 180 -97 284.5t-265 104.5q-147 0 -272 -80.5t-196 -213t-71 -283.5q0 -181 100.5 -292.5t270.5 -111.5z" />
    <glyph glyph-name="atilde" unicode="&#xe3;" horiz-adv-x="1325" 
d="M774 1421q-81 0 -121 -108l-57 24q60 152 182 152q41 0 75.5 -17.5t55 -38t52 -38t65.5 -17.5q85 0 125 109l53 -25q-53 -151 -180 -151q-35 0 -64.5 11.5t-50 27.5t-40 32t-44 27.5t-51.5 11.5zM1253 1079h74l-209 -1079h-74l52 260q-82 -129 -208 -204.5t-278 -75.5
q-197 0 -313.5 127t-116.5 337q0 130 48 250t129.5 209.5t196.5 143t243 53.5q163 0 266 -84t133 -236zM629 49q146 0 268.5 82.5t192 218.5t69.5 291q0 180 -97 284.5t-265 104.5q-147 0 -272 -80.5t-196 -213t-71 -283.5q0 -181 100.5 -292.5t270.5 -111.5z" />
    <glyph glyph-name="adieresis" unicode="&#xe4;" horiz-adv-x="1325" 
d="M721 1311q-34 0 -56 22t-22 60q0 37 30.5 66.5t71.5 29.5q34 0 56 -22t22 -60q0 -37 -31 -66.5t-71 -29.5zM1061 1311q-36 0 -57 22t-21 60q0 37 30.5 66.5t69.5 29.5q34 0 56 -22t22 -60q0 -37 -30.5 -66.5t-69.5 -29.5zM1253 1079h74l-209 -1079h-74l52 260
q-82 -129 -208 -204.5t-278 -75.5q-197 0 -313.5 127t-116.5 337q0 130 48 250t129.5 209.5t196.5 143t243 53.5q163 0 266 -84t133 -236zM629 49q146 0 268.5 82.5t192 218.5t69.5 291q0 180 -97 284.5t-265 104.5q-147 0 -272 -80.5t-196 -213t-71 -283.5
q0 -181 100.5 -292.5t270.5 -111.5z" />
    <glyph glyph-name="aring" unicode="&#xe5;" horiz-adv-x="1325" 
d="M858 1208q-68 0 -108.5 43t-40.5 109q0 75 58 129.5t136 54.5q67 0 107.5 -42.5t40.5 -108.5q0 -76 -58 -130.5t-135 -54.5zM897 1489q-53 0 -92 -37t-39 -92q0 -41 26 -68.5t70 -27.5q52 0 91.5 36.5t39.5 90.5q0 43 -25.5 70.5t-70.5 27.5zM1253 1079h74l-209 -1079
h-74l52 260q-82 -129 -208 -204.5t-278 -75.5q-197 0 -313.5 127t-116.5 337q0 130 48 250t129.5 209.5t196.5 143t243 53.5q163 0 266 -84t133 -236zM629 49q146 0 268.5 82.5t192 218.5t69.5 291q0 180 -97 284.5t-265 104.5q-147 0 -272 -80.5t-196 -213t-71 -283.5
q0 -181 100.5 -292.5t270.5 -111.5z" />
    <glyph glyph-name="ae" unicode="&#xe6;" horiz-adv-x="2144" 
d="M1769 1100q182 0 295 -115t113 -297q0 -31 -8 -86t-15 -82h-927q-4 -50 -4 -76q0 -174 108.5 -286.5t274.5 -112.5q141 0 250 70t178 204l59 -32q-85 -156 -206.5 -231.5t-293.5 -75.5q-166 0 -274.5 96t-136.5 256l-64 -332h-74l50 258q-81 -127 -207 -202.5t-277 -75.5
q-197 0 -313.5 127t-116.5 337q0 130 48 250t129.5 209.5t196.5 143t243 53.5q161 0 264.5 -83t136.5 -233l55 295h74l-51 -266q80 132 209 209.5t284 77.5zM1237 578h858q10 62 10 106q0 162 -93.5 257t-252.5 95q-189 0 -334.5 -130t-187.5 -328zM629 49q146 0 268.5 82.5
t192 218.5t69.5 291q0 180 -97 284.5t-265 104.5q-147 0 -272 -80.5t-196 -213t-71 -283.5q0 -181 100.5 -292.5t270.5 -111.5z" />
    <glyph glyph-name="ccedilla" unicode="&#xe7;" horiz-adv-x="1173" 
d="M795 1030q-111 0 -211.5 -48t-171 -127t-112.5 -183.5t-42 -214.5q0 -180 104.5 -294t278.5 -114q138 0 248.5 72t177.5 209l68 -27q-162 -317 -488 -323l-63 -103q68 -6 111.5 -55.5t43.5 -116.5q0 -84 -65 -139t-164 -55q-70 0 -120.5 27t-74.5 67l45 39
q17 -34 54.5 -57t93.5 -23q73 0 119.5 40t46.5 99t-36 96t-99 37h-25l-8 19l82 127q-188 15 -298 142.5t-110 324.5q0 172 81.5 321t225.5 239.5t316 90.5q169 0 280.5 -88.5t128.5 -237.5l-75 -24q-14 128 -106 204t-236 76z" />
    <glyph glyph-name="egrave" unicode="&#xe8;" horiz-adv-x="1212" 
d="M1032 1303l-33 -50l-374 230l37 55zM799 1100q184 0 297.5 -115t113.5 -297q0 -33 -8 -88.5t-16 -79.5h-922q-4 -50 -4 -76q0 -174 106 -283.5t271 -109.5q140 0 248 70t178 201l61 -35q-84 -156 -205 -231.5t-292 -75.5q-195 0 -321 129t-126 327q0 183 82 335.5
t224.5 240.5t312.5 88zM276 592h848q9 74 9 92q0 161 -90.5 252.5t-249.5 91.5q-186 0 -329 -123t-188 -313z" />
    <glyph glyph-name="eacute" unicode="&#xe9;" horiz-adv-x="1212" 
d="M1094 1483l-420 -228l-29 52l418 233zM799 1100q184 0 297.5 -115t113.5 -297q0 -33 -8 -88.5t-16 -79.5h-922q-4 -50 -4 -76q0 -174 106 -283.5t271 -109.5q140 0 248 70t178 201l61 -35q-84 -156 -205 -231.5t-292 -75.5q-195 0 -321 129t-126 327q0 183 82 335.5
t224.5 240.5t312.5 88zM276 592h848q9 74 9 92q0 161 -90.5 252.5t-249.5 91.5q-186 0 -329 -123t-188 -313z" />
    <glyph glyph-name="ecircumflex" unicode="&#xea;" horiz-adv-x="1212" 
d="M877 1477l-246 -215h-86l305 270h63l199 -270h-72zM799 1100q184 0 297.5 -115t113.5 -297q0 -33 -8 -88.5t-16 -79.5h-922q-4 -50 -4 -76q0 -174 106 -283.5t271 -109.5q140 0 248 70t178 201l61 -35q-84 -156 -205 -231.5t-292 -75.5q-195 0 -321 129t-126 327
q0 183 82 335.5t224.5 240.5t312.5 88zM276 592h848q9 74 9 92q0 161 -90.5 252.5t-249.5 91.5q-186 0 -329 -123t-188 -313z" />
    <glyph glyph-name="edieresis" unicode="&#xeb;" horiz-adv-x="1212" 
d="M670 1309q-34 0 -56 22t-22 60q0 37 30.5 66.5t69.5 29.5q36 0 58 -22t22 -60q0 -37 -31 -66.5t-71 -29.5zM1010 1309q-36 0 -58 22t-22 60q0 37 31 66.5t71 29.5q34 0 56 -22t22 -60q0 -37 -30.5 -66.5t-69.5 -29.5zM799 1100q184 0 297.5 -115t113.5 -297
q0 -33 -8 -88.5t-16 -79.5h-922q-4 -50 -4 -76q0 -174 106 -283.5t271 -109.5q140 0 248 70t178 201l61 -35q-84 -156 -205 -231.5t-292 -75.5q-195 0 -321 129t-126 327q0 183 82 335.5t224.5 240.5t312.5 88zM276 592h848q9 74 9 92q0 161 -90.5 252.5t-249.5 91.5
q-186 0 -329 -123t-188 -313z" />
    <glyph glyph-name="igrave" unicode="&#xec;" horiz-adv-x="421" 
d="M610 1255l-372 230l34 55l371 -235zM164 0l209 1079h78l-209 -1079h-78z" />
    <glyph glyph-name="iacute" unicode="&#xed;" horiz-adv-x="421" 
d="M289 1257l-29 52l418 233l31 -57zM164 0l209 1079h78l-209 -1079h-78z" />
    <glyph glyph-name="icircumflex" unicode="&#xee;" horiz-adv-x="421" 
d="M727 1264h-72l-163 215l-246 -215h-86l305 270h63zM164 0l209 1079h78l-209 -1079h-78z" />
    <glyph glyph-name="idieresis" unicode="&#xef;" horiz-adv-x="421" 
d="M289 1311q-34 0 -56 22t-22 60q0 37 30 65.5t70 28.5q35 0 56.5 -21.5t21.5 -58.5t-30.5 -66.5t-69.5 -29.5zM627 1311q-34 0 -56 22t-22 60q0 37 30 65.5t70 28.5q36 0 58 -21t22 -59q0 -37 -31 -66.5t-71 -29.5zM164 0l209 1079h78l-209 -1079h-78z" />
    <glyph glyph-name="eth" unicode="&#xf0;" horiz-adv-x="1245" 
d="M911 1450q172 -103 268.5 -285t96.5 -417q0 -225 -82 -400.5t-228 -271.5t-331 -96q-212 0 -335.5 129t-123.5 329q0 171 82.5 314.5t223 226t306.5 82.5q132 0 244.5 -62.5t165.5 -181.5q-15 199 -105.5 347.5t-242.5 234.5l-283 -244l-43 41l269 231q-169 76 -373 76
l41 64q215 0 395 -86l215 184l43 -41zM647 49q144 0 267.5 80.5t194.5 213t71 282.5q0 157 -115 261.5t-285 104.5q-144 0 -264 -70.5t-190 -195t-70 -276.5q0 -173 105 -286.5t286 -113.5z" />
    <glyph glyph-name="ntilde" unicode="&#xf1;" horiz-adv-x="1259" 
d="M735 1419q-81 0 -121 -108l-57 24q60 152 182 152q41 0 75.5 -17.5t55 -38t52 -38t65.5 -17.5q85 0 125 109l55 -25q-53 -151 -182 -151q-35 0 -64.5 11.5t-50 27.5t-40 32t-44 27.5t-51.5 11.5zM840 1100q198 0 297 -121.5t57 -333.5l-125 -645h-78l123 637
q36 188 -46 290.5t-253 102.5q-159 0 -281.5 -98t-158.5 -248l-133 -684h-78l209 1079h73l-40 -221q63 108 177 175t257 67z" />
    <glyph glyph-name="ograve" unicode="&#xf2;" horiz-adv-x="1277" 
d="M1040 1253l-372 230l37 55l370 -235zM641 -20q-210 0 -335.5 125.5t-125.5 338.5q0 129 47.5 248.5t129.5 209.5t199 144t249 54q207 0 332 -126.5t125 -340.5q0 -127 -46.5 -246t-127.5 -209t-198 -144t-249 -54zM649 49q113 0 213.5 49.5t170.5 130t110.5 185.5
t40.5 215q0 182 -105 291.5t-280 109.5q-151 0 -277 -83t-195 -214.5t-69 -277.5q0 -183 107 -294.5t284 -111.5z" />
    <glyph glyph-name="oacute" unicode="&#xf3;" horiz-adv-x="1277" 
d="M700 1255l-26 52l416 233l30 -57zM641 -20q-210 0 -335.5 125.5t-125.5 338.5q0 129 47.5 248.5t129.5 209.5t199 144t249 54q207 0 332 -126.5t125 -340.5q0 -127 -46.5 -246t-127.5 -209t-198 -144t-249 -54zM649 49q113 0 213.5 49.5t170.5 130t110.5 185.5t40.5 215
q0 182 -105 291.5t-280 109.5q-151 0 -277 -83t-195 -214.5t-69 -277.5q0 -183 107 -294.5t284 -111.5z" />
    <glyph glyph-name="ocircumflex" unicode="&#xf4;" horiz-adv-x="1277" 
d="M897 1475l-244 -213h-86l303 270h64l199 -270h-70zM805 1100q207 0 332 -126.5t125 -340.5q0 -127 -46.5 -246t-127.5 -209t-198 -144t-249 -54q-210 0 -335.5 125.5t-125.5 338.5q0 129 47.5 248.5t129.5 209.5t199 144t249 54zM649 49q113 0 213.5 49.5t170.5 130
t110.5 185.5t40.5 215q0 182 -105 291.5t-280 109.5q-151 0 -277 -83t-195 -214.5t-69 -277.5q0 -183 107 -294.5t284 -111.5z" />
    <glyph glyph-name="otilde" unicode="&#xf5;" horiz-adv-x="1277" 
d="M993 1309q-34 0 -63.5 11.5t-50 27.5t-39.5 32t-43.5 27.5t-51.5 11.5q-44 0 -72 -27t-48 -81l-58 24q60 152 183 152q41 0 75 -17.5t54.5 -38t52 -38t65.5 -17.5q82 0 125 109l54 -25q-53 -151 -183 -151zM641 -20q-210 0 -335.5 125.5t-125.5 338.5q0 129 47.5 248.5
t129.5 209.5t199 144t249 54q207 0 332 -126.5t125 -340.5q0 -127 -46.5 -246t-127.5 -209t-198 -144t-249 -54zM649 49q113 0 213.5 49.5t170.5 130t110.5 185.5t40.5 215q0 182 -105 291.5t-280 109.5q-151 0 -277 -83t-195 -214.5t-69 -277.5q0 -183 107 -294.5
t284 -111.5z" />
    <glyph glyph-name="odieresis" unicode="&#xf6;" horiz-adv-x="1277" 
d="M686 1309q-34 0 -56 22t-22 60q0 37 30.5 66.5t70.5 29.5q36 0 57.5 -22t21.5 -60q0 -37 -31 -66.5t-71 -29.5zM1026 1309q-36 0 -58 22t-22 60q0 37 31.5 66.5t71.5 29.5q34 0 55.5 -22t21.5 -60q0 -37 -30.5 -66.5t-69.5 -29.5zM641 -20q-210 0 -335.5 125.5
t-125.5 338.5q0 129 47.5 248.5t129.5 209.5t199 144t249 54q207 0 332 -126.5t125 -340.5q0 -127 -46.5 -246t-127.5 -209t-198 -144t-249 -54zM649 49q113 0 213.5 49.5t170.5 130t110.5 185.5t40.5 215q0 182 -105 291.5t-280 109.5q-151 0 -277 -83t-195 -214.5
t-69 -277.5q0 -183 107 -294.5t284 -111.5z" />
    <glyph glyph-name="divide" unicode="&#xf7;" horiz-adv-x="950" 
d="M651 893q-31 0 -50 19t-19 51q0 37 24.5 62.5t61.5 25.5q32 0 51.5 -20t19.5 -52q0 -37 -25.5 -61.5t-62.5 -24.5zM174 582l14 67h824l-15 -67h-823zM510 150q-31 0 -50.5 19t-19.5 50q0 38 25 63t61 25q32 0 52 -19t20 -50q0 -37 -25 -62.5t-63 -25.5z" />
    <glyph glyph-name="oslash" unicode="&#xf8;" horiz-adv-x="1245" 
d="M1380 1006l-172 -134q54 -105 54 -239q0 -127 -46.5 -246t-127.5 -209t-198 -144t-249 -54q-246 0 -371 165l-153 -118l-33 47l156 121q-60 108 -60 249q0 128 48 248t130 210t199 144t248 54q124 0 220 -46.5t155 -133.5l170 131zM260 455q0 -120 47 -209l811 624
q-109 160 -319 160q-113 0 -214.5 -49t-172 -129t-111.5 -184.5t-41 -212.5zM1184 629q0 105 -39 194l-809 -626q52 -70 132 -109t181 -39q113 0 213.5 49.5t170.5 130t110.5 185.5t40.5 215z" />
    <glyph glyph-name="ugrave" unicode="&#xf9;" horiz-adv-x="1236" 
d="M1022 1305l-33 -50l-375 230l37 55zM1165 1079h78l-209 -1079h-76l43 223q-63 -109 -174.5 -176t-251.5 -67q-190 0 -288 121.5t-56 332.5l125 645h78l-123 -637q-36 -187 45 -290t244 -103q159 0 283 106t155 265z" />
    <glyph glyph-name="uacute" unicode="&#xfa;" horiz-adv-x="1236" 
d="M1087 1485l-419 -228l-27 52l416 233zM1165 1079h78l-209 -1079h-76l43 223q-63 -109 -174.5 -176t-251.5 -67q-190 0 -288 121.5t-56 332.5l125 645h78l-123 -637q-36 -187 45 -290t244 -103q159 0 283 106t155 265z" />
    <glyph glyph-name="ucircumflex" unicode="&#xfb;" horiz-adv-x="1236" 
d="M860 1477l-244 -213h-86l304 270h63l199 -270h-70zM1165 1079h78l-209 -1079h-76l43 223q-63 -109 -174.5 -176t-251.5 -67q-190 0 -288 121.5t-56 332.5l125 645h78l-123 -637q-36 -187 45 -290t244 -103q159 0 283 106t155 265z" />
    <glyph glyph-name="udieresis" unicode="&#xfc;" horiz-adv-x="1236" 
d="M662 1311q-34 0 -56 22t-22 60q0 37 30.5 66.5t69.5 29.5q36 0 58 -22t22 -60q0 -37 -31 -66.5t-71 -29.5zM1001 1311q-36 0 -57.5 22t-21.5 60q0 37 31 66.5t71 29.5q34 0 56 -22t22 -60q0 -37 -30.5 -66.5t-70.5 -29.5zM1165 1079h78l-209 -1079h-76l43 223
q-63 -109 -174.5 -176t-251.5 -67q-190 0 -288 121.5t-56 332.5l125 645h78l-123 -637q-36 -187 45 -290t244 -103q159 0 283 106t155 265z" />
    <glyph glyph-name="yacute" unicode="&#xfd;" horiz-adv-x="1079" 
d="M1020 1485l-420 -228l-29 52l418 233zM1139 1079h90l-895 -1446h-82l231 367h-2l-250 1079h80l224 -997z" />
    <glyph glyph-name="thorn" unicode="&#xfe;" horiz-adv-x="1288" 
d="M895 1100q145 0 248 -72.5t144 -201t11 -287.5q-46 -239 -223.5 -399t-396.5 -160q-151 0 -251.5 77.5t-133.5 212.5l-123 -637h-78l363 1864h77l-133 -688q86 135 216.5 213t279.5 78zM1221 539q26 139 -9 251t-123 176t-212 64q-192 0 -342 -137.5t-191 -353.5
t55.5 -353t288.5 -137q185 0 339 141t194 349z" />
    <glyph glyph-name="ydieresis" unicode="&#xff;" horiz-adv-x="1079" 
d="M588 1311q-34 0 -56 22t-22 60q0 37 30.5 66.5t69.5 29.5q36 0 58 -22t22 -60q0 -37 -31 -66.5t-71 -29.5zM928 1311q-36 0 -58 22t-22 60q0 37 31 66.5t71 29.5q34 0 56 -22t22 -60q0 -37 -30.5 -66.5t-69.5 -29.5zM1139 1079h90l-895 -1446h-82l231 367h-2l-250 1079
h80l224 -997z" />
    <glyph glyph-name="Amacron" unicode="&#x100;" horiz-adv-x="1239" 
d="M676 1739h530l-12 -68h-530zM829 1423h91l251 -1423h-73l-86 483h-631l-272 -483h-84zM418 551h581l-139 784z" />
    <glyph glyph-name="amacron" unicode="&#x101;" horiz-adv-x="1325" 
d="M1167 1432l-12 -66h-520l12 66h520zM1253 1079h74l-209 -1079h-74l52 260q-82 -129 -208 -204.5t-278 -75.5q-197 0 -313.5 127t-116.5 337q0 130 48 250t129.5 209.5t196.5 143t243 53.5q163 0 266 -84t133 -236zM629 49q146 0 268.5 82.5t192 218.5t69.5 291
q0 180 -97 284.5t-265 104.5q-147 0 -272 -80.5t-196 -213t-71 -283.5q0 -181 100.5 -292.5t270.5 -111.5z" />
    <glyph glyph-name="Abreve" unicode="&#x102;" horiz-adv-x="1239" 
d="M924 1585q-112 0 -169.5 71.5t-39.5 164.5h67q-13 -69 26.5 -119.5t121.5 -50.5q79 0 136.5 50.5t70.5 119.5h67q-18 -99 -93.5 -167.5t-186.5 -68.5zM829 1423h91l251 -1423h-73l-86 483h-631l-272 -483h-84zM418 551h581l-139 784z" />
    <glyph glyph-name="abreve" unicode="&#x103;" horiz-adv-x="1325" 
d="M885 1264q-81 0 -135.5 43t-73 103.5t-6.5 123.5h65q-9 -48 2.5 -93.5t51 -79.5t102.5 -34q96 0 154.5 64t72.5 143h66q-10 -51 -32 -97t-57.5 -86t-89.5 -63.5t-120 -23.5zM1253 1079h74l-209 -1079h-74l52 260q-82 -129 -208 -204.5t-278 -75.5q-197 0 -313.5 127
t-116.5 337q0 130 48 250t129.5 209.5t196.5 143t243 53.5q163 0 266 -84t133 -236zM629 49q146 0 268.5 82.5t192 218.5t69.5 291q0 180 -97 284.5t-265 104.5q-147 0 -272 -80.5t-196 -213t-71 -283.5q0 -181 100.5 -292.5t270.5 -111.5z" />
    <glyph glyph-name="Aogonek" unicode="&#x104;" horiz-adv-x="1239" 
d="M1024 -399q69 0 115 49l28 -39q-66 -66 -157 -66q-67 0 -106.5 37.5t-39.5 100.5q0 41 17 80.5t49.5 77t61 64t71.5 60.5l43 35h-8l-86 483h-631l-272 -483h-84l804 1423h91l251 -1423l-75 -68q-82 -69 -125 -124t-43 -115q0 -92 96 -92zM418 551h581l-139 784z" />
    <glyph glyph-name="aogonek" unicode="&#x105;" horiz-adv-x="1325" 
d="M1042 -68q-82 -69 -125 -124t-43 -115q0 -45 25.5 -68.5t71.5 -23.5q68 0 114 49l29 -39q-66 -66 -158 -66q-67 0 -106 37.5t-39 100.5q0 41 17 80.5t49.5 77t61 64t71.5 60.5l43 35h-9l52 260q-82 -129 -208 -204.5t-278 -75.5q-197 0 -313.5 127t-116.5 337
q0 130 48 250t129.5 209.5t196.5 143t243 53.5q163 0 266 -84t133 -236l57 299h74l-209 -1079zM629 49q146 0 268.5 82.5t192 218.5t69.5 291q0 180 -97 284.5t-265 104.5q-147 0 -272 -80.5t-196 -213t-71 -283.5q0 -181 100.5 -292.5t270.5 -111.5z" />
    <glyph glyph-name="Cacute" unicode="&#x106;" horiz-adv-x="1486" 
d="M868 1585l-18 55l469 185l22 -62zM801 -20q-259 0 -421.5 165.5t-162.5 425.5q0 137 36.5 267t106.5 239t164.5 191.5t218.5 129t261 46.5q223 0 369 -123.5t179 -316.5l-77 -27q-35 177 -160 285t-324 108q-151 0 -282 -65.5t-220 -175t-139.5 -253t-50.5 -298.5
q0 -232 140.5 -378.5t369.5 -146.5q198 0 334.5 96t240.5 300l70 -33q-115 -223 -269.5 -329.5t-383.5 -106.5z" />
    <glyph glyph-name="cacute" unicode="&#x107;" horiz-adv-x="1173" 
d="M711 1257l-27 52l416 233l30 -57zM633 -20q-207 0 -330 130.5t-123 338.5q0 172 81.5 321t225.5 239.5t316 90.5q169 0 280.5 -88.5t128.5 -237.5l-75 -24q-14 128 -106 204t-236 76q-111 0 -211.5 -48t-171 -127t-112.5 -183.5t-42 -214.5q0 -180 104.5 -294t278.5 -114
q138 0 248.5 72t177.5 209l68 -27q-165 -323 -502 -323z" />
    <glyph glyph-name="Cdotaccent" unicode="&#x10a;" horiz-adv-x="1486" 
d="M1071 1616q-33 0 -55.5 22.5t-22.5 55.5q0 38 28 65t66 27q34 0 57 -22t23 -56q0 -37 -29 -64.5t-67 -27.5zM801 -20q-259 0 -421.5 165.5t-162.5 425.5q0 137 36.5 267t106.5 239t164.5 191.5t218.5 129t261 46.5q223 0 369 -123.5t179 -316.5l-77 -27q-35 177 -160 285
t-324 108q-151 0 -282 -65.5t-220 -175t-139.5 -253t-50.5 -298.5q0 -232 140.5 -378.5t369.5 -146.5q198 0 334.5 96t240.5 300l70 -33q-115 -223 -269.5 -329.5t-383.5 -106.5z" />
    <glyph glyph-name="cdotaccent" unicode="&#x10b;" horiz-adv-x="1173" 
d="M850 1309q-37 0 -59.5 22.5t-22.5 57.5q0 42 31 73t73 31q37 0 59.5 -22.5t22.5 -57.5q0 -42 -31 -73t-73 -31zM633 -20q-207 0 -330 130.5t-123 338.5q0 172 81.5 321t225.5 239.5t316 90.5q169 0 280.5 -88.5t128.5 -237.5l-75 -24q-14 128 -106 204t-236 76
q-111 0 -211.5 -48t-171 -127t-112.5 -183.5t-42 -214.5q0 -180 104.5 -294t278.5 -114q138 0 248.5 72t177.5 209l68 -27q-165 -323 -502 -323z" />
    <glyph glyph-name="Ccaron" unicode="&#x10c;" horiz-adv-x="1486" 
d="M1085 1585h-63l-195 236h72l160 -181l229 181h88zM991 1370q-151 0 -282 -65.5t-220 -175t-139.5 -253t-50.5 -298.5q0 -232 140.5 -378.5t369.5 -146.5q198 0 334.5 96t240.5 300l70 -33q-115 -223 -269.5 -329.5t-383.5 -106.5q-259 0 -421.5 165.5t-162.5 425.5
q0 137 36.5 267t106.5 239t164.5 191.5t218.5 129t261 46.5q223 0 369 -123.5t179 -316.5l-77 -27q-35 177 -160 285t-324 108z" />
    <glyph glyph-name="ccaron" unicode="&#x10d;" horiz-adv-x="1173" 
d="M872 1264h-63l-197 270h72l162 -217l246 217h88zM795 1030q-111 0 -211.5 -48t-171 -127t-112.5 -183.5t-42 -214.5q0 -180 104.5 -294t278.5 -114q138 0 248.5 72t177.5 209l68 -27q-165 -323 -502 -323q-207 0 -330 130.5t-123 338.5q0 172 81.5 321t225.5 239.5
t316 90.5q169 0 280.5 -88.5t128.5 -237.5l-75 -24q-14 128 -106 204t-236 76z" />
    <glyph glyph-name="Dcaron" unicode="&#x10e;" horiz-adv-x="1462" 
d="M1014 1585h-64l-194 236h71l160 -181l230 181h88zM893 1423q262 0 418.5 -164t156.5 -436q0 -168 -62 -320t-167.5 -262.5t-252 -175.5t-308.5 -65h-494l277 1423h432zM686 70q141 0 271 60.5t224.5 161.5t151 240t56.5 289q0 243 -137.5 388t-368.5 145h-359l-248 -1284
h410z" />
    <glyph glyph-name="dcaron" unicode="&#x10f;" horiz-adv-x="1370" 
d="M1196 793l135 704h78l-291 -1497h-74l50 258q-81 -127 -207 -202.5t-277 -75.5q-197 0 -313.5 127t-116.5 337q0 130 48 250t129.5 209.5t196.5 143t243 53.5q158 0 261.5 -80.5t137.5 -226.5zM1636 1497h66l-127 -422h-59zM629 49q146 0 268.5 82.5t192 218.5t69.5 291
q0 180 -97 284.5t-265 104.5q-147 0 -272 -80.5t-196 -213t-71 -283.5q0 -181 100.5 -292.5t270.5 -111.5z" />
    <glyph glyph-name="Dcroat" unicode="&#x110;" horiz-adv-x="1472" 
d="M905 1423q261 0 418.5 -164t157.5 -436q0 -168 -62.5 -320t-168.5 -262.5t-253 -175.5t-309 -65h-493l139 715h-184l10 61h186l125 647h434zM696 70q141 0 271 60.5t224.5 161.5t151 240t56.5 289q0 243 -137.5 388t-368.5 145h-358l-111 -578h299l-12 -61h-299
l-125 -645h409z" />
    <glyph glyph-name="dcroat" unicode="&#x111;" horiz-adv-x="1325" 
d="M1550 1303l-10 -62h-180l-242 -1241h-74l50 258q-81 -127 -207 -202.5t-277 -75.5q-197 0 -313.5 127t-116.5 337q0 130 48 250t129.5 209.5t196.5 143t243 53.5q158 0 261.5 -80.5t137.5 -226.5l86 448h-303l10 62h305l37 194h78l-37 -194h178zM629 49q146 0 268.5 82.5
t192 218.5t69.5 291q0 180 -97 284.5t-265 104.5q-147 0 -272 -80.5t-196 -213t-71 -283.5q0 -181 100.5 -292.5t270.5 -111.5z" />
    <glyph glyph-name="Emacron" unicode="&#x112;" horiz-adv-x="1128" 
d="M1192 1739l-12 -68h-529l13 68h528zM1264 1354h-740l-110 -574h676l-15 -69h-676l-125 -641h752l-12 -70h-830l277 1423h815z" />
    <glyph glyph-name="emacron" unicode="&#x113;" horiz-adv-x="1212" 
d="M1120 1427l-12 -63h-522l12 63h522zM799 1100q184 0 297.5 -115t113.5 -297q0 -33 -8 -88.5t-16 -79.5h-922q-4 -50 -4 -76q0 -174 106 -283.5t271 -109.5q140 0 248 70t178 201l61 -35q-84 -156 -205 -231.5t-292 -75.5q-195 0 -321 129t-126 327q0 183 82 335.5
t224.5 240.5t312.5 88zM276 592h848q9 74 9 92q0 161 -90.5 252.5t-249.5 91.5q-186 0 -329 -123t-188 -313z" />
    <glyph glyph-name="Edotaccent" unicode="&#x116;" horiz-adv-x="1128" 
d="M899 1616q-33 0 -55.5 22.5t-22.5 55.5q0 38 28.5 65t68.5 27q34 0 55.5 -22t21.5 -56q0 -37 -28.5 -64.5t-67.5 -27.5zM1264 1354h-740l-110 -574h676l-15 -69h-676l-125 -641h752l-12 -70h-830l277 1423h815z" />
    <glyph glyph-name="edotaccent" unicode="&#x117;" horiz-adv-x="1212" 
d="M846 1307q-36 0 -59 22.5t-23 56.5q0 43 31.5 74t74.5 31q36 0 59 -23t23 -57q0 -43 -31.5 -73.5t-74.5 -30.5zM799 1100q184 0 297.5 -115t113.5 -297q0 -33 -8 -88.5t-16 -79.5h-922q-4 -50 -4 -76q0 -174 106 -283.5t271 -109.5q140 0 248 70t178 201l61 -35
q-84 -156 -205 -231.5t-292 -75.5q-195 0 -321 129t-126 327q0 183 82 335.5t224.5 240.5t312.5 88zM276 592h848q9 74 9 92q0 161 -90.5 252.5t-249.5 91.5q-186 0 -329 -123t-188 -313z" />
    <glyph glyph-name="Eogonek" unicode="&#x118;" horiz-adv-x="1128" 
d="M1264 1354h-740l-110 -574h676l-15 -69h-676l-125 -641h752l-12 -70l-78 -68q-81 -70 -123.5 -124.5t-42.5 -114.5q0 -45 24.5 -68.5t69.5 -23.5q72 0 115 49l29 -39q-66 -66 -156 -66q-67 0 -107 37.5t-40 100.5q0 41 17 80.5t50 77.5t61.5 63.5t71.5 60.5l43 35h-764
l277 1423h815z" />
    <glyph glyph-name="eogonek" unicode="&#x119;" horiz-adv-x="1212" 
d="M799 1100q184 0 297.5 -115t113.5 -297q0 -33 -8 -88.5t-16 -79.5h-922q-4 -50 -4 -76q0 -174 106 -283.5t271 -109.5q140 0 248 70t178 201l61 -35q-120 -225 -323 -285l-74 -63q-83 -73 -124.5 -127t-41.5 -115q0 -44 24.5 -67t69.5 -23q72 0 115 49l29 -39
q-68 -68 -158 -68q-66 0 -105.5 38t-39.5 102q0 75 54.5 142t145.5 140l17 13q-54 -4 -86 -4q-195 0 -321 129t-126 327q0 183 82 335.5t224.5 240.5t312.5 88zM276 592h848q9 74 9 92q0 161 -90.5 252.5t-249.5 91.5q-186 0 -329 -123t-188 -313z" />
    <glyph glyph-name="Ecaron" unicode="&#x11a;" horiz-adv-x="1128" 
d="M920 1585h-64l-194 236h73l160 -179l227 179h88zM1264 1354h-740l-110 -574h676l-15 -69h-676l-125 -641h752l-12 -70h-830l277 1423h815z" />
    <glyph glyph-name="ecaron" unicode="&#x11b;" horiz-adv-x="1212" 
d="M858 1262h-63l-197 270h74l159 -217l248 217h86zM799 1100q184 0 297.5 -115t113.5 -297q0 -33 -8 -88.5t-16 -79.5h-922q-4 -50 -4 -76q0 -174 106 -283.5t271 -109.5q140 0 248 70t178 201l61 -35q-84 -156 -205 -231.5t-292 -75.5q-195 0 -321 129t-126 327
q0 183 82 335.5t224.5 240.5t312.5 88zM276 592h848q9 74 9 92q0 161 -90.5 252.5t-249.5 91.5q-186 0 -329 -123t-188 -313z" />
    <glyph glyph-name="Gbreve" unicode="&#x11e;" horiz-adv-x="1568" 
d="M1059 1585q-112 0 -169.5 71.5t-39.5 164.5h68q-13 -69 25.5 -119.5t121.5 -50.5q79 0 136.5 50.5t70.5 119.5h67q-20 -99 -95.5 -167.5t-184.5 -68.5zM1573 719q-63 -349 -266 -544t-498 -195q-269 0 -430.5 165.5t-161.5 444.5q0 174 62 332t167 272.5t250 182
t305 67.5q219 0 371 -119t187 -317l-78 -27q-32 181 -162.5 285t-325.5 104q-188 0 -348.5 -104.5t-254 -283t-93.5 -388.5q0 -248 141 -395.5t379 -147.5q245 0 420 159t244 443h-588l12 66h668z" />
    <glyph glyph-name="gbreve" unicode="&#x11f;" horiz-adv-x="1325" 
d="M874 1264q-81 0 -136 43t-73.5 103.5t-5.5 123.5h66q-15 -77 24 -142t132 -65q50 0 91.5 19.5t68 51.5t43 66.5t22.5 69.5h65q-9 -51 -31 -97t-57 -86t-89 -63.5t-120 -23.5zM1257 1079h74l-186 -956q-50 -253 -197.5 -381.5t-390.5 -128.5q-185 0 -303.5 89t-138.5 253
l69 20q15 -143 116 -220t263 -77q203 0 334.5 112.5t173.5 328.5l31 157q-82 -132 -211 -210t-281 -78q-197 0 -313.5 127t-116.5 334q0 172 81 321.5t224 239.5t312 90q161 0 265.5 -83.5t135.5 -232.5zM629 53q146 0 268.5 82t192 217.5t69.5 290.5q0 180 -96.5 283.5
t-265.5 103.5q-147 0 -272 -80t-196 -212t-71 -283q0 -179 100.5 -290.5t270.5 -111.5z" />
    <glyph glyph-name="Gdotaccent" unicode="&#x120;" horiz-adv-x="1568" 
d="M1055 1616q-33 0 -55.5 22.5t-22.5 55.5q0 38 28 65t66 27q34 0 56 -22t22 -56q0 -37 -28 -64.5t-66 -27.5zM1573 719q-63 -349 -266 -544t-498 -195q-269 0 -430.5 165.5t-161.5 444.5q0 174 62 332t167 272.5t250 182t305 67.5q219 0 371 -119t187 -317l-78 -27
q-32 181 -162.5 285t-325.5 104q-188 0 -348.5 -104.5t-254 -283t-93.5 -388.5q0 -248 141 -395.5t379 -147.5q245 0 420 159t244 443h-588l12 66h668z" />
    <glyph glyph-name="gdotaccent" unicode="&#x121;" horiz-adv-x="1325" 
d="M862 1309q-36 0 -59 23t-23 57q0 42 32.5 73t74.5 31q37 0 59.5 -22.5t22.5 -57.5q0 -42 -32 -73t-75 -31zM1257 1079h74l-186 -956q-50 -253 -197.5 -381.5t-390.5 -128.5q-185 0 -303.5 89t-138.5 253l69 20q15 -143 116 -220t263 -77q203 0 334.5 112.5t173.5 328.5
l31 157q-82 -132 -211 -210t-281 -78q-197 0 -313.5 127t-116.5 334q0 172 81 321.5t224 239.5t312 90q161 0 265.5 -83.5t135.5 -232.5zM629 53q146 0 268.5 82t192 217.5t69.5 290.5q0 180 -96.5 283.5t-265.5 103.5q-147 0 -272 -80t-196 -212t-71 -283
q0 -179 100.5 -290.5t270.5 -111.5z" />
    <glyph glyph-name="uni0122" unicode="&#x122;" horiz-adv-x="1568" 
d="M1573 719q-63 -349 -266 -544t-498 -195q-269 0 -430.5 165.5t-161.5 444.5q0 174 62 332t167 272.5t250 182t305 67.5q219 0 371 -119t187 -317l-78 -27q-32 181 -162.5 285t-325.5 104q-188 0 -348.5 -104.5t-254 -283t-93.5 -388.5q0 -248 141 -395.5t379 -147.5
q245 0 420 159t244 443h-588l12 66h668zM760 -102q31 0 49 -18.5t18 -49.5q0 -48 -59 -127l-106 -143l-41 22l102 146q6 6 10 14q-27 2 -44 21t-17 49q0 34 26 60t62 26z" />
    <glyph glyph-name="uni0123" unicode="&#x123;" horiz-adv-x="1325" 
d="M825 1241q-32 0 -50.5 19t-18.5 49q0 45 61 127l107 145l41 -22l-105 -146l-8 -14q27 -2 44 -21t17 -49q0 -34 -26 -61t-62 -27zM1257 1079h74l-186 -956q-50 -253 -197.5 -381.5t-390.5 -128.5q-185 0 -303.5 89t-138.5 253l69 20q15 -143 116 -220t263 -77
q203 0 334.5 112.5t173.5 328.5l31 157q-82 -132 -211 -210t-281 -78q-197 0 -313.5 127t-116.5 334q0 172 81 321.5t224 239.5t312 90q161 0 265.5 -83.5t135.5 -232.5zM629 53q146 0 268.5 82t192 217.5t69.5 290.5q0 180 -96.5 283.5t-265.5 103.5q-147 0 -272 -80
t-196 -212t-71 -283q0 -179 100.5 -290.5t270.5 -111.5z" />
    <glyph glyph-name="Hbar" unicode="&#x126;" horiz-adv-x="1413" 
d="M1530 1151l-12 -66h-134l-210 -1085h-76l137 711h-829l-138 -711h-78l211 1085h-131l13 66h131l53 272h78l-53 -272h829l53 272h76l-53 -272h133zM1249 782l60 303h-830l-59 -303h829z" />
    <glyph glyph-name="hbar" unicode="&#x127;" horiz-adv-x="1259" 
d="M840 1100q198 0 297 -121.5t57 -333.5l-125 -645h-78l123 637q36 188 -46 290.5t-253 102.5q-159 0 -281.5 -98t-158.5 -248l-133 -684h-78l242 1241h-173l11 62h174l37 194h77l-38 -194h313l-12 -62h-314l-73 -377q65 105 178.5 170.5t253.5 65.5z" />
    <glyph glyph-name="Itilde" unicode="&#x128;" horiz-adv-x="466" 
d="M643 1608q-29 0 -53.5 11.5t-42 27.5t-33.5 32t-36.5 27.5t-43.5 11.5q-71 0 -100 -108l-47 24q49 152 149 152q34 0 63 -17.5t46.5 -38t44 -38t55.5 -17.5q68 0 105 109l43 -25q-43 -151 -150 -151zM184 0l277 1423h78l-277 -1423h-78z" />
    <glyph glyph-name="itilde" unicode="&#x129;" horiz-adv-x="421" 
d="M569 1311q-34 0 -62.5 17t-45 38t-41 38t-51.5 17q-68 0 -97 -108l-47 24q48 150 148 150q32 0 59.5 -17t44 -37.5t41.5 -37.5t53 -17q71 0 103 109l43 -27q-43 -149 -148 -149zM164 0l209 1079h78l-209 -1079h-78z" />
    <glyph glyph-name="Imacron" unicode="&#x12a;" horiz-adv-x="466" 
d="M272 1671l11 68h417l-10 -68h-418zM184 0l277 1423h78l-277 -1423h-78z" />
    <glyph glyph-name="imacron" unicode="&#x12b;" horiz-adv-x="421" 
d="M252 1366l10 66h416l-8 -66h-418zM164 0l209 1079h78l-209 -1079h-78z" />
    <glyph glyph-name="Iogonek" unicode="&#x12e;" horiz-adv-x="466" 
d="M184 -68q-81 -70 -123.5 -124.5t-42.5 -114.5q0 -45 25 -68.5t70 -23.5q71 0 114 49l29 -39q-66 -66 -156 -66q-67 0 -107 37.5t-40 100.5q0 41 17 80.5t50.5 77.5t61.5 63.5t72 60.5l43 35h-13l277 1423h78l-277 -1423z" />
    <glyph glyph-name="iogonek" unicode="&#x12f;" horiz-adv-x="425" 
d="M485 1493q38 0 60 -23t22 -59q0 -41 -31.5 -71.5t-72.5 -30.5q-37 0 -59.5 22.5t-22.5 57.5q0 42 31 73t73 31zM164 0l209 1079h78l-209 -1079l-78 -68q-81 -70 -123.5 -124.5t-42.5 -114.5q0 -45 24.5 -68.5t69.5 -23.5q72 0 115 49l29 -39q-66 -66 -158 -66
q-66 0 -106 37.5t-40 100.5q0 33 13 67t30.5 60t47.5 57.5t51.5 50.5t56.5 47l43 35h-10z" />
    <glyph glyph-name="Idotaccent" unicode="&#x130;" horiz-adv-x="466" 
d="M551 1616q-34 0 -57 22t-23 56q0 38 28 65t68 27q34 0 56 -22t22 -56q0 -37 -28 -64.5t-66 -27.5zM184 0l277 1423h78l-277 -1423h-78z" />
    <glyph glyph-name="dotlessi" unicode="&#x131;" horiz-adv-x="409" 
d="M164 0l209 1079h78l-209 -1079h-78z" />
    <glyph glyph-name="IJ" unicode="&#x132;" horiz-adv-x="1140" 
d="M184 0l277 1423h78l-277 -1423h-78zM514 0l12 70h97q120 0 202 73t105 199l211 1081h78l-211 -1087q-31 -159 -133 -247.5t-254 -88.5h-107z" />
    <glyph glyph-name="ij" unicode="&#x133;" horiz-adv-x="856" 
d="M463 1309q-37 0 -59.5 22.5t-22.5 57.5q0 42 31 73t73 31q38 0 60 -23t22 -59q0 -41 -31.5 -71.5t-72.5 -30.5zM899 1307q-38 0 -60 23t-22 59q0 41 31.5 71.5t73.5 30.5q37 0 59.5 -22.5t22.5 -57.5q0 -42 -31.5 -73t-73.5 -31zM164 0l209 1079h78l-209 -1079h-78z
M252 -369l14 72h29q110 0 192 74.5t107 199.5l213 1102h76l-213 -1099q-32 -165 -136 -257t-249 -92h-33z" />
    <glyph glyph-name="uni0136" unicode="&#x136;" horiz-adv-x="1204" 
d="M1370 1423l-883 -678l695 -745h-97l-682 727l-141 -727h-78l277 1423h78l-125 -647l846 647h110zM621 -102q31 0 50 -18.5t19 -49.5q0 -45 -61 -127l-107 -143l-41 22l103 146q6 6 10 14q-27 2 -44.5 21t-17.5 49q0 34 26.5 60t62.5 26z" />
    <glyph glyph-name="uni0137" unicode="&#x137;" horiz-adv-x="989" 
d="M1145 1079l-705 -497l518 -582h-92l-514 571l-110 -571h-78l291 1497h77l-172 -885l674 467h111zM526 -102q31 0 49.5 -18.5t18.5 -49.5q0 -48 -59 -127l-107 -143l-41 22l102 146q8 8 11 14q-27 2 -44.5 21t-17.5 49q0 34 26 60t62 26z" />
    <glyph glyph-name="kgreenlandic" unicode="&#x138;" horiz-adv-x="962" 
d="M1147 1079l-715 -528l526 -551h-96l-518 530l-102 -530h-78l209 1079h78l-99 -508l695 508h100z" />
    <glyph glyph-name="Lacute" unicode="&#x139;" horiz-adv-x="1062" 
d="M815 1763l-471 -178l-20 55l469 185zM276 72h738l-13 -72h-817l277 1423h78z" />
    <glyph glyph-name="lacute" unicode="&#x13a;" horiz-adv-x="421" 
d="M324 1659l-21 55l469 184l23 -61zM164 0l291 1497h77l-290 -1497h-78z" />
    <glyph glyph-name="uni013B" unicode="&#x13b;" horiz-adv-x="1062" 
d="M276 72h738l-13 -72h-817l277 1423h78zM586 -102q32 0 50.5 -18.5t18.5 -49.5q0 -45 -61 -127l-107 -143l-41 22l105 146q6 6 10 14q-28 2 -45.5 21t-17.5 49q0 34 26 60t62 26z" />
    <glyph glyph-name="uni013C" unicode="&#x13c;" horiz-adv-x="421" 
d="M532 1497l-290 -1497h-78l291 1497h77zM182 -102q31 0 49.5 -18.5t18.5 -49.5q0 -47 -60 -127l-106 -143l-41 22l102 146q8 8 11 14q-27 2 -44.5 21t-17.5 49q0 34 26 60t62 26z" />
    <glyph glyph-name="Lcaron" unicode="&#x13d;" horiz-adv-x="1069" 
d="M1110 1444l-129 -422h-57l120 422h66zM539 1423l-263 -1351h738l-13 -72h-817l277 1423h78z" />
    <glyph glyph-name="lcaron" unicode="&#x13e;" horiz-adv-x="464" 
d="M164 0l291 1497h77l-290 -1497h-78zM610 1075l121 422h68l-129 -422h-60z" />
    <glyph glyph-name="Ldot" unicode="&#x13f;" horiz-adv-x="1069" 
d="M276 72h738l-13 -72h-817l277 1423h78zM887 659q-31 0 -51.5 20t-20.5 52q0 34 26 60t62 26q32 0 52 -20.5t20 -51.5q0 -35 -25.5 -60.5t-62.5 -25.5z" />
    <glyph glyph-name="ldot" unicode="&#x140;" horiz-adv-x="509" 
d="M164 0l291 1497h77l-290 -1497h-78zM582 680q-31 0 -51.5 21t-20.5 53q0 34 26 60t62 26q32 0 52 -20.5t20 -51.5q0 -35 -25.5 -61.5t-62.5 -26.5z" />
    <glyph glyph-name="Lslash" unicode="&#x141;" horiz-adv-x="1128" 
d="M340 72h739l-14 -72h-817l129 664l-193 -80l-18 55l223 94l135 690h78l-127 -655l227 94l21 -55l-260 -109z" />
    <glyph glyph-name="lslash" unicode="&#x142;" horiz-adv-x="442" 
d="M641 866l-242 -129l-143 -737h-76l135 692l-200 -106l-27 51l242 129l141 731h76l-133 -686l200 107z" />
    <glyph glyph-name="Nacute" unicode="&#x143;" horiz-adv-x="1398" 
d="M1243 1763l-471 -178l-20 55l469 185zM1368 1423h76l-277 -1423h-65l-590 1288l-250 -1288h-78l277 1423h65l592 -1286z" />
    <glyph glyph-name="nacute" unicode="&#x144;" horiz-adv-x="1259" 
d="M1137 1483l-418 -228l-29 52l416 233zM840 1100q198 0 297 -121.5t57 -333.5l-125 -645h-78l123 637q36 188 -46 290.5t-253 102.5q-159 0 -281.5 -98t-158.5 -248l-133 -684h-78l209 1079h73l-40 -221q63 108 177 175t257 67z" />
    <glyph glyph-name="uni0145" unicode="&#x145;" horiz-adv-x="1398" 
d="M1368 1423h76l-277 -1423h-65l-590 1288l-250 -1288h-78l277 1423h65l592 -1286zM674 -102q32 0 50.5 -18.5t18.5 -49.5q0 -45 -61 -127l-107 -143l-40 22l104 146q2 2 5 7t5 7q-28 2 -45.5 21t-17.5 49q0 34 26 60t62 26z" />
    <glyph glyph-name="uni0146" unicode="&#x146;" horiz-adv-x="1259" 
d="M840 1100q198 0 297 -121.5t57 -333.5l-125 -645h-78l123 637q36 188 -46 290.5t-253 102.5q-159 0 -281.5 -98t-158.5 -248l-133 -684h-78l209 1079h73l-40 -221q63 108 177 175t257 67zM623 -102q32 0 50.5 -18.5t18.5 -49.5q0 -45 -61 -127l-107 -143l-41 22l105 146
q2 2 5 7t5 7q-28 2 -45.5 21t-17.5 49q0 34 26 60t62 26z" />
    <glyph glyph-name="Ncaron" unicode="&#x147;" horiz-adv-x="1398" 
d="M1012 1585h-64l-196 236h73l160 -179l229 179h86zM1368 1423h76l-277 -1423h-65l-590 1288l-250 -1288h-78l277 1423h65l592 -1286z" />
    <glyph glyph-name="ncaron" unicode="&#x148;" horiz-adv-x="1259" 
d="M887 1262h-64l-196 270h73l160 -217l248 217h86zM840 1100q198 0 297 -121.5t57 -333.5l-125 -645h-78l123 637q36 188 -46 290.5t-253 102.5q-159 0 -281.5 -98t-158.5 -248l-133 -684h-78l209 1079h73l-40 -221q63 108 177 175t257 67z" />
    <glyph glyph-name="napostrophe" unicode="&#x149;" horiz-adv-x="1398" 
d="M436 1497l-127 -424h-59l121 424h65zM979 1100q198 0 297 -121t59 -334l-127 -645h-75l120 637q37 188 -45.5 290.5t-253.5 102.5q-158 0 -281.5 -99t-160.5 -251l-131 -680h-78l209 1079h76l-41 -217q65 106 178 172t254 66z" />
    <glyph glyph-name="Eng" unicode="&#x14a;" horiz-adv-x="1398" 
d="M1368 1423h76l-277 -1423l-8 -45q-32 -160 -133.5 -248t-253.5 -88h-39l12 70h35q118 0 200 73.5t107 198.5l11 49l-586 1278l-250 -1288h-78l277 1423h65l592 -1286z" />
    <glyph glyph-name="eng" unicode="&#x14b;" horiz-adv-x="1222" 
d="M846 1100q207 0 298.5 -122t49.5 -335l-129 -663q-31 -158 -138 -253.5t-255 -95.5h-23l17 72h20q112 0 195 76.5t108 200.5l125 653q34 190 -41 294t-252 103q-163 -3 -291 -106t-155 -238l-133 -686h-78l209 1079h73l-43 -225q65 104 183.5 175t259.5 71z" />
    <glyph glyph-name="Omacron" unicode="&#x14c;" horiz-adv-x="1607" 
d="M819 1671l10 68h531l-12 -68h-529zM813 -20q-267 0 -431.5 171.5t-164.5 452.5q0 169 64 324.5t171 268.5t255 180t309 67q267 0 431.5 -171t164.5 -450q0 -171 -63.5 -327.5t-171 -269t-255.5 -179.5t-309 -67zM817 53q191 0 355.5 103.5t261 280t96.5 380.5
q0 248 -142.5 400.5t-375.5 152.5q-192 0 -356.5 -103.5t-260.5 -279t-96 -379.5q0 -249 142.5 -402t375.5 -153z" />
    <glyph glyph-name="omacron" unicode="&#x14d;" horiz-adv-x="1277" 
d="M610 1364l11 66h522l-13 -66h-520zM641 -20q-210 0 -335.5 125.5t-125.5 338.5q0 129 47.5 248.5t129.5 209.5t199 144t249 54q207 0 332 -126.5t125 -340.5q0 -127 -46.5 -246t-127.5 -209t-198 -144t-249 -54zM649 49q113 0 213.5 49.5t170.5 130t110.5 185.5t40.5 215
q0 182 -105 291.5t-280 109.5q-151 0 -277 -83t-195 -214.5t-69 -277.5q0 -183 107 -294.5t284 -111.5z" />
    <glyph glyph-name="Ohungarumlaut" unicode="&#x150;" horiz-adv-x="1607" 
d="M860 1528l-45 37l266 323l54 -41zM1196 1528l-43 37l266 323l54 -41zM813 -20q-267 0 -431.5 171.5t-164.5 452.5q0 169 64 324.5t171 268.5t255 180t309 67q267 0 431.5 -171t164.5 -450q0 -171 -63.5 -327.5t-171 -269t-255.5 -179.5t-309 -67zM817 53
q191 0 355.5 103.5t261 280t96.5 380.5q0 248 -142.5 400.5t-375.5 152.5q-192 0 -356.5 -103.5t-260.5 -279t-96 -379.5q0 -249 142.5 -402t375.5 -153z" />
    <glyph glyph-name="ohungarumlaut" unicode="&#x151;" horiz-adv-x="1277" 
d="M666 1253l-45 37l260 287l51 -41zM985 1253l-43 37l260 287l51 -41zM641 -20q-210 0 -335.5 125.5t-125.5 338.5q0 129 47.5 248.5t129.5 209.5t199 144t249 54q207 0 332 -126.5t125 -340.5q0 -127 -46.5 -246t-127.5 -209t-198 -144t-249 -54zM649 49q113 0 213.5 49.5
t170.5 130t110.5 185.5t40.5 215q0 182 -105 291.5t-280 109.5q-151 0 -277 -83t-195 -214.5t-69 -277.5q0 -183 107 -294.5t284 -111.5z" />
    <glyph glyph-name="OE" unicode="&#x152;" horiz-adv-x="2289" 
d="M2460 1354h-740l-110 -574h676l-15 -69h-676l-125 -641h752l-12 -70h-830l66 338q-107 -165 -273 -261.5t-360 -96.5q-267 0 -431.5 171.5t-164.5 452.5q0 169 64 324.5t171 268.5t255 180t309 67q225 0 370 -119t187 -332l84 430h815zM817 53q191 0 353.5 103.5
t257 279.5t94.5 381q0 249 -139 401t-371 152q-192 0 -356.5 -103.5t-260.5 -279t-96 -379.5q0 -249 142.5 -402t375.5 -153z" />
    <glyph glyph-name="oe" unicode="&#x153;" horiz-adv-x="2170" 
d="M1790 1100q184 0 298 -115t114 -297q0 -32 -8.5 -87.5t-16.5 -80.5h-922q-4 -50 -4 -76q0 -174 106 -283.5t271 -109.5q140 0 248 70t178 201l62 -35q-84 -156 -206 -231.5t-294 -75.5q-163 0 -279.5 92.5t-152.5 244.5q-79 -153 -222 -245t-321 -92q-210 0 -335.5 125.5
t-125.5 338.5q0 129 47.5 248.5t129.5 209.5t199 144t249 54q173 0 291 -90t153 -250q79 156 222.5 248t318.5 92zM649 49q113 0 213.5 49.5t170.5 130t110.5 185.5t40.5 215q0 182 -105 291.5t-280 109.5q-151 0 -277 -83t-195 -214.5t-69 -277.5q0 -183 107 -294.5
t284 -111.5zM1268 592h848q8 66 8 92q0 161 -90.5 252.5t-249.5 91.5q-186 0 -328.5 -123t-187.5 -313z" />
    <glyph glyph-name="Racute" unicode="&#x154;" horiz-adv-x="1208" 
d="M1176 1763l-474 -178l-18 55l469 185zM1296 1096q0 -184 -138 -302t-361 -118h-146l430 -676h-88l-424 676h-176l-131 -676h-78l277 1423h452q182 0 282.5 -87t100.5 -240zM524 1354l-118 -615h399q182 0 298 98.5t116 249.5q0 125 -82 196t-232 71h-381z" />
    <glyph glyph-name="racute" unicode="&#x155;" horiz-adv-x="649" 
d="M872 1483l-419 -228l-27 52l416 233zM403 852q61 106 170 177t238 71l-14 -72q-150 -3 -267.5 -102t-154.5 -238l-133 -688h-78l209 1079h73z" />
    <glyph glyph-name="uni0156" unicode="&#x156;" horiz-adv-x="1208" 
d="M1296 1096q0 -184 -138 -302t-361 -118h-146l430 -676h-88l-424 676h-176l-131 -676h-78l277 1423h452q182 0 282.5 -87t100.5 -240zM524 1354l-118 -615h399q182 0 298 98.5t116 249.5q0 125 -82 196t-232 71h-381zM592 -102q32 0 51 -18.5t19 -49.5q0 -26 -14 -54
t-46 -73l-108 -143l-39 22l102 146q6 6 10 14q-28 2 -45.5 21t-17.5 49q0 34 26.5 60t61.5 26z" />
    <glyph glyph-name="uni0157" unicode="&#x157;" horiz-adv-x="649" 
d="M403 852q61 106 170 177t238 71l-14 -72q-150 -3 -267.5 -102t-154.5 -238l-133 -688h-78l209 1079h73zM186 -102q31 0 49.5 -18.5t18.5 -49.5q0 -44 -59 -127l-107 -143l-41 22l103 146q6 6 10 14q-28 2 -45 20.5t-17 49.5q0 34 26 60t62 26z" />
    <glyph glyph-name="Rcaron" unicode="&#x158;" horiz-adv-x="1208" 
d="M918 1585h-64l-197 236h74l160 -179l229 179h86zM1296 1096q0 -184 -138 -302t-361 -118h-146l430 -676h-88l-424 676h-176l-131 -676h-78l277 1423h452q182 0 282.5 -87t100.5 -240zM524 1354l-118 -615h399q182 0 298 98.5t116 249.5q0 125 -82 196t-232 71h-381z" />
    <glyph glyph-name="rcaron" unicode="&#x159;" horiz-adv-x="649" 
d="M639 1262h-66l-196 270h74l159 -217l248 217h86zM403 852q61 106 170 177t238 71l-14 -72q-150 -3 -267.5 -102t-154.5 -238l-133 -688h-78l209 1079h73z" />
    <glyph glyph-name="Sacute" unicode="&#x15a;" horiz-adv-x="1079" 
d="M639 1587l-21 55l469 185l23 -64zM553 -16q-188 0 -301.5 84t-126.5 233l76 27q8 -128 104.5 -200.5t259.5 -72.5q174 0 277.5 84t103.5 226q0 61 -21 112t-56 87t-81 67.5t-96.5 58.5l-101 54t-96.5 59t-81 69.5t-56 90.5t-21 116q0 161 123 263t319 102
q160 0 261.5 -75t115.5 -202l-76 -24q-12 109 -92.5 169t-212.5 60q-158 0 -257 -79t-99 -206q0 -55 21 -100.5t56 -78t80.5 -61.5t96 -55t101 -53.5t96 -62t80.5 -75t56 -98.5t21 -128q0 -180 -128 -285.5t-345 -105.5z" />
    <glyph glyph-name="sacute" unicode="&#x15b;" horiz-adv-x="950" 
d="M553 1257l-29 52l418 233l31 -57zM485 -20q-159 0 -262.5 64.5t-118.5 178.5l68 23q10 -96 100 -149.5t224 -53.5q144 0 236.5 63.5t92.5 176.5q0 48 -19 86t-51 63.5t-73.5 46.5t-87.5 38.5t-92.5 35t-88 40.5t-73.5 51.5t-51 71t-19 95.5q0 130 101.5 209.5t267.5 79.5
q137 0 226 -56.5t106 -152.5l-72 -25q-17 85 -86 128.5t-174 43.5q-128 0 -209.5 -61t-81.5 -160q0 -58 30.5 -100.5t80 -68.5t109 -48t118.5 -47t108.5 -56t80 -83.5t30.5 -122.5q0 -98 -57.5 -170t-151 -106.5t-211.5 -34.5z" />
    <glyph glyph-name="Scedilla" unicode="&#x15e;" horiz-adv-x="1079" 
d="M774 1372q-158 0 -257 -79t-99 -206q0 -55 21 -100.5t56 -78t80.5 -61.5t96 -55t101 -53.5t96 -62t80.5 -75t56 -98.5t21 -128q0 -170 -116 -274t-314 -115l-68 -109q68 -6 112 -55.5t44 -116.5q0 -84 -64 -139t-163 -55q-72 0 -121.5 26.5t-73.5 67.5l43 39
q45 -80 148 -80q74 0 121 40t47 99q0 58 -36.5 95.5t-99.5 37.5h-24l-8 19l82 129q-180 5 -288.5 88t-121.5 229l76 27q8 -128 104.5 -200.5t259.5 -72.5q174 0 277.5 84t103.5 226q0 61 -21 112t-56 87t-81 67.5t-96.5 58.5l-101 54t-96.5 59t-81 69.5t-56 90.5t-21 116
q0 161 123 263t319 102q160 0 261.5 -75t115.5 -202l-76 -24q-12 109 -92.5 169t-212.5 60z" />
    <glyph glyph-name="scedilla" unicode="&#x15f;" horiz-adv-x="950" 
d="M348 817q0 -58 30.5 -100.5t80 -68.5t109 -48t118.5 -47t108.5 -56t80 -83.5t30.5 -122.5q0 -138 -106.5 -219.5t-272.5 -89.5l-63 -105q68 -6 111.5 -55.5t43.5 -116.5q0 -84 -64 -139t-165 -55q-70 0 -119 26.5t-73 67.5l43 39q17 -34 54 -57t93 -23q74 0 121 40t47 99
q0 58 -37 95.5t-100 37.5h-23l-8 19l78 125q-152 5 -249 68.5t-112 174.5l68 23q10 -96 100 -149.5t224 -53.5q144 0 236.5 63.5t92.5 176.5q0 48 -19 86t-51 63.5t-73.5 46.5t-87.5 38.5t-92.5 35t-88 40.5t-73.5 51.5t-51 71t-19 95.5q0 130 101.5 209.5t267.5 79.5
q137 0 226 -56.5t106 -152.5l-72 -25q-17 85 -86 128.5t-174 43.5q-128 0 -209.5 -61t-81.5 -160z" />
    <glyph glyph-name="Scaron" unicode="&#x160;" horiz-adv-x="1079" 
d="M858 1589h-63l-195 236h74l157 -180l230 180h88zM774 1372q-158 0 -257 -79t-99 -206q0 -55 21 -100.5t56 -78t80.5 -61.5t96 -55t101 -53.5t96 -62t80.5 -75t56 -98.5t21 -128q0 -180 -128 -285.5t-345 -105.5q-188 0 -301.5 84t-126.5 233l76 27q8 -128 104.5 -200.5
t259.5 -72.5q174 0 277.5 84t103.5 226q0 61 -21 112t-56 87t-81 67.5t-96.5 58.5l-101 54t-96.5 59t-81 69.5t-56 90.5t-21 116q0 161 123 263t319 102q160 0 261.5 -75t115.5 -202l-76 -24q-12 109 -92.5 169t-212.5 60z" />
    <glyph glyph-name="scaron" unicode="&#x161;" horiz-adv-x="950" 
d="M721 1264h-64l-196 270h71l162 -217l246 217h88zM639 1038q-128 0 -209.5 -61t-81.5 -160q0 -58 30.5 -100.5t80 -68.5t109 -48t118.5 -47t108.5 -56t80 -83.5t30.5 -122.5q0 -98 -57.5 -170t-151 -106.5t-211.5 -34.5q-159 0 -262.5 64.5t-118.5 178.5l68 23
q10 -96 100 -149.5t224 -53.5q144 0 236.5 63.5t92.5 176.5q0 48 -19 86t-51 63.5t-73.5 46.5t-87.5 38.5t-92.5 35t-88 40.5t-73.5 51.5t-51 71t-19 95.5q0 130 101.5 209.5t267.5 79.5q137 0 226 -56.5t106 -152.5l-72 -25q-17 85 -86 128.5t-174 43.5z" />
    <glyph glyph-name="uni0162" unicode="&#x162;" horiz-adv-x="1073" 
d="M557 0h-8l-82 -133q68 -6 112 -55.5t44 -116.5q0 -83 -65 -139t-165 -56q-70 0 -119 28t-73 69l43 36q17 -33 54 -55t93 -22q74 0 121 40t47 99q0 57 -37 95t-100 38h-23l-8 18l98 154h-10l262 1352h-452l12 71h987l-12 -71h-457z" />
    <glyph glyph-name="uni0163" unicode="&#x163;" horiz-adv-x="702" 
d="M496 1010l-127 -652q-27 -138 29 -213t182 -75h108l-14 -70h-119q-33 0 -49 2l-70 -111q68 -6 112 -55.5t44 -116.5q0 -84 -64.5 -139t-165.5 -55q-70 0 -119 27.5t-73 68.5l43 37q46 -78 147 -78q74 0 121 39.5t47 97.5q0 59 -37 97.5t-100 38.5h-22l-9 18l91 143
q-99 29 -142 118t-18 220l129 658h-201l12 69h123q86 0 101 86l37 185h73l-55 -271h352l-12 -69h-354z" />
    <glyph glyph-name="Tcaron" unicode="&#x164;" horiz-adv-x="1073" 
d="M850 1585h-66l-194 236h74l159 -179l230 179h86zM1288 1423l-12 -71h-457l-262 -1352h-78l262 1352h-452l12 71h987z" />
    <glyph glyph-name="tcaron" unicode="&#x165;" horiz-adv-x="702" 
d="M766 1149l121 424h67l-129 -424h-59zM555 0q-152 0 -223.5 94.5t-40.5 257.5l129 658h-201l12 69h123q86 0 101 86l37 185h73l-55 -271h352l-12 -69h-354l-127 -652q-27 -138 29 -213t182 -75h108l-14 -70h-119z" />
    <glyph glyph-name="Tbar" unicode="&#x166;" horiz-adv-x="1093" 
d="M1286 1352h-457l-120 -623h241l-10 -61h-244l-129 -668h-78l129 668h-241l12 61h242l121 623h-455l14 71h987z" />
    <glyph glyph-name="tbar" unicode="&#x167;" horiz-adv-x="722" 
d="M864 1010h-352l-76 -394h291l-10 -63h-293l-39 -195q-28 -138 27.5 -213t181.5 -75h111l-15 -70h-119q-154 0 -225 94.5t-39 257.5l39 201h-184l10 63h186l76 394h-201l13 69h123q87 0 102 86l37 185h72l-54 -271h353z" />
    <glyph glyph-name="Utilde" unicode="&#x168;" horiz-adv-x="1368" 
d="M1118 1608q-35 0 -64.5 11.5t-50.5 27.5t-40.5 32t-44 27.5t-52.5 11.5q-84 0 -121 -108l-57 24q60 152 182 152q41 0 75.5 -17.5t56 -38t53 -38t65.5 -17.5q87 0 127 109l53 -25q-53 -151 -182 -151zM682 -20q-230 0 -342.5 153t-65.5 397l172 893h78l-172 -893
q-43 -218 51 -348.5t291 -130.5q186 0 312.5 115.5t167.5 322.5l180 934h78l-183 -934q-46 -246 -193 -377.5t-374 -131.5z" />
    <glyph glyph-name="utilde" unicode="&#x169;" horiz-adv-x="1236" 
d="M721 1421q-81 0 -121 -108l-57 24q60 152 182 152q41 0 75.5 -17.5t55 -38t52 -38t65.5 -17.5q85 0 125 109l55 -25q-57 -151 -182 -151q-35 0 -64.5 11.5t-50 27.5t-40 32t-44 27.5t-51.5 11.5zM1165 1079h78l-209 -1079h-76l43 223q-63 -109 -174.5 -176t-251.5 -67
q-190 0 -288 121.5t-56 332.5l125 645h78l-123 -637q-36 -187 45 -290t244 -103q159 0 283 106t155 265z" />
    <glyph glyph-name="Umacron" unicode="&#x16a;" horiz-adv-x="1368" 
d="M709 1671l10 68h530l-12 -68h-528zM682 -20q-230 0 -342.5 153t-65.5 397l172 893h78l-172 -893q-43 -218 51 -348.5t291 -130.5q186 0 312.5 115.5t167.5 322.5l180 934h78l-183 -934q-46 -246 -193 -377.5t-374 -131.5z" />
    <glyph glyph-name="umacron" unicode="&#x16b;" horiz-adv-x="1236" 
d="M1108 1432l-10 -66h-523l13 66h520zM1165 1079h78l-209 -1079h-76l43 223q-63 -109 -174.5 -176t-251.5 -67q-190 0 -288 121.5t-56 332.5l125 645h78l-123 -637q-36 -187 45 -290t244 -103q159 0 283 106t155 265z" />
    <glyph glyph-name="Uring" unicode="&#x16e;" horiz-adv-x="1368" 
d="M958 1505q-66 0 -106.5 43t-40.5 109q0 74 58 128t135 54q68 0 108.5 -41.5t40.5 -107.5q0 -76 -58 -130.5t-137 -54.5zM965 1559q52 0 91.5 37.5t39.5 91.5q0 42 -26 70t-71 28q-54 0 -92.5 -36.5t-38.5 -92.5q0 -41 26.5 -69.5t70.5 -28.5zM682 -20q-230 0 -342.5 153
t-65.5 397l172 893h78l-172 -893q-43 -218 51 -348.5t291 -130.5q186 0 312.5 115.5t167.5 322.5l180 934h78l-183 -934q-46 -246 -193 -377.5t-374 -131.5z" />
    <glyph glyph-name="uring" unicode="&#x16f;" horiz-adv-x="1236" 
d="M825 1208q-66 0 -106.5 43t-40.5 109q0 75 57.5 129.5t134.5 54.5q68 0 109 -42.5t41 -108.5q0 -76 -58 -130.5t-137 -54.5zM866 1489q-54 0 -92.5 -36.5t-38.5 -92.5q0 -41 26 -68.5t70 -27.5q53 0 92.5 36.5t39.5 90.5q0 42 -26 70t-71 28zM1165 1079h78l-209 -1079
h-76l43 223q-63 -109 -174.5 -176t-251.5 -67q-190 0 -288 121.5t-56 332.5l125 645h78l-123 -637q-36 -187 45 -290t244 -103q159 0 283 106t155 265z" />
    <glyph glyph-name="Uhungarumlaut" unicode="&#x170;" horiz-adv-x="1368" 
d="M762 1528l-47 37l268 323l51 -41zM1098 1528l-45 37l268 323l51 -41zM682 -20q-230 0 -342.5 153t-65.5 397l172 893h78l-172 -893q-43 -218 51 -348.5t291 -130.5q186 0 312.5 115.5t167.5 322.5l180 934h78l-183 -934q-46 -246 -193 -377.5t-374 -131.5z" />
    <glyph glyph-name="uhungarumlaut" unicode="&#x171;" horiz-adv-x="1236" 
d="M897 1538l-266 -283l-45 37l260 287zM1219 1538l-267 -283l-45 37l260 287zM1165 1079h78l-209 -1079h-76l43 223q-63 -109 -174.5 -176t-251.5 -67q-190 0 -288 121.5t-56 332.5l125 645h78l-123 -637q-36 -187 45 -290t244 -103q159 0 283 106t155 265z" />
    <glyph glyph-name="Uogonek" unicode="&#x172;" horiz-adv-x="1368" 
d="M1354 1423h78l-183 -934q-33 -180 -122.5 -300t-225.5 -173l-70 -59q-80 -67 -122.5 -123.5t-42.5 -116.5q0 -45 24.5 -68.5t69.5 -23.5q71 0 114 49l29 -39q-65 -65 -158 -65q-66 0 -105.5 37t-39.5 100q0 41 17 80.5t50.5 78t61 63.5t70.5 61q-62 -10 -117 -10
q-230 0 -342.5 153t-65.5 397l172 893h78l-172 -893q-43 -218 51 -348.5t291 -130.5q186 0 312.5 115.5t167.5 322.5z" />
    <glyph glyph-name="uogonek" unicode="&#x173;" horiz-adv-x="1236" 
d="M956 -68q-80 -69 -122.5 -124t-42.5 -115q0 -45 24.5 -68.5t69.5 -23.5q71 0 114 49l29 -39q-66 -66 -158 -66q-66 0 -105.5 37.5t-39.5 100.5q0 41 17 80.5t50.5 77.5t61.5 63.5t72 60.5l43 35h-11l43 223q-63 -109 -174.5 -176t-251.5 -67q-190 0 -288 121.5t-56 332.5
l125 645h78l-123 -637q-36 -187 45 -290t244 -103q159 0 283 106t155 265l127 659h78l-209 -1079z" />
    <glyph glyph-name="Wcircumflex" unicode="&#x174;" horiz-adv-x="1728" 
d="M1184 1763l-232 -178h-86l289 236h64l196 -236h-74zM1825 1423h80l-617 -1423h-80l-114 1305l-627 -1305h-78l-65 1423h75l54 -1302l620 1302h82l111 -1306z" />
    <glyph glyph-name="wcircumflex" unicode="&#x175;" horiz-adv-x="1533" 
d="M1024 1477l-244 -213h-86l303 270h64l199 -270h-70zM1573 1079h84l-506 -1079h-90l-129 983l-508 -983h-90l-88 1079h78l71 -989l508 989h90l123 -989z" />
    <glyph glyph-name="Ycircumflex" unicode="&#x176;" horiz-adv-x="1202" 
d="M918 1765l-232 -180h-86l289 236h63l197 -236h-74zM1417 1423l-684 -833l-115 -590h-77l116 596l-358 827h82l324 -761l616 761h96z" />
    <glyph glyph-name="ycircumflex" unicode="&#x177;" horiz-adv-x="1079" 
d="M795 1477l-244 -213h-86l305 270h64l198 -270h-71zM1139 1079h90l-895 -1446h-82l231 367h-2l-250 1079h80l224 -997z" />
    <glyph glyph-name="Ydieresis" unicode="&#x178;" horiz-adv-x="1202" 
d="M713 1616q-34 0 -55 21t-21 57q0 38 29 66t69 28q34 0 54 -21t20 -57q0 -37 -29 -65.5t-67 -28.5zM1059 1616q-34 0 -55 21t-21 57q0 38 29 66t69 28q34 0 54 -21t20 -57q0 -37 -29 -65.5t-67 -28.5zM1417 1423l-684 -833l-115 -590h-77l116 596l-358 827h82l324 -761
l616 761h96z" />
    <glyph glyph-name="Zacute" unicode="&#x179;" horiz-adv-x="1075" 
d="M1100 1763l-471 -178l-21 55l471 185zM1257 1423l-10 -57l-1079 -1294h842l-13 -72h-952l10 55l1084 1299h-807l12 69h913z" />
    <glyph glyph-name="zacute" unicode="&#x17a;" horiz-adv-x="915" 
d="M938 1483l-420 -228l-29 52l418 233zM1028 1079l-12 -63l-856 -948h698l-12 -68h-801l10 61l858 951h-641l13 67h743z" />
    <glyph glyph-name="Zdotaccent" unicode="&#x17b;" horiz-adv-x="1075" 
d="M831 1616q-34 0 -55.5 22t-21.5 56q0 38 27 65t67 27q34 0 56 -22t22 -56q0 -37 -28.5 -64.5t-66.5 -27.5zM1257 1423l-10 -57l-1079 -1294h842l-13 -72h-952l10 55l1084 1299h-807l12 69h913z" />
    <glyph glyph-name="zdotaccent" unicode="&#x17c;" horiz-adv-x="915" 
d="M674 1307q-38 0 -60 22.5t-22 56.5q0 42 31 73.5t73 31.5q37 0 59.5 -22.5t22.5 -57.5q0 -42 -31 -73t-73 -31zM1028 1079l-12 -63l-856 -948h698l-12 -68h-801l10 61l858 951h-641l13 67h743z" />
    <glyph glyph-name="Zcaron" unicode="&#x17d;" horiz-adv-x="1075" 
d="M844 1585h-66l-194 236h73l160 -179l230 179h86zM1257 1423l-10 -57l-1079 -1294h842l-13 -72h-952l10 55l1084 1299h-807l12 69h913z" />
    <glyph glyph-name="zcaron" unicode="&#x17e;" horiz-adv-x="915" 
d="M702 1262h-63l-197 270h72l162 -217l246 217h88zM1028 1079l-12 -63l-856 -948h698l-12 -68h-801l10 61l858 951h-641l13 67h743z" />
    <glyph glyph-name="uni01EA" unicode="&#x1ea;" horiz-adv-x="1607" 
d="M942 -55q-82 -71 -124 -126t-42 -116q0 -44 24.5 -67t69.5 -23q71 0 115 47l29 -39q-65 -65 -158 -65q-66 0 -105.5 37t-39.5 100q0 41 16.5 80.5t50 77.5t61 63t70.5 61l15 13q-47 -8 -111 -8q-267 0 -431.5 171.5t-164.5 452.5q0 169 64 324.5t171 268.5t255 180
t309 67q267 0 431.5 -171t164.5 -450q0 -290 -169.5 -518t-428.5 -299zM299 608q0 -249 142.5 -402t375.5 -153q191 0 355.5 103.5t261 280t96.5 380.5q0 248 -142.5 400.5t-375.5 152.5q-192 0 -356.5 -103.5t-260.5 -279t-96 -379.5z" />
    <glyph glyph-name="uni01EB" unicode="&#x1eb;" horiz-adv-x="1277" 
d="M719 -66q-41 -36 -64.5 -59t-50 -55t-39 -62.5t-12.5 -62.5q0 -45 24.5 -68.5t69.5 -23.5q72 0 115 49l29 -39q-68 -68 -156 -68q-68 0 -108 38t-40 102q0 41 17 80.5t50.5 77.5t61.5 63.5t72 60.5l21 17q-46 -4 -68 -4q-210 0 -335.5 125.5t-125.5 338.5
q0 129 47.5 248.5t129.5 209.5t199 144t249 54q207 0 332 -126.5t125 -340.5q0 -222 -130 -401t-339 -234zM258 455q0 -183 107 -294.5t284 -111.5q113 0 213.5 49.5t170.5 130t110.5 185.5t40.5 215q0 182 -105 291.5t-280 109.5q-151 0 -277 -83t-195 -214.5t-69 -277.5z
" />
    <glyph glyph-name="AEacute" unicode="&#x1fc;" horiz-adv-x="1857" 
d="M1815 1763l-474 -178l-18 55l469 185zM1972 1354h-735l-111 -574h674l-14 -69h-674l-125 -641h750l-13 -70h-827l94 481h-553l-375 -481h-86l1102 1423h908zM494 551h510l155 803h-41z" />
    <glyph glyph-name="aeacute" unicode="&#x1fd;" horiz-adv-x="2203" 
d="M1610 1485l-420 -228l-29 52l418 233zM1769 1100q182 0 295 -115t113 -297q0 -31 -8 -86t-15 -82h-927q-4 -50 -4 -76q0 -174 108.5 -286.5t274.5 -112.5q141 0 250 70t178 204l59 -32q-85 -156 -206.5 -231.5t-293.5 -75.5q-166 0 -274.5 96t-136.5 256l-64 -332h-74
l50 258q-81 -127 -207 -202.5t-277 -75.5q-197 0 -313.5 127t-116.5 337q0 130 48 250t129.5 209.5t196.5 143t243 53.5q161 0 264.5 -83t136.5 -233l55 295h74l-51 -266q80 132 209 209.5t284 77.5zM1237 578h858q10 62 10 106q0 162 -93.5 257t-252.5 95
q-189 0 -334.5 -130t-187.5 -328zM629 49q146 0 268.5 82.5t192 218.5t69.5 291q0 180 -97 284.5t-265 104.5q-147 0 -272 -80.5t-196 -213t-71 -283.5q0 -181 100.5 -292.5t270.5 -111.5z" />
    <glyph glyph-name="Oslashacute" unicode="&#x1fe;" horiz-adv-x="1613" 
d="M1382 1763l-471 -178l-20 55l471 185zM1686 1389l-187 -175q115 -159 115 -391q0 -171 -63.5 -327.5t-170.5 -269t-254.5 -179.5t-308.5 -67q-280 0 -442 182l-187 -176l-38 49l186 174q-115 162 -115 395q0 169 64 324.5t171 268.5t255 180t309 67q277 0 440 -180
l185 172zM301 608q0 -199 94 -342l1006 940q-145 164 -387 164q-191 0 -355.5 -103.5t-261 -279t-96.5 -379.5zM1534 817q0 197 -94 340l-1006 -940q145 -164 387 -164q191 0 355.5 103.5t261 280t96.5 380.5z" />
    <glyph glyph-name="oslashacute" unicode="&#x1ff;" horiz-adv-x="1308" 
d="M1108 1483l-420 -228l-26 52l415 233zM1380 1006l-172 -134q54 -105 54 -239q0 -127 -46.5 -246t-127.5 -209t-198 -144t-249 -54q-246 0 -371 165l-153 -118l-33 47l156 121q-60 108 -60 249q0 128 48 248t130 210t199 144t248 54q124 0 220 -46.5t155 -133.5l170 131z
M260 455q0 -120 47 -209l811 624q-109 160 -319 160q-113 0 -214.5 -49t-172 -129t-111.5 -184.5t-41 -212.5zM1184 629q0 105 -39 194l-809 -626q52 -70 132 -109t181 -39q113 0 213.5 49.5t170.5 130t110.5 185.5t40.5 215z" />
    <glyph glyph-name="uni0218" unicode="&#x218;" horiz-adv-x="1079" 
d="M774 1372q-158 0 -257 -79t-99 -206q0 -55 21 -100.5t56 -78t80.5 -61.5t96 -55t101 -53.5t96 -62t80.5 -75t56 -98.5t21 -128q0 -180 -128 -285.5t-345 -105.5q-188 0 -301.5 84t-126.5 233l76 27q8 -128 104.5 -200.5t259.5 -72.5q174 0 277.5 84t103.5 226
q0 61 -21 112t-56 87t-81 67.5t-96.5 58.5l-101 54t-96.5 59t-81 69.5t-56 90.5t-21 116q0 161 123 263t319 102q160 0 261.5 -75t115.5 -202l-76 -24q-12 109 -92.5 169t-212.5 60zM555 -102q32 0 51 -18.5t19 -49.5q0 -26 -14 -54t-46 -73l-108 -143l-39 22l102 146
q6 6 10 14q-28 2 -45.5 21t-17.5 49q0 34 26.5 60t61.5 26z" />
    <glyph glyph-name="uni0219" unicode="&#x219;" horiz-adv-x="950" 
d="M348 817q0 -58 30.5 -100.5t80 -68.5t109 -48t118.5 -47t108.5 -56t80 -83.5t30.5 -122.5q0 -98 -57.5 -170t-151 -106.5t-211.5 -34.5q-159 0 -262.5 64.5t-118.5 178.5l68 23q10 -96 100 -149.5t224 -53.5q144 0 236.5 63.5t92.5 176.5q0 48 -19 86t-51 63.5
t-73.5 46.5t-87.5 38.5t-92.5 35t-88 40.5t-73.5 51.5t-51 71t-19 95.5q0 130 101.5 209.5t267.5 79.5q137 0 226 -56.5t106 -152.5l-72 -25q-17 85 -86 128.5t-174 43.5q-128 0 -209.5 -61t-81.5 -160zM471 -102q32 0 51 -18.5t19 -49.5q0 -44 -62 -127l-106 -143l-41 22
l104 146q2 2 5 7t5 7q-28 2 -45.5 21t-17.5 49q0 34 26 60t62 26z" />
    <glyph glyph-name="uni021A" unicode="&#x21a;" horiz-adv-x="1073" 
d="M1288 1423l-12 -71h-457l-262 -1352h-78l262 1352h-452l12 71h987zM506 -102q32 0 50.5 -18.5t18.5 -49.5q0 -44 -59 -127l-108 -143l-39 22l102 146q6 6 10 14q-28 2 -45.5 21t-17.5 49q0 34 26.5 60t61.5 26z" />
    <glyph glyph-name="uni021B" unicode="&#x21b;" horiz-adv-x="702" 
d="M496 1010l-127 -652q-27 -138 29 -213t182 -75h108l-14 -70h-119q-152 0 -223.5 94.5t-40.5 257.5l129 658h-201l12 69h123q86 0 101 86l37 185h73l-55 -271h352l-12 -69h-354zM455 -86q32 0 50.5 -19t18.5 -49q0 -44 -59 -127l-109 -145l-39 23l103 145q8 12 10 14
q-28 2 -45.5 21t-17.5 49q0 34 26.5 61t61.5 27z" />
    <glyph glyph-name="uni0237" unicode="&#x237;" horiz-adv-x="409" 
d="M-182 -369l14 72h29q110 0 192 74.5t107 199.5l213 1102h76l-213 -1099q-32 -165 -136.5 -257t-249.5 -92h-32z" />
    <glyph glyph-name="circumflex" unicode="&#x2c6;" horiz-adv-x="624" 
d="M870 1264h-69l-166 215l-244 -215h-88l305 270h64z" />
    <glyph glyph-name="caron" unicode="&#x2c7;" horiz-adv-x="645" 
d="M836 1534h86l-306 -270h-63l-197 270h72l160 -217z" />
    <glyph glyph-name="breve" unicode="&#x2d8;" horiz-adv-x="581" 
d="M571 1264q-81 0 -136 43t-73.5 103.5t-5.5 123.5h64q-9 -48 2.5 -93.5t52 -79.5t103.5 -34q50 0 91.5 19.5t68 51.5t43 66.5t22.5 69.5h65q-10 -51 -32 -97t-57 -86t-89 -63.5t-119 -23.5z" />
    <glyph glyph-name="dotaccent" unicode="&#x2d9;" horiz-adv-x="221" 
d="M408 1309q-36 0 -59 23t-23 57q0 43 31.5 73.5t74.5 30.5q36 0 59 -23t23 -57q0 -43 -31.5 -73.5t-74.5 -30.5z" />
    <glyph glyph-name="ring" unicode="&#x2da;" horiz-adv-x="372" 
d="M471 1208q-66 0 -106.5 43t-40.5 109q0 75 57.5 129.5t134.5 54.5q68 0 109 -42.5t41 -108.5q0 -76 -58 -130.5t-137 -54.5zM477 1264q52 0 91.5 36.5t39.5 90.5q0 43 -25.5 70.5t-70.5 27.5q-54 0 -92.5 -36.5t-38.5 -92.5q0 -41 26 -68.5t70 -27.5z" />
    <glyph glyph-name="ogonek" unicode="&#x2db;" horiz-adv-x="450" 
d="M143 -453q-66 0 -105.5 37.5t-39.5 100.5q0 33 13 67t30.5 60t47.5 57.5t51.5 50.5t56.5 47l79 64l31 -29l-78 -68q-81 -70 -123.5 -124.5t-42.5 -114.5q0 -45 25 -68.5t70 -23.5q71 0 114 49l29 -39q-66 -66 -158 -66z" />
    <glyph glyph-name="tilde" unicode="&#x2dc;" horiz-adv-x="747" 
d="M745 1311q-35 0 -64.5 11.5t-50 27.5t-39.5 32t-43.5 27.5t-51.5 11.5q-81 0 -121 -108l-58 24q60 152 183 152q41 0 75.5 -17.5t55 -38t52 -38t65.5 -17.5q84 0 124 109l54 -25q-53 -151 -181 -151z" />
    <glyph glyph-name="hungarumlaut" unicode="&#x2dd;" horiz-adv-x="565" 
d="M328 1255l-43 37l260 287l51 -41zM649 1255l-43 37l260 287l52 -41z" />
    <glyph glyph-name="gravecomb" unicode="&#x300;" 
d="M168 1255l-373 230l35 55l371 -235z" />
    <glyph glyph-name="acutecomb" unicode="&#x301;" 
d="M-190 1257l-29 52l416 233l30 -57z" />
    <glyph glyph-name="uni0302" unicode="&#x302;" 
d="M182 1264h-69l-166 215l-244 -215h-88l305 270h64z" />
    <glyph glyph-name="tildecomb" unicode="&#x303;" 
d="M39 1311q-35 0 -64.5 11.5t-50 27.5t-40 32t-44 27.5t-51.5 11.5q-81 0 -121 -108l-57 24q60 152 182 152q41 0 75.5 -17.5t55 -38t52 -38t65.5 -17.5q85 0 125 109l53 -25q-53 -151 -180 -151z" />
    <glyph glyph-name="uni0304" unicode="&#x304;" 
d="M-317 1366l12 66h520l-10 -66h-522z" />
    <glyph glyph-name="uni0306" unicode="&#x306;" 
d="M-57 1264q-81 0 -136 43t-73.5 103.5t-5.5 123.5h63q-9 -48 2.5 -93.5t52 -79.5t103.5 -34q50 0 91.5 19.5t68 51.5t43 66.5t22.5 69.5h66q-10 -51 -32 -97t-57 -86t-89 -63.5t-119 -23.5z" />
    <glyph glyph-name="uni0307" unicode="&#x307;" 
d="M104 1309q-36 0 -58.5 23t-22.5 57q0 43 31.5 73.5t74.5 30.5q36 0 59 -23t23 -57q0 -42 -32 -73t-75 -31z" />
    <glyph glyph-name="uni0308" unicode="&#x308;" 
d="M-229 1311q-36 0 -57 22t-21 60q0 37 30.5 66.5t69.5 29.5q34 0 56 -22t22 -60q0 -37 -30.5 -66.5t-69.5 -29.5zM109 1311q-34 0 -56 22t-22 60q0 37 30.5 66.5t69.5 29.5q36 0 58 -22t22 -60q0 -37 -31 -66.5t-71 -29.5z" />
    <glyph glyph-name="uni030A" unicode="&#x30a;" 
d="M12 1208q-66 0 -106.5 43t-40.5 109q0 75 57.5 129.5t134.5 54.5q68 0 109 -42.5t41 -108.5q0 -76 -58 -130.5t-137 -54.5zM18 1264q53 0 92.5 36.5t39.5 90.5q0 42 -26 70t-71 28q-54 0 -92.5 -36.5t-38.5 -92.5q0 -41 26 -68.5t70 -27.5z" />
    <glyph glyph-name="uni030B" unicode="&#x30b;" 
d="M-352 1255l-45 37l260 287l51 -41zM-31 1255l-45 37l260 287l52 -41z" />
    <glyph glyph-name="uni030C" unicode="&#x30c;" 
d="M147 1534h86l-305 -270h-63l-197 270h72l160 -217z" />
    <glyph glyph-name="uni0326" unicode="&#x326;" 
d="M-164 -102q31 0 49.5 -18.5t18.5 -49.5q0 -47 -60 -127l-106 -143l-41 22l102 146q8 8 11 14q-27 2 -44.5 21t-17.5 49q0 34 26 60t62 26z" />
    <glyph glyph-name="uni0327" unicode="&#x327;" 
d="M-274 -123q68 -6 111.5 -55.5t43.5 -116.5q0 -84 -65 -139t-164 -55q-70 0 -120.5 27t-74.5 67l45 39q17 -34 54.5 -57t93.5 -23q73 0 119.5 40t46.5 99t-36 96t-99 37h-25l-8 19l102 159h60z" />
    <glyph glyph-name="uni0328" unicode="&#x328;" 
d="M-295 -453q-66 0 -105.5 37.5t-39.5 100.5q0 41 16.5 80.5t50 77.5t61 63t70.5 61l80 64l31 -29l-78 -68q-81 -70 -123.5 -124.5t-42.5 -114.5q0 -45 24.5 -68.5t69.5 -23.5q72 0 115 49l29 -39q-66 -66 -158 -66z" />
    <glyph glyph-name="uni0335" unicode="&#x335;" 
d="M-526 512l12 63h561l-10 -63h-563z" />
    <glyph glyph-name="uni0336" unicode="&#x336;" 
d="M-1198 586l12 65h1247l-12 -65h-1247z" />
    <glyph glyph-name="uni0337" unicode="&#x337;" 
d="M-483 362l-25 52l524 280l29 -51z" />
    <glyph glyph-name="uni0338" unicode="&#x338;" 
d="M-1139 -2l-30 47l1265 979l31 -47z" />
    <glyph glyph-name="Wgrave" unicode="&#x1e80;" horiz-adv-x="1728" 
d="M1397 1638l-21 -53l-467 178l23 62zM1825 1423h80l-617 -1423h-80l-114 1305l-627 -1305h-78l-65 1423h75l54 -1302l620 1302h82l111 -1306z" />
    <glyph glyph-name="wgrave" unicode="&#x1e81;" horiz-adv-x="1533" 
d="M1200 1305l-33 -50l-374 230l36 55zM1573 1079h84l-506 -1079h-90l-129 983l-508 -983h-90l-88 1079h78l71 -989l508 989h90l123 -989z" />
    <glyph glyph-name="Wacute" unicode="&#x1e82;" horiz-adv-x="1728" 
d="M1407 1763l-471 -178l-21 55l471 185zM1825 1423h80l-617 -1423h-80l-114 1305l-627 -1305h-78l-65 1423h75l54 -1302l620 1302h82l111 -1306z" />
    <glyph glyph-name="wacute" unicode="&#x1e83;" horiz-adv-x="1533" 
d="M1255 1485l-419 -228l-27 52l416 233zM1573 1079h84l-506 -1079h-90l-129 983l-508 -983h-90l-88 1079h78l71 -989l508 989h90l123 -989z" />
    <glyph glyph-name="Wdieresis" unicode="&#x1e84;" horiz-adv-x="1728" 
d="M979 1616q-33 0 -53.5 21t-20.5 57q0 38 29 66t67 28q34 0 54 -21t20 -57q0 -37 -28.5 -65.5t-67.5 -28.5zM1325 1616q-33 0 -53.5 21t-20.5 57q0 38 29 66t68 28q35 0 55 -20.5t20 -57.5t-29.5 -65.5t-68.5 -28.5zM1825 1423h80l-617 -1423h-80l-114 1305l-627 -1305
h-78l-65 1423h75l54 -1302l620 1302h82l111 -1306z" />
    <glyph glyph-name="wdieresis" unicode="&#x1e85;" horiz-adv-x="1533" 
d="M823 1311q-34 0 -56 22t-22 60q0 37 30.5 66.5t70.5 29.5q36 0 58 -22t22 -60q0 -37 -31.5 -66.5t-71.5 -29.5zM1163 1311q-36 0 -58 22t-22 60q0 37 31.5 66.5t71.5 29.5q34 0 56 -22t22 -60q0 -37 -30.5 -66.5t-70.5 -29.5zM1573 1079h84l-506 -1079h-90l-129 983
l-508 -983h-90l-88 1079h78l71 -989l508 989h90l123 -989z" />
    <glyph glyph-name="uni1E9E" unicode="&#x1e9e;" horiz-adv-x="1253" 
d="M915 770q143 -11 233 -111t87 -247q-3 -120 -65 -218.5t-167.5 -154t-232.5 -55.5q-146 0 -233.5 75t-98.5 207l51 43q9 -123 83.5 -190.5t197.5 -67.5q162 0 273.5 105t113.5 258q1 131 -83.5 215t-215.5 84h-55l10 45l430 399q-63 215 -332 215q-189 0 -314 -106.5
t-163 -298.5l-186 -967h-78l190 973q43 224 188.5 347.5t366.5 123.5q169 0 275 -76.5t137 -218.5z" />
    <glyph glyph-name="Ygrave" unicode="&#x1ef2;" horiz-adv-x="1202" 
d="M1133 1638l-23 -53l-467 178l25 62zM1417 1423l-684 -833l-115 -590h-77l116 596l-358 827h82l324 -761l616 761h96z" />
    <glyph glyph-name="ygrave" unicode="&#x1ef3;" horiz-adv-x="1079" 
d="M973 1305l-33 -50l-373 230l35 55zM1139 1079h90l-895 -1446h-82l231 367h-2l-250 1079h80l224 -997z" />
    <glyph glyph-name="uni1EF8" unicode="&#x1ef8;" horiz-adv-x="1202" 
d="M764 1718q-84 0 -121 -108l-57 24q60 152 182 152q41 0 75.5 -17.5t56 -38t53 -38t65.5 -17.5q87 0 127 109l53 -25q-53 -151 -182 -151q-35 0 -64.5 11.5t-50.5 27.5t-40.5 32t-44 27.5t-52.5 11.5zM1417 1423l-684 -833l-115 -590h-77l116 596l-358 827h82l324 -761
l616 761h96z" />
    <glyph glyph-name="uni1EF9" unicode="&#x1ef9;" horiz-adv-x="1079" 
d="M645 1421q-81 0 -121 -108l-57 24q60 152 182 152q41 0 75.5 -17.5t55 -38t52 -38t65.5 -17.5q85 0 125 109l53 -25q-53 -151 -182 -151q-34 0 -63.5 11.5t-50 27.5t-39.5 32t-43.5 27.5t-51.5 11.5zM1139 1079h90l-895 -1446h-82l231 367h-2l-250 1079h80l224 -997z" />
    <glyph glyph-name="endash" unicode="&#x2013;" horiz-adv-x="1044" 
d="M225 489l13 68h778l-12 -68h-779z" />
    <glyph glyph-name="emdash" unicode="&#x2014;" horiz-adv-x="1595" 
d="M225 485l13 68h1329l-13 -68h-1329z" />
    <glyph glyph-name="quoteleft" unicode="&#x2018;" horiz-adv-x="356" 
d="M422 1284q28 0 45.5 -18.5t17.5 -48.5q0 -38 -25 -63.5t-61 -25.5q-33 0 -53 20.5t-20 51.5q0 26 9.5 48.5t37.5 62.5l106 153h62z" />
    <glyph glyph-name="quoteright" unicode="&#x2019;" horiz-adv-x="348" 
d="M461 1466q33 0 53.5 -19.5t20.5 -49.5q0 -26 -10 -49.5t-38 -61.5l-104 -153h-61l116 178q-28 2 -45.5 21t-17.5 48q0 36 26 61t60 25z" />
    <glyph glyph-name="quotesinglbase" unicode="&#x201a;" horiz-adv-x="354" 
d="M193 137q33 0 53 -19.5t20 -49.5q0 -27 -10 -50t-37 -61l-104 -154h-62l119 179q-29 2 -47.5 20.5t-18.5 48.5q0 37 26 61.5t61 24.5z" />
    <glyph glyph-name="quotedblleft" unicode="&#x201c;" horiz-adv-x="585" 
d="M479 1464h62l-119 -180q28 0 45.5 -18.5t17.5 -48.5q0 -38 -25 -63.5t-61 -25.5q-33 0 -53 20.5t-20 51.5q0 26 9.5 48.5t37.5 62.5zM653 1284q28 0 46 -18.5t18 -48.5q0 -38 -25 -63.5t-61 -25.5q-33 0 -53.5 20.5t-20.5 51.5q0 26 9.5 48.5t37.5 62.5l107 153h61z" />
    <glyph glyph-name="quotedblright" unicode="&#x201d;" horiz-adv-x="579" 
d="M461 1466q33 0 53.5 -19.5t20.5 -49.5q0 -26 -10 -49.5t-38 -61.5l-104 -153h-61l116 178q-28 2 -45.5 21t-17.5 48q0 36 26 61t60 25zM692 1466q33 0 53.5 -19.5t20.5 -49.5q0 -27 -10 -50t-37 -61l-107 -153h-59l117 178q-28 2 -46 21t-18 48q0 36 26 61t60 25z" />
    <glyph glyph-name="quotedblbase" unicode="&#x201e;" horiz-adv-x="585" 
d="M193 137q33 0 53 -19.5t20 -49.5q0 -27 -10 -50t-37 -61l-104 -154h-62l119 179q-29 2 -47.5 20.5t-18.5 48.5q0 37 26 61.5t61 24.5zM424 137q33 0 53.5 -19.5t20.5 -49.5q0 -27 -10 -50t-37 -61l-107 -154h-59l116 179q-28 2 -45.5 21t-17.5 48q0 37 25.5 61.5
t60.5 24.5z" />
    <glyph glyph-name="dagger" unicode="&#x2020;" horiz-adv-x="624" 
d="M776 1294l-12 -63h-182l-111 -572h-70l111 572h-180l12 63h180l39 203h70l-39 -203h182z" />
    <glyph glyph-name="daggerdbl" unicode="&#x2021;" horiz-adv-x="659" 
d="M782 1241h-180l-65 -326h184l-14 -61h-181l-39 -195h-69l39 195h-181l11 61h180l65 326h-180l10 64h183l37 192h69l-37 -192h183z" />
    <glyph glyph-name="bullet" unicode="&#x2022;" horiz-adv-x="657" 
d="M442 541q-60 0 -99.5 40.5t-39.5 104.5q0 70 50.5 120t121.5 50q63 0 103 -39t40 -102q0 -71 -50.5 -122.5t-125.5 -51.5z" />
    <glyph glyph-name="ellipsis" unicode="&#x2026;" horiz-adv-x="1034" 
d="M186 -18q-31 0 -50 19t-19 50q0 38 24.5 63t61.5 25q32 0 51.5 -19t19.5 -50q0 -38 -25.5 -63t-62.5 -25zM516 -18q-31 0 -50.5 19t-19.5 50q0 38 24.5 63t61.5 25q32 0 52 -19t20 -50q0 -38 -25.5 -63t-62.5 -25zM846 -18q-31 0 -51.5 19.5t-20.5 49.5q0 38 25.5 63
t62.5 25q31 0 50.5 -19t19.5 -50q0 -38 -24.5 -63t-61.5 -25z" />
    <glyph glyph-name="perthousand" unicode="&#x2030;" horiz-adv-x="2099" 
d="M530 793q-118 0 -189 75.5t-71 192.5q0 93 45.5 179t129 141t182.5 55q118 0 189 -76.5t71 -192.5q0 -93 -45.5 -178.5t-129 -140.5t-182.5 -55zM272 0l1092 1423h68l-1090 -1423h-70zM539 850q119 0 202.5 96t83.5 215q0 96 -58 156.5t-149 60.5q-120 0 -204 -97
t-84 -216q0 -95 59 -155t150 -60zM1083 -12q-118 0 -189 76t-71 192q0 146 104 260.5t253 114.5q118 0 189 -75t71 -191q0 -93 -45.5 -179.5t-129 -142t-182.5 -55.5zM1745 -12q-118 0 -189 76t-71 192q0 146 103.5 260.5t252.5 114.5q118 0 189 -75t71 -191
q0 -93 -45 -179.5t-128 -142t-183 -55.5zM1092 45q119 0 202.5 97t83.5 216q0 95 -58 155t-149 60q-119 0 -202.5 -96t-83.5 -215q0 -96 58 -156.5t149 -60.5zM1753 45q120 0 203.5 97t83.5 216q0 95 -58 155t-149 60q-119 0 -203 -96.5t-84 -214.5q0 -96 58 -156.5
t149 -60.5z" />
    <glyph glyph-name="guilsinglleft" unicode="&#x2039;" horiz-adv-x="507" 
d="M551 856l-285 -342l146 -330h-78l-148 336l279 336h86z" />
    <glyph glyph-name="guilsinglright" unicode="&#x203a;" horiz-adv-x="507" 
d="M373 856l145 -336l-278 -336h-86l286 344l-145 328h78z" />
    <glyph glyph-name="fraction" unicode="&#x2044;" horiz-adv-x="827" 
d="M-16 0l1071 1423h69l-1073 -1423h-67z" />
    <glyph glyph-name="uni2074" unicode="&#x2074;" horiz-adv-x="645" 
d="M741 1423l-94 -483h90l-8 -51h-92l-35 -178h-59l37 178h-353l9 43l446 491h59zM590 940l76 395l-359 -395h283z" />
    <glyph glyph-name="Euro" unicode="&#x20ac;" horiz-adv-x="1476" 
d="M1085 1298q-203 0 -366 -122.5t-238 -321.5h613l-21 -59h-612q-33 -119 -33 -232v-6h565l-20 -59h-543q19 -209 148.5 -327t341.5 -118q283 0 452 230l58 -39q-88 -129 -219.5 -196.5t-297.5 -67.5q-244 0 -395 139.5t-168 378.5h-203l19 59h182q0 113 33 238h-135l20 59
h133q83 230 273 375t422 145q159 0 283.5 -71t187.5 -197l-72 -37q-57 111 -162 170t-246 59z" />
    <glyph glyph-name="trademark" unicode="&#x2122;" horiz-adv-x="1236" 
d="M727 1356h-178l-100 -520h-54l101 520h-177l11 49h407zM1274 1405h53l-74 -569h-53l60 462l-254 -438h-52l-82 447l-120 -471h-54l146 569h59l90 -475l277 475l4 -2v2z" />
    <glyph glyph-name="minus" unicode="&#x2212;" horiz-adv-x="950" 
d="M174 582l14 67h824l-15 -67h-823z" />
    <glyph glyph-name="approxequal" unicode="&#x2248;" horiz-adv-x="1050" 
d="M864 700q-60 0 -112.5 18.5t-85 40t-80.5 40t-99 18.5q-44 0 -87 -23.5t-72 -60.5l-39 47q35 46 87 75.5t113 29.5q60 0 113 -18t85.5 -39.5t80.5 -39.5t100 -18q43 0 87.5 23t72.5 59l41 -45q-36 -47 -90 -77t-115 -30zM780 272q-60 0 -113 18t-85.5 39.5t-80.5 39.5
t-100 18q-44 0 -87 -23t-70 -59l-41 47q35 46 87.5 75.5t112.5 29.5t113.5 -18t86 -39.5t80.5 -39.5t99 -18q45 0 89.5 23t72.5 59l39 -45q-34 -47 -87.5 -77t-115.5 -30z" />
    <glyph glyph-name="notequal" unicode="&#x2260;" horiz-adv-x="950" 
d="M1038 791h-319l-207 -416h446l-14 -68h-467l-145 -293h-78l145 293h-278l14 68h299l207 416h-426l14 69h447l145 291h78l-145 -291h297z" />
    <glyph glyph-name="uniF8FF" unicode="&#xf8ff;" horiz-adv-x="4724" 
d="M1149 408q-95 0 -136.5 40t-41.5 130v466h203q0 -62 -40 -122t-98 -86l2 -9q58 35 119 35h105v-162h-86v-98q0 -35 36 -35q28 0 50 15v-154q-36 -20 -113 -20zM1303 418v626h200q0 -67 -47 -122t-115 -70l5 -6q84 16 143 16h16v-444h-202zM2808 408q-95 0 -137.5 40.5
t-42.5 129.5v466h202q0 -62 -39 -122t-98 -86l4 -9q58 35 119 35h102v-162h-86v-98q0 -35 37 -35q27 0 49 15v-154q-36 -20 -110 -20zM205 418v624h203v-624h-203zM584 408q-66 0 -105 34t-39 90q0 60 41 98t111 38q92 0 135 -43h4v71q0 24 -12 38t-35 14q-47 0 -47 -60
l-184 29q37 160 249 160q110 0 172 -50t62 -135v-274h-201v45h-6q-14 -20 -51.5 -37.5t-93.5 -17.5zM1548 418v444h199v-133h6q17 143 145 143q70 0 110 -46t40 -134v-274h-205v264q0 55 -39 55q-22 0 -32 -13t-21 -52v-254h-203zM2337 408q-123 0 -190.5 63.5t-67.5 167.5
t69 168.5t189 64.5q122 0 190 -64.5t68 -168.5q0 -103 -67.5 -167t-190.5 -64zM3463 270v592h203v-133h6q21 143 150 143q170 0 170 -233q0 -115 -51.5 -173t-125.5 -58q-105 0 -141 88h-6v-226h-205zM4274 408q-120 0 -187 63.5t-67 167.5q0 103 70 168t190 65
q107 0 173.5 -64.5t66.5 -158.5v-18h-307q0 -39 18.5 -66.5t50.5 -27.5q55 0 62 69l168 -16q-18 -95 -83 -138.5t-155 -43.5zM3015 262v135h133q115 0 137 25l-2 6h-139q-83 0 -107 80l-110 354h204q6 -37 20 -110t24 -134t14 -110h4q13 125 61 354h203l-145 -424
q-63 -176 -217 -176h-80zM4213 655h12q62 0 87.5 12t25.5 38q0 45 -49 45q-34 0 -55 -26t-21 -69zM3738 506q31 0 46 27.5t15 89.5q0 66 -12 95.5t-43 29.5q-46 0 -62 -68v-148q21 -26 56 -26zM2337 535q59 0 59 104q0 106 -59 106q-58 0 -58 -106q0 -104 58 -104zM686 469
q30 0 45 23v104q-10 16 -39 16q-25 0 -40 -19t-15 -52q0 -72 49 -72z" />
    <glyph glyph-name="uni00A40301" horiz-adv-x="651" 
d="M551 1585l-21 55l469 185l23 -62zM25 0l14 70h96q118 0 200 73t107 199l211 1081h76l-211 -1087q-31 -159 -133 -247.5t-254 -88.5h-106z" />
    <glyph glyph-name="Q.ss01" horiz-adv-x="1562" 
d="M1612 831q0 -254 -140.5 -461.5t-365.5 -297.5h395l-14 -72h-672q-268 0 -433 169t-165 443q0 166 64 319.5t171 266t255 179.5t309 67q267 0 431.5 -169.5t164.5 -443.5zM299 616q0 -242 143 -393t375 -151q191 0 355.5 103t261 276.5t96.5 373.5q0 242 -143 393.5
t-375 151.5q-144 0 -276 -61t-227.5 -163t-152.5 -241t-57 -289z" />
    <glyph glyph-name="i.loclTRK" horiz-adv-x="421" 
d="M463 1309q-37 0 -59.5 22.5t-22.5 57.5q0 42 31 73t73 31q38 0 60 -23t22 -59q0 -41 -31.5 -71.5t-72.5 -30.5zM164 0l209 1079h78l-209 -1079h-78z" />
    <glyph glyph-name="uni006A0301" horiz-adv-x="421" 
d="M293 1255l-27 52l416 233l31 -57zM-182 -369l14 72h29q110 0 192 74.5t107 199.5l213 1102h76l-213 -1099q-32 -165 -136.5 -257t-249.5 -92h-32z" />
    <glyph glyph-name="g.ss01" horiz-adv-x="1073" 
d="M1249 1079l-14 -69h-291q119 -103 119 -279q0 -152 -91.5 -277t-234.5 -178q110 -33 169 -106.5t59 -181.5q0 -169 -137 -272t-361 -103q-189 0 -313.5 81t-147.5 218l78 29q19 -122 121.5 -191t263.5 -69q187 0 302.5 85t115.5 222q0 119 -86 187.5t-238 68.5h-2
q-164 0 -266 102.5t-102 265.5q0 131 67 244t179.5 178.5t242.5 65.5q72 0 137 -21h430zM989 725q0 137 -87 222t-226 85q-167 0 -286.5 -120.5t-119.5 -290.5q0 -140 82.5 -225t218.5 -85q111 0 208 56.5t153.5 152t56.5 205.5z" />
    <glyph glyph-name="gbreve.ss01" horiz-adv-x="1105" 
d="M735 1264q-81 0 -135.5 43t-73 103.5t-6.5 123.5h66q-9 -48 2.5 -93.5t50.5 -79.5t102 -34q95 0 154.5 64.5t73.5 142.5h65q-10 -51 -32 -97t-57.5 -86t-89.5 -63.5t-120 -23.5zM1249 1079l-14 -69h-291q119 -103 119 -279q0 -152 -91.5 -277t-234.5 -178
q110 -33 169 -106.5t59 -181.5q0 -169 -137 -272t-361 -103q-189 0 -313.5 81t-147.5 218l78 29q19 -122 121.5 -191t263.5 -69q187 0 302.5 85t115.5 222q0 119 -86 187.5t-238 68.5h-2q-164 0 -266 102.5t-102 265.5q0 131 67 244t179.5 178.5t242.5 65.5q72 0 137 -21
h430zM989 725q0 137 -87 222t-226 85q-167 0 -286.5 -120.5t-119.5 -290.5q0 -140 82.5 -225t218.5 -85q111 0 208 56.5t153.5 152t56.5 205.5z" />
    <glyph glyph-name="uni0123.ss01" horiz-adv-x="1105" 
d="M739 1241q-31 0 -50 19.5t-19 48.5q0 45 61 127l107 145l41 -22l-103 -146q-2 -3 -5.5 -7.5t-4.5 -6.5q27 -2 44 -21t17 -49q0 -34 -26 -61t-62 -27zM1249 1079l-14 -69h-291q119 -103 119 -279q0 -152 -91.5 -277t-234.5 -178q110 -33 169 -106.5t59 -181.5
q0 -169 -137 -272t-361 -103q-189 0 -313.5 81t-147.5 218l78 29q19 -122 121.5 -191t263.5 -69q187 0 302.5 85t115.5 222q0 119 -86 187.5t-238 68.5h-2q-164 0 -266 102.5t-102 265.5q0 131 67 244t179.5 178.5t242.5 65.5q72 0 137 -21h430zM989 725q0 137 -87 222
t-226 85q-167 0 -286.5 -120.5t-119.5 -290.5q0 -140 82.5 -225t218.5 -85q111 0 208 56.5t153.5 152t56.5 205.5z" />
    <glyph glyph-name="gdotaccent.ss01" horiz-adv-x="1105" 
d="M741 1309q-37 0 -59.5 22.5t-22.5 57.5q0 42 31.5 73t73.5 31q37 0 59.5 -22.5t22.5 -57.5q0 -42 -31.5 -73t-73.5 -31zM1249 1079l-14 -69h-291q119 -103 119 -279q0 -152 -91.5 -277t-234.5 -178q110 -33 169 -106.5t59 -181.5q0 -169 -137 -272t-361 -103
q-189 0 -313.5 81t-147.5 218l78 29q19 -122 121.5 -191t263.5 -69q187 0 302.5 85t115.5 222q0 119 -86 187.5t-238 68.5h-2q-164 0 -266 102.5t-102 265.5q0 131 67 244t179.5 178.5t242.5 65.5q72 0 137 -21h430zM989 725q0 137 -87 222t-226 85q-167 0 -286.5 -120.5
t-119.5 -290.5q0 -140 82.5 -225t218.5 -85q111 0 208 56.5t153.5 152t56.5 205.5z" />
    <glyph glyph-name="t.ss01" horiz-adv-x="665" 
d="M283 0l196 1010h-268l12 69h191q87 0 102 86l37 185h72l-54 -271h285l-12 -69h-287l-197 -1010h-77z" />
    <glyph glyph-name="tbar.ss01" horiz-adv-x="770" 
d="M889 1010h-287l-72 -365h244l-10 -61h-246l-112 -584h-76l112 584h-241l12 61h242l71 365h-270l12 69h193q85 0 100 86l37 185h72l-54 -271h285z" />
    <glyph glyph-name="tcaron.ss01" horiz-adv-x="686" 
d="M766 1149l119 422h67l-129 -422h-57zM283 0l196 1010h-268l12 69h191q87 0 102 86l37 185h72l-54 -271h285l-12 -69h-287l-197 -1010h-77z" />
    <glyph glyph-name="uni0163.ss01" horiz-adv-x="686" 
d="M571 1079h285l-12 -69h-287l-197 -1010h-8l-82 -133q68 -6 112 -55.5t44 -116.5q0 -84 -65 -140.5t-164 -56.5q-70 0 -120.5 27.5t-74.5 68.5l43 39q44 -79 150 -79q73 0 119 40t46 99q0 57 -36 95t-99 38h-24l-8 18l100 156h-10l196 1010h-268l12 69h191q87 0 102 86
l37 185h72z" />
    <glyph glyph-name="uni021B.ss01" horiz-adv-x="686" 
d="M571 1079h285l-12 -69h-287l-197 -1010h-77l196 1010h-268l12 69h191q87 0 102 86l37 185h72zM299 -113q32 0 51 -18t19 -49q0 -44 -62 -127l-106 -144l-41 23l104 145q5 5 10 15q-28 2 -45.5 20t-17.5 47q0 34 26 61t62 27z" />
    <glyph glyph-name="u.ss01" horiz-adv-x="1187" 
d="M616 -20q-213 0 -318 127.5t-62 338.5l122 633h78l-125 -633q-36 -184 50 -291.5t257 -107.5q165 0 274.5 99t141.5 260l133 673h78l-133 -673q-38 -196 -167 -311t-329 -115z" />
    <glyph glyph-name="uacute.ss01" horiz-adv-x="1222" 
d="M690 1257l-28 52l417 233l31 -57zM616 -20q-213 0 -318 127.5t-62 338.5l122 633h78l-125 -633q-36 -184 50 -291.5t257 -107.5q165 0 274.5 99t141.5 260l133 673h78l-133 -673q-38 -196 -167 -311t-329 -115z" />
    <glyph glyph-name="ucircumflex.ss01" horiz-adv-x="1222" 
d="M881 1479l-244 -215h-88l305 270h64l198 -270h-72zM1167 1079h78l-133 -673q-38 -196 -167 -311t-329 -115q-213 0 -318 127.5t-62 338.5l122 633h78l-125 -633q-36 -184 50 -291.5t257 -107.5q165 0 274.5 99t141.5 260z" />
    <glyph glyph-name="udieresis.ss01" horiz-adv-x="1222" 
d="M672 1311q-36 0 -58 22t-22 60q0 37 31 66.5t71 29.5q34 0 56 -22t22 -60q0 -37 -30.5 -66.5t-69.5 -29.5zM1010 1311q-34 0 -56 22t-22 60q0 37 30.5 66.5t69.5 29.5q34 0 56 -22t22 -60q0 -37 -30.5 -66.5t-69.5 -29.5zM616 -20q-213 0 -318 127.5t-62 338.5l122 633
h78l-125 -633q-36 -184 50 -291.5t257 -107.5q165 0 274.5 99t141.5 260l133 673h78l-133 -673q-38 -196 -167 -311t-329 -115z" />
    <glyph glyph-name="ugrave.ss01" horiz-adv-x="1222" 
d="M993 1255l-372 230l34 55l371 -235zM616 -20q-213 0 -318 127.5t-62 338.5l122 633h78l-125 -633q-36 -184 50 -291.5t257 -107.5q165 0 274.5 99t141.5 260l133 673h78l-133 -673q-38 -196 -167 -311t-329 -115z" />
    <glyph glyph-name="uhungarumlaut.ss01" horiz-adv-x="1222" 
d="M635 1255l-43 37l260 287l51 -41zM956 1255l-43 37l261 287l49 -41zM616 -20q-213 0 -318 127.5t-62 338.5l122 633h78l-125 -633q-36 -184 50 -291.5t257 -107.5q165 0 274.5 99t141.5 260l133 673h78l-133 -673q-38 -196 -167 -311t-329 -115z" />
    <glyph glyph-name="umacron.ss01" horiz-adv-x="1222" 
d="M586 1366l10 66h522l-12 -66h-520zM616 -20q-213 0 -318 127.5t-62 338.5l122 633h78l-125 -633q-36 -184 50 -291.5t257 -107.5q165 0 274.5 99t141.5 260l133 673h78l-133 -673q-38 -196 -167 -311t-329 -115z" />
    <glyph glyph-name="uogonek.ss01" horiz-adv-x="1222" 
d="M1167 1079h78l-133 -673q-31 -165 -128 -273.5t-249 -140.5l-65 -60q-82 -69 -125 -124t-43 -115q0 -92 96 -92q69 0 115 49l28 -39q-66 -66 -157 -66q-67 0 -106.5 37.5t-39.5 100.5q0 41 17 80.5t49.5 77t61 64t71.5 60.5l20 17q-14 -2 -41 -2q-213 0 -318 127.5
t-62 338.5l122 633h78l-125 -633q-36 -184 50 -291.5t257 -107.5q165 0 274.5 99t141.5 260z" />
    <glyph glyph-name="uring.ss01" horiz-adv-x="1222" 
d="M827 1208q-68 0 -108.5 43t-40.5 109q0 75 58 129.5t136 54.5q67 0 107.5 -42.5t40.5 -108.5q0 -76 -58 -130.5t-135 -54.5zM831 1264q53 0 92.5 36.5t39.5 90.5q0 42 -26 70t-71 28q-53 0 -92 -37t-39 -92q0 -41 26 -68.5t70 -27.5zM616 -20q-213 0 -318 127.5
t-62 338.5l122 633h78l-125 -633q-36 -184 50 -291.5t257 -107.5q165 0 274.5 99t141.5 260l133 673h78l-133 -673q-38 -196 -167 -311t-329 -115z" />
    <glyph glyph-name="utilde.ss01" horiz-adv-x="1222" 
d="M971 1311q-34 0 -63.5 11.5t-50 27.5t-39.5 32t-43.5 27.5t-51.5 11.5q-44 0 -72.5 -27t-48.5 -81l-57 24q60 152 182 152q41 0 75.5 -17.5t55 -38t52 -38t65.5 -17.5q82 0 125 109l53 -25q-53 -151 -182 -151zM616 -20q-213 0 -318 127.5t-62 338.5l122 633h78
l-125 -633q-36 -184 50 -291.5t257 -107.5q165 0 274.5 99t141.5 260l133 673h78l-133 -673q-38 -196 -167 -311t-329 -115z" />
    <glyph glyph-name="y.ss01" horiz-adv-x="1200" 
d="M1165 1079h78l-199 -1022q-86 -444 -489 -444q-172 0 -277.5 77.5t-127.5 215.5l69 24q15 -118 104 -185t232 -67q343 0 418 394l31 159q-62 -110 -177.5 -176.5t-253.5 -66.5q-190 0 -286 123t-56 321l125 647h78l-125 -641q-32 -173 51 -277.5t246 -101.5
q147 2 266 95.5t160 240.5z" />
    <glyph glyph-name="yacute.ss01" horiz-adv-x="1234" 
d="M1104 1485l-418 -228l-29 52l418 233zM1165 1079h78l-199 -1022q-86 -444 -489 -444q-172 0 -277.5 77.5t-127.5 215.5l69 24q15 -118 104 -185t232 -67q343 0 418 394l31 159q-62 -110 -177.5 -176.5t-253.5 -66.5q-190 0 -286 123t-56 321l125 647h78l-125 -641
q-32 -173 51 -277.5t246 -101.5q147 2 266 95.5t160 240.5z" />
    <glyph glyph-name="ycircumflex.ss01" horiz-adv-x="1234" 
d="M870 1477l-243 -213h-86l303 270h63l199 -270h-70zM1165 1079h78l-199 -1022q-86 -444 -489 -444q-172 0 -277.5 77.5t-127.5 215.5l69 24q15 -118 104 -185t232 -67q343 0 418 394l31 159q-62 -110 -177.5 -176.5t-253.5 -66.5q-190 0 -286 123t-56 321l125 647h78
l-125 -641q-32 -173 51 -277.5t246 -101.5q147 2 266 95.5t160 240.5z" />
    <glyph glyph-name="ydieresis.ss01" horiz-adv-x="1234" 
d="M668 1311q-36 0 -58 22t-22 60q0 37 31 66.5t71 29.5q34 0 56 -22t22 -60q0 -37 -30.5 -66.5t-69.5 -29.5zM1006 1311q-34 0 -56 22t-22 60q0 37 30.5 66.5t69.5 29.5q34 0 56 -22t22 -60q0 -37 -30.5 -66.5t-69.5 -29.5zM1165 1079h78l-199 -1022q-86 -444 -489 -444
q-172 0 -277.5 77.5t-127.5 215.5l69 24q15 -118 104 -185t232 -67q343 0 418 394l31 159q-62 -110 -177.5 -176.5t-253.5 -66.5q-190 0 -286 123t-56 321l125 647h78l-125 -641q-32 -173 51 -277.5t246 -101.5q147 2 266 95.5t160 240.5z" />
    <glyph glyph-name="ygrave.ss01" horiz-adv-x="1234" 
d="M1022 1305l-33 -50l-373 230l35 55zM1165 1079h78l-199 -1022q-86 -444 -489 -444q-172 0 -277.5 77.5t-127.5 215.5l69 24q15 -118 104 -185t232 -67q343 0 418 394l31 159q-62 -110 -177.5 -176.5t-253.5 -66.5q-190 0 -286 123t-56 321l125 647h78l-125 -641
q-32 -173 51 -277.5t246 -101.5q147 2 266 95.5t160 240.5z" />
    <glyph glyph-name="uni1EF9.ss01" horiz-adv-x="1234" 
d="M721 1421q-44 0 -72.5 -27t-48.5 -81l-57 24q60 152 182 152q41 0 75.5 -17.5t55 -38t52 -38t65.5 -17.5q82 0 125 109l53 -25q-53 -151 -182 -151q-34 0 -63.5 11.5t-50 27.5t-39.5 32t-43.5 27.5t-51.5 11.5zM1165 1079h78l-199 -1022q-86 -444 -489 -444
q-172 0 -277.5 77.5t-127.5 215.5l69 24q15 -118 104 -185t232 -67q343 0 418 394l31 159q-62 -110 -177.5 -176.5t-253.5 -66.5q-190 0 -286 123t-56 321l125 647h78l-125 -641q-32 -173 51 -277.5t246 -101.5q147 2 266 95.5t160 240.5z" />
    <glyph glyph-name="zero.osf" horiz-adv-x="1292" 
d="M682 -20q-217 0 -353 135t-136 354q0 129 49 246t132 201t197.5 134t241.5 50q219 0 354.5 -134.5t135.5 -353.5q0 -171 -83 -316.5t-226 -230.5t-312 -85zM684 51q109 0 209 45t172.5 120t116 177.5t43.5 214.5q0 186 -116 304t-300 118q-109 0 -208.5 -45t-172 -120
t-115.5 -177.5t-43 -214.5q0 -186 115 -304t299 -118z" />
    <glyph glyph-name="one.osf" horiz-adv-x="722" 
d="M455 70h241l-12 -70h-598l12 70h281l182 942h-289l13 67h364z" />
    <glyph glyph-name="two.osf" horiz-adv-x="1036" 
d="M1022 795q0 -74 -28 -145.5t-82 -136t-122.5 -124t-159.5 -117t-181.5 -106t-200.5 -100.5h737l-12 -66h-891l10 51q125 59 222 109.5t199.5 111t175.5 118.5t133 122t90 132.5t30 139.5q0 116 -76 181t-202 65q-115 0 -207.5 -57t-141.5 -160l-67 25q53 118 163.5 190
t260.5 72q158 0 254 -83t96 -222z" />
    <glyph glyph-name="three.osf" horiz-adv-x="1011" 
d="M1114 1079l-12 -65l-527 -506q171 0 273 -98.5t102 -255.5q0 -191 -143.5 -320t-351.5 -129q-168 0 -280.5 83t-123.5 212l76 27q8 -109 98.5 -179.5t231.5 -70.5q174 0 294.5 106.5t120.5 266.5q0 132 -84.5 215.5t-230.5 83.5h-88l10 59l527 504h-707l14 67h801z" />
    <glyph glyph-name="four.osf" horiz-adv-x="1060" 
d="M1034 1077l-176 -913h176l-10 -64h-178l-68 -344h-78l68 344h-688l10 52l868 925h76zM780 164l156 799l-750 -799h594z" />
    <glyph glyph-name="five.osf" horiz-adv-x="991" 
d="M1038 1012h-579l-123 -488h201q183 0 294 -102t111 -268q0 -192 -138 -320.5t-345 -128.5q-170 0 -280 83t-124 218l78 27q4 -112 96.5 -184t229.5 -72q169 0 287 109t118 264q0 137 -94 224t-242 87h-278l153 618h648z" />
    <glyph glyph-name="six.osf" horiz-adv-x="1036" 
d="M674 887q173 0 279 -106.5t106 -282.5q0 -144 -69.5 -263t-189 -187t-263.5 -68q-178 0 -286 102t-108 272q0 108 44 209.5t124 181.5l598 607h97l-482 -488q76 23 150 23zM547 47q116 0 216 61t159 163.5t59 220.5q0 148 -87.5 238.5t-231.5 90.5q-119 0 -220.5 -61.5
t-161 -166t-59.5 -224.5q0 -143 90.5 -232.5t235.5 -89.5z" />
    <glyph glyph-name="seven.osf" horiz-adv-x="878" 
d="M231 1079h809l-10 -65l-745 -1286h-88l745 1284h-723z" />
    <glyph glyph-name="eight.osf" horiz-adv-x="1062" 
d="M813 725q102 -31 161.5 -113.5t59.5 -193.5q0 -121 -66 -222t-178 -158.5t-243 -57.5q-170 0 -277.5 89.5t-107.5 231.5q0 152 109 276t266 150q-85 33 -134 101.5t-49 160.5q0 154 125.5 266.5t302.5 112.5q147 0 236.5 -80t89.5 -207q0 -119 -83.5 -219t-211.5 -137z
M430 987q0 -101 70.5 -165t179.5 -64q138 0 244 95.5t106 221.5q0 99 -71 162t-183 63q-140 0 -243 -94t-103 -219zM547 45q172 0 290.5 110.5t118.5 264.5q0 123 -80 198.5t-212 75.5q-171 0 -296.5 -116t-125.5 -269q0 -120 84 -192t221 -72z" />
    <glyph glyph-name="nine.osf" horiz-adv-x="1024" 
d="M698 1100q177 0 285.5 -102.5t108.5 -272.5q0 -108 -44 -209.5t-124 -181.5l-598 -606h-97l482 487q-73 -22 -150 -22q-173 0 -279 106.5t-106 282.5q0 144 69.5 263t189 187t263.5 68zM573 258q118 0 220 62t161.5 166.5t59.5 224.5q0 143 -90.5 232t-235.5 89
q-116 0 -216.5 -60.5t-160 -163t-59.5 -220.5q0 -148 88 -239t233 -91z" />
    <glyph glyph-name="uni030C.alt" 
d="M-29 1020l119 424h68l-129 -424h-58z" />
    <glyph glyph-name="caron.alt" horiz-adv-x="231" 
d="M311 1020l119 424h68l-129 -424h-58z" />
    <glyph glyph-name="uni0308.case" 
d="M-176 1616q-34 0 -55 21t-21 57q0 38 29 66t69 28q34 0 54 -21t20 -57q0 -37 -29 -65.5t-67 -28.5zM170 1616q-34 0 -54 21t-20 57q0 38 28.5 66t68.5 28q34 0 53.5 -20.5t19.5 -57.5t-29 -65.5t-67 -28.5z" />
    <glyph glyph-name="uni0307.case" 
d="M176 1616q-34 0 -56 22t-22 56q0 38 27.5 65t67.5 27q34 0 55.5 -22t21.5 -56q0 -37 -28 -64.5t-66 -27.5z" />
    <glyph glyph-name="gravecomb.case" 
d="M246 1585l-465 178l22 62l465 -187z" />
    <glyph glyph-name="acutecomb.case" 
d="M-182 1585l-21 55l469 185l23 -62z" />
    <glyph glyph-name="uni030B.case" 
d="M-315 1528l-47 37l268 323l51 -41zM20 1528l-45 37l269 323l53 -41z" />
    <glyph glyph-name="uni0302.case" 
d="M246 1585h-74l-158 180l-231 -180h-86l289 236h63z" />
    <glyph glyph-name="uni030C.case" 
d="M203 1821h88l-291 -236h-63l-195 236h74l157 -181z" />
    <glyph glyph-name="uni0306.case" 
d="M10 1585q-112 0 -169.5 71.5t-39.5 164.5h68q-13 -69 25.5 -119.5t121.5 -50.5q79 0 136.5 50.5t70.5 119.5h68q-20 -99 -96 -167.5t-185 -68.5z" />
    <glyph glyph-name="uni030A.case" 
d="M84 1505q-66 0 -106.5 43t-40.5 109q0 74 57.5 128t134.5 54q68 0 109 -42t41 -107q0 -76 -58 -130.5t-137 -54.5zM90 1559q52 0 91.5 37.5t39.5 91.5q0 43 -25.5 70.5t-70.5 27.5q-54 0 -92.5 -36.5t-38.5 -92.5q0 -41 26 -69.5t70 -28.5z" />
    <glyph glyph-name="tildecomb.case" 
d="M96 1610q-43 0 -79 17t-57 37t-52 37t-64 17q-84 0 -123 -106l-57 24q59 150 184 150q41 0 75.5 -17t56 -37.5t53 -37.5t65.5 -17q84 0 127 109l54 -27q-54 -149 -183 -149z" />
    <glyph glyph-name="uni0304.case" 
d="M-270 1671l12 68h530l-12 -68h-530z" />
    <glyph glyph-name="uni0326.case" 
d="M-172 -102q31 0 49.5 -18.5t18.5 -49.5q0 -47 -60 -127l-106 -143l-41 22l102 146q6 6 10 14q-27 2 -44 21t-17 49q0 34 26 60t62 26z" />
    <glyph glyph-name="uni0337.case" 
d="M-473 389l-19 55l539 224l21 -56z" />
    <glyph glyph-name="uni0338.case" 
d="M-1335 29l-41 49l1495 1399l43 -47z" />
    <glyph glyph-name="dieresis.case" horiz-adv-x="585" 
d="M463 1616q-34 0 -55 21t-21 57q0 38 29 66t69 28q34 0 54 -21t20 -57q0 -37 -29 -65.5t-67 -28.5zM809 1616q-34 0 -54 21t-20 57q0 38 28 66t68 28q34 0 54 -21t20 -57q0 -37 -29 -65.5t-67 -28.5z" />
    <glyph glyph-name="dotaccent.case" horiz-adv-x="210" 
d="M465 1616q-34 0 -56 22t-22 56q0 38 27 65t67 27q34 0 56 -22t22 -56q0 -37 -28 -64.5t-66 -27.5z" />
    <glyph glyph-name="grave.case" horiz-adv-x="481" 
d="M823 1585l-465 178l23 62l465 -187z" />
    <glyph glyph-name="acute.case" horiz-adv-x="481" 
d="M393 1585l-20 55l469 185l22 -62z" />
    <glyph glyph-name="hungarumlaut.case" horiz-adv-x="856" 
d="M408 1528l-48 37l269 323l51 -41zM743 1528l-45 37l269 323l53 -41z" />
    <glyph glyph-name="circumflex.case" horiz-adv-x="645" 
d="M915 1585h-73l-158 180l-231 -180h-86l288 236h64z" />
    <glyph glyph-name="caron.case" horiz-adv-x="645" 
d="M872 1821h89l-291 -236h-64l-194 236h73l158 -181z" />
    <glyph glyph-name="breve.case" horiz-adv-x="585" 
d="M621 1585q-112 0 -169.5 71.5t-39.5 164.5h67q-13 -69 26 -119.5t122 -50.5q79 0 136.5 50.5t70.5 119.5h67q-20 -99 -95.5 -167.5t-184.5 -68.5z" />
    <glyph glyph-name="ring.case" horiz-adv-x="372" 
d="M516 1505q-66 0 -106.5 43t-40.5 109q0 74 57.5 128t134.5 54q68 0 109 -42t41 -107q0 -76 -58 -130.5t-137 -54.5zM522 1559q52 0 91.5 37.5t39.5 91.5q0 43 -25.5 70.5t-70.5 27.5q-54 0 -92.5 -36.5t-38.5 -92.5q0 -41 26 -69.5t70 -28.5z" />
    <glyph glyph-name="tilde.case" horiz-adv-x="747" 
d="M807 1610q-43 0 -79 17t-57 37t-52 37t-64 17q-84 0 -123 -106l-57 24q59 150 184 150q41 0 75.5 -17t56 -37.5t53 -37.5t65.5 -17q84 0 127 109l53 -27q-54 -149 -182 -149z" />
    <glyph glyph-name="macron.case" horiz-adv-x="649" 
d="M381 1671l12 68h531l-13 -68h-530z" />
    <glyph glyph-name="IJacute" horiz-adv-x="1140" 
d="M350 1585l-20 55l471 185l20 -62zM1038 1585l-20 55l469 185l22 -62zM184 0l277 1423h78l-277 -1423h-78zM514 0l12 70h97q120 0 202 73t105 199l211 1081h78l-211 -1087q-31 -159 -133 -247.5t-254 -88.5h-107z" />
    <glyph glyph-name="ijacute" horiz-adv-x="966" 
d="M289 1257l-29 52l418 233l31 -57zM838 1255l-29 52l418 233l30 -57zM164 0l209 1079h78l-209 -1079h-78zM362 -369l15 72h29q108 0 189.5 74.5t106.5 199.5l213 1102h78l-213 -1099q-32 -165 -136 -257t-251 -92h-31z" />
    </font>
</defs>
</svg>
