<?xml version="1.0" standalone="no"?>
<!DOCTYPE svg PUBLIC "-//W3C//DTD SVG 1.1//EN" "http://www.w3.org/Graphics/SVG/1.1/DTD/svg11.dtd" >
<svg xmlns="http://www.w3.org/2000/svg" xmlns:xlink="http://www.w3.org/1999/xlink" version="1.1">
<metadata>
Created by FontForge 20201107 at Thu Oct 31 06:45:10 2024
 By 
Copyright (c) 2019 by Daniel Hernandez &#38; Rodrigo Fuenzalida. All rights reserved.
</metadata>
<defs>
<font id="Biennale-LightIt" horiz-adv-x="0" >
  <font-face 
    font-family="Biennale Light It"
    font-weight="350"
    font-style="italic"
    font-stretch="normal"
    units-per-em="2048"
    panose-1="0 0 4 0 0 0 0 0 0 0"
    ascent="1638"
    descent="-410"
    x-height="1079"
    cap-height="1423"
    bbox="-1386 -502 4520 1911"
    underline-thickness="102"
    underline-position="-204"
    slope="-11"
    unicode-range="U+0020-FB02"
  />
<missing-glyph horiz-adv-x="1206" 
d="M463 1495h856l-291 -1495h-856zM1176 1423h-596l184 -587zM514 1348l-233 -1201l421 601zM979 152l229 1191l-415 -595zM729 659l-412 -587h596z" />
    <glyph glyph-name="fi" unicode="fi" horiz-adv-x="948" 
d="M840 1419q-107 0 -183.5 -66t-101.5 -196l-14 -78h452l-209 -1079h-96l193 993h-359l-192 -993h-99l193 993h-209l16 86h209l15 74q33 170 136.5 259t260.5 89h225l-16 -82h-221z" />
    <glyph glyph-name="fl" unicode="fl" horiz-adv-x="980" 
d="M1108 1497l-291 -1497h-98l274 1415h-153q-108 0 -184 -66t-101 -196l-14 -76h239l-16 -84h-240l-194 -993h-99l193 993h-209l16 86h209l15 70q33 170 136 259t261 89h256z" />
    <glyph glyph-name=".notdef" horiz-adv-x="1206" 
d="M463 1495h856l-291 -1495h-856zM1176 1423h-596l184 -587zM514 1348l-233 -1201l421 601zM979 152l229 1191l-415 -595zM729 659l-412 -587h596z" />
    <glyph glyph-name=".null" 
 />
    <glyph glyph-name="nonmarkingreturn" horiz-adv-x="682" 
 />
    <glyph glyph-name="space" unicode=" " horiz-adv-x="481" 
 />
    <glyph glyph-name="exclam" unicode="!" horiz-adv-x="456" 
d="M258 387l199 1110h116l-235 -1110h-80zM229 -18q-34 0 -55.5 21t-21.5 56q0 40 28 68.5t68 28.5q35 0 57.5 -21.5t22.5 -56.5q0 -40 -29 -68t-70 -28z" />
    <glyph glyph-name="quotedbl" unicode="&#x22;" horiz-adv-x="565" 
d="M332 1085l65 379h95l-82 -379h-78zM569 1085l66 379h92l-80 -379h-78z" />
    <glyph glyph-name="numbersign" unicode="#" horiz-adv-x="1349" 
d="M1470 942h-262l-207 -453h246l-14 -79h-266l-189 -410h-88l189 410h-412l-188 -410h-89l189 410h-244l15 79h266l207 453h-248l14 80h270l185 401h86l-185 -401h414l184 401h87l-185 -401h240zM915 489l207 453h-413l-207 -453h413z" />
    <glyph glyph-name="dollar" unicode="$" horiz-adv-x="921" 
d="M692 1251q-129 0 -209 -67.5t-80 -175.5q0 -60 28 -108t73.5 -80.5t100 -62.5t109 -63t100 -73t73.5 -101t28 -139q0 -156 -103 -253t-277 -108l-35 -184h-84l35 184q-145 9 -233.5 85t-102.5 202l92 31q9 -109 88.5 -172.5t208.5 -63.5q141 0 227 72.5t86 192.5
q0 66 -28 118.5t-73.5 87.5t-100 66t-109 63t-100 70t-73.5 96t-28 131q0 145 104.5 238t270.5 98l35 183h82l-35 -187q114 -15 183 -81t83 -171l-90 -30q-12 100 -74.5 151t-171.5 51z" />
    <glyph glyph-name="percent" unicode="%" horiz-adv-x="1456" 
d="M532 791q-120 0 -192 76t-72 194q0 94 46 180t130 140.5t183 54.5q118 0 190 -76.5t72 -192.5q0 -146 -104 -261t-253 -115zM276 0l1088 1423h84l-1088 -1423h-84zM541 860q114 0 194 92.5t80 206.5q0 92 -55.5 149.5t-143.5 57.5q-114 0 -194 -92.5t-80 -206.5
q0 -92 56 -149.5t143 -57.5zM1102 -12q-118 0 -190 76.5t-72 193.5q0 146 103.5 260.5t252.5 114.5q118 0 190 -76t72 -192q0 -94 -45 -180.5t-128 -141.5t-183 -55zM1110 57q114 0 194 92.5t80 206.5q0 92 -54.5 149.5t-141.5 57.5q-115 0 -196 -93t-81 -206
q0 -92 56 -149.5t143 -57.5z" />
    <glyph glyph-name="ampersand" unicode="&#x26;" horiz-adv-x="1282" 
d="M1329 686q-32 -151 -105.5 -286t-156.5 -212l143 -188h-116l-101 133q-170 -153 -432 -153q-178 0 -290.5 97.5t-112.5 248.5q0 161 87 276t251 197q-72 122 -72 231q0 173 117.5 290.5t306.5 117.5q161 0 258.5 -90.5t97.5 -239.5h-102q-2 104 -72.5 169.5t-193.5 65.5
q-133 0 -221.5 -91.5t-88.5 -227.5q0 -74 32.5 -139.5t115.5 -177.5l340 -447q73 74 136 198t91 265zM580 68q112 0 199 31.5t165 97.5l-360 475l-45 63q-138 -72 -207.5 -163t-69.5 -228q0 -122 90.5 -199t227.5 -77z" />
    <glyph glyph-name="quotesingle" unicode="'" horiz-adv-x="329" 
d="M332 1085l65 379h95l-82 -379h-78z" />
    <glyph glyph-name="parenleft" unicode="(" horiz-adv-x="604" 
d="M481 -197q-117 89 -198.5 269t-81.5 407q0 329 169.5 621.5t444.5 451.5l51 -69q-260 -153 -414.5 -427t-154.5 -573q0 -208 75.5 -371t180.5 -241z" />
    <glyph glyph-name="parenright" unicode=")" horiz-adv-x="604" 
d="M47 -197l-51 72q172 101 302 261t198.5 350t68.5 386q0 209 -75.5 373t-180.5 240l72 67q116 -87 198.5 -267.5t82.5 -403.5q0 -327 -168.5 -622.5t-446.5 -455.5z" />
    <glyph glyph-name="asterisk" unicode="*" horiz-adv-x="798" 
d="M514 836l66 260l-246 -142l-29 80l262 125l-215 125l62 80l188 -143l39 276h90l-65 -276l243 143l29 -82l-262 -123l215 -125l-60 -80l-190 142l-39 -260h-88z" />
    <glyph glyph-name="plus" unicode="+" horiz-adv-x="958" 
d="M1022 664l-16 -86h-371l-84 -426h-92l84 426h-371l18 86h369l80 407h92l-80 -407h371z" />
    <glyph glyph-name="comma" unicode="," horiz-adv-x="368" 
d="M203 156q36 0 59 -21.5t23 -54.5q0 -29 -11 -54t-41 -67l-104 -145h-72l117 170q-30 3 -49 23.5t-19 53.5q0 40 29 67.5t68 27.5z" />
    <glyph glyph-name="hyphen" unicode="-" horiz-adv-x="739" 
d="M219 479l17 84h479l-17 -84h-479z" />
    <glyph glyph-name="period" unicode="." horiz-adv-x="385" 
d="M193 -18q-36 0 -58 21t-22 56q0 40 28.5 68.5t69.5 28.5q34 0 56 -21.5t22 -56.5q0 -40 -28 -68t-68 -28z" />
    <glyph glyph-name="slash" unicode="/" horiz-adv-x="636" 
d="M57 -102l686 1558h91l-684 -1558h-93z" />
    <glyph glyph-name="zero" unicode="0" horiz-adv-x="1363" 
d="M711 -20q-226 0 -357 150.5t-131 424.5q0 130 29.5 257t89 240.5t142 200t196 137t242.5 50.5q225 0 357 -149.5t132 -424.5q0 -128 -29.5 -255t-89 -240.5t-142 -200.5t-196 -138.5t-243.5 -51.5zM721 76q107 0 202 45.5t164 122.5t119.5 177t75.5 211.5t25 223.5
q0 234 -107 362t-289 128q-107 0 -201.5 -45.5t-163.5 -123t-119.5 -177.5t-75.5 -212.5t-25 -224.5q0 -232 106 -359.5t289 -127.5z" />
    <glyph glyph-name="one" unicode="1" horiz-adv-x="663" 
d="M694 1423l-260 -1339h199l-17 -84h-532l16 84h236l207 1065h-230l17 84h229l37 190h98z" />
    <glyph glyph-name="two" unicode="2" horiz-adv-x="1040" 
d="M793 588l-555 -502h729l-19 -86h-872l14 66l633 575q80 73 129.5 123.5t95.5 110.5t67 119t21 122q0 108 -73.5 173t-192.5 65q-123 0 -224.5 -67.5t-162.5 -194.5l-86 30q74 159 197.5 239.5t285.5 80.5t260.5 -85.5t98.5 -223.5q0 -142 -85 -265.5t-261 -279.5z" />
    <glyph glyph-name="three" unicode="3" horiz-adv-x="1087" 
d="M1243 1423l-16 -82l-547 -518h2q177 0 284 -106t107 -277q0 -127 -67 -233t-187.5 -168t-267.5 -62q-187 0 -307 90t-129 222l92 35q12 -112 107 -185t243 -73q174 0 293 107t119 259q0 148 -87 233t-231 85h-104l14 73l547 516h-735l16 84h854z" />
    <glyph glyph-name="four" unicode="4" horiz-adv-x="1130" 
d="M1155 449l-16 -82h-193l-72 -367h-98l74 367h-741l12 65l934 989h96l-188 -972h192zM866 449l162 829l-784 -829h622z" />
    <glyph glyph-name="five" unicode="5" horiz-adv-x="1064" 
d="M1161 1341h-602l-123 -491h201q197 0 313.5 -108t116.5 -289q0 -204 -151 -340t-381 -136q-172 0 -285.5 86t-130.5 230l96 37q9 -122 100 -193t234 -71q175 0 294.5 110t119.5 270q0 148 -91 234t-249 86h-297l163 657h689z" />
    <glyph glyph-name="six" unicode="6" horiz-adv-x="1099" 
d="M715 932q186 0 298.5 -111t112.5 -297q0 -146 -69 -270.5t-197 -200.5t-287 -76q-191 0 -305 109.5t-114 288.5q0 117 48 224t126 187l624 637h123l-508 -512q76 21 148 21zM586 66q124 0 226 65t157 167.5t55 217.5q0 148 -89 240t-235 92q-129 0 -232.5 -68
t-157.5 -172t-54 -217q0 -143 90.5 -234t239.5 -91z" />
    <glyph glyph-name="seven" unicode="7" horiz-adv-x="929" 
d="M299 1423h860l-14 -80l-776 -1343h-113l780 1337h-755z" />
    <glyph glyph-name="eight" unicode="8" horiz-adv-x="1097" 
d="M846 762q105 -32 165 -119t60 -207q0 -123 -65 -228t-181.5 -168t-257.5 -63q-176 0 -287.5 95t-111.5 252q0 159 109.5 286t271.5 158q-86 33 -135 105t-49 169q0 166 129 282t315 116q154 0 247 -84t93 -217q0 -129 -85 -233.5t-218 -143.5zM461 1040q0 -105 67.5 -171
t178.5 -66q136 0 241 96t105 227q0 103 -71 165.5t-183 62.5q-137 0 -237.5 -93.5t-100.5 -220.5zM569 63q173 0 288.5 111t115.5 268q0 129 -78 205t-213 76q-110 0 -205.5 -52.5t-152 -142t-56.5 -192.5q0 -128 82.5 -200.5t218.5 -72.5z" />
    <glyph glyph-name="nine" unicode="9" horiz-adv-x="1095" 
d="M799 1446q190 0 305 -109t115 -288q0 -232 -177 -412l-624 -637h-121l506 512q-73 -20 -148 -20q-184 0 -296.5 110.5t-112.5 296.5q0 146 69 270.5t197 200.5t287 76zM670 575q97 0 182 40t142 105t89.5 146.5t32.5 165.5q0 143 -91 234.5t-239 91.5q-94 0 -177 -38.5
t-139.5 -101t-89 -144t-32.5 -167.5q0 -148 88 -240t234 -92z" />
    <glyph glyph-name="colon" unicode=":" horiz-adv-x="432" 
d="M367 750q-34 0 -57 21t-23 56q0 40 28.5 68.5t69.5 28.5q34 0 56 -21.5t22 -56.5q0 -40 -27.5 -68t-68.5 -28zM217 -18q-34 0 -57 21t-23 56q0 40 29 68.5t70 28.5q34 0 55.5 -21.5t21.5 -56.5q0 -40 -28 -68t-68 -28z" />
    <glyph glyph-name="semicolon" unicode=";" horiz-adv-x="438" 
d="M385 924q34 0 56 -21.5t22 -56.5q0 -40 -27.5 -68t-68.5 -28q-34 0 -56 21t-22 56q0 40 27.5 68.5t68.5 28.5zM233 156q36 0 59 -21.5t23 -54.5q0 -29 -10.5 -54t-40.5 -67l-104 -145h-72l117 172q-28 2 -47 22.5t-19 52.5q0 41 27.5 68t66.5 27z" />
    <glyph glyph-name="less" unicode="&#x3c;" horiz-adv-x="798" 
d="M899 1051l-18 -103l-615 -368l469 -367l-16 -90l-553 424l16 80z" />
    <glyph glyph-name="equal" unicode="=" horiz-adv-x="964" 
d="M219 786l19 86h825l-19 -86h-825zM127 303l16 86h826l-19 -86h-823z" />
    <glyph glyph-name="greater" unicode="&#x3e;" horiz-adv-x="798" 
d="M305 1051l551 -424l-16 -78l-717 -426l20 104l613 369l-469 367z" />
    <glyph glyph-name="question" unicode="?" horiz-adv-x="856" 
d="M379 387l18 98q18 85 56 157.5t84.5 123t99 95t101 83t88 78.5t63.5 90t24 109q0 99 -59.5 150.5t-157.5 51.5q-113 0 -194.5 -66.5t-126.5 -180.5l-86 26q54 147 163 231.5t259 84.5q137 0 222 -72.5t85 -204.5q0 -70 -25.5 -130t-67 -106t-93 -89t-106 -88.5t-102 -94
t-85 -116.5t-52.5 -146l-16 -84h-92zM365 -18q-36 0 -58 21t-22 56q0 40 28.5 68.5t69.5 28.5q34 0 56 -21.5t22 -56.5q0 -40 -28 -68t-68 -28z" />
    <glyph glyph-name="at" unicode="@" horiz-adv-x="1552" 
d="M971 1184q266 0 430 -158.5t164 -417.5q0 -200 -93 -331.5t-233 -131.5q-75 0 -118.5 37t-43.5 101v8q-53 -76 -128.5 -120t-162.5 -44q-125 0 -203.5 85.5t-78.5 219.5q0 163 112 282.5t267 119.5q100 0 168.5 -49.5t93.5 -135.5l33 168h65l-86 -446q-10 -54 -10 -70
q0 -84 98 -84q108 0 176 107t68 278q0 227 -145.5 368.5t-382.5 141.5q-144 0 -278 -61t-230.5 -162t-154.5 -237t-58 -281q0 -233 146 -375.5t384 -142.5q246 0 387 159l41 -53q-156 -178 -438 -178q-271 0 -433.5 159t-162.5 422q0 166 64 318t172.5 262.5t258 176
t312.5 65.5zM805 201q121 0 211 101.5t90 236.5q0 101 -60 161t-159 60q-124 0 -212.5 -96t-88.5 -228q0 -105 61 -170t158 -65z" />
    <glyph glyph-name="A" unicode="A" horiz-adv-x="1212" 
d="M1090 0l-80 467h-621l-260 -467h-106l798 1423h117l246 -1423h-94zM436 551h559l-133 766z" />
    <glyph glyph-name="B" unicode="B" horiz-adv-x="1220" 
d="M969 745q111 -35 173 -120.5t62 -204.5q0 -191 -139.5 -305.5t-376.5 -114.5h-510l277 1423h497q162 0 248 -81.5t86 -215.5q0 -144 -86.5 -243.5t-230.5 -137.5zM537 1339l-107 -553h393q153 0 257 90.5t104 229.5q0 107 -67.5 170t-194.5 63h-385zM690 84q192 0 304 90
t112 242q0 130 -80.5 208t-218.5 78h-393l-121 -618h397z" />
    <glyph glyph-name="C" unicode="C" horiz-adv-x="1445" 
d="M803 -23q-261 0 -424.5 167t-163.5 431q0 137 36.5 266.5t107 238.5t165.5 191.5t219 128.5t261 46q225 0 374 -126t181 -319l-101 -32q-32 172 -153.5 276.5t-315.5 104.5q-146 0 -273 -63.5t-213.5 -169t-136 -244.5t-49.5 -289q0 -226 137 -368t361 -142
q192 0 324 92.5t233 290.5l88 -41q-113 -223 -270 -331t-387 -108z" />
    <glyph glyph-name="D" unicode="D" horiz-adv-x="1423" 
d="M895 1423q264 0 422 -164t158 -438q0 -167 -62.5 -319t-168.5 -262t-254 -175t-312 -65h-500l277 1423h440zM688 88q184 0 342 99.5t250 268t92 363.5q0 236 -132.5 376t-356.5 140h-346l-244 -1247h395z" />
    <glyph glyph-name="E" unicode="E" horiz-adv-x="1099" 
d="M1266 1335h-729l-107 -547h666l-19 -88h-663l-119 -612h741l-16 -88h-842l277 1423h827z" />
    <glyph glyph-name="F" unicode="F" horiz-adv-x="1056" 
d="M1264 1335h-727l-109 -551h664l-19 -88h-661l-136 -696h-98l277 1423h825z" />
    <glyph glyph-name="G" unicode="G" horiz-adv-x="1525" 
d="M1579 723q-63 -353 -266 -549.5t-502 -196.5q-270 0 -433 168t-163 447q0 232 104.5 428.5t285.5 311t396 114.5q221 0 375 -120t189 -318l-101 -33q-31 175 -157 275t-316 100q-182 0 -338 -101t-247 -273.5t-91 -375.5q0 -243 138 -386.5t370 -143.5q233 0 401.5 150.5
t239.5 422.5h-573l16 80h672z" />
    <glyph glyph-name="H" unicode="H" horiz-adv-x="1359" 
d="M1354 1423h98l-276 -1423h-99l135 698h-800l-136 -698h-98l277 1423h98l-123 -635h801z" />
    <glyph glyph-name="I" unicode="I" horiz-adv-x="462" 
d="M178 0l277 1423h98l-277 -1423h-98z" />
    <glyph glyph-name="J" unicode="J" horiz-adv-x="638" 
d="M27 0l16 88h96q113 0 192.5 70.5t102.5 191.5l209 1073h98l-211 -1083q-31 -162 -134.5 -251t-260.5 -89h-108z" />
    <glyph glyph-name="K" unicode="K" horiz-adv-x="1181" 
d="M1389 1423l-865 -680l670 -743h-119l-657 723l-142 -723h-98l277 1423h98l-125 -643l825 643h136z" />
    <glyph glyph-name="L" unicode="L" horiz-adv-x="1036" 
d="M295 90h729l-16 -90h-830l277 1423h98z" />
    <glyph glyph-name="M" unicode="M" horiz-adv-x="1636" 
d="M1589 1423h90l-186 -1423h-94l170 1266l-701 -1203h-84l-225 1205l-326 -1268h-96l367 1423h106l236 -1237l725 1237l18 -4v4z" />
    <glyph glyph-name="N" unicode="N" horiz-adv-x="1359" 
d="M1354 1423h98l-276 -1423h-82l-574 1253l-244 -1253h-98l277 1423h84l573 -1249z" />
    <glyph glyph-name="O" unicode="O" horiz-adv-x="1564" 
d="M817 -23q-270 0 -436 174t-166 455q0 135 40.5 263t114.5 231.5t172.5 181.5t221 121t252.5 43q269 0 434.5 -172.5t165.5 -454.5q0 -171 -63.5 -326.5t-170.5 -268.5t-255 -180t-310 -67zM823 74q139 0 266.5 59.5t220.5 158.5t148 236t55 285q0 242 -138.5 389.5
t-366.5 147.5q-139 0 -267 -59.5t-221 -159t-148 -235.5t-55 -284q0 -243 138.5 -390.5t367.5 -147.5z" />
    <glyph glyph-name="P" unicode="P" horiz-adv-x="1159" 
d="M915 1423q183 0 285.5 -92t102.5 -256q0 -195 -141 -317.5t-365 -122.5h-396l-125 -635h-98l277 1423h460zM807 725q175 0 284 96t109 248q0 128 -77.5 197t-221.5 69h-362l-121 -610h389z" />
    <glyph glyph-name="Q" unicode="Q" horiz-adv-x="1609" 
d="M1616 819q0 -244 -123.5 -448t-325.5 -308l293 -284l-69 -74l-322 315q-119 -43 -252 -43q-270 0 -436 174t-166 455q0 135 40.5 263t114.5 231.5t172.5 181.5t221 121t252.5 43q269 0 434.5 -172.5t165.5 -454.5zM317 612q0 -243 138.5 -390.5t367.5 -147.5
q139 0 266.5 59.5t220.5 158.5t148 236t55 285q0 242 -138.5 389.5t-366.5 147.5q-139 0 -267 -59.5t-221 -159t-148 -235.5t-55 -284z" />
    <glyph glyph-name="R" unicode="R" horiz-adv-x="1179" 
d="M1305 1090q0 -184 -140 -303t-368 -119h-121l418 -668h-111l-408 668h-167l-132 -668h-98l277 1423h463q184 0 285.5 -89t101.5 -244zM539 1335l-117 -590h387q174 0 284.5 94.5t110.5 239.5q0 121 -77.5 188.5t-221.5 67.5h-366z" />
    <glyph glyph-name="S" unicode="S" horiz-adv-x="1060" 
d="M559 -16q-191 0 -306 84.5t-130 236.5l96 35q9 -126 103 -197t251 -71q168 0 267.5 80.5t99.5 216.5q0 66 -26 120t-69 90t-97.5 70t-111.5 60.5t-111.5 62t-97.5 73.5t-69 96.5t-26 129.5q0 165 125 269t325 104q165 0 269 -76.5t118 -204.5l-96 -33q-14 108 -91 167
t-206 59q-151 0 -246.5 -76t-95.5 -197q0 -53 21 -97.5t56 -76t80.5 -59.5t96 -54t101 -52.5t96 -61t80.5 -75t56 -98.5t21 -128q0 -183 -130.5 -290t-352.5 -107z" />
    <glyph glyph-name="T" unicode="T" horiz-adv-x="1054" 
d="M1300 1423l-16 -90h-453l-258 -1333h-98l258 1333h-448l16 90h999z" />
    <glyph glyph-name="U" unicode="U" horiz-adv-x="1333" 
d="M682 -23q-232 0 -346 156t-68 402l172 888h99l-170 -888q-41 -212 48.5 -337.5t280.5 -125.5q180 0 301.5 110.5t161.5 311.5l180 929h97l-178 -929q-47 -249 -197.5 -383t-380.5 -134z" />
    <glyph glyph-name="V" unicode="V" horiz-adv-x="1220" 
d="M1352 1423h108l-803 -1423h-116l-254 1423h98l231 -1310z" />
    <glyph glyph-name="W" unicode="W" horiz-adv-x="1697" 
d="M1823 1423h100l-614 -1423h-107l-106 1280l-607 -1280h-106l-64 1423h97l47 -1282l606 1282h105l102 -1284z" />
    <glyph glyph-name="X" unicode="X" horiz-adv-x="1196" 
d="M1432 1425l-635 -702l385 -723h-107l-350 653l-594 -653h-123l674 735l-369 690h109l330 -620l557 620h123z" />
    <glyph glyph-name="Y" unicode="Y" horiz-adv-x="1179" 
d="M1434 1423l-684 -837l-115 -586h-98l114 596l-354 827h102l316 -745l598 745h121z" />
    <glyph glyph-name="Z" unicode="Z" horiz-adv-x="1056" 
d="M1268 1423l-13 -69l-1056 -1264h825l-14 -90h-965l14 68l1059 1267h-790l16 88h924z" />
    <glyph glyph-name="bracketleft" unicode="[" horiz-adv-x="557" 
d="M797 1464h-242l-305 -1575h239l-16 -88h-336l340 1751h336z" />
    <glyph glyph-name="backslash" unicode="\" horiz-adv-x="638" 
d="M442 -102l-80 1558h91l82 -1558h-93z" />
    <glyph glyph-name="bracketright" unicode="]" horiz-adv-x="557" 
d="M342 1552h336l-340 -1751h-336l18 88h240l305 1575h-239z" />
    <glyph glyph-name="asciicircum" unicode="^" horiz-adv-x="862" 
d="M924 793h-93l-161 434l-318 -434h-110l403 540h70z" />
    <glyph glyph-name="underscore" unicode="_" horiz-adv-x="929" 
d="M18 -135l17 84h831l-14 -84h-834z" />
    <glyph glyph-name="grave" unicode="`" horiz-adv-x="524" 
d="M709 1247l-387 238l45 69l383 -245z" />
    <glyph glyph-name="a" unicode="a" horiz-adv-x="1288" 
d="M1239 1079h94l-209 -1079h-94l47 242q-83 -122 -204 -193.5t-265 -71.5q-197 0 -313.5 128t-116.5 339q0 174 80.5 324.5t223 241t313.5 90.5q155 0 256.5 -79.5t134.5 -221.5zM635 68q140 0 257.5 79t184 209.5t66.5 280.5q0 173 -93 274t-255 101q-142 0 -262 -77
t-188.5 -204.5t-68.5 -273.5q0 -174 97.5 -281.5t261.5 -107.5z" />
    <glyph glyph-name="b" unicode="b" horiz-adv-x="1288" 
d="M885 1100q193 0 310.5 -126t117.5 -335q0 -128 -45.5 -247.5t-125.5 -211.5t-198 -147.5t-254 -55.5q-148 0 -249 76.5t-138 214.5l-51 -268h-94l288 1497h99l-125 -647q82 116 202 183t263 67zM694 68q114 0 213 48t165 127t104 179t38 205q0 173 -99 279t-259 106
q-144 0 -262 -82t-182 -212t-64 -276q0 -172 94 -273t252 -101z" />
    <glyph glyph-name="c" unicode="c" horiz-adv-x="1142" 
d="M635 -23q-208 0 -332.5 132t-124.5 342q0 171 82 320t226.5 239t316.5 90q170 0 283.5 -89t130.5 -239l-97 -31q-12 124 -100 197.5t-227 73.5q-107 0 -204 -46t-165 -121.5t-108 -176.5t-40 -207q0 -173 100.5 -283t268.5 -110q133 0 239.5 69.5t170.5 202.5l84 -35
q-81 -162 -209.5 -245t-294.5 -83z" />
    <glyph glyph-name="d" unicode="d" horiz-adv-x="1288" 
d="M1317 1497h98l-291 -1497h-94l45 238q-81 -120 -202 -190.5t-265 -70.5q-197 0 -313.5 128t-116.5 339q0 174 80.5 324.5t223 241t313.5 90.5q151 0 251.5 -75t137.5 -210zM635 68q140 0 257.5 79t184 209.5t66.5 280.5q0 173 -93 274t-255 101q-142 0 -262 -77
t-188.5 -204.5t-68.5 -273.5q0 -174 97.5 -281.5t261.5 -107.5z" />
    <glyph glyph-name="e" unicode="e" horiz-adv-x="1179" 
d="M797 1100q188 0 302.5 -115.5t114.5 -298.5q0 -35 -8 -91.5t-16 -80.5h-909q-5 -58 -5 -65q0 -171 102 -277t263 -106q135 0 239 67t171 193l75 -45q-86 -153 -207 -228.5t-292 -75.5q-196 0 -322.5 130.5t-126.5 330.5q0 182 82 334t224.5 240t312.5 88zM295 596h817
q6 47 6 86q0 155 -86.5 243.5t-240.5 88.5q-180 0 -316.5 -117.5t-179.5 -300.5z" />
    <glyph glyph-name="f" unicode="f" horiz-adv-x="653" 
d="M840 1419q-108 0 -184 -66t-101 -196l-14 -78h301l-17 -86h-303l-192 -993h-99l195 993h-211l16 86h211l15 76q32 169 132.5 257.5t258.5 88.5h82l-15 -82h-75z" />
    <glyph glyph-name="g" unicode="g" horiz-adv-x="1288" 
d="M1243 1079h94l-186 -952q-50 -255 -199 -385.5t-393 -130.5q-187 0 -307 89t-143 251l88 29q15 -136 113 -210.5t255 -74.5q197 0 324 108.5t168 317.5l28 145q-82 -126 -206.5 -200t-270.5 -74q-196 0 -313 126.5t-117 332.5q0 172 81 321t224 238.5t312 89.5
q156 0 258.5 -78.5t136.5 -220.5zM635 74q140 0 257.5 78.5t184 208.5t66.5 278q0 172 -93 272.5t-255 100.5q-142 0 -262 -76.5t-188.5 -203t-68.5 -271.5q0 -173 97.5 -280t261.5 -107z" />
    <glyph glyph-name="h" unicode="h" horiz-adv-x="1222" 
d="M846 1102q197 0 296 -121.5t58 -333.5l-127 -647h-98l123 633q34 182 -44.5 280.5t-242.5 98.5q-158 0 -278 -101.5t-150 -255.5l-127 -655h-98l291 1497h98l-119 -612q66 98 175.5 157.5t242.5 59.5z" />
    <glyph glyph-name="i" unicode="i" horiz-adv-x="432" 
d="M467 1303q-41 0 -66.5 24.5t-25.5 63.5q0 45 35.5 79.5t81.5 34.5q41 0 66.5 -25.5t25.5 -64.5q0 -46 -35 -79t-82 -33zM158 0l209 1079h98l-209 -1079h-98z" />
    <glyph glyph-name="j" unicode="j" horiz-adv-x="432" 
d="M469 1300q-40 0 -65 25.5t-25 63.5q0 47 34.5 80.5t82.5 33.5q41 0 65.5 -24.5t24.5 -63.5q0 -47 -35 -81t-82 -34zM-178 -369l16 88h29q105 0 184.5 72.5t104.5 194.5l211 1093h98l-211 -1093q-33 -168 -140.5 -261.5t-258.5 -93.5h-33z" />
    <glyph glyph-name="k" unicode="k" horiz-adv-x="972" 
d="M1161 1079l-684 -497l496 -582h-113l-493 569l-111 -569h-98l291 1497h98l-172 -883l651 465h135z" />
    <glyph glyph-name="l" unicode="l" horiz-adv-x="419" 
d="M158 0l291 1497h98l-291 -1497h-98z" />
    <glyph glyph-name="m" unicode="m" horiz-adv-x="1957" 
d="M1602 1102q90 0 160.5 -28.5t117 -84t62.5 -137.5t-3 -188l-131 -664h-96l125 651q33 175 -43 268t-227 93q-145 0 -261.5 -103.5t-144.5 -259.5l-127 -649h-98l125 651q33 175 -43 268t-227 93q-145 0 -262 -102.5t-146 -254.5l-127 -655h-98l209 1079h94l-37 -200
q66 100 172.5 161.5t230.5 61.5q144 0 234.5 -72.5t103.5 -206.5q61 122 178.5 200.5t258.5 78.5z" />
    <glyph glyph-name="n" unicode="n" horiz-adv-x="1222" 
d="M846 1102q197 0 296 -121.5t58 -333.5l-127 -647h-98l123 633q34 182 -44.5 280.5t-242.5 98.5q-158 0 -278 -101.5t-150 -255.5l-127 -655h-98l209 1079h94l-37 -200q66 100 177 161.5t245 61.5z" />
    <glyph glyph-name="o" unicode="o" horiz-adv-x="1241" 
d="M641 -23q-210 0 -336.5 127.5t-126.5 341.5q0 128 48 247.5t130 209t199.5 143.5t249.5 54q208 0 335.5 -127t127.5 -342q0 -127 -47 -246t-129 -209t-200 -144.5t-251 -54.5zM653 68q144 0 263.5 80t185 207.5t65.5 269.5q0 175 -101 281t-271 106q-145 0 -265.5 -79.5
t-187 -206.5t-66.5 -267q0 -175 103.5 -283t273.5 -108z" />
    <glyph glyph-name="p" unicode="p" horiz-adv-x="1288" 
d="M881 1100q197 0 314.5 -127.5t117.5 -335.5q0 -178 -82.5 -330t-225 -241t-309.5 -89q-149 0 -251 74.5t-140 208.5l-121 -627h-98l281 1446h94l-45 -235q84 120 204.5 188t260.5 68zM700 68q138 0 256.5 75.5t188 204.5t69.5 279q0 174 -99 279.5t-263 105.5
q-135 0 -251 -77.5t-184.5 -209t-68.5 -283.5q0 -172 95.5 -273t256.5 -101z" />
    <glyph glyph-name="q" unicode="q" horiz-adv-x="1288" 
d="M1239 1079h94l-280 -1446h-99l117 600q-81 -118 -200.5 -187t-262.5 -69q-197 0 -313.5 128t-116.5 339q0 174 80.5 324.5t223 241t313.5 90.5q155 0 257 -79.5t136 -221.5zM635 68q140 0 257.5 79t184 209.5t66.5 280.5q0 173 -93 274t-255 101q-142 0 -262 -77
t-188.5 -204.5t-68.5 -273.5q0 -174 97.5 -281.5t261.5 -107.5z" />
    <glyph glyph-name="r" unicode="r" horiz-adv-x="641" 
d="M422 872q65 99 170 164.5t227 65.5l-16 -92q-156 -3 -274.5 -108.5t-145.5 -248.5v2l-127 -655h-98l209 1079h94z" />
    <glyph glyph-name="s" unicode="s" horiz-adv-x="927" 
d="M489 -23q-162 0 -267 66t-120 182l84 31q12 -94 99 -146.5t215 -52.5q137 0 225 60.5t88 169.5q0 52 -23.5 92t-62 64t-87.5 47t-100.5 39.5t-100.5 41.5t-87.5 53.5t-62 75.5t-23.5 107q0 132 104 212.5t273 80.5q139 0 230 -57t108 -154l-88 -33q-17 84 -83.5 126
t-168.5 42q-123 0 -199.5 -57.5t-76.5 -151.5q0 -56 30 -97t78.5 -66.5t107 -47.5t117 -46.5t107 -56t78.5 -84t30 -122.5q0 -148 -120.5 -233t-303.5 -85z" />
    <glyph glyph-name="t" unicode="t" horiz-adv-x="692" 
d="M561 0q-157 0 -229.5 97t-40.5 261l123 635h-199l16 86h119q90 0 105 90l37 183h92l-54 -273h342l-16 -86h-344l-123 -626q-26 -134 28.5 -206.5t176.5 -72.5h106l-16 -88h-123z" />
    <glyph glyph-name="u" unicode="u" horiz-adv-x="1202" 
d="M1149 1079h98l-209 -1079h-94l41 209q-64 -103 -174.5 -167.5t-241.5 -64.5q-189 0 -286.5 122.5t-57.5 332.5l127 647h99l-123 -633q-34 -181 42.5 -279.5t233.5 -98.5q146 0 262.5 94t153.5 239z" />
    <glyph glyph-name="v" unicode="v" horiz-adv-x="1054" 
d="M1126 1079h111l-659 -1079h-105l-244 1079h101l211 -979z" />
    <glyph glyph-name="w" unicode="w" horiz-adv-x="1503" 
d="M1567 1079h106l-506 -1079h-112l-121 967l-492 -967h-114l-86 1079h98l68 -977l489 977h113l114 -975z" />
    <glyph glyph-name="x" unicode="x" horiz-adv-x="989" 
d="M1165 1079l-508 -534l316 -545h-105l-280 483l-461 -483h-119l535 557l-303 522h106l268 -461l430 461h121z" />
    <glyph glyph-name="y" unicode="y" horiz-adv-x="1056" 
d="M1126 1079h111l-885 -1446h-102l229 367h-6l-244 1079h101l211 -979z" />
    <glyph glyph-name="z" unicode="z" horiz-adv-x="901" 
d="M1038 1079l-16 -78l-829 -917h675l-14 -84h-809l14 76l832 919h-623l17 84h753z" />
    <glyph glyph-name="braceleft" unicode="{" horiz-adv-x="565" 
d="M449 -199q-109 0 -169 82.5t-32 229.5l61 319q9 62 3.5 101.5t-31 62t-52.5 31t-61 8.5h-29l17 86h26q35 0 68 10.5t65 32.5t56 62.5t35 95.5l67 338q57 292 318 292h24l-16 -88h-17q-81 0 -138 -52.5t-77 -151.5l-65 -336q-40 -202 -213 -246q12 -4 22 -8.5t26.5 -14
t27.5 -22t24 -32t17.5 -43t7 -56t-7.5 -70.5l-62 -319q-20 -102 15.5 -163t115.5 -61h19l-19 -88h-26z" />
    <glyph glyph-name="bar" unicode="|" horiz-adv-x="438" 
d="M141 -170l318 1630h82l-318 -1630h-82z" />
    <glyph glyph-name="braceright" unicode="}" horiz-adv-x="565" 
d="M8 -199l17 88h18q80 0 136.5 52.5t76.5 154.5l66 336q41 201 213 246q-154 50 -117 246l61 317q20 102 -15.5 162.5t-115.5 60.5h-18l18 88h27q109 0 168.5 -82t31.5 -229l-61 -319q-12 -50 -6 -85.5t18 -58t35 -35t45.5 -17.5t48.5 -5h29l-16 -86h-27q-76 0 -139 -48.5
t-84 -154.5l-68 -336q-57 -295 -317 -295h-25z" />
    <glyph glyph-name="asciitilde" unicode="~" horiz-adv-x="1044" 
d="M821 502q-60 0 -113 18t-85.5 39t-80 39t-98.5 18q-43 0 -86 -23.5t-71 -60.5l-47 60q36 48 90 78t119 30q60 0 112.5 -18t84.5 -39t79.5 -39t97.5 -18q45 0 89.5 23.5t72.5 60.5l47 -60q-37 -48 -92.5 -78t-118.5 -30z" />
    <glyph glyph-name="uni00A0" unicode="&#xa0;" horiz-adv-x="481" 
 />
    <glyph glyph-name="exclamdown" unicode="&#xa1;" horiz-adv-x="430" 
d="M399 924q-35 0 -56 20.5t-21 54.5q0 42 27.5 70.5t68.5 28.5q34 0 56 -21.5t22 -56.5q0 -40 -28 -68t-69 -28zM82 -367l229 1059h80l-192 -1059h-117z" />
    <glyph glyph-name="cent" unicode="&#xa2;" horiz-adv-x="1046" 
d="M625 272q115 0 206.5 58t147.5 172l80 -33q-67 -135 -175 -208t-247 -79l-35 -182h-82l35 186q-159 19 -251.5 131t-92.5 281q0 148 69 277.5t192 210t271 85.5l35 183h84l-35 -187q124 -17 205 -93.5t94 -192.5l-92 -29q-12 107 -87 169t-195 62q-123 0 -226.5 -67.5
t-161 -176t-57.5 -231.5q0 -150 86 -243t232 -93z" />
    <glyph glyph-name="sterling" unicode="&#xa3;" horiz-adv-x="1054" 
d="M852 1376q142 0 236.5 -80t105.5 -209l-94 -32q-11 109 -77 170t-173 61q-128 0 -219 -84.5t-119 -228.5l-49 -256h465l-17 -88h-465l-106 -541h635l-17 -88h-733l123 629h-164l17 88h164l53 268q35 181 152 286t282 105z" />
    <glyph glyph-name="currency" unicode="&#xa4;" horiz-adv-x="1126" 
d="M1075 952q51 -88 51 -200q0 -100 -40.5 -196.5t-112.5 -170.5l90 -113l-64 -53l-88 113q-130 -96 -288 -96q-165 0 -267 102l-141 -119l-51 64l143 120q-51 88 -51 199q0 99 40.5 196t111.5 169l-91 116l62 54l90 -117q129 98 291 98q164 0 264 -100l141 119l52 -66z
M635 317q112 0 206 63.5t144.5 161t50.5 201.5q0 129 -81 211t-210 82q-112 0 -205.5 -63.5t-143.5 -161t-50 -201.5q0 -129 80 -211t209 -82z" />
    <glyph glyph-name="yen" unicode="&#xa5;" horiz-adv-x="1105" 
d="M1311 1354l-586 -764h256l-14 -72h-271l-41 -207h271l-15 -73h-270l-45 -238h-96l45 238h-269l13 73h270l39 207h-266l12 72h260l-287 764h103l256 -701l520 701h115z" />
    <glyph glyph-name="brokenbar" unicode="&#xa6;" horiz-adv-x="438" 
d="M332 817l127 643h82l-127 -643h-82zM141 -170l125 643h82l-125 -643h-82z" />
    <glyph glyph-name="section" unicode="&#xa7;" horiz-adv-x="964" 
d="M465 1145q0 -57 28.5 -99t74.5 -68.5t101 -49t110 -47.5t101 -56.5t74.5 -84.5t28.5 -124q0 -109 -64 -182.5t-174 -107.5q109 -78 109 -211q0 -99 -57 -172.5t-149 -109.5t-204 -36q-149 0 -247 66t-113 182l84 29q10 -93 89.5 -146t195.5 -53q128 0 214.5 61.5
t86.5 169.5q0 59 -28.5 103t-74 71.5t-100.5 50.5t-110 48t-100.5 56t-74 82.5t-28.5 119.5q0 107 69.5 182.5t188.5 102.5q-127 77 -127 217q0 132 101.5 213.5t264.5 81.5q133 0 222 -57t106 -154l-88 -33q-17 83 -82 124.5t-160 41.5q-117 0 -192.5 -58.5t-75.5 -152.5z
M668 373q97 21 157 81.5t60 149.5q0 26 -4.5 49t-16 42.5t-21.5 34.5t-31.5 31t-34 25t-42 23t-42 20t-46.5 20t-45 19q-117 -2 -194.5 -63.5t-77.5 -157.5q0 -40 15.5 -73.5t37.5 -55.5t59.5 -43.5t69.5 -34.5t79 -33t77 -34z" />
    <glyph glyph-name="dieresis" unicode="&#xa8;" horiz-adv-x="647" 
d="M414 1305q-39 0 -62.5 24.5t-23.5 65.5t33.5 72.5t76.5 31.5q39 0 63.5 -23.5t24.5 -64.5t-34 -73.5t-78 -32.5zM766 1305q-39 0 -63.5 24.5t-24.5 65.5t34.5 72.5t78.5 31.5q39 0 62.5 -23.5t23.5 -64.5t-33.5 -73.5t-77.5 -32.5z" />
    <glyph glyph-name="copyright" unicode="&#xa9;" horiz-adv-x="1525" 
d="M793 -23q-255 0 -417.5 167.5t-162.5 426.5q0 158 63 306t167.5 257.5t248.5 175.5t299 66q254 0 417 -166.5t163 -425.5q0 -159 -63 -308t-167.5 -258t-248.5 -175t-299 -66zM799 51q136 0 264.5 60t223 158.5t151.5 232.5t57 276q0 228 -143.5 376.5t-366.5 148.5
q-138 0 -266.5 -60t-222.5 -159t-150.5 -232.5t-56.5 -273.5q0 -228 143.5 -377.5t366.5 -149.5zM840 276q-149 0 -236.5 94t-87.5 244q0 91 34.5 176t92.5 148t140.5 101t174.5 38q122 0 203.5 -64t91.5 -169l-75 -27q-9 86 -68 134t-156 48q-152 0 -253 -112t-101 -266
q0 -122 65 -194.5t183 -72.5q190 0 280 187l72 -31q-117 -234 -360 -234z" />
    <glyph glyph-name="ordfeminine" unicode="&#xaa;" horiz-adv-x="782" 
d="M918 1667h61l-115 -588h-63l24 123q-44 -63 -108 -99t-139 -36q-104 0 -173 70t-69 184q0 141 97.5 249.5t234.5 108.5q80 0 138.5 -42.5t82.5 -114.5zM596 1139q107 0 180.5 84.5t73.5 191.5q0 86 -50 139.5t-136 53.5q-97 0 -174.5 -81.5t-77.5 -195.5q0 -85 52 -138.5
t132 -53.5z" />
    <glyph glyph-name="guillemotleft" unicode="&#xab;" horiz-adv-x="835" 
d="M567 856l-286 -344l145 -332h-94l-150 338l281 338h104zM883 856l-287 -346l145 -330h-96l-147 338l280 338h105z" />
    <glyph glyph-name="logicalnot" unicode="&#xac;" horiz-adv-x="1087" 
d="M1085 737l-90 -456h-94l72 368h-729l16 88h825z" />
    <glyph glyph-name="registered" unicode="&#xae;" horiz-adv-x="974" 
d="M752 1489q153 0 248.5 -96t95.5 -246q0 -124 -61 -232t-167 -172.5t-229 -64.5q-154 0 -250 97t-96 249q0 122 61.5 229.5t168 171.5t229.5 64zM643 733q161 0 279 122.5t118 285.5q0 127 -81.5 211t-210.5 84q-106 0 -198.5 -57t-146 -151t-53.5 -200q0 -127 81.5 -211
t211.5 -84zM760 1327q59 0 94 -30.5t35 -82.5q0 -60 -44 -96.5t-114 -36.5h-33l125 -211h-57l-121 211h-22l-41 -211h-52l88 457h142zM731 1124q48 0 77.5 23.5t29.5 62.5q0 35 -21 54.5t-63 19.5h-95l-28 -160h100z" />
    <glyph glyph-name="macron" unicode="&#xaf;" horiz-adv-x="591" 
d="M324 1362l14 80h534l-14 -80h-534z" />
    <glyph glyph-name="degree" unicode="&#xb0;" horiz-adv-x="704" 
d="M547 897q-107 0 -174.5 66t-67.5 172q0 123 89 210t212 87q106 0 174 -66.5t68 -171.5q0 -122 -88.5 -209.5t-212.5 -87.5zM551 967q89 0 154 65t65 158q0 75 -47.5 123.5t-118.5 48.5q-90 0 -155.5 -65t-65.5 -158q0 -75 47.5 -123.5t120.5 -48.5z" />
    <glyph glyph-name="plusminus" unicode="&#xb1;" horiz-adv-x="952" 
d="M668 772h368l-16 -86h-369l-82 -418h-90l82 418h-368l18 86h367l77 399h90zM76 82l18 86h826l-17 -86h-827z" />
    <glyph glyph-name="uni00B2" unicode="&#xb2;" horiz-adv-x="669" 
d="M592 983l-227 -209h333l-12 -63h-436l8 47l281 258q87 82 126.5 133.5t39.5 107.5q0 51 -32.5 81t-86.5 30q-114 0 -166 -123l-64 23q73 164 240 164q80 0 132 -44.5t52 -117.5q0 -72 -44.5 -134.5t-143.5 -152.5z" />
    <glyph glyph-name="uni00B3" unicode="&#xb3;" horiz-adv-x="645" 
d="M805 1423l-10 -59l-250 -240q83 -6 131.5 -56t48.5 -130q0 -101 -75 -169.5t-187 -68.5q-85 0 -148 45t-67 109l69 27q6 -54 47 -85.5t103 -31.5q80 0 133 50t53 126q0 63 -39.5 99t-109.5 36h-51l8 49l248 238h-332l10 61h418z" />
    <glyph glyph-name="acute" unicode="&#xb4;" horiz-adv-x="450" 
d="M344 1251l-35 62l428 241l39 -69z" />
    <glyph glyph-name="paragraph" unicode="&#xb6;" horiz-adv-x="1179" 
d="M1262 1423l-316 -1628h-65l299 1540h-103l-299 -1540h-67l301 1540h-103l-137 -700h-143q-179 0 -281 90t-102 248q0 191 138.5 320.5t356.5 129.5h521z" />
    <glyph glyph-name="periodcentered" unicode="&#xb7;" horiz-adv-x="425" 
d="M328 561q-34 0 -57 22.5t-23 57.5q0 39 28.5 67.5t69.5 28.5q35 0 57.5 -22t22.5 -56q0 -39 -28.5 -68.5t-69.5 -29.5z" />
    <glyph glyph-name="cedilla" unicode="&#xb8;" horiz-adv-x="487" 
d="M262 -121q67 -7 109.5 -56t42.5 -116q0 -84 -66 -141.5t-168 -57.5q-71 0 -122.5 28t-75.5 69l49 45q47 -76 143 -76q71 0 116.5 38.5t45.5 94.5t-35.5 92.5t-95.5 36.5h-23l-10 19l102 161h70z" />
    <glyph glyph-name="uni00B9" unicode="&#xb9;" horiz-adv-x="534" 
d="M606 1423l-127 -647h117l-14 -65h-332l12 65h141l97 486h-140l15 63h137l18 98h76z" />
    <glyph glyph-name="ordmasculine" unicode="&#xba;" horiz-adv-x="743" 
d="M598 1067q-116 0 -189 72.5t-73 191.5q0 141 98.5 245.5t237.5 104.5q118 0 191 -73.5t73 -194.5q0 -142 -97.5 -244t-240.5 -102zM606 1135q106 0 181 81.5t75 188.5q0 92 -54.5 148.5t-141.5 56.5q-106 0 -181 -81t-75 -190q0 -92 54.5 -148t141.5 -56z" />
    <glyph glyph-name="guillemotright" unicode="&#xbb;" horiz-adv-x="835" 
d="M387 856l148 -338l-281 -338h-104l288 346l-145 330h94zM702 856l148 -338l-281 -338h-104l287 346l-146 330h96z" />
    <glyph glyph-name="onequarter" unicode="&#xbc;" horiz-adv-x="1234" 
d="M1268 1423h84l-1063 -1423h-82zM219 711l12 65h142l96 486h-139l14 63h137l19 98h75l-126 -647h116l-14 -65h-332zM1198 713h72l-94 -480h88l-11 -59h-88l-35 -174h-71l35 174h-346l8 51zM834 233h272l74 379z" />
    <glyph glyph-name="onehalf" unicode="&#xbd;" horiz-adv-x="1300" 
d="M1260 1423h81l-1060 -1423h-84zM219 711l12 65h142l96 486h-139l14 63h137l19 98h75l-126 -647h116l-14 -65h-332zM1198 272l-229 -209h334l-13 -63h-436l8 47l281 258q87 81 126.5 133.5t39.5 108.5q0 51 -32.5 80.5t-86.5 29.5q-114 0 -166 -122l-63 22q73 164 239 164
q80 0 132 -44.5t52 -117.5q0 -72 -44 -134.5t-142 -152.5z" />
    <glyph glyph-name="threequarters" unicode="&#xbe;" horiz-adv-x="1247" 
d="M438 700q-86 0 -148 44.5t-67 109.5l70 27q6 -54 46.5 -85.5t102.5 -31.5q80 0 133.5 50t53.5 126q0 63 -40 99t-110 36h-51l8 49l248 238h-332l10 61h418l-10 -59l-250 -240q83 -6 131.5 -56t48.5 -130q0 -101 -75 -169.5t-187 -68.5zM1296 1423h84l-1063 -1423h-81z
M1196 713h72l-94 -480h88l-11 -59h-88l-35 -174h-71l35 174h-347l9 51zM831 233h273l74 379z" />
    <glyph glyph-name="questiondown" unicode="&#xbf;" horiz-adv-x="849" 
d="M672 922q-34 0 -56 21t-22 56q0 42 27.5 70.5t68.5 28.5q34 0 56 -21.5t22 -56.5q0 -41 -27.5 -69.5t-68.5 -28.5zM346 -387q-139 0 -224 71.5t-85 204.5q0 70 25.5 130t67.5 105.5t93.5 88t106 87t103 92t86.5 113.5t54 142l11 45h92l-12 -59q-19 -83 -58 -153.5
t-86 -119.5t-100 -92.5t-102 -82t-89 -78t-64 -90t-24 -109.5q0 -98 59 -149.5t158 -51.5q115 0 197.5 67.5t126.5 180.5l86 -29q-54 -146 -162.5 -229.5t-259.5 -83.5z" />
    <glyph glyph-name="Agrave" unicode="&#xc0;" horiz-adv-x="1249" 
d="M1180 1649l-27 -68l-479 180l28 78zM1090 0l-80 467h-621l-260 -467h-106l798 1423h117l246 -1423h-94zM436 551h559l-133 766z" />
    <glyph glyph-name="Aacute" unicode="&#xc1;" horiz-adv-x="1249" 
d="M1219 1759l-486 -178l-24 70l485 186zM821 1423h117l246 -1423h-94l-80 467h-621l-260 -467h-106zM436 551h559l-133 766z" />
    <glyph glyph-name="Acircumflex" unicode="&#xc2;" horiz-adv-x="1249" 
d="M961 1761l-226 -178h-104l297 248h80l196 -248h-90zM821 1423h117l246 -1423h-94l-80 467h-621l-260 -467h-106zM436 551h559l-133 766z" />
    <glyph glyph-name="Atilde" unicode="&#xc3;" horiz-adv-x="1249" 
d="M1196 1794l66 -31q-54 -159 -193 -159q-43 0 -80 17t-58.5 37t-52.5 37t-65 17q-83 0 -119 -106l-71 30q64 160 194 160q41 0 76.5 -17t57 -37t53.5 -37t67 -17q86 0 125 106zM821 1423h117l246 -1423h-94l-80 467h-621l-260 -467h-106zM436 551h559l-133 766z" />
    <glyph glyph-name="Adieresis" unicode="&#xc4;" horiz-adv-x="1249" 
d="M748 1610q-37 0 -60.5 23.5t-23.5 62.5q0 43 32.5 74.5t75.5 31.5q38 0 61 -24t23 -62q0 -43 -32.5 -74.5t-75.5 -31.5zM1133 1802q38 0 61 -24t23 -62q0 -42 -33 -74t-76 -32q-37 0 -60.5 23.5t-23.5 62.5q0 43 32.5 74.5t76.5 31.5zM821 1423h117l246 -1423h-94
l-80 467h-621l-260 -467h-106zM436 551h559l-133 766z" />
    <glyph glyph-name="Aring" unicode="&#xc5;" horiz-adv-x="1249" 
d="M915 1497q-71 0 -114 44.5t-43 113.5q0 81 61 137.5t144 56.5q71 0 114 -44t43 -113q0 -79 -61 -137t-144 -58zM956 1784q-52 0 -90.5 -36t-38.5 -89q0 -42 26 -69t69 -27q52 0 90.5 35.5t38.5 89.5q0 42 -26 69t-69 27zM1090 0l-80 467h-621l-260 -467h-106l798 1423
h117l246 -1423h-94zM436 551h559l-133 766z" />
    <glyph glyph-name="AE" unicode="&#xc6;" horiz-adv-x="1812" 
d="M1978 1335h-725l-106 -547h663l-18 -88h-662l-118 -612h737l-16 -88h-838l90 465h-543l-356 -465h-109l1086 1423h934zM510 551h491l154 784h-43z" />
    <glyph glyph-name="Ccedilla" unicode="&#xc7;" horiz-adv-x="1490" 
d="M815 74q194 0 326 92.5t233 290.5l88 -41q-111 -221 -266 -329.5t-381 -109.5l-59 -98q67 -7 109 -56t42 -116q0 -84 -66 -141.5t-169 -57.5q-70 0 -121.5 28t-75.5 69l49 45q47 -76 144 -76q71 0 116 38.5t45 94.5t-35.5 92.5t-95.5 36.5h-22l-10 19l79 125
q-238 20 -383 183.5t-145 411.5q0 171 58 329.5t160 278.5t251 191.5t320 71.5q224 0 372.5 -126t182.5 -319l-101 -32q-32 172 -154 276.5t-315 104.5q-146 0 -273 -63.5t-214 -169t-137 -244.5t-50 -289q0 -226 137.5 -368t360.5 -142z" />
    <glyph glyph-name="Egrave" unicode="&#xc8;" horiz-adv-x="1132" 
d="M1171 1649l-26 -68l-481 180l30 78zM1266 1335h-729l-107 -547h666l-19 -88h-663l-119 -612h741l-16 -88h-842l277 1423h827z" />
    <glyph glyph-name="Eacute" unicode="&#xc9;" horiz-adv-x="1132" 
d="M1186 1759l-486 -178l-24 70l485 186zM1266 1335h-729l-107 -547h666l-19 -88h-663l-119 -612h741l-16 -88h-842l277 1423h827z" />
    <glyph glyph-name="Ecircumflex" unicode="&#xca;" horiz-adv-x="1132" 
d="M934 1761l-225 -178h-105l297 248h80l197 -248h-91zM1266 1335h-729l-107 -547h666l-19 -88h-663l-119 -612h741l-16 -88h-842l277 1423h827z" />
    <glyph glyph-name="Edieresis" unicode="&#xcb;" horiz-adv-x="1132" 
d="M717 1610q-37 0 -60.5 23.5t-23.5 62.5q0 43 32 74.5t76 31.5q38 0 60 -23.5t22 -62.5q0 -43 -31.5 -74.5t-74.5 -31.5zM1075 1610q-37 0 -59.5 23.5t-22.5 62.5q0 43 32.5 74.5t76.5 31.5q37 0 59.5 -24t22.5 -62q0 -43 -32.5 -74.5t-76.5 -31.5zM1266 1335h-729
l-107 -547h666l-19 -88h-663l-119 -612h741l-16 -88h-842l277 1423h827z" />
    <glyph glyph-name="Igrave" unicode="&#xcc;" horiz-adv-x="477" 
d="M770 1581l-479 180l28 78l478 -190zM178 0l277 1423h98l-277 -1423h-98z" />
    <glyph glyph-name="Iacute" unicode="&#xcd;" horiz-adv-x="477" 
d="M350 1581l-24 70l483 186l27 -78zM178 0l277 1423h98l-277 -1423h-98z" />
    <glyph glyph-name="Icircumflex" unicode="&#xce;" horiz-adv-x="477" 
d="M821 1583h-90l-153 178l-226 -178h-106l299 248h80zM178 0l277 1423h98l-277 -1423h-98z" />
    <glyph glyph-name="Idieresis" unicode="&#xcf;" horiz-adv-x="477" 
d="M365 1610q-37 0 -60.5 23.5t-23.5 62.5q0 43 32 74.5t76 31.5q38 0 61 -24t23 -62q0 -43 -32.5 -74.5t-75.5 -31.5zM725 1610q-37 0 -60.5 23.5t-23.5 62.5q0 43 32.5 74.5t76.5 31.5q38 0 61 -24t23 -62q0 -42 -33 -74t-76 -32zM178 0l277 1423h98l-277 -1423h-98z" />
    <glyph glyph-name="Eth" unicode="&#xd0;" horiz-adv-x="1476" 
d="M907 1423q264 0 422 -164t158 -438q0 -167 -62.5 -319t-168.5 -262t-254 -175t-312 -65h-500l138 707h-181l15 75h180l125 641h440zM700 88q184 0 342 99.5t250 268t92 363.5q0 236 -132.5 376t-358.5 140h-344l-109 -553h297l-14 -75h-297l-121 -619h395z" />
    <glyph glyph-name="Ntilde" unicode="&#xd1;" horiz-adv-x="1400" 
d="M868 1712q-44 0 -72 -26.5t-48 -79.5l-70 30q64 160 194 160q41 0 76.5 -17t57 -37t53.5 -37t67 -17q83 0 125 106l66 -31q-57 -159 -193 -159q-43 0 -80 17t-58.5 37t-52.5 37t-65 17zM1354 1423h98l-276 -1423h-82l-574 1253l-244 -1253h-98l277 1423h84l573 -1249z
" />
    <glyph glyph-name="Ograve" unicode="&#xd2;" horiz-adv-x="1609" 
d="M1335 1581l-479 180l29 78l477 -190zM817 -23q-270 0 -436 174t-166 455q0 135 40.5 263t114.5 231.5t172.5 181.5t221 121t252.5 43q269 0 434.5 -172.5t165.5 -454.5q0 -171 -63.5 -326.5t-170.5 -268.5t-255 -180t-310 -67zM823 74q139 0 266.5 59.5t220.5 158.5
t148 236t55 285q0 242 -138.5 389.5t-366.5 147.5q-139 0 -267 -59.5t-221 -159t-148 -235.5t-55 -284q0 -243 138.5 -390.5t367.5 -147.5z" />
    <glyph glyph-name="Oacute" unicode="&#xd3;" horiz-adv-x="1609" 
d="M901 1581l-24 70l485 186l27 -78zM817 -23q-270 0 -436 174t-166 455q0 135 40.5 263t114.5 231.5t172.5 181.5t221 121t252.5 43q269 0 434.5 -172.5t165.5 -454.5q0 -171 -63.5 -326.5t-170.5 -268.5t-255 -180t-310 -67zM823 74q139 0 266.5 59.5t220.5 158.5t148 236
t55 285q0 242 -138.5 389.5t-366.5 147.5q-139 0 -267 -59.5t-221 -159t-148 -235.5t-55 -284q0 -243 138.5 -390.5t367.5 -147.5z" />
    <glyph glyph-name="Ocircumflex" unicode="&#xd4;" horiz-adv-x="1609" 
d="M1120 1761l-225 -178h-107l297 248h80l199 -248h-90zM1016 1446q269 0 434.5 -172.5t165.5 -454.5q0 -171 -63.5 -326.5t-170.5 -268.5t-255 -180t-310 -67q-270 0 -436 174t-166 455q0 135 40.5 263t114.5 231.5t172.5 181.5t221 121t252.5 43zM823 74q139 0 266.5 59.5
t220.5 158.5t148 236t55 285q0 242 -138.5 389.5t-366.5 147.5q-139 0 -267 -59.5t-221 -159t-148 -235.5t-55 -284q0 -243 138.5 -390.5t367.5 -147.5z" />
    <glyph glyph-name="Otilde" unicode="&#xd5;" horiz-adv-x="1609" 
d="M1233 1604q-43 0 -80 17t-58.5 37t-52.5 37t-65 17q-83 0 -119 -106l-70 30q27 72 75.5 116t117.5 44q41 0 76.5 -17t57 -37t53.5 -37t67 -17q86 0 125 106l65 -31q-54 -159 -192 -159zM817 -23q-270 0 -436 174t-166 455q0 135 40.5 263t114.5 231.5t172.5 181.5
t221 121t252.5 43q269 0 434.5 -172.5t165.5 -454.5q0 -171 -63.5 -326.5t-170.5 -268.5t-255 -180t-310 -67zM823 74q139 0 266.5 59.5t220.5 158.5t148 236t55 285q0 242 -138.5 389.5t-366.5 147.5q-139 0 -267 -59.5t-221 -159t-148 -235.5t-55 -284
q0 -243 138.5 -390.5t367.5 -147.5z" />
    <glyph glyph-name="Odieresis" unicode="&#xd6;" horiz-adv-x="1609" 
d="M905 1610q-37 0 -59.5 23.5t-22.5 62.5q0 43 32.5 74.5t76.5 31.5q38 0 60 -23.5t22 -62.5q0 -43 -32.5 -74.5t-76.5 -31.5zM1266 1610q-37 0 -60.5 23.5t-23.5 62.5q0 43 32.5 74.5t75.5 31.5q38 0 61 -24t23 -62q0 -43 -32 -74.5t-76 -31.5zM817 -23q-270 0 -436 174
t-166 455q0 135 40.5 263t114.5 231.5t172.5 181.5t221 121t252.5 43q269 0 434.5 -172.5t165.5 -454.5q0 -171 -63.5 -326.5t-170.5 -268.5t-255 -180t-310 -67zM823 74q139 0 266.5 59.5t220.5 158.5t148 236t55 285q0 242 -138.5 389.5t-366.5 147.5q-139 0 -267 -59.5
t-221 -159t-148 -235.5t-55 -284q0 -243 138.5 -390.5t367.5 -147.5z" />
    <glyph glyph-name="multiply" unicode="&#xd7;" horiz-adv-x="956" 
d="M1024 926l-371 -318l244 -311l-68 -57l-241 311l-371 -315l-51 65l369 317l-242 312l65 55l244 -311l369 317z" />
    <glyph glyph-name="Oslash" unicode="&#xd8;" horiz-adv-x="1613" 
d="M1694 1380l-187 -172q113 -163 113 -389q0 -170 -64 -326t-171 -269t-255.5 -180t-310.5 -67q-272 0 -440 179l-186 -174l-50 61l187 174q-113 160 -113 389q0 169 64 324.5t171 268.5t255.5 180t310.5 67q279 0 440 -178l184 172zM319 612q0 -187 87 -323l976 909
q-139 152 -370 152q-139 0 -267.5 -59.5t-221.5 -159t-148.5 -235.5t-55.5 -284zM1518 813q0 188 -86 322l-977 -910q138 -151 370 -151q186 0 346 100t253.5 270.5t93.5 368.5z" />
    <glyph glyph-name="Ugrave" unicode="&#xd9;" horiz-adv-x="1370" 
d="M1204 1581l-481 180l31 78l477 -190zM682 -23q-232 0 -346 156t-68 402l172 888h99l-170 -888q-41 -212 48.5 -337.5t280.5 -125.5q180 0 301.5 110.5t161.5 311.5l180 929h97l-178 -929q-47 -249 -197.5 -383t-380.5 -134z" />
    <glyph glyph-name="Uacute" unicode="&#xda;" horiz-adv-x="1370" 
d="M770 1581l-25 70l486 186l26 -78zM682 -23q-232 0 -346 156t-68 402l172 888h99l-170 -888q-41 -212 48.5 -337.5t280.5 -125.5q180 0 301.5 110.5t161.5 311.5l180 929h97l-178 -929q-47 -249 -197.5 -383t-380.5 -134z" />
    <glyph glyph-name="Ucircumflex" unicode="&#xdb;" horiz-adv-x="1370" 
d="M995 1761l-225 -178h-106l299 248h79l197 -248h-90zM1341 1423h97l-178 -929q-47 -249 -197.5 -383t-380.5 -134q-232 0 -346 156t-68 402l172 888h99l-170 -888q-41 -212 48.5 -337.5t280.5 -125.5q180 0 301.5 110.5t161.5 311.5z" />
    <glyph glyph-name="Udieresis" unicode="&#xdc;" horiz-adv-x="1370" 
d="M791 1610q-37 0 -60.5 23.5t-23.5 62.5q0 43 32.5 74.5t75.5 31.5q38 0 61 -24t23 -62q0 -43 -32 -74.5t-76 -31.5zM1151 1610q-37 0 -60.5 23.5t-23.5 62.5q0 43 32.5 74.5t76.5 31.5q38 0 61 -24t23 -62q0 -42 -33 -74t-76 -32zM682 -23q-232 0 -346 156t-68 402
l172 888h99l-170 -888q-41 -212 48.5 -337.5t280.5 -125.5q180 0 301.5 110.5t161.5 311.5l180 929h97l-178 -929q-47 -249 -197.5 -383t-380.5 -134z" />
    <glyph glyph-name="Yacute" unicode="&#xdd;" horiz-adv-x="1214" 
d="M1174 1759l-488 -178l-24 70l485 186zM1434 1423l-684 -837l-115 -586h-98l114 596l-354 827h102l316 -745l598 745h121z" />
    <glyph glyph-name="Thorn" unicode="&#xde;" horiz-adv-x="1183" 
d="M877 1120q194 0 291.5 -105.5t68.5 -279.5q-28 -185 -166.5 -294t-339.5 -109h-391l-64 -332h-98l277 1423h98l-59 -303h383zM1135 727q25 138 -47 221.5t-230 83.5h-381l-119 -610h383q161 0 265 82.5t129 222.5z" />
    <glyph glyph-name="germandbls" unicode="&#xdf;" horiz-adv-x="1202" 
d="M719 -23q-150 0 -237.5 75.5t-96.5 197.5l49 61q2 -110 75 -179t208 -69q171 0 275 103t106 260q3 150 -85 241t-253 91l16 90q96 0 173 29.5t124 77.5t72 105.5t26 117.5q2 113 -76.5 184.5t-213.5 71.5q-164 0 -274.5 -99.5t-145.5 -281.5l-205 -1053h-98l204 1051
q43 222 184.5 344.5t354.5 122.5q181 0 279 -94.5t92 -241.5q-3 -140 -100 -242.5t-246 -132.5q123 -27 198.5 -131.5t71.5 -255.5q-6 -197 -139 -320t-338 -123z" />
    <glyph glyph-name="agrave" unicode="&#xe0;" horiz-adv-x="1325" 
d="M1092 1309l-41 -62l-387 238l45 69zM1239 1079h94l-209 -1079h-94l47 242q-83 -122 -204 -193.5t-265 -71.5q-197 0 -313.5 128t-116.5 339q0 174 80.5 324.5t223 241t313.5 90.5q155 0 256.5 -79.5t134.5 -221.5zM635 68q140 0 257.5 79t184 209.5t66.5 280.5
q0 173 -93 274t-255 101q-142 0 -262 -77t-188.5 -204.5t-68.5 -273.5q0 -174 97.5 -281.5t261.5 -107.5z" />
    <glyph glyph-name="aacute" unicode="&#xe1;" horiz-adv-x="1325" 
d="M1147 1485l-432 -234l-35 62l428 241zM1239 1079h94l-209 -1079h-94l47 242q-83 -122 -204 -193.5t-265 -71.5q-197 0 -313.5 128t-116.5 339q0 174 80.5 324.5t223 241t313.5 90.5q155 0 256.5 -79.5t134.5 -221.5zM635 68q140 0 257.5 79t184 209.5t66.5 280.5
q0 173 -93 274t-255 101q-142 0 -262 -77t-188.5 -204.5t-68.5 -273.5q0 -174 97.5 -281.5t261.5 -107.5z" />
    <glyph glyph-name="acircumflex" unicode="&#xe2;" horiz-adv-x="1325" 
d="M930 1477l-240 -215h-104l311 280h80l199 -280h-86zM1239 1079h94l-209 -1079h-94l47 242q-83 -122 -204 -193.5t-265 -71.5q-197 0 -313.5 128t-116.5 339q0 174 80.5 324.5t223 241t313.5 90.5q155 0 256.5 -79.5t134.5 -221.5zM635 68q140 0 257.5 79t184 209.5
t66.5 280.5q0 173 -93 274t-255 101q-142 0 -262 -77t-188.5 -204.5t-68.5 -273.5q0 -174 97.5 -281.5t261.5 -107.5z" />
    <glyph glyph-name="atilde" unicode="&#xe3;" horiz-adv-x="1325" 
d="M774 1415q-81 0 -117 -106l-71 30q64 160 192 160q41 0 75.5 -17t55.5 -37t52 -37t65 -17q86 0 125 106l66 -31q-54 -159 -193 -159q-42 0 -77.5 17t-57 37t-52 37t-63.5 17zM1239 1079h94l-209 -1079h-94l47 242q-83 -122 -204 -193.5t-265 -71.5q-197 0 -313.5 128
t-116.5 339q0 174 80.5 324.5t223 241t313.5 90.5q155 0 256.5 -79.5t134.5 -221.5zM635 68q140 0 257.5 79t184 209.5t66.5 280.5q0 173 -93 274t-255 101q-142 0 -262 -77t-188.5 -204.5t-68.5 -273.5q0 -174 97.5 -281.5t261.5 -107.5z" />
    <glyph glyph-name="adieresis" unicode="&#xe4;" horiz-adv-x="1325" 
d="M715 1305q-37 0 -61.5 24.5t-24.5 65.5t34 72.5t78 31.5q38 0 62 -24t24 -64q0 -41 -34 -73.5t-78 -32.5zM1067 1305q-39 0 -62.5 24.5t-23.5 65.5t33.5 72.5t77.5 31.5q39 0 62.5 -23.5t23.5 -64.5t-33.5 -73.5t-77.5 -32.5zM1239 1079h94l-209 -1079h-94l47 242
q-83 -122 -204 -193.5t-265 -71.5q-197 0 -313.5 128t-116.5 339q0 174 80.5 324.5t223 241t313.5 90.5q155 0 256.5 -79.5t134.5 -221.5zM635 68q140 0 257.5 79t184 209.5t66.5 280.5q0 173 -93 274t-255 101q-142 0 -262 -77t-188.5 -204.5t-68.5 -273.5
q0 -174 97.5 -281.5t261.5 -107.5z" />
    <glyph glyph-name="aring" unicode="&#xe5;" horiz-adv-x="1325" 
d="M858 1204q-71 0 -114.5 44.5t-43.5 113.5q0 81 60.5 137.5t144.5 56.5q71 0 114.5 -44.5t43.5 -112.5q0 -79 -61 -137t-144 -58zM897 1491q-51 0 -89 -36t-38 -89q0 -41 25.5 -68.5t68.5 -27.5q52 0 90.5 36t38.5 89q0 42 -25.5 69t-70.5 27zM1239 1079h94l-209 -1079
h-94l47 242q-83 -122 -204 -193.5t-265 -71.5q-197 0 -313.5 128t-116.5 339q0 174 80.5 324.5t223 241t313.5 90.5q155 0 256.5 -79.5t134.5 -221.5zM635 68q140 0 257.5 79t184 209.5t66.5 280.5q0 173 -93 274t-255 101q-142 0 -262 -77t-188.5 -204.5t-68.5 -273.5
q0 -174 97.5 -281.5t261.5 -107.5z" />
    <glyph glyph-name="ae" unicode="&#xe6;" horiz-adv-x="2138" 
d="M1763 1100q182 0 296 -116t114 -298q0 -35 -8.5 -91t-16.5 -81h-913q-4 -46 -4 -65q0 -171 105 -279.5t266 -108.5q136 0 240.5 67.5t170.5 195.5l72 -43q-84 -153 -205.5 -228.5t-292.5 -75.5q-162 0 -266.5 91.5t-134.5 246.5l-62 -315h-94l45 238
q-81 -120 -202 -190.5t-265 -70.5q-197 0 -313.5 128t-116.5 339q0 174 80.5 324.5t223 241t313.5 90.5q155 0 256 -77.5t137 -217.5l51 274h94l-49 -250q80 125 205 198t274 73zM1245 582h830q8 70 8 100q0 156 -89.5 248t-242.5 92q-184 0 -325 -125.5t-181 -314.5z
M635 68q140 0 257.5 79t184 209.5t66.5 280.5q0 173 -93 274t-255 101q-142 0 -262 -77t-188.5 -204.5t-68.5 -273.5q0 -174 97.5 -281.5t261.5 -107.5z" />
    <glyph glyph-name="ccedilla" unicode="&#xe7;" horiz-adv-x="1175" 
d="M645 68q133 0 239.5 69.5t170.5 202.5l84 -35q-79 -158 -203 -240.5t-285 -87.5l-59 -98q67 -7 110 -56t43 -116q0 -84 -66.5 -141.5t-168.5 -57.5q-71 0 -122 28t-77 69l51 45q17 -32 53.5 -54t90.5 -22q71 0 115.5 38t44.5 95q0 56 -34.5 92.5t-94.5 36.5h-25l-8 19
l78 125q-186 19 -295 147.5t-109 323.5q0 171 82 320t226.5 239t316.5 90q170 0 283.5 -89t130.5 -239l-97 -31q-12 124 -100 197.5t-227 73.5q-107 0 -204 -46t-165 -121.5t-108 -176.5t-40 -207q0 -173 100.5 -283t268.5 -110z" />
    <glyph glyph-name="egrave" unicode="&#xe8;" horiz-adv-x="1212" 
d="M1042 1307l-41 -62l-387 238l45 69zM797 1100q188 0 302.5 -115.5t114.5 -298.5q0 -35 -8 -91.5t-16 -80.5h-909q-5 -58 -5 -65q0 -171 102 -277t263 -106q135 0 239 67t171 193l75 -45q-86 -153 -207 -228.5t-292 -75.5q-196 0 -322.5 130.5t-126.5 330.5q0 182 82 334
t224.5 240t312.5 88zM295 596h817q6 47 6 86q0 155 -86.5 243.5t-240.5 88.5q-180 0 -316.5 -117.5t-179.5 -300.5z" />
    <glyph glyph-name="eacute" unicode="&#xe9;" horiz-adv-x="1212" 
d="M1100 1483l-432 -234l-35 62l430 241zM797 1100q188 0 302.5 -115.5t114.5 -298.5q0 -35 -8 -91.5t-16 -80.5h-909q-5 -58 -5 -65q0 -171 102 -277t263 -106q135 0 239 67t171 193l75 -45q-86 -153 -207 -228.5t-292 -75.5q-196 0 -322.5 130.5t-126.5 330.5
q0 182 82 334t224.5 240t312.5 88zM295 596h817q6 47 6 86q0 155 -86.5 243.5t-240.5 88.5q-180 0 -316.5 -117.5t-179.5 -300.5z" />
    <glyph glyph-name="ecircumflex" unicode="&#xea;" horiz-adv-x="1212" 
d="M874 1475l-239 -215h-105l312 280h80l198 -280h-86zM797 1100q188 0 302.5 -115.5t114.5 -298.5q0 -35 -8 -91.5t-16 -80.5h-909q-5 -58 -5 -65q0 -171 102 -277t263 -106q135 0 239 67t171 193l75 -45q-86 -153 -207 -228.5t-292 -75.5q-196 0 -322.5 130.5
t-126.5 330.5q0 182 82 334t224.5 240t312.5 88zM295 596h817q6 47 6 86q0 155 -86.5 243.5t-240.5 88.5q-180 0 -316.5 -117.5t-179.5 -300.5z" />
    <glyph glyph-name="edieresis" unicode="&#xeb;" horiz-adv-x="1212" 
d="M659 1303q-37 0 -61.5 24.5t-24.5 65.5t34.5 72.5t78.5 31.5q38 0 62 -24t24 -64q0 -41 -34.5 -73.5t-78.5 -32.5zM1012 1303q-39 0 -62.5 24.5t-23.5 65.5t33 72.5t77 31.5q39 0 62.5 -23.5t23.5 -64.5q0 -42 -33 -74t-77 -32zM797 1100q188 0 302.5 -115.5
t114.5 -298.5q0 -35 -8 -91.5t-16 -80.5h-909q-5 -58 -5 -65q0 -171 102 -277t263 -106q135 0 239 67t171 193l75 -45q-86 -153 -207 -228.5t-292 -75.5q-196 0 -322.5 130.5t-126.5 330.5q0 182 82 334t224.5 240t312.5 88zM295 596h817q6 47 6 86q0 155 -86.5 243.5
t-240.5 88.5q-180 0 -316.5 -117.5t-179.5 -300.5z" />
    <glyph glyph-name="igrave" unicode="&#xec;" horiz-adv-x="432" 
d="M618 1247l-387 238l45 67l383 -243zM158 0l209 1079h98l-209 -1079h-98z" />
    <glyph glyph-name="iacute" unicode="&#xed;" horiz-adv-x="432" 
d="M289 1251l-35 62l428 241l39 -69zM158 0l209 1079h98l-209 -1079h-98z" />
    <glyph glyph-name="icircumflex" unicode="&#xee;" horiz-adv-x="432" 
d="M741 1262h-86l-159 215l-240 -215h-104l309 280h82zM158 0l209 1079h98l-209 -1079h-98z" />
    <glyph glyph-name="idieresis" unicode="&#xef;" horiz-adv-x="432" 
d="M287 1305q-39 0 -62.5 24.5t-23.5 65.5t33 72.5t77 31.5q39 0 62.5 -23.5t23.5 -64.5q0 -42 -33 -74t-77 -32zM639 1305q-39 0 -63.5 24.5t-24.5 65.5t34.5 72.5t78.5 31.5q38 0 62 -24t24 -64q0 -41 -34 -73.5t-77 -32.5zM158 0l209 1079h98l-209 -1079h-98z" />
    <glyph glyph-name="eth" unicode="&#xf0;" horiz-adv-x="1247" 
d="M918 1452q171 -104 266.5 -286t95.5 -418q0 -225 -81.5 -400.5t-228 -273t-333.5 -97.5q-212 0 -337.5 130.5t-125.5 330.5q0 171 83 315t224 227t307 83q126 0 233.5 -56.5t160.5 -164.5q-18 185 -107 324t-233 220l-277 -235l-51 49l258 221q-162 72 -362 72l51 80
q216 0 389 -84l213 182l51 -49zM651 68q139 0 257.5 77.5t186.5 204.5t68 271q0 152 -109.5 253t-275.5 101q-138 0 -253.5 -68t-183 -188t-67.5 -266q0 -168 101 -276.5t276 -108.5z" />
    <glyph glyph-name="ntilde" unicode="&#xf1;" horiz-adv-x="1257" 
d="M735 1413q-80 0 -119 -106l-69 30q64 160 192 160q41 0 75.5 -17t55 -37t52 -37t65.5 -17q84 0 123 106l68 -31q-57 -159 -193 -159q-43 0 -78.5 17t-56.5 37t-51.5 37t-63.5 17zM846 1102q197 0 296 -121.5t58 -333.5l-127 -647h-98l123 633q34 182 -44.5 280.5
t-242.5 98.5q-158 0 -278 -101.5t-150 -255.5l-127 -655h-98l209 1079h94l-37 -200q66 100 177 161.5t245 61.5z" />
    <glyph glyph-name="ograve" unicode="&#xf2;" horiz-adv-x="1277" 
d="M1044 1245l-387 238l45 69l383 -245zM641 -23q-210 0 -336.5 127.5t-126.5 341.5q0 128 48 247.5t130 209t199.5 143.5t249.5 54q208 0 335.5 -127t127.5 -342q0 -127 -47 -246t-129 -209t-200 -144.5t-251 -54.5zM653 68q144 0 263.5 80t185 207.5t65.5 269.5
q0 175 -101 281t-271 106q-145 0 -265.5 -79.5t-187 -206.5t-66.5 -267q0 -175 103.5 -283t273.5 -108z" />
    <glyph glyph-name="oacute" unicode="&#xf3;" horiz-adv-x="1277" 
d="M694 1249l-35 62l428 241l39 -69zM641 -23q-210 0 -336.5 127.5t-126.5 341.5q0 128 48 247.5t130 209t199.5 143.5t249.5 54q208 0 335.5 -127t127.5 -342q0 -127 -47 -246t-129 -209t-200 -144.5t-251 -54.5zM653 68q144 0 263.5 80t185 207.5t65.5 269.5
q0 175 -101 281t-271 106q-145 0 -265.5 -79.5t-187 -206.5t-66.5 -267q0 -175 103.5 -283t273.5 -108z" />
    <glyph glyph-name="ocircumflex" unicode="&#xf4;" horiz-adv-x="1277" 
d="M897 1475l-240 -215h-104l309 280h80l201 -280h-88zM805 1100q208 0 335.5 -127t127.5 -342q0 -127 -47 -246t-129 -209t-200 -144.5t-251 -54.5q-210 0 -336.5 127.5t-126.5 341.5q0 128 48 247.5t130 209t199.5 143.5t249.5 54zM653 68q144 0 263.5 80t185 207.5
t65.5 269.5q0 175 -101 281t-271 106q-145 0 -265.5 -79.5t-187 -206.5t-66.5 -267q0 -175 103.5 -283t273.5 -108z" />
    <glyph glyph-name="otilde" unicode="&#xf5;" horiz-adv-x="1277" 
d="M991 1305q-42 0 -77.5 17t-57 37t-52 37t-63.5 17q-80 0 -116 -106l-72 30q64 160 192 160q41 0 75.5 -17t55.5 -37t52 -37t65 -17q83 0 125 106l66 -31q-57 -159 -193 -159zM641 -23q-210 0 -336.5 127.5t-126.5 341.5q0 128 48 247.5t130 209t199.5 143.5t249.5 54
q208 0 335.5 -127t127.5 -342q0 -127 -47 -246t-129 -209t-200 -144.5t-251 -54.5zM653 68q144 0 263.5 80t185 207.5t65.5 269.5q0 175 -101 281t-271 106q-145 0 -265.5 -79.5t-187 -206.5t-66.5 -267q0 -175 103.5 -283t273.5 -108z" />
    <glyph glyph-name="odieresis" unicode="&#xf6;" horiz-adv-x="1277" 
d="M680 1303q-39 0 -63.5 24.5t-24.5 65.5t34.5 72.5t78.5 31.5q39 0 62.5 -23.5t23.5 -64.5t-34 -73.5t-77 -32.5zM1030 1303q-39 0 -62.5 24.5t-23.5 65.5t34 72.5t77 31.5q39 0 63.5 -23.5t24.5 -64.5t-34.5 -73.5t-78.5 -32.5zM641 -23q-210 0 -336.5 127.5
t-126.5 341.5q0 128 48 247.5t130 209t199.5 143.5t249.5 54q208 0 335.5 -127t127.5 -342q0 -127 -47 -246t-129 -209t-200 -144.5t-251 -54.5zM653 68q144 0 263.5 80t185 207.5t65.5 269.5q0 175 -101 281t-271 106q-145 0 -265.5 -79.5t-187 -206.5t-66.5 -267
q0 -175 103.5 -283t273.5 -108z" />
    <glyph glyph-name="divide" unicode="&#xf7;" horiz-adv-x="950" 
d="M653 895q-34 0 -56 21.5t-22 56.5q0 40 28.5 68t68.5 28q35 0 57.5 -21.5t22.5 -56.5q0 -40 -29 -68t-70 -28zM172 578l18 86h826l-19 -86h-825zM510 143q-34 0 -56 21.5t-22 56.5q0 40 28 68t68 28q36 0 58 -21t22 -56q0 -40 -28.5 -68.5t-69.5 -28.5z" />
    <glyph glyph-name="oslash" unicode="&#xf8;" horiz-adv-x="1251" 
d="M1386 999l-169 -131q51 -105 51 -237q0 -127 -47 -246t-128 -209.5t-199 -144.5t-251 -54q-240 0 -369 164l-155 -121l-39 58l158 121q-58 110 -58 247q0 128 48 247.5t130 209t199 143.5t248 54q122 0 218.5 -44.5t156.5 -127.5l168 129zM279 459q0 -113 43 -195
l778 602q-100 146 -303 146q-109 0 -206.5 -47t-165 -124t-107 -177t-39.5 -205zM1169 625q0 105 -34 180l-779 -600q105 -137 299 -137q144 0 263.5 80t185 207.5t65.5 269.5z" />
    <glyph glyph-name="ugrave" unicode="&#xf9;" horiz-adv-x="1234" 
d="M1032 1309l-41 -62l-387 238l45 69zM1149 1079h98l-209 -1079h-94l41 209q-64 -103 -174.5 -167.5t-241.5 -64.5q-189 0 -286.5 122.5t-57.5 332.5l127 647h99l-123 -633q-34 -181 42.5 -279.5t233.5 -98.5q146 0 262.5 94t153.5 239z" />
    <glyph glyph-name="uacute" unicode="&#xfa;" horiz-adv-x="1234" 
d="M1096 1485l-432 -234l-35 62l428 241zM1149 1079h98l-209 -1079h-94l41 209q-64 -103 -174.5 -167.5t-241.5 -64.5q-189 0 -286.5 122.5t-57.5 332.5l127 647h99l-123 -633q-34 -181 42.5 -279.5t233.5 -98.5q146 0 262.5 94t153.5 239z" />
    <glyph glyph-name="ucircumflex" unicode="&#xfb;" horiz-adv-x="1234" 
d="M862 1477l-239 -215h-105l311 280h80l199 -280h-86zM1149 1079h98l-209 -1079h-94l41 209q-64 -103 -174.5 -167.5t-241.5 -64.5q-189 0 -286.5 122.5t-57.5 332.5l127 647h99l-123 -633q-34 -181 42.5 -279.5t233.5 -98.5q146 0 262.5 94t153.5 239z" />
    <glyph glyph-name="udieresis" unicode="&#xfc;" horiz-adv-x="1234" 
d="M655 1305q-37 0 -61.5 24.5t-24.5 65.5t34 72.5t77 31.5q39 0 63.5 -23.5t24.5 -64.5t-34.5 -73.5t-78.5 -32.5zM1008 1305q-39 0 -62.5 24.5t-23.5 65.5t33 72.5t77 31.5q39 0 62.5 -23.5t23.5 -64.5q0 -42 -33 -74t-77 -32zM1149 1079h98l-209 -1079h-94l41 209
q-64 -103 -174.5 -167.5t-241.5 -64.5q-189 0 -286.5 122.5t-57.5 332.5l127 647h99l-123 -633q-34 -181 42.5 -279.5t233.5 -98.5q146 0 262.5 94t153.5 239z" />
    <glyph glyph-name="yacute" unicode="&#xfd;" horiz-adv-x="1087" 
d="M1032 1485l-432 -234l-35 62l428 241zM1126 1079h111l-885 -1446h-102l229 367h-6l-244 1079h101l211 -979z" />
    <glyph glyph-name="thorn" unicode="&#xfe;" horiz-adv-x="1288" 
d="M899 1100q145 0 248 -72.5t143.5 -201t9.5 -287.5q-46 -239 -224 -400.5t-396 -161.5q-144 0 -242 72t-135 199l-119 -615h-98l363 1864h98l-129 -668q88 127 213.5 199t267.5 72zM1202 539q40 201 -54.5 337t-275.5 136q-186 0 -330 -133t-184 -340t53 -339t279 -132
q179 0 326.5 136t185.5 335z" />
    <glyph glyph-name="ydieresis" unicode="&#xff;" horiz-adv-x="1087" 
d="M584 1305q-37 0 -61.5 24.5t-24.5 65.5t34 72.5t78 31.5q38 0 62 -24t24 -64q0 -41 -34 -73.5t-78 -32.5zM936 1305q-39 0 -62.5 24.5t-23.5 65.5t33.5 72.5t77.5 31.5q39 0 62.5 -23.5t23.5 -64.5t-33.5 -73.5t-77.5 -32.5zM1126 1079h111l-885 -1446h-102l229 367h-6
l-244 1079h101l211 -979z" />
    <glyph glyph-name="Amacron" unicode="&#x100;" horiz-adv-x="1249" 
d="M674 1749h549l-17 -84h-549zM821 1423h117l246 -1423h-94l-80 467h-621l-260 -467h-106zM436 551h559l-133 766z" />
    <glyph glyph-name="amacron" unicode="&#x101;" horiz-adv-x="1325" 
d="M1178 1442l-17 -80h-534l14 80h537zM1239 1079h94l-209 -1079h-94l47 242q-83 -122 -204 -193.5t-265 -71.5q-197 0 -313.5 128t-116.5 339q0 174 80.5 324.5t223 241t313.5 90.5q155 0 256.5 -79.5t134.5 -221.5zM635 68q140 0 257.5 79t184 209.5t66.5 280.5
q0 173 -93 274t-255 101q-142 0 -262 -77t-188.5 -204.5t-68.5 -273.5q0 -174 97.5 -281.5t261.5 -107.5z" />
    <glyph glyph-name="Abreve" unicode="&#x102;" horiz-adv-x="1249" 
d="M930 1583q-118 0 -178.5 75.5t-40.5 172.5h84q-13 -69 24.5 -119.5t116.5 -50.5q77 0 134 50t69 120h84q-20 -105 -99 -176.5t-194 -71.5zM821 1423h117l246 -1423h-94l-80 467h-621l-260 -467h-106zM436 551h559l-133 766z" />
    <glyph glyph-name="abreve" unicode="&#x103;" horiz-adv-x="1325" 
d="M887 1262q-84 0 -141.5 43.5t-77.5 107t-6 129.5h79q-9 -49 2.5 -93.5t50 -77t99.5 -32.5q93 0 150 62t71 141h82q-11 -54 -33.5 -102t-59 -89t-92.5 -65t-124 -24zM1239 1079h94l-209 -1079h-94l47 242q-83 -122 -204 -193.5t-265 -71.5q-197 0 -313.5 128t-116.5 339
q0 174 80.5 324.5t223 241t313.5 90.5q155 0 256.5 -79.5t134.5 -221.5zM635 68q140 0 257.5 79t184 209.5t66.5 280.5q0 173 -93 274t-255 101q-142 0 -262 -77t-188.5 -204.5t-68.5 -273.5q0 -174 97.5 -281.5t261.5 -107.5z" />
    <glyph glyph-name="Aogonek" unicode="&#x104;" horiz-adv-x="1249" 
d="M1034 -389q69 0 113 47l33 -47q-70 -70 -164 -70q-69 0 -110.5 39t-41.5 105q0 76 54.5 143.5t144.5 138.5l41 33h-14l-80 467h-621l-260 -467h-106l798 1423h117l246 -1423l-82 -72q-51 -44 -81 -74.5t-53.5 -72t-23.5 -82.5q0 -43 23.5 -65.5t66.5 -22.5zM436 551h559
l-133 766z" />
    <glyph glyph-name="aogonek" unicode="&#x105;" horiz-adv-x="1325" 
d="M1042 -72q-79 -68 -119 -119.5t-40 -109.5q0 -42 24.5 -65t67.5 -23q66 0 110 47l35 -47q-70 -70 -164 -70q-70 0 -111.5 39t-41.5 105q0 76 55 144t146 138l40 33h-14l47 242q-83 -122 -204 -193.5t-265 -71.5q-197 0 -313.5 128t-116.5 339q0 174 80.5 324.5t223 241
t313.5 90.5q155 0 256.5 -79.5t134.5 -221.5l53 280h94l-209 -1079zM635 68q140 0 257.5 79t184 209.5t66.5 280.5q0 173 -93 274t-255 101q-142 0 -262 -77t-188.5 -204.5t-68.5 -273.5q0 -174 97.5 -281.5t261.5 -107.5z" />
    <glyph glyph-name="Cacute" unicode="&#x106;" horiz-adv-x="1488" 
d="M860 1581l-24 70l483 186l27 -78zM803 -23q-261 0 -424.5 167t-163.5 431q0 137 36.5 266.5t107 238.5t165.5 191.5t219 128.5t261 46q225 0 374 -126t181 -319l-101 -32q-32 172 -153.5 276.5t-315.5 104.5q-146 0 -273 -63.5t-213.5 -169t-136 -244.5t-49.5 -289
q0 -226 137 -368t361 -142q192 0 324 92.5t233 290.5l88 -41q-113 -223 -270 -331t-387 -108z" />
    <glyph glyph-name="cacute" unicode="&#x107;" horiz-adv-x="1175" 
d="M705 1251l-37 62l430 241l37 -69zM635 -23q-208 0 -332.5 132t-124.5 342q0 171 82 320t226.5 239t316.5 90q170 0 283.5 -89t130.5 -239l-97 -31q-12 124 -100 197.5t-227 73.5q-107 0 -204 -46t-165 -121.5t-108 -176.5t-40 -207q0 -173 100.5 -283t268.5 -110
q133 0 239.5 69.5t170.5 202.5l84 -35q-81 -162 -209.5 -245t-294.5 -83z" />
    <glyph glyph-name="Cdotaccent" unicode="&#x10a;" horiz-adv-x="1488" 
d="M1069 1610q-37 0 -61.5 24.5t-24.5 61.5q0 43 31.5 73.5t75.5 30.5q37 0 61.5 -24.5t24.5 -61.5q0 -41 -32 -72.5t-75 -31.5zM803 -23q-261 0 -424.5 167t-163.5 431q0 137 36.5 266.5t107 238.5t165.5 191.5t219 128.5t261 46q225 0 374 -126t181 -319l-101 -32
q-32 172 -153.5 276.5t-315.5 104.5q-146 0 -273 -63.5t-213.5 -169t-136 -244.5t-49.5 -289q0 -226 137 -368t361 -142q192 0 324 92.5t233 290.5l88 -41q-113 -223 -270 -331t-387 -108z" />
    <glyph glyph-name="cdotaccent" unicode="&#x10b;" horiz-adv-x="1175" 
d="M850 1303q-41 0 -66.5 24.5t-25.5 63.5q0 47 35 80.5t81 33.5q41 0 67 -25.5t26 -62.5q0 -47 -35.5 -80.5t-81.5 -33.5zM635 -23q-208 0 -332.5 132t-124.5 342q0 171 82 320t226.5 239t316.5 90q170 0 283.5 -89t130.5 -239l-97 -31q-12 124 -100 197.5t-227 73.5
q-107 0 -204 -46t-165 -121.5t-108 -176.5t-40 -207q0 -173 100.5 -283t268.5 -110q133 0 239.5 69.5t170.5 202.5l84 -35q-81 -162 -209.5 -245t-294.5 -83z" />
    <glyph glyph-name="Ccaron" unicode="&#x10c;" horiz-adv-x="1488" 
d="M1092 1583h-80l-199 248h90l154 -180l225 180h107zM815 74q192 0 324 92.5t233 290.5l88 -41q-113 -223 -270 -331t-387 -108q-261 0 -424.5 167t-163.5 431q0 137 36.5 266.5t107 238.5t165.5 191.5t219 128.5t261 46q225 0 374 -126t181 -319l-101 -32
q-32 172 -153.5 276.5t-315.5 104.5q-146 0 -273 -63.5t-213.5 -169t-136 -244.5t-49.5 -289q0 -226 137 -368t361 -142z" />
    <glyph glyph-name="ccaron" unicode="&#x10d;" horiz-adv-x="1175" 
d="M879 1262h-80l-199 280h90l154 -217l241 217h105zM645 68q133 0 239.5 69.5t170.5 202.5l84 -35q-81 -162 -209.5 -245t-294.5 -83q-208 0 -332.5 132t-124.5 342q0 171 82 320t226.5 239t316.5 90q170 0 283.5 -89t130.5 -239l-97 -31q-12 124 -100 197.5t-227 73.5
q-107 0 -204 -46t-165 -121.5t-108 -176.5t-40 -207q0 -173 100.5 -283t268.5 -110z" />
    <glyph glyph-name="Dcaron" unicode="&#x10e;" horiz-adv-x="1464" 
d="M1020 1583h-80l-197 246h88l154 -178l227 178h105zM895 1423q264 0 422 -164t158 -438q0 -167 -62.5 -319t-168.5 -262t-254 -175t-312 -65h-500l277 1423h440zM688 88q184 0 342 99.5t250 268t92 363.5q0 236 -132.5 376t-356.5 140h-346l-244 -1247h395z" />
    <glyph glyph-name="dcaron" unicode="&#x10f;" horiz-adv-x="1384" 
d="M1184 815l133 682h98l-291 -1497h-94l45 238q-81 -120 -202 -190.5t-265 -70.5q-197 0 -313.5 128t-116.5 339q0 174 80.5 324.5t223 241t313.5 90.5q151 0 251.5 -75t137.5 -210zM1634 1497h82l-131 -432h-72zM635 68q140 0 257.5 79t184 209.5t66.5 280.5
q0 173 -93 274t-255 101q-142 0 -262 -77t-188.5 -204.5t-68.5 -273.5q0 -174 97.5 -281.5t261.5 -107.5z" />
    <glyph glyph-name="Dcroat" unicode="&#x110;" horiz-adv-x="1476" 
d="M907 1423q264 0 422 -164t158 -438q0 -167 -62.5 -319t-168.5 -262t-254 -175t-312 -65h-500l138 707h-181l15 75h180l125 641h440zM700 88q184 0 342 99.5t250 268t92 363.5q0 236 -132.5 376t-358.5 140h-344l-109 -553h297l-14 -75h-297l-121 -619h395z" />
    <glyph glyph-name="dcroat" unicode="&#x111;" horiz-adv-x="1325" 
d="M1556 1311l-14 -76h-178l-240 -1235h-94l45 238q-81 -120 -202 -190.5t-265 -70.5q-197 0 -313.5 128t-116.5 339q0 174 80.5 324.5t223 241t313.5 90.5q151 0 251.5 -75t137.5 -210l82 420h-301l14 76h301l37 186h98l-37 -186h178zM635 68q140 0 257.5 79t184 209.5
t66.5 280.5q0 173 -93 274t-255 101q-142 0 -262 -77t-188.5 -204.5t-68.5 -273.5q0 -174 97.5 -281.5t261.5 -107.5z" />
    <glyph glyph-name="Emacron" unicode="&#x112;" horiz-adv-x="1132" 
d="M1204 1749l-16 -84h-547l14 84h549zM1266 1335h-729l-107 -547h666l-19 -88h-663l-119 -612h741l-16 -88h-842l277 1423h827z" />
    <glyph glyph-name="emacron" unicode="&#x113;" horiz-adv-x="1212" 
d="M1126 1438l-14 -80h-534l14 80h534zM797 1100q188 0 302.5 -115.5t114.5 -298.5q0 -35 -8 -91.5t-16 -80.5h-909q-5 -58 -5 -65q0 -171 102 -277t263 -106q135 0 239 67t171 193l75 -45q-86 -153 -207 -228.5t-292 -75.5q-196 0 -322.5 130.5t-126.5 330.5q0 182 82 334
t224.5 240t312.5 88zM295 596h817q6 47 6 86q0 155 -86.5 243.5t-240.5 88.5q-180 0 -316.5 -117.5t-179.5 -300.5z" />
    <glyph glyph-name="Edotaccent" unicode="&#x116;" horiz-adv-x="1132" 
d="M901 1610q-37 0 -62.5 24.5t-25.5 61.5q0 43 31.5 73.5t75.5 30.5q38 0 63 -24.5t25 -61.5q0 -41 -32 -72.5t-75 -31.5zM1266 1335h-729l-107 -547h666l-19 -88h-663l-119 -612h741l-16 -88h-842l277 1423h827z" />
    <glyph glyph-name="edotaccent" unicode="&#x117;" horiz-adv-x="1212" 
d="M844 1300q-41 0 -65.5 25t-24.5 64q0 47 34.5 80.5t81.5 33.5q40 0 65.5 -25.5t25.5 -62.5q0 -47 -35 -81t-82 -34zM797 1100q188 0 302.5 -115.5t114.5 -298.5q0 -35 -8 -91.5t-16 -80.5h-909q-5 -58 -5 -65q0 -171 102 -277t263 -106q135 0 239 67t171 193l75 -45
q-86 -153 -207 -228.5t-292 -75.5q-196 0 -322.5 130.5t-126.5 330.5q0 182 82 334t224.5 240t312.5 88zM295 596h817q6 47 6 86q0 155 -86.5 243.5t-240.5 88.5q-180 0 -316.5 -117.5t-179.5 -300.5z" />
    <glyph glyph-name="Eogonek" unicode="&#x118;" horiz-adv-x="1132" 
d="M1266 1335h-729l-107 -547h666l-19 -88h-663l-119 -612h741l-16 -88l-84 -72q-39 -34 -61.5 -56t-48 -52.5t-37 -60t-11.5 -60.5q0 -42 24.5 -65t67.5 -23q67 0 111 47l33 -47q-67 -70 -164 -70q-69 0 -110.5 39t-41.5 105q0 76 55 144t146 138l41 33h-762l277 1423h827z
" />
    <glyph glyph-name="eogonek" unicode="&#x119;" horiz-adv-x="1212" 
d="M797 1100q188 0 302.5 -115.5t114.5 -298.5q0 -35 -8 -91.5t-16 -80.5h-909q-5 -58 -5 -65q0 -171 102 -277t263 -106q135 0 239 67t171 193l75 -45q-121 -217 -317 -279l-76 -65q-79 -68 -119.5 -120t-40.5 -110q0 -43 24.5 -65.5t68.5 -22.5q69 0 110 47l33 -49
q-68 -68 -164 -68q-69 0 -110 39t-41 105q0 76 55 144.5t145 137.5l8 7q-62 -5 -75 -5q-196 0 -322.5 130.5t-126.5 330.5q0 182 82 334t224.5 240t312.5 88zM295 596h817q6 47 6 86q0 155 -86.5 243.5t-240.5 88.5q-180 0 -316.5 -117.5t-179.5 -300.5z" />
    <glyph glyph-name="Ecaron" unicode="&#x11a;" horiz-adv-x="1132" 
d="M928 1583h-80l-199 248h90l154 -180l225 180h107zM1266 1335h-729l-107 -547h666l-19 -88h-663l-119 -612h741l-16 -88h-842l277 1423h827z" />
    <glyph glyph-name="ecaron" unicode="&#x11b;" horiz-adv-x="1212" 
d="M866 1260h-80l-198 280h88l155 -217l242 217h105zM797 1100q188 0 302.5 -115.5t114.5 -298.5q0 -35 -8 -91.5t-16 -80.5h-909q-5 -58 -5 -65q0 -171 102 -277t263 -106q135 0 239 67t171 193l75 -45q-86 -153 -207 -228.5t-292 -75.5q-196 0 -322.5 130.5t-126.5 330.5
q0 182 82 334t224.5 240t312.5 88zM295 596h817q6 47 6 86q0 155 -86.5 243.5t-240.5 88.5q-180 0 -316.5 -117.5t-179.5 -300.5z" />
    <glyph glyph-name="Gbreve" unicode="&#x11e;" horiz-adv-x="1570" 
d="M1059 1583q-119 0 -179 75t-42 173h84q-13 -69 24.5 -119.5t118.5 -50.5q77 0 133 49.5t70 120.5h84q-20 -105 -99 -176.5t-194 -71.5zM1579 723q-63 -353 -266 -549.5t-502 -196.5q-270 0 -433 168t-163 447q0 232 104.5 428.5t285.5 311t396 114.5q221 0 375 -120
t189 -318l-101 -33q-31 175 -157 275t-316 100q-182 0 -338 -101t-247 -273.5t-91 -375.5q0 -243 138 -386.5t370 -143.5q233 0 401.5 150.5t239.5 422.5h-573l16 80h672z" />
    <glyph glyph-name="gbreve" unicode="&#x11f;" horiz-adv-x="1325" 
d="M872 1262q-83 0 -140 43.5t-77.5 107t-7.5 129.5h82q-15 -77 23.5 -140t128.5 -63q93 0 150 62t71 141h82q-11 -54 -34 -102t-60 -89t-93.5 -65t-124.5 -24zM1243 1079h94l-186 -952q-50 -255 -199 -385.5t-393 -130.5q-187 0 -307 89t-143 251l88 29q15 -136 113 -210.5
t255 -74.5q197 0 324 108.5t168 317.5l28 145q-82 -126 -206.5 -200t-270.5 -74q-196 0 -313 126.5t-117 332.5q0 172 81 321t224 238.5t312 89.5q156 0 258.5 -78.5t136.5 -220.5zM635 74q140 0 257.5 78.5t184 208.5t66.5 278q0 172 -93 272.5t-255 100.5
q-142 0 -262 -76.5t-188.5 -203t-68.5 -271.5q0 -173 97.5 -280t261.5 -107z" />
    <glyph glyph-name="Gdotaccent" unicode="&#x120;" horiz-adv-x="1570" 
d="M1053 1610q-36 0 -61 25t-25 61q0 43 31 73.5t75 30.5q37 0 61.5 -24.5t24.5 -61.5q0 -41 -31.5 -72.5t-74.5 -31.5zM1579 723q-63 -353 -266 -549.5t-502 -196.5q-270 0 -433 168t-163 447q0 232 104.5 428.5t285.5 311t396 114.5q221 0 375 -120t189 -318l-101 -33
q-31 175 -157 275t-316 100q-182 0 -338 -101t-247 -273.5t-91 -375.5q0 -243 138 -386.5t370 -143.5q233 0 401.5 150.5t239.5 422.5h-573l16 80h672z" />
    <glyph glyph-name="gdotaccent" unicode="&#x121;" horiz-adv-x="1325" 
d="M862 1303q-41 0 -65.5 24.5t-24.5 63.5q0 47 34.5 80.5t82.5 33.5q40 0 65 -25t25 -63q0 -47 -34.5 -80.5t-82.5 -33.5zM1243 1079h94l-186 -952q-50 -255 -199 -385.5t-393 -130.5q-187 0 -307 89t-143 251l88 29q15 -136 113 -210.5t255 -74.5q197 0 324 108.5
t168 317.5l28 145q-82 -126 -206.5 -200t-270.5 -74q-196 0 -313 126.5t-117 332.5q0 172 81 321t224 238.5t312 89.5q156 0 258.5 -78.5t136.5 -220.5zM635 74q140 0 257.5 78.5t184 208.5t66.5 278q0 172 -93 272.5t-255 100.5q-142 0 -262 -76.5t-188.5 -203
t-68.5 -271.5q0 -173 97.5 -280t261.5 -107z" />
    <glyph glyph-name="uni0122" unicode="&#x122;" horiz-adv-x="1570" 
d="M1579 723q-63 -353 -266 -549.5t-502 -196.5q-270 0 -433 168t-163 447q0 232 104.5 428.5t285.5 311t396 114.5q221 0 375 -120t189 -318l-101 -33q-31 175 -157 275t-316 100q-182 0 -338 -101t-247 -273.5t-91 -375.5q0 -243 138 -386.5t370 -143.5q233 0 401.5 150.5
t239.5 422.5h-573l16 80h672zM758 -102q35 0 55.5 -19.5t20.5 -52.5q0 -50 -66 -137l-109 -144l-47 27l103 143l10 15q-27 3 -44 23t-17 50q0 38 27.5 66.5t66.5 28.5z" />
    <glyph glyph-name="uni0123" unicode="&#x123;" horiz-adv-x="1325" 
d="M825 1239q-33 0 -54 20.5t-21 53.5q0 27 15.5 57.5t51.5 79.5l107 143l47 -28l-101 -142q-2 -3 -5.5 -7.5t-4.5 -6.5q27 -3 44.5 -23.5t17.5 -52.5q0 -37 -29 -65.5t-68 -28.5zM1243 1079h94l-186 -952q-50 -255 -199 -385.5t-393 -130.5q-187 0 -307 89t-143 251l88 29
q15 -136 113 -210.5t255 -74.5q197 0 324 108.5t168 317.5l28 145q-82 -126 -206.5 -200t-270.5 -74q-196 0 -313 126.5t-117 332.5q0 172 81 321t224 238.5t312 89.5q156 0 258.5 -78.5t136.5 -220.5zM635 74q140 0 257.5 78.5t184 208.5t66.5 278q0 172 -93 272.5
t-255 100.5q-142 0 -262 -76.5t-188.5 -203t-68.5 -271.5q0 -173 97.5 -280t261.5 -107z" />
    <glyph glyph-name="Hbar" unicode="&#x126;" horiz-adv-x="1421" 
d="M1542 1161l-14 -82h-133l-209 -1079h-99l136 698h-801l-135 -698h-99l209 1079h-129l15 82h131l51 262h98l-51 -262h801l51 262h98l-51 -262h131zM1241 788l55 291h-800l-56 -291h801z" />
    <glyph glyph-name="hbar" unicode="&#x127;" horiz-adv-x="1257" 
d="M846 1102q197 0 296 -121.5t58 -333.5l-127 -647h-98l123 633q34 182 -44.5 280.5t-242.5 98.5q-158 0 -278 -101.5t-150 -255.5l-127 -655h-98l239 1235h-168l15 76h168l37 186h98l-37 -186h309l-14 -76h-309l-68 -350q66 98 175.5 157.5t242.5 59.5z" />
    <glyph glyph-name="Itilde" unicode="&#x128;" horiz-adv-x="477" 
d="M651 1604q-37 0 -67.5 17t-48.5 37t-44.5 37t-54.5 17q-69 0 -100 -106l-60 30q53 160 164 160q34 0 64 -17t48 -37t45 -37t56 -17q74 0 105 106l57 -31q-50 -159 -164 -159zM178 0l277 1423h98l-277 -1423h-98z" />
    <glyph glyph-name="itilde" unicode="&#x129;" horiz-adv-x="432" 
d="M575 1307q-34 0 -63 17t-45.5 37t-41.5 37t-52 17q-69 0 -97 -106l-57 30q53 160 156 160q33 0 61.5 -17t45.5 -37t42.5 -37t53.5 -17q70 0 98 104l55 -31q-47 -157 -156 -157zM158 0l209 1079h98l-209 -1079h-98z" />
    <glyph glyph-name="Imacron" unicode="&#x12a;" horiz-adv-x="477" 
d="M270 1665l13 84h430l-13 -84h-430zM178 0l277 1423h98l-277 -1423h-98z" />
    <glyph glyph-name="imacron" unicode="&#x12b;" horiz-adv-x="432" 
d="M250 1362l12 78h428l-12 -78h-428zM158 0l209 1079h98l-209 -1079h-98z" />
    <glyph glyph-name="Iogonek" unicode="&#x12e;" horiz-adv-x="477" 
d="M195 -72q-39 -34 -61.5 -56t-48 -52.5t-37 -60t-11.5 -60.5q0 -43 24 -65.5t68 -22.5q67 0 111 47l32 -47q-67 -70 -163 -70q-69 0 -110.5 39t-41.5 105q0 76 55 144t146 138l41 33h-21l277 1423h98l-277 -1423z" />
    <glyph glyph-name="iogonek" unicode="&#x12f;" horiz-adv-x="436" 
d="M492 1505q41 0 66.5 -25.5t25.5 -64.5q0 -46 -35 -79t-82 -33q-41 0 -66.5 24.5t-25.5 63.5q0 45 35.5 79.5t81.5 34.5zM158 0l209 1079h98l-209 -1079l-82 -72q-51 -44 -81 -74.5t-53.5 -72t-23.5 -82.5q0 -43 23.5 -65.5t66.5 -22.5q66 0 113 47l33 -47
q-70 -70 -164 -70q-69 0 -111.5 39t-42.5 105q0 40 17 80t49.5 77t62.5 64.5t72 60.5l41 33h-18z" />
    <glyph glyph-name="Idotaccent" unicode="&#x130;" horiz-adv-x="477" 
d="M555 1610q-37 0 -62.5 24.5t-25.5 61.5q0 43 31 73.5t75 30.5q38 0 63.5 -24.5t25.5 -61.5q0 -41 -32 -72.5t-75 -31.5zM178 0l277 1423h98l-277 -1423h-98z" />
    <glyph glyph-name="dotlessi" unicode="&#x131;" horiz-adv-x="419" 
d="M158 0l209 1079h98l-209 -1079h-98z" />
    <glyph glyph-name="IJ" unicode="&#x132;" horiz-adv-x="1153" 
d="M178 0l277 1423h98l-277 -1423h-98zM522 0l17 88h96q113 0 192.5 70.5t102.5 191.5l209 1073h98l-211 -1083q-31 -162 -134.5 -251t-260.5 -89h-109z" />
    <glyph glyph-name="ij" unicode="&#x133;" horiz-adv-x="878" 
d="M467 1303q-41 0 -66.5 24.5t-25.5 63.5q0 45 35.5 79.5t81.5 34.5q41 0 66.5 -25.5t25.5 -64.5q0 -46 -35 -79t-82 -33zM915 1300q-41 0 -66.5 26t-25.5 63q0 47 35.5 80.5t81.5 33.5q41 0 66.5 -24.5t25.5 -63.5q0 -47 -35.5 -81t-81.5 -34zM158 0l209 1079h98
l-209 -1079h-98zM266 -369l19 88h28q105 0 184.5 72.5t102.5 194.5l213 1093h98l-213 -1093q-32 -168 -139.5 -261.5t-257.5 -93.5h-35z" />
    <glyph glyph-name="uni0136" unicode="&#x136;" horiz-adv-x="1216" 
d="M1389 1423l-865 -680l670 -743h-119l-657 723l-142 -723h-98l277 1423h98l-125 -643l825 643h136zM625 -102q35 0 55 -19.5t20 -52.5q0 -51 -65 -137l-109 -144l-47 27l103 143l10 15q-27 3 -44.5 23t-17.5 50q0 37 28 66t67 29z" />
    <glyph glyph-name="uni0137" unicode="&#x137;" horiz-adv-x="1001" 
d="M1161 1079l-684 -497l496 -582h-113l-493 569l-111 -569h-98l291 1497h98l-172 -883l651 465h135zM530 -102q34 0 55 -20t21 -52q0 -29 -16 -59.5t-51 -77.5l-107 -144l-47 27l100 143q2 3 6 8t5 7q-27 3 -44.5 23t-17.5 50q0 37 28.5 66t67.5 29z" />
    <glyph glyph-name="kgreenlandic" unicode="&#x138;" horiz-adv-x="972" 
d="M1163 1079l-696 -526l506 -553h-119l-496 526l-102 -526h-98l209 1079h98l-98 -504l671 504h125z" />
    <glyph glyph-name="Lacute" unicode="&#x139;" horiz-adv-x="1069" 
d="M825 1759l-485 -178l-25 70l484 186zM295 90h729l-16 -90h-830l277 1423h98z" />
    <glyph glyph-name="lacute" unicode="&#x13a;" horiz-adv-x="432" 
d="M319 1655l-24 69l485 187l27 -78zM158 0l291 1497h98l-291 -1497h-98z" />
    <glyph glyph-name="uni013B" unicode="&#x13b;" horiz-adv-x="1069" 
d="M295 90h729l-16 -90h-830l277 1423h98zM586 -102q34 0 55 -20t21 -52q0 -29 -16 -59t-52 -78l-107 -144l-47 27l103 143q1 2 3 5.5t3.5 5.5t3.5 4q-28 3 -46 23t-18 50q0 37 29 66t68 29z" />
    <glyph glyph-name="uni013C" unicode="&#x13c;" horiz-adv-x="432" 
d="M547 1497l-291 -1497h-98l291 1497h98zM186 -102q34 0 55 -20t21 -52q0 -29 -16 -59.5t-51 -77.5l-107 -144l-47 27l100 143q2 3 6 8t5 7q-27 3 -44.5 23t-17.5 50q0 37 28.5 66t67.5 29z" />
    <glyph glyph-name="Lcaron" unicode="&#x13d;" horiz-adv-x="1073" 
d="M1122 1444l-129 -432h-71l120 432h80zM553 1423l-258 -1333h729l-16 -90h-830l277 1423h98z" />
    <glyph glyph-name="lcaron" unicode="&#x13e;" horiz-adv-x="489" 
d="M158 0l291 1497h98l-291 -1497h-98zM621 1065l120 432h80l-129 -432h-71z" />
    <glyph glyph-name="Ldot" unicode="&#x13f;" horiz-adv-x="1077" 
d="M295 90h729l-16 -90h-830l277 1423h98zM897 659q-34 0 -56 22.5t-22 57.5q0 37 28.5 66t67.5 29q35 0 58.5 -22t23.5 -56q0 -38 -29 -67.5t-71 -29.5z" />
    <glyph glyph-name="ldot" unicode="&#x140;" horiz-adv-x="538" 
d="M158 0l291 1497h98l-291 -1497h-98zM600 672q-34 0 -57 22.5t-23 57.5q0 39 28.5 67.5t69.5 28.5q35 0 57.5 -22t22.5 -56q0 -39 -28.5 -68.5t-69.5 -29.5z" />
    <glyph glyph-name="Lslash" unicode="&#x141;" horiz-adv-x="1136" 
d="M365 90h727l-17 -90h-827l127 653l-187 -75l-22 69l225 92l133 684h99l-125 -641l223 90l24 -67l-264 -109z" />
    <glyph glyph-name="lslash" unicode="&#x142;" horiz-adv-x="471" 
d="M668 862l-244 -129l-143 -733h-99l131 676l-190 -101l-33 64l242 127l141 731h98l-131 -674l193 103z" />
    <glyph glyph-name="Nacute" unicode="&#x143;" horiz-adv-x="1400" 
d="M1253 1759l-485 -178l-25 70l484 186zM1354 1423h98l-276 -1423h-82l-574 1253l-244 -1253h-98l277 1423h84l573 -1249z" />
    <glyph glyph-name="nacute" unicode="&#x144;" horiz-adv-x="1257" 
d="M1141 1483l-432 -234l-35 62l428 241zM846 1102q197 0 296 -121.5t58 -333.5l-127 -647h-98l123 633q34 182 -44.5 280.5t-242.5 98.5q-158 0 -278 -101.5t-150 -255.5l-127 -655h-98l209 1079h94l-37 -200q66 100 177 161.5t245 61.5z" />
    <glyph glyph-name="uni0145" unicode="&#x145;" horiz-adv-x="1400" 
d="M1354 1423h98l-276 -1423h-82l-574 1253l-244 -1253h-98l277 1423h84l573 -1249zM676 -102q34 0 55 -20t21 -52q0 -29 -16 -59t-52 -78l-106 -144l-48 27l101 143l10 15q-27 3 -44 23t-17 50q0 37 28.5 66t67.5 29z" />
    <glyph glyph-name="uni0146" unicode="&#x146;" horiz-adv-x="1257" 
d="M846 1102q197 0 296 -121.5t58 -333.5l-127 -647h-98l123 633q34 182 -44.5 280.5t-242.5 98.5q-158 0 -278 -101.5t-150 -255.5l-127 -655h-98l209 1079h94l-37 -200q66 100 177 161.5t245 61.5zM618 -102q34 0 55 -20t21 -52q0 -52 -67 -137l-107 -144l-47 27l102 143
q2 3 6 8t5 7q-28 3 -46 23t-18 50q0 37 28.5 66t67.5 29z" />
    <glyph glyph-name="Ncaron" unicode="&#x147;" horiz-adv-x="1400" 
d="M1018 1583h-82l-197 248h90l154 -180l225 180h107zM1354 1423h98l-276 -1423h-82l-574 1253l-244 -1253h-98l277 1423h84l573 -1249z" />
    <glyph glyph-name="ncaron" unicode="&#x148;" horiz-adv-x="1257" 
d="M893 1260h-82l-197 280h88l156 -217l242 217h104zM846 1102q197 0 296 -121.5t58 -333.5l-127 -647h-98l123 633q34 182 -44.5 280.5t-242.5 98.5q-158 0 -278 -101.5t-150 -255.5l-127 -655h-98l209 1079h94l-37 -200q66 100 177 161.5t245 61.5z" />
    <glyph glyph-name="napostrophe" unicode="&#x149;" horiz-adv-x="1406" 
d="M449 1503l-132 -432h-71l123 432h80zM995 1102q197 0 296.5 -122t58.5 -333l-125 -647h-99l121 633q34 182 -44 280.5t-242 98.5q-151 0 -267 -91.5t-153 -234.5l-135 -686h-97l209 1079h94l-39 -200q66 100 177 161.5t245 61.5z" />
    <glyph glyph-name="Eng" unicode="&#x14a;" horiz-adv-x="1400" 
d="M1354 1423h98l-276 -1423l-9 -47q-34 -164 -136.5 -252t-258.5 -88h-45l16 86h37q114 0 193 71.5t104 192.5l10 51l-567 1239l-244 -1253h-98l277 1423h84l573 -1249z" />
    <glyph glyph-name="eng" unicode="&#x14b;" horiz-adv-x="1222" 
d="M852 1102q205 0 296.5 -123t51.5 -334l-129 -659q-31 -160 -142 -257.5t-263 -97.5h-25l21 88h20q108 0 188 74t103 193l125 645q32 183 -40.5 282.5t-240.5 98.5q-154 -3 -277 -101.5t-153 -228.5l-131 -682h-98l209 1079h94l-39 -207q67 99 182 164.5t248 65.5z" />
    <glyph glyph-name="Omacron" unicode="&#x14c;" horiz-adv-x="1609" 
d="M805 1665l16 84h549l-16 -84h-549zM817 -23q-270 0 -436 174t-166 455q0 135 40.5 263t114.5 231.5t172.5 181.5t221 121t252.5 43q269 0 434.5 -172.5t165.5 -454.5q0 -171 -63.5 -326.5t-170.5 -268.5t-255 -180t-310 -67zM823 74q139 0 266.5 59.5t220.5 158.5
t148 236t55 285q0 242 -138.5 389.5t-366.5 147.5q-139 0 -267 -59.5t-221 -159t-148 -235.5t-55 -284q0 -243 138.5 -390.5t367.5 -147.5z" />
    <glyph glyph-name="omacron" unicode="&#x14d;" horiz-adv-x="1277" 
d="M600 1360l14 80h535l-14 -80h-535zM641 -23q-210 0 -336.5 127.5t-126.5 341.5q0 128 48 247.5t130 209t199.5 143.5t249.5 54q208 0 335.5 -127t127.5 -342q0 -127 -47 -246t-129 -209t-200 -144.5t-251 -54.5zM653 68q144 0 263.5 80t185 207.5t65.5 269.5
q0 175 -101 281t-271 106q-145 0 -265.5 -79.5t-187 -206.5t-66.5 -267q0 -175 103.5 -283t273.5 -108z" />
    <glyph glyph-name="Ohungarumlaut" unicode="&#x150;" horiz-adv-x="1609" 
d="M856 1528l-55 43l272 330l66 -50zM1204 1528l-53 43l272 330l66 -50zM817 -23q-270 0 -436 174t-166 455q0 135 40.5 263t114.5 231.5t172.5 181.5t221 121t252.5 43q269 0 434.5 -172.5t165.5 -454.5q0 -171 -63.5 -326.5t-170.5 -268.5t-255 -180t-310 -67zM823 74
q139 0 266.5 59.5t220.5 158.5t148 236t55 285q0 242 -138.5 389.5t-366.5 147.5q-139 0 -267 -59.5t-221 -159t-148 -235.5t-55 -284q0 -243 138.5 -390.5t367.5 -147.5z" />
    <glyph glyph-name="ohungarumlaut" unicode="&#x151;" horiz-adv-x="1277" 
d="M659 1245l-55 47l268 295l62 -51zM995 1245l-55 47l266 295l64 -51zM641 -23q-210 0 -336.5 127.5t-126.5 341.5q0 128 48 247.5t130 209t199.5 143.5t249.5 54q208 0 335.5 -127t127.5 -342q0 -127 -47 -246t-129 -209t-200 -144.5t-251 -54.5zM653 68q144 0 263.5 80
t185 207.5t65.5 269.5q0 175 -101 281t-271 106q-145 0 -265.5 -79.5t-187 -206.5t-66.5 -267q0 -175 103.5 -283t273.5 -108z" />
    <glyph glyph-name="OE" unicode="&#x152;" horiz-adv-x="2285" 
d="M2451 1335h-727l-106 -547h666l-19 -88h-663l-119 -612h739l-16 -88h-840l59 303q-109 -151 -267 -238.5t-341 -87.5q-270 0 -436 174t-166 455q0 135 40.5 263t114.5 231.5t172.5 181.5t221 121t252.5 43q214 0 356.5 -108.5t194.5 -303.5l75 389h826zM823 74
q111 0 215.5 38t188 106.5t146.5 159.5t97.5 203.5t34.5 231.5q0 243 -134.5 390t-362.5 147q-139 0 -267 -59.5t-221 -159t-148 -235.5t-55 -284q0 -243 138.5 -390.5t367.5 -147.5z" />
    <glyph glyph-name="oe" unicode="&#x153;" horiz-adv-x="2160" 
d="M1776 1100q186 0 300.5 -115.5t114.5 -298.5q0 -38 -7.5 -93.5t-16.5 -78.5h-907q-5 -58 -5 -65q0 -171 102 -277t263 -106q269 0 410 260l73 -45q-85 -153 -205.5 -228.5t-291.5 -75.5q-157 0 -272.5 86t-157.5 228q-82 -143 -222.5 -228.5t-312.5 -85.5
q-210 0 -336.5 127.5t-126.5 341.5q0 128 48 247.5t130 209t199.5 143.5t249.5 54q166 0 282.5 -83t159.5 -231q83 144 223 229t306 85zM1272 596h817q8 41 8 86q0 155 -87 243.5t-241 88.5q-180 0 -317 -117.5t-180 -300.5zM653 68q144 0 263.5 80t185 207.5t65.5 269.5
q0 175 -101 281t-271 106q-145 0 -265.5 -79.5t-187 -206.5t-66.5 -267q0 -175 103.5 -283t273.5 -108z" />
    <glyph glyph-name="Racute" unicode="&#x154;" horiz-adv-x="1214" 
d="M1184 1759l-488 -178l-24 70l485 186zM1305 1090q0 -184 -140 -303t-368 -119h-121l418 -668h-111l-408 668h-167l-132 -668h-98l277 1423h463q184 0 285.5 -89t101.5 -244zM539 1335l-117 -590h387q174 0 284.5 94.5t110.5 239.5q0 121 -77.5 188.5t-221.5 67.5h-366z
" />
    <glyph glyph-name="racute" unicode="&#x155;" horiz-adv-x="659" 
d="M883 1483l-432 -234l-35 62l428 241zM422 872q65 99 170 164.5t227 65.5l-16 -92q-156 -3 -274.5 -108.5t-145.5 -248.5v2l-127 -655h-98l209 1079h94z" />
    <glyph glyph-name="uni0156" unicode="&#x156;" horiz-adv-x="1214" 
d="M1305 1090q0 -184 -140 -303t-368 -119h-121l418 -668h-111l-408 668h-167l-132 -668h-98l277 1423h463q184 0 285.5 -89t101.5 -244zM539 1335l-117 -590h387q174 0 284.5 94.5t110.5 239.5q0 121 -77.5 188.5t-221.5 67.5h-366zM596 -102q34 0 55 -20t21 -52
q0 -50 -66 -137l-108 -144l-47 27l102 143l10 15q-28 3 -45.5 23t-17.5 50q0 37 28.5 66t67.5 29z" />
    <glyph glyph-name="uni0157" unicode="&#x157;" horiz-adv-x="659" 
d="M422 872q65 99 170 164.5t227 65.5l-16 -92q-156 -3 -274.5 -108.5t-145.5 -248.5v2l-127 -655h-98l209 1079h94zM188 -102q34 0 55 -20t21 -52q0 -29 -16 -59.5t-51 -77.5l-107 -144l-47 27l102 143q8 12 11 15q-28 3 -46 23t-18 50q0 37 28.5 66t67.5 29z" />
    <glyph glyph-name="Rcaron" unicode="&#x158;" horiz-adv-x="1214" 
d="M926 1583h-80l-199 248h90l154 -180l227 180h105zM1305 1090q0 -184 -140 -303t-368 -119h-121l418 -668h-111l-408 668h-167l-132 -668h-98l277 1423h463q184 0 285.5 -89t101.5 -244zM539 1335l-117 -590h387q174 0 284.5 94.5t110.5 239.5q0 121 -77.5 188.5
t-221.5 67.5h-366z" />
    <glyph glyph-name="rcaron" unicode="&#x159;" horiz-adv-x="659" 
d="M647 1260h-80l-196 280h88l153 -217l244 217h102zM422 872q65 99 170 164.5t227 65.5l-16 -92q-156 -3 -274.5 -108.5t-145.5 -248.5v2l-127 -655h-98l209 1079h94z" />
    <glyph glyph-name="Sacute" unicode="&#x15a;" horiz-adv-x="1091" 
d="M637 1583l-25 70l484 186l26 -80zM559 -16q-191 0 -306 84.5t-130 236.5l96 35q9 -126 103 -197t251 -71q168 0 267.5 80.5t99.5 216.5q0 66 -26 120t-69 90t-97.5 70t-111.5 60.5t-111.5 62t-97.5 73.5t-69 96.5t-26 129.5q0 165 125 269t325 104q165 0 269 -76.5
t118 -204.5l-96 -33q-14 108 -91 167t-206 59q-151 0 -246.5 -76t-95.5 -197q0 -53 21 -97.5t56 -76t80.5 -59.5t96 -54t101 -52.5t96 -61t80.5 -75t56 -98.5t21 -128q0 -183 -130.5 -290t-352.5 -107z" />
    <glyph glyph-name="sacute" unicode="&#x15b;" horiz-adv-x="956" 
d="M553 1251l-35 62l428 241l39 -69zM489 -23q-162 0 -267 66t-120 182l84 31q12 -94 99 -146.5t215 -52.5q137 0 225 60.5t88 169.5q0 52 -23.5 92t-62 64t-87.5 47t-100.5 39.5t-100.5 41.5t-87.5 53.5t-62 75.5t-23.5 107q0 132 104 212.5t273 80.5q139 0 230 -57
t108 -154l-88 -33q-17 84 -83.5 126t-168.5 42q-123 0 -199.5 -57.5t-76.5 -151.5q0 -56 30 -97t78.5 -66.5t107 -47.5t117 -46.5t107 -56t78.5 -84t30 -122.5q0 -148 -120.5 -233t-303.5 -85z" />
    <glyph glyph-name="Scedilla" unicode="&#x15e;" horiz-adv-x="1091" 
d="M776 1356q-151 0 -246.5 -76t-95.5 -197q0 -53 21 -97.5t56 -76t80.5 -59.5t96 -54t101 -52.5t96 -61t80.5 -75t56 -98.5t21 -128q0 -171 -117 -277t-317 -118l-65 -107q67 -7 110 -56t43 -116q0 -84 -66.5 -141.5t-168.5 -57.5q-71 0 -122 28t-77 69l51 45
q17 -32 53.5 -54t90.5 -22q71 0 115 38t44 95q0 56 -35 92.5t-96 36.5h-22l-8 19l80 129q-181 6 -289 90t-123 231l96 35q9 -126 103 -197t251 -71q168 0 267.5 80.5t99.5 216.5q0 66 -26 120t-69 90t-97.5 70t-111.5 60.5t-111.5 62t-97.5 73.5t-69 96.5t-26 129.5
q0 165 125 269t325 104q165 0 269 -76.5t118 -204.5l-96 -33q-14 108 -91 167t-206 59z" />
    <glyph glyph-name="scedilla" unicode="&#x15f;" horiz-adv-x="956" 
d="M365 815q0 -56 30 -97t78.5 -66.5t107 -47.5t117 -46.5t107 -56t78.5 -84t30 -122.5q0 -138 -106 -222t-272 -93l-62 -101q68 -7 111 -56t43 -116q0 -84 -67 -141.5t-169 -57.5q-71 0 -121.5 28t-76.5 69l51 45q41 -76 143 -76q71 0 116.5 38.5t45.5 94.5t-35.5 92.5
t-95.5 36.5h-25l-8 19l76 122q-151 6 -247.5 71.5t-111.5 176.5l84 31q12 -94 99 -146.5t215 -52.5q137 0 225 60.5t88 169.5q0 52 -23.5 92t-62 64t-87.5 47t-100.5 39.5t-100.5 41.5t-87.5 53.5t-62 75.5t-23.5 107q0 132 104 212.5t273 80.5q139 0 230 -57t108 -154
l-88 -33q-17 84 -83.5 126t-168.5 42q-123 0 -199.5 -57.5t-76.5 -151.5z" />
    <glyph glyph-name="Scaron" unicode="&#x160;" horiz-adv-x="1091" 
d="M872 1587h-81l-197 246h90l154 -178l225 178h106zM782 1444q165 0 269 -76.5t118 -204.5l-96 -33q-14 108 -91 167t-206 59q-151 0 -246.5 -76t-95.5 -197q0 -53 21 -97.5t56 -76t80.5 -59.5t96 -54t101 -52.5t96 -61t80.5 -75t56 -98.5t21 -128q0 -183 -130.5 -290
t-352.5 -107q-191 0 -306 84.5t-130 236.5l96 35q9 -126 103 -197t251 -71q168 0 267.5 80.5t99.5 216.5q0 66 -26 120t-69 90t-97.5 70t-111.5 60.5t-111.5 62t-97.5 73.5t-69 96.5t-26 129.5q0 165 125 269t325 104z" />
    <glyph glyph-name="scaron" unicode="&#x161;" horiz-adv-x="956" 
d="M733 1262h-82l-196 280h88l155 -217l242 217h104zM641 1024q-123 0 -199.5 -57.5t-76.5 -151.5q0 -56 30 -97t78.5 -66.5t107 -47.5t117 -46.5t107 -56t78.5 -84t30 -122.5q0 -148 -120.5 -233t-303.5 -85q-162 0 -267 66t-120 182l84 31q12 -94 99 -146.5t215 -52.5
q137 0 225 60.5t88 169.5q0 52 -23.5 92t-62 64t-87.5 47t-100.5 39.5t-100.5 41.5t-87.5 53.5t-62 75.5t-23.5 107q0 132 104 212.5t273 80.5q139 0 230 -57t108 -154l-88 -33q-17 84 -83.5 126t-168.5 42z" />
    <glyph glyph-name="uni0162" unicode="&#x162;" horiz-adv-x="1085" 
d="M573 0h-12l-78 -129q67 -7 109.5 -56t42.5 -116q0 -85 -66.5 -142t-169.5 -57q-70 0 -121 28t-75 69l49 45q45 -76 143 -76q71 0 116.5 38.5t45.5 94.5t-35.5 92.5t-95.5 36.5h-23l-10 18l99 154h-17l258 1333h-448l16 90h999l-16 -90h-453z" />
    <glyph glyph-name="uni0163" unicode="&#x163;" horiz-adv-x="714" 
d="M512 993l-123 -626q-26 -134 28.5 -206.5t176.5 -72.5h106l-16 -88h-123q-31 0 -43 2l-65 -106q67 -7 109 -56t42 -116q0 -85 -66.5 -142t-168.5 -57q-71 0 -122 27.5t-77 68.5l51 45q39 -76 144 -76q71 0 115 38t44 96q0 56 -34.5 92.5t-94.5 36.5h-24l-9 18l91 143
q-102 31 -145 121t-17 223l123 635h-199l16 86h119q90 0 105 90l37 183h92l-54 -273h342l-16 -86h-344z" />
    <glyph glyph-name="Tcaron" unicode="&#x164;" horiz-adv-x="1085" 
d="M862 1583h-80l-196 248h90l153 -182l226 182h106zM1300 1423l-16 -90h-453l-258 -1333h-98l258 1333h-448l16 90h999z" />
    <glyph glyph-name="tcaron" unicode="&#x165;" horiz-adv-x="714" 
d="M774 1149l121 430h82l-131 -430h-72zM561 0q-157 0 -229.5 97t-40.5 261l123 635h-199l16 86h119q90 0 105 90l37 183h92l-54 -273h342l-16 -86h-344l-123 -626q-26 -134 28.5 -206.5t176.5 -72.5h106l-16 -88h-123z" />
    <glyph glyph-name="Tbar" unicode="&#x166;" horiz-adv-x="1105" 
d="M1294 1333h-452l-117 -604h240l-15 -76h-239l-127 -653h-99l127 653h-239l14 76h240l116 604h-450l18 90h1000z" />
    <glyph glyph-name="tbar" unicode="&#x167;" horiz-adv-x="733" 
d="M870 993h-344l-73 -372h288l-14 -76h-289l-35 -178q-26 -134 28.5 -206.5t176.5 -72.5h107l-17 -88h-120q-158 0 -231.5 97t-41.5 261l37 187h-180l12 76h182l72 372h-199l17 86h119q47 0 71.5 22t32.5 68l37 183h92l-53 -273h342z" />
    <glyph glyph-name="Utilde" unicode="&#x168;" horiz-adv-x="1370" 
d="M1118 1604q-43 0 -80 17t-58.5 37t-52.5 37t-65 17q-83 0 -119 -106l-69 30q60 160 192 160q41 0 77 -17t57.5 -37t53.5 -37t66 -17q86 0 125 106l68 -31q-57 -159 -195 -159zM682 -23q-232 0 -346 156t-68 402l172 888h99l-170 -888q-41 -212 48.5 -337.5t280.5 -125.5
q180 0 301.5 110.5t161.5 311.5l180 929h97l-178 -929q-47 -249 -197.5 -383t-380.5 -134z" />
    <glyph glyph-name="utilde" unicode="&#x169;" horiz-adv-x="1234" 
d="M721 1415q-81 0 -117 -106l-69 30q27 72 74.5 116t115.5 44q41 0 76 -17t56 -37t52.5 -37t65.5 -17q84 0 123 106l65 -31q-54 -159 -190 -159q-43 0 -79 17t-57 37t-52 37t-64 17zM1149 1079h98l-209 -1079h-94l41 209q-64 -103 -174.5 -167.5t-241.5 -64.5
q-189 0 -286.5 122.5t-57.5 332.5l127 647h99l-123 -633q-34 -181 42.5 -279.5t233.5 -98.5q146 0 262.5 94t153.5 239z" />
    <glyph glyph-name="Umacron" unicode="&#x16a;" horiz-adv-x="1370" 
d="M696 1665l17 84h549l-17 -84h-549zM682 -23q-232 0 -346 156t-68 402l172 888h99l-170 -888q-41 -212 48.5 -337.5t280.5 -125.5q180 0 301.5 110.5t161.5 311.5l180 929h97l-178 -929q-47 -249 -197.5 -383t-380.5 -134z" />
    <glyph glyph-name="umacron" unicode="&#x16b;" horiz-adv-x="1234" 
d="M1118 1442l-14 -80h-537l15 80h536zM1149 1079h98l-209 -1079h-94l41 209q-64 -103 -174.5 -167.5t-241.5 -64.5q-189 0 -286.5 122.5t-57.5 332.5l127 647h99l-123 -633q-34 -181 42.5 -279.5t233.5 -98.5q146 0 262.5 94t153.5 239z" />
    <glyph glyph-name="Uring" unicode="&#x16e;" horiz-adv-x="1370" 
d="M958 1497q-71 0 -114 44.5t-43 113.5q0 81 60.5 137.5t144.5 56.5q71 0 114 -44t43 -113q0 -79 -61 -137t-144 -58zM965 1563q52 0 90.5 35.5t38.5 89.5q0 42 -26 69t-71 27q-52 0 -89.5 -36t-37.5 -89q0 -42 25 -69t70 -27zM682 -23q-232 0 -346 156t-68 402l172 888h99
l-170 -888q-41 -212 48.5 -337.5t280.5 -125.5q180 0 301.5 110.5t161.5 311.5l180 929h97l-178 -929q-47 -249 -197.5 -383t-380.5 -134z" />
    <glyph glyph-name="uring" unicode="&#x16f;" horiz-adv-x="1234" 
d="M827 1204q-71 0 -114 44.5t-43 113.5q0 81 59.5 137.5t142.5 56.5q71 0 114.5 -44.5t43.5 -112.5q0 -79 -60.5 -137t-142.5 -58zM866 1491q-52 0 -90.5 -36t-38.5 -89q0 -41 26.5 -68.5t70.5 -27.5q51 0 90 36t39 89q0 42 -26 69t-71 27zM1149 1079h98l-209 -1079h-94
l41 209q-64 -103 -174.5 -167.5t-241.5 -64.5q-189 0 -286.5 122.5t-57.5 332.5l127 647h99l-123 -633q-34 -181 42.5 -279.5t233.5 -98.5q146 0 262.5 94t153.5 239z" />
    <glyph glyph-name="Uhungarumlaut" unicode="&#x170;" horiz-adv-x="1370" 
d="M756 1528l-56 43l273 330l65 -50zM1104 1528l-53 43l272 330l66 -50zM682 -23q-232 0 -346 156t-68 402l172 888h99l-170 -888q-41 -212 48.5 -337.5t280.5 -125.5q180 0 301.5 110.5t161.5 311.5l180 929h97l-178 -929q-47 -249 -197.5 -383t-380.5 -134z" />
    <glyph glyph-name="uhungarumlaut" unicode="&#x171;" horiz-adv-x="1234" 
d="M899 1538l-274 -291l-56 47l269 295zM1235 1538l-277 -291l-53 47l266 295zM1149 1079h98l-209 -1079h-94l41 209q-64 -103 -174.5 -167.5t-241.5 -64.5q-189 0 -286.5 122.5t-57.5 332.5l127 647h99l-123 -633q-34 -181 42.5 -279.5t233.5 -98.5q146 0 262.5 94
t153.5 239z" />
    <glyph glyph-name="Uogonek" unicode="&#x172;" horiz-adv-x="1370" 
d="M1341 1423h97l-178 -929q-35 -182 -126.5 -304.5t-230.5 -175.5l-72 -61q-78 -67 -117.5 -118.5t-39.5 -110.5q0 -43 23.5 -66t66.5 -23q65 0 113 48l32 -48q-69 -69 -164 -69q-69 0 -111 38.5t-42 104.5q0 73 52.5 140t139.5 137q-50 -9 -102 -9q-232 0 -346 156
t-68 402l172 888h99l-170 -888q-41 -212 48.5 -337.5t280.5 -125.5q180 0 301.5 110.5t161.5 311.5z" />
    <glyph glyph-name="uogonek" unicode="&#x173;" horiz-adv-x="1234" 
d="M956 -72q-78 -69 -117.5 -120t-39.5 -109q0 -43 24 -65.5t68 -22.5q66 0 110 47l33 -47q-67 -70 -164 -70q-69 0 -110 39t-41 105q0 76 55 144t146 138l41 33h-17l41 209q-64 -103 -174.5 -167.5t-241.5 -64.5q-189 0 -286.5 122.5t-57.5 332.5l127 647h99l-123 -633
q-34 -181 42.5 -279.5t233.5 -98.5q146 0 262.5 94t153.5 239l129 678h98l-209 -1079z" />
    <glyph glyph-name="Wcircumflex" unicode="&#x174;" horiz-adv-x="1742" 
d="M1190 1763l-227 -180h-105l297 248h80l197 -248h-89zM1823 1423h100l-614 -1423h-107l-106 1280l-607 -1280h-106l-64 1423h97l47 -1282l606 1282h105l102 -1284z" />
    <glyph glyph-name="wcircumflex" unicode="&#x175;" horiz-adv-x="1546" 
d="M1028 1477l-240 -215h-104l311 280h80l199 -280h-86zM1567 1079h106l-506 -1079h-112l-121 967l-492 -967h-114l-86 1079h98l68 -977l489 977h113l114 -975z" />
    <glyph glyph-name="Ycircumflex" unicode="&#x176;" horiz-adv-x="1214" 
d="M920 1761l-226 -178h-106l297 248h82l196 -248h-90zM1434 1423l-684 -837l-115 -586h-98l114 596l-354 827h102l316 -745l598 745h121z" />
    <glyph glyph-name="ycircumflex" unicode="&#x177;" horiz-adv-x="1087" 
d="M799 1477l-240 -215h-104l309 280h80l200 -280h-88zM1126 1079h111l-885 -1446h-102l229 367h-6l-244 1079h101l211 -979z" />
    <glyph glyph-name="Ydieresis" unicode="&#x178;" horiz-adv-x="1214" 
d="M709 1610q-37 0 -60.5 23.5t-23.5 62.5q0 43 32 74.5t76 31.5q38 0 60 -23.5t22 -62.5q0 -43 -31.5 -74.5t-74.5 -31.5zM1067 1610q-37 0 -59.5 23.5t-22.5 62.5q0 43 32.5 74.5t76.5 31.5q37 0 59.5 -24t22.5 -62q0 -43 -32.5 -74.5t-76.5 -31.5zM1434 1423l-684 -837
l-115 -586h-98l114 596l-354 827h102l316 -745l598 745h121z" />
    <glyph glyph-name="Zacute" unicode="&#x179;" horiz-adv-x="1087" 
d="M1114 1759l-487 -178l-25 70l485 186zM1268 1423l-13 -69l-1056 -1264h825l-14 -90h-965l14 68l1059 1267h-790l16 88h924z" />
    <glyph glyph-name="zacute" unicode="&#x17a;" horiz-adv-x="925" 
d="M948 1483l-430 -234l-35 62l428 241zM1038 1079l-16 -78l-829 -917h675l-14 -84h-809l14 76l832 919h-623l17 84h753z" />
    <glyph glyph-name="Zdotaccent" unicode="&#x17b;" horiz-adv-x="1087" 
d="M836 1610q-37 0 -62.5 24.5t-25.5 61.5q0 43 31 73.5t75 30.5q38 0 63 -24.5t25 -61.5q0 -41 -31.5 -72.5t-74.5 -31.5zM1268 1423l-13 -69l-1056 -1264h825l-14 -90h-965l14 68l1059 1267h-790l16 88h924z" />
    <glyph glyph-name="zdotaccent" unicode="&#x17c;" horiz-adv-x="925" 
d="M678 1300q-41 0 -66.5 25t-25.5 64q0 47 35 80.5t81 33.5q41 0 67 -25.5t26 -62.5q0 -47 -35 -81t-82 -34zM1038 1079l-16 -78l-829 -917h675l-14 -84h-809l14 76l832 919h-623l17 84h753z" />
    <glyph glyph-name="Zcaron" unicode="&#x17d;" horiz-adv-x="1087" 
d="M856 1583h-80l-196 248h90l153 -182l226 182h106zM1268 1423l-13 -69l-1056 -1264h825l-14 -90h-965l14 68l1059 1267h-790l16 88h924z" />
    <glyph glyph-name="zcaron" unicode="&#x17e;" horiz-adv-x="925" 
d="M713 1260h-80l-197 280h88l154 -217l244 217h104zM1038 1079l-16 -78l-829 -917h675l-14 -84h-809l14 76l832 919h-623l17 84h753z" />
    <glyph glyph-name="uni01EA" unicode="&#x1ea;" horiz-adv-x="1609" 
d="M944 -59q-78 -67 -119 -120.5t-41 -111.5q0 -42 25 -65t68 -23q66 0 110 47l35 -47q-70 -70 -164 -70q-70 0 -111.5 39t-41.5 105q0 76 54.5 144.5t145.5 140.5l4 4q-54 -7 -92 -7q-270 0 -436 174t-166 455q0 135 40.5 263t114.5 231.5t172.5 181.5t221 121t252.5 43
q269 0 434.5 -172.5t165.5 -454.5q0 -289 -168.5 -515.5t-427.5 -299.5zM317 612q0 -243 138.5 -390.5t367.5 -147.5q139 0 266.5 59.5t220.5 158.5t148 236t55 285q0 242 -138.5 389.5t-366.5 147.5q-139 0 -267 -59.5t-221 -159t-148 -235.5t-55 -284z" />
    <glyph glyph-name="uni01EB" unicode="&#x1eb;" horiz-adv-x="1277" 
d="M723 -68q-79 -68 -119.5 -120.5t-40.5 -110.5q0 -42 24.5 -65t67.5 -23q68 0 111 49l33 -49q-65 -68 -164 -68q-69 0 -110.5 38t-41.5 104q0 54 33 109.5t71 91.5t97 83l10 9q-24 -3 -53 -3q-210 0 -336.5 127.5t-126.5 341.5q0 128 48 247.5t130 209t199.5 143.5
t249.5 54q208 0 335.5 -127t127.5 -342q0 -144 -58 -274.5t-165 -226t-244 -132.5zM276 459q0 -175 103.5 -283t273.5 -108q144 0 263.5 80t185 207.5t65.5 269.5q0 175 -101 281t-271 106q-145 0 -265.5 -79.5t-187 -206.5t-66.5 -267z" />
    <glyph glyph-name="AEacute" unicode="&#x1fc;" horiz-adv-x="1865" 
d="M1821 1759l-488 -178l-24 70l485 186zM1978 1335h-725l-106 -547h663l-18 -88h-662l-118 -612h737l-16 -88h-838l90 465h-543l-356 -465h-109l1086 1423h934zM510 551h491l154 784h-43z" />
    <glyph glyph-name="aeacute" unicode="&#x1fd;" horiz-adv-x="2197" 
d="M1610 1485l-432 -234l-35 62l428 241zM1763 1100q182 0 296 -116t114 -298q0 -35 -8.5 -91t-16.5 -81h-913q-4 -46 -4 -65q0 -171 105 -279.5t266 -108.5q136 0 240.5 67.5t170.5 195.5l72 -43q-84 -153 -205.5 -228.5t-292.5 -75.5q-162 0 -266.5 91.5t-134.5 246.5
l-62 -315h-94l45 238q-81 -120 -202 -190.5t-265 -70.5q-197 0 -313.5 128t-116.5 339q0 174 80.5 324.5t223 241t313.5 90.5q155 0 256 -77.5t137 -217.5l51 274h94l-49 -250q80 125 205 198t274 73zM1245 582h830q8 70 8 100q0 156 -89.5 248t-242.5 92
q-184 0 -325 -125.5t-181 -314.5zM635 68q140 0 257.5 79t184 209.5t66.5 280.5q0 173 -93 274t-255 101q-142 0 -262 -77t-188.5 -204.5t-68.5 -273.5q0 -174 97.5 -281.5t261.5 -107.5z" />
    <glyph glyph-name="Oslashacute" unicode="&#x1fe;" horiz-adv-x="1615" 
d="M1386 1759l-487 -178l-25 70l486 186zM1694 1380l-187 -172q113 -163 113 -389q0 -170 -64 -326t-171 -269t-255.5 -180t-310.5 -67q-272 0 -440 179l-186 -174l-50 61l187 174q-113 160 -113 389q0 169 64 324.5t171 268.5t255.5 180t310.5 67q279 0 440 -178l184 172z
M319 612q0 -187 87 -323l976 909q-139 152 -370 152q-139 0 -267.5 -59.5t-221.5 -159t-148.5 -235.5t-55.5 -284zM1518 813q0 188 -86 322l-977 -910q138 -151 370 -151q186 0 346 100t253.5 270.5t93.5 368.5z" />
    <glyph glyph-name="oslashacute" unicode="&#x1ff;" horiz-adv-x="1310" 
d="M1114 1483l-432 -234l-35 62l430 241zM1386 999l-169 -131q51 -105 51 -237q0 -127 -47 -246t-128 -209.5t-199 -144.5t-251 -54q-240 0 -369 164l-155 -121l-39 58l158 121q-58 110 -58 247q0 128 48 247.5t130 209t199 143.5t248 54q122 0 218.5 -44.5t156.5 -127.5
l168 129zM279 459q0 -113 43 -195l778 602q-100 146 -303 146q-109 0 -206.5 -47t-165 -124t-107 -177t-39.5 -205zM1169 625q0 105 -34 180l-779 -600q105 -137 299 -137q144 0 263.5 80t185 207.5t65.5 269.5z" />
    <glyph glyph-name="uni0218" unicode="&#x218;" horiz-adv-x="1091" 
d="M776 1356q-151 0 -246.5 -76t-95.5 -197q0 -53 21 -97.5t56 -76t80.5 -59.5t96 -54t101 -52.5t96 -61t80.5 -75t56 -98.5t21 -128q0 -183 -130.5 -290t-352.5 -107q-191 0 -306 84.5t-130 236.5l96 35q9 -126 103 -197t251 -71q168 0 267.5 80.5t99.5 216.5q0 66 -26 120
t-69 90t-97.5 70t-111.5 60.5t-111.5 62t-97.5 73.5t-69 96.5t-26 129.5q0 165 125 269t325 104q165 0 269 -76.5t118 -204.5l-96 -33q-14 108 -91 167t-206 59zM559 -102q34 0 55 -20t21 -52q0 -50 -66 -137l-108 -144l-47 27l102 143l10 15q-28 3 -45.5 23t-17.5 50
q0 37 28.5 66t67.5 29z" />
    <glyph glyph-name="uni0219" unicode="&#x219;" horiz-adv-x="956" 
d="M365 815q0 -56 30 -97t78.5 -66.5t107 -47.5t117 -46.5t107 -56t78.5 -84t30 -122.5q0 -148 -120.5 -233t-303.5 -85q-162 0 -267 66t-120 182l84 31q12 -94 99 -146.5t215 -52.5q137 0 225 60.5t88 169.5q0 52 -23.5 92t-62 64t-87.5 47t-100.5 39.5t-100.5 41.5
t-87.5 53.5t-62 75.5t-23.5 107q0 132 104 212.5t273 80.5q139 0 230 -57t108 -154l-88 -33q-17 84 -83.5 126t-168.5 42q-123 0 -199.5 -57.5t-76.5 -151.5zM473 -102q35 0 55.5 -19.5t20.5 -52.5q0 -50 -66 -137l-108 -144l-47 27l102 143l10 15q-28 3 -45.5 23t-17.5 50
q0 37 28.5 66t67.5 29z" />
    <glyph glyph-name="uni021A" unicode="&#x21a;" horiz-adv-x="1085" 
d="M1300 1423l-16 -90h-453l-258 -1333h-98l258 1333h-448l16 90h999zM512 -102q34 0 55 -20t21 -52q0 -29 -16 -59t-52 -78l-106 -144l-47 27l102 143q1 2 3 5.5t3.5 5.5t3.5 4q-28 3 -45.5 23t-17.5 50q0 37 28.5 66t67.5 29z" />
    <glyph glyph-name="uni021B" unicode="&#x21b;" horiz-adv-x="714" 
d="M512 993l-123 -626q-26 -134 28.5 -206.5t176.5 -72.5h106l-16 -88h-123q-157 0 -229.5 97t-40.5 261l123 635h-199l16 86h119q90 0 105 90l37 183h92l-54 -273h342l-16 -86h-344zM461 -86q34 0 55 -21t21 -53q0 -28 -15.5 -57t-52.5 -80l-107 -143l-47 28l103 142l8 14
q-27 3 -44 23.5t-17 52.5q0 37 28.5 65.5t67.5 28.5z" />
    <glyph glyph-name="uni0237" unicode="&#x237;" horiz-adv-x="419" 
d="M-178 -369l16 88h29q105 0 184.5 72.5t104.5 194.5l211 1093h98l-211 -1093q-33 -168 -140.5 -261.5t-258.5 -93.5h-33z" />
    <glyph glyph-name="circumflex" unicode="&#x2c6;" horiz-adv-x="641" 
d="M893 1262h-86l-160 215l-239 -215h-105l311 280h80z" />
    <glyph glyph-name="caron" unicode="&#x2c7;" horiz-adv-x="671" 
d="M842 1542h104l-311 -280h-80l-199 280h88l156 -217z" />
    <glyph glyph-name="breve" unicode="&#x2d8;" horiz-adv-x="604" 
d="M582 1262q-83 0 -140.5 43.5t-78 107t-7.5 129.5h82q-15 -77 23.5 -140t128.5 -63q93 0 150 62t71 141h82q-11 -54 -34 -102t-60 -89t-93 -65t-124 -24z" />
    <glyph glyph-name="dotaccent" unicode="&#x2d9;" horiz-adv-x="239" 
d="M418 1303q-41 0 -66.5 24.5t-25.5 63.5q0 47 35 80.5t83 33.5q39 0 65 -25.5t26 -62.5q0 -47 -34.5 -80.5t-82.5 -33.5z" />
    <glyph glyph-name="ring" unicode="&#x2da;" horiz-adv-x="393" 
d="M481 1204q-71 0 -114 44.5t-43 113.5q0 81 60 137.5t144 56.5q71 0 113.5 -44t42.5 -113q0 -79 -60.5 -137t-142.5 -58zM487 1270q52 0 90.5 36t38.5 89q0 42 -25.5 69t-70.5 27q-52 0 -89.5 -36t-37.5 -89q0 -41 25 -68.5t69 -27.5z" />
    <glyph glyph-name="ogonek" unicode="&#x2db;" horiz-adv-x="464" 
d="M152 -457q-69 0 -111.5 39t-42.5 105q0 40 17 80t49.5 77t62.5 64.5t72 60.5l86 68l34 -35l-81 -72q-51 -44 -81 -74.5t-53.5 -72t-23.5 -82.5q0 -43 23.5 -65.5t66.5 -22.5q66 0 113 47l32 -47q-70 -70 -163 -70z" />
    <glyph glyph-name="tilde" unicode="&#x2dc;" horiz-adv-x="768" 
d="M756 1307q-42 0 -77.5 17t-57 37t-52 37t-63.5 17q-80 0 -119 -106l-70 30q64 160 193 160q41 0 75.5 -17t55.5 -37t52 -37t65 -17q83 0 125 106l65 -31q-57 -159 -192 -159z" />
    <glyph glyph-name="hungarumlaut" unicode="&#x2dd;" horiz-adv-x="593" 
d="M342 1247l-55 47l266 295l63 -51zM676 1247l-53 47l266 295l61 -51z" />
    <glyph glyph-name="gravecomb" unicode="&#x300;" 
d="M160 1247l-387 238l45 69l383 -245z" />
    <glyph glyph-name="acutecomb" unicode="&#x301;" 
d="M-205 1251l-35 62l428 241l39 -69z" />
    <glyph glyph-name="uni0302" unicode="&#x302;" 
d="M182 1262h-86l-159 215l-240 -215h-105l312 280h80z" />
    <glyph glyph-name="tildecomb" unicode="&#x303;" 
d="M29 1307q-42 0 -77.5 17t-57 37t-52 37t-63.5 17q-80 0 -119 -106l-70 30q64 160 193 160q41 0 75.5 -17t55.5 -37t52 -37t65 -17q83 0 125 106l65 -31q-57 -159 -192 -159z" />
    <glyph glyph-name="uni0304" unicode="&#x304;" 
d="M-332 1362l15 80h534l-14 -80h-535z" />
    <glyph glyph-name="uni0306" unicode="&#x306;" 
d="M-68 1262q-83 0 -140 43.5t-77.5 107t-7.5 129.5h82q-15 -77 23.5 -140t128.5 -63q93 0 150 62t71 141h82q-11 -54 -34 -102t-60 -89t-93.5 -65t-124.5 -24z" />
    <glyph glyph-name="uni0307" unicode="&#x307;" 
d="M94 1303q-41 0 -66.5 24.5t-25.5 63.5q0 47 35.5 80.5t83.5 33.5q39 0 64.5 -25.5t25.5 -62.5q0 -47 -34.5 -80.5t-82.5 -33.5z" />
    <glyph glyph-name="uni0308" unicode="&#x308;" 
d="M-252 1305q-39 0 -62.5 24.5t-23.5 65.5t34 72.5t77 31.5q39 0 63.5 -23.5t24.5 -64.5t-34.5 -73.5t-78.5 -32.5zM100 1305q-39 0 -63.5 24.5t-24.5 65.5t34.5 72.5t78.5 31.5q39 0 62.5 -23.5t23.5 -64.5t-33.5 -73.5t-77.5 -32.5z" />
    <glyph glyph-name="uni030A" unicode="&#x30a;" 
d="M4 1204q-71 0 -114.5 44.5t-43.5 113.5q0 81 60.5 137.5t144.5 56.5q71 0 113.5 -44t42.5 -113q0 -79 -60.5 -137t-142.5 -58zM10 1270q52 0 90.5 36t38.5 89q0 42 -25.5 69t-70.5 27q-52 0 -89.5 -36t-37.5 -89q0 -41 25 -68.5t69 -27.5z" />
    <glyph glyph-name="uni030B" unicode="&#x30b;" 
d="M-375 1247l-55 47l268 295l62 -51zM-39 1247l-55 47l266 295l64 -51z" />
    <glyph glyph-name="uni030C" unicode="&#x30c;" 
d="M131 1542h105l-312 -280h-80l-198 280h88l155 -217z" />
    <glyph glyph-name="uni0326" unicode="&#x326;" 
d="M-172 -102q34 0 55 -20t21 -52q0 -29 -16 -59t-52 -78l-106 -144l-47 27l100 143l10 15q-27 3 -44 23t-17 50q0 37 28.5 66t67.5 29z" />
    <glyph glyph-name="uni0327" unicode="&#x327;" 
d="M-270 -121q67 -7 109 -56t42 -116q0 -84 -65.5 -141.5t-167.5 -57.5q-71 0 -123 28t-76 69l49 45q47 -76 144 -76q71 0 116 38.5t45 94.5t-35.5 92.5t-95.5 36.5h-22l-10 19l102 161h70z" />
    <glyph glyph-name="uni0328" unicode="&#x328;" 
d="M-301 -457q-69 0 -111.5 39t-42.5 105q0 40 17 80t49.5 77t62.5 64.5t72 60.5l86 68l35 -35l-82 -72q-51 -44 -81 -74.5t-53.5 -72t-23.5 -82.5q0 -43 23.5 -65.5t66.5 -22.5q66 0 113 47l33 -47q-70 -70 -164 -70z" />
    <glyph glyph-name="uni0335" unicode="&#x335;" 
d="M-543 508l15 76h575l-12 -76h-578z" />
    <glyph glyph-name="uni0336" unicode="&#x336;" 
d="M-1210 582l16 82h1260l-17 -82h-1259z" />
    <glyph glyph-name="uni0337" unicode="&#x337;" 
d="M-498 362l-30 64l542 289l33 -64z" />
    <glyph glyph-name="uni0338" unicode="&#x338;" 
d="M-1141 -2l-39 57l1268 977l39 -55z" />
    <glyph glyph-name="Wgrave" unicode="&#x1e80;" horiz-adv-x="1742" 
d="M1413 1649l-27 -68l-479 180l29 78zM1823 1423h100l-614 -1423h-107l-106 1280l-607 -1280h-106l-64 1423h97l47 -1282l606 1282h105l102 -1284z" />
    <glyph glyph-name="wgrave" unicode="&#x1e81;" horiz-adv-x="1546" 
d="M1217 1309l-41 -62l-388 238l46 69zM1567 1079h106l-506 -1079h-112l-121 967l-492 -967h-114l-86 1079h98l68 -977l489 977h113l114 -975z" />
    <glyph glyph-name="Wacute" unicode="&#x1e82;" horiz-adv-x="1742" 
d="M1421 1759l-487 -178l-25 70l486 186zM1823 1423h100l-614 -1423h-107l-106 1280l-607 -1280h-106l-64 1423h97l47 -1282l606 1282h105l102 -1284z" />
    <glyph glyph-name="wacute" unicode="&#x1e83;" horiz-adv-x="1546" 
d="M1266 1485l-432 -234l-35 62l428 241zM1567 1079h106l-506 -1079h-112l-121 967l-492 -967h-114l-86 1079h98l68 -977l489 977h113l114 -975z" />
    <glyph glyph-name="Wdieresis" unicode="&#x1e84;" horiz-adv-x="1742" 
d="M979 1610q-37 0 -60.5 23.5t-23.5 62.5q0 43 32.5 74.5t76.5 31.5q38 0 60.5 -23.5t22.5 -62.5q0 -43 -32.5 -74.5t-75.5 -31.5zM1339 1610q-37 0 -60.5 23.5t-23.5 62.5q0 43 32.5 74.5t76.5 31.5q38 0 60 -23.5t22 -62.5q0 -43 -32 -74.5t-75 -31.5zM1823 1423h100
l-614 -1423h-107l-106 1280l-607 -1280h-106l-64 1423h97l47 -1282l606 1282h105l102 -1284z" />
    <glyph glyph-name="wdieresis" unicode="&#x1e85;" horiz-adv-x="1546" 
d="M821 1305q-37 0 -61.5 24.5t-24.5 65.5t34 72.5t77 31.5q39 0 63.5 -23.5t24.5 -64.5t-34.5 -73.5t-78.5 -32.5zM1174 1305q-39 0 -63 24.5t-24 65.5t33.5 72.5t77.5 31.5q39 0 62.5 -23.5t23.5 -64.5q0 -42 -33 -74t-77 -32zM1567 1079h106l-506 -1079h-112l-121 967
l-492 -967h-114l-86 1079h98l68 -977l489 977h113l114 -975z" />
    <glyph glyph-name="uni1E9E" unicode="&#x1e9e;" horiz-adv-x="1259" 
d="M934 772q141 -14 228 -114.5t81 -247.5q-6 -184 -140.5 -305t-330.5 -121q-142 0 -229 70.5t-99 195.5l62 61q9 -115 80 -179t188 -64q155 0 261 100t108 246q3 127 -78 207.5t-209 80.5h-55l12 58l418 393q-67 203 -322 203q-182 0 -302.5 -103t-155.5 -288l-187 -965
h-100l190 969q43 225 192 350t372 125q172 0 279 -77.5t138 -221.5z" />
    <glyph glyph-name="Ygrave" unicode="&#x1ef2;" horiz-adv-x="1214" 
d="M1149 1649l-27 -68l-481 180l29 78zM1434 1423l-684 -837l-115 -586h-98l114 596l-354 827h102l316 -745l598 745h121z" />
    <glyph glyph-name="ygrave" unicode="&#x1ef3;" horiz-adv-x="1087" 
d="M987 1309l-41 -62l-387 238l45 69zM1126 1079h111l-885 -1446h-102l229 367h-6l-244 1079h101l211 -979z" />
    <glyph glyph-name="uni1EF8" unicode="&#x1ef8;" horiz-adv-x="1214" 
d="M766 1712q-44 0 -72.5 -26.5t-48.5 -79.5l-70 30q64 160 195 160q41 0 76.5 -17t56.5 -37t53 -37t66 -17q86 0 125 106l67 -31q-57 -159 -194 -159q-43 0 -79 17t-57.5 37t-52.5 37t-65 17zM1434 1423l-684 -837l-115 -586h-98l114 596l-354 827h102l316 -745l598 745
h121z" />
    <glyph glyph-name="uni1EF9" unicode="&#x1ef9;" horiz-adv-x="1087" 
d="M647 1415q-81 0 -117 -106l-71 30q64 160 192 160q41 0 75.5 -17t55.5 -37t52 -37t65 -17q83 0 125 106l66 -31q-57 -159 -193 -159q-42 0 -77.5 17t-57 37t-52 37t-63.5 17zM1126 1079h111l-885 -1446h-102l229 367h-6l-244 1079h101l211 -979z" />
    <glyph glyph-name="endash" unicode="&#x2013;" horiz-adv-x="1042" 
d="M219 479l17 84h782l-17 -84h-782z" />
    <glyph glyph-name="emdash" unicode="&#x2014;" horiz-adv-x="1587" 
d="M219 477l17 82h1327l-15 -82h-1329z" />
    <glyph glyph-name="quoteleft" unicode="&#x2018;" horiz-adv-x="364" 
d="M430 1276q29 -2 47.5 -23t18.5 -53q0 -40 -29 -68t-68 -28q-36 0 -58 22.5t-22 55.5q0 28 10.5 52.5t39.5 65.5l112 164h70z" />
    <glyph glyph-name="quoteright" unicode="&#x2019;" horiz-adv-x="358" 
d="M465 1466q36 0 59 -21t23 -54q0 -29 -10.5 -54t-40.5 -67l-111 -162h-72l125 186q-30 3 -48.5 24.5t-18.5 53.5q0 40 28 67t66 27z" />
    <glyph glyph-name="quotesinglbase" unicode="&#x201a;" horiz-adv-x="364" 
d="M201 154q36 0 59 -22.5t23 -55.5q0 -28 -11 -52t-41 -67l-110 -162h-72l123 187q-30 3 -49 23t-19 52q0 41 29 69t68 28z" />
    <glyph glyph-name="quotedblleft" unicode="&#x201c;" horiz-adv-x="612" 
d="M481 1464h70l-121 -188q29 -2 47.5 -23t18.5 -53q0 -40 -29 -68t-68 -28q-36 0 -58 22.5t-22 55.5q0 28 10.5 52.5t39.5 65.5zM676 1276q29 -2 48 -23t19 -53q0 -41 -28.5 -68.5t-67.5 -27.5q-36 0 -59 22.5t-23 55.5q0 29 10.5 53.5t40.5 64.5l111 164h72z" />
    <glyph glyph-name="quotedblright" unicode="&#x201d;" horiz-adv-x="606" 
d="M465 1466q36 0 59 -21t23 -54q0 -29 -10.5 -54t-40.5 -67l-111 -162h-72l125 186q-30 3 -48.5 24.5t-18.5 53.5q0 40 28 67t66 27zM713 1466q36 0 59 -21t23 -54q0 -28 -11 -52.5t-41 -68.5l-112 -162h-70l125 186q-31 3 -50.5 24t-19.5 54q0 40 29 67t68 27z" />
    <glyph glyph-name="quotedblbase" unicode="&#x201e;" horiz-adv-x="610" 
d="M201 154q36 0 59 -22.5t23 -55.5q0 -28 -11 -52t-41 -67l-110 -162h-72l123 187q-30 3 -49 23t-19 52q0 41 29 69t68 28zM446 154q37 0 59.5 -22.5t22.5 -55.5q0 -28 -10 -52t-39 -67l-112 -162h-72l123 187q-29 3 -47.5 23.5t-18.5 51.5q0 41 28 69t66 28z" />
    <glyph glyph-name="dagger" unicode="&#x2020;" horiz-adv-x="636" 
d="M791 1290l-17 -76h-182l-109 -563h-84l109 563h-180l12 76h182l41 207h84l-41 -207h185z" />
    <glyph glyph-name="daggerdbl" unicode="&#x2021;" horiz-adv-x="673" 
d="M797 1231h-183l-61 -313h184l-16 -76h-182l-37 -191h-84l37 191h-183l15 76h182l61 313h-182l14 76h183l37 190h84l-37 -190h184z" />
    <glyph glyph-name="bullet" unicode="&#x2022;" horiz-adv-x="669" 
d="M449 530q-67 0 -109.5 43t-42.5 111q0 74 54.5 129t131.5 55q67 0 110.5 -42.5t43.5 -108.5q0 -75 -54 -131t-134 -56z" />
    <glyph glyph-name="ellipsis" unicode="&#x2026;" horiz-adv-x="1060" 
d="M193 -18q-36 0 -58 21t-22 56q0 40 28.5 68.5t69.5 28.5q34 0 56 -21.5t22 -56.5q0 -40 -28 -68t-68 -28zM530 -18q-34 0 -55.5 21t-21.5 56q0 40 28 68.5t68 28.5q35 0 57.5 -21.5t22.5 -56.5q0 -40 -29 -68t-70 -28zM868 -18q-34 0 -55.5 21t-21.5 56q0 40 27.5 68.5
t68.5 28.5q35 0 56.5 -21.5t21.5 -56.5q0 -40 -28 -68t-69 -28z" />
    <glyph glyph-name="perthousand" unicode="&#x2030;" horiz-adv-x="2111" 
d="M532 791q-120 0 -192 76t-72 194q0 94 46 180t130 140.5t183 54.5q118 0 190 -76.5t72 -192.5q0 -146 -104 -261t-253 -115zM268 0l1090 1423h84l-1088 -1423h-86zM541 860q114 0 194 92.5t80 206.5q0 92 -55.5 149.5t-143.5 57.5q-114 0 -194 -92.5t-80 -206.5
q0 -92 56 -149.5t143 -57.5zM1092 -12q-120 0 -192.5 76.5t-72.5 193.5q0 94 46 180t130 140.5t183 54.5q118 0 190 -76t72 -192q0 -94 -45.5 -180.5t-128.5 -141.5t-182 -55zM1757 -12q-120 0 -192 76t-72 194q0 146 104.5 260.5t253.5 114.5q118 0 190.5 -76t72.5 -192
q0 -94 -45.5 -180.5t-129 -141.5t-182.5 -55zM1100 57q114 0 194 92.5t80 206.5q0 92 -55 149.5t-143 57.5q-114 0 -194.5 -93t-80.5 -206q0 -92 56 -149.5t143 -57.5zM1765 57q114 0 194.5 93t80.5 206q0 92 -56 149.5t-143 57.5q-114 0 -194 -92.5t-80 -206.5
q0 -92 55.5 -149.5t142.5 -57.5z" />
    <glyph glyph-name="guilsinglleft" unicode="&#x2039;" horiz-adv-x="520" 
d="M567 856l-286 -344l145 -332h-94l-150 338l281 338h104z" />
    <glyph glyph-name="guilsinglright" unicode="&#x203a;" horiz-adv-x="520" 
d="M387 856l148 -338l-281 -338h-104l288 346l-145 330h94z" />
    <glyph glyph-name="fraction" unicode="&#x2044;" horiz-adv-x="827" 
d="M-18 0l1060 1423h84l-1063 -1423h-81z" />
    <glyph glyph-name="uni2074" unicode="&#x2074;" horiz-adv-x="647" 
d="M748 1423l-95 -479h90l-10 -59h-90l-35 -174h-71l36 174h-348l11 51l442 487h70zM586 944l73 381l-346 -381h273z" />
    <glyph glyph-name="Euro" unicode="&#x20ac;" horiz-adv-x="1482" 
d="M1081 1280q-193 0 -349.5 -115.5t-231.5 -304.5h592l-25 -72h-592q-31 -108 -31 -219v-4h547l-22 -73h-520q22 -198 147 -308t326 -110q283 0 442 225l78 -45q-90 -134 -225 -205.5t-304 -71.5q-243 0 -394 138.5t-173 376.5h-203l23 73h178q0 111 31 223h-135l24 72h133
q83 229 272.5 371.5t422.5 142.5q165 0 292 -74t189 -204l-92 -45q-54 110 -157.5 169.5t-242.5 59.5z" />
    <glyph glyph-name="trademark" unicode="&#x2122;" horiz-adv-x="1243" 
d="M729 1343h-174l-100 -512h-64l101 512h-177l13 58h413zM1276 1401h61l-73 -570h-62l60 453l-246 -430h-58l-77 438l-119 -461h-62l148 570h70l81 -467l269 467l8 -2v2z" />
    <glyph glyph-name="minus" unicode="&#x2212;" horiz-adv-x="950" 
d="M172 578l18 86h826l-19 -86h-825z" />
    <glyph glyph-name="approxequal" unicode="&#x2248;" horiz-adv-x="1052" 
d="M866 700q-60 0 -113 18t-85.5 39.5t-80 39.5t-98.5 18q-43 0 -86 -23.5t-71 -60.5l-47 60q36 48 90 78t119 30q60 0 112.5 -18t84.5 -39.5t79.5 -39.5t97.5 -18q45 0 88.5 23t73.5 61l47 -59q-37 -49 -92.5 -79t-118.5 -30zM780 268q-60 0 -112.5 18t-85 39.5t-80.5 39.5
t-99 18q-43 0 -86 -23.5t-71 -60.5l-47 59q37 50 91.5 80.5t117.5 30.5q60 0 112.5 -18t85 -39.5t80 -39.5t98.5 -18q44 0 88 22.5t72 59.5l47 -57q-83 -111 -211 -111z" />
    <glyph glyph-name="notequal" unicode="&#x2260;" horiz-adv-x="950" 
d="M1038 786h-311l-197 -397h433l-19 -86h-457l-141 -283h-96l139 283h-270l18 86h295l197 397h-416l18 86h441l139 281h98l-139 -281h285z" />
    <glyph glyph-name="uniF8FF" unicode="&#xf8ff;" horiz-adv-x="4724" 
d="M1149 408q-95 0 -136.5 40t-41.5 130v466h203q0 -62 -40 -122t-98 -86l2 -9q58 35 119 35h105v-162h-86v-98q0 -35 36 -35q28 0 50 15v-154q-36 -20 -113 -20zM1303 418v626h200q0 -67 -47 -122t-115 -70l5 -6q84 16 143 16h16v-444h-202zM2808 408q-95 0 -137.5 40.5
t-42.5 129.5v466h202q0 -62 -39 -122t-98 -86l4 -9q58 35 119 35h102v-162h-86v-98q0 -35 37 -35q27 0 49 15v-154q-36 -20 -110 -20zM205 418v624h203v-624h-203zM584 408q-66 0 -105 34t-39 90q0 60 41 98t111 38q92 0 135 -43h4v71q0 24 -12 38t-35 14q-47 0 -47 -60
l-184 29q37 160 249 160q110 0 172 -50t62 -135v-274h-201v45h-6q-14 -20 -51.5 -37.5t-93.5 -17.5zM1548 418v444h199v-133h6q17 143 145 143q70 0 110 -46t40 -134v-274h-205v264q0 55 -39 55q-22 0 -32 -13t-21 -52v-254h-203zM2337 408q-123 0 -190.5 63.5t-67.5 167.5
t69 168.5t189 64.5q122 0 190 -64.5t68 -168.5q0 -103 -67.5 -167t-190.5 -64zM3463 270v592h203v-133h6q21 143 150 143q170 0 170 -233q0 -115 -51.5 -173t-125.5 -58q-105 0 -141 88h-6v-226h-205zM4274 408q-120 0 -187 63.5t-67 167.5q0 103 70 168t190 65
q107 0 173.5 -64.5t66.5 -158.5v-18h-307q0 -39 18.5 -66.5t50.5 -27.5q55 0 62 69l168 -16q-18 -95 -83 -138.5t-155 -43.5zM3015 262v135h133q115 0 137 25l-2 6h-139q-83 0 -107 80l-110 354h204q6 -37 20 -110t24 -134t14 -110h4q13 125 61 354h203l-145 -424
q-63 -176 -217 -176h-80zM4213 655h12q62 0 87.5 12t25.5 38q0 45 -49 45q-34 0 -55 -26t-21 -69zM3738 506q31 0 46 27.5t15 89.5q0 66 -12 95.5t-43 29.5q-46 0 -62 -68v-148q21 -26 56 -26zM2337 535q59 0 59 104q0 106 -59 106q-58 0 -58 -106q0 -104 58 -104zM686 469
q30 0 45 23v104q-10 16 -39 16q-25 0 -40 -19t-15 -52q0 -72 49 -72z" />
    <glyph glyph-name="uni00A40301" horiz-adv-x="657" 
d="M547 1581l-25 70l484 186l26 -78zM27 0l16 88h96q113 0 192.5 70.5t102.5 191.5l209 1073h98l-211 -1083q-31 -162 -134.5 -251t-260.5 -89h-108z" />
    <glyph glyph-name="Q.ss01" horiz-adv-x="1564" 
d="M1616 827q0 -243 -131.5 -443t-343.5 -294h370l-18 -90h-672q-273 0 -439.5 169t-166.5 445q0 166 63.5 319.5t170.5 266t256 179.5t311 67q268 0 434 -171t166 -448zM317 621q0 -237 139 -384t367 -147q139 0 266.5 59.5t220 158.5t148 233.5t55.5 279.5
q0 236 -138.5 382.5t-366.5 146.5q-112 0 -217 -37.5t-190 -106t-149.5 -158.5t-99.5 -200.5t-35 -226.5z" />
    <glyph glyph-name="i.loclTRK" horiz-adv-x="432" 
d="M467 1303q-41 0 -66.5 24.5t-25.5 63.5q0 45 35.5 79.5t81.5 34.5q41 0 66.5 -25.5t25.5 -64.5q0 -46 -35 -79t-82 -33zM158 0l209 1079h98l-209 -1079h-98z" />
    <glyph glyph-name="uni006A0301" horiz-adv-x="432" 
d="M297 1249l-35 64l428 239l39 -69zM-178 -369l16 88h29q105 0 184.5 72.5t104.5 194.5l211 1093h98l-211 -1093q-33 -168 -140.5 -261.5t-258.5 -93.5h-33z" />
    <glyph glyph-name="g.ss01" horiz-adv-x="1081" 
d="M1257 1079l-18 -86h-270q100 -105 100 -264q0 -147 -85.5 -268.5t-221.5 -179.5q103 -35 159 -109.5t56 -179.5q0 -171 -140 -276t-366 -105q-191 0 -316.5 82t-148.5 221l96 35q19 -119 117.5 -185.5t255.5 -66.5q180 0 291 82.5t111 214.5q0 113 -83.5 179.5
t-228.5 66.5h-2q-167 0 -270 102.5t-103 267.5q0 99 40 190t107 157t158.5 105.5t190.5 39.5q72 0 143 -23h428zM575 324q164 0 283 118t119 279q0 131 -83 213t-218 82q-161 0 -275 -115.5t-114 -279.5q0 -134 79 -215.5t209 -81.5z" />
    <glyph glyph-name="gbreve.ss01" horiz-adv-x="1114" 
d="M741 1262q-84 0 -141.5 43.5t-77.5 107t-6 129.5h80q-9 -49 2.5 -93.5t50 -77t99.5 -32.5q93 0 150 62t71 141h82q-11 -54 -34 -102t-59.5 -89t-92.5 -65t-124 -24zM1257 1079l-18 -86h-270q100 -105 100 -264q0 -147 -85.5 -268.5t-221.5 -179.5q103 -35 159 -109.5
t56 -179.5q0 -171 -140 -276t-366 -105q-191 0 -316.5 82t-148.5 221l96 35q19 -119 117.5 -185.5t255.5 -66.5q180 0 291 82.5t111 214.5q0 113 -83.5 179.5t-228.5 66.5h-2q-167 0 -270 102.5t-103 267.5q0 99 40 190t107 157t158.5 105.5t190.5 39.5q72 0 143 -23h428z
M575 324q164 0 283 118t119 279q0 131 -83 213t-218 82q-161 0 -275 -115.5t-114 -279.5q0 -134 79 -215.5t209 -81.5z" />
    <glyph glyph-name="uni0123.ss01" horiz-adv-x="1114" 
d="M741 1239q-33 0 -54 20.5t-21 53.5q0 49 67 137l107 143l47 -28l-103 -142q-8 -12 -10 -14q28 -3 46 -23.5t18 -52.5q0 -37 -29 -65.5t-68 -28.5zM1257 1079l-18 -86h-270q100 -105 100 -264q0 -147 -85.5 -268.5t-221.5 -179.5q103 -35 159 -109.5t56 -179.5
q0 -171 -140 -276t-366 -105q-191 0 -316.5 82t-148.5 221l96 35q19 -119 117.5 -185.5t255.5 -66.5q180 0 291 82.5t111 214.5q0 113 -83.5 179.5t-228.5 66.5h-2q-167 0 -270 102.5t-103 267.5q0 99 40 190t107 157t158.5 105.5t190.5 39.5q72 0 143 -23h428zM575 324
q164 0 283 118t119 279q0 131 -83 213t-218 82q-161 0 -275 -115.5t-114 -279.5q0 -134 79 -215.5t209 -81.5z" />
    <glyph glyph-name="gdotaccent.ss01" horiz-adv-x="1114" 
d="M745 1303q-41 0 -66.5 24.5t-25.5 63.5q0 47 35.5 80.5t81.5 33.5q41 0 66.5 -25.5t25.5 -62.5q0 -47 -34.5 -80.5t-82.5 -33.5zM1257 1079l-18 -86h-270q100 -105 100 -264q0 -147 -85.5 -268.5t-221.5 -179.5q103 -35 159 -109.5t56 -179.5q0 -171 -140 -276t-366 -105
q-191 0 -316.5 82t-148.5 221l96 35q19 -119 117.5 -185.5t255.5 -66.5q180 0 291 82.5t111 214.5q0 113 -83.5 179.5t-228.5 66.5h-2q-167 0 -270 102.5t-103 267.5q0 99 40 190t107 157t158.5 105.5t190.5 39.5q72 0 143 -23h428zM575 324q164 0 283 118t119 279
q0 131 -83 213t-218 82q-161 0 -275 -115.5t-114 -279.5q0 -134 79 -215.5t209 -81.5z" />
    <glyph glyph-name="t.ss01" horiz-adv-x="677" 
d="M279 0l194 993h-266l16 86h187q45 0 70 22t34 68l35 183h94l-55 -273h278l-16 -86h-281l-192 -993h-98z" />
    <glyph glyph-name="tbar.ss01" horiz-adv-x="780" 
d="M895 993h-281l-67 -350h241l-14 -76h-242l-110 -567h-98l110 567h-237l14 76h238l67 350h-264l16 86h187q45 0 70 22t34 68l35 183h94l-55 -273h278z" />
    <glyph glyph-name="tcaron.ss01" horiz-adv-x="698" 
d="M776 1147l121 432h82l-131 -432h-72zM279 0l194 993h-266l16 86h187q45 0 70 22t34 68l35 183h94l-55 -273h278l-16 -86h-281l-192 -993h-98z" />
    <glyph glyph-name="uni0163.ss01" horiz-adv-x="698" 
d="M588 1079h278l-16 -86h-281l-192 -993h-10l-82 -131q67 -7 109 -56t42 -116q0 -85 -65.5 -142t-167.5 -57q-72 0 -123.5 27.5t-75.5 68.5l51 46q39 -76 144 -76q70 0 114.5 38.5t44.5 94.5t-35 92.5t-96 36.5h-22l-8 18l98 156h-16l194 993h-266l16 86h187q45 0 70 22
t34 68l35 183h94z" />
    <glyph glyph-name="uni021B.ss01" horiz-adv-x="698" 
d="M588 1079h278l-16 -86h-281l-192 -993h-98l194 993h-266l16 86h187q45 0 70 22t34 68l35 183h94zM305 -113q34 0 55 -20t21 -53q0 -50 -68 -136l-106 -143l-47 27l102 143q2 2 5.5 7t4.5 7q-28 3 -45.5 22.5t-17.5 51.5q0 37 28.5 65.5t67.5 28.5z" />
    <glyph glyph-name="u.ss01" horiz-adv-x="1187" 
d="M616 -23q-216 0 -322 129.5t-65 344.5l123 628h99l-123 -630q-35 -177 47.5 -280t247.5 -103q158 0 262.5 93.5t134.5 248.5l131 671h98l-131 -669q-38 -200 -168.5 -316.5t-333.5 -116.5z" />
    <glyph glyph-name="uacute.ss01" horiz-adv-x="1220" 
d="M684 1251l-35 62l428 241l39 -69zM616 -23q-216 0 -322 129.5t-65 344.5l123 628h99l-123 -630q-35 -177 47.5 -280t247.5 -103q158 0 262.5 93.5t134.5 248.5l131 671h98l-131 -669q-38 -200 -168.5 -316.5t-333.5 -116.5z" />
    <glyph glyph-name="ucircumflex.ss01" horiz-adv-x="1220" 
d="M881 1477l-240 -215h-104l311 280h80l198 -280h-86zM1151 1079h98l-131 -669q-38 -200 -168.5 -316.5t-333.5 -116.5q-216 0 -322 129.5t-65 344.5l123 628h99l-123 -630q-35 -177 47.5 -280t247.5 -103q158 0 262.5 93.5t134.5 248.5z" />
    <glyph glyph-name="udieresis.ss01" horiz-adv-x="1220" 
d="M664 1305q-37 0 -61.5 24.5t-24.5 65.5t33.5 72.5t76.5 31.5q39 0 63.5 -23.5t24.5 -64.5t-34 -73.5t-78 -32.5zM1016 1305q-39 0 -62.5 24.5t-23.5 65.5t33 72.5t77 31.5q39 0 62.5 -23.5t23.5 -64.5q0 -42 -33 -74t-77 -32zM616 -23q-216 0 -322 129.5t-65 344.5
l123 628h99l-123 -630q-35 -177 47.5 -280t247.5 -103q158 0 262.5 93.5t134.5 248.5l131 671h98l-131 -669q-38 -200 -168.5 -316.5t-333.5 -116.5z" />
    <glyph glyph-name="ugrave.ss01" horiz-adv-x="1220" 
d="M995 1247l-387 238l47 69l383 -245zM616 -23q-216 0 -322 129.5t-65 344.5l123 628h99l-123 -630q-35 -177 47.5 -280t247.5 -103q158 0 262.5 93.5t134.5 248.5l131 671h98l-131 -669q-38 -200 -168.5 -316.5t-333.5 -116.5z" />
    <glyph glyph-name="uhungarumlaut.ss01" horiz-adv-x="1220" 
d="M629 1247l-54 47l267 295l61 -51zM965 1247l-56 47l267 295l63 -51zM616 -23q-216 0 -322 129.5t-65 344.5l123 628h99l-123 -630q-35 -177 47.5 -280t247.5 -103q158 0 262.5 93.5t134.5 248.5l131 671h98l-131 -669q-38 -200 -168.5 -316.5t-333.5 -116.5z" />
    <glyph glyph-name="umacron.ss01" horiz-adv-x="1220" 
d="M575 1362l15 80h536l-14 -80h-537zM616 -23q-216 0 -322 129.5t-65 344.5l123 628h99l-123 -630q-35 -177 47.5 -280t247.5 -103q158 0 262.5 93.5t134.5 248.5l131 671h98l-131 -669q-38 -200 -168.5 -316.5t-333.5 -116.5z" />
    <glyph glyph-name="uogonek.ss01" horiz-adv-x="1220" 
d="M1151 1079h98l-131 -669q-31 -167 -129.5 -277.5t-251.5 -142.5l-69 -62q-39 -34 -61.5 -56t-48 -52.5t-37 -60t-11.5 -60.5q0 -43 24 -65.5t68 -22.5q67 0 111 47l32 -47q-67 -70 -163 -70q-69 0 -110.5 39t-41.5 105q0 76 55 144t146 138l14 10h-29q-216 0 -322 129.5
t-65 344.5l123 628h99l-123 -630q-35 -177 47.5 -280t247.5 -103q158 0 262.5 93.5t134.5 248.5z" />
    <glyph glyph-name="uring.ss01" horiz-adv-x="1220" 
d="M825 1204q-71 0 -114 44.5t-43 113.5q0 81 60 137.5t144 56.5q71 0 114.5 -44.5t43.5 -112.5q0 -79 -61 -137t-144 -58zM831 1270q52 0 91 36t39 89q0 42 -26 69t-69 27q-52 0 -90.5 -36t-38.5 -89q0 -41 25.5 -68.5t68.5 -27.5zM616 -23q-216 0 -322 129.5t-65 344.5
l123 628h99l-123 -630q-35 -177 47.5 -280t247.5 -103q158 0 262.5 93.5t134.5 248.5l131 671h98l-131 -669q-38 -200 -168.5 -316.5t-333.5 -116.5z" />
    <glyph glyph-name="utilde.ss01" horiz-adv-x="1220" 
d="M971 1307q-42 0 -77.5 17t-57 37t-52 37t-63.5 17q-81 0 -117 -106l-69 30q27 72 74.5 116t115.5 44q41 0 76 -17t56 -37t52.5 -37t65.5 -17q84 0 123 106l65 -31q-54 -159 -192 -159zM616 -23q-216 0 -322 129.5t-65 344.5l123 628h99l-123 -630q-35 -177 47.5 -280
t247.5 -103q158 0 262.5 93.5t134.5 248.5l131 671h98l-131 -669q-38 -200 -168.5 -316.5t-333.5 -116.5z" />
    <glyph glyph-name="y.ss01" horiz-adv-x="1200" 
d="M1149 1079h98l-196 -1020q-43 -225 -170.5 -335.5t-327.5 -110.5q-175 0 -280.5 77.5t-129.5 215.5l88 28q13 -112 100.5 -175.5t225.5 -63.5q330 0 401 381l29 147q-64 -105 -176.5 -168t-243.5 -63q-190 0 -285 123.5t-55 320.5l123 643h99l-121 -633
q-32 -165 46.5 -266t235.5 -98q139 2 254 90.5t154 228.5z" />
    <glyph glyph-name="yacute.ss01" horiz-adv-x="1232" 
d="M1114 1485l-432 -234l-35 62l428 241zM1149 1079h98l-196 -1020q-43 -225 -170.5 -335.5t-327.5 -110.5q-175 0 -280.5 77.5t-129.5 215.5l88 28q13 -112 100.5 -175.5t225.5 -63.5q330 0 401 381l29 147q-64 -105 -176.5 -168t-243.5 -63q-190 0 -285 123.5t-55 320.5
l123 643h99l-121 -633q-32 -165 46.5 -266t235.5 -98q139 2 254 90.5t154 228.5z" />
    <glyph glyph-name="ycircumflex.ss01" horiz-adv-x="1232" 
d="M872 1477l-239 -215h-105l312 280h80l198 -280h-86zM1149 1079h98l-196 -1020q-43 -225 -170.5 -335.5t-327.5 -110.5q-175 0 -280.5 77.5t-129.5 215.5l88 28q13 -112 100.5 -175.5t225.5 -63.5q330 0 401 381l29 147q-64 -105 -176.5 -168t-243.5 -63
q-190 0 -285 123.5t-55 320.5l123 643h99l-121 -633q-32 -165 46.5 -266t235.5 -98q139 2 254 90.5t154 228.5z" />
    <glyph glyph-name="ydieresis.ss01" horiz-adv-x="1232" 
d="M662 1305q-39 0 -64 24.5t-25 65.5t34.5 72.5t78.5 31.5q39 0 62.5 -23.5t23.5 -64.5q0 -42 -33 -74t-77 -32zM1012 1305q-37 0 -61.5 24.5t-24.5 65.5t34 72.5t78 31.5q38 0 62 -24t24 -64q0 -41 -34 -73.5t-78 -32.5zM1149 1079h98l-196 -1020q-43 -225 -170.5 -335.5
t-327.5 -110.5q-175 0 -280.5 77.5t-129.5 215.5l88 28q13 -112 100.5 -175.5t225.5 -63.5q330 0 401 381l29 147q-64 -105 -176.5 -168t-243.5 -63q-190 0 -285 123.5t-55 320.5l123 643h99l-121 -633q-32 -165 46.5 -266t235.5 -98q139 2 254 90.5t154 228.5z" />
    <glyph glyph-name="ygrave.ss01" horiz-adv-x="1232" 
d="M1034 1309l-41 -62l-387 238l45 69zM1149 1079h98l-196 -1020q-43 -225 -170.5 -335.5t-327.5 -110.5q-175 0 -280.5 77.5t-129.5 215.5l88 28q13 -112 100.5 -175.5t225.5 -63.5q330 0 401 381l29 147q-64 -105 -176.5 -168t-243.5 -63q-190 0 -285 123.5t-55 320.5
l123 643h99l-121 -633q-32 -165 46.5 -266t235.5 -98q139 2 254 90.5t154 228.5z" />
    <glyph glyph-name="uni1EF9.ss01" horiz-adv-x="1232" 
d="M721 1415q-81 0 -117 -106l-69 30q27 72 74.5 116t115.5 44q41 0 76 -17t56 -37t52.5 -37t65.5 -17q84 0 123 106l65 -31q-54 -159 -190 -159q-43 0 -79 17t-57 37t-52 37t-64 17zM1149 1079h98l-196 -1020q-43 -225 -170.5 -335.5t-327.5 -110.5q-175 0 -280.5 77.5
t-129.5 215.5l88 28q13 -112 100.5 -175.5t225.5 -63.5q330 0 401 381l29 147q-64 -105 -176.5 -168t-243.5 -63q-190 0 -285 123.5t-55 320.5l123 643h99l-121 -633q-32 -165 46.5 -266t235.5 -98q139 2 254 90.5t154 228.5z" />
    <glyph glyph-name="zero.osf" horiz-adv-x="1292" 
d="M682 -20q-218 0 -355 134.5t-137 354.5q0 129 49 246t132.5 201t199 134t242.5 50q220 0 357 -134t137 -354q0 -171 -83.5 -316.5t-227.5 -230.5t-314 -85zM686 70q140 0 260 73t190 196.5t70 266.5q0 180 -110 293t-287 113q-106 0 -202 -43t-166 -115.5t-111 -171.5
t-41 -207q0 -180 110 -292.5t287 -112.5z" />
    <glyph glyph-name="one.osf" horiz-adv-x="741" 
d="M477 86h240l-17 -86h-614l16 86h277l176 907h-287l17 86h385z" />
    <glyph glyph-name="two.osf" horiz-adv-x="1042" 
d="M1030 795q0 -87 -40 -170.5t-106 -154.5t-164.5 -141.5t-202 -128.5t-232.5 -118h710l-14 -82h-901l12 63q126 59 222.5 109.5t197 109.5t171.5 115.5t129 118.5t87 128t29 134q0 110 -73 172t-191 62q-110 0 -198.5 -54.5t-135.5 -154.5l-86 31q55 119 168.5 192.5
t265.5 73.5q159 0 255.5 -83t96.5 -222z" />
    <glyph glyph-name="three.osf" horiz-adv-x="1019" 
d="M1120 1079l-16 -82l-514 -487q171 -1 271 -99t100 -255q0 -193 -144.5 -322t-357.5 -129q-171 0 -285 83t-125 214l96 35q8 -106 95.5 -175t222.5 -69q167 0 283 103t116 256q0 127 -80.5 206.5t-222.5 79.5h-98l12 72l510 483h-688l18 86h807z" />
    <glyph glyph-name="four.osf" horiz-adv-x="1067" 
d="M1047 1077l-177 -905h174l-14 -78h-176l-66 -338h-96l66 338h-680l12 68l860 915h97zM772 172l152 766l-719 -766h567z" />
    <glyph glyph-name="five.osf" horiz-adv-x="999" 
d="M1042 993h-571l-115 -465h187q186 0 298.5 -102t112.5 -270q0 -194 -140 -322.5t-351 -128.5q-172 0 -284 83.5t-126 217.5l97 37q6 -109 94.5 -179.5t220.5 -70.5q161 0 275 105t114 254q0 130 -90.5 213.5t-231.5 83.5h-286l157 630h656z" />
    <glyph glyph-name="six.osf" horiz-adv-x="1046" 
d="M680 891q173 0 282 -107.5t109 -283.5q0 -145 -70.5 -265.5t-191.5 -189t-266 -68.5q-180 0 -290 104.5t-110 274.5q0 228 172 400l588 596h121l-471 -478q61 17 127 17zM555 66q169 0 293.5 126.5t124.5 299.5q0 141 -85.5 228t-223.5 87q-173 0 -297.5 -128.5
t-124.5 -305.5q0 -136 87.5 -221.5t225.5 -85.5z" />
    <glyph glyph-name="seven.osf" horiz-adv-x="888" 
d="M233 1079h818l-15 -80l-735 -1271h-111l736 1265h-709z" />
    <glyph glyph-name="eight.osf" horiz-adv-x="1073" 
d="M829 723q101 -32 159.5 -115t58.5 -192q0 -120 -67.5 -221.5t-181 -159.5t-245.5 -58q-175 0 -284 90.5t-109 235.5q0 150 106 272.5t262 153.5q-83 31 -130.5 99t-47.5 161q0 153 127.5 266t306.5 113q153 0 243.5 -80.5t90.5 -208.5q0 -120 -81.5 -219.5t-207.5 -136.5
zM444 985q0 -98 68.5 -159.5t173.5 -61.5q132 0 234 91.5t102 211.5q0 96 -68 156.5t-176 60.5q-136 0 -235 -90t-99 -209zM555 61q164 0 278.5 106.5t114.5 252.5q0 120 -78 192t-206 72q-162 0 -283 -111t-121 -258q0 -115 81 -184.5t214 -69.5z" />
    <glyph glyph-name="nine.osf" horiz-adv-x="1032" 
d="M702 1102q179 0 288.5 -104.5t109.5 -274.5q0 -227 -172 -399l-588 -596h-121l471 477q-64 -17 -127 -17q-173 0 -282 108t-109 284q0 220 154 371t376 151zM580 272q173 0 297 129t124 306q0 137 -87 222t-226 85q-110 0 -206.5 -58t-154 -156.5t-57.5 -211.5
q0 -141 86 -228.5t224 -87.5z" />
    <glyph glyph-name="uni030C.alt" 
d="M-47 1012l123 432h80l-131 -432h-72z" />
    <glyph glyph-name="caron.alt" horiz-adv-x="249" 
d="M307 1012l123 432h80l-131 -432h-72z" />
    <glyph glyph-name="uni0308.case" 
d="M-201 1610q-37 0 -59.5 23.5t-22.5 62.5q0 43 32.5 74.5t76.5 31.5q37 0 59.5 -24t22.5 -62q0 -43 -32.5 -74.5t-76.5 -31.5zM160 1610q-37 0 -60.5 23.5t-23.5 62.5q0 43 32.5 74.5t75.5 31.5q38 0 61 -24t23 -62q0 -43 -32.5 -74.5t-75.5 -31.5z" />
    <glyph glyph-name="uni0307.case" 
d="M164 1610q-36 0 -61 25t-25 61q0 43 31 73.5t75 30.5q37 0 61.5 -24.5t24.5 -61.5q0 -41 -31.5 -72.5t-74.5 -31.5z" />
    <glyph glyph-name="gravecomb.case" 
d="M240 1581l-480 180l29 78l477 -190z" />
    <glyph glyph-name="acutecomb.case" 
d="M-199 1581l-24 70l483 186l27 -78z" />
    <glyph glyph-name="uni030B.case" 
d="M-334 1528l-57 43l274 330l64 -50zM14 1528l-55 43l274 330l64 -50z" />
    <glyph glyph-name="uni0302.case" 
d="M244 1583h-90l-154 178l-225 -178h-107l297 248h82z" />
    <glyph glyph-name="uni030C.case" 
d="M186 1831h107l-299 -248h-80l-197 248h90l154 -182z" />
    <glyph glyph-name="uni0306.case" 
d="M-2 1583q-118 0 -178.5 75.5t-40.5 172.5h84q-13 -69 24.5 -119.5t118.5 -50.5q76 0 132.5 50t68.5 120h84q-20 -105 -99 -176.5t-194 -71.5z" />
    <glyph glyph-name="uni030A.case" 
d="M74 1497q-71 0 -114.5 44.5t-43.5 113.5q0 81 60.5 137.5t144.5 56.5q71 0 113 -44t42 -113q0 -79 -60 -137t-142 -58zM80 1563q52 0 90.5 35.5t38.5 89.5q0 42 -25.5 69t-70.5 27q-52 0 -89.5 -36t-37.5 -89q0 -43 25 -69.5t69 -26.5z" />
    <glyph glyph-name="tildecomb.case" 
d="M86 1606q-43 0 -80 17t-58.5 37t-52.5 37t-65 17q-83 0 -119 -104l-69 30q59 158 192 158q41 0 76.5 -17t57 -37t53.5 -37t67 -17q86 0 125 106l66 -31q-54 -159 -193 -159z" />
    <glyph glyph-name="uni0304.case" 
d="M-289 1665l15 84h548l-14 -84h-549z" />
    <glyph glyph-name="uni0326.case" 
d="M-180 -102q34 0 55 -20t21 -52q0 -29 -16 -59t-52 -78l-107 -144l-47 27l101 143l10 15q-27 3 -44 23t-17 50q0 37 28.5 66t67.5 29z" />
    <glyph glyph-name="uni0337.case" 
d="M-489 389l-23 68l557 225l25 -68z" />
    <glyph glyph-name="uni0338.case" 
d="M-1337 25l-49 59l1497 1397l51 -58z" />
    <glyph glyph-name="dieresis.case" horiz-adv-x="616" 
d="M471 1610q-37 0 -59.5 23.5t-22.5 62.5q0 43 32.5 74.5t76.5 31.5q37 0 59.5 -24t22.5 -62q0 -43 -32.5 -74.5t-76.5 -31.5zM831 1610q-37 0 -60 23.5t-23 62.5q0 43 32.5 74.5t75.5 31.5q38 0 61 -24t23 -62q0 -42 -33 -74t-76 -32z" />
    <glyph glyph-name="dotaccent.case" horiz-adv-x="227" 
d="M473 1610q-36 0 -61 25t-25 61q0 43 31.5 73.5t75.5 30.5q37 0 61.5 -24.5t24.5 -61.5q0 -41 -32 -72.5t-75 -31.5z" />
    <glyph glyph-name="grave.case" horiz-adv-x="503" 
d="M838 1581l-480 180l29 78l477 -190z" />
    <glyph glyph-name="acute.case" horiz-adv-x="503" 
d="M397 1581l-24 70l483 186l27 -78z" />
    <glyph glyph-name="hungarumlaut.case" horiz-adv-x="884" 
d="M420 1528l-58 43l275 330l63 -50zM768 1528l-55 43l274 330l64 -50z" />
    <glyph glyph-name="circumflex.case" horiz-adv-x="671" 
d="M940 1583h-90l-154 178l-225 -178h-106l297 248h81z" />
    <glyph glyph-name="caron.case" horiz-adv-x="671" 
d="M883 1831h106l-299 -248h-80l-196 248h90l153 -182z" />
    <glyph glyph-name="breve.case" horiz-adv-x="608" 
d="M633 1583q-118 0 -178.5 75.5t-40.5 172.5h84q-13 -69 24.5 -119.5t118.5 -50.5q76 0 132.5 50t68.5 120h84q-20 -105 -99 -176.5t-194 -71.5z" />
    <glyph glyph-name="ring.case" horiz-adv-x="393" 
d="M526 1497q-71 0 -114 44.5t-43 113.5q0 81 60 137.5t144 56.5q71 0 113.5 -44t42.5 -113q0 -79 -60.5 -137t-142.5 -58zM532 1563q53 0 91.5 35.5t38.5 89.5q0 42 -26 69t-71 27q-52 0 -89.5 -36t-37.5 -89q0 -43 25 -69.5t69 -26.5z" />
    <glyph glyph-name="tilde.case" horiz-adv-x="768" 
d="M821 1606q-43 0 -80 17t-58.5 37t-52.5 37t-65 17q-83 0 -119 -104l-69 30q59 158 192 158q41 0 76.5 -17t57 -37t53.5 -37t67 -17q86 0 125 106l66 -31q-54 -159 -193 -159z" />
    <glyph glyph-name="macron.case" horiz-adv-x="669" 
d="M381 1665l14 84h549l-14 -84h-549z" />
    <glyph glyph-name="IJacute" horiz-adv-x="1153" 
d="M350 1581l-24 70l483 186l27 -78zM1042 1581l-24 70l483 186l27 -78zM178 0l277 1423h98l-277 -1423h-98zM522 0l17 88h96q113 0 192.5 70.5t102.5 191.5l209 1073h98l-211 -1083q-31 -162 -134.5 -251t-260.5 -89h-109z" />
    <glyph glyph-name="ijacute" horiz-adv-x="980" 
d="M289 1251l-35 62l428 241l39 -69zM846 1249l-37 64l430 239l37 -69zM158 0l209 1079h98l-209 -1079h-98zM369 -369l18 88h29q105 0 184.5 72.5t104.5 194.5l210 1093h99l-211 -1093q-33 -168 -141 -261.5t-259 -93.5h-34z" />
    </font>
</defs>
</svg>
