<?xml version="1.0" standalone="no"?>
<!DOCTYPE svg PUBLIC "-//W3C//DTD SVG 1.1//EN" "http://www.w3.org/Graphics/SVG/1.1/DTD/svg11.dtd" >
<svg xmlns="http://www.w3.org/2000/svg" xmlns:xlink="http://www.w3.org/1999/xlink" version="1.1">
<metadata>
Created by FontForge 20201107 at Thu Oct 31 06:45:11 2024
 By 
Copyright (c) 2019 by Daniel Hernandez &#38; Rodrigo Fuenzalida. All rights reserved.
</metadata>
<defs>
<font id="Biennale-MediumIt" horiz-adv-x="0" >
  <font-face 
    font-family="Biennale Medium It"
    font-weight="500"
    font-style="italic"
    font-stretch="normal"
    units-per-em="2048"
    panose-1="0 0 6 0 0 0 0 0 0 0"
    ascent="1638"
    descent="-410"
    x-height="1079"
    cap-height="1423"
    bbox="-1448 -543 4520 1974"
    underline-thickness="102"
    underline-position="-204"
    slope="-11"
    unicode-range="U+0020-FB02"
  />
<missing-glyph horiz-adv-x="1153" 
d="M436 1495h858l-290 -1495h-859zM1151 1423h-600l186 -587zM487 1348l-233 -1201l422 601zM954 152l230 1191l-418 -595zM702 659l-413 -587h600z" />
    <glyph glyph-name="fi" unicode="fi" horiz-adv-x="1052" 
d="M874 1343q-90 0 -152.5 -53.5t-82.5 -156.5l-10 -54h499l-208 -1079h-207l174 901h-293l-176 -901h-207l176 901h-184l35 178h184l6 35q35 189 158 292t313 103h313l-32 -166h-306z" />
    <glyph glyph-name="fl" unicode="fl" horiz-adv-x="1093" 
d="M1251 1497l-290 -1497h-207l258 1331h-140q-91 0 -153.5 -53.5t-83.5 -157.5l-10 -49h200l-32 -170h-201l-174 -901h-207l174 901h-182l35 178h182l4 23q38 190 159.5 292.5t311.5 102.5h356z" />
    <glyph glyph-name=".notdef" horiz-adv-x="1153" 
d="M436 1495h858l-290 -1495h-859zM1151 1423h-600l186 -587zM487 1348l-233 -1201l422 601zM954 152l230 1191l-418 -595zM702 659l-413 -587h600z" />
    <glyph glyph-name=".null" 
 />
    <glyph glyph-name="nonmarkingreturn" horiz-adv-x="682" 
 />
    <glyph glyph-name="space" unicode=" " horiz-adv-x="432" 
 />
    <glyph glyph-name="exclam" unicode="!" horiz-adv-x="503" 
d="M252 444l170 1053h237l-249 -1053h-158zM256 -18q-52 0 -84.5 31t-32.5 83q0 60 43 104t105 44q55 0 87 -32t32 -83q0 -61 -43 -104t-107 -43z" />
    <glyph glyph-name="quotedbl" unicode="&#x22;" horiz-adv-x="684" 
d="M307 1001l76 463h184l-106 -463h-154zM606 1001l76 463h182l-106 -463h-152z" />
    <glyph glyph-name="numbersign" unicode="#" horiz-adv-x="1378" 
d="M1495 907h-246l-168 -368h207l-31 -160h-249l-174 -379h-175l175 379h-324l-174 -379h-172l174 379h-211l31 160h254l170 368h-215l32 160h256l164 356h170l-164 -356h326l164 356h172l-164 -356h203zM907 539l170 368h-325l-168 -368h323z" />
    <glyph glyph-name="dollar" unicode="$" horiz-adv-x="987" 
d="M494 989q0 -50 28 -89.5t72.5 -66.5t98 -52.5t107.5 -57t98.5 -70.5t72.5 -102t28 -143q0 -162 -106.5 -266.5t-288.5 -123.5l-35 -184h-170l37 186q-137 20 -222.5 99.5t-104.5 206.5l188 65q10 -97 80 -154t176 -57q110 0 177 55.5t67 147.5q0 56 -28 99.5t-72.5 73
t-98.5 56t-108 57.5t-98.5 68.5t-72.5 98.5t-28 139q0 149 106 249t277 115l35 183h170l-39 -191q116 -25 186 -94.5t80 -173.5l-188 -66q-24 179 -201 179q-99 0 -161 -51.5t-62 -135.5z" />
    <glyph glyph-name="percent" unicode="%" horiz-adv-x="1513" 
d="M541 782q-122 0 -200.5 80.5t-78.5 202.5q0 148 107 260.5t258 112.5q121 0 198.5 -78.5t77.5 -198.5q0 -94 -45.5 -181t-130 -142.5t-186.5 -55.5zM274 0l1078 1423h164l-1080 -1423h-162zM555 918q88 0 148.5 70t60.5 157q0 70 -43 115t-111 45q-87 0 -147 -70
t-60 -158q0 -70 43 -114.5t109 -44.5zM1161 -14q-124 0 -201 79t-77 201q0 96 47 182t131 139.5t184 53.5q122 0 200.5 -78.5t78.5 -197.5q0 -147 -105.5 -263t-257.5 -116zM1176 119q87 0 146.5 70t59.5 157q0 70 -42.5 115t-108.5 45q-87 0 -148 -69t-61 -156
q0 -72 43 -117t111 -45z" />
    <glyph glyph-name="ampersand" unicode="&#x26;" horiz-adv-x="1345" 
d="M1384 686q-35 -138 -101.5 -256t-152.5 -197l175 -233h-236l-90 123q-174 -143 -420 -143q-182 0 -297 99t-115 251q0 306 342 465q-67 122 -67 233q0 169 127 290.5t332 121.5q177 0 289 -103t112 -282h-215q-2 84 -56 136t-149 52q-99 0 -164 -69t-65 -168
q0 -64 32 -127.5t126 -190.5l231 -309q132 149 184 385zM604 164q151 0 273 94l-281 379l-25 33q-103 -59 -154.5 -128.5t-51.5 -168.5q0 -93 67 -151t172 -58z" />
    <glyph glyph-name="quotesingle" unicode="'" horiz-adv-x="387" 
d="M307 1001l76 463h184l-106 -463h-154z" />
    <glyph glyph-name="parenleft" unicode="(" horiz-adv-x="651" 
d="M467 -221q-125 106 -205 294.5t-80 411.5q0 341 167.5 638.5t455.5 480.5l117 -138q-252 -167 -394.5 -420.5t-142.5 -541.5q0 -189 64.5 -344.5t168.5 -251.5z" />
    <glyph glyph-name="parenright" unicode=")" horiz-adv-x="651" 
d="M111 -221l-119 135q253 169 394.5 423t141.5 542q0 188 -64.5 344t-168.5 252l151 129q125 -106 205 -295t80 -412q0 -339 -165.5 -637t-454.5 -481z" />
    <glyph glyph-name="asterisk" unicode="*" horiz-adv-x="819" 
d="M485 799l62 229l-213 -131l-49 141l229 105l-188 106l104 140l160 -132l31 240h153l-61 -240l211 132l51 -142l-232 -104l191 -105l-105 -141l-161 131l-29 -229h-154z" />
    <glyph glyph-name="plus" unicode="+" horiz-adv-x="974" 
d="M1057 735l-35 -174h-336l-76 -385h-184l76 385h-336l35 174h336l73 379h185l-74 -379h336z" />
    <glyph glyph-name="comma" unicode="," horiz-adv-x="419" 
d="M244 246q53 0 85.5 -33t32.5 -82q0 -41 -15.5 -77t-53.5 -89l-135 -186h-123l145 213q-36 8 -60 37.5t-24 72.5q0 60 45 102t103 42z" />
    <glyph glyph-name="hyphen" unicode="-" horiz-adv-x="757" 
d="M195 428l32 168h529l-33 -168h-528z" />
    <glyph glyph-name="period" unicode="." horiz-adv-x="428" 
d="M217 -18q-53 0 -86 31t-33 83q0 59 43.5 103.5t104.5 44.5q54 0 86.5 -32t32.5 -83q0 -61 -43 -104t-105 -43z" />
    <glyph glyph-name="slash" unicode="/" horiz-adv-x="698" 
d="M41 -102l686 1558h182l-684 -1558h-184z" />
    <glyph glyph-name="zero" unicode="0" horiz-adv-x="1388" 
d="M727 -23q-238 0 -378 153.5t-140 436.5q0 130 30 256.5t91.5 238.5t146.5 197.5t202.5 135t252.5 49.5q238 0 379 -151t141 -433q0 -107 -22 -214t-63 -205.5t-104.5 -183t-141.5 -147t-179.5 -98t-214.5 -35.5zM752 174q110 0 203 56t153.5 148.5t94.5 209.5t34 241
q0 200 -88.5 308t-241.5 108q-109 0 -202 -56t-154 -148.5t-95 -209t-34 -239.5q0 -198 87.5 -308t242.5 -110z" />
    <glyph glyph-name="one" unicode="1" horiz-adv-x="753" 
d="M795 1423l-242 -1249h182l-35 -174h-616l33 174h231l170 881h-225l35 172h223l39 196h205z" />
    <glyph glyph-name="two" unicode="2" horiz-adv-x="1107" 
d="M854 559l-451 -385h654l-35 -174h-952l26 137l604 522q156 133 224.5 224t68.5 192q0 87 -58.5 139t-154.5 52q-100 0 -182 -57.5t-137 -170.5l-178 64q76 167 211.5 255.5t312.5 88.5q181 0 292 -92t111 -242q0 -147 -84.5 -272.5t-271.5 -280.5z" />
    <glyph glyph-name="three" unicode="3" horiz-adv-x="1134" 
d="M1276 1423l-33 -166l-471 -419q166 -12 265.5 -118t99.5 -269q0 -201 -160.5 -338.5t-401.5 -137.5q-199 0 -331 92t-144 230l199 74q15 -97 93.5 -156t199.5 -59q142 0 235 82.5t93 205.5q0 118 -72 187t-193 69h-151l26 140l476 417h-656l33 166h893z" />
    <glyph glyph-name="four" unicode="4" horiz-adv-x="1179" 
d="M1221 1421l-181 -925h170l-30 -166h-172l-64 -330h-207l66 330h-703l29 149l887 942h205zM838 496l125 647l-607 -647h482z" />
    <glyph glyph-name="five" unicode="5" horiz-adv-x="1110" 
d="M1190 1257h-561l-97 -374h130q212 0 337 -110t125 -296q0 -221 -157 -361.5t-410 -140.5q-185 0 -308.5 88t-146.5 240l199 74q10 -105 86.5 -164t194.5 -59q142 0 235.5 86.5t93.5 214.5q0 119 -74.5 190.5t-201.5 71.5h-328l176 706h740z" />
    <glyph glyph-name="six" unicode="6" horiz-adv-x="1146" 
d="M745 946q192 0 315.5 -113t123.5 -307q0 -150 -74.5 -276t-209 -200.5t-298.5 -74.5q-204 0 -329.5 114t-125.5 302q0 232 195 436l580 596h245l-462 -479q12 2 40 2zM625 156q146 0 246 106.5t100 247.5q0 118 -71 192t-189 74q-150 0 -249.5 -110.5t-99.5 -249.5
q0 -114 73 -187t190 -73z" />
    <glyph glyph-name="seven" unicode="7" horiz-adv-x="983" 
d="M299 1423h915l-32 -159l-725 -1264h-238l735 1247h-690z" />
    <glyph glyph-name="eight" unicode="8" horiz-adv-x="1146" 
d="M915 754q103 -37 162.5 -123.5t59.5 -202.5q0 -122 -68.5 -225.5t-193.5 -165.5t-279 -62q-198 0 -320 98.5t-122 258.5q0 154 102 273.5t262 156.5q-80 36 -126 106t-46 166q0 176 138.5 293t344.5 117q175 0 277 -90t102 -232q0 -128 -80.5 -228t-212.5 -140zM809 1274
q-109 0 -187.5 -74t-78.5 -178q0 -87 53 -139t143 -52q107 0 189 75.5t82 178.5q0 88 -56 138.5t-145 50.5zM608 147q137 0 230.5 87t93.5 212q0 104 -63.5 166t-174.5 62q-134 0 -231.5 -89t-97.5 -216q0 -103 66 -162.5t177 -59.5z" />
    <glyph glyph-name="nine" unicode="9" horiz-adv-x="1142" 
d="M815 1448q204 0 329.5 -114t125.5 -302q0 -232 -195 -436l-579 -596h-246l463 479q-12 -2 -41 -2q-192 0 -315.5 113t-123.5 307q0 150 74.5 276t209 200.5t298.5 74.5zM707 647q100 0 181.5 54t124 136t42.5 171q0 114 -72 187t-190 73q-146 0 -246.5 -107t-100.5 -248
q0 -118 72.5 -192t188.5 -74z" />
    <glyph glyph-name="colon" unicode=":" horiz-adv-x="475" 
d="M377 678q-52 0 -84.5 31.5t-32.5 83.5q0 61 43 105t105 44q52 0 84 -32t32 -85q0 -60 -42.5 -103.5t-104.5 -43.5zM242 -18q-52 0 -85.5 31t-33.5 83q0 59 43.5 103.5t105.5 44.5q52 0 84.5 -31.5t32.5 -83.5q0 -61 -42.5 -104t-104.5 -43z" />
    <glyph glyph-name="semicolon" unicode=";" horiz-adv-x="479" 
d="M410 942q51 0 83.5 -32.5t32.5 -84.5q0 -60 -42.5 -103.5t-104.5 -43.5q-52 0 -85.5 31.5t-33.5 83.5q0 61 43 105t107 44zM272 246q53 0 86 -33.5t33 -81.5q0 -41 -15 -76.5t-52 -89.5l-138 -186h-123l146 213q-36 8 -60 37.5t-24 72.5q0 60 44.5 102t102.5 42z" />
    <glyph glyph-name="less" unicode="&#x3c;" horiz-adv-x="825" 
d="M944 1094l-39 -205l-538 -287l428 -287l-35 -174l-602 408l24 133z" />
    <glyph glyph-name="equal" unicode="=" horiz-adv-x="993" 
d="M225 764l35 176h836l-35 -176h-836zM133 287l35 174h833l-32 -174h-836z" />
    <glyph glyph-name="greater" unicode="&#x3e;" horiz-adv-x="825" 
d="M303 1094l602 -408l-26 -133l-762 -412l41 203l536 289l-426 287z" />
    <glyph glyph-name="question" unicode="?" horiz-adv-x="917" 
d="M385 444l18 95q15 73 48.5 135.5t74.5 107t87.5 83.5t90 73t78.5 67.5t56.5 75t21.5 88.5q0 73 -44.5 112.5t-117.5 39.5q-86 0 -147.5 -52t-95.5 -141l-179 62q59 152 176.5 240t282.5 88q154 0 251 -80t97 -221q0 -69 -24.5 -128t-64.5 -104t-89 -86t-100.5 -81.5
t-96.5 -83t-79 -99.5t-45 -121l-15 -70h-184zM412 -18q-53 0 -86 31t-33 83q0 59 43.5 103.5t105.5 44.5q53 0 85 -31.5t32 -83.5q0 -61 -42.5 -104t-104.5 -43z" />
    <glyph glyph-name="at" unicode="@" horiz-adv-x="1581" 
d="M987 1192q275 0 448 -158t173 -416q0 -208 -101.5 -347.5t-249.5 -139.5q-82 0 -134.5 36t-61.5 97q-51 -67 -121 -105t-152 -38q-126 0 -204 85.5t-78 221.5q0 161 111.5 280t265.5 119q90 0 152.5 -39t92.5 -108l25 125h123l-78 -410q-10 -39 -10 -55q0 -72 82 -72
q87 0 139.5 92t52.5 248q0 201 -134 325t-359 124q-185 0 -341 -95t-243.5 -250t-87.5 -331q0 -214 132 -343.5t349 -129.5t340 129l68 -105q-150 -159 -428 -159q-277 0 -442.5 161.5t-165.5 421.5q0 170 65.5 324.5t177 266.5t267 178.5t327.5 66.5zM834 262
q93 0 160 76.5t67 177.5q0 76 -46.5 123t-121.5 47q-94 0 -160.5 -72.5t-66.5 -171.5q0 -80 46.5 -130t121.5 -50z" />
    <glyph glyph-name="A" unicode="A" horiz-adv-x="1265" 
d="M1053 0l-58 381h-563l-203 -381h-217l768 1423h252l217 -1423h-196zM522 551h449l-99 659z" />
    <glyph glyph-name="B" unicode="B" horiz-adv-x="1243" 
d="M1042 748q98 -43 150.5 -124t52.5 -190q0 -193 -144.5 -313.5t-379.5 -120.5h-571l276 1423h551q167 0 256.5 -83t89.5 -222q0 -133 -76 -228.5t-205 -141.5zM1106 1069q0 91 -57.5 138.5t-153.5 47.5h-295l-86 -434h311q121 0 201 70t80 178zM717 168q150 0 235.5 70.5
t85.5 191.5q0 102 -62 161.5t-175 59.5h-320l-94 -483h330z" />
    <glyph glyph-name="C" unicode="C" horiz-adv-x="1458" 
d="M821 -25q-277 0 -449.5 173.5t-172.5 449.5q0 170 60.5 325.5t165 271t255 184.5t321.5 69q237 0 398 -129.5t190 -325.5l-207 -75q-27 153 -132 243t-271 90q-162 0 -293 -88.5t-201.5 -233t-70.5 -313.5q0 -198 117.5 -321t310.5 -123q161 0 274.5 79t194.5 241
l182 -80q-212 -437 -672 -437z" />
    <glyph glyph-name="D" unicode="D" horiz-adv-x="1437" 
d="M903 1423q274 0 439 -168t165 -446q0 -167 -62.5 -316.5t-170.5 -257.5t-261.5 -171.5t-328.5 -63.5h-534l276 1423h477zM702 184q162 0 297.5 83.5t213 226t77.5 311.5q0 202 -110.5 318t-302.5 116h-279l-205 -1055h309z" />
    <glyph glyph-name="E" unicode="E" horiz-adv-x="1124" 
d="M1276 1241h-676l-82 -416h608l-36 -182h-607l-88 -461h688l-36 -182h-897l276 1423h885z" />
    <glyph glyph-name="F" unicode="F" horiz-adv-x="1081" 
d="M1270 1241h-670l-84 -426h602l-37 -180h-600l-123 -635h-208l276 1423h879z" />
    <glyph glyph-name="G" unicode="G" horiz-adv-x="1540" 
d="M1612 745q-58 -374 -263 -572t-522 -198q-282 0 -455 174t-173 461q0 171 62 325.5t168 267.5t256 179t319 66q228 0 391.5 -121t197.5 -313l-207 -78q-28 148 -134 231.5t-267 83.5q-117 0 -223 -49.5t-182.5 -133.5t-122 -200t-45.5 -243q0 -209 121.5 -335t322.5 -126
q182 0 314.5 108t201.5 312h-487l30 161h697z" />
    <glyph glyph-name="H" unicode="H" horiz-adv-x="1372" 
d="M1286 1423h207l-276 -1423h-207l125 641h-652l-125 -641h-208l276 1423h209l-117 -596h651z" />
    <glyph glyph-name="I" unicode="I" horiz-adv-x="512" 
d="M150 0l276 1423h209l-277 -1423h-208z" />
    <glyph glyph-name="J" unicode="J" horiz-adv-x="669" 
d="M35 0l35 184h86q94 0 157 57t82 156l199 1026h207l-203 -1056q-37 -181 -150 -274t-292 -93h-121z" />
    <glyph glyph-name="K" unicode="K" horiz-adv-x="1243" 
d="M1483 1423l-774 -688l544 -735h-229l-530 698l-136 -698h-208l276 1423h209l-121 -622l707 622h262z" />
    <glyph glyph-name="L" unicode="L" horiz-adv-x="1064" 
d="M395 186h678l-37 -186h-886l276 1423h209z" />
    <glyph glyph-name="M" unicode="M" horiz-adv-x="1679" 
d="M1556 1423h189l-180 -1423h-193l146 1124l-584 -1069h-174l-164 1063l-289 -1118h-198l372 1423h232l178 -1114l612 1114l53 -4v4z" />
    <glyph glyph-name="N" unicode="N" horiz-adv-x="1374" 
d="M1288 1423h207l-276 -1423h-172l-484 1057l-207 -1057h-206l276 1423h174l481 -1065z" />
    <glyph glyph-name="O" unicode="O" horiz-adv-x="1574" 
d="M834 -25q-283 0 -459 180.5t-176 465.5q0 133 40.5 258.5t115 227.5t174 179t224 119.5t257.5 42.5q284 0 459.5 -177t175.5 -466q0 -170 -64 -324t-172.5 -264.5t-259 -176t-315.5 -65.5zM848 172q120 0 228 50t185.5 134t123 198.5t45.5 238.5q0 206 -119.5 332
t-317.5 126q-159 0 -292.5 -84t-210 -225.5t-76.5 -306.5q0 -209 119 -336t315 -127z" />
    <glyph glyph-name="P" unicode="P" horiz-adv-x="1193" 
d="M934 1423q193 0 302.5 -100t109.5 -272q0 -207 -151.5 -340t-389.5 -133h-334l-113 -578h-208l276 1423h508zM825 762q136 0 220.5 74.5t84.5 191.5q0 102 -61 157.5t-174 55.5h-295l-94 -479h319z" />
    <glyph glyph-name="Q" unicode="Q" horiz-adv-x="1615" 
d="M1645 805q0 -231 -113.5 -424t-302.5 -301l266 -254l-147 -156l-338 324q-90 -19 -176 -19q-283 0 -459 180.5t-176 465.5q0 133 40.5 258.5t115 227.5t174 179t224 119.5t257.5 42.5q284 0 459.5 -177t175.5 -466zM414 635q0 -209 119 -336t315 -127q120 0 228 50
t185.5 134t123 198.5t45.5 238.5q0 206 -119.5 332t-317.5 126q-159 0 -292.5 -84t-210 -225.5t-76.5 -306.5z" />
    <glyph glyph-name="R" unicode="R" horiz-adv-x="1220" 
d="M1346 1065q0 -190 -146.5 -316t-392.5 -126h-4l352 -623h-219l-338 623h-119l-121 -623h-208l276 1423h508q198 0 305 -96t107 -262zM600 1241l-92 -469h315q143 0 229.5 74t86.5 188q0 98 -61.5 152.5t-174.5 54.5h-303z" />
    <glyph glyph-name="S" unicode="S" horiz-adv-x="1122" 
d="M592 -20q-204 0 -329 90t-148 254l204 73q11 -110 92.5 -173.5t213.5 -63.5q129 0 205.5 61t76.5 164q0 63 -33 112t-85.5 81.5t-116 62t-127 63t-116 74.5t-85.5 106.5t-33 149.5q0 183 137.5 297.5t358.5 114.5q184 0 303 -83t131 -220l-205 -72q-12 95 -75.5 146
t-169.5 51q-118 0 -191.5 -57.5t-73.5 -149.5q0 -57 33 -100.5t85.5 -74t116 -58.5t127 -63t116 -78.5t85.5 -114t33 -160.5q0 -196 -145 -314t-385 -118z" />
    <glyph glyph-name="T" unicode="T" horiz-adv-x="1118" 
d="M1366 1423l-37 -186h-430l-240 -1237h-206l239 1237h-428l37 186h1065z" />
    <glyph glyph-name="U" unicode="U" horiz-adv-x="1341" 
d="M692 -25q-169 0 -282 75.5t-155 206.5t-11 298l168 868h209l-168 -868q-35 -178 38 -280.5t230 -102.5q147 0 245 88.5t130 253.5l176 909h207l-176 -909q-49 -258 -209 -398.5t-402 -140.5z" />
    <glyph glyph-name="V" unicode="V" horiz-adv-x="1277" 
d="M1303 1423h227l-776 -1423h-254l-226 1423h207l187 -1185z" />
    <glyph glyph-name="W" unicode="W" horiz-adv-x="1777" 
d="M1808 1423h211l-604 -1423h-237l-68 1135l-514 -1135h-238l-53 1423h203l16 -1173l523 1173h223l65 -1173z" />
    <glyph glyph-name="X" unicode="X" horiz-adv-x="1273" 
d="M1522 1425l-623 -708l371 -717h-226l-296 573l-498 -573h-254l663 743l-354 682h225l279 -536l459 536h254z" />
    <glyph glyph-name="Y" unicode="Y" horiz-adv-x="1247" 
d="M1513 1423l-675 -841l-113 -582h-209l115 588l-350 835h211l270 -659l504 659h247z" />
    <glyph glyph-name="Z" unicode="Z" horiz-adv-x="1116" 
d="M1327 1423l-27 -135l-925 -1102h721l-33 -186h-1012l25 135l930 1106h-697l35 182h983z" />
    <glyph glyph-name="bracketleft" unicode="[" horiz-adv-x="610" 
d="M836 1430h-215l-289 -1483h217l-35 -174h-412l357 1831h411z" />
    <glyph glyph-name="backslash" unicode="\" horiz-adv-x="702" 
d="M430 -102l-84 1558h182l86 -1558h-184z" />
    <glyph glyph-name="bracketright" unicode="]" horiz-adv-x="608" 
d="M358 1604h412l-356 -1831h-412l35 174h215l289 1483h-217z" />
    <glyph glyph-name="asciicircum" unicode="^" horiz-adv-x="976" 
d="M1051 760h-189l-141 381l-285 -381h-219l463 604h129z" />
    <glyph glyph-name="underscore" unicode="_" horiz-adv-x="1038" 
d="M4 -217l33 170h938l-33 -170h-938z" />
    <glyph glyph-name="grave" unicode="`" horiz-adv-x="610" 
d="M768 1204l-455 275l90 141l449 -293z" />
    <glyph glyph-name="a" unicode="a" horiz-adv-x="1288" 
d="M1169 1079h193l-209 -1079h-192l32 168q-168 -193 -401 -193q-193 0 -312.5 131t-119.5 343q0 172 80.5 322t223 240.5t312.5 90.5q132 0 223 -56t134 -159zM664 160q168 0 285.5 134t117.5 316q0 140 -78.5 225t-210.5 85q-112 0 -206 -61.5t-147.5 -163t-53.5 -218.5
q0 -140 80.5 -228.5t212.5 -88.5z" />
    <glyph glyph-name="b" unicode="b" horiz-adv-x="1288" 
d="M903 1102q192 0 310 -130.5t118 -338.5q0 -127 -46.5 -247t-127 -210.5t-197.5 -145.5t-249 -55q-124 0 -216 53.5t-139 153.5l-34 -182h-193l289 1497h207l-107 -561q166 166 385 166zM713 160q117 0 211.5 64t145 165t50.5 213q0 141 -82 229.5t-211 88.5
q-113 0 -206.5 -64.5t-145 -168t-51.5 -218.5q0 -140 79.5 -224.5t209.5 -84.5z" />
    <glyph glyph-name="c" unicode="c" horiz-adv-x="1148" 
d="M641 -25q-215 0 -347 134t-132 348q0 129 50.5 247.5t135.5 206t204.5 139.5t250.5 52q177 0 299 -95t137 -247l-197 -70q-9 103 -81 165.5t-185 62.5q-111 0 -205 -61.5t-147 -161.5t-53 -214q0 -141 80.5 -230t212.5 -89q107 0 194 58t139 169l168 -74
q-80 -163 -216 -251.5t-308 -88.5z" />
    <glyph glyph-name="d" unicode="d" horiz-adv-x="1288" 
d="M1237 1497h207l-291 -1497h-192l32 166q-166 -191 -401 -191q-193 0 -312.5 131t-119.5 343q0 172 80.5 322t223 240.5t312.5 90.5q249 0 348 -193zM664 160q168 0 285.5 134t117.5 316q0 140 -78.5 225t-210.5 85q-112 0 -206 -61.5t-147.5 -163t-53.5 -218.5
q0 -140 80.5 -228.5t212.5 -88.5z" />
    <glyph glyph-name="e" unicode="e" horiz-adv-x="1185" 
d="M791 1102q200 0 322 -123t122 -307q0 -43 -10.5 -103.5t-24.5 -99.5h-833v-2q0 -140 83.5 -224.5t211.5 -84.5q104 0 178.5 46.5t136.5 143.5l151 -104q-181 -269 -491 -269q-210 0 -343.5 134.5t-133.5 341.5q0 175 84 325t229.5 238t317.5 88zM393 631h641q2 14 2 37
q0 123 -68 194.5t-188 71.5q-136 0 -240 -85t-147 -218z" />
    <glyph glyph-name="f" unicode="f" horiz-adv-x="702" 
d="M872 1343q-93 0 -153 -52.5t-80 -157.5l-10 -54h260l-35 -178h-260l-176 -901h-207l174 901h-182l35 178h182l8 43q36 189 151.5 288t309.5 99h88l-33 -166h-72z" />
    <glyph glyph-name="g" unicode="g" horiz-adv-x="1286" 
d="M1174 1079h192l-182 -934q-105 -536 -617 -536q-197 0 -327 86.5t-160 243.5l180 61q19 -106 103.5 -163.5t216.5 -57.5q164 0 269.5 89.5t137.5 260.5l17 90q-80 -96 -186.5 -150.5t-225.5 -54.5q-191 0 -311.5 127.5t-120.5 327.5q0 100 31.5 195.5t88.5 174t132.5 138
t170 92.5t193.5 33q129 0 222 -55t139 -156zM664 178q168 0 285.5 130.5t117.5 309.5q0 138 -78.5 220t-210.5 82q-112 0 -206 -60t-147.5 -159.5t-53.5 -213.5q0 -138 80 -223.5t213 -85.5z" />
    <glyph glyph-name="h" unicode="h" horiz-adv-x="1218" 
d="M881 1104q190 0 286.5 -122.5t57.5 -326.5l-127 -655h-207l119 621q27 143 -34.5 220t-187.5 77q-123 0 -215 -79.5t-114 -205.5v2l-123 -635h-207l291 1497h207l-107 -545q69 70 162.5 111t198.5 41z" />
    <glyph glyph-name="i" unicode="i" horiz-adv-x="481" 
d="M489 1268q-61 0 -100 37t-39 94q0 68 52 118t122 50q62 0 100 -36.5t38 -94.5q0 -68 -51.5 -118t-121.5 -50zM129 0l209 1079h207l-209 -1079h-207z" />
    <glyph glyph-name="j" unicode="j" horiz-adv-x="485" 
d="M496 1268q-60 0 -99 36.5t-39 94.5q0 68 51 118t123 50q60 0 99 -36.5t39 -94.5q0 -68 -51 -118t-123 -50zM-164 -375l35 180h33q86 0 149.5 59t83.5 159l205 1056h207l-205 -1052q-38 -193 -161.5 -297.5t-299.5 -104.5h-47z" />
    <glyph glyph-name="k" unicode="k" horiz-adv-x="1036" 
d="M1239 1079l-582 -508l385 -571h-223l-379 541l-104 -541h-207l291 1497h207l-166 -858l522 440h256z" />
    <glyph glyph-name="l" unicode="l" horiz-adv-x="468" 
d="M129 0l291 1497h207l-291 -1497h-207z" />
    <glyph glyph-name="m" unicode="m" horiz-adv-x="1902" 
d="M1583 1104q178 0 272.5 -119t55.5 -317l-129 -668h-207l121 631q27 139 -32 213t-173 74q-109 0 -197.5 -81t-111.5 -208l-2 2l-121 -631h-207l121 631q27 139 -31.5 213t-171.5 74q-110 0 -200 -80.5t-111 -204.5v2l-123 -635h-207l209 1079h197l-27 -139
q67 75 160.5 119.5t195.5 44.5q126 0 208 -59t110 -168q67 102 173.5 164.5t227.5 62.5z" />
    <glyph glyph-name="n" unicode="n" horiz-adv-x="1218" 
d="M881 1104q190 0 286.5 -122.5t57.5 -326.5l-127 -655h-207l119 621q27 143 -34.5 220t-187.5 77q-123 0 -215 -79.5t-114 -205.5v2l-123 -635h-207l209 1079h197l-27 -141q68 76 165.5 121t207.5 45z" />
    <glyph glyph-name="o" unicode="o" horiz-adv-x="1249" 
d="M651 -25q-218 0 -354.5 130.5t-136.5 349.5q0 172 84.5 320.5t233 237.5t325.5 89q214 0 351.5 -129t137.5 -350q0 -101 -30.5 -197.5t-88.5 -177.5t-135.5 -142.5t-177.5 -96t-209 -34.5zM676 162q87 0 163.5 37.5t129 99t82.5 141.5t30 164q0 140 -82.5 227t-218.5 87
q-114 0 -209 -63t-146.5 -163t-51.5 -213q0 -142 83 -229.5t220 -87.5z" />
    <glyph glyph-name="p" unicode="p" horiz-adv-x="1288" 
d="M901 1102q193 0 311.5 -131t118.5 -338q0 -177 -82.5 -328.5t-225 -240.5t-310.5 -89q-116 0 -205.5 48.5t-140.5 138.5l-103 -529h-207l281 1446h192l-30 -164q79 89 181.5 138t219.5 49zM715 160q109 0 202.5 60t148 162t54.5 220q0 141 -82 229.5t-215 88.5
q-107 0 -199.5 -61.5t-146 -165.5t-53.5 -224q0 -139 80 -224t211 -85z" />
    <glyph glyph-name="q" unicode="q" horiz-adv-x="1288" 
d="M1169 1079h193l-281 -1446h-207l101 514q-162 -172 -383 -172q-193 0 -312.5 131t-119.5 343q0 172 80.5 322t223 240.5t312.5 90.5q131 0 222.5 -56t136.5 -159zM664 160q168 0 285.5 134t117.5 316q0 140 -78.5 225t-210.5 85q-112 0 -206 -61.5t-147.5 -163
t-53.5 -218.5q0 -140 80.5 -228.5t212.5 -88.5z" />
    <glyph glyph-name="r" unicode="r" horiz-adv-x="684" 
d="M504 924q69 82 163 131t197 49l-37 -195q-144 -1 -241.5 -76.5t-128.5 -201.5l-121 -631h-207l209 1079h197z" />
    <glyph glyph-name="s" unicode="s" horiz-adv-x="960" 
d="M506 -25q-175 0 -290 73t-132 198l197 69q13 -80 80.5 -124t166.5 -44q96 0 164 42t68 114q0 44 -29 77t-75 54t-101.5 40t-111 43t-101.5 54.5t-75 82.5t-29 120q0 146 118.5 237t307.5 91q154 0 256.5 -61t119.5 -164l-198 -74q-13 64 -63 97.5t-124 33.5
q-86 0 -146 -39t-60 -100q0 -36 22.5 -64.5t59.5 -46t84 -36.5t96 -35t96 -41.5t84 -56.5t59.5 -80t22.5 -111q0 -159 -131 -254t-336 -95z" />
    <glyph glyph-name="t" unicode="t" horiz-adv-x="755" 
d="M594 0q-180 0 -261.5 105t-47.5 288l98 508h-188l34 178h105q98 0 119 105l32 174h201l-55 -279h297l-35 -178h-303l-94 -483q-23 -115 23.5 -175.5t150.5 -60.5h98l-37 -182h-137z" />
    <glyph glyph-name="u" unicode="u" horiz-adv-x="1200" 
d="M1069 1079h207l-209 -1079h-197l29 150q-69 -80 -165 -127.5t-206 -47.5q-182 0 -276 122.5t-55 326.5l127 655h206l-118 -620q-28 -142 31.5 -219.5t179.5 -77.5q116 0 204.5 74t114.5 194z" />
    <glyph glyph-name="v" unicode="v" horiz-adv-x="1095" 
d="M1059 1079h229l-624 -1079h-238l-207 1079h207l154 -886z" />
    <glyph glyph-name="w" unicode="w" horiz-adv-x="1568" 
d="M1536 1079h215l-491 -1079h-240l-74 852l-401 -852h-242l-76 1079h197l45 -880l401 880h222l73 -878z" />
    <glyph glyph-name="x" unicode="x" horiz-adv-x="1058" 
d="M1253 1079l-503 -538l307 -541h-215l-232 408l-379 -408h-241l530 563l-293 516h217l220 -387l348 387h241z" />
    <glyph glyph-name="y" unicode="y" horiz-adv-x="1097" 
d="M1059 1079h229l-837 -1446h-207l219 367h-37l-207 1079h207l154 -886z" />
    <glyph glyph-name="z" unicode="z" horiz-adv-x="950" 
d="M1085 1079l-30 -155l-699 -756h576l-33 -168h-852l29 150l704 761h-530l33 168h802z" />
    <glyph glyph-name="braceleft" unicode="{" horiz-adv-x="636" 
d="M481 -227q-145 0 -213.5 94t-36.5 260l62 317q31 154 -113 154h-39l35 178h39q62 0 109 37t63 117l66 330q31 164 129 254t256 90h53l-33 -177h-29q-70 0 -117.5 -43.5t-64.5 -126.5l-63 -325q-21 -104 -72.5 -158.5t-128.5 -87.5q140 -66 106 -246l-61 -311
q-17 -85 14 -133.5t101 -48.5h26l-32 -174h-56z" />
    <glyph glyph-name="bar" unicode="|" horiz-adv-x="456" 
d="M111 -182l321 1650h158l-322 -1650h-157z" />
    <glyph glyph-name="braceright" unicode="}" horiz-adv-x="634" 
d="M6 -227l35 174h29q70 0 117.5 42.5t64.5 129.5l63 321q21 109 72.5 163t126.5 83q-18 11 -31 20.5t-29.5 25t-25 32.5t-17 43t-6.5 55t7 70l59 313q17 85 -14 133.5t-101 48.5h-28l34 177h56q143 0 212.5 -96t37.5 -261l-62 -317q-7 -48 -2.5 -78.5t25.5 -47t42 -22.5
t48 -6h39l-35 -178h-39q-61 0 -109 -36.5t-65 -117.5l-64 -327q-31 -165 -129 -254.5t-256 -89.5h-55z" />
    <glyph glyph-name="asciitilde" unicode="~" horiz-adv-x="1046" 
d="M825 496q-60 0 -112.5 17t-84.5 38t-78 38t-93 17q-93 0 -156 -82l-86 123q101 129 246 129q60 0 112.5 -17t84.5 -38t78 -38t93 -17q44 0 86 21.5t72 60.5l86 -121q-100 -131 -248 -131z" />
    <glyph glyph-name="uni00A0" unicode="&#xa0;" horiz-adv-x="432" 
 />
    <glyph glyph-name="exclamdown" unicode="&#xa1;" horiz-adv-x="483" 
d="M412 831q-55 0 -87 31.5t-32 83.5q0 60 43 104t106 44q52 0 84.5 -31.5t32.5 -83.5q0 -61 -42.5 -104.5t-104.5 -43.5zM47 -367l244 998h158l-164 -998h-238z" />
    <glyph glyph-name="cent" unicode="&#xa2;" horiz-adv-x="1058" 
d="M641 365q91 0 163 46.5t116 137.5l163 -70q-61 -127 -164.5 -203.5t-232.5 -91.5l-37 -184h-170l37 190q-146 31 -231.5 142t-85.5 272q0 142 65 266t179.5 204t254.5 95l35 185h170l-37 -191q118 -26 194.5 -104.5t86.5 -186.5l-189 -67q-11 86 -69.5 136t-151.5 50
q-142 0 -240 -108.5t-98 -255.5q0 -117 65.5 -189.5t176.5 -72.5z" />
    <glyph glyph-name="sterling" unicode="&#xa3;" horiz-adv-x="1107" 
d="M866 1198q-100 0 -169 -66t-91 -180l-37 -190h412l-37 -182h-409l-76 -398h590l-35 -182h-799l113 580h-154l35 182h153l41 211q38 190 164 298.5t307 108.5q160 0 266 -84.5t115 -214.5l-192 -69q-8 87 -58.5 136.5t-138.5 49.5z" />
    <glyph glyph-name="currency" unicode="&#xa4;" horiz-adv-x="1138" 
d="M1110 928q39 -83 39 -178q0 -185 -131 -338l92 -115l-119 -102l-92 114q-127 -80 -270 -80q-145 0 -244 76l-135 -110l-96 122l131 111q-39 83 -39 176q0 90 34 178.5t95 159.5l-92 117l120 102l93 -117q127 80 270 80q148 0 244 -75l133 112l98 -123zM430 629
q0 -102 62 -166t161 -64q131 0 220.5 101t89.5 227q0 102 -61.5 165.5t-162.5 63.5q-130 0 -219.5 -101t-89.5 -226z" />
    <glyph glyph-name="yen" unicode="&#xa5;" horiz-adv-x="1173" 
d="M1384 1354l-561 -744h234l-29 -137h-254l-26 -141h253l-26 -137h-254l-37 -195h-205l37 195h-252l25 137h254l28 141h-254l27 137h238l-273 744h211l209 -602l422 602h233z" />
    <glyph glyph-name="brokenbar" unicode="&#xa6;" horiz-adv-x="456" 
d="M303 811l129 657h158l-129 -657h-158zM111 -182l129 657h157l-129 -657h-157z" />
    <glyph glyph-name="section" unicode="&#xa7;" horiz-adv-x="989" 
d="M535 1120q0 -48 27.5 -83.5t71 -59t96 -44.5t105.5 -47t96.5 -58.5t71 -87.5t27.5 -126q0 -105 -58 -182.5t-161 -118.5q94 -80 94 -209q0 -158 -126 -252t-320 -94q-166 0 -274.5 72.5t-125.5 196.5l174 61q12 -80 78.5 -127t159.5 -47q96 0 160.5 46.5t64.5 127.5
q0 48 -27 85t-70 61.5t-95 47t-104.5 48.5t-95.5 58.5t-70 85t-27 120.5q0 104 61.5 184t167.5 119q-104 80 -104 211q0 146 114 236t297 90q148 0 246 -61.5t115 -164.5l-178 -63q-13 68 -63.5 102.5t-125.5 34.5q-89 0 -145.5 -44.5t-56.5 -117.5zM657 403q77 19 123.5 69
t46.5 120q0 33 -12.5 61.5t-29 48t-48.5 39.5t-55.5 32t-65.5 30q-92 -2 -154.5 -52t-62.5 -128q0 -22 6.5 -42t14.5 -35t27.5 -31.5t31 -25.5t41 -24t42 -20.5t48.5 -21t47 -20.5z" />
    <glyph glyph-name="dieresis" unicode="&#xa8;" horiz-adv-x="796" 
d="M459 1272q-58 0 -93.5 36t-35.5 97q0 62 50.5 109t117.5 47q58 0 92.5 -35t34.5 -96q0 -62 -49.5 -110t-116.5 -48zM877 1272q-58 0 -93.5 36t-35.5 97q0 62 50 109t117 47q58 0 93.5 -35t35.5 -96q0 -62 -50 -110t-117 -48z" />
    <glyph glyph-name="copyright" unicode="&#xa9;" horiz-adv-x="1525" 
d="M807 -25q-178 0 -317.5 79t-216 218.5t-76.5 315.5q0 157 61.5 303t166 253t250 171.5t304.5 64.5q268 0 438 -170.5t170 -439.5q0 -213 -105.5 -396.5t-285.5 -291t-389 -107.5zM817 111q124 0 240 52.5t200.5 139.5t135.5 206.5t51 248.5q0 213 -133.5 349t-343.5 136
q-126 0 -242.5 -52.5t-200.5 -140t-134 -206t-50 -244.5q0 -214 133 -351.5t344 -137.5zM846 285q-150 0 -241 93.5t-91 242.5q0 119 58 222t160.5 164.5t223.5 61.5q123 0 208.5 -66.5t95.5 -171.5l-150 -55q-6 67 -51 105.5t-119 38.5q-112 0 -187 -83.5t-75 -199.5
q0 -92 49 -147.5t137 -55.5q146 0 213 146l131 -60q-56 -113 -150 -174t-212 -61z" />
    <glyph glyph-name="ordfeminine" unicode="&#xaa;" horiz-adv-x="788" 
d="M893 1675h113l-117 -598h-113l19 94q-92 -110 -226 -110q-109 0 -180.5 72t-71.5 190q0 142 99.5 253.5t240.5 111.5q77 0 132.5 -34t80.5 -93zM612 1198q82 0 137.5 64t55.5 145q0 65 -39.5 106t-106.5 41q-75 0 -132.5 -60.5t-57.5 -145.5q0 -67 39 -108.5t104 -41.5z
" />
    <glyph glyph-name="guillemotleft" unicode="&#xab;" horiz-adv-x="946" 
d="M651 852l-303 -356l152 -332h-183l-155 344l291 344h198zM1012 852l-303 -358l151 -330h-182l-156 344l289 344h201z" />
    <glyph glyph-name="logicalnot" unicode="&#xac;" horiz-adv-x="1042" 
d="M1081 782l-98 -508h-195l64 332h-641l35 176h835z" />
    <glyph glyph-name="registered" unicode="&#xae;" horiz-adv-x="1007" 
d="M758 1487q167 0 272 -104.5t105 -270.5q0 -132 -64.5 -244t-175 -177.5t-240.5 -65.5q-169 0 -274 105.5t-105 270.5q0 129 64 241t175.5 178.5t242.5 66.5zM662 713q156 0 268 116.5t112 274.5q0 128 -81.5 210.5t-210.5 82.5q-156 0 -268.5 -115.5t-112.5 -273.5
q0 -126 82 -210.5t211 -84.5zM768 1292q60 0 96.5 -31t36.5 -85q0 -60 -42.5 -99.5t-106.5 -44.5l92 -190h-86l-86 190h-25l-37 -190h-84l88 450h154zM735 1100q39 0 60.5 17.5t21.5 49.5q0 58 -65 58h-68l-25 -125h76z" />
    <glyph glyph-name="macron" unicode="&#xaf;" horiz-adv-x="667" 
d="M317 1335l31 156h608l-30 -156h-609z" />
    <glyph glyph-name="degree" unicode="&#xb0;" horiz-adv-x="747" 
d="M555 825q-121 0 -198.5 74.5t-77.5 194.5q0 140 102 239t244 99q120 0 199 -73t79 -194q0 -139 -101.5 -239.5t-246.5 -100.5zM567 954q80 0 137.5 58t57.5 139q0 68 -42.5 110t-105.5 42q-79 0 -136.5 -57.5t-57.5 -139.5q0 -67 41.5 -109.5t105.5 -42.5z" />
    <glyph glyph-name="plusminus" unicode="&#xb1;" horiz-adv-x="960" 
d="M739 879h328l-35 -177h-327l-70 -360h-184l69 360h-327l34 177h328l70 356h184zM70 66l34 174h840l-35 -174h-839z" />
    <glyph glyph-name="uni00B2" unicode="&#xb2;" horiz-adv-x="681" 
d="M625 977l-176 -154h288l-20 -112h-484l17 88l270 235q78 67 113 111t35 90q0 38 -24 61t-64 23q-88 0 -129 -105l-119 41q76 179 270 179q93 0 150 -47.5t57 -126.5q0 -75 -44 -138.5t-140 -144.5z" />
    <glyph glyph-name="uni00B3" unicode="&#xb3;" horiz-adv-x="647" 
d="M815 1423l-20 -108l-209 -185q75 -12 119.5 -63t44.5 -127q0 -103 -80 -172.5t-201 -69.5q-96 0 -165 46t-75 112l129 49q6 -41 38.5 -65.5t78.5 -24.5q60 0 98.5 36.5t38.5 92.5q0 46 -29.5 73t-82.5 27h-80l16 91l209 180h-293l21 108h442z" />
    <glyph glyph-name="acute" unicode="&#xb4;" horiz-adv-x="581" 
d="M383 1219l-74 122l490 281l78 -141z" />
    <glyph glyph-name="paragraph" unicode="&#xb6;" horiz-adv-x="1243" 
d="M1352 1423l-318 -1628h-114l282 1452h-92l-283 -1452h-114l280 1452h-90l-129 -669h-131q-189 0 -299.5 97.5t-110.5 264.5q0 98 39.5 186.5t108.5 154t169 104t216 38.5h586z" />
    <glyph glyph-name="periodcentered" unicode="&#xb7;" horiz-adv-x="458" 
d="M342 537q-52 0 -85.5 32.5t-33.5 83.5q0 59 44 103.5t106 44.5q53 0 86 -32t33 -83q0 -59 -44 -104t-106 -45z" />
    <glyph glyph-name="cedilla" unicode="&#xb8;" horiz-adv-x="528" 
d="M336 -106q60 -13 97.5 -60.5t37.5 -109.5q0 -92 -75 -155t-189 -63q-77 0 -136 29t-87 72l86 84q35 -68 120 -68q57 0 93 31t36 78q0 46 -32 78q-31 24 -72 24h-20l-15 23l101 168h129z" />
    <glyph glyph-name="uni00B9" unicode="&#xb9;" horiz-adv-x="563" 
d="M655 1423l-114 -592h104l-22 -120h-387l24 120h139l72 371h-135l22 119h136l20 102h141z" />
    <glyph glyph-name="ordmasculine" unicode="&#xba;" horiz-adv-x="741" 
d="M596 1061q-124 0 -201.5 74.5t-77.5 199.5q0 143 104 250t253 107q124 0 201 -75.5t77 -201.5q0 -143 -103 -248.5t-253 -105.5zM614 1196q82 0 137.5 61t55.5 142q0 69 -41.5 112t-108.5 43q-82 0 -138 -60.5t-56 -141.5q0 -70 41.5 -113t109.5 -43z" />
    <glyph glyph-name="guillemotright" unicode="&#xbb;" horiz-adv-x="946" 
d="M463 852l155 -344l-290 -344h-201l303 358l-151 330h184zM821 852l156 -344l-291 -344h-199l304 360l-152 328h182z" />
    <glyph glyph-name="onequarter" unicode="&#xbc;" horiz-adv-x="1318" 
d="M209 711l22 120h140l71 371h-135l25 119h133l20 102h144l-115 -592h104l-24 -120h-385zM1245 1423h156l-1008 -1423h-153zM1217 713h135l-90 -459h75l-18 -100h-76l-31 -154h-135l31 154h-324l19 100zM918 254h212l56 297z" />
    <glyph glyph-name="onehalf" unicode="&#xbd;" horiz-adv-x="1390" 
d="M209 711l22 120h140l71 371h-135l25 119h133l20 102h144l-115 -592h104l-24 -120h-385zM1241 1423h156l-1010 -1423h-154zM1278 266l-176 -153h289l-21 -113h-483l16 88l271 236q77 67 112 110.5t35 89.5q0 38 -24 61t-64 23q-89 0 -129 -104l-119 41q76 178 270 178
q93 0 150 -47.5t57 -126.5q0 -75 -44 -138.5t-140 -144.5z" />
    <glyph glyph-name="threequarters" unicode="&#xbe;" horiz-adv-x="1347" 
d="M735 940q0 -103 -79 -172.5t-199 -69.5q-98 0 -167 45.5t-75 112.5l131 49q4 -41 36.5 -65.5t78.5 -24.5q60 0 98.5 36.5t38.5 92.5q0 46 -29.5 73t-81.5 27h-81l18 91l207 180h-293l22 108h441l-21 -108l-207 -185q74 -12 118 -63.5t44 -126.5zM1282 1423h156
l-1010 -1423h-154zM1237 713h133l-90 -459h76l-19 -100h-75l-31 -154h-133l30 154h-325l20 100zM938 254h211l57 297z" />
    <glyph glyph-name="questiondown" unicode="&#xbf;" horiz-adv-x="913" 
d="M668 829q-52 0 -84.5 32t-32.5 83q0 61 42.5 105.5t104.5 44.5q52 0 84.5 -32t32.5 -83q0 -61 -42.5 -105.5t-104.5 -44.5zM379 -389q-158 0 -255 79.5t-97 221.5q0 69 24.5 128t65 103t90 84t101.5 78.5t97 78t79.5 91.5t45.5 111l9 43h186l-14 -70
q-15 -67 -48.5 -124.5t-75 -98.5t-88 -78.5t-90.5 -70t-80 -66t-57.5 -74.5t-21.5 -88q0 -74 45 -114t121 -40q88 0 151 52.5t99 142.5l176 -61q-60 -151 -178 -239.5t-285 -88.5z" />
    <glyph glyph-name="Agrave" unicode="&#xc0;" horiz-adv-x="1298" 
d="M1253 1698l-53 -142l-549 187l58 162zM780 1423h252l217 -1423h-196l-58 381h-563l-203 -381h-217zM522 551h449l-99 659z" />
    <glyph glyph-name="Aacute" unicode="&#xc1;" horiz-adv-x="1298" 
d="M1292 1739l-563 -178l-47 141l561 199zM780 1423h252l217 -1423h-196l-58 381h-563l-203 -381h-217zM522 551h449l-99 659z" />
    <glyph glyph-name="Acircumflex" unicode="&#xc2;" horiz-adv-x="1298" 
d="M989 1747l-203 -178h-202l336 311h167l205 -311h-176zM780 1423h252l217 -1423h-196l-58 381h-563l-203 -381h-217zM522 551h449l-99 659z" />
    <glyph glyph-name="Atilde" unicode="&#xc3;" horiz-adv-x="1298" 
d="M1229 1843l133 -59q-32 -92 -95.5 -149.5t-154.5 -57.5q-45 0 -83.5 16t-62 35t-56 35t-66.5 16q-84 0 -115 -94l-133 60q32 92 95 149t153 57q44 0 82.5 -16t62 -35t56.5 -35t67 -16q80 0 117 94zM780 1423h252l217 -1423h-196l-58 381h-563l-203 -381h-217zM522 551
h449l-99 659z" />
    <glyph glyph-name="Adieresis" unicode="&#xc4;" horiz-adv-x="1298" 
d="M733 1577q-58 0 -94.5 35.5t-36.5 95.5q0 69 49.5 116.5t118.5 47.5q60 0 95.5 -36t35.5 -95q0 -67 -50 -115.5t-118 -48.5zM1200 1872q61 0 96 -36t35 -95q0 -67 -50 -115.5t-118 -48.5q-58 0 -94.5 35.5t-36.5 95.5q0 69 49.5 116.5t118.5 47.5zM780 1423h252
l217 -1423h-196l-58 381h-563l-203 -381h-217zM522 551h449l-99 659z" />
    <glyph glyph-name="Aring" unicode="&#xc5;" horiz-adv-x="1298" 
d="M936 1456q-91 0 -147 55.5t-56 141.5q0 101 77 173t183 72q90 0 145.5 -55t55.5 -141q0 -101 -76 -173.5t-182 -72.5zM977 1778q-48 0 -82.5 -33t-34.5 -80q0 -39 24.5 -63.5t63.5 -24.5q48 0 83.5 32.5t35.5 80.5q0 39 -24.5 63.5t-65.5 24.5zM1053 0l-58 381h-563
l-203 -381h-217l768 1423h252l217 -1423h-196zM522 551h449l-99 659z" />
    <glyph glyph-name="AE" unicode="&#xc6;" horiz-adv-x="1859" 
d="M2011 1241h-676l-80 -416h607l-37 -182h-604l-88 -461h686l-35 -182h-897l71 373h-495l-264 -373h-228l1000 1423h1075zM590 551h403l135 690h-47z" />
    <glyph glyph-name="Ccedilla" unicode="&#xc7;" horiz-adv-x="1497" 
d="M844 172q159 0 272.5 79t194.5 241l182 -80q-205 -422 -643 -437l-47 -81q60 -13 97.5 -60.5t37.5 -109.5q0 -92 -75 -155t-189 -63q-77 0 -136 29t-87 72l86 84q35 -68 120 -68q57 0 93 31t36 78q0 44 -28 73t-76 29h-20l-13 23l74 125q-237 31 -380.5 198.5
t-143.5 417.5q0 170 60.5 325.5t165.5 271t256 184.5t323 69q236 0 397 -130t188 -325l-207 -75q-25 153 -129.5 243t-271.5 90q-163 0 -294.5 -88.5t-202 -233t-70.5 -313.5q0 -197 118.5 -320.5t311.5 -123.5z" />
    <glyph glyph-name="Egrave" unicode="&#xc8;" horiz-adv-x="1155" 
d="M1214 1698l-53 -142l-549 187l58 162zM1276 1241h-676l-82 -416h608l-36 -182h-607l-88 -461h688l-36 -182h-897l276 1423h885z" />
    <glyph glyph-name="Eacute" unicode="&#xc9;" horiz-adv-x="1155" 
d="M1227 1739l-565 -178l-46 141l562 199zM1276 1241h-676l-82 -416h608l-36 -182h-607l-88 -461h688l-36 -182h-897l276 1423h885z" />
    <glyph glyph-name="Ecircumflex" unicode="&#xca;" horiz-adv-x="1155" 
d="M940 1747l-205 -178h-200l333 311h170l205 -311h-176zM1276 1241h-676l-82 -416h608l-36 -182h-607l-88 -461h688l-36 -182h-897l276 1423h885z" />
    <glyph glyph-name="Edieresis" unicode="&#xcb;" horiz-adv-x="1155" 
d="M680 1577q-58 0 -94.5 35.5t-36.5 95.5q0 69 49.5 116.5t118.5 47.5q61 0 96 -36t35 -95q0 -67 -50 -115.5t-118 -48.5zM1110 1577q-58 0 -94.5 35.5t-36.5 95.5q0 68 50 116t120 48q59 0 94 -36t35 -95q0 -67 -50 -115.5t-118 -48.5zM1276 1241h-676l-82 -416h608
l-36 -182h-607l-88 -461h688l-36 -182h-897l276 1423h885z" />
    <glyph glyph-name="Igrave" unicode="&#xcc;" horiz-adv-x="528" 
d="M817 1556l-551 187l58 162l546 -207zM150 0l276 1423h209l-277 -1423h-208z" />
    <glyph glyph-name="Iacute" unicode="&#xcd;" horiz-adv-x="528" 
d="M344 1561l-45 141l561 199l49 -162zM150 0l276 1423h209l-277 -1423h-208z" />
    <glyph glyph-name="Icircumflex" unicode="&#xce;" horiz-adv-x="528" 
d="M702 1880l207 -311h-176l-129 178l-203 -178h-202l336 311h167zM150 0l276 1423h209l-277 -1423h-208z" />
    <glyph glyph-name="Idieresis" unicode="&#xcf;" horiz-adv-x="528" 
d="M348 1577q-57 0 -94 35.5t-37 95.5q0 68 50 116t120 48q59 0 94 -36t35 -95q0 -67 -50 -115.5t-118 -48.5zM780 1577q-58 0 -94.5 35.5t-36.5 95.5q0 69 49.5 116.5t118.5 47.5q60 0 95.5 -36t35.5 -95q0 -67 -50.5 -115.5t-117.5 -48.5zM150 0l276 1423h209l-277 -1423
h-208z" />
    <glyph glyph-name="Eth" unicode="&#xd0;" horiz-adv-x="1492" 
d="M924 1423q272 0 437 -168t165 -446q0 -167 -62.5 -316.5t-171 -257.5t-262 -171.5t-328.5 -63.5h-534l129 659h-162l29 148h162l118 616h480zM721 184q162 0 297.5 83.5t213 226t77.5 311.5q0 202 -111 318t-303 116h-279l-84 -432h285l-26 -148h-285l-92 -475h307z" />
    <glyph glyph-name="Ntilde" unicode="&#xd1;" horiz-adv-x="1409" 
d="M872 1679q-83 0 -114 -94l-135 60q32 91 95.5 148.5t153.5 57.5q44 0 82.5 -16t62 -35t56 -35t66.5 -16q81 0 118 94l132 -59q-30 -91 -94 -149t-154 -58q-45 0 -84.5 16t-63 35t-56 35t-65.5 16zM1288 1423h207l-276 -1423h-172l-484 1057l-207 -1057h-206l276 1423h174
l481 -1065z" />
    <glyph glyph-name="Ograve" unicode="&#xd2;" horiz-adv-x="1615" 
d="M1360 1556l-549 187l57 162l545 -207zM834 -25q-283 0 -459 180.5t-176 465.5q0 133 40.5 258.5t115 227.5t174 179t224 119.5t257.5 42.5q284 0 459.5 -177t175.5 -466q0 -170 -64 -324t-172.5 -264.5t-259 -176t-315.5 -65.5zM848 172q120 0 228 50t185.5 134
t123 198.5t45.5 238.5q0 206 -119.5 332t-317.5 126q-159 0 -292.5 -84t-210 -225.5t-76.5 -306.5q0 -209 119 -336t315 -127z" />
    <glyph glyph-name="Oacute" unicode="&#xd3;" horiz-adv-x="1615" 
d="M850 1561l-47 141l563 199l47 -162zM834 -25q-283 0 -459 180.5t-176 465.5q0 133 40.5 258.5t115 227.5t174 179t224 119.5t257.5 42.5q284 0 459.5 -177t175.5 -466q0 -170 -64 -324t-172.5 -264.5t-259 -176t-315.5 -65.5zM848 172q120 0 228 50t185.5 134t123 198.5
t45.5 238.5q0 206 -119.5 332t-317.5 126q-159 0 -292.5 -84t-210 -225.5t-76.5 -306.5q0 -209 119 -336t315 -127z" />
    <glyph glyph-name="Ocircumflex" unicode="&#xd4;" horiz-adv-x="1615" 
d="M1104 1747l-203 -178h-203l336 311h168l205 -311h-174zM1010 1448q284 0 459.5 -177t175.5 -466q0 -170 -64 -324t-172.5 -264.5t-259 -176t-315.5 -65.5q-283 0 -459 180.5t-176 465.5q0 133 40.5 258.5t115 227.5t174 179t224 119.5t257.5 42.5zM848 172q120 0 228 50
t185.5 134t123 198.5t45.5 238.5q0 206 -119.5 332t-317.5 126q-159 0 -292.5 -84t-210 -225.5t-76.5 -306.5q0 -209 119 -336t315 -127z" />
    <glyph glyph-name="Otilde" unicode="&#xd5;" horiz-adv-x="1615" 
d="M1221 1577q-45 0 -84 16t-62.5 35t-56 35t-66.5 16q-83 0 -114 -94l-133 60q32 92 94.5 149t152.5 57q44 0 82.5 -16t62 -35t56 -35t66.5 -16q81 0 118 94l131 -59q-30 -92 -93 -149.5t-154 -57.5zM834 -25q-283 0 -459 180.5t-176 465.5q0 133 40.5 258.5t115 227.5
t174 179t224 119.5t257.5 42.5q284 0 459.5 -177t175.5 -466q0 -170 -64 -324t-172.5 -264.5t-259 -176t-315.5 -65.5zM848 172q120 0 228 50t185.5 134t123 198.5t45.5 238.5q0 206 -119.5 332t-317.5 126q-159 0 -292.5 -84t-210 -225.5t-76.5 -306.5q0 -209 119 -336
t315 -127z" />
    <glyph glyph-name="Odieresis" unicode="&#xd6;" horiz-adv-x="1615" 
d="M862 1577q-58 0 -94.5 35.5t-36.5 95.5q0 69 49.5 116.5t118.5 47.5q61 0 96 -36t35 -95q0 -67 -50 -115.5t-118 -48.5zM1292 1577q-58 0 -94.5 35.5t-36.5 95.5q0 68 50 116t120 48q59 0 94 -36t35 -95q0 -67 -50 -115.5t-118 -48.5zM834 -25q-283 0 -459 180.5
t-176 465.5q0 133 40.5 258.5t115 227.5t174 179t224 119.5t257.5 42.5q284 0 459.5 -177t175.5 -466q0 -170 -64 -324t-172.5 -264.5t-259 -176t-315.5 -65.5zM848 172q120 0 228 50t185.5 134t123 198.5t45.5 238.5q0 206 -119.5 332t-317.5 126q-159 0 -292.5 -84
t-210 -225.5t-76.5 -306.5q0 -209 119 -336t315 -127z" />
    <glyph glyph-name="multiply" unicode="&#xd7;" horiz-adv-x="972" 
d="M1067 926l-340 -291l219 -281l-135 -112l-217 280l-338 -289l-106 129l339 291l-219 283l136 113l217 -281l340 291z" />
    <glyph glyph-name="Oslash" unicode="&#xd8;" horiz-adv-x="1617" 
d="M1733 1343l-187 -169q99 -157 99 -369q0 -170 -63.5 -323.5t-172 -264.5t-258.5 -176.5t-315 -65.5q-262 0 -437 158l-188 -172l-98 117l188 172q-100 155 -100 371q0 167 63.5 319.5t171 264t258.5 177.5t318 66q264 0 436 -158l186 170zM414 635q0 -133 51 -238
l825 750q-116 104 -295 104q-159 0 -293 -84t-211 -225.5t-77 -306.5zM1432 793q0 127 -52 231l-823 -748q116 -104 293 -104q119 0 227 50t185.5 134t123.5 198.5t46 238.5z" />
    <glyph glyph-name="Ugrave" unicode="&#xd9;" horiz-adv-x="1376" 
d="M1233 1556l-551 187l57 162l547 -207zM692 -25q-169 0 -282 75.5t-155 206.5t-11 298l168 868h209l-168 -868q-35 -178 38 -280.5t230 -102.5q147 0 245 88.5t130 253.5l176 909h207l-176 -909q-49 -258 -209 -398.5t-402 -140.5z" />
    <glyph glyph-name="Uacute" unicode="&#xda;" horiz-adv-x="1376" 
d="M737 1561l-45 141l561 199l50 -162zM692 -25q-169 0 -282 75.5t-155 206.5t-11 298l168 868h209l-168 -868q-35 -178 38 -280.5t230 -102.5q147 0 245 88.5t130 253.5l176 909h207l-176 -909q-49 -258 -209 -398.5t-402 -140.5z" />
    <glyph glyph-name="Ucircumflex" unicode="&#xdb;" horiz-adv-x="1376" 
d="M999 1747l-202 -178h-203l336 311h168l207 -311h-177zM1272 1423h207l-176 -909q-49 -258 -209 -398.5t-402 -140.5q-169 0 -282 75.5t-155 206.5t-11 298l168 868h209l-168 -868q-35 -178 38 -280.5t230 -102.5q147 0 245 88.5t130 253.5z" />
    <glyph glyph-name="Udieresis" unicode="&#xdc;" horiz-adv-x="1376" 
d="M758 1577q-58 0 -94.5 35.5t-36.5 95.5q0 69 49.5 116.5t118.5 47.5q60 0 95.5 -36t35.5 -95q0 -67 -50 -115.5t-118 -48.5zM1188 1577q-58 0 -94.5 35.5t-36.5 95.5q0 68 50 116t120 48q59 0 94 -36t35 -95q0 -67 -50 -115.5t-118 -48.5zM692 -25q-169 0 -282 75.5
t-155 206.5t-11 298l168 868h209l-168 -868q-35 -178 38 -280.5t230 -102.5q147 0 245 88.5t130 253.5l176 909h207l-176 -909q-49 -258 -209 -398.5t-402 -140.5z" />
    <glyph glyph-name="Yacute" unicode="&#xdd;" horiz-adv-x="1282" 
d="M1229 1739l-565 -178l-46 141l562 199zM1513 1423l-675 -841l-113 -582h-209l115 588l-350 835h211l270 -659l504 659h247z" />
    <glyph glyph-name="Thorn" unicode="&#xde;" horiz-adv-x="1216" 
d="M895 1145q198 0 304.5 -109.5t88.5 -283.5q-18 -207 -168.5 -330t-371.5 -123h-332l-58 -299h-208l276 1423h209l-53 -278h313zM1071 727q16 105 -40 171.5t-175 66.5h-311l-92 -482h311q129 0 210.5 67t96.5 177z" />
    <glyph glyph-name="germandbls" unicode="&#xdf;" horiz-adv-x="1232" 
d="M729 -25q-115 0 -186.5 51.5t-91.5 135.5l75 151q8 -74 60.5 -118.5t144.5 -44.5q132 0 214.5 79t88.5 205q6 124 -64.5 197.5t-215.5 73.5l32 167q145 0 230 77.5t90 183.5q6 96 -56.5 155.5t-170.5 59.5q-135 0 -225 -83t-119 -237l-199 -1028h-207l197 1018
q46 238 204 370t396 132q203 0 307 -103.5t88 -263.5q-9 -125 -94 -221.5t-209 -132.5q107 -35 170 -139.5t51 -245.5q-19 -201 -159 -320t-351 -119z" />
    <glyph glyph-name="agrave" unicode="&#xe0;" horiz-adv-x="1320" 
d="M1157 1327l-84 -123l-455 275l91 141zM1169 1079h193l-209 -1079h-192l32 168q-168 -193 -401 -193q-193 0 -312.5 131t-119.5 343q0 172 80.5 322t223 240.5t312.5 90.5q132 0 223 -56t134 -159zM664 160q168 0 285.5 134t117.5 316q0 140 -78.5 225t-210.5 85
q-112 0 -206 -61.5t-147.5 -163t-53.5 -218.5q0 -140 80.5 -228.5t212.5 -88.5z" />
    <glyph glyph-name="aacute" unicode="&#xe1;" horiz-adv-x="1320" 
d="M1186 1481l-496 -262l-72 122l490 281zM1169 1079h193l-209 -1079h-192l32 168q-168 -193 -401 -193q-193 0 -312.5 131t-119.5 343q0 172 80.5 322t223 240.5t312.5 90.5q132 0 223 -56t134 -159zM664 160q168 0 285.5 134t117.5 316q0 140 -78.5 225t-210.5 85
q-112 0 -206 -61.5t-147.5 -163t-53.5 -218.5q0 -140 80.5 -228.5t212.5 -88.5z" />
    <glyph glyph-name="acircumflex" unicode="&#xe2;" horiz-adv-x="1320" 
d="M942 1462l-213 -217h-194l337 344h168l201 -344h-168zM1169 1079h193l-209 -1079h-192l32 168q-168 -193 -401 -193q-193 0 -312.5 131t-119.5 343q0 172 80.5 322t223 240.5t312.5 90.5q132 0 223 -56t134 -159zM664 160q168 0 285.5 134t117.5 316q0 140 -78.5 225
t-210.5 85q-112 0 -206 -61.5t-147.5 -163t-53.5 -218.5q0 -140 80.5 -228.5t212.5 -88.5z" />
    <glyph glyph-name="atilde" unicode="&#xe3;" horiz-adv-x="1320" 
d="M780 1382q-79 0 -110 -94l-133 60q32 91 93.5 148.5t147.5 57.5q43 0 79.5 -16t58.5 -35t53 -35t63 -16q81 0 113 94l133 -59q-32 -91 -94.5 -149t-149.5 -58q-43 0 -80.5 16t-59 35t-52 35t-62.5 16zM1169 1079h193l-209 -1079h-192l32 168q-168 -193 -401 -193
q-193 0 -312.5 131t-119.5 343q0 172 80.5 322t223 240.5t312.5 90.5q132 0 223 -56t134 -159zM664 160q168 0 285.5 134t117.5 316q0 140 -78.5 225t-210.5 85q-112 0 -206 -61.5t-147.5 -163t-53.5 -218.5q0 -140 80.5 -228.5t212.5 -88.5z" />
    <glyph glyph-name="adieresis" unicode="&#xe4;" horiz-adv-x="1320" 
d="M682 1272q-58 0 -93.5 36t-35.5 97q0 62 50.5 109t117.5 47q58 0 93.5 -35t35.5 -96q0 -62 -50.5 -110t-117.5 -48zM1100 1272q-57 0 -92 36t-35 97q0 62 50 109t116 47q58 0 93.5 -35t35.5 -96q0 -62 -50.5 -110t-117.5 -48zM1169 1079h193l-209 -1079h-192l32 168
q-168 -193 -401 -193q-193 0 -312.5 131t-119.5 343q0 172 80.5 322t223 240.5t312.5 90.5q132 0 223 -56t134 -159zM664 160q168 0 285.5 134t117.5 316q0 140 -78.5 225t-210.5 85q-112 0 -206 -61.5t-147.5 -163t-53.5 -218.5q0 -140 80.5 -228.5t212.5 -88.5z" />
    <glyph glyph-name="aring" unicode="&#xe5;" horiz-adv-x="1320" 
d="M862 1184q-90 0 -146.5 54.5t-56.5 141.5q0 100 77.5 172t183.5 72q91 0 145.5 -55t54.5 -142q0 -100 -76 -171.5t-182 -71.5zM903 1505q-48 0 -81.5 -32.5t-33.5 -81.5q0 -39 24 -63.5t65 -24.5q47 0 81.5 32t34.5 80q0 39 -24.5 64.5t-65.5 25.5zM1169 1079h193
l-209 -1079h-192l32 168q-168 -193 -401 -193q-193 0 -312.5 131t-119.5 343q0 172 80.5 322t223 240.5t312.5 90.5q132 0 223 -56t134 -159zM664 160q168 0 285.5 134t117.5 316q0 140 -78.5 225t-210.5 85q-112 0 -206 -61.5t-147.5 -163t-53.5 -218.5q0 -140 80.5 -228.5
t212.5 -88.5z" />
    <glyph glyph-name="ae" unicode="&#xe6;" horiz-adv-x="2105" 
d="M1726 1102q189 0 310 -123.5t121 -306.5q0 -42 -10.5 -100.5t-22.5 -90.5h-848v-14q0 -148 85.5 -236t219.5 -88q215 0 332 199l135 -98q-176 -269 -492 -269q-277 0 -358 254l-45 -229h-192l32 166q-166 -191 -401 -191q-193 0 -312.5 131t-119.5 343q0 172 80.5 322
t223 240.5t312.5 90.5q131 0 222.5 -55.5t136.5 -157.5l34 190h193l-33 -168q75 89 176.5 140t220.5 51zM1294 608h672q4 46 4 60q0 130 -71 205t-199 75q-148 0 -257 -96t-149 -244zM664 160q168 0 285.5 134t117.5 316q0 140 -78.5 225t-210.5 85q-112 0 -206 -61.5
t-147.5 -163t-53.5 -218.5q0 -140 80.5 -228.5t212.5 -88.5z" />
    <glyph glyph-name="ccedilla" unicode="&#xe7;" horiz-adv-x="1177" 
d="M664 162q107 0 194 58t139 169l168 -74q-74 -151 -197 -238.5t-278 -99.5l-47 -83q60 -13 97.5 -60.5t37.5 -109.5q0 -92 -75 -155t-189 -63q-77 0 -136 29t-87 72l86 84q35 -68 121 -68q57 0 93 31t36 78q0 45 -33 78q-31 24 -72 24h-20l-15 23l74 125q-183 25 -291 154
t-108 321q0 129 50.5 247.5t135.5 206t204.5 139.5t250.5 52q177 0 299 -95t137 -247l-197 -70q-9 103 -81 165.5t-185 62.5q-111 0 -205 -61.5t-147 -161.5t-53 -214q0 -141 80.5 -230t212.5 -89z" />
    <glyph glyph-name="egrave" unicode="&#xe8;" horiz-adv-x="1214" 
d="M1100 1325l-84 -123l-455 275l90 141zM791 1102q200 0 322 -123t122 -307q0 -43 -10.5 -103.5t-24.5 -99.5h-833v-2q0 -140 83.5 -224.5t211.5 -84.5q104 0 178.5 46.5t136.5 143.5l151 -104q-181 -269 -491 -269q-210 0 -343.5 134.5t-133.5 341.5q0 175 84 325
t229.5 238t317.5 88zM393 631h641q2 14 2 37q0 123 -68 194.5t-188 71.5q-136 0 -240 -85t-147 -218z" />
    <glyph glyph-name="eacute" unicode="&#xe9;" horiz-adv-x="1214" 
d="M1139 1479l-496 -262l-72 122l490 281zM791 1102q200 0 322 -123t122 -307q0 -43 -10.5 -103.5t-24.5 -99.5h-833v-2q0 -140 83.5 -224.5t211.5 -84.5q104 0 178.5 46.5t136.5 143.5l151 -104q-181 -269 -491 -269q-210 0 -343.5 134.5t-133.5 341.5q0 175 84 325
t229.5 238t317.5 88zM393 631h641q2 14 2 37q0 123 -68 194.5t-188 71.5q-136 0 -240 -85t-147 -218z" />
    <glyph glyph-name="ecircumflex" unicode="&#xea;" horiz-adv-x="1214" 
d="M868 1460l-213 -217h-194l338 344h168l200 -344h-166zM791 1102q200 0 322 -123t122 -307q0 -43 -10.5 -103.5t-24.5 -99.5h-833v-2q0 -140 83.5 -224.5t211.5 -84.5q104 0 178.5 46.5t136.5 143.5l151 -104q-181 -269 -491 -269q-210 0 -343.5 134.5t-133.5 341.5
q0 175 84 325t229.5 238t317.5 88zM393 631h641q2 14 2 37q0 123 -68 194.5t-188 71.5q-136 0 -240 -85t-147 -218z" />
    <glyph glyph-name="edieresis" unicode="&#xeb;" horiz-adv-x="1214" 
d="M608 1270q-58 0 -93.5 36t-35.5 97q0 62 50 109t116 47q58 0 93.5 -35.5t35.5 -96.5q0 -62 -50 -109.5t-116 -47.5zM1026 1270q-58 0 -93.5 36t-35.5 97q0 62 50 109t116 47q58 0 93.5 -35.5t35.5 -96.5q0 -62 -50 -109.5t-116 -47.5zM791 1102q200 0 322 -123t122 -307
q0 -43 -10.5 -103.5t-24.5 -99.5h-833v-2q0 -140 83.5 -224.5t211.5 -84.5q104 0 178.5 46.5t136.5 143.5l151 -104q-181 -269 -491 -269q-210 0 -343.5 134.5t-133.5 341.5q0 175 84 325t229.5 238t317.5 88zM393 631h641q2 14 2 37q0 123 -68 194.5t-188 71.5
q-136 0 -240 -85t-147 -218z" />
    <glyph glyph-name="igrave" unicode="&#xec;" horiz-adv-x="481" 
d="M653 1204l-454 275l92 141l446 -295zM129 0l209 1079h207l-209 -1079h-207z" />
    <glyph glyph-name="iacute" unicode="&#xed;" horiz-adv-x="481" 
d="M293 1217l-72 122l488 283l79 -143zM129 0l209 1079h207l-209 -1079h-207z" />
    <glyph glyph-name="icircumflex" unicode="&#xee;" horiz-adv-x="481" 
d="M616 1587l201 -344h-168l-131 217l-213 -217h-194l338 344h167zM129 0l209 1079h207l-209 -1079h-207z" />
    <glyph glyph-name="idieresis" unicode="&#xef;" horiz-adv-x="481" 
d="M274 1272q-58 0 -93.5 35t-35.5 96q0 63 50 110.5t116 47.5q58 0 93.5 -36t35.5 -98q0 -60 -50 -107.5t-116 -47.5zM692 1272q-58 0 -93.5 35t-35.5 96q0 63 50 110.5t116 47.5q58 0 93.5 -36t35.5 -98q0 -60 -50 -107.5t-116 -47.5zM129 0l209 1079h207l-209 -1079h-207
z" />
    <glyph glyph-name="eth" unicode="&#xf0;" horiz-adv-x="1255" 
d="M956 1466q167 -114 260 -299t93 -415q0 -225 -80.5 -401t-232.5 -276t-351 -100q-216 0 -351.5 132.5t-135.5 336.5q0 170 85.5 314.5t231 228.5t313.5 84q92 0 172 -30.5t134 -90.5q-61 250 -289 385l-248 -211l-92 95l209 178q-142 53 -316 53l105 160q202 0 371 -76
l194 166l92 -94zM674 162q111 0 205.5 62t147 161.5t52.5 210.5q0 125 -88 207t-221 82q-167 0 -283 -120.5t-116 -293.5q0 -134 81 -221.5t222 -87.5z" />
    <glyph glyph-name="ntilde" unicode="&#xf1;" horiz-adv-x="1249" 
d="M735 1380q-75 0 -110 -94l-133 60q32 91 94 148.5t149 57.5q42 0 78.5 -16t58 -35t52.5 -35t63 -16q78 0 115 94l131 -59q-30 -91 -93 -149t-151 -58q-43 0 -80.5 16t-59 35t-52 35t-62.5 16zM881 1104q190 0 286.5 -122.5t57.5 -326.5l-127 -655h-207l119 621
q27 143 -34.5 220t-187.5 77q-123 0 -215 -79.5t-114 -205.5v2l-123 -635h-207l209 1079h197l-27 -141q68 76 165.5 121t207.5 45z" />
    <glyph glyph-name="ograve" unicode="&#xf2;" horiz-adv-x="1280" 
d="M1057 1202l-455 275l92 141l447 -293zM651 -25q-218 0 -354.5 130.5t-136.5 349.5q0 172 84.5 320.5t233 237.5t325.5 89q214 0 351.5 -129t137.5 -350q0 -101 -30.5 -197.5t-88.5 -177.5t-135.5 -142.5t-177.5 -96t-209 -34.5zM676 162q87 0 163.5 37.5t129 99
t82.5 141.5t30 164q0 140 -82.5 227t-218.5 87q-114 0 -209 -63t-146.5 -163t-51.5 -213q0 -142 83 -229.5t220 -87.5z" />
    <glyph glyph-name="oacute" unicode="&#xf3;" horiz-adv-x="1280" 
d="M662 1217l-74 122l489 281l80 -141zM651 -25q-218 0 -354.5 130.5t-136.5 349.5q0 172 84.5 320.5t233 237.5t325.5 89q214 0 351.5 -129t137.5 -350q0 -101 -30.5 -197.5t-88.5 -177.5t-135.5 -142.5t-177.5 -96t-209 -34.5zM676 162q87 0 163.5 37.5t129 99t82.5 141.5
t30 164q0 140 -82.5 227t-218.5 87q-114 0 -209 -63t-146.5 -163t-51.5 -213q0 -142 83 -229.5t220 -87.5z" />
    <glyph glyph-name="ocircumflex" unicode="&#xf4;" horiz-adv-x="1280" 
d="M887 1460l-213 -217h-195l338 344h168l201 -344h-166zM803 1102q214 0 351.5 -129t137.5 -350q0 -101 -30.5 -197.5t-88.5 -177.5t-135.5 -142.5t-177.5 -96t-209 -34.5q-218 0 -354.5 130.5t-136.5 349.5q0 172 84.5 320.5t233 237.5t325.5 89zM676 162q87 0 163.5 37.5
t129 99t82.5 141.5t30 164q0 140 -82.5 227t-218.5 87q-114 0 -209 -63t-146.5 -163t-51.5 -213q0 -142 83 -229.5t220 -87.5z" />
    <glyph glyph-name="otilde" unicode="&#xf5;" horiz-adv-x="1280" 
d="M983 1278q-44 0 -81.5 16t-59 35t-52.5 35t-63 16q-78 0 -109 -94l-135 60q31 91 94.5 148.5t149.5 57.5q43 0 79.5 -16t58.5 -35t53 -35t63 -16q76 0 113 94l131 -59q-30 -91 -92.5 -149t-149.5 -58zM651 -25q-218 0 -354.5 130.5t-136.5 349.5q0 172 84.5 320.5
t233 237.5t325.5 89q214 0 351.5 -129t137.5 -350q0 -101 -30.5 -197.5t-88.5 -177.5t-135.5 -142.5t-177.5 -96t-209 -34.5zM676 162q87 0 163.5 37.5t129 99t82.5 141.5t30 164q0 140 -82.5 227t-218.5 87q-114 0 -209 -63t-146.5 -163t-51.5 -213q0 -142 83 -229.5
t220 -87.5z" />
    <glyph glyph-name="odieresis" unicode="&#xf6;" horiz-adv-x="1280" 
d="M639 1270q-58 0 -93.5 36t-35.5 97q0 62 50.5 109t117.5 47q58 0 93.5 -35.5t35.5 -96.5q0 -62 -50.5 -109.5t-117.5 -47.5zM1057 1270q-58 0 -93.5 36t-35.5 97q0 62 50.5 109t117.5 47q58 0 93.5 -35.5t35.5 -96.5q0 -62 -50.5 -109.5t-117.5 -47.5zM651 -25
q-218 0 -354.5 130.5t-136.5 349.5q0 172 84.5 320.5t233 237.5t325.5 89q214 0 351.5 -129t137.5 -350q0 -101 -30.5 -197.5t-88.5 -177.5t-135.5 -142.5t-177.5 -96t-209 -34.5zM676 162q87 0 163.5 37.5t129 99t82.5 141.5t30 164q0 140 -82.5 227t-218.5 87
q-114 0 -209 -63t-146.5 -163t-51.5 -213q0 -142 83 -229.5t220 -87.5z" />
    <glyph glyph-name="divide" unicode="&#xf7;" horiz-adv-x="952" 
d="M662 909q-52 0 -84.5 32t-32.5 83q0 61 42.5 105.5t104.5 44.5q53 0 85 -32.5t32 -82.5q0 -61 -42.5 -105.5t-104.5 -44.5zM166 561l35 176h835l-35 -176h-835zM508 109q-53 0 -85 31t-32 83q0 59 42.5 103.5t103.5 44.5q54 0 86 -32t32 -83q0 -60 -42.5 -103.5
t-104.5 -43.5z" />
    <glyph glyph-name="oslash" unicode="&#xf8;" horiz-adv-x="1282" 
d="M1417 971l-164 -125q47 -96 47 -223q0 -101 -30.5 -197.5t-88 -177.5t-134.5 -142.5t-176.5 -96t-208.5 -34.5q-228 0 -365 140l-164 -125l-78 112l164 125q-49 98 -49 228q0 172 84.5 320.5t232.5 237.5t324 89q230 0 367 -146l163 125zM381 479q0 -58 16 -117l613 467
q-83 89 -219 89q-115 0 -210.5 -63t-147.5 -163t-52 -213zM1090 604q0 58 -15 107l-608 -465q84 -84 217 -84q115 0 209.5 63.5t145.5 164.5t51 214z" />
    <glyph glyph-name="ugrave" unicode="&#xf9;" horiz-adv-x="1228" 
d="M1092 1327l-84 -123l-455 275l90 141zM1069 1079h207l-209 -1079h-197l29 150q-69 -80 -165 -127.5t-206 -47.5q-182 0 -276 122.5t-55 326.5l127 655h206l-118 -620q-28 -142 31.5 -219.5t179.5 -77.5q116 0 204.5 74t114.5 194z" />
    <glyph glyph-name="uacute" unicode="&#xfa;" horiz-adv-x="1228" 
d="M1143 1481l-496 -262l-74 122l490 281zM1069 1079h207l-209 -1079h-197l29 150q-69 -80 -165 -127.5t-206 -47.5q-182 0 -276 122.5t-55 326.5l127 655h206l-118 -620q-28 -142 31.5 -219.5t179.5 -77.5q116 0 204.5 74t114.5 194z" />
    <glyph glyph-name="ucircumflex" unicode="&#xfb;" horiz-adv-x="1228" 
d="M870 1460l-213 -215h-194l338 344h168l200 -344h-165zM1069 1079h207l-209 -1079h-197l29 150q-69 -80 -165 -127.5t-206 -47.5q-182 0 -276 122.5t-55 326.5l127 655h206l-118 -620q-28 -142 31.5 -219.5t179.5 -77.5q116 0 204.5 74t114.5 194z" />
    <glyph glyph-name="udieresis" unicode="&#xfc;" horiz-adv-x="1228" 
d="M623 1272q-58 0 -93.5 36t-35.5 97q0 62 49.5 109t115.5 47q58 0 93.5 -35t35.5 -96q0 -62 -49.5 -110t-115.5 -48zM1040 1272q-58 0 -93.5 36t-35.5 97q0 62 50 109t116 47q58 0 93.5 -35t35.5 -96q0 -62 -50 -110t-116 -48zM1069 1079h207l-209 -1079h-197l29 150
q-69 -80 -165 -127.5t-206 -47.5q-182 0 -276 122.5t-55 326.5l127 655h206l-118 -620q-28 -142 31.5 -219.5t179.5 -77.5q116 0 204.5 74t114.5 194z" />
    <glyph glyph-name="yacute" unicode="&#xfd;" horiz-adv-x="1126" 
d="M1100 1481l-496 -262l-72 122l488 281zM1059 1079h229l-837 -1446h-207l219 367h-37l-207 1079h207l154 -886z" />
    <glyph glyph-name="thorn" unicode="&#xfe;" horiz-adv-x="1288" 
d="M913 1102q147 0 250.5 -73t144.5 -202t11 -288q-31 -159 -123.5 -288t-226 -202.5t-279.5 -73.5q-227 0 -325 170l-101 -512h-207l363 1864h207l-111 -569q169 174 397 174zM1110 539q31 162 -43.5 270.5t-220.5 108.5q-150 0 -265 -105.5t-147 -273.5
q-32 -167 42.5 -272t223.5 -105q145 0 262 108t148 269z" />
    <glyph glyph-name="ydieresis" unicode="&#xff;" horiz-adv-x="1126" 
d="M563 1272q-58 0 -93.5 36t-35.5 97q0 62 50 109t116 47q58 0 93.5 -35t35.5 -96q0 -62 -50 -110t-116 -48zM981 1272q-58 0 -93.5 36t-35.5 97q0 62 50 109t116 47q58 0 93.5 -35t35.5 -96q0 -62 -50 -110t-116 -48zM1059 1079h229l-837 -1446h-207l219 367h-37
l-207 1079h207l154 -886z" />
    <glyph glyph-name="Amacron" unicode="&#x100;" horiz-adv-x="1298" 
d="M664 1810h645l-33 -170h-645zM780 1423h252l217 -1423h-196l-58 381h-563l-203 -381h-217zM522 551h449l-99 659z" />
    <glyph glyph-name="amacron" unicode="&#x101;" horiz-adv-x="1320" 
d="M1225 1491l-31 -156h-608l30 156h609zM1169 1079h193l-209 -1079h-192l32 168q-168 -193 -401 -193q-193 0 -312.5 131t-119.5 343q0 172 80.5 322t223 240.5t312.5 90.5q132 0 223 -56t134 -159zM664 160q168 0 285.5 134t117.5 316q0 140 -78.5 225t-210.5 85
q-112 0 -206 -61.5t-147.5 -163t-53.5 -218.5q0 -140 80.5 -228.5t212.5 -88.5z" />
    <glyph glyph-name="Abreve" unicode="&#x102;" horiz-adv-x="1298" 
d="M958 1569q-150 0 -225 93t-51 218h170q-13 -65 19 -110.5t102 -45.5q67 0 113.5 42.5t60.5 113.5h170q-26 -134 -121 -222.5t-238 -88.5zM780 1423h252l217 -1423h-196l-58 381h-563l-203 -381h-217zM522 551h449l-99 659z" />
    <glyph glyph-name="abreve" unicode="&#x103;" horiz-adv-x="1320" 
d="M889 1245q-146 0 -226 102.5t-53 241.5h162q-16 -79 18.5 -133.5t110.5 -54.5q80 0 131 54.5t64 133.5h164q-29 -153 -121 -248.5t-250 -95.5zM1169 1079h193l-209 -1079h-192l32 168q-168 -193 -401 -193q-193 0 -312.5 131t-119.5 343q0 172 80.5 322t223 240.5
t312.5 90.5q132 0 223 -56t134 -159zM664 160q168 0 285.5 134t117.5 316q0 140 -78.5 225t-210.5 85q-112 0 -206 -61.5t-147.5 -163t-53.5 -218.5q0 -140 80.5 -228.5t212.5 -88.5z" />
    <glyph glyph-name="Aogonek" unicode="&#x104;" horiz-adv-x="1298" 
d="M1098 -340q54 0 92 41l57 -96q-78 -78 -198 -78q-84 0 -135.5 44.5t-51.5 121.5q0 144 207 289l27 18h-43l-58 381h-563l-203 -381h-217l768 1423h252l217 -1423l-108 -92q-58 -49 -88.5 -89t-30.5 -87q0 -35 20 -53.5t56 -18.5zM522 551h449l-99 659z" />
    <glyph glyph-name="aogonek" unicode="&#x105;" horiz-adv-x="1320" 
d="M1044 -92q-58 -51 -88 -90.5t-30 -85.5q0 -35 19.5 -53.5t55.5 -18.5q54 0 95 41l57 -96q-81 -78 -199 -78q-86 0 -137 44.5t-51 121.5q0 141 207 289l26 18h-38l32 168q-168 -193 -401 -193q-193 0 -312.5 131t-119.5 343q0 172 80.5 322t223 240.5t312.5 90.5
q132 0 223 -56t134 -159l36 192h193l-209 -1079zM664 160q168 0 285.5 134t117.5 316q0 140 -78.5 225t-210.5 85q-112 0 -206 -61.5t-147.5 -163t-53.5 -218.5q0 -140 80.5 -228.5t212.5 -88.5z" />
    <glyph glyph-name="Cacute" unicode="&#x106;" horiz-adv-x="1497" 
d="M809 1561l-45 141l561 199l49 -162zM821 -25q-277 0 -449.5 173.5t-172.5 449.5q0 170 60.5 325.5t165 271t255 184.5t321.5 69q237 0 398 -129.5t190 -325.5l-207 -75q-27 153 -132 243t-271 90q-162 0 -293 -88.5t-201.5 -233t-70.5 -313.5q0 -198 117.5 -321
t310.5 -123q161 0 274.5 79t194.5 241l182 -80q-212 -437 -672 -437z" />
    <glyph glyph-name="cacute" unicode="&#x107;" horiz-adv-x="1177" 
d="M664 1219l-72 122l487 281l80 -141zM641 -25q-215 0 -347 134t-132 348q0 129 50.5 247.5t135.5 206t204.5 139.5t250.5 52q177 0 299 -95t137 -247l-197 -70q-9 103 -81 165.5t-185 62.5q-111 0 -205 -61.5t-147 -161.5t-53 -214q0 -141 80.5 -230t212.5 -89
q107 0 194 58t139 169l168 -74q-80 -163 -216 -251.5t-308 -88.5z" />
    <glyph glyph-name="Cdotaccent" unicode="&#x10a;" horiz-adv-x="1497" 
d="M1059 1577q-57 0 -96 37t-39 96q0 66 49.5 113t118.5 47q60 0 97.5 -37t37.5 -94q0 -67 -50.5 -114.5t-117.5 -47.5zM821 -25q-277 0 -449.5 173.5t-172.5 449.5q0 170 60.5 325.5t165 271t255 184.5t321.5 69q237 0 398 -129.5t190 -325.5l-207 -75q-27 153 -132 243
t-271 90q-162 0 -293 -88.5t-201.5 -233t-70.5 -313.5q0 -198 117.5 -321t310.5 -123q161 0 274.5 79t194.5 241l182 -80q-212 -437 -672 -437z" />
    <glyph glyph-name="cdotaccent" unicode="&#x10b;" horiz-adv-x="1177" 
d="M848 1270q-60 0 -98.5 36t-38.5 93q0 68 51 119t121 51q61 0 100 -37t39 -94q0 -68 -51 -118t-123 -50zM641 -25q-215 0 -347 134t-132 348q0 129 50.5 247.5t135.5 206t204.5 139.5t250.5 52q177 0 299 -95t137 -247l-197 -70q-9 103 -81 165.5t-185 62.5
q-111 0 -205 -61.5t-147 -161.5t-53 -214q0 -141 80.5 -230t212.5 -89q107 0 194 58t139 169l168 -74q-80 -163 -216 -251.5t-308 -88.5z" />
    <glyph glyph-name="Ccaron" unicode="&#x10c;" horiz-adv-x="1497" 
d="M1122 1569h-170l-204 311h176l129 -178l202 178h201zM842 172q161 0 274.5 79t194.5 241l182 -80q-212 -437 -672 -437q-277 0 -449.5 173.5t-172.5 449.5q0 170 60.5 325.5t165 271t255 184.5t321.5 69q237 0 398 -129.5t190 -325.5l-207 -75q-27 153 -132 243t-271 90
q-162 0 -293 -88.5t-201.5 -233t-70.5 -313.5q0 -198 117.5 -321t310.5 -123z" />
    <glyph glyph-name="ccaron" unicode="&#x10d;" horiz-adv-x="1177" 
d="M913 1245h-168l-198 344h168l129 -217l215 217h192zM776 918q-111 0 -205 -61.5t-147 -161.5t-53 -214q0 -141 80.5 -230t212.5 -89q107 0 194 58t139 169l168 -74q-80 -163 -216 -251.5t-308 -88.5q-215 0 -347 134t-132 348q0 129 50.5 247.5t135.5 206t204.5 139.5
t250.5 52q177 0 299 -95t137 -247l-197 -70q-9 103 -81 165.5t-185 62.5z" />
    <glyph glyph-name="Dcaron" unicode="&#x10e;" horiz-adv-x="1474" 
d="M1051 1567h-168l-207 313h176l129 -178l203 178h202zM903 1423q274 0 439 -168t165 -446q0 -167 -62.5 -316.5t-170.5 -257.5t-261.5 -171.5t-328.5 -63.5h-534l276 1423h477zM702 184q162 0 297.5 83.5t213 226t77.5 311.5q0 202 -110.5 318t-302.5 116h-279l-205 -1055
h309z" />
    <glyph glyph-name="dcaron" unicode="&#x10f;" horiz-adv-x="1458" 
d="M1124 909l113 588h207l-291 -1497h-192l32 166q-166 -191 -401 -191q-193 0 -312.5 131t-119.5 343q0 172 80.5 322t223 240.5t312.5 90.5q249 0 348 -193zM1626 1497h160l-146 -475h-139zM664 160q168 0 285.5 134t117.5 316q0 140 -78.5 225t-210.5 85
q-112 0 -206 -61.5t-147.5 -163t-53.5 -218.5q0 -140 80.5 -228.5t212.5 -88.5z" />
    <glyph glyph-name="Dcroat" unicode="&#x110;" horiz-adv-x="1492" 
d="M924 1423q272 0 437 -168t165 -446q0 -167 -62.5 -316.5t-171 -257.5t-262 -171.5t-328.5 -63.5h-534l129 659h-162l29 148h162l118 616h480zM721 184q162 0 297.5 83.5t213 226t77.5 311.5q0 202 -111 318t-303 116h-279l-84 -432h285l-26 -148h-285l-92 -475h307z" />
    <glyph glyph-name="dcroat" unicode="&#x111;" horiz-adv-x="1320" 
d="M1581 1352l-29 -146h-166l-233 -1206h-192l32 166q-166 -191 -401 -191q-193 0 -312.5 131t-119.5 343q0 172 80.5 322t223 240.5t312.5 90.5q249 0 348 -193l58 297h-283l27 146h282l29 145h207l-29 -145h166zM664 160q168 0 285.5 134t117.5 316q0 140 -78.5 225
t-210.5 85q-112 0 -206 -61.5t-147.5 -163t-53.5 -218.5q0 -140 80.5 -228.5t212.5 -88.5z" />
    <glyph glyph-name="Emacron" unicode="&#x112;" horiz-adv-x="1155" 
d="M1264 1810l-33 -170h-645l32 170h646zM1276 1241h-676l-82 -416h608l-36 -182h-607l-88 -461h688l-36 -182h-897l276 1423h885z" />
    <glyph glyph-name="emacron" unicode="&#x113;" horiz-adv-x="1214" 
d="M1165 1485l-30 -158h-609l31 158h608zM791 1102q200 0 322 -123t122 -307q0 -43 -10.5 -103.5t-24.5 -99.5h-833v-2q0 -140 83.5 -224.5t211.5 -84.5q104 0 178.5 46.5t136.5 143.5l151 -104q-181 -269 -491 -269q-210 0 -343.5 134.5t-133.5 341.5q0 175 84 325
t229.5 238t317.5 88zM393 631h641q2 14 2 37q0 123 -68 194.5t-188 71.5q-136 0 -240 -85t-147 -218z" />
    <glyph glyph-name="Edotaccent" unicode="&#x116;" horiz-adv-x="1155" 
d="M903 1577q-58 0 -96.5 37t-38.5 96q0 66 49.5 113t118.5 47q58 0 95.5 -37t37.5 -94q0 -67 -49.5 -114.5t-116.5 -47.5zM1276 1241h-676l-82 -416h608l-36 -182h-607l-88 -461h688l-36 -182h-897l276 1423h885z" />
    <glyph glyph-name="edotaccent" unicode="&#x117;" horiz-adv-x="1214" 
d="M834 1268q-62 0 -101 36t-39 93q0 68 52 119t122 51q61 0 99.5 -37t38.5 -94q0 -68 -51 -118t-121 -50zM791 1102q200 0 322 -123t122 -307q0 -43 -10.5 -103.5t-24.5 -99.5h-833v-2q0 -140 83.5 -224.5t211.5 -84.5q104 0 178.5 46.5t136.5 143.5l151 -104
q-181 -269 -491 -269q-210 0 -343.5 134.5t-133.5 341.5q0 175 84 325t229.5 238t317.5 88zM393 631h641q2 14 2 37q0 123 -68 194.5t-188 71.5q-136 0 -240 -85t-147 -218z" />
    <glyph glyph-name="Eogonek" unicode="&#x118;" horiz-adv-x="1155" 
d="M1276 1241h-676l-82 -416h608l-36 -182h-607l-88 -461h688l-36 -182l-109 -92q-59 -51 -89 -90.5t-30 -85.5q0 -35 20 -53.5t56 -18.5q53 0 94 41l58 -96q-81 -78 -199 -78q-86 0 -137.5 44.5t-51.5 121.5q0 141 207 289l27 18h-743l276 1423h885z" />
    <glyph glyph-name="eogonek" unicode="&#x119;" horiz-adv-x="1214" 
d="M791 1102q200 0 322 -123t122 -307q0 -43 -10.5 -103.5t-24.5 -99.5h-833v-2q0 -140 83.5 -224.5t211.5 -84.5q104 0 178.5 46.5t136.5 143.5l151 -104q-114 -169 -274 -232l-96 -82q-58 -49 -88.5 -89t-30.5 -85q0 -73 76 -73q51 0 92 41l57 -97q-78 -78 -198 -78
q-86 0 -137.5 44.5t-51.5 121.5q0 128 170 260h-10q-210 0 -343.5 134.5t-133.5 341.5q0 175 84 325t229.5 238t317.5 88zM393 631h641q2 14 2 37q0 123 -68 194.5t-188 71.5q-136 0 -240 -85t-147 -218z" />
    <glyph glyph-name="Ecaron" unicode="&#x11a;" horiz-adv-x="1155" 
d="M965 1569h-168l-205 311h174l129 -178l203 178h202zM1276 1241h-676l-82 -416h608l-36 -182h-607l-88 -461h688l-36 -182h-897l276 1423h885z" />
    <glyph glyph-name="ecaron" unicode="&#x11b;" horiz-adv-x="1214" 
d="M903 1243h-168l-198 344h168l129 -217l215 217h194zM791 1102q200 0 322 -123t122 -307q0 -43 -10.5 -103.5t-24.5 -99.5h-833v-2q0 -140 83.5 -224.5t211.5 -84.5q104 0 178.5 46.5t136.5 143.5l151 -104q-181 -269 -491 -269q-210 0 -343.5 134.5t-133.5 341.5
q0 175 84 325t229.5 238t317.5 88zM393 631h641q2 14 2 37q0 123 -68 194.5t-188 71.5q-136 0 -240 -85t-147 -218z" />
    <glyph glyph-name="Gbreve" unicode="&#x11e;" horiz-adv-x="1579" 
d="M1057 1569q-102 0 -172 45t-96 115.5t-9 150.5h170q-13 -65 18.5 -110.5t100.5 -45.5q67 0 113.5 42.5t60.5 113.5h172q-26 -135 -120.5 -223t-237.5 -88zM1612 745q-58 -374 -263 -572t-522 -198q-282 0 -455 174t-173 461q0 171 62 325.5t168 267.5t256 179t319 66
q228 0 391.5 -121t197.5 -313l-207 -78q-28 148 -134 231.5t-267 83.5q-117 0 -223 -49.5t-182.5 -133.5t-122 -200t-45.5 -243q0 -209 121.5 -335t322.5 -126q182 0 314.5 108t201.5 312h-487l30 161h697z" />
    <glyph glyph-name="gbreve" unicode="&#x11f;" horiz-adv-x="1318" 
d="M866 1245q-145 0 -224.5 102.5t-51.5 241.5h160q-14 -80 21 -134t110 -54q80 0 130.5 54t63.5 134h164q-14 -73 -42.5 -133.5t-73 -108.5t-110 -75t-147.5 -27zM1174 1079h192l-182 -934q-105 -536 -617 -536q-197 0 -327 86.5t-160 243.5l180 61q19 -106 103.5 -163.5
t216.5 -57.5q164 0 269.5 89.5t137.5 260.5l17 90q-80 -96 -186.5 -150.5t-225.5 -54.5q-191 0 -311.5 127.5t-120.5 327.5q0 100 31.5 195.5t88.5 174t132.5 138t170 92.5t193.5 33q129 0 222 -55t139 -156zM664 178q168 0 285.5 130.5t117.5 309.5q0 138 -78.5 220
t-210.5 82q-112 0 -206 -60t-147.5 -159.5t-53.5 -213.5q0 -138 80 -223.5t213 -85.5z" />
    <glyph glyph-name="Gdotaccent" unicode="&#x120;" horiz-adv-x="1579" 
d="M1047 1577q-57 0 -95.5 37t-38.5 96q0 66 49 113t117 47q60 0 97.5 -37t37.5 -94q0 -67 -50 -114.5t-117 -47.5zM1612 745q-58 -374 -263 -572t-522 -198q-282 0 -455 174t-173 461q0 171 62 325.5t168 267.5t256 179t319 66q228 0 391.5 -121t197.5 -313l-207 -78
q-28 148 -134 231.5t-267 83.5q-117 0 -223 -49.5t-182.5 -133.5t-122 -200t-45.5 -243q0 -209 121.5 -335t322.5 -126q182 0 314.5 108t201.5 312h-487l30 161h697z" />
    <glyph glyph-name="gdotaccent" unicode="&#x121;" horiz-adv-x="1318" 
d="M860 1270q-61 0 -100 36t-39 93q0 68 52 119t122 51q61 0 99 -37t38 -94q0 -68 -51 -118t-121 -50zM1174 1079h192l-182 -934q-105 -536 -617 -536q-197 0 -327 86.5t-160 243.5l180 61q19 -106 103.5 -163.5t216.5 -57.5q164 0 269.5 89.5t137.5 260.5l17 90
q-80 -96 -186.5 -150.5t-225.5 -54.5q-191 0 -311.5 127.5t-120.5 327.5q0 100 31.5 195.5t88.5 174t132.5 138t170 92.5t193.5 33q129 0 222 -55t139 -156zM664 178q168 0 285.5 130.5t117.5 309.5q0 138 -78.5 220t-210.5 82q-112 0 -206 -60t-147.5 -159.5t-53.5 -213.5
q0 -138 80 -223.5t213 -85.5z" />
    <glyph glyph-name="uni0122" unicode="&#x122;" horiz-adv-x="1579" 
d="M1612 745q-58 -374 -263 -572t-522 -198q-282 0 -455 174t-173 461q0 171 62 325.5t168 267.5t256 179t319 66q228 0 391.5 -121t197.5 -313l-207 -78q-28 148 -134 231.5t-267 83.5q-117 0 -223 -49.5t-182.5 -133.5t-122 -200t-45.5 -243q0 -209 121.5 -335t322.5 -126
q182 0 314.5 108t201.5 312h-487l30 161h697zM756 -100q47 0 78.5 -28.5t31.5 -74.5q0 -39 -23.5 -79t-76.5 -109l-109 -139l-79 51l92 129q2 2 14 20q-29 9 -46 34.5t-17 62.5q0 55 39.5 94t95.5 39z" />
    <glyph glyph-name="uni0123" unicode="&#x123;" horiz-adv-x="1318" 
d="M831 1223q-47 0 -78.5 29t-31.5 75q0 39 23.5 80t76.5 109l109 139l80 -51l-92 -129l-15 -21q30 -9 47 -34.5t17 -61.5q0 -55 -40 -95t-96 -40zM1174 1079h192l-182 -934q-105 -536 -617 -536q-197 0 -327 86.5t-160 243.5l180 61q19 -106 103.5 -163.5t216.5 -57.5
q164 0 269.5 89.5t137.5 260.5l17 90q-80 -96 -186.5 -150.5t-225.5 -54.5q-191 0 -311.5 127.5t-120.5 327.5q0 100 31.5 195.5t88.5 174t132.5 138t170 92.5t193.5 33q129 0 222 -55t139 -156zM664 178q168 0 285.5 130.5t117.5 309.5q0 138 -78.5 220t-210.5 82
q-112 0 -206 -60t-147.5 -159.5t-53.5 -213.5q0 -138 80 -223.5t213 -85.5z" />
    <glyph glyph-name="Hbar" unicode="&#x126;" horiz-adv-x="1466" 
d="M1610 1219l-33 -164h-127l-205 -1055h-207l125 641h-651l-125 -641h-209l205 1055h-127l31 164h129l39 204h209l-39 -204h651l39 204h207l-39 -204h127zM1198 827l45 228h-651l-45 -228h651z" />
    <glyph glyph-name="hbar" unicode="&#x127;" horiz-adv-x="1249" 
d="M881 1104q190 0 286.5 -122.5t57.5 -326.5l-127 -655h-207l119 621q27 143 -34.5 220t-187.5 77q-123 0 -215 -79.5t-114 -205.5v2l-123 -635h-207l233 1206h-157l28 146h158l29 145h207l-29 -145h289l-27 -146h-291l-49 -254q69 70 162.5 111t198.5 41z" />
    <glyph glyph-name="Itilde" unicode="&#x128;" horiz-adv-x="528" 
d="M707 1577q-41 0 -77 16t-57.5 35t-51.5 35t-60 16q-76 0 -107 -94l-123 60q30 91 88 148.5t140 57.5q41 0 76.5 -16t57 -35t51.5 -35t61 -16q76 0 108 94l121 -59q-28 -92 -86 -149.5t-141 -57.5zM150 0l276 1423h209l-277 -1423h-208z" />
    <glyph glyph-name="itilde" unicode="&#x129;" horiz-adv-x="481" 
d="M604 1280q-36 0 -66.5 16t-49 35t-44 35t-51.5 16q-65 0 -90 -96l-113 62q27 90 79.5 148t123.5 58q29 0 53.5 -10.5t42.5 -26t35 -31t37.5 -26t42.5 -10.5q64 0 92 96l111 -61q-27 -91 -78.5 -148t-124.5 -57zM129 0l209 1079h207l-209 -1079h-207z" />
    <glyph glyph-name="Imacron" unicode="&#x12a;" horiz-adv-x="528" 
d="M256 1640l25 170h487l-25 -170h-487zM150 0l276 1423h209l-277 -1423h-208z" />
    <glyph glyph-name="imacron" unicode="&#x12b;" horiz-adv-x="481" 
d="M244 1333l26 158h486l-27 -158h-485zM129 0l209 1079h207l-209 -1079h-207z" />
    <glyph glyph-name="Iogonek" unicode="&#x12e;" horiz-adv-x="528" 
d="M250 -92q-58 -49 -88.5 -89t-30.5 -87q0 -35 20 -53.5t56 -18.5q54 0 92 41l57 -96q-78 -78 -196 -78q-86 0 -137.5 44.5t-51.5 121.5q0 144 207 289l27 18h-55l276 1423h209l-277 -1423z" />
    <glyph glyph-name="iogonek" unicode="&#x12f;" horiz-adv-x="485" 
d="M524 1567q62 0 100 -36.5t38 -94.5q0 -68 -51.5 -118t-121.5 -50q-61 0 -100 37t-39 94q0 68 52 118t122 50zM129 0l209 1079h207l-209 -1079l-109 -92q-58 -48 -88 -88.5t-30 -87.5q0 -35 19.5 -53.5t55.5 -18.5q54 0 92 41l58 -96q-78 -78 -197 -78q-86 0 -137 44.5
t-51 121.5q0 144 207 289l26 18h-53z" />
    <glyph glyph-name="Idotaccent" unicode="&#x130;" horiz-adv-x="528" 
d="M575 1577q-58 0 -96.5 37t-38.5 96q0 66 49 113t117 47q60 0 97.5 -37t37.5 -94q0 -66 -50 -114t-116 -48zM150 0l276 1423h209l-277 -1423h-208z" />
    <glyph glyph-name="dotlessi" unicode="&#x131;" horiz-adv-x="468" 
d="M129 0l209 1079h207l-209 -1079h-207z" />
    <glyph glyph-name="IJ" unicode="&#x132;" horiz-adv-x="1220" 
d="M150 0l276 1423h209l-277 -1423h-208zM565 0l37 184h86q93 0 156.5 57t83.5 156l198 1026h207l-205 -1056q-35 -181 -148 -274t-292 -93h-123z" />
    <glyph glyph-name="ij" unicode="&#x133;" horiz-adv-x="989" 
d="M489 1268q-61 0 -100 37t-39 94q0 68 52 118t122 50q62 0 100 -36.5t38 -94.5q0 -68 -51.5 -118t-121.5 -50zM999 1268q-60 0 -98.5 36.5t-38.5 94.5q0 68 51 118t123 50q60 0 99 -36.5t39 -94.5q0 -68 -51.5 -118t-123.5 -50zM129 0l209 1079h207l-209 -1079h-207z
M340 -375l35 180h33q86 0 149.5 59t83.5 159l205 1056h207l-205 -1052q-38 -193 -161.5 -297.5t-299.5 -104.5h-47z" />
    <glyph glyph-name="uni0136" unicode="&#x136;" horiz-adv-x="1275" 
d="M1483 1423l-774 -688l544 -735h-229l-530 698l-136 -698h-208l276 1423h209l-121 -622l707 622h262zM653 -100q47 0 78 -28.5t31 -74.5q0 -39 -23 -80.5t-75 -107.5l-109 -139l-82 51l94 129q9 10 13 20q-29 9 -46.5 35t-17.5 62q0 54 40 93.5t97 39.5z" />
    <glyph glyph-name="uni0137" unicode="&#x137;" horiz-adv-x="1064" 
d="M1239 1079l-582 -508l385 -571h-223l-379 541l-104 -541h-207l291 1497h207l-166 -858l522 440h256zM551 -100q47 0 77.5 -28.5t30.5 -74.5q0 -39 -23 -80.5t-75 -107.5l-108 -139l-82 51l94 129q8 8 12 20q-28 9 -45.5 35t-17.5 62q0 54 40 93.5t97 39.5z" />
    <glyph glyph-name="kgreenlandic" unicode="&#x138;" horiz-adv-x="1034" 
d="M1241 1079l-600 -524l401 -555h-229l-381 494l-96 -494h-207l209 1079h207l-92 -477l551 477h237z" />
    <glyph glyph-name="Lacute" unicode="&#x139;" horiz-adv-x="1093" 
d="M881 1739l-566 -178l-45 141l561 199zM395 186h678l-37 -186h-886l276 1423h209z" />
    <glyph glyph-name="lacute" unicode="&#x13a;" horiz-adv-x="481" 
d="M303 1634l-47 142l561 198l49 -162zM129 0l291 1497h207l-291 -1497h-207z" />
    <glyph glyph-name="uni013B" unicode="&#x13b;" horiz-adv-x="1093" 
d="M395 186h678l-37 -186h-886l276 1423h209zM582 -100q47 0 77.5 -28.5t30.5 -74.5q0 -39 -23 -80.5t-75 -107.5l-109 -139l-82 51l95 129q8 8 12 20q-29 9 -46.5 35t-17.5 62q0 54 40.5 93.5t97.5 39.5z" />
    <glyph glyph-name="uni013C" unicode="&#x13c;" horiz-adv-x="481" 
d="M420 1497h207l-291 -1497h-207zM207 -100q47 0 78.5 -28.5t31.5 -74.5q0 -39 -23.5 -79t-76.5 -109l-108 -139l-80 51l92 129q2 2 14 20q-29 9 -46 34.5t-17 62.5q0 54 40 93.5t95 39.5z" />
    <glyph glyph-name="Lcaron" unicode="&#x13d;" horiz-adv-x="1101" 
d="M1192 1444l-145 -475h-140l127 475h158zM635 1423l-240 -1237h678l-37 -186h-886l276 1423h209z" />
    <glyph glyph-name="lcaron" unicode="&#x13e;" horiz-adv-x="620" 
d="M129 0l291 1497h207l-291 -1497h-207zM664 1022l124 475h160l-145 -475h-139z" />
    <glyph glyph-name="Ldot" unicode="&#x13f;" horiz-adv-x="1114" 
d="M635 1423l-240 -1237h678l-37 -186h-886l276 1423h209zM954 662q-52 0 -84 32t-32 84q0 60 42.5 104t104.5 44q53 0 86 -32t33 -83q0 -60 -43.5 -104.5t-106.5 -44.5z" />
    <glyph glyph-name="ldot" unicode="&#x140;" horiz-adv-x="692" 
d="M129 0l291 1497h207l-291 -1497h-207zM696 629q-51 0 -83.5 31.5t-32.5 82.5q0 60 42.5 104t104.5 44q54 0 86.5 -32t32.5 -83q0 -58 -43.5 -102.5t-106.5 -44.5z" />
    <glyph glyph-name="Lslash" unicode="&#x141;" horiz-adv-x="1187" 
d="M487 186h678l-37 -186h-884l118 610l-157 -57l-39 133l227 84l127 653h207l-111 -571l201 74l43 -133l-274 -101z" />
    <glyph glyph-name="lslash" unicode="&#x142;" horiz-adv-x="612" 
d="M801 850l-256 -131l-139 -719h-207l116 600l-149 -78l-62 127l246 127l139 721h207l-116 -602l157 82z" />
    <glyph glyph-name="Nacute" unicode="&#x143;" horiz-adv-x="1409" 
d="M1307 1739l-564 -178l-47 141l564 199zM1288 1423h207l-276 -1423h-172l-484 1057l-207 -1057h-206l276 1423h174l481 -1065z" />
    <glyph glyph-name="nacute" unicode="&#x144;" horiz-adv-x="1249" 
d="M1161 1479l-495 -262l-74 122l489 281zM881 1104q190 0 286.5 -122.5t57.5 -326.5l-127 -655h-207l119 621q27 143 -34.5 220t-187.5 77q-123 0 -215 -79.5t-114 -205.5v2l-123 -635h-207l209 1079h197l-27 -141q68 76 165.5 121t207.5 45z" />
    <glyph glyph-name="uni0145" unicode="&#x145;" horiz-adv-x="1409" 
d="M1288 1423h207l-276 -1423h-172l-484 1057l-207 -1057h-206l276 1423h174l481 -1065zM682 -100q47 0 78 -28.5t31 -74.5q0 -39 -23.5 -80t-75.5 -108l-108 -139l-82 51l94 129l12 18q-63 23 -63 99q0 54 40 93.5t97 39.5z" />
    <glyph glyph-name="uni0146" unicode="&#x146;" horiz-adv-x="1249" 
d="M881 1104q190 0 286.5 -122.5t57.5 -326.5l-127 -655h-207l119 621q27 143 -34.5 220t-187.5 77q-123 0 -215 -79.5t-114 -205.5v2l-123 -635h-207l209 1079h197l-27 -141q68 76 165.5 121t207.5 45zM600 -100q47 0 79 -28.5t32 -74.5q0 -39 -23.5 -78.5t-77.5 -109.5
l-108 -139l-80 51l92 129q2 2 14 20q-29 9 -46 34.5t-17 62.5q0 55 39.5 94t95.5 39z" />
    <glyph glyph-name="Ncaron" unicode="&#x147;" horiz-adv-x="1409" 
d="M1051 1569h-168l-207 311h176l129 -178l203 178h202zM1288 1423h207l-276 -1423h-172l-484 1057l-207 -1057h-206l276 1423h174l481 -1065z" />
    <glyph glyph-name="ncaron" unicode="&#x148;" horiz-adv-x="1249" 
d="M918 1243h-168l-199 344h168l129 -217l215 217h192zM881 1104q190 0 286.5 -122.5t57.5 -326.5l-127 -655h-207l119 621q27 143 -34.5 220t-187.5 77q-123 0 -215 -79.5t-114 -205.5v2l-123 -635h-207l209 1079h197l-27 -141q68 76 165.5 121t207.5 45z" />
    <glyph glyph-name="napostrophe" unicode="&#x149;" horiz-adv-x="1452" 
d="M514 1536l-145 -477h-140l125 477h160zM1085 1104q190 0 287 -122.5t58 -326.5l-130 -655h-206l120 621q27 143 -34 220t-187 77q-116 0 -205 -70.5t-120 -185.5l-127 -662h-207l209 1079h194l-26 -143q71 77 167 122.5t207 45.5z" />
    <glyph glyph-name="Eng" unicode="&#x14a;" horiz-adv-x="1409" 
d="M1288 1423h207l-276 -1423l-13 -61q-37 -182 -148.5 -274.5t-291.5 -92.5h-64l35 186h49q92 0 155 56.5t85 154.5l10 51l-473 1037l-207 -1057h-206l276 1423h174l481 -1065z" />
    <glyph glyph-name="eng" unicode="&#x14b;" horiz-adv-x="1218" 
d="M885 1104q195 0 287.5 -123.5t52.5 -325.5l-123 -628q-35 -182 -164 -292t-297 -110h-35l35 180h21q86 0 149.5 60t83.5 160l115 593q26 145 -31 223.5t-186 76.5q-121 -1 -215.5 -80.5t-116.5 -190.5l-125 -647h-207l209 1079h197l-29 -147q71 78 169.5 125t209.5 47z
" />
    <glyph glyph-name="Omacron" unicode="&#x14c;" horiz-adv-x="1615" 
d="M739 1640l31 170h647l-33 -170h-645zM834 -25q-283 0 -459 180.5t-176 465.5q0 133 40.5 258.5t115 227.5t174 179t224 119.5t257.5 42.5q284 0 459.5 -177t175.5 -466q0 -170 -64 -324t-172.5 -264.5t-259 -176t-315.5 -65.5zM848 172q120 0 228 50t185.5 134t123 198.5
t45.5 238.5q0 206 -119.5 332t-317.5 126q-159 0 -292.5 -84t-210 -225.5t-76.5 -306.5q0 -209 119 -336t315 -127z" />
    <glyph glyph-name="omacron" unicode="&#x14d;" horiz-adv-x="1280" 
d="M551 1333l31 156h606l-29 -156h-608zM651 -25q-218 0 -354.5 130.5t-136.5 349.5q0 172 84.5 320.5t233 237.5t325.5 89q214 0 351.5 -129t137.5 -350q0 -101 -30.5 -197.5t-88.5 -177.5t-135.5 -142.5t-177.5 -96t-209 -34.5zM676 162q87 0 163.5 37.5t129 99
t82.5 141.5t30 164q0 140 -82.5 227t-218.5 87q-114 0 -209 -63t-146.5 -163t-51.5 -213q0 -142 83 -229.5t220 -87.5z" />
    <glyph glyph-name="Ohungarumlaut" unicode="&#x150;" horiz-adv-x="1615" 
d="M834 1518l-111 92l307 360l125 -104zM1247 1518l-110 92l307 360l127 -104zM834 -25q-283 0 -459 180.5t-176 465.5q0 133 40.5 258.5t115 227.5t174 179t224 119.5t257.5 42.5q284 0 459.5 -177t175.5 -466q0 -170 -64 -324t-172.5 -264.5t-259 -176t-315.5 -65.5z
M848 172q120 0 228 50t185.5 134t123 198.5t45.5 238.5q0 206 -119.5 332t-317.5 126q-159 0 -292.5 -84t-210 -225.5t-76.5 -306.5q0 -209 119 -336t315 -127z" />
    <glyph glyph-name="ohungarumlaut" unicode="&#x151;" horiz-adv-x="1280" 
d="M635 1206l-111 92l301 338l125 -106zM1038 1206l-110 92l303 338l123 -106zM651 -25q-218 0 -354.5 130.5t-136.5 349.5q0 172 84.5 320.5t233 237.5t325.5 89q214 0 351.5 -129t137.5 -350q0 -101 -30.5 -197.5t-88.5 -177.5t-135.5 -142.5t-177.5 -96t-209 -34.5z
M676 162q87 0 163.5 37.5t129 99t82.5 141.5t30 164q0 140 -82.5 227t-218.5 87q-114 0 -209 -63t-146.5 -163t-51.5 -213q0 -142 83 -229.5t220 -87.5z" />
    <glyph glyph-name="OE" unicode="&#x152;" horiz-adv-x="2263" 
d="M2417 1241h-678l-80 -416h608l-37 -182h-606l-88 -461h686l-35 -182h-897l35 180q-218 -205 -491 -205q-283 0 -459 180.5t-176 465.5q0 133 40.5 258.5t115 227.5t174 179t224 119.5t257.5 42.5q176 0 305.5 -70t204.5 -198l47 243h884zM848 172q159 0 292 85t208 227.5
t75 308.5q0 207 -116.5 332.5t-313.5 125.5q-159 0 -292.5 -84t-210 -225.5t-76.5 -306.5q0 -209 119 -336t315 -127z" />
    <glyph glyph-name="oe" unicode="&#x153;" horiz-adv-x="2109" 
d="M1704 1102q200 0 322 -123t122 -307q0 -44 -10 -104t-24 -99h-834v-2q0 -140 83.5 -224.5t211.5 -84.5q104 0 178.5 46.5t136.5 143.5l152 -104q-181 -269 -492 -269q-136 0 -244 60.5t-169 165.5q-89 -105 -214.5 -165.5t-271.5 -60.5q-218 0 -354.5 130.5t-136.5 349.5
q0 172 84.5 320.5t233 237.5t325.5 89q140 0 252.5 -58t173.5 -165q88 105 211.5 164t263.5 59zM1307 631h641q2 14 2 37q0 123 -68 194.5t-188 71.5q-137 0 -240.5 -84.5t-146.5 -218.5zM676 162q87 0 163.5 37.5t129 99t82.5 141.5t30 164q0 140 -82.5 227t-218.5 87
q-114 0 -209 -63t-146.5 -163t-51.5 -213q0 -142 83 -229.5t220 -87.5z" />
    <glyph glyph-name="Racute" unicode="&#x154;" horiz-adv-x="1253" 
d="M1229 1739l-565 -178l-46 141l562 199zM1346 1065q0 -190 -146.5 -316t-392.5 -126h-4l352 -623h-219l-338 623h-119l-121 -623h-208l276 1423h508q198 0 305 -96t107 -262zM600 1241l-92 -469h315q143 0 229.5 74t86.5 188q0 98 -61.5 152.5t-174.5 54.5h-303z" />
    <glyph glyph-name="racute" unicode="&#x155;" horiz-adv-x="702" 
d="M936 1479l-496 -262l-73 122l489 281zM504 924q69 82 163 131t197 49l-37 -195q-144 -1 -241.5 -76.5t-128.5 -201.5l-121 -631h-207l209 1079h197z" />
    <glyph glyph-name="uni0156" unicode="&#x156;" horiz-adv-x="1253" 
d="M1346 1065q0 -190 -146.5 -316t-392.5 -126h-4l352 -623h-219l-338 623h-119l-121 -623h-208l276 1423h508q198 0 305 -96t107 -262zM600 1241l-92 -469h315q143 0 229.5 74t86.5 188q0 98 -61.5 152.5t-174.5 54.5h-303zM616 -100q47 0 78 -28.5t31 -74.5
q0 -39 -23 -80.5t-75 -107.5l-109 -139l-82 51l94 129q10 10 13 20q-29 9 -46.5 35t-17.5 62q0 54 40 93.5t97 39.5z" />
    <glyph glyph-name="uni0157" unicode="&#x157;" horiz-adv-x="702" 
d="M504 924q69 82 163 131t197 49l-37 -195q-144 -1 -241.5 -76.5t-128.5 -201.5l-121 -631h-207l209 1079h197zM203 -100q47 0 78.5 -28.5t31.5 -74.5q0 -39 -23.5 -79t-76.5 -109l-109 -139l-79 51l92 129q2 2 14 20q-29 9 -46 34.5t-17 62.5q0 55 39 94t96 39z" />
    <glyph glyph-name="Rcaron" unicode="&#x158;" horiz-adv-x="1253" 
d="M971 1569h-168l-205 311h174l129 -178l203 178h203zM1346 1065q0 -190 -146.5 -316t-392.5 -126h-4l352 -623h-219l-338 623h-119l-121 -623h-208l276 1423h508q198 0 305 -96t107 -262zM600 1241l-92 -469h315q143 0 229.5 74t86.5 188q0 98 -61.5 152.5t-174.5 54.5
h-303z" />
    <glyph glyph-name="rcaron" unicode="&#x159;" horiz-adv-x="702" 
d="M698 1243h-170l-198 344h168l131 -217l213 217h194zM504 924q69 82 163 131t197 49l-37 -195q-144 -1 -241.5 -76.5t-128.5 -201.5l-121 -631h-207l209 1079h197z" />
    <glyph glyph-name="Sacute" unicode="&#x15a;" horiz-adv-x="1153" 
d="M625 1561l-47 143l561 199l49 -164zM592 -20q-204 0 -329 90t-148 254l204 73q11 -110 92.5 -173.5t213.5 -63.5q129 0 205.5 61t76.5 164q0 63 -33 112t-85.5 81.5t-116 62t-127 63t-116 74.5t-85.5 106.5t-33 149.5q0 183 137.5 297.5t358.5 114.5q184 0 303 -83
t131 -220l-205 -72q-12 95 -75.5 146t-169.5 51q-118 0 -191.5 -57.5t-73.5 -149.5q0 -57 33 -100.5t85.5 -74t116 -58.5t127 -63t116 -78.5t85.5 -114t33 -160.5q0 -196 -145 -314t-385 -118z" />
    <glyph glyph-name="sacute" unicode="&#x15b;" horiz-adv-x="989" 
d="M553 1217l-74 122l490 283l80 -143zM506 -25q-175 0 -290 73t-132 198l197 69q13 -80 80.5 -124t166.5 -44q96 0 164 42t68 114q0 44 -29 77t-75 54t-101.5 40t-111 43t-101.5 54.5t-75 82.5t-29 120q0 146 118.5 237t307.5 91q154 0 256.5 -61t119.5 -164l-198 -74
q-13 64 -63 97.5t-124 33.5q-86 0 -146 -39t-60 -100q0 -36 22.5 -64.5t59.5 -46t84 -36.5t96 -35t96 -41.5t84 -56.5t59.5 -80t22.5 -111q0 -159 -131 -254t-336 -95z" />
    <glyph glyph-name="Scedilla" unicode="&#x15e;" horiz-adv-x="1153" 
d="M526 1061q0 -57 33 -100.5t85.5 -74t116 -58.5t127 -63t116 -78.5t85.5 -114t33 -160.5q0 -181 -123 -295t-333 -133l-50 -90q60 -13 97 -60.5t37 -109.5q0 -92 -75 -155t-188 -63q-77 0 -136 29t-89 72l88 84q35 -68 121 -68q56 0 92.5 31.5t36.5 77.5q0 45 -33 78
q-31 24 -71 24h-21l-14 23l74 125q-180 12 -289 101t-131 241l204 73q11 -110 92.5 -173.5t213.5 -63.5q129 0 205.5 61t76.5 164q0 63 -33 112t-85.5 81.5t-116 62t-127 63t-116 74.5t-85.5 106.5t-33 149.5q0 183 137.5 297.5t358.5 114.5q184 0 303 -83t131 -220
l-205 -72q-12 95 -75.5 146t-169.5 51q-118 0 -191.5 -57.5t-73.5 -149.5z" />
    <glyph glyph-name="scedilla" unicode="&#x15f;" horiz-adv-x="989" 
d="M449 795q0 -36 22.5 -64.5t59.5 -46t84 -36.5t96 -35t96 -41.5t84 -56.5t59.5 -80t22.5 -111q0 -143 -108 -234.5t-285 -109.5l-48 -86q60 -13 98 -60.5t38 -109.5q0 -92 -75.5 -155t-189.5 -63q-77 0 -136 29t-87 72l86 84q35 -68 121 -68q57 0 93 31t36 78q0 45 -33 78
q-31 24 -71 24h-21l-14 23l72 120q-153 12 -251.5 83.5t-113.5 185.5l197 69q13 -80 80.5 -124t166.5 -44q96 0 164 42t68 114q0 44 -29 77t-75 54t-101.5 40t-111 43t-101.5 54.5t-75 82.5t-29 120q0 146 118.5 237t307.5 91q154 0 256.5 -61t119.5 -164l-198 -74
q-13 64 -63 97.5t-124 33.5q-86 0 -146 -39t-60 -100z" />
    <glyph glyph-name="Scaron" unicode="&#x160;" horiz-adv-x="1153" 
d="M938 1571h-168l-207 313h176l129 -178l203 178h203zM791 1268q-118 0 -191.5 -57.5t-73.5 -149.5q0 -57 33 -100.5t85.5 -74t116 -58.5t127 -63t116 -78.5t85.5 -114t33 -160.5q0 -196 -145 -314t-385 -118q-204 0 -329 90t-148 254l204 73q11 -110 92.5 -173.5
t213.5 -63.5q129 0 205.5 61t76.5 164q0 63 -33 112t-85.5 81.5t-116 62t-127 63t-116 74.5t-85.5 106.5t-33 149.5q0 183 137.5 297.5t358.5 114.5q184 0 303 -83t131 -220l-205 -72q-12 95 -75.5 146t-169.5 51z" />
    <glyph glyph-name="scaron" unicode="&#x161;" horiz-adv-x="989" 
d="M791 1243h-168l-199 344h168l131 -217l213 217h194zM655 934q-86 0 -146 -39t-60 -100q0 -36 22.5 -64.5t59.5 -46t84 -36.5t96 -35t96 -41.5t84 -56.5t59.5 -80t22.5 -111q0 -159 -131 -254t-336 -95q-175 0 -290 73t-132 198l197 69q13 -80 80.5 -124t166.5 -44
q96 0 164 42t68 114q0 44 -29 77t-75 54t-101.5 40t-111 43t-101.5 54.5t-75 82.5t-29 120q0 146 118.5 237t307.5 91q154 0 256.5 -61t119.5 -164l-198 -74q-13 64 -63 97.5t-124 33.5z" />
    <glyph glyph-name="uni0162" unicode="&#x162;" horiz-adv-x="1148" 
d="M659 0h-32l-64 -113q61 -13 98 -60.5t37 -109.5q0 -92 -74.5 -154.5t-187.5 -62.5q-77 0 -136 29t-89 74l88 82q35 -68 121 -68q56 0 92.5 32t36.5 77q0 44 -28.5 73t-76.5 29h-20l-14 22l86 150h-43l239 1237h-428l37 186h1065l-37 -186h-430z" />
    <glyph glyph-name="uni0163" unicode="&#x163;" horiz-adv-x="778" 
d="M590 901l-94 -483q-23 -115 23.5 -175.5t150.5 -60.5h98l-37 -182h-137h-16l-52 -90q61 -13 98.5 -60.5t37.5 -109.5q0 -92 -74.5 -153.5t-188.5 -61.5q-78 0 -136.5 28t-86.5 72l86 82q34 -67 121 -67q57 0 93 31.5t36 76.5q0 44 -28 73t-76 29h-21l-14 23l84 147
q-109 35 -153.5 132.5t-18.5 240.5l98 508h-188l34 178h105q98 0 119 105l32 174h201l-55 -279h297l-35 -178h-303z" />
    <glyph glyph-name="Tcaron" unicode="&#x164;" horiz-adv-x="1148" 
d="M936 1569h-168l-207 311h176l129 -178l203 178h203zM1366 1423l-37 -186h-430l-240 -1237h-206l239 1237h-428l37 186h1065z" />
    <glyph glyph-name="tcaron" unicode="&#x165;" horiz-adv-x="778" 
d="M811 1143l125 475h160l-146 -475h-139zM594 0q-180 0 -261.5 105t-47.5 288l98 508h-188l34 178h105q98 0 119 105l32 174h201l-55 -279h297l-35 -178h-303l-94 -483q-23 -115 23.5 -175.5t150.5 -60.5h98l-37 -182h-137z" />
    <glyph glyph-name="Tbar" unicode="&#x166;" horiz-adv-x="1167" 
d="M1339 1237h-430l-98 -510h223l-28 -147h-224l-112 -580h-209l112 580h-221l27 147h223l98 510h-428l37 186h1067z" />
    <glyph glyph-name="tbar" unicode="&#x167;" horiz-adv-x="792" 
d="M903 901h-301l-51 -260h252l-27 -147h-256l-14 -76q-21 -116 24.5 -176t149.5 -60h98l-37 -182h-137q-180 0 -261 105t-46 288l18 101h-159l26 147h162l51 260h-190l35 178h104q101 0 119 105l35 174h200l-55 -279h295z" />
    <glyph glyph-name="Utilde" unicode="&#x168;" horiz-adv-x="1376" 
d="M1118 1577q-45 0 -84.5 16t-63 35t-55.5 35t-65 16q-84 0 -115 -94l-135 60q33 92 96.5 149t153.5 57q44 0 82.5 -16t61.5 -35t55.5 -35t66.5 -16q82 0 119 94l131 -59q-30 -91 -94 -149t-154 -58zM692 -25q-169 0 -282 75.5t-155 206.5t-11 298l168 868h209l-168 -868
q-35 -178 38 -280.5t230 -102.5q147 0 245 88.5t130 253.5l176 909h207l-176 -909q-49 -258 -209 -398.5t-402 -140.5z" />
    <glyph glyph-name="utilde" unicode="&#x169;" horiz-adv-x="1228" 
d="M727 1382q-78 0 -109 -94l-135 60q31 91 94 148.5t150 57.5q43 0 79.5 -16t58 -35t52.5 -35t64 -16q76 0 113 94l131 -59q-30 -91 -93 -149t-151 -58q-43 0 -80.5 16t-59 35t-52 35t-62.5 16zM1069 1079h207l-209 -1079h-197l29 150q-69 -80 -165 -127.5t-206 -47.5
q-182 0 -276 122.5t-55 326.5l127 655h206l-118 -620q-28 -142 31.5 -219.5t179.5 -77.5q116 0 204.5 74t114.5 194z" />
    <glyph glyph-name="Umacron" unicode="&#x16a;" horiz-adv-x="1376" 
d="M641 1640l33 170h645l-33 -170h-645zM692 -25q-169 0 -282 75.5t-155 206.5t-11 298l168 868h209l-168 -868q-35 -178 38 -280.5t230 -102.5q147 0 245 88.5t130 253.5l176 909h207l-176 -909q-49 -258 -209 -398.5t-402 -140.5z" />
    <glyph glyph-name="umacron" unicode="&#x16b;" horiz-adv-x="1228" 
d="M1161 1491l-31 -156h-606l29 156h608zM1069 1079h207l-209 -1079h-197l29 150q-69 -80 -165 -127.5t-206 -47.5q-182 0 -276 122.5t-55 326.5l127 655h206l-118 -620q-28 -142 31.5 -219.5t179.5 -77.5q116 0 204.5 74t114.5 194z" />
    <glyph glyph-name="Uring" unicode="&#x16e;" horiz-adv-x="1376" 
d="M954 1456q-90 0 -146 55.5t-56 141.5q0 101 77 173t183 72q91 0 145.5 -55t54.5 -141q0 -101 -76 -173.5t-182 -72.5zM969 1577q47 0 81.5 32.5t34.5 80.5q0 39 -24.5 63.5t-65.5 24.5q-47 0 -80.5 -33t-33.5 -80q0 -39 23.5 -63.5t64.5 -24.5zM692 -25q-169 0 -282 75.5
t-155 206.5t-11 298l168 868h209l-168 -868q-35 -178 38 -280.5t230 -102.5q147 0 245 88.5t130 253.5l176 909h207l-176 -909q-49 -258 -209 -398.5t-402 -140.5z" />
    <glyph glyph-name="uring" unicode="&#x16f;" horiz-adv-x="1228" 
d="M829 1184q-91 0 -146.5 54.5t-55.5 141.5q0 100 77 172t183 72q90 0 145 -55t55 -142q0 -100 -76 -171.5t-182 -71.5zM870 1505q-48 0 -81 -32.5t-33 -81.5q0 -39 23.5 -63.5t62.5 -24.5q49 0 84 32t35 80q0 39 -25 64.5t-66 25.5zM1069 1079h207l-209 -1079h-197l29 150
q-69 -80 -165 -127.5t-206 -47.5q-182 0 -276 122.5t-55 326.5l127 655h206l-118 -620q-28 -142 31.5 -219.5t179.5 -77.5q116 0 204.5 74t114.5 194z" />
    <glyph glyph-name="Uhungarumlaut" unicode="&#x170;" horiz-adv-x="1376" 
d="M731 1518l-113 92l308 360l125 -104zM1143 1518l-111 92l309 360l125 -104zM692 -25q-169 0 -282 75.5t-155 206.5t-11 298l168 868h209l-168 -868q-35 -178 38 -280.5t230 -102.5q147 0 245 88.5t130 253.5l176 909h207l-176 -909q-49 -258 -209 -398.5t-402 -140.5z
" />
    <glyph glyph-name="uhungarumlaut" unicode="&#x171;" horiz-adv-x="1228" 
d="M911 1532l-317 -324l-109 92l301 338zM999 1208l-110 92l301 338l125 -106zM942 430l127 649h207l-209 -1079h-197l29 150q-69 -80 -165 -127.5t-206 -47.5q-182 0 -276 122.5t-55 326.5l127 655h206l-118 -620q-28 -142 31.5 -219.5t179.5 -77.5q116 0 204.5 74
t114.5 194z" />
    <glyph glyph-name="Uogonek" unicode="&#x172;" horiz-adv-x="1376" 
d="M1272 1423h207l-176 -909q-35 -187 -130.5 -313.5t-240.5 -182.5l-101 -86q-58 -48 -88 -88.5t-30 -87.5q0 -71 75 -71q54 0 95 41l55 -97q-78 -78 -197 -78q-86 0 -137 44.5t-51 121.5q0 130 166 258h-27q-169 0 -282 75.5t-155 206.5t-11 298l168 868h209l-168 -868
q-35 -178 38 -280.5t230 -102.5q147 0 245 88.5t130 253.5z" />
    <glyph glyph-name="uogonek" unicode="&#x173;" horiz-adv-x="1228" 
d="M958 -92q-58 -48 -88 -88.5t-30 -87.5q0 -35 19.5 -53.5t55.5 -18.5q54 0 95 41l55 -96q-78 -78 -197 -78q-86 0 -137 44.5t-51 121.5q0 144 207 289l26 18h-43l29 150q-69 -80 -165 -127.5t-206 -47.5q-182 0 -276 122.5t-55 326.5l127 655h206l-118 -620
q-28 -142 31.5 -219.5t179.5 -77.5q116 0 204.5 74t114.5 194l127 649h207l-209 -1079z" />
    <glyph glyph-name="Wcircumflex" unicode="&#x174;" horiz-adv-x="1816" 
d="M1221 1747l-203 -178h-203l336 311h168l205 -311h-174zM1808 1423h211l-604 -1423h-237l-68 1135l-514 -1135h-238l-53 1423h203l16 -1173l523 1173h223l65 -1173z" />
    <glyph glyph-name="wcircumflex" unicode="&#x175;" horiz-adv-x="1609" 
d="M1049 1462l-213 -217h-195l338 344h168l201 -344h-168zM1536 1079h215l-491 -1079h-240l-74 852l-401 -852h-242l-76 1079h197l45 -880l401 880h222l73 -878z" />
    <glyph glyph-name="Ycircumflex" unicode="&#x176;" horiz-adv-x="1282" 
d="M938 1747l-203 -178h-203l336 311h168l207 -311h-176zM1513 1423l-675 -841l-113 -582h-209l115 588l-350 835h211l270 -659l504 659h247z" />
    <glyph glyph-name="ycircumflex" unicode="&#x177;" horiz-adv-x="1126" 
d="M807 1462l-213 -217h-193l338 344h168l199 -344h-166zM1059 1079h229l-837 -1446h-207l219 367h-37l-207 1079h207l154 -886z" />
    <glyph glyph-name="Ydieresis" unicode="&#x178;" horiz-adv-x="1282" 
d="M688 1577q-58 0 -94.5 35.5t-36.5 95.5q0 69 49.5 116.5t118.5 47.5q60 0 95.5 -36t35.5 -95q0 -67 -50.5 -115.5t-117.5 -48.5zM1118 1577q-58 0 -94.5 35.5t-36.5 95.5q0 69 49.5 116.5t118.5 47.5q60 0 95.5 -36t35.5 -95q0 -67 -50 -115.5t-118 -48.5zM1513 1423
l-675 -841l-113 -582h-209l115 588l-350 835h211l270 -659l504 659h247z" />
    <glyph glyph-name="Zacute" unicode="&#x179;" horiz-adv-x="1146" 
d="M1180 1739l-564 -178l-47 141l564 199zM1327 1423l-27 -135l-925 -1102h721l-33 -186h-1012l25 135l930 1106h-697l35 182h983z" />
    <glyph glyph-name="zacute" unicode="&#x17a;" horiz-adv-x="974" 
d="M1012 1479l-496 -262l-74 122l490 281zM1085 1079l-30 -155l-699 -756h576l-33 -168h-852l29 150l704 761h-530l33 168h802z" />
    <glyph glyph-name="Zdotaccent" unicode="&#x17b;" horiz-adv-x="1146" 
d="M856 1577q-57 0 -95 37t-38 96q0 66 48.5 113t117.5 47q60 0 97.5 -37t37.5 -94q0 -67 -50.5 -114.5t-117.5 -47.5zM1327 1423l-27 -135l-925 -1102h721l-33 -186h-1012l25 135l930 1106h-697l35 182h983z" />
    <glyph glyph-name="zdotaccent" unicode="&#x17c;" horiz-adv-x="974" 
d="M700 1268q-61 0 -100 36t-39 93q0 68 52 119t122 51q61 0 99 -37t38 -94q0 -68 -51 -118t-121 -50zM1085 1079l-30 -155l-699 -756h576l-33 -168h-852l29 150l704 761h-530l33 168h802z" />
    <glyph glyph-name="Zcaron" unicode="&#x17d;" horiz-adv-x="1146" 
d="M930 1569h-168l-207 311h176l129 -178l203 178h203zM1327 1423l-27 -135l-925 -1102h721l-33 -186h-1012l25 135l930 1106h-697l35 182h983z" />
    <glyph glyph-name="zcaron" unicode="&#x17e;" horiz-adv-x="974" 
d="M772 1243h-170l-199 344h168l131 -217l213 217h195zM250 911l33 168h802l-30 -155l-699 -756h576l-33 -168h-852l29 150l704 761h-530z" />
    <glyph glyph-name="uni01EA" unicode="&#x1ea;" horiz-adv-x="1615" 
d="M954 -80q-57 -47 -87.5 -88.5t-30.5 -87.5q0 -72 75 -72q56 0 95 39l55 -96q-76 -76 -197 -76q-86 0 -137 43.5t-51 120.5q0 134 184 272h-26q-283 0 -459 180.5t-176 465.5q0 133 40.5 258.5t115 227.5t174 179t224 119.5t257.5 42.5q284 0 459.5 -177t175.5 -466
q0 -282 -163.5 -501.5t-420.5 -295.5zM414 635q0 -209 119 -336t315 -127q120 0 228 50t185.5 134t123 198.5t45.5 238.5q0 206 -119.5 332t-317.5 126q-159 0 -292.5 -84t-210 -225.5t-76.5 -306.5z" />
    <glyph glyph-name="uni01EB" unicode="&#x1eb;" horiz-adv-x="1280" 
d="M735 -84q-57 -48 -88 -89.5t-31 -86.5q0 -35 20 -53.5t56 -18.5q56 0 94 41l56 -96q-75 -78 -197 -78q-85 0 -136.5 44t-51.5 120q0 137 190 276q-216 2 -351.5 132.5t-135.5 347.5q0 172 84.5 320.5t233 237.5t325.5 89q214 0 351.5 -129t137.5 -350q0 -212 -126.5 -386
t-327.5 -235zM373 479q0 -142 83 -229.5t220 -87.5q87 0 163.5 37.5t129 99t82.5 141.5t30 164q0 140 -82.5 227t-218.5 87q-114 0 -209 -63t-146.5 -163t-51.5 -213z" />
    <glyph glyph-name="AEacute" unicode="&#x1fc;" horiz-adv-x="1908" 
d="M1853 1739l-565 -178l-45 141l561 199zM2011 1241h-676l-80 -416h607l-37 -182h-604l-88 -461h686l-35 -182h-897l71 373h-495l-264 -373h-228l1000 1423h1075zM590 551h403l135 690h-47z" />
    <glyph glyph-name="aeacute" unicode="&#x1fd;" horiz-adv-x="2158" 
d="M1608 1481l-496 -262l-72 122l490 281zM1726 1102q189 0 310 -123.5t121 -306.5q0 -42 -10.5 -100.5t-22.5 -90.5h-848v-14q0 -148 85.5 -236t219.5 -88q215 0 332 199l135 -98q-176 -269 -492 -269q-277 0 -358 254l-45 -229h-192l32 166q-166 -191 -401 -191
q-193 0 -312.5 131t-119.5 343q0 172 80.5 322t223 240.5t312.5 90.5q131 0 222.5 -55.5t136.5 -157.5l34 190h193l-33 -168q75 89 176.5 140t220.5 51zM1294 608h672q4 46 4 60q0 130 -71 205t-199 75q-148 0 -257 -96t-149 -244zM664 160q168 0 285.5 134t117.5 316
q0 140 -78.5 225t-210.5 85q-112 0 -206 -61.5t-147.5 -163t-53.5 -218.5q0 -140 80.5 -228.5t212.5 -88.5z" />
    <glyph glyph-name="Oslashacute" unicode="&#x1fe;" horiz-adv-x="1622" 
d="M1401 1739l-565 -178l-45 141l561 199zM1733 1343l-187 -169q99 -157 99 -369q0 -170 -63.5 -323.5t-172 -264.5t-258.5 -176.5t-315 -65.5q-262 0 -437 158l-188 -172l-98 117l188 172q-100 155 -100 371q0 167 63.5 319.5t171 264t258.5 177.5t318 66q264 0 436 -158
l186 170zM414 635q0 -133 51 -238l825 750q-116 104 -295 104q-159 0 -293 -84t-211 -225.5t-77 -306.5zM1432 793q0 127 -52 231l-823 -748q116 -104 293 -104q119 0 227 50t185.5 134t123.5 198.5t46 238.5z" />
    <glyph glyph-name="oslashacute" unicode="&#x1ff;" horiz-adv-x="1318" 
d="M1149 1479l-494 -262l-73 122l489 281zM1417 971l-164 -125q47 -96 47 -223q0 -101 -30.5 -197.5t-88 -177.5t-134.5 -142.5t-176.5 -96t-208.5 -34.5q-228 0 -365 140l-164 -125l-78 112l164 125q-49 98 -49 228q0 172 84.5 320.5t232.5 237.5t324 89q230 0 367 -146
l163 125zM381 479q0 -58 16 -117l613 467q-83 89 -219 89q-115 0 -210.5 -63t-147.5 -163t-52 -213zM1090 604q0 58 -15 107l-608 -465q84 -84 217 -84q115 0 209.5 63.5t145.5 164.5t51 214z" />
    <glyph glyph-name="uni0218" unicode="&#x218;" horiz-adv-x="1153" 
d="M526 1061q0 -57 33 -100.5t85.5 -74t116 -58.5t127 -63t116 -78.5t85.5 -114t33 -160.5q0 -196 -145 -314t-385 -118q-204 0 -329 90t-148 254l204 73q11 -110 92.5 -173.5t213.5 -63.5q129 0 205.5 61t76.5 164q0 63 -33 112t-85.5 81.5t-116 62t-127 63t-116 74.5
t-85.5 106.5t-33 149.5q0 183 137.5 297.5t358.5 114.5q184 0 303 -83t131 -220l-205 -72q-12 95 -75.5 146t-169.5 51q-118 0 -191.5 -57.5t-73.5 -149.5zM580 -100q47 0 77.5 -28.5t30.5 -74.5q0 -39 -23 -80.5t-75 -107.5l-109 -139l-82 51l95 129q8 8 12 20
q-29 9 -46.5 35t-17.5 62q0 54 40.5 93.5t97.5 39.5z" />
    <glyph glyph-name="uni0219" unicode="&#x219;" horiz-adv-x="989" 
d="M449 795q0 -36 22.5 -64.5t59.5 -46t84 -36.5t96 -35t96 -41.5t84 -56.5t59.5 -80t22.5 -111q0 -159 -131 -254t-336 -95q-175 0 -290 73t-132 198l197 69q13 -80 80.5 -124t166.5 -44q96 0 164 42t68 114q0 44 -29 77t-75 54t-101.5 40t-111 43t-101.5 54.5t-75 82.5
t-29 120q0 146 118.5 237t307.5 91q154 0 256.5 -61t119.5 -164l-198 -74q-13 64 -63 97.5t-124 33.5q-86 0 -146 -39t-60 -100zM485 -100q47 0 79 -28.5t32 -74.5q0 -39 -23.5 -79t-76.5 -109l-109 -139l-80 51l92 129q5 5 15 20q-30 9 -47 35t-17 62q0 54 40 93.5t95 39.5
z" />
    <glyph glyph-name="uni021A" unicode="&#x21a;" horiz-adv-x="1148" 
d="M1366 1423l-37 -186h-430l-240 -1237h-206l239 1237h-428l37 186h1065zM537 -100q47 0 78.5 -28.5t31.5 -74.5q0 -39 -23.5 -79t-76.5 -109l-109 -139l-80 51l93 129q2 2 14 20q-30 9 -47 35t-17 62q0 54 40.5 93.5t95.5 39.5z" />
    <glyph glyph-name="uni021B" unicode="&#x21b;" horiz-adv-x="778" 
d="M590 901l-94 -483q-23 -115 23.5 -175.5t150.5 -60.5h98l-37 -182h-137q-180 0 -261.5 105t-47.5 288l98 508h-188l34 178h105q98 0 119 105l32 174h201l-55 -279h297l-35 -178h-303zM485 -82q47 0 79 -28.5t32 -73.5q0 -40 -23.5 -81.5t-76.5 -109.5l-109 -139l-80 51
l92 129l15 21q-29 9 -46.5 34.5t-17.5 61.5q0 55 40 95t95 40z" />
    <glyph glyph-name="uni0237" unicode="&#x237;" horiz-adv-x="471" 
d="M-164 -375l35 180h33q86 0 149.5 59t83.5 159l205 1056h207l-205 -1052q-38 -193 -161.5 -297.5t-299.5 -104.5h-47z" />
    <glyph glyph-name="circumflex" unicode="&#x2c6;" horiz-adv-x="722" 
d="M1006 1245h-166l-133 217l-213 -217h-193l338 344h168z" />
    <glyph glyph-name="caron" unicode="&#x2c7;" horiz-adv-x="813" 
d="M879 1589h192l-338 -344h-168l-198 344h168l129 -217z" />
    <glyph glyph-name="breve" unicode="&#x2d8;" horiz-adv-x="720" 
d="M645 1245q-146 0 -225.5 102.5t-52.5 241.5h161q-16 -79 18.5 -133.5t110.5 -54.5q80 0 131 54.5t64 133.5h164q-29 -153 -121 -248.5t-250 -95.5z" />
    <glyph glyph-name="dotaccent" unicode="&#x2d9;" horiz-adv-x="344" 
d="M467 1270q-61 0 -100 36t-39 93q0 68 51.5 119t122.5 51q60 0 98.5 -37t38.5 -94q0 -68 -51 -118t-121 -50z" />
    <glyph glyph-name="ring" unicode="&#x2da;" horiz-adv-x="497" 
d="M530 1184q-91 0 -146.5 54.5t-55.5 141.5q0 100 76 172t182 72q91 0 146.5 -55t55.5 -142q0 -100 -76 -171.5t-182 -71.5zM543 1303q47 0 81.5 32t34.5 80q0 39 -24.5 64.5t-63.5 25.5q-48 0 -82 -32.5t-34 -81.5q0 -39 23.5 -63.5t64.5 -24.5z" />
    <glyph glyph-name="ogonek" unicode="&#x2db;" horiz-adv-x="540" 
d="M188 -471q-86 0 -137 44.5t-51 121.5q0 144 207 289l115 77l65 -59l-108 -92q-58 -49 -88.5 -89t-30.5 -87q0 -35 20 -53.5t56 -18.5q53 0 94 41l55 -96q-78 -78 -197 -78z" />
    <glyph glyph-name="tilde" unicode="&#x2dc;" horiz-adv-x="876" 
d="M817 1280q-43 0 -80.5 16t-59 35t-52 35t-62.5 16q-77 0 -108 -94l-136 60q31 91 94 148.5t150 57.5q43 0 79.5 -16t58 -35t52.5 -35t64 -16q76 0 113 94l131 -59q-30 -91 -93 -149t-151 -58z" />
    <glyph glyph-name="hungarumlaut" unicode="&#x2dd;" horiz-adv-x="735" 
d="M408 1208l-109 92l301 338l125 -106zM813 1208l-111 92l304 338l122 -106z" />
    <glyph glyph-name="gravecomb" unicode="&#x300;" 
d="M121 1204l-455 275l90 141l449 -293z" />
    <glyph glyph-name="acutecomb" unicode="&#x301;" 
d="M-264 1219l-74 122l490 281l77 -141z" />
    <glyph glyph-name="uni0302" unicode="&#x302;" 
d="M178 1245h-166l-133 217l-213 -217h-192l338 344h168z" />
    <glyph glyph-name="tildecomb" unicode="&#x303;" 
d="M-18 1280q-43 0 -80.5 16t-59 35t-52 35t-62.5 16q-78 0 -109 -94l-135 60q31 91 94 148.5t150 57.5q43 0 79.5 -16t58 -35t52.5 -35t64 -16q75 0 112 94l131 -59q-30 -91 -92.5 -149t-150.5 -58z" />
    <glyph glyph-name="uni0304" unicode="&#x304;" 
d="M-412 1335l31 156h608l-30 -156h-609z" />
    <glyph glyph-name="uni0306" unicode="&#x306;" 
d="M-104 1245q-146 0 -226 102.5t-53 241.5h162q-16 -79 18.5 -133.5t110.5 -54.5q80 0 130.5 54t63.5 134h164q-29 -153 -120.5 -248.5t-249.5 -95.5z" />
    <glyph glyph-name="uni0307" unicode="&#x307;" 
d="M43 1270q-61 0 -100 36t-39 93q0 68 51.5 119t122.5 51q60 0 98.5 -37t38.5 -94q0 -68 -51 -118t-121 -50z" />
    <glyph glyph-name="uni0308" unicode="&#x308;" 
d="M-371 1272q-58 0 -93.5 36t-35.5 97q0 62 50.5 109t117.5 47q58 0 92.5 -35t34.5 -96q0 -62 -49.5 -110t-116.5 -48zM47 1272q-58 0 -93.5 36t-35.5 97q0 62 50.5 109t117.5 47q58 0 93.5 -35t35.5 -96q0 -62 -50.5 -110t-117.5 -48z" />
    <glyph glyph-name="uni030A" unicode="&#x30a;" 
d="M-43 1184q-92 0 -147.5 54.5t-55.5 141.5q0 100 76 172t182 72q91 0 147 -55t56 -142q0 -100 -76 -171.5t-182 -71.5zM-31 1303q47 0 82 32t35 80q0 39 -24.5 64.5t-63.5 25.5q-48 0 -82.5 -32.5t-34.5 -81.5q0 -39 23.5 -63.5t64.5 -24.5z" />
    <glyph glyph-name="uni030B" unicode="&#x30b;" 
d="M-485 1208l-111 92l303 338l125 -106zM-82 1208l-108 92l301 338l125 -106z" />
    <glyph glyph-name="uni030C" unicode="&#x30c;" 
d="M51 1589h193l-338 -344h-168l-199 344h168l129 -217z" />
    <glyph glyph-name="uni0326" unicode="&#x326;" 
d="M-209 -100q47 0 78 -28.5t31 -74.5q0 -39 -24 -80.5t-77 -107.5l-106 -139l-82 51l94 129l12 18q-28 9 -45.5 35.5t-17.5 63.5q0 54 40 93.5t97 39.5z" />
    <glyph glyph-name="uni0327" unicode="&#x327;" 
d="M-250 -106q60 -13 97.5 -60.5t37.5 -109.5q0 -92 -75 -155t-189 -63q-77 0 -136 29t-87 72l86 84q35 -68 121 -68q57 0 93 31t36 78q0 45 -33 78q-31 24 -72 24h-20l-15 23l101 168h129z" />
    <glyph glyph-name="uni0328" unicode="&#x328;" 
d="M-336 -471q-86 0 -137 44.5t-51 121.5q0 144 207 289l114 77l66 -59l-109 -92q-58 -49 -88.5 -89t-30.5 -87q0 -35 20 -53.5t56 -18.5q53 0 94 41l56 -96q-78 -78 -197 -78z" />
    <glyph glyph-name="uni0335" unicode="&#x335;" 
d="M-623 487l29 148h653l-26 -148h-656z" />
    <glyph glyph-name="uni0336" unicode="&#x336;" 
d="M-1276 563l31 164h1323l-33 -164h-1321z" />
    <glyph glyph-name="uni0337" unicode="&#x337;" 
d="M-575 360l-62 127l633 326l65 -125z" />
    <glyph glyph-name="uni0338" unicode="&#x338;" 
d="M-1157 -8l-78 112l1286 979l76 -110z" />
    <glyph glyph-name="Wgrave" unicode="&#x1e80;" horiz-adv-x="1816" 
d="M1503 1698l-53 -142l-551 187l57 162zM1808 1423h211l-604 -1423h-237l-68 1135l-514 -1135h-238l-53 1423h203l16 -1173l523 1173h223l65 -1173z" />
    <glyph glyph-name="wgrave" unicode="&#x1e81;" horiz-adv-x="1609" 
d="M1300 1327l-83 -123l-455 275l90 141zM1536 1079h215l-491 -1079h-240l-74 852l-401 -852h-242l-76 1079h197l45 -880l401 880h222l73 -878z" />
    <glyph glyph-name="Wacute" unicode="&#x1e82;" horiz-adv-x="1816" 
d="M1487 1739l-563 -178l-47 141l563 199zM1808 1423h211l-604 -1423h-237l-68 1135l-514 -1135h-238l-53 1423h203l16 -1173l523 1173h223l65 -1173z" />
    <glyph glyph-name="wacute" unicode="&#x1e83;" horiz-adv-x="1609" 
d="M1313 1481l-496 -262l-72 122l490 281zM1536 1079h215l-491 -1079h-240l-74 852l-401 -852h-242l-76 1079h197l45 -880l401 880h222l73 -878z" />
    <glyph glyph-name="Wdieresis" unicode="&#x1e84;" horiz-adv-x="1816" 
d="M975 1577q-58 0 -94.5 35.5t-36.5 95.5q0 69 49.5 116.5t118.5 47.5q60 0 95.5 -36t35.5 -95q0 -67 -50.5 -115.5t-117.5 -48.5zM1405 1577q-58 0 -94.5 35.5t-36.5 95.5q0 69 49.5 116.5t118.5 47.5q61 0 96 -36t35 -95q0 -67 -50 -115.5t-118 -48.5zM1808 1423h211
l-604 -1423h-237l-68 1135l-514 -1135h-238l-53 1423h203l16 -1173l523 1173h223l65 -1173z" />
    <glyph glyph-name="wdieresis" unicode="&#x1e85;" horiz-adv-x="1609" 
d="M811 1272q-58 0 -93.5 36t-35.5 97q0 62 50 109t116 47q58 0 93.5 -35t35.5 -96q0 -62 -50 -110t-116 -48zM1229 1272q-58 0 -93.5 36t-35.5 97q0 62 50 109t116 47q58 0 93.5 -35t35.5 -96q0 -62 -50 -110t-116 -48zM1536 1079h215l-491 -1079h-240l-74 852l-401 -852
h-242l-76 1079h197l45 -880l401 880h222l73 -878z" />
    <glyph glyph-name="uni1E9E" unicode="&#x1e9e;" horiz-adv-x="1284" 
d="M1020 770q132 -28 204.5 -128t59.5 -241q-19 -187 -160 -303t-346 -116q-126 0 -201 50t-94 140l101 145q14 -78 67.5 -121.5t136.5 -43.5q121 0 202.5 75t86.5 191q6 104 -58.5 167.5t-170.5 63.5h-64l23 119l352 356q-68 140 -258 140q-149 0 -247 -84t-126 -234
l-184 -946h-207l185 950q44 230 207.5 362t398.5 132q189 0 302.5 -83t143.5 -233z" />
    <glyph glyph-name="Ygrave" unicode="&#x1ef2;" horiz-adv-x="1282" 
d="M1229 1698l-53 -142l-549 187l57 162zM1513 1423l-675 -841l-113 -582h-209l115 588l-350 835h211l270 -659l504 659h247z" />
    <glyph glyph-name="ygrave" unicode="&#x1ef3;" horiz-adv-x="1126" 
d="M1061 1327l-84 -123l-455 275l90 141zM1059 1079h229l-837 -1446h-207l219 367h-37l-207 1079h207l154 -886z" />
    <glyph glyph-name="uni1EF8" unicode="&#x1ef8;" horiz-adv-x="1282" 
d="M776 1679q-83 0 -114 -94l-136 60q33 92 96.5 149t153.5 57q44 0 82.5 -16t61.5 -35t55.5 -35t66.5 -16q82 0 119 94l131 -59q-30 -91 -94 -149t-154 -58q-45 0 -84.5 16t-63 35t-55.5 35t-65 16zM1513 1423l-675 -841l-113 -582h-209l115 588l-350 835h211l270 -659
l504 659h247z" />
    <glyph glyph-name="uni1EF9" unicode="&#x1ef9;" horiz-adv-x="1126" 
d="M664 1382q-78 0 -109 -94l-135 60q31 91 94 148.5t150 57.5q43 0 79.5 -16t58 -35t52.5 -35t64 -16q75 0 112 94l131 -59q-30 -91 -92.5 -149t-150.5 -58q-43 0 -80.5 16t-59 35t-52 35t-62.5 16zM1059 1079h229l-837 -1446h-207l219 367h-37l-207 1079h207l154 -886z
" />
    <glyph glyph-name="endash" unicode="&#x2013;" horiz-adv-x="1026" 
d="M195 428l32 168h799l-33 -168h-798z" />
    <glyph glyph-name="emdash" unicode="&#x2014;" horiz-adv-x="1546" 
d="M195 426l32 170h1317l-33 -170h-1316z" />
    <glyph glyph-name="quoteleft" unicode="&#x2018;" horiz-adv-x="415" 
d="M463 1233q38 -8 62 -38t24 -73q0 -61 -44.5 -102t-103.5 -41q-53 0 -85.5 33t-32.5 80q0 40 15 73.5t54 91.5l140 205h122z" />
    <glyph glyph-name="quoteright" unicode="&#x2019;" horiz-adv-x="413" 
d="M489 1473q53 0 86 -33.5t33 -81.5q0 -39 -15.5 -74t-53.5 -90l-140 -205h-123l152 230q-38 8 -62 37.5t-24 72.5q0 61 44 102.5t103 41.5z" />
    <glyph glyph-name="quotesinglbase" unicode="&#x201a;" horiz-adv-x="415" 
d="M242 236q53 0 85.5 -33t32.5 -82q0 -40 -15 -75.5t-52 -88.5l-139 -205h-123l149 230q-38 8 -61 37.5t-23 72.5q0 61 43.5 102.5t102.5 41.5z" />
    <glyph glyph-name="quotedblleft" unicode="&#x201c;" horiz-adv-x="743" 
d="M463 1233q38 -8 62 -38t24 -73q0 -61 -44.5 -102t-103.5 -41q-53 0 -85.5 33t-32.5 80q0 40 15 73.5t54 91.5l140 205h122zM791 1233q38 -8 62 -38t24 -73q0 -61 -43.5 -102t-102.5 -41q-54 0 -87.5 33t-33.5 80q0 40 15 73t55 92l139 205h123z" />
    <glyph glyph-name="quotedblright" unicode="&#x201d;" horiz-adv-x="741" 
d="M489 1473q53 0 86 -33.5t33 -81.5q0 -39 -15.5 -74t-53.5 -90l-140 -205h-123l152 230q-38 8 -62 37.5t-24 72.5q0 61 44 102.5t103 41.5zM817 1473q53 0 86 -33.5t33 -81.5q0 -39 -15.5 -74.5t-52.5 -89.5l-141 -205h-123l152 230q-38 8 -62 37.5t-24 72.5
q0 61 44 102.5t103 41.5z" />
    <glyph glyph-name="quotedblbase" unicode="&#x201e;" horiz-adv-x="745" 
d="M242 236q53 0 85.5 -33t32.5 -82q0 -40 -15 -75.5t-52 -88.5l-139 -205h-123l149 230q-38 8 -61 37.5t-23 72.5q0 61 43.5 102.5t102.5 41.5zM569 236q53 0 86 -33.5t33 -81.5q0 -40 -15 -75.5t-52 -88.5l-140 -205h-123l150 230q-38 8 -61 37.5t-23 72.5q0 62 43 103
t102 41z" />
    <glyph glyph-name="dagger" unicode="&#x2020;" horiz-adv-x="704" 
d="M866 1276l-28 -146h-191l-102 -522h-158l102 522h-190l29 146h190l43 221h158l-43 -221h190z" />
    <glyph glyph-name="daggerdbl" unicode="&#x2021;" horiz-adv-x="749" 
d="M868 1176h-190l-47 -246h190l-30 -148h-189l-35 -174h-159l34 174h-188l27 148h190l47 246h-188l28 147h189l35 174h159l-34 -174h190z" />
    <glyph glyph-name="bullet" unicode="&#x2022;" horiz-adv-x="735" 
d="M473 469q-91 0 -148 56t-57 147q0 102 74.5 178t181.5 76q92 0 148.5 -55.5t56.5 -145.5q0 -102 -74 -179t-182 -77z" />
    <glyph glyph-name="ellipsis" unicode="&#x2026;" horiz-adv-x="1198" 
d="M217 -18q-53 0 -86 31t-33 83q0 59 43.5 103.5t104.5 44.5q54 0 86.5 -32t32.5 -83q0 -61 -43 -104t-105 -43zM602 -18q-52 0 -84.5 31t-32.5 83q0 60 43 104t105 44q53 0 86 -32.5t33 -82.5q0 -60 -43.5 -103.5t-106.5 -43.5zM987 -18q-52 0 -84.5 31t-32.5 83
q0 60 43 104t105 44q54 0 86.5 -32t32.5 -83q0 -61 -43 -104t-107 -43z" />
    <glyph glyph-name="perthousand" unicode="&#x2030;" horiz-adv-x="2166" 
d="M541 782q-122 0 -200.5 80.5t-78.5 202.5q0 148 107 260.5t258 112.5q121 0 198.5 -78.5t77.5 -198.5q0 -94 -45.5 -181t-130 -142.5t-186.5 -55.5zM254 0l1079 1423h162l-1077 -1423h-164zM555 918q88 0 148.5 70t60.5 157q0 70 -43 115t-111 45q-87 0 -147 -70
t-60 -158q0 -70 43 -114.5t109 -44.5zM1130 -14q-124 0 -201 79t-77 201q0 96 47 182t131 139.5t184 53.5q122 0 200.5 -78.5t78.5 -197.5q0 -147 -105.5 -263t-257.5 -116zM1815 -14q-124 0 -201.5 79t-77.5 201q0 96 47 182t131 139.5t184 53.5q122 0 200.5 -78.5
t78.5 -197.5q0 -95 -46 -182t-130.5 -142t-185.5 -55zM1145 119q87 0 147 70t60 157q0 71 -42.5 115.5t-109.5 44.5q-87 0 -147 -68.5t-60 -156.5q0 -72 42 -117t110 -45zM1829 119q87 0 147 70t60 157q0 71 -42.5 115.5t-109.5 44.5q-87 0 -148 -69t-61 -156q0 -72 43 -117
t111 -45z" />
    <glyph glyph-name="guilsinglleft" unicode="&#x2039;" horiz-adv-x="587" 
d="M651 852l-303 -356l152 -332h-183l-155 344l291 344h198z" />
    <glyph glyph-name="guilsinglright" unicode="&#x203a;" horiz-adv-x="587" 
d="M463 852l155 -344l-290 -344h-201l303 358l-151 330h184z" />
    <glyph glyph-name="fraction" unicode="&#x2044;" horiz-adv-x="829" 
d="M-27 0l1008 1423h156l-1010 -1423h-154z" />
    <glyph glyph-name="uni2074" unicode="&#x2074;" horiz-adv-x="657" 
d="M782 1423l-90 -458h76l-18 -101h-76l-31 -153h-133l31 153h-324l19 101l413 458h133zM561 965l57 297l-268 -297h211z" />
    <glyph glyph-name="Euro" unicode="&#x20ac;" horiz-adv-x="1511" 
d="M940 172q256 0 387 211l170 -82q-88 -156 -237.5 -241t-339.5 -85q-245 0 -402 132t-190 358h-207l41 137h157q3 70 19 150h-125l43 139h123q89 219 279.5 353t424.5 134q195 0 340 -94.5t191 -247.5l-197 -80q-38 107 -130.5 166.5t-221.5 59.5q-153 0 -274.5 -78
t-188.5 -213h475l-43 -139h-481q-18 -70 -18 -150h448l-41 -137h-395q32 -141 133.5 -217t259.5 -76z" />
    <glyph glyph-name="trademark" unicode="&#x2122;" horiz-adv-x="1284" 
d="M743 1278h-165l-91 -467h-112l90 467h-166l20 102h443zM1284 1380h107l-70 -569h-109l50 385l-195 -367h-96l-51 375l-103 -393h-106l151 569h129l56 -405l215 405l22 -2v2z" />
    <glyph glyph-name="minus" unicode="&#x2212;" horiz-adv-x="952" 
d="M166 561l35 174h835l-35 -174h-835z" />
    <glyph glyph-name="approxequal" unicode="&#x2248;" horiz-adv-x="1064" 
d="M874 696q-60 0 -112.5 17.5t-84.5 38t-78 38t-93 17.5q-91 0 -158 -82l-84 121q95 129 246 129q60 0 112.5 -17t85 -37.5t78.5 -37.5t93 -17q90 0 157 80l86 -121q-101 -129 -248 -129zM786 246q-60 0 -112.5 17t-84.5 38t-78 38t-93 17q-91 0 -158 -82l-86 123
q101 129 248 129q60 0 112.5 -17t85 -38t78.5 -38t93 -17q90 0 157 82l84 -121q-97 -131 -246 -131z" />
    <glyph glyph-name="notequal" unicode="&#x2260;" horiz-adv-x="954" 
d="M1040 764h-278l-150 -303h371l-35 -174h-420l-110 -226h-197l111 226h-219l34 174h269l149 303h-360l35 176h411l109 223h196l-108 -223h227z" />
    <glyph glyph-name="uniF8FF" unicode="&#xf8ff;" horiz-adv-x="4724" 
d="M1149 408q-95 0 -136.5 40t-41.5 130v466h203q0 -62 -40 -122t-98 -86l2 -9q58 35 119 35h105v-162h-86v-98q0 -35 36 -35q28 0 50 15v-154q-36 -20 -113 -20zM1303 418v626h200q0 -67 -47 -122t-115 -70l5 -6q84 16 143 16h16v-444h-202zM2808 408q-95 0 -137.5 40.5
t-42.5 129.5v466h202q0 -62 -39 -122t-98 -86l4 -9q58 35 119 35h102v-162h-86v-98q0 -35 37 -35q27 0 49 15v-154q-36 -20 -110 -20zM205 418v624h203v-624h-203zM584 408q-66 0 -105 34t-39 90q0 60 41 98t111 38q92 0 135 -43h4v71q0 24 -12 38t-35 14q-47 0 -47 -60
l-184 29q37 160 249 160q110 0 172 -50t62 -135v-274h-201v45h-6q-14 -20 -51.5 -37.5t-93.5 -17.5zM1548 418v444h199v-133h6q17 143 145 143q70 0 110 -46t40 -134v-274h-205v264q0 55 -39 55q-22 0 -32 -13t-21 -52v-254h-203zM2337 408q-123 0 -190.5 63.5t-67.5 167.5
t69 168.5t189 64.5q122 0 190 -64.5t68 -168.5q0 -103 -67.5 -167t-190.5 -64zM3463 270v592h203v-133h6q21 143 150 143q170 0 170 -233q0 -115 -51.5 -173t-125.5 -58q-105 0 -141 88h-6v-226h-205zM4274 408q-120 0 -187 63.5t-67 167.5q0 103 70 168t190 65
q107 0 173.5 -64.5t66.5 -158.5v-18h-307q0 -39 18.5 -66.5t50.5 -27.5q55 0 62 69l168 -16q-18 -95 -83 -138.5t-155 -43.5zM3015 262v135h133q115 0 137 25l-2 6h-139q-83 0 -107 80l-110 354h204q6 -37 20 -110t24 -134t14 -110h4q13 125 61 354h203l-145 -424
q-63 -176 -217 -176h-80zM4213 655h12q62 0 87.5 12t25.5 38q0 45 -49 45q-34 0 -55 -26t-21 -69zM3738 506q31 0 46 27.5t15 89.5q0 66 -12 95.5t-43 29.5q-46 0 -62 -68v-148q21 -26 56 -26zM2337 535q59 0 59 104q0 106 -59 106q-58 0 -58 -106q0 -104 58 -104zM686 469
q30 0 45 23v104q-10 16 -39 16q-25 0 -40 -19t-15 -52q0 -72 49 -72z" />
    <glyph glyph-name="uni00A40301" horiz-adv-x="688" 
d="M526 1561l-45 141l561 199l50 -162zM35 0l35 184h86q94 0 157 57t82 156l199 1026h207l-203 -1056q-37 -181 -150 -274t-292 -93h-121z" />
    <glyph glyph-name="Q.ss01" horiz-adv-x="1574" 
d="M1645 811q0 -192 -91.5 -357.5t-246.5 -267.5h258l-37 -186h-682q-293 0 -470 172.5t-177 454.5q0 164 63.5 315t171.5 262t259 177.5t317 66.5q284 0 459.5 -176.5t175.5 -460.5zM414 639q0 -203 119 -329t315 -126q120 0 228 49.5t185.5 133t123 196t45.5 234.5
q0 203 -120 328.5t-317 125.5q-159 0 -292.5 -84t-210 -224.5t-76.5 -303.5z" />
    <glyph glyph-name="i.loclTRK" horiz-adv-x="481" 
d="M489 1268q-61 0 -100 37t-39 94q0 68 52 118t122 50q62 0 100 -36.5t38 -94.5q0 -68 -51.5 -118t-121.5 -50zM129 0l209 1079h207l-209 -1079h-207z" />
    <glyph glyph-name="uni006A0301" horiz-adv-x="485" 
d="M315 1217l-73 122l489 283l80 -143zM-164 -375l35 180h33q86 0 149.5 59t83.5 159l205 1056h207l-205 -1052q-38 -193 -161.5 -297.5t-299.5 -104.5h-47z" />
    <glyph glyph-name="g.ss01" horiz-adv-x="1128" 
d="M1300 1079l-34 -178h-199q39 -80 39 -178q0 -131 -67.5 -244t-182.5 -182q174 -85 174 -281q0 -186 -150 -296.5t-388 -110.5q-202 0 -337 85t-159 222l203 72q15 -97 95.5 -152t205.5 -55q143 0 231 66.5t88 170.5q0 91 -65 145t-183 54h-2q-178 0 -284.5 105.5
t-106.5 277.5q0 135 72 251.5t193 184.5t259 68q85 0 158 -25h440zM604 389q127 0 218 91.5t91 217.5q0 103 -63.5 168.5t-169.5 65.5q-126 0 -213.5 -90t-87.5 -219q0 -104 61 -169t164 -65z" />
    <glyph glyph-name="gbreve.ss01" horiz-adv-x="1157" 
d="M766 1245q-146 0 -226 102.5t-53 241.5h162q-16 -80 19 -134t112 -54q79 0 129.5 54.5t63.5 133.5h164q-29 -153 -121 -248.5t-250 -95.5zM1300 1079l-34 -178h-199q39 -80 39 -178q0 -131 -67.5 -244t-182.5 -182q174 -85 174 -281q0 -186 -150 -296.5t-388 -110.5
q-202 0 -337 85t-159 222l203 72q15 -97 95.5 -152t205.5 -55q143 0 231 66.5t88 170.5q0 91 -65 145t-183 54h-2q-178 0 -284.5 105.5t-106.5 277.5q0 135 72 251.5t193 184.5t259 68q85 0 158 -25h440zM604 389q127 0 218 91.5t91 217.5q0 103 -63.5 168.5t-169.5 65.5
q-126 0 -213.5 -90t-87.5 -219q0 -104 61 -169t164 -65z" />
    <glyph glyph-name="uni0123.ss01" horiz-adv-x="1157" 
d="M750 1223q-47 0 -79 29t-32 75q0 39 23.5 80t76.5 109l109 139l80 -51l-92 -129l-15 -21q64 -21 64 -96q0 -56 -39.5 -95.5t-95.5 -39.5zM1300 1079l-34 -178h-199q39 -80 39 -178q0 -131 -67.5 -244t-182.5 -182q174 -85 174 -281q0 -186 -150 -296.5t-388 -110.5
q-202 0 -337 85t-159 222l203 72q15 -97 95.5 -152t205.5 -55q143 0 231 66.5t88 170.5q0 91 -65 145t-183 54h-2q-178 0 -284.5 105.5t-106.5 277.5q0 135 72 251.5t193 184.5t259 68q85 0 158 -25h440zM604 389q127 0 218 91.5t91 217.5q0 103 -63.5 168.5t-169.5 65.5
q-126 0 -213.5 -90t-87.5 -219q0 -104 61 -169t164 -65z" />
    <glyph glyph-name="gdotaccent.ss01" horiz-adv-x="1157" 
d="M768 1270q-61 0 -100 36t-39 93q0 68 52 119t122 51q61 0 99 -37t38 -94q0 -68 -51 -118t-121 -50zM1300 1079l-34 -178h-199q39 -80 39 -178q0 -131 -67.5 -244t-182.5 -182q174 -85 174 -281q0 -186 -150 -296.5t-388 -110.5q-202 0 -337 85t-159 222l203 72
q15 -97 95.5 -152t205.5 -55q143 0 231 66.5t88 170.5q0 91 -65 145t-183 54h-2q-178 0 -284.5 105.5t-106.5 277.5q0 135 72 251.5t193 184.5t259 68q85 0 158 -25h440zM604 389q127 0 218 91.5t91 217.5q0 103 -63.5 168.5t-169.5 65.5q-126 0 -213.5 -90t-87.5 -219
q0 -104 61 -169t164 -65z" />
    <glyph glyph-name="t.ss01" horiz-adv-x="737" 
d="M258 0l174 901h-242l35 178h158q101 0 119 105l35 174h198l-55 -279h244l-35 -178h-250l-174 -901h-207z" />
    <glyph glyph-name="tbar.ss01" horiz-adv-x="833" 
d="M928 901h-248l-51 -266h229l-27 -148h-231l-94 -487h-207l94 487h-217l29 148h217l51 266h-242l35 178h156q103 0 121 105l35 174h198l-55 -279h242z" />
    <glyph glyph-name="tcaron.ss01" horiz-adv-x="759" 
d="M834 1139l124 477h160l-145 -477h-139zM258 0l174 901h-242l35 178h158q101 0 119 105l35 174h198l-55 -279h244l-35 -178h-250l-174 -901h-207z" />
    <glyph glyph-name="uni0163.ss01" horiz-adv-x="759" 
d="M680 1079h244l-35 -178h-250l-174 -901h-35l-65 -117q60 -13 96.5 -61t36.5 -111q0 -92 -74 -153.5t-188 -61.5q-78 0 -137 28.5t-87 72.5l86 81q33 -65 121 -65q56 0 92.5 30.5t36.5 75.5q0 44 -28 73.5t-76 29.5h-21l-14 22l90 156h-41l174 901h-242l35 178h158
q101 0 119 105l35 174h198z" />
    <glyph glyph-name="uni021B.ss01" horiz-adv-x="759" 
d="M680 1079h244l-35 -178h-250l-174 -901h-207l174 901h-242l35 178h158q101 0 119 105l35 174h198zM336 -111q47 0 78.5 -28t31.5 -74q0 -40 -23.5 -80.5t-76.5 -109.5l-108 -140l-80 51l92 130l14 20q-63 23 -63 96q0 56 39 95.5t96 39.5z" />
    <glyph glyph-name="u.ss01" horiz-adv-x="1185" 
d="M614 -25q-229 0 -340.5 133.5t-68.5 358.5l121 612h206l-120 -618q-27 -141 34.5 -221t190.5 -80q121 0 201 71.5t102 188.5l129 659h207l-127 -653q-41 -208 -179.5 -329.5t-355.5 -121.5z" />
    <glyph glyph-name="uacute.ss01" horiz-adv-x="1214" 
d="M659 1219l-73 122l489 281l80 -141zM614 -25q-229 0 -340.5 133.5t-68.5 358.5l121 612h206l-120 -618q-27 -141 34.5 -221t190.5 -80q121 0 201 71.5t102 188.5l129 659h207l-127 -653q-41 -208 -179.5 -329.5t-355.5 -121.5z" />
    <glyph glyph-name="ucircumflex.ss01" horiz-adv-x="1214" 
d="M881 1462l-213 -217h-193l338 344h168l199 -344h-166zM1069 1079h207l-127 -653q-41 -208 -179.5 -329.5t-355.5 -121.5q-229 0 -340.5 133.5t-68.5 358.5l121 612h206l-120 -618q-27 -141 34.5 -221t190.5 -80q121 0 201 71.5t102 188.5z" />
    <glyph glyph-name="udieresis.ss01" horiz-adv-x="1214" 
d="M627 1272q-58 0 -93.5 36t-35.5 97q0 62 50 109t116 47q58 0 93.5 -35t35.5 -96q0 -62 -50 -110t-116 -48zM1044 1272q-58 0 -93.5 36t-35.5 97q0 62 50 109t116 47q58 0 93.5 -35t35.5 -96q0 -62 -50 -110t-116 -48zM614 -25q-229 0 -340.5 133.5t-68.5 358.5l121 612
h206l-120 -618q-27 -141 34.5 -221t190.5 -80q121 0 201 71.5t102 188.5l129 659h207l-127 -653q-41 -208 -179.5 -329.5t-355.5 -121.5z" />
    <glyph glyph-name="ugrave.ss01" horiz-adv-x="1214" 
d="M1010 1204l-455 275l90 141l449 -293zM614 -25q-229 0 -340.5 133.5t-68.5 358.5l121 612h206l-120 -618q-27 -141 34.5 -221t190.5 -80q121 0 201 71.5t102 188.5l129 659h207l-127 -653q-41 -208 -179.5 -329.5t-355.5 -121.5z" />
    <glyph glyph-name="uhungarumlaut.ss01" horiz-adv-x="1214" 
d="M596 1208l-109 92l301 338l125 -106zM1001 1208l-110 92l303 338l123 -106zM614 -25q-229 0 -340.5 133.5t-68.5 358.5l121 612h206l-120 -618q-27 -141 34.5 -221t190.5 -80q121 0 201 71.5t102 188.5l129 659h207l-127 -653q-41 -208 -179.5 -329.5t-355.5 -121.5z" />
    <glyph glyph-name="umacron.ss01" horiz-adv-x="1214" 
d="M532 1335l31 156h606l-28 -156h-609zM614 -25q-229 0 -340.5 133.5t-68.5 358.5l121 612h206l-120 -618q-27 -141 34.5 -221t190.5 -80q121 0 201 71.5t102 188.5l129 659h207l-127 -653q-41 -208 -179.5 -329.5t-355.5 -121.5z" />
    <glyph glyph-name="uogonek.ss01" horiz-adv-x="1214" 
d="M1069 1079h207l-127 -653q-33 -169 -131 -281.5t-252 -150.5l-100 -86q-58 -49 -88.5 -89t-30.5 -87q0 -35 20 -53.5t56 -18.5q53 0 94 41l55 -96q-78 -78 -197 -78q-86 0 -137 44.5t-51 121.5q0 141 199 282q-216 9 -319 141.5t-62 350.5l121 612h206l-120 -618
q-27 -141 34.5 -221t190.5 -80q121 0 201 71.5t102 188.5z" />
    <glyph glyph-name="uring.ss01" horiz-adv-x="1214" 
d="M819 1184q-92 0 -147.5 54.5t-55.5 141.5q0 100 77.5 172t183.5 72q90 0 145 -55t55 -142q0 -100 -76 -171.5t-182 -71.5zM831 1303q49 0 84 32t35 80q0 39 -24.5 64.5t-65.5 25.5q-48 0 -81.5 -32.5t-33.5 -81.5q0 -39 23.5 -63.5t62.5 -24.5zM614 -25
q-229 0 -340.5 133.5t-68.5 358.5l121 612h206l-120 -618q-27 -141 34.5 -221t190.5 -80q121 0 201 71.5t102 188.5l129 659h207l-127 -653q-41 -208 -179.5 -329.5t-355.5 -121.5z" />
    <glyph glyph-name="utilde.ss01" horiz-adv-x="1214" 
d="M973 1280q-43 0 -80.5 16t-59 35t-52 35t-62.5 16q-78 0 -109 -94l-135 60q31 91 94 148.5t150 57.5q43 0 79.5 -16t58 -35t52.5 -35t64 -16q75 0 112 94l132 -59q-30 -91 -93 -149t-151 -58zM614 -25q-229 0 -340.5 133.5t-68.5 358.5l121 612h206l-120 -618
q-27 -141 34.5 -221t190.5 -80q121 0 201 71.5t102 188.5l129 659h207l-127 -653q-41 -208 -179.5 -329.5t-355.5 -121.5z" />
    <glyph glyph-name="y.ss01" horiz-adv-x="1196" 
d="M1067 1079h207l-195 -1011q-44 -228 -180 -342.5t-354 -114.5q-186 0 -295 76t-139 213l180 63q15 -88 86.5 -139t181.5 -51q272 0 330 327l16 88q-70 -79 -168 -125.5t-202 -46.5q-184 0 -276.5 124t-55.5 315l121 624h206l-114 -587q-25 -132 35 -211.5t180 -77.5
q106 0 193 66t120 177z" />
    <glyph glyph-name="yacute.ss01" horiz-adv-x="1224" 
d="M1157 1481l-495 -262l-74 122l489 281zM1067 1079h207l-195 -1011q-44 -228 -180 -342.5t-354 -114.5q-186 0 -295 76t-139 213l180 63q15 -88 86.5 -139t181.5 -51q272 0 330 327l16 88q-70 -79 -168 -125.5t-202 -46.5q-184 0 -276.5 124t-55.5 315l121 624h206
l-114 -587q-25 -132 35 -211.5t180 -77.5q106 0 193 66t120 177z" />
    <glyph glyph-name="ycircumflex.ss01" horiz-adv-x="1224" 
d="M881 1460l-213 -215h-195l338 344h168l201 -344h-166zM1067 1079h207l-195 -1011q-44 -228 -180 -342.5t-354 -114.5q-186 0 -295 76t-139 213l180 63q15 -88 86.5 -139t181.5 -51q272 0 330 327l16 88q-70 -79 -168 -125.5t-202 -46.5q-184 0 -276.5 124t-55.5 315
l121 624h206l-114 -587q-25 -132 35 -211.5t180 -77.5q106 0 193 66t120 177z" />
    <glyph glyph-name="ydieresis.ss01" horiz-adv-x="1224" 
d="M629 1272q-58 0 -93.5 36t-35.5 97q0 62 50.5 109t117.5 47q58 0 93.5 -35t35.5 -96q0 -62 -50.5 -110t-117.5 -48zM1047 1272q-58 0 -93.5 36t-35.5 97q0 62 50 109t117 47q58 0 93.5 -35t35.5 -96q0 -62 -50 -110t-117 -48zM1067 1079h207l-195 -1011
q-44 -228 -180 -342.5t-354 -114.5q-186 0 -295 76t-139 213l180 63q15 -88 86.5 -139t181.5 -51q272 0 330 327l16 88q-70 -79 -168 -125.5t-202 -46.5q-184 0 -276.5 124t-55.5 315l121 624h206l-114 -587q-25 -132 35 -211.5t180 -77.5q106 0 193 66t120 177z" />
    <glyph glyph-name="ygrave.ss01" horiz-adv-x="1224" 
d="M1096 1327l-84 -123l-455 275l90 141zM1067 1079h207l-195 -1011q-44 -228 -180 -342.5t-354 -114.5q-186 0 -295 76t-139 213l180 63q15 -88 86.5 -139t181.5 -51q272 0 330 327l16 88q-70 -79 -168 -125.5t-202 -46.5q-184 0 -276.5 124t-55.5 315l121 624h206
l-114 -587q-25 -132 35 -211.5t180 -77.5q106 0 193 66t120 177z" />
    <glyph glyph-name="uni1EF9.ss01" horiz-adv-x="1224" 
d="M731 1382q-75 0 -110 -94l-134 60q31 91 94 148.5t150 57.5q42 0 78.5 -16t58 -35t52.5 -35t63 -16q78 0 115 94l131 -59q-32 -91 -94.5 -149t-149.5 -58q-43 0 -80.5 16t-59 35t-52 35t-62.5 16zM1067 1079h207l-195 -1011q-44 -228 -180 -342.5t-354 -114.5
q-186 0 -295 76t-139 213l180 63q15 -88 86.5 -139t181.5 -51q272 0 330 327l16 88q-70 -79 -168 -125.5t-202 -46.5q-184 0 -276.5 124t-55.5 315l121 624h206l-114 -587q-25 -132 35 -211.5t180 -77.5q106 0 193 66t120 177z" />
    <glyph glyph-name="zero.osf" horiz-adv-x="1292" 
d="M682 -23q-221 0 -364.5 134.5t-143.5 357.5q0 129 50.5 246t136.5 202t204 135t248 50q222 0 365 -134t143 -356q0 -129 -50.5 -246.5t-136.5 -202.5t-204 -135.5t-248 -50.5zM696 162q114 0 210 60t151 160.5t55 215.5q0 143 -87 231.5t-226 88.5q-114 0 -210 -60
t-151 -160t-55 -215q0 -143 86 -232t227 -89z" />
    <glyph glyph-name="one.osf" horiz-adv-x="829" 
d="M596 178h227l-35 -178h-702l33 178h272l141 727h-282l35 174h485z" />
    <glyph glyph-name="two.osf" horiz-adv-x="1079" 
d="M1073 788q0 -77 -30 -150t-82 -135.5t-129.5 -123t-165.5 -111.5t-197 -102h580l-33 -166h-944l24 131q149 67 263 126t210 120.5t157.5 119.5t95.5 120t34 124q0 84 -54 130.5t-143 46.5q-177 0 -253 -168l-175 61q56 129 181 210t290 81q168 0 269.5 -86t101.5 -228z
" />
    <glyph glyph-name="three.osf" horiz-adv-x="1067" 
d="M1151 1079l-33 -166l-434 -389q158 -17 248 -114t90 -246q0 -199 -154 -331t-383 -132q-185 0 -309.5 86.5t-136.5 222.5l203 76q9 -89 80 -145t182 -56q131 0 221 78.5t90 196.5q0 102 -64.5 165.5t-181.5 63.5h-149l24 137l428 379h-598l35 174h842z" />
    <glyph glyph-name="four.osf" horiz-adv-x="1107" 
d="M1108 1077l-168 -864h152l-29 -154h-154l-59 -303h-205l60 303h-644l31 150l811 868h205zM737 213l113 592l-549 -592h436z" />
    <glyph glyph-name="five.osf" horiz-adv-x="1046" 
d="M1071 905h-530l-90 -356h124q202 0 320.5 -103.5t118.5 -277.5q0 -201 -150.5 -334t-380.5 -133q-183 0 -305.5 86t-142.5 229l207 76q4 -92 76 -149.5t180 -57.5q128 0 216.5 80.5t88.5 198.5q0 103 -70 167t-184 64h-322l170 684h707z" />
    <glyph glyph-name="six.osf" horiz-adv-x="1093" 
d="M713 909q180 0 298.5 -111t118.5 -292q0 -149 -74.5 -271t-202.5 -191t-282 -69q-194 0 -313 110t-119 288q0 119 51 225t154 213l528 541h244l-428 -443h25zM596 154q133 0 229.5 99t96.5 236q0 112 -67.5 182t-176.5 70q-137 0 -233.5 -102t-96.5 -240q0 -107 69 -176
t179 -69z" />
    <glyph glyph-name="seven.osf" horiz-adv-x="942" 
d="M236 1079h870l-31 -159l-690 -1192h-231l688 1177h-641z" />
    <glyph glyph-name="eight.osf" horiz-adv-x="1120" 
d="M909 715q96 -38 148.5 -119.5t52.5 -187.5q0 -124 -72.5 -224t-191.5 -154.5t-258 -54.5q-200 0 -321.5 92t-121.5 244q0 143 96.5 259t247.5 153q-74 35 -116.5 100.5t-42.5 155.5q0 107 63 197.5t171.5 143t236.5 52.5q178 0 279.5 -87t101.5 -224q0 -116 -75.5 -211
t-197.5 -135zM784 1204q-105 0 -181.5 -70.5t-76.5 -166.5q0 -78 53 -126.5t138 -47.5q104 0 183 71.5t79 165.5q0 77 -54.5 125.5t-140.5 48.5zM594 145q129 0 218 83t89 198q0 95 -62.5 152t-164.5 57q-127 0 -220.5 -85.5t-93.5 -201.5q0 -94 65 -149.5t169 -53.5z" />
    <glyph glyph-name="nine.osf" horiz-adv-x="1075" 
d="M719 1104q194 0 313 -109.5t119 -287.5q0 -228 -205 -439l-530 -540h-244l430 442h-24q-180 0 -299 111t-119 292q0 149 74.5 271t202.5 191t282 69zM612 338q137 0 233.5 102t96.5 240q0 107 -69.5 176.5t-178.5 69.5q-133 0 -230 -99.5t-97 -236.5q0 -113 67.5 -182.5
t177.5 -69.5z" />
    <glyph glyph-name="uni030C.alt" 
d="M-133 969l125 475h160l-146 -475h-139z" />
    <glyph glyph-name="caron.alt" horiz-adv-x="354" 
d="M295 969l125 475h160l-146 -475h-139z" />
    <glyph glyph-name="uni0308.case" 
d="M-326 1577q-58 0 -94.5 35.5t-36.5 95.5q0 69 49.5 116.5t118.5 47.5q60 0 95.5 -36t35.5 -95q0 -67 -50 -115.5t-118 -48.5zM104 1577q-58 0 -94.5 35.5t-36.5 95.5q0 69 49.5 116.5t120.5 47.5q59 0 94 -36t35 -95q0 -67 -50 -115.5t-118 -48.5z" />
    <glyph glyph-name="uni0307.case" 
d="M109 1577q-57 0 -96.5 37t-39.5 96q0 66 49.5 113t118.5 47q58 0 95.5 -37t37.5 -94q0 -67 -49 -114.5t-116 -47.5z" />
    <glyph glyph-name="gravecomb.case" 
d="M215 1556l-551 187l57 162l547 -207z" />
    <glyph glyph-name="acutecomb.case" 
d="M-279 1561l-45 141l562 199l49 -162z" />
    <glyph glyph-name="uni030B.case" 
d="M-436 1518l-111 92l307 360l125 -104zM-23 1518l-110 92l307 360l127 -104z" />
    <glyph glyph-name="uni0302.case" 
d="M244 1569h-176l-129 178l-203 -178h-203l336 311h168z" />
    <glyph glyph-name="uni030C.case" 
d="M102 1880h201l-334 -311h-170l-205 311h177l129 -178z" />
    <glyph glyph-name="uni0306.case" 
d="M-57 1569q-101 0 -170.5 45t-96 115.5t-10.5 150.5h170q-13 -65 19 -110.5t102 -45.5q67 0 113.5 42.5t60.5 113.5h170q-26 -135 -120.5 -223t-237.5 -88z" />
    <glyph glyph-name="uni030A.case" 
d="M18 1456q-91 0 -146.5 55.5t-55.5 141.5q0 101 76 173t182 72q91 0 146.5 -55t55.5 -141q0 -101 -76 -173.5t-182 -72.5zM31 1577q47 0 81.5 32.5t34.5 80.5q0 39 -24.5 63.5t-63.5 24.5q-48 0 -82 -33t-34 -80q0 -39 23.5 -63.5t64.5 -24.5z" />
    <glyph glyph-name="tildecomb.case" 
d="M39 1585q-45 0 -84.5 16t-63 35.5t-56 35.5t-66.5 16q-78 0 -115 -97l-133 62q32 91 95 149t153 58q44 0 82.5 -16t62 -35.5t56.5 -35.5t67 -16q82 0 117 94l133 -61q-32 -91 -95 -148t-153 -57z" />
    <glyph glyph-name="uni0304.case" 
d="M-389 1640l33 170h645l-33 -170h-645z" />
    <glyph glyph-name="uni0326.case" 
d="M-221 -100q47 0 77.5 -28.5t30.5 -74.5q0 -39 -24 -81t-76 -107l-106 -139l-82 51l94 129l12 18q-28 9 -45.5 35.5t-17.5 63.5q0 54 40 93.5t97 39.5z" />
    <glyph glyph-name="uni0337.case" 
d="M-571 387l-41 133l651 238l43 -133z" />
    <glyph glyph-name="uni0338.case" 
d="M-1348 2l-100 117l1522 1382l98 -117z" />
    <glyph glyph-name="dieresis.case" horiz-adv-x="784" 
d="M522 1577q-58 0 -94.5 35.5t-36.5 95.5q0 69 49.5 116.5t118.5 47.5q60 0 95.5 -36t35.5 -95q0 -67 -50 -115.5t-118 -48.5zM952 1577q-58 0 -94.5 35.5t-36.5 95.5q0 69 49.5 116.5t120.5 47.5q59 0 94 -36t35 -95q0 -67 -50 -115.5t-118 -48.5z" />
    <glyph glyph-name="dotaccent.case" horiz-adv-x="305" 
d="M524 1577q-57 0 -96 37t-39 96q0 66 49.5 113t118.5 47q58 0 95.5 -37t37.5 -94q0 -67 -49.5 -114.5t-116.5 -47.5z" />
    <glyph glyph-name="grave.case" horiz-adv-x="618" 
d="M911 1556l-551 187l58 162l547 -207z" />
    <glyph glyph-name="acute.case" horiz-adv-x="618" 
d="M418 1561l-45 141l561 199l49 -162z" />
    <glyph glyph-name="hungarumlaut.case" horiz-adv-x="1028" 
d="M481 1518l-110 92l307 360l125 -104zM895 1518l-111 92l308 360l127 -104z" />
    <glyph glyph-name="circumflex.case" horiz-adv-x="813" 
d="M1073 1569h-176l-129 178l-203 -178h-203l336 311h168z" />
    <glyph glyph-name="caron.case" horiz-adv-x="813" 
d="M932 1880h201l-334 -311h-170l-205 311h176l129 -178z" />
    <glyph glyph-name="breve.case" horiz-adv-x="735" 
d="M700 1569q-150 0 -225 93t-51 218h170q-13 -65 19 -110.5t102 -45.5q67 0 113.5 42.5t60.5 113.5h170q-26 -134 -121 -222.5t-238 -88.5z" />
    <glyph glyph-name="ring.case" horiz-adv-x="497" 
d="M575 1456q-91 0 -146.5 55.5t-55.5 141.5q0 101 76 173t182 72q91 0 147 -55t56 -141q0 -101 -76.5 -173.5t-182.5 -72.5zM588 1577q47 0 82 32.5t35 80.5q0 38 -24.5 63t-64.5 25q-48 0 -82 -33t-34 -80q0 -39 23.5 -63.5t64.5 -24.5z" />
    <glyph glyph-name="tilde.case" horiz-adv-x="876" 
d="M897 1585q-45 0 -84.5 16t-63 35.5t-56 35.5t-66.5 16q-78 0 -115 -97l-133 62q32 91 95 149t153 58q44 0 82.5 -16t62 -35.5t56.5 -35.5t67 -16q82 0 117 94l133 -61q-32 -91 -95 -148t-153 -57z" />
    <glyph glyph-name="macron.case" horiz-adv-x="778" 
d="M377 1640l33 170h645l-33 -170h-645z" />
    <glyph glyph-name="IJacute" horiz-adv-x="1220" 
d="M344 1561l-45 141l561 199l49 -162zM1059 1561l-47 141l563 199l47 -162zM150 0l276 1423h209l-277 -1423h-208zM565 0l37 184h86q93 0 156.5 57t83.5 156l198 1026h207l-205 -1056q-35 -181 -148 -274t-292 -93h-123z" />
    <glyph glyph-name="ijacute" horiz-adv-x="1056" 
d="M293 1217l-72 122l488 283l79 -143zM885 1217l-74 122l489 283l80 -143zM129 0l209 1079h207l-209 -1079h-207zM406 -375l34 180h33q86 0 150 59t84 159l204 1056h207l-205 -1052q-38 -193 -161.5 -297.5t-298.5 -104.5h-47z" />
    </font>
</defs>
</svg>
