<?xml version="1.0" standalone="no"?>
<!DOCTYPE svg PUBLIC "-//W3C//DTD SVG 1.1//EN" "http://www.w3.org/Graphics/SVG/1.1/DTD/svg11.dtd" >
<svg xmlns="http://www.w3.org/2000/svg" xmlns:xlink="http://www.w3.org/1999/xlink" version="1.1">
<metadata>
Created by FontForge 20201107 at Thu Oct 31 06:45:07 2024
 By 
Copyright (c) 2019 by Daniel Hernandez &#38; Rodrigo Fuenzalida. All rights reserved.
</metadata>
<defs>
<font id="Biennale-Black" horiz-adv-x="0" >
  <font-face 
    font-family="Biennale Black"
    font-weight="900"
    font-stretch="normal"
    units-per-em="2048"
    panose-1="0 0 10 0 0 0 0 0 0 0"
    ascent="1638"
    descent="-410"
    x-height="1079"
    cap-height="1423"
    bbox="-1583 -627 4520 2054"
    underline-thickness="102"
    underline-position="-204"
    unicode-range="U+0020-FB02"
  />
<missing-glyph horiz-adv-x="1290" 
d="M205 1495h880v-1495h-880v1495zM338 1423l307 -587l307 587h-614zM600 748l-313 598v-1196zM692 748l312 -598v1196zM645 659l-307 -587h614z" />
    <glyph glyph-name="fi" unicode="fi" horiz-adv-x="1200" 
d="M690 1255q-74 0 -114.5 -40.5t-40.5 -112.5v-23h567v-1079h-342v788h-225v-788h-340v788h-158v291h158q3 208 126.5 325.5t354.5 117.5h426v-267h-412z" />
    <glyph glyph-name="fl" unicode="fl" horiz-adv-x="1253" 
d="M1155 1497v-1497h-342v1231h-123q-74 0 -114.5 -41.5t-40.5 -112.5v-14h155v-275h-155v-788h-340v788h-158v291h160q11 196 133.5 307t345.5 111h479z" />
    <glyph glyph-name=".notdef" horiz-adv-x="1290" 
d="M205 1495h880v-1495h-880v1495zM338 1423l307 -587l307 587h-614zM600 748l-313 598v-1196zM692 748l312 -598v1196zM645 659l-307 -587h614z" />
    <glyph glyph-name=".null" 
 />
    <glyph glyph-name="nonmarkingreturn" horiz-adv-x="682" 
 />
    <glyph glyph-name="space" unicode=" " horiz-adv-x="382" 
 />
    <glyph glyph-name="exclam" unicode="!" horiz-adv-x="573" 
d="M150 516l-58 981h389l-61 -981h-270zM287 -20q-78 0 -131.5 53t-53.5 131q0 81 53 134.5t132 53.5q80 0 133 -53.5t53 -134.5q0 -78 -53.5 -131t-132.5 -53z" />
    <glyph glyph-name="quotedbl" unicode="&#x22;" horiz-adv-x="839" 
d="M104 895l-24 569h297l-29 -569h-244zM494 895l-23 569h291l-25 -569h-243z" />
    <glyph glyph-name="numbersign" unicode="#" horiz-adv-x="1441" 
d="M1391 864h-234l-74 -266h166v-258h-235l-92 -340h-283l92 340h-225l-92 -340h-277l92 340h-174v258h246l72 266h-174v258h245l82 301h275l-82 -301h227l82 301h281l-82 -301h164v-258zM803 598l71 266h-225l-74 -266h228z" />
    <glyph glyph-name="dollar" unicode="$" horiz-adv-x="1085" 
d="M1022 395q0 -137 -87 -236t-241 -134v-193h-274v186q-137 27 -235.5 112t-137.5 218l293 115q23 -90 82 -138.5t143 -48.5q70 0 106 30t36 85q0 46 -33.5 79t-86.5 54t-117.5 41t-129.5 49.5t-118 70t-86.5 111t-33.5 165.5q0 144 83 244t235 132v191h274v-195
q119 -29 201.5 -105t108.5 -181l-293 -113q-20 75 -64.5 113t-107.5 38q-61 0 -94 -28t-33 -74q0 -35 21 -62t56 -45t81 -34t96.5 -33.5t101 -38.5t96.5 -53.5t81 -74t56 -105t21 -142.5z" />
    <glyph glyph-name="percent" unicode="%" horiz-adv-x="1603" 
d="M379 774q-144 0 -239 96.5t-95 237.5q0 140 95.5 237t238.5 97t237.5 -97t94.5 -237q0 -141 -94.5 -237.5t-237.5 -96.5zM270 0l805 1423l264 2l-811 -1423zM379 985q51 0 83 35t32 88q0 52 -32.5 87.5t-82.5 35.5q-52 0 -84.5 -35.5t-32.5 -87.5q0 -53 33 -88t84 -35z
M1225 -18q-142 0 -238 97t-96 236t96.5 236.5t237.5 97.5q143 0 238.5 -97t95.5 -237q0 -139 -95.5 -236t-238.5 -97zM1225 193q51 0 82.5 34.5t31.5 87.5t-31 88t-83 35q-51 0 -83 -35t-32 -88t33 -87.5t82 -34.5z" />
    <glyph glyph-name="ampersand" unicode="&#x26;" horiz-adv-x="1449" 
d="M1448 0h-367l-112 109q-164 -129 -391 -129q-219 0 -363.5 115.5t-144.5 295.5q0 252 243 387q-80 123 -80 256q0 182 131 295t347 113q212 0 347 -122.5t148 -332.5h-352q-5 55 -42.5 93t-104.5 38q-56 0 -91.5 -33.5t-35.5 -80.5q0 -15 3 -27.5t7 -24.5t16 -28.5
t22.5 -30t33.5 -39.5t42.5 -47t57.5 -61.5t69 -75.5l125 -135q66 118 74 280l318 -127q-12 -122 -53 -217.5t-115 -179.5zM582 283q81 0 155 49l-243 237q-76 -61 -76 -139q0 -64 48.5 -105.5t115.5 -41.5z" />
    <glyph glyph-name="quotesingle" unicode="'" horiz-adv-x="452" 
d="M104 895l-24 569h297l-29 -569h-244z" />
    <glyph glyph-name="parenleft" unicode="(" horiz-adv-x="724" 
d="M500 -266q-214 172 -326.5 416.5t-112.5 549.5t112.5 550t326.5 417l225 -219q-178 -161 -259 -340.5t-81 -407.5t81 -408.5t259 -340.5z" />
    <glyph glyph-name="parenright" unicode=")" horiz-adv-x="724" 
d="M225 -266l-225 217q177 161 258.5 341t81.5 408q0 227 -81.5 407t-258.5 341l225 219q213 -172 326 -417.5t113 -549.5t-113 -549t-326 -417z" />
    <glyph glyph-name="asterisk" unicode="*" horiz-adv-x="862" 
d="M315 754l19 190l-154 -117l-119 215l181 82l-181 82l119 211l152 -114l-19 194h236l-19 -194l152 114l119 -211l-180 -82l180 -82l-119 -215l-154 117l19 -190h-232z" />
    <glyph glyph-name="plus" unicode="+" horiz-adv-x="1017" 
d="M961 823v-286h-302v-332h-301v332h-303v286h303v344h301v-344h302z" />
    <glyph glyph-name="comma" unicode="," horiz-adv-x="487" 
d="M242 354q78 0 132 -53.5t54 -136.5q0 -75 -55 -182l-123 -246h-187l132 262q-62 12 -100 57t-38 115q0 78 54.5 131t130.5 53z" />
    <glyph glyph-name="hyphen" unicode="-" horiz-adv-x="800" 
d="M100 362v277h600v-277h-600z" />
    <glyph glyph-name="period" unicode="." horiz-adv-x="489" 
d="M244 -20q-78 0 -131.5 53t-53.5 131q0 81 53 134.5t132 53.5q80 0 133 -53.5t53 -134.5q0 -78 -53.5 -131t-132.5 -53z" />
    <glyph glyph-name="slash" unicode="/" horiz-adv-x="788" 
d="M49 -102l391 1558h295l-389 -1558h-297z" />
    <glyph glyph-name="zero" unicode="0" horiz-adv-x="1449" 
d="M725 -27q-296 0 -471.5 199.5t-175.5 542.5q0 348 174.5 541.5t472.5 193.5t472.5 -193.5t174.5 -541.5q0 -342 -176.5 -542t-470.5 -200zM725 297q137 0 218 108t81 308q0 197 -81.5 305t-217.5 108t-217.5 -108t-81.5 -305q0 -200 81 -308t218 -108z" />
    <glyph glyph-name="one" unicode="1" horiz-adv-x="880" 
d="M655 283h164v-283h-733v283h229v653h-223v283h223v204h340v-1140z" />
    <glyph glyph-name="two" unicode="2" horiz-adv-x="1214" 
d="M567 283h568v-283h-1069v225l489 455q207 183 207 328q0 69 -45.5 110t-122.5 41q-78 0 -132 -48t-77 -140l-322 104q38 169 184.5 272t348.5 103q235 0 374.5 -115t139.5 -309q0 -137 -69 -254t-220 -252z" />
    <glyph glyph-name="three" unicode="3" horiz-adv-x="1218" 
d="M743 856q179 -17 292.5 -135.5t113.5 -292.5q0 -196 -156.5 -325.5t-396.5 -129.5q-215 0 -367 90.5t-200 243.5l313 125q25 -79 89 -123.5t155 -44.5q93 0 150 52.5t57 136.5q0 83 -56.5 133.5t-144.5 50.5h-252v221l338 299h-572v266h957v-266z" />
    <glyph glyph-name="four" unicode="4" horiz-adv-x="1263" 
d="M1196 553v-266h-147v-287h-340v287h-672v250l676 884h336v-868h147zM713 553v432l-328 -432h328z" />
    <glyph glyph-name="five" unicode="5" horiz-adv-x="1189" 
d="M571 922q252 0 401.5 -127.5t149.5 -343.5t-149.5 -347t-409.5 -131q-203 0 -341 86t-199 256l313 123q21 -85 83 -130.5t146 -45.5q95 0 152 54t57 139q0 88 -57.5 145t-157.5 57h-397l43 766h817v-266h-528l-15 -235h92z" />
    <glyph glyph-name="six" unicode="6" horiz-adv-x="1226" 
d="M672 958q226 -12 366 -140t140 -339q0 -151 -73.5 -267t-199.5 -177.5t-282 -61.5q-157 0 -284 61.5t-201.5 177t-74.5 263.5q0 79 23.5 154.5t49.5 119.5t63 95l428 579h395zM623 264q88 0 147 60t59 151q0 93 -58.5 152t-147.5 59q-90 0 -150.5 -59.5t-60.5 -151.5
q0 -90 60.5 -150.5t150.5 -60.5z" />
    <glyph glyph-name="seven" unicode="7" horiz-adv-x="1067" 
d="M33 1421h991v-256l-457 -1165h-381l459 1137h-612v284z" />
    <glyph glyph-name="eight" unicode="8" horiz-adv-x="1228" 
d="M889 748q122 -45 195 -140.5t73 -218.5q0 -187 -152 -301.5t-389 -114.5q-239 0 -390.5 114.5t-151.5 301.5q0 124 69 220.5t189 140.5q-92 42 -146.5 122.5t-54.5 194.5q0 168 127.5 275.5t357.5 107.5q228 0 356 -108t128 -275q0 -116 -56.5 -196.5t-154.5 -122.5z
M616 1174q-72 0 -116.5 -41.5t-44.5 -110.5t44.5 -112.5t116.5 -43.5q71 0 115.5 43.5t44.5 112.5t-44.5 110.5t-115.5 41.5zM616 248q92 0 146.5 51t54.5 133q0 79 -55.5 130.5t-145.5 51.5q-91 0 -146.5 -51.5t-55.5 -130.5q0 -83 54.5 -133.5t147.5 -50.5z" />
    <glyph glyph-name="nine" unicode="9" horiz-adv-x="1224" 
d="M604 1450q157 0 284 -61.5t201 -177t74 -263.5q0 -113 -38 -200.5t-97 -167.5l-428 -580h-395l350 465q-226 12 -366 140t-140 339q0 151 73.5 267t199.5 177.5t282 61.5zM604 737q90 0 150.5 59.5t60.5 151.5q0 90 -60.5 150.5t-150.5 60.5q-88 0 -147.5 -60.5
t-59.5 -150.5q0 -93 59 -152t148 -59z" />
    <glyph glyph-name="colon" unicode=":" horiz-adv-x="538" 
d="M268 590q-78 0 -131 53t-53 131q0 81 53 135t131 54q80 0 133.5 -54t53.5 -135q0 -78 -54 -131t-133 -53zM268 -20q-78 0 -131 53t-53 131q0 81 53 134.5t131 53.5q80 0 133.5 -53.5t53.5 -134.5q0 -78 -54 -131t-133 -53z" />
    <glyph glyph-name="semicolon" unicode=";" horiz-adv-x="540" 
d="M270 590q-79 0 -132.5 53t-53.5 131q0 82 53 135.5t133 53.5t133.5 -54t53.5 -135q0 -78 -54 -131t-133 -53zM270 354q78 0 131.5 -53.5t53.5 -136.5q0 -77 -54 -182l-122 -246h-187l131 262q-62 12 -99.5 56.5t-37.5 115.5q0 79 53.5 131.5t130.5 52.5z" />
    <glyph glyph-name="less" unicode="&#x3c;" horiz-adv-x="903" 
d="M803 1147v-305l-400 -187l400 -188v-305l-756 395v199z" />
    <glyph glyph-name="equal" unicode="=" horiz-adv-x="1083" 
d="M109 737v287h866v-287h-866zM109 264v287h866v-287h-866z" />
    <glyph glyph-name="greater" unicode="&#x3e;" horiz-adv-x="903" 
d="M100 1147l756 -391v-199l-756 -395v305l400 188l-400 187v305z" />
    <glyph glyph-name="question" unicode="?" horiz-adv-x="1013" 
d="M303 516v74q0 57 16.5 107.5t42.5 87t57.5 68.5t63.5 60t58 54.5t42.5 58t16.5 64.5q0 49 -28 74.5t-80 25.5q-51 0 -87 -33t-45 -88l-321 105q36 158 161.5 251t313.5 93q203 0 321.5 -104t118.5 -286q0 -67 -19.5 -124.5t-51.5 -97.5t-70 -75t-76 -65t-70 -59
t-51.5 -65.5t-19.5 -76.5v-49h-293zM451 -20q-78 0 -131.5 53t-53.5 131q0 81 53 134.5t132 53.5t132.5 -54t53.5 -132q0 -80 -53.5 -133t-132.5 -53z" />
    <glyph glyph-name="at" unicode="@" horiz-adv-x="1650" 
d="M829 1200q227 0 400 -91t264.5 -248.5t91.5 -356.5q0 -159 -95 -273t-230 -114q-83 0 -144 33.5t-94 93.5q-77 -131 -254 -131q-141 0 -235.5 103t-94.5 249q0 153 90 254.5t240 101.5q143 0 227 -104v74h195v-373q0 -39 17 -62.5t48 -23.5q47 0 73 44.5t26 127.5
q0 104 -34 191.5t-99 153.5t-165.5 103t-226.5 37q-122 0 -224.5 -42t-170 -113t-104.5 -164t-37 -195q0 -223 133.5 -361.5t372.5 -138.5q93 0 169.5 25t116.5 68l136 -168q-73 -63 -181.5 -100.5t-240.5 -37.5q-168 0 -307.5 54t-234 148.5t-146.5 226t-52 284.5
q0 148 55.5 280.5t154.5 231t244.5 156t315.5 57.5zM813 340q56 0 90.5 36t34.5 91t-34.5 91t-90.5 36q-57 0 -91 -36.5t-34 -90.5q0 -53 34 -90t91 -37z" />
    <glyph glyph-name="A" unicode="A" horiz-adv-x="1355" 
d="M1018 0l-88 274h-504l-88 -274h-338l469 1423h418l467 -1423h-336zM514 553h326l-162 508z" />
    <glyph glyph-name="B" unicode="B" horiz-adv-x="1296" 
d="M999 760q113 -51 174.5 -143t61.5 -211q0 -184 -124 -295t-347 -111h-643v1423h670q181 0 288 -93.5t107 -252.5q0 -100 -49.5 -182.5t-137.5 -134.5zM844 1008q0 66 -41 103.5t-119 37.5h-225v-285h223q73 0 117.5 39.5t44.5 104.5zM713 274q86 0 133 41.5t47 118.5
q0 75 -49 116.5t-133 41.5h-252v-318h254z" />
    <glyph glyph-name="C" unicode="C" horiz-adv-x="1503" 
d="M801 -27q-207 0 -375.5 94.5t-265.5 264t-97 379.5q0 211 97 380.5t266.5 264t378.5 94.5q109 0 206.5 -26t172 -71t135 -105t100 -127.5t60.5 -139.5l-328 -133q-34 131 -122.5 204.5t-231.5 73.5q-171 0 -278 -114t-107 -301q0 -186 106.5 -300t276.5 -114
q144 0 233 73.5t123 204.5l328 -133q-28 -94 -85.5 -176.5t-141 -149t-200.5 -105t-251 -38.5z" />
    <glyph glyph-name="D" unicode="D" horiz-adv-x="1484" 
d="M686 1423q328 0 530.5 -193t202.5 -517q0 -215 -92.5 -377.5t-258.5 -249t-382 -86.5h-565v1423h565zM676 303q182 0 289.5 106.5t107.5 299.5q0 197 -107.5 304t-289.5 107h-213v-817h213z" />
    <glyph glyph-name="E" unicode="E" horiz-adv-x="1177" 
d="M463 297h643v-297h-985v1423h975v-297h-633v-256h555v-297h-555v-276z" />
    <glyph glyph-name="F" unicode="F" horiz-adv-x="1132" 
d="M1085 1126h-622v-272h545v-297h-545v-557h-342v1423h964v-297z" />
    <glyph glyph-name="G" unicode="G" horiz-adv-x="1589" 
d="M1536 772q0 -190 -56 -342.5t-154 -252t-230 -152t-287 -52.5q-159 0 -297.5 56t-237 153.5t-155 234.5t-56.5 294q0 211 97 380t267.5 264t381.5 95q128 0 241.5 -35.5t196.5 -97t142.5 -137.5t91.5 -162l-328 -133q-38 113 -128.5 177t-221.5 64q-179 0 -285 -115.5
t-106 -305.5q0 -194 113 -309t315 -115q275 0 356 233h-395v258h735z" />
    <glyph glyph-name="H" unicode="H" horiz-adv-x="1417" 
d="M954 1423h342v-1423h-342v569h-491v-569h-342v1423h342v-549h491v549z" />
    <glyph glyph-name="I" unicode="I" horiz-adv-x="583" 
d="M121 0v1423h342v-1423h-342z" />
    <glyph glyph-name="J" unicode="J" horiz-adv-x="720" 
d="M45 0v305h78q72 0 108.5 40t36.5 112v966h344v-970q0 -210 -118 -331.5t-342 -121.5h-107z" />
    <glyph glyph-name="K" unicode="K" horiz-adv-x="1341" 
d="M1354 0h-389l-502 649v-649h-342v1423h342v-620l491 620h392l-547 -694z" />
    <glyph glyph-name="L" unicode="L" horiz-adv-x="1120" 
d="M463 305h633v-305h-975v1423h342v-1118z" />
    <glyph glyph-name="M" unicode="M" horiz-adv-x="1767" 
d="M1690 0h-320l-70 918l-274 -873h-285l-274 877l-70 -922h-317l104 1423h400l299 -950l301 950h397z" />
    <glyph glyph-name="N" unicode="N" horiz-adv-x="1419" 
d="M956 1423h342v-1423h-282l-553 831v-831h-342v1423h285l550 -837v837z" />
    <glyph glyph-name="O" unicode="O" horiz-adv-x="1624" 
d="M813 -27q-208 0 -380.5 97t-272 266.5t-99.5 374.5q0 207 99.5 376.5t272 266t380.5 96.5q207 0 378.5 -96.5t270.5 -266t99 -376.5q0 -153 -58 -290t-158 -235.5t-238.5 -155.5t-293.5 -57zM813 297q180 0 289.5 116t109.5 300q0 183 -108.5 298t-290.5 115
q-184 0 -293.5 -115t-109.5 -298q0 -184 111 -300t292 -116z" />
    <glyph glyph-name="P" unicode="P" horiz-adv-x="1261" 
d="M719 1423q233 0 369.5 -124t136.5 -334q0 -207 -138 -332t-368 -125h-256v-508h-342v1423h598zM698 807q87 0 133 43.5t46 114.5q0 72 -45.5 115.5t-133.5 43.5h-235v-317h235z" />
    <glyph glyph-name="Q" unicode="Q" horiz-adv-x="1624" 
d="M1561 711q0 -180 -77 -333t-212 -255l264 -244l-236 -246l-370 349q-58 -9 -117 -9q-208 0 -380.5 97t-272 266.5t-99.5 374.5q0 207 99.5 376.5t272 266t380.5 96.5q207 0 378.5 -96.5t270.5 -266t99 -376.5zM410 713q0 -184 111 -300t292 -116q180 0 289.5 116
t109.5 300q0 183 -108.5 298t-290.5 115q-184 0 -293.5 -115t-109.5 -298z" />
    <glyph glyph-name="R" unicode="R" horiz-adv-x="1296" 
d="M874 0l-376 567h-37v-567h-340v1423h598q230 0 368 -119.5t138 -308.5q0 -156 -100 -268.5t-271 -146.5l401 -580h-381zM461 1124v-315h248q86 0 134 42t48 116q0 73 -48 115t-134 42h-248z" />
    <glyph glyph-name="S" unicode="S" horiz-adv-x="1222" 
d="M600 -27q-209 0 -357 98t-202 277l324 125q26 -99 96.5 -152t171.5 -53q87 0 132.5 33t45.5 92q0 41 -24.5 72t-65.5 51.5t-94 38.5t-112 36.5t-117.5 40.5t-111.5 55t-94 76.5t-65.5 109t-24.5 147.5q0 194 137 312t382 118q199 0 337 -92t177 -242l-322 -125
q-45 168 -209 168q-77 0 -118.5 -30.5t-41.5 -81.5q0 -49 39.5 -84t102 -57.5t138.5 -45t152.5 -56.5t139 -81t102 -129.5t39.5 -192.5q0 -192 -150 -310t-407 -118z" />
    <glyph glyph-name="T" unicode="T" horiz-adv-x="1218" 
d="M1194 1423v-305h-414v-1118h-342v1118h-413v305h1169z" />
    <glyph glyph-name="U" unicode="U" horiz-adv-x="1384" 
d="M936 1423h342v-864q0 -121 -37 -226t-107.5 -186t-184 -127.5t-255.5 -46.5q-143 0 -257 46.5t-185 127.5t-108.5 186t-37.5 226v864h345v-862q0 -122 61.5 -193t181.5 -71q118 0 180 71t62 193v862z" />
    <glyph glyph-name="V" unicode="V" horiz-adv-x="1374" 
d="M1020 1423h356l-477 -1423h-422l-481 1423h356l334 -1017z" />
    <glyph glyph-name="W" unicode="W" horiz-adv-x="1898" 
d="M1552 1423h338l-321 -1423h-406l-213 944l-217 -944h-401l-324 1423h338l193 -1017l225 1017h371l225 -1022z" />
    <glyph glyph-name="X" unicode="X" horiz-adv-x="1392" 
d="M1405 0h-391l-328 471l-311 -471h-391l514 741l-478 684h394l299 -430l278 430h393l-479 -704z" />
    <glyph glyph-name="Y" unicode="Y" horiz-adv-x="1351" 
d="M1364 1423l-516 -841v-582h-342v578l-516 845h383l305 -542l303 542h383z" />
    <glyph glyph-name="Z" unicode="Z" horiz-adv-x="1212" 
d="M1147 307l8 -307h-1096v233l639 891h-624v299h1071v-231l-649 -885h651z" />
    <glyph glyph-name="bracketleft" unicode="[" horiz-adv-x="686" 
d="M629 1384h-191v-1368h191v-280h-510v1929h510v-281z" />
    <glyph glyph-name="backslash" unicode="\" horiz-adv-x="792" 
d="M451 -102l-402 1558h295l404 -1558h-297z" />
    <glyph glyph-name="bracketright" unicode="]" horiz-adv-x="686" 
d="M57 1665h510v-1929h-510v280h191v1368h-191v281z" />
    <glyph glyph-name="asciicircum" unicode="^" horiz-adv-x="1134" 
d="M1083 719h-331l-185 321l-184 -321h-332l410 682h203z" />
    <glyph glyph-name="underscore" unicode="_" horiz-adv-x="1189" 
d="M53 -317v276h1084v-276h-1084z" />
    <glyph glyph-name="grave" unicode="`" horiz-adv-x="704" 
d="M584 1159l-523 299l154 248l506 -330z" />
    <glyph glyph-name="a" unicode="a" horiz-adv-x="1314" 
d="M903 1079h316v-1079h-316v98q-119 -125 -311 -125q-154 0 -277.5 73.5t-192.5 203t-69 289.5q0 242 151.5 393t387.5 151q195 0 311 -116v112zM641 274q112 0 181 73.5t69 191.5q0 119 -69 192.5t-181 73.5q-107 0 -177.5 -75.5t-70.5 -190.5q0 -116 69.5 -190.5
t178.5 -74.5z" />
    <glyph glyph-name="b" unicode="b" horiz-adv-x="1314" 
d="M733 1104q232 0 380.5 -160.5t148.5 -404.5q0 -160 -68.5 -289.5t-191.5 -203t-277 -73.5q-189 0 -311 119v-92h-316v1497h342v-493q118 100 293 100zM676 274q107 0 177.5 75t70.5 190t-70.5 190.5t-177.5 75.5q-114 0 -183 -73.5t-69 -192.5q0 -117 70 -191t182 -74z
" />
    <glyph glyph-name="c" unicode="c" horiz-adv-x="1179" 
d="M627 -27q-161 0 -293.5 74t-207.5 203.5t-75 286.5t74 286.5t206 205t294 75.5q88 0 167.5 -22.5t138 -58.5t105.5 -83.5t75.5 -96.5t41.5 -98l-303 -120q-21 80 -77.5 128t-139.5 48q-102 0 -170 -71.5t-68 -190.5t68 -191t170 -72q85 0 143.5 48t79.5 125l303 -121
q-17 -60 -59 -120t-107 -114t-160.5 -87.5t-205.5 -33.5z" />
    <glyph glyph-name="d" unicode="d" horiz-adv-x="1314" 
d="M877 1497h342v-1497h-316v92q-122 -119 -311 -119q-154 0 -277.5 73.5t-192.5 203t-69 289.5q0 245 149 405t382 160q175 0 293 -100v493zM641 274q112 0 181 73.5t69 191.5q0 119 -69 192.5t-181 73.5q-107 0 -177.5 -75.5t-70.5 -190.5q0 -116 69.5 -190.5t178.5 -74.5
z" />
    <glyph glyph-name="e" unicode="e" horiz-adv-x="1218" 
d="M381 438q26 -90 94 -138t166 -48q87 0 138 28t85 85l256 -170q-36 -47 -76.5 -83t-98.5 -69.5t-138 -51.5t-176 -18q-174 0 -307.5 74.5t-204 202.5t-70.5 289q0 153 75 283.5t204 207t282 76.5q127 0 235 -47.5t178 -125.5t109 -174.5t39 -197.5q0 -65 -8 -123h-782z
M377 651h477q-22 94 -83 146.5t-153 52.5q-95 0 -157 -51t-84 -148z" />
    <glyph glyph-name="f" unicode="f" horiz-adv-x="780" 
d="M690 1255q-74 0 -114.5 -40.5t-40.5 -112.5v-23h217v-291h-217v-788h-340v788h-158v291h158q3 208 126.5 325.5t354.5 117.5h78v-267h-64z" />
    <glyph glyph-name="g" unicode="g" horiz-adv-x="1312" 
d="M901 1079h316v-909q0 -254 -160.5 -408.5t-442.5 -154.5q-221 0 -355.5 83.5t-192.5 229.5l288 113q31 -71 99.5 -106.5t162.5 -35.5q133 0 209 67t76 179v31q-120 -123 -311 -123q-115 0 -215.5 41.5t-170.5 112t-110.5 167.5t-40.5 205q0 144 68.5 266t192.5 194.5
t276 72.5q191 0 311 -123v98zM635 305q108 0 177 71.5t69 178.5t-69 178.5t-177 71.5q-104 0 -174 -72.5t-70 -177.5t70 -177.5t174 -72.5z" />
    <glyph glyph-name="h" unicode="h" horiz-adv-x="1239" 
d="M731 1106q189 0 304.5 -116.5t115.5 -303.5v-686h-342v618q0 85 -51.5 135t-130.5 50q-77 0 -132 -49.5t-55 -122.5v-631h-342v1497h342v-487q120 96 291 96z" />
    <glyph glyph-name="i" unicode="i" horiz-adv-x="538" 
d="M270 1225q-92 0 -153.5 59t-61.5 150q0 92 61.5 151.5t153.5 59.5t153.5 -59.5t61.5 -151.5q0 -91 -61.5 -150t-153.5 -59zM98 0v1079h342v-1079h-342z" />
    <glyph glyph-name="j" unicode="j" horiz-adv-x="544" 
d="M283 1227q-92 0 -153.5 59t-61.5 150q0 90 62 150.5t153 60.5t153 -60.5t62 -150.5q0 -91 -61.5 -150t-153.5 -59zM-74 -379l-2 291h21q72 0 115.5 46.5t43.5 127.5v993h342v-987q0 -219 -128.5 -345t-327.5 -126h-64z" />
    <glyph glyph-name="k" unicode="k" horiz-adv-x="1132" 
d="M1153 0h-369l-344 475v-475h-342v1497h342v-827l330 409h379l-401 -497z" />
    <glyph glyph-name="l" unicode="l" horiz-adv-x="538" 
d="M98 0v1497h342v-1497h-342z" />
    <glyph glyph-name="m" unicode="m" horiz-adv-x="1875" 
d="M1378 1106q99 0 178 -34t129 -93.5t76.5 -137t26.5 -167.5v-672h-342v606q0 83 -41.5 139t-120.5 56q-83 0 -126.5 -52t-43.5 -118v-631h-342v606q0 83 -41.5 139t-120.5 56q-83 0 -126.5 -51.5t-43.5 -118.5v-631h-342v1077h322v-88q115 115 299 115q225 0 315 -141
q106 141 344 141z" />
    <glyph glyph-name="n" unicode="n" horiz-adv-x="1239" 
d="M731 1106q189 0 304.5 -116.5t115.5 -303.5v-686h-342v618q0 85 -51.5 135t-130.5 50q-77 0 -132 -49.5t-55 -122.5v-631h-342v1079h322v-86q123 113 311 113z" />
    <glyph glyph-name="o" unicode="o" horiz-adv-x="1284" 
d="M641 -27q-169 0 -304.5 74t-210.5 203.5t-75 288.5q0 244 166.5 404.5t423.5 160.5q258 0 425 -160.5t167 -404.5q0 -119 -44 -224t-121.5 -180t-188 -118.5t-238.5 -43.5zM643 276q110 0 178 74t68 191q0 116 -67 188t-179 72t-180 -72.5t-68 -189.5q0 -115 68.5 -189
t179.5 -74z" />
    <glyph glyph-name="p" unicode="p" horiz-adv-x="1314" 
d="M733 1104q233 0 381 -160t148 -405q0 -160 -69 -289.5t-192 -203t-276 -73.5q-166 0 -285 95v-435h-342v1446h316v-98q126 123 319 123zM676 274q107 0 177.5 75t70.5 190t-70.5 190.5t-177.5 75.5q-112 0 -182 -73.5t-70 -192.5t69 -192t183 -73z" />
    <glyph glyph-name="q" unicode="q" horiz-adv-x="1314" 
d="M903 1079h316v-1446h-342v435q-119 -95 -285 -95q-154 0 -277.5 73.5t-192.5 203t-69 289.5q0 245 149 405t382 160q193 0 319 -123v98zM641 274q112 0 181 73t69 192t-69 192.5t-181 73.5q-109 0 -178.5 -75t-69.5 -191q0 -115 70.5 -190t177.5 -75z" />
    <glyph glyph-name="r" unicode="r" horiz-adv-x="749" 
d="M420 987q122 119 299 119v-320q-279 0 -279 -208v-578h-342v1079h322v-92z" />
    <glyph glyph-name="s" unicode="s" horiz-adv-x="1024" 
d="M512 -27q-184 0 -309 74.5t-172 214.5l282 109q46 -142 211 -142q58 0 88.5 21.5t30.5 58.5q0 34 -31 59t-80.5 42t-109.5 34t-120.5 41.5t-110 58.5t-80.5 91.5t-31 132.5q0 156 119.5 246t324.5 90q167 0 279.5 -63.5t144.5 -176.5l-282 -110q-37 102 -148 102
q-104 0 -104 -72q0 -31 31 -52.5t80.5 -35.5t109.5 -29t120.5 -39.5t110 -59t80.5 -95t31 -141.5q0 -167 -125.5 -263t-339.5 -96z" />
    <glyph glyph-name="t" unicode="t" horiz-adv-x="845" 
d="M623 0q-204 0 -312 112t-108 304v372h-180v291h86q114 0 114 121v166h332v-287h246v-291h-258v-331q0 -78 39.5 -119t111.5 -41h113v-297h-184z" />
    <glyph glyph-name="u" unicode="u" horiz-adv-x="1222" 
d="M784 1079h340v-1079h-319v90q-124 -117 -301 -117q-200 0 -308 121t-108 312v673h342v-628q0 -77 47.5 -126t128.5 -49t129.5 49t48.5 126v628z" />
    <glyph glyph-name="v" unicode="v" horiz-adv-x="1165" 
d="M813 1079h352l-383 -1079h-399l-383 1079h352l230 -743z" />
    <glyph glyph-name="w" unicode="w" horiz-adv-x="1689" 
d="M1333 1079h348l-274 -1079h-401l-160 686l-154 -686h-405l-277 1079h346l148 -733l151 733h381l154 -733z" />
    <glyph glyph-name="x" unicode="x" horiz-adv-x="1167" 
d="M1184 0h-377l-234 313l-237 -313h-363l418 559l-387 520h377l217 -293l217 293h363l-396 -538z" />
    <glyph glyph-name="y" unicode="y" horiz-adv-x="1169" 
d="M819 1079h350l-383 -1079l-129 -367h-335l141 367h-115l-344 1079h352l213 -811z" />
    <glyph glyph-name="z" unicode="z" horiz-adv-x="1028" 
d="M483 274h492v-274h-920v240l482 565h-461v274h880v-250z" />
    <glyph glyph-name="braceleft" unicode="{" horiz-adv-x="735" 
d="M584 -264q-191 0 -292.5 108t-101.5 301v316q0 94 -98 94h-55v289h55q98 0 98 94v315q0 193 101.5 301.5t292.5 108.5h92v-281h-45q-60 0 -90.5 -34t-30.5 -97v-307q0 -91 -32 -147t-109 -99q77 -41 109 -97t32 -148v-306q0 -63 31.5 -97t89.5 -34h45v-280h-92z" />
    <glyph glyph-name="bar" unicode="|" horiz-adv-x="487" 
d="M119 -197v1674h250v-1674h-250z" />
    <glyph glyph-name="braceright" unicode="}" horiz-adv-x="735" 
d="M59 -264v280h45q58 0 89.5 34t31.5 97v306q0 92 32.5 148t109.5 97q-77 43 -109.5 99.5t-32.5 146.5v307q0 63 -30.5 97t-90.5 34h-45v281h93q191 0 292 -108.5t101 -301.5v-315q0 -94 98 -94h55v-289h-55q-98 0 -98 -94v-316q0 -193 -101 -301t-292 -108h-93z" />
    <glyph glyph-name="asciitilde" unicode="~" horiz-adv-x="1071" 
d="M731 489q-57 0 -107.5 16.5t-81 36t-72 36t-83.5 16.5q-114 0 -162 -78l-162 184q51 83 123 126.5t156 43.5q57 0 107.5 -16.5t81 -36.5t72 -36.5t83.5 -16.5q112 0 164 80l160 -185q-51 -83 -123 -126.5t-156 -43.5z" />
    <glyph glyph-name="uni00A0" unicode="&#xa0;" horiz-adv-x="382" 
 />
    <glyph glyph-name="exclamdown" unicode="&#xa1;" horiz-adv-x="557" 
d="M279 717q-79 0 -132 53.5t-53 134.5q0 78 53.5 131.5t131.5 53.5q79 0 132.5 -53.5t53.5 -131.5q0 -81 -53 -134.5t-133 -53.5zM84 -367l57 920h271l61 -920h-389z" />
    <glyph glyph-name="cent" unicode="&#xa2;" horiz-adv-x="1097" 
d="M1044 496q-25 -90 -114 -178.5t-225 -122.5v-195h-275v195q-163 43 -263.5 174.5t-100.5 304.5q0 175 100 308.5t264 176.5v195h275v-195q135 -34 221.5 -122.5t113.5 -182.5l-292 -117q-16 64 -60.5 102t-114.5 38q-79 0 -131.5 -53.5t-52.5 -147.5q0 -91 52.5 -144
t131.5 -53q70 0 117.5 36.5t61.5 96.5z" />
    <glyph glyph-name="sterling" unicode="&#xa3;" horiz-adv-x="1198" 
d="M551 520v-223h553v-297h-895v520h-143v297h143v109q0 195 132.5 326.5t340.5 131.5q196 0 313.5 -85t153.5 -226l-293 -115q-17 61 -52.5 95t-103.5 34q-76 0 -112.5 -45.5t-36.5 -115.5v-109h354v-297h-354z" />
    <glyph glyph-name="currency" unicode="&#xa4;" horiz-adv-x="1177" 
d="M1059 678q0 -115 -55 -219l98 -101l-195 -192l-106 106q-92 -47 -211 -47t-215 47l-107 -106l-194 194l100 99q-57 102 -57 219t57 219l-100 100l194 195l107 -107q94 48 215 48q114 0 211 -46l106 105l195 -195l-101 -98q58 -103 58 -221zM590 500q75 0 123.5 49.5
t48.5 128.5q0 80 -48 130t-124 50q-79 0 -127.5 -50t-48.5 -130q0 -79 49.5 -128.5t126.5 -49.5z" />
    <glyph glyph-name="yen" unicode="&#xa5;" horiz-adv-x="1277" 
d="M1239 1352l-399 -715h207v-221h-238v-58h238v-217h-238v-141h-340v141h-240v217h240v58h-240v221h209l-399 715h367l233 -478l233 478h367z" />
    <glyph glyph-name="brokenbar" unicode="&#xa6;" horiz-adv-x="487" 
d="M119 805v672h250v-672h-250zM119 -197v674h250v-674h-250z" />
    <glyph glyph-name="section" unicode="&#xa7;" horiz-adv-x="1091" 
d="M887 315q106 -86 106 -229q0 -178 -122.5 -276.5t-331.5 -98.5q-386 0 -476 273l277 106q22 -69 72 -106t123 -37q61 0 98 28t37 78q0 41 -32.5 71t-85 50.5t-115.5 41t-126 48.5t-115.5 65t-85 99.5t-32.5 144.5q0 179 153 273q-112 84 -112 237q0 166 117.5 258.5
t320.5 92.5q166 0 276 -63t144 -177l-277 -107q-38 105 -143 105q-55 0 -85 -25t-30 -67q0 -36 25 -63t66 -43t93.5 -34t107.5 -34t107.5 -44t93.5 -63t66 -93t25 -132q0 -179 -139 -279zM399 602q0 -30 14.5 -54t46 -42.5t61 -30.5t79.5 -29q46 11 74 42t28 77
q0 54 -44.5 86t-133.5 64q-64 -6 -94.5 -37t-30.5 -76z" />
    <glyph glyph-name="dieresis" unicode="&#xa8;" horiz-adv-x="958" 
d="M264 1233q-85 0 -144 57.5t-59 147.5q0 89 60 144.5t149 55.5q86 0 143.5 -58t57.5 -148q0 -87 -59 -143t-148 -56zM772 1233q-85 0 -145 57.5t-60 147.5q0 89 60.5 144.5t148.5 55.5q87 0 145 -58t58 -148q0 -87 -59 -143t-148 -56z" />
    <glyph glyph-name="copyright" unicode="&#xa9;" horiz-adv-x="1560" 
d="M782 -29q-211 0 -374 90t-251.5 250t-88.5 363q0 200 88.5 361t252 254t373.5 93t373.5 -93.5t251.5 -254t88 -360.5q0 -204 -88.5 -363.5t-251 -249.5t-373.5 -90zM782 182q217 0 355.5 137t138.5 355q0 138 -63 251.5t-176.5 179.5t-254.5 66q-143 0 -256.5 -66
t-176 -179t-62.5 -252q0 -219 138 -355.5t357 -136.5zM786 297q-164 0 -275.5 110t-111.5 271t110 271t275 110q141 0 236.5 -75t120.5 -167l-232 -82q-11 40 -41.5 64t-76.5 24q-58 0 -95 -40t-37 -105t37 -105.5t95 -40.5q46 0 77.5 24.5t42.5 64.5l234 -84
q-11 -40 -40 -80.5t-73 -77t-108.5 -59.5t-137.5 -23z" />
    <glyph glyph-name="ordfeminine" unicode="&#xaa;" horiz-adv-x="813" 
d="M551 1683h176v-608h-176v74q-76 -92 -209 -92q-126 0 -213.5 91t-87.5 230q0 143 87 232.5t214 89.5q135 0 209 -84v67zM385 1272q51 0 81 31t30 77q0 45 -30 76t-81 31t-80 -30.5t-29 -76.5t29.5 -77t79.5 -31z" />
    <glyph glyph-name="guillemotleft" unicode="&#xab;" horiz-adv-x="1097" 
d="M285 141l-240 355l240 352h315l-240 -352l240 -355h-315zM705 141l-240 355l240 352h315l-240 -352l240 -355h-315z" />
    <glyph glyph-name="logicalnot" unicode="&#xac;" horiz-adv-x="1060" 
d="M86 823h862v-571h-317v285h-545v286z" />
    <glyph glyph-name="registered" unicode="&#xae;" horiz-adv-x="1071" 
d="M539 1483q194 0 327 -134.5t133 -330.5q0 -129 -61.5 -235t-167 -166t-231.5 -60q-200 0 -333.5 132.5t-133.5 328.5q0 197 133.5 331t333.5 134zM539 688q139 0 232 92.5t93 237.5q0 141 -93.5 235.5t-231.5 94.5q-142 0 -237 -93t-95 -237q0 -145 95 -237.5t237 -92.5z
M719 1110q0 -43 -21 -75.5t-57 -47.5l98 -182h-133l-86 168h-18v-168h-123v444h188q65 0 108.5 -38t43.5 -101zM596 1110q0 43 -51 43h-43v-86h43q51 0 51 43z" />
    <glyph glyph-name="macron" unicode="&#xaf;" horiz-adv-x="747" 
d="M61 1303v268h707v-268h-707z" />
    <glyph glyph-name="degree" unicode="&#xb0;" horiz-adv-x="819" 
d="M408 735q-156 0 -257.5 98.5t-101.5 249.5t103 250t258 99q156 0 257 -98.5t101 -248.5q0 -155 -100.5 -252.5t-259.5 -97.5zM408 936q64 0 104.5 41t40.5 106q0 63 -41.5 105.5t-103.5 42.5q-59 0 -101.5 -43.5t-42.5 -104.5q0 -64 41 -105.5t103 -41.5z" />
    <glyph glyph-name="plusminus" unicode="&#xb1;" horiz-adv-x="1060" 
d="M680 1010h287v-287h-287v-291h-299v291h-287v287h287v303h299v-303zM94 41v287h873v-287h-873z" />
    <glyph glyph-name="uni00B2" unicode="&#xb2;" horiz-adv-x="712" 
d="M395 887h236v-176h-549v141l225 205q94 84 94 143q0 24 -15.5 39.5t-39.5 15.5q-61 0 -76 -81l-200 65q15 88 92 142.5t190 54.5q126 0 196 -59t70 -163q0 -71 -31.5 -128t-113.5 -128z" />
    <glyph glyph-name="uni00B3" unicode="&#xb3;" horiz-adv-x="665" 
d="M436 1141q76 -15 124 -73.5t48 -139.5q0 -99 -80.5 -165.5t-201.5 -66.5q-109 0 -184 44.5t-97 117.5l195 78q18 -57 82 -57q31 0 50 19t19 46q0 29 -20 46.5t-52 17.5h-126v139l137 108h-246v168h479v-168z" />
    <glyph glyph-name="acute" unicode="&#xb4;" horiz-adv-x="724" 
d="M199 1159l-138 217l506 330l154 -248z" />
    <glyph glyph-name="paragraph" unicode="&#xb6;" horiz-adv-x="1345" 
d="M1206 1423v-1628h-176v1346h-80v-1346h-176v1346h-80v-633h-143q-230 0 -368 125t-138 332q0 210 136.5 334t369.5 124h655z" />
    <glyph glyph-name="periodcentered" unicode="&#xb7;" horiz-adv-x="507" 
d="M254 508q-79 0 -132.5 53t-53.5 131q0 82 53 135.5t133 53.5q79 0 132.5 -54t53.5 -135q0 -78 -54 -131t-132 -53z" />
    <glyph glyph-name="cedilla" unicode="&#xb8;" horiz-adv-x="571" 
d="M322 -496q-83 0 -152.5 27.5t-108.5 69.5l111 139q38 -51 102 -51q39 0 61.5 18.5t22.5 48.5q0 32 -23.5 53t-64.5 21h-30l-17 14l68 193h201l-43 -119q65 -9 108 -62.5t43 -129.5q0 -100 -76.5 -161t-201.5 -61z" />
    <glyph glyph-name="uni00B9" unicode="&#xb9;" horiz-adv-x="608" 
d="M451 901h94v-190h-459v190h137v225h-135v189h135v108h228v-522z" />
    <glyph glyph-name="ordmasculine" unicode="&#xba;" horiz-adv-x="753" 
d="M375 1055q-146 0 -240 93t-94 232t94 232.5t240 93.5q149 0 244.5 -93t95.5 -233q0 -139 -95.5 -232t-244.5 -93zM377 1270q52 0 78 29.5t26 80.5q0 52 -26 81.5t-78 29.5q-53 0 -80 -30t-27 -81t27 -80.5t80 -29.5z" />
    <glyph glyph-name="guillemotright" unicode="&#xbb;" horiz-adv-x="1097" 
d="M78 141l239 355l-239 352h315l240 -352l-240 -355h-315zM498 141l239 355l-239 352h315l240 -352l-240 -355h-315z" />
    <glyph glyph-name="onequarter" unicode="&#xbc;" horiz-adv-x="1411" 
d="M522 711h-459v190h136v225h-133v189h133v108h229v-522h94v-190zM956 1423h248l-686 -1423h-244zM1358 279v-150h-62v-129h-213v129h-305v158l307 426h211v-434h62zM1085 279v198l-143 -198h143z" />
    <glyph glyph-name="onehalf" unicode="&#xbd;" horiz-adv-x="1486" 
d="M522 711h-459v190h136v225h-133v189h133v108h229v-522h94v-190zM954 1423h248l-686 -1423h-244zM1200 176h234v-176h-549v141l225 205q94 84 94 143q0 24 -15.5 40t-39.5 16q-29 0 -48.5 -21t-25.5 -61l-203 65q15 88 92.5 142.5t192.5 54.5q125 0 194.5 -59t69.5 -162
q0 -70 -31.5 -127.5t-111.5 -128.5z" />
    <glyph glyph-name="threequarters" unicode="&#xbe;" horiz-adv-x="1458" 
d="M606 928q0 -99 -80 -165.5t-202 -66.5q-107 0 -183 44.5t-98 117.5l195 78q22 -57 81 -57q31 0 50.5 19t19.5 46q0 29 -19 46.5t-53 17.5h-127v139l138 108h-246v168h479v-168l-127 -114q76 -15 124 -73.5t48 -139.5zM999 1423h248l-684 -1423h-246zM1393 279v-150h-60
v-129h-213v129h-305v158l305 426h213v-434h60zM1120 279v198l-141 -198h141z" />
    <glyph glyph-name="questiondown" unicode="&#xbf;" horiz-adv-x="1007" 
d="M559 715q-81 0 -133.5 53.5t-52.5 132.5t53.5 132.5t132.5 53.5q78 0 131 -52.5t53 -129.5q0 -81 -53 -135.5t-131 -54.5zM496 -387q-204 0 -322.5 97t-118.5 265q0 69 20 127.5t51.5 98.5t69.5 74.5t76.5 63t70 55.5t51.5 60t20 70v29h291v-53q0 -62 -22 -115
t-54.5 -86.5t-71 -66.5t-71 -58.5t-54.5 -59.5t-22 -71q0 -50 28 -76t80 -26q51 0 86.5 32.5t44.5 87.5l320 -104q-36 -158 -160.5 -251t-312.5 -93z" />
    <glyph glyph-name="Agrave" unicode="&#xc0;" horiz-adv-x="1355" 
d="M1032 1767l-76 -245l-632 180l84 278zM1018 0l-88 274h-504l-88 -274h-338l469 1423h418l467 -1423h-336zM514 553h326l-162 508z" />
    <glyph glyph-name="Aacute" unicode="&#xc1;" horiz-adv-x="1355" 
d="M1053 1702l-633 -180l-76 245l625 213zM1018 0l-88 274h-504l-88 -274h-338l469 1423h418l467 -1423h-336zM514 553h326l-162 508z" />
    <glyph glyph-name="Acircumflex" unicode="&#xc2;" horiz-adv-x="1355" 
d="M676 1718l-139 -168h-304l310 394h278l299 -394h-301zM1018 0l-88 274h-504l-88 -274h-338l469 1423h418l467 -1423h-336zM514 553h326l-162 508z" />
    <glyph glyph-name="Atilde" unicode="&#xc3;" horiz-adv-x="1355" 
d="M575 1642q-77 0 -98 -83l-231 98q12 49 35 94t58.5 84.5t88.5 63.5t115 24q47 0 89 -15.5t68 -33.5t57.5 -33.5t59.5 -15.5q75 0 96 84l234 -99q-32 -112 -106.5 -189t-190.5 -77q-48 0 -89.5 15.5t-66.5 33.5t-57 33.5t-62 15.5zM1018 0l-88 274h-504l-88 -274h-338
l469 1423h418l467 -1423h-336zM514 553h326l-162 508z" />
    <glyph glyph-name="Adieresis" unicode="&#xc4;" horiz-adv-x="1355" 
d="M412 1538q-88 0 -149.5 60t-61.5 153q0 91 62.5 149t154.5 58q88 0 148.5 -60.5t60.5 -152.5q0 -90 -61.5 -148.5t-153.5 -58.5zM938 1538q-90 0 -151.5 59.5t-61.5 153.5q0 91 62.5 149t154.5 58q89 0 150 -61t61 -152q0 -90 -61.5 -148.5t-153.5 -58.5zM1018 0l-88 274
h-504l-88 -274h-338l469 1423h418l467 -1423h-336zM514 553h326l-162 508z" />
    <glyph glyph-name="Aring" unicode="&#xc5;" horiz-adv-x="1355" 
d="M1018 0l-88 274h-504l-88 -274h-338l469 1423h102q-85 28 -134.5 97t-49.5 163q0 119 82 197t209 78t208 -78t81 -197q0 -94 -49.5 -163t-133.5 -97h103l467 -1423h-336zM678 1769q-41 0 -66.5 -24.5t-25.5 -61.5q0 -40 25.5 -65t66.5 -25q40 0 66 25t26 65
q0 37 -26 61.5t-66 24.5zM514 553h326l-162 508z" />
    <glyph glyph-name="AE" unicode="&#xc6;" horiz-adv-x="1955" 
d="M1241 297h643v-297h-985v262h-459l-118 -262h-357l645 1423h1264v-297h-633v-256h555v-297h-555v-276zM571 553h328v573h-68z" />
    <glyph glyph-name="Ccedilla" unicode="&#xc7;" horiz-adv-x="1505" 
d="M795 297q144 0 233 73.5t123 204.5l328 -133q-53 -175 -201 -304t-367 -158l-24 -62q65 -9 108 -62.5t43 -129.5q0 -100 -76.5 -161t-201.5 -61q-82 0 -151.5 27.5t-108.5 69.5l110 139q38 -51 105 -51q38 0 60 18.5t22 48.5q0 32 -23 53t-63 21h-33l-16 14l47 136
q-139 15 -258.5 76t-205 156t-134 224t-48.5 275q0 211 97 380.5t266.5 264t378.5 94.5q109 0 206.5 -26t172 -71t135 -105t100 -127.5t60.5 -139.5l-328 -133q-34 131 -122.5 204.5t-231.5 73.5q-171 0 -278 -114t-107 -301q0 -186 106.5 -300t276.5 -114z" />
    <glyph glyph-name="Egrave" unicode="&#xc8;" horiz-adv-x="1177" 
d="M963 1767l-76 -245l-633 180l84 278zM463 297h643v-297h-985v1423h975v-297h-633v-256h555v-297h-555v-276z" />
    <glyph glyph-name="Eacute" unicode="&#xc9;" horiz-adv-x="1177" 
d="M983 1702l-633 -180l-76 245l625 213zM463 297h643v-297h-985v1423h975v-297h-633v-256h555v-297h-555v-276z" />
    <glyph glyph-name="Ecircumflex" unicode="&#xca;" horiz-adv-x="1177" 
d="M606 1718l-139 -168h-303l309 394h277l301 -394h-301zM463 297h643v-297h-985v1423h975v-297h-633v-256h555v-297h-555v-276z" />
    <glyph glyph-name="Edieresis" unicode="&#xcb;" horiz-adv-x="1177" 
d="M342 1538q-88 0 -149.5 60t-61.5 153q0 91 62.5 149t154.5 58q88 0 148.5 -60.5t60.5 -152.5q0 -90 -61.5 -148.5t-153.5 -58.5zM866 1538q-88 0 -149.5 60t-61.5 153q0 91 62.5 149t154.5 58q88 0 148.5 -60.5t60.5 -152.5q0 -90 -61.5 -148.5t-153.5 -58.5zM463 297
h643v-297h-985v1423h975v-297h-633v-256h555v-297h-555v-276z" />
    <glyph glyph-name="Igrave" unicode="&#xcc;" horiz-adv-x="583" 
d="M571 1522l-632 180l84 278l624 -213zM121 0v1423h342v-1423h-342z" />
    <glyph glyph-name="Iacute" unicode="&#xcd;" horiz-adv-x="583" 
d="M35 1522l-76 245l625 213l84 -278zM121 0v1423h342v-1423h-342z" />
    <glyph glyph-name="Icircumflex" unicode="&#xce;" horiz-adv-x="583" 
d="M291 1718l-139 -168h-304l312 394h276l299 -394h-301zM121 0v1423h342v-1423h-342z" />
    <glyph glyph-name="Idieresis" unicode="&#xcf;" horiz-adv-x="583" 
d="M27 1538q-88 0 -148.5 59.5t-60.5 153.5q0 91 61.5 149t153.5 58q90 0 149.5 -60.5t59.5 -152.5q0 -90 -61.5 -148.5t-153.5 -58.5zM553 1538q-90 0 -151.5 59.5t-61.5 153.5q0 91 62.5 149t154.5 58q90 0 150.5 -60.5t60.5 -152.5q0 -90 -61.5 -148.5t-153.5 -58.5z
M121 0v1423h342v-1423h-342z" />
    <glyph glyph-name="Eth" unicode="&#xd0;" horiz-adv-x="1511" 
d="M713 1423q328 0 530.5 -193t202.5 -517q0 -215 -92.5 -377.5t-258.5 -249t-382 -86.5h-566v604h-114v236h114v583h566zM700 303q182 0 290 106.5t108 299.5q0 197 -108 304t-290 107h-211v-280h304v-236h-304v-301h211z" />
    <glyph glyph-name="Ntilde" unicode="&#xd1;" horiz-adv-x="1419" 
d="M578 1642q-78 0 -99 -83l-231 98q12 49 35 94t58.5 84.5t88.5 63.5t115 24q47 0 89.5 -15.5t68 -33.5t57.5 -33.5t61 -15.5q73 0 94 84l234 -99q-14 -52 -38 -97.5t-59.5 -84.5t-87 -61.5t-112.5 -22.5q-48 0 -89.5 15.5t-66 33.5t-56.5 33.5t-62 15.5zM956 1423h342
v-1423h-282l-553 831v-831h-342v1423h285l550 -837v837z" />
    <glyph glyph-name="Ograve" unicode="&#xd2;" horiz-adv-x="1624" 
d="M1092 1522l-633 180l84 278l624 -213zM813 -27q-208 0 -380.5 97t-272 266.5t-99.5 374.5q0 207 99.5 376.5t272 266t380.5 96.5q207 0 378.5 -96.5t270.5 -266t99 -376.5q0 -153 -58 -290t-158 -235.5t-238.5 -155.5t-293.5 -57zM813 297q180 0 289.5 116t109.5 300
q0 183 -108.5 298t-290.5 115q-184 0 -293.5 -115t-109.5 -298q0 -184 111 -300t292 -116z" />
    <glyph glyph-name="Oacute" unicode="&#xd3;" horiz-adv-x="1624" 
d="M553 1522l-74 245l625 213l84 -278zM813 -27q-208 0 -380.5 97t-272 266.5t-99.5 374.5q0 207 99.5 376.5t272 266t380.5 96.5q207 0 378.5 -96.5t270.5 -266t99 -376.5q0 -153 -58 -290t-158 -235.5t-238.5 -155.5t-293.5 -57zM813 297q180 0 289.5 116t109.5 300
q0 183 -108.5 298t-290.5 115q-184 0 -293.5 -115t-109.5 -298q0 -184 111 -300t292 -116z" />
    <glyph glyph-name="Ocircumflex" unicode="&#xd4;" horiz-adv-x="1624" 
d="M811 1718l-139 -168h-303l309 394h276l301 -394h-301zM813 1450q207 0 378.5 -96.5t270.5 -266t99 -376.5q0 -153 -58 -290t-158 -235.5t-238.5 -155.5t-293.5 -57q-208 0 -380.5 97t-272 266.5t-99.5 374.5q0 207 99.5 376.5t272 266t380.5 96.5zM813 297
q180 0 289.5 116t109.5 300q0 183 -108.5 298t-290.5 115q-184 0 -293.5 -115t-109.5 -298q0 -184 111 -300t292 -116z" />
    <glyph glyph-name="Otilde" unicode="&#xd5;" horiz-adv-x="1624" 
d="M985 1544q-48 0 -89.5 15.5t-66 33.5t-56.5 33.5t-62 15.5q-81 0 -99 -83l-233 98q27 107 103 186.5t194 79.5q48 0 90.5 -15.5t68 -33.5t57 -33.5t60.5 -15.5q73 0 97 84l231 -99q-30 -112 -104.5 -189t-190.5 -77zM813 -27q-208 0 -380.5 97t-272 266.5t-99.5 374.5
q0 207 99.5 376.5t272 266t380.5 96.5q207 0 378.5 -96.5t270.5 -266t99 -376.5q0 -153 -58 -290t-158 -235.5t-238.5 -155.5t-293.5 -57zM813 297q180 0 289.5 116t109.5 300q0 183 -108.5 298t-290.5 115q-184 0 -293.5 -115t-109.5 -298q0 -184 111 -300t292 -116z" />
    <glyph glyph-name="Odieresis" unicode="&#xd6;" horiz-adv-x="1624" 
d="M547 1538q-88 0 -149.5 60t-61.5 153q0 91 62.5 149t154.5 58q88 0 148.5 -60.5t60.5 -152.5q0 -90 -61.5 -148.5t-153.5 -58.5zM1071 1538q-88 0 -149.5 60t-61.5 153q0 91 62.5 149t154.5 58q88 0 148.5 -60.5t60.5 -152.5q0 -90 -61.5 -148.5t-153.5 -58.5zM813 -27
q-208 0 -380.5 97t-272 266.5t-99.5 374.5q0 207 99.5 376.5t272 266t380.5 96.5q207 0 378.5 -96.5t270.5 -266t99 -376.5q0 -153 -58 -290t-158 -235.5t-238.5 -155.5t-293.5 -57zM813 297q180 0 289.5 116t109.5 300q0 183 -108.5 298t-290.5 115q-184 0 -293.5 -115
t-109.5 -298q0 -184 111 -300t292 -116z" />
    <glyph glyph-name="multiply" unicode="&#xd7;" horiz-adv-x="1046" 
d="M979 926l-244 -242l244 -244l-211 -211l-244 244l-245 -244l-211 209l243 246l-243 244l211 211l243 -244l244 244z" />
    <glyph glyph-name="Oslash" unicode="&#xd8;" horiz-adv-x="1630" 
d="M1569 1296l-144 -149q140 -193 140 -436q0 -205 -99.5 -374.5t-271.5 -266.5t-379 -97q-219 0 -409 115l-146 -151l-199 186l146 151q-141 190 -141 437q0 155 58.5 292.5t158.5 235t238.5 154.5t293.5 57q225 0 410 -117l147 154zM414 713q0 -106 37 -187l540 566
q-75 34 -176 34q-182 0 -291.5 -115.5t-109.5 -297.5zM1217 713q0 98 -35 182l-541 -563q78 -35 174 -35q180 0 291 116t111 300z" />
    <glyph glyph-name="Ugrave" unicode="&#xd9;" horiz-adv-x="1384" 
d="M1049 1767l-76 -245l-633 180l84 278zM936 1423h342v-864q0 -121 -37 -226t-107.5 -186t-184 -127.5t-255.5 -46.5q-143 0 -257 46.5t-185 127.5t-108.5 186t-37.5 226v864h345v-862q0 -122 61.5 -193t181.5 -71q118 0 180 71t62 193v862z" />
    <glyph glyph-name="Uacute" unicode="&#xda;" horiz-adv-x="1384" 
d="M1069 1702l-635 -180l-74 245l625 213zM936 1423h342v-864q0 -121 -37 -226t-107.5 -186t-184 -127.5t-255.5 -46.5q-143 0 -257 46.5t-185 127.5t-108.5 186t-37.5 226v864h345v-862q0 -122 61.5 -193t181.5 -71q118 0 180 71t62 193v862z" />
    <glyph glyph-name="Ucircumflex" unicode="&#xdb;" horiz-adv-x="1384" 
d="M692 1718l-139 -168h-303l309 394h277l301 -394h-301zM936 1423h342v-864q0 -121 -37 -226t-107.5 -186t-184 -127.5t-255.5 -46.5q-143 0 -257 46.5t-185 127.5t-108.5 186t-37.5 226v864h345v-862q0 -122 61.5 -193t181.5 -71q118 0 180 71t62 193v862z" />
    <glyph glyph-name="Udieresis" unicode="&#xdc;" horiz-adv-x="1384" 
d="M428 1538q-88 0 -149.5 60t-61.5 153q0 91 62.5 149t154.5 58q88 0 148.5 -60.5t60.5 -152.5q0 -90 -61.5 -148.5t-153.5 -58.5zM952 1538q-88 0 -149.5 60t-61.5 153q0 91 62.5 149t154.5 58q88 0 148.5 -60.5t60.5 -152.5q0 -90 -61.5 -148.5t-153.5 -58.5zM936 1423
h342v-864q0 -121 -37 -226t-107.5 -186t-184 -127.5t-255.5 -46.5q-143 0 -257 46.5t-185 127.5t-108.5 186t-37.5 226v864h345v-862q0 -122 61.5 -193t181.5 -71q118 0 180 71t62 193v862z" />
    <glyph glyph-name="Yacute" unicode="&#xdd;" horiz-adv-x="1351" 
d="M1055 1702l-635 -180l-74 245l625 213zM1364 1423l-516 -841v-582h-342v578l-516 845h383l305 -542l303 542h383z" />
    <glyph glyph-name="Thorn" unicode="&#xde;" horiz-adv-x="1282" 
d="M719 1178q233 0 369.5 -124.5t136.5 -334.5q0 -207 -138 -333t-368 -126h-256v-260h-342v1423h342v-245h256zM698 559q88 0 133.5 44t45.5 116t-45.5 116t-133.5 44h-235v-320h235z" />
    <glyph glyph-name="germandbls" unicode="&#xdf;" horiz-adv-x="1294" 
d="M1006 791q103 -47 169 -153.5t66 -238.5q0 -204 -131.5 -315t-347.5 -111q-182 0 -283 113l60 260q68 -90 172 -90q84 0 134 48.5t50 135.5q0 90 -60 144.5t-176 54.5v262q85 0 134 48t49 122q0 76 -52 122t-135 46q-103 0 -159 -62.5t-56 -181.5v-995h-342v975
q0 257 153 402t427 145q233 0 371.5 -115.5t138.5 -296.5q0 -102 -50.5 -188.5t-131.5 -130.5z" />
    <glyph glyph-name="agrave" unicode="&#xe0;" horiz-adv-x="1314" 
d="M985 1376l-137 -217l-522 299l153 248zM903 1079h316v-1079h-316v98q-119 -125 -311 -125q-154 0 -277.5 73.5t-192.5 203t-69 289.5q0 242 151.5 393t387.5 151q195 0 311 -116v112zM641 274q112 0 181 73.5t69 191.5q0 119 -69 192.5t-181 73.5q-107 0 -177.5 -75.5
t-70.5 -190.5q0 -116 69.5 -190.5t178.5 -74.5z" />
    <glyph glyph-name="aacute" unicode="&#xe1;" horiz-adv-x="1314" 
d="M997 1458l-522 -299l-137 217l508 330zM903 1079h316v-1079h-316v98q-119 -125 -311 -125q-154 0 -277.5 73.5t-192.5 203t-69 289.5q0 242 151.5 393t387.5 151q195 0 311 -116v112zM641 274q112 0 181 73.5t69 191.5q0 119 -69 192.5t-181 73.5q-107 0 -177.5 -75.5
t-70.5 -190.5q0 -116 69.5 -190.5t178.5 -74.5z" />
    <glyph glyph-name="acircumflex" unicode="&#xe2;" horiz-adv-x="1314" 
d="M672 1427l-133 -200h-295l286 418h293l279 -418h-293zM903 1079h316v-1079h-316v98q-119 -125 -311 -125q-154 0 -277.5 73.5t-192.5 203t-69 289.5q0 242 151.5 393t387.5 151q195 0 311 -116v112zM641 274q112 0 181 73.5t69 191.5q0 119 -69 192.5t-181 73.5
q-107 0 -177.5 -75.5t-70.5 -190.5q0 -116 69.5 -190.5t178.5 -74.5z" />
    <glyph glyph-name="atilde" unicode="&#xe3;" horiz-adv-x="1314" 
d="M567 1346q-35 0 -60 -22t-34 -62l-231 98q13 51 33 95t51.5 84.5t79 63.5t106.5 23q43 0 83 -15.5t65 -33.5t57.5 -33.5t62.5 -15.5q31 0 55.5 22t34.5 62l232 -99q-71 -266 -268 -266q-44 0 -85 15.5t-66.5 34t-56.5 34t-59 15.5zM903 1079h316v-1079h-316v98
q-119 -125 -311 -125q-154 0 -277.5 73.5t-192.5 203t-69 289.5q0 242 151.5 393t387.5 151q195 0 311 -116v112zM641 274q112 0 181 73.5t69 191.5q0 119 -69 192.5t-181 73.5q-107 0 -177.5 -75.5t-70.5 -190.5q0 -116 69.5 -190.5t178.5 -74.5z" />
    <glyph glyph-name="adieresis" unicode="&#xe4;" horiz-adv-x="1314" 
d="M416 1233q-85 0 -144 57.5t-59 147.5q0 89 60 144.5t149 55.5q86 0 144.5 -58t58.5 -148q0 -87 -60 -143t-149 -56zM924 1233q-85 0 -145 57.5t-60 147.5q0 89 60.5 144.5t148.5 55.5q87 0 146 -58t59 -148q0 -87 -60 -143t-149 -56zM903 1079h316v-1079h-316v98
q-119 -125 -311 -125q-154 0 -277.5 73.5t-192.5 203t-69 289.5q0 242 151.5 393t387.5 151q195 0 311 -116v112zM641 274q112 0 181 73.5t69 191.5q0 119 -69 192.5t-181 73.5q-107 0 -177.5 -75.5t-70.5 -190.5q0 -116 69.5 -190.5t178.5 -74.5z" />
    <glyph glyph-name="aring" unicode="&#xe5;" horiz-adv-x="1314" 
d="M674 1157q-128 0 -209.5 77t-81.5 200q0 119 82 196.5t209 77.5t208 -77.5t81 -196.5q0 -123 -80.5 -200t-208.5 -77zM674 1520q-41 0 -67.5 -24.5t-26.5 -61.5q0 -40 26.5 -65.5t67.5 -25.5q40 0 65 25.5t25 65.5q0 37 -25.5 61.5t-64.5 24.5zM903 1079h316v-1079h-316
v98q-119 -125 -311 -125q-154 0 -277.5 73.5t-192.5 203t-69 289.5q0 242 151.5 393t387.5 151q195 0 311 -116v112zM641 274q112 0 181 73.5t69 191.5q0 119 -69 192.5t-181 73.5q-107 0 -177.5 -75.5t-70.5 -190.5q0 -116 69.5 -190.5t178.5 -74.5z" />
    <glyph glyph-name="ae" unicode="&#xe6;" horiz-adv-x="2117" 
d="M1276 442q25 -96 90 -147t160 -51q169 0 243 123l279 -119q-141 -275 -457 -275q-248 0 -372 140v-113h-316v98q-119 -125 -311 -125q-154 0 -277.5 73.5t-192.5 203t-69 289.5t69 289t192.5 202.5t277.5 73.5q192 0 311 -125v100h316v-121q120 146 337 146
q121 0 219.5 -47t160.5 -124.5t95 -173.5t33 -198q0 -76 -6 -119h-782zM1272 641h485q-19 101 -80.5 158t-160.5 57q-100 0 -162.5 -55.5t-81.5 -159.5zM641 274q112 0 181 73.5t69 191.5q0 119 -69 192.5t-181 73.5q-107 0 -177.5 -75.5t-70.5 -190.5q0 -116 69.5 -190.5
t178.5 -74.5z" />
    <glyph glyph-name="ccedilla" unicode="&#xe7;" horiz-adv-x="1179" 
d="M1159 328q-14 -50 -47 -102t-83 -100.5t-122 -86t-155 -53.5l-25 -68q64 -9 108 -63t44 -129q0 -99 -77.5 -160.5t-201.5 -61.5q-82 0 -151.5 27.5t-108.5 69.5l111 139q38 -51 102 -51q38 0 60 18.5t22 48.5q0 32 -23 53t-63 21h-33l-16 14l47 133q-216 28 -356 184.5
t-140 375.5q0 157 74 286.5t206 205t294 75.5q88 0 167.5 -22.5t138 -58.5t105.5 -83.5t75.5 -96.5t41.5 -98l-303 -120q-21 80 -77.5 128t-139.5 48q-102 0 -170 -71.5t-68 -190.5t68 -191t170 -72q85 0 143.5 48t79.5 125z" />
    <glyph glyph-name="egrave" unicode="&#xe8;" horiz-adv-x="1216" 
d="M928 1374l-137 -217l-523 299l152 248zM381 438q26 -90 94 -138t166 -48q87 0 138 28t85 85l256 -170q-36 -47 -76.5 -83t-98.5 -69.5t-138 -51.5t-176 -18q-174 0 -307.5 74.5t-204 202.5t-70.5 289q0 153 75 283.5t204 207t282 76.5q127 0 235 -47.5t178 -125.5
t109 -174.5t39 -197.5q0 -65 -8 -123h-782zM377 651h477q-22 94 -83 146.5t-153 52.5q-95 0 -157 -51t-84 -148z" />
    <glyph glyph-name="eacute" unicode="&#xe9;" horiz-adv-x="1216" 
d="M940 1456l-522 -299l-137 217l505 330zM381 438q26 -90 94 -138t166 -48q87 0 138 28t85 85l256 -170q-36 -47 -76.5 -83t-98.5 -69.5t-138 -51.5t-176 -18q-174 0 -307.5 74.5t-204 202.5t-70.5 289q0 153 75 283.5t204 207t282 76.5q127 0 235 -47.5t178 -125.5
t109 -174.5t39 -197.5q0 -65 -8 -123h-782zM377 651h477q-22 94 -83 146.5t-153 52.5q-95 0 -157 -51t-84 -148z" />
    <glyph glyph-name="ecircumflex" unicode="&#xea;" horiz-adv-x="1216" 
d="M614 1427l-135 -202h-295l289 417h293l278 -417h-292zM381 438q26 -90 94 -138t166 -48q87 0 138 28t85 85l256 -170q-36 -47 -76.5 -83t-98.5 -69.5t-138 -51.5t-176 -18q-174 0 -307.5 74.5t-204 202.5t-70.5 289q0 153 75 283.5t204 207t282 76.5q127 0 235 -47.5
t178 -125.5t109 -174.5t39 -197.5q0 -65 -8 -123h-782zM377 651h477q-22 94 -83 146.5t-153 52.5q-95 0 -157 -51t-84 -148z" />
    <glyph glyph-name="edieresis" unicode="&#xeb;" horiz-adv-x="1216" 
d="M358 1231q-85 0 -143.5 57.5t-58.5 147.5q0 89 60 144.5t149 55.5q86 0 143 -58t57 -148q0 -87 -59 -143t-148 -56zM866 1231q-86 0 -145 57t-59 148q0 89 59.5 144.5t148.5 55.5q86 0 144.5 -58t58.5 -148q0 -87 -59 -143t-148 -56zM381 438q26 -90 94 -138t166 -48
q87 0 138 28t85 85l256 -170q-36 -47 -76.5 -83t-98.5 -69.5t-138 -51.5t-176 -18q-174 0 -307.5 74.5t-204 202.5t-70.5 289q0 153 75 283.5t204 207t282 76.5q127 0 235 -47.5t178 -125.5t109 -174.5t39 -197.5q0 -65 -8 -123h-782zM377 651h477q-22 94 -83 146.5
t-153 52.5q-95 0 -157 -51t-84 -148z" />
    <glyph glyph-name="igrave" unicode="&#xec;" horiz-adv-x="538" 
d="M444 1157l-522 299l154 250l506 -332zM98 0v1079h342v-1079h-342z" />
    <glyph glyph-name="iacute" unicode="&#xed;" horiz-adv-x="538" 
d="M72 1157l-135 217l505 332l154 -250zM98 0v1079h342v-1079h-342z" />
    <glyph glyph-name="icircumflex" unicode="&#xee;" horiz-adv-x="538" 
d="M268 1425l-133 -200h-295l287 420h293l278 -420h-292zM98 0v1079h342v-1079h-342z" />
    <glyph glyph-name="idieresis" unicode="&#xef;" horiz-adv-x="538" 
d="M12 1231q-84 0 -143 58t-59 149q0 88 60.5 143t149.5 55q86 0 143.5 -58t57.5 -148q0 -87 -60 -143t-149 -56zM520 1231q-86 0 -145.5 57.5t-59.5 149.5q0 88 60.5 143t150.5 55q86 0 144.5 -58t58.5 -148q0 -87 -60 -143t-149 -56zM98 0v1079h342v-1079h-342z" />
    <glyph glyph-name="eth" unicode="&#xf0;" horiz-adv-x="1292" 
d="M748 1487q225 -142 355 -376t130 -497q0 -154 -43.5 -276t-122.5 -201.5t-187.5 -121.5t-238.5 -42q-169 0 -304.5 73.5t-210.5 200t-75 279.5q0 154 75 281t208 199.5t295 72.5q88 0 164 -28q-95 130 -267 215l-190 -191l-166 168l109 109q-133 26 -256 26l131 275
q194 0 368 -60l144 144l165 -166zM643 276q110 0 178 70.5t68 183.5q0 105 -68 175.5t-178 70.5q-111 0 -179.5 -71t-68.5 -179q0 -106 69 -178t179 -72z" />
    <glyph glyph-name="ntilde" unicode="&#xf1;" horiz-adv-x="1239" 
d="M532 1343q-33 0 -58.5 -21.5t-35.5 -61.5l-231 98q13 51 33.5 95t52 84t79 63.5t105.5 23.5q44 0 84 -15.5t64.5 -33.5t57 -33.5t62.5 -15.5q32 0 57 22t34 62l233 -99q-71 -266 -268 -266q-45 0 -86 15.5t-67 33.5t-57.5 33.5t-58.5 15.5zM731 1106q189 0 304.5 -116.5
t115.5 -303.5v-686h-342v618q0 85 -51.5 135t-130.5 50q-77 0 -132 -49.5t-55 -122.5v-631h-342v1079h322v-86q123 113 311 113z" />
    <glyph glyph-name="ograve" unicode="&#xf2;" horiz-adv-x="1284" 
d="M823 1157l-522 299l154 248l506 -330zM641 -27q-169 0 -304.5 74t-210.5 203.5t-75 288.5q0 244 166.5 404.5t423.5 160.5q258 0 425 -160.5t167 -404.5q0 -119 -44 -224t-121.5 -180t-188 -118.5t-238.5 -43.5zM643 276q110 0 178 74t68 191q0 116 -67 188t-179 72
t-180 -72.5t-68 -189.5q0 -115 68.5 -189t179.5 -74z" />
    <glyph glyph-name="oacute" unicode="&#xf3;" horiz-adv-x="1284" 
d="M451 1157l-138 217l508 330l152 -248zM641 -27q-169 0 -304.5 74t-210.5 203.5t-75 288.5q0 244 166.5 404.5t423.5 160.5q258 0 425 -160.5t167 -404.5q0 -119 -44 -224t-121.5 -180t-188 -118.5t-238.5 -43.5zM643 276q110 0 178 74t68 191q0 116 -67 188t-179 72
t-180 -72.5t-68 -189.5q0 -115 68.5 -189t179.5 -74z" />
    <glyph glyph-name="ocircumflex" unicode="&#xf4;" horiz-adv-x="1284" 
d="M647 1425l-133 -200h-295l287 417h293l278 -417h-293zM641 1104q258 0 425 -160.5t167 -404.5q0 -119 -44 -224t-121.5 -180t-188 -118.5t-238.5 -43.5q-169 0 -304.5 74t-210.5 203.5t-75 288.5q0 244 166.5 404.5t423.5 160.5zM643 276q110 0 178 74t68 191
q0 116 -67 188t-179 72t-180 -72.5t-68 -189.5q0 -115 68.5 -189t179.5 -74z" />
    <glyph glyph-name="otilde" unicode="&#xf5;" horiz-adv-x="1284" 
d="M809 1245q-56 0 -104.5 24.5t-88 49t-73.5 24.5q-35 0 -60 -21.5t-34 -61.5l-232 98q13 51 33 95t51.5 84.5t79 63.5t106.5 23q43 0 83 -15.5t65.5 -33.5t58 -33.5t62.5 -15.5q31 0 55.5 22t34.5 62l231 -99q-71 -266 -268 -266zM641 -27q-169 0 -304.5 74t-210.5 203.5
t-75 288.5q0 244 166.5 404.5t423.5 160.5q258 0 425 -160.5t167 -404.5q0 -119 -44 -224t-121.5 -180t-188 -118.5t-238.5 -43.5zM643 276q110 0 178 74t68 191q0 116 -67 188t-179 72t-180 -72.5t-68 -189.5q0 -115 68.5 -189t179.5 -74z" />
    <glyph glyph-name="odieresis" unicode="&#xf6;" horiz-adv-x="1284" 
d="M391 1231q-85 0 -144 57.5t-59 147.5q0 89 60 144.5t149 55.5q86 0 143.5 -58t57.5 -148q0 -87 -59 -143t-148 -56zM899 1231q-85 0 -145 57.5t-60 147.5q0 89 60.5 144.5t148.5 55.5q87 0 145 -58t58 -148q0 -87 -59 -143t-148 -56zM641 -27q-169 0 -304.5 74
t-210.5 203.5t-75 288.5q0 244 166.5 404.5t423.5 160.5q258 0 425 -160.5t167 -404.5q0 -119 -44 -224t-121.5 -180t-188 -118.5t-238.5 -43.5zM643 276q110 0 178 74t68 191q0 116 -67 188t-179 72t-180 -72.5t-68 -189.5q0 -115 68.5 -189t179.5 -74z" />
    <glyph glyph-name="divide" unicode="&#xf7;" horiz-adv-x="1009" 
d="M506 926q-78 0 -131 52.5t-53 129.5q0 83 52.5 136.5t131.5 53.5q80 0 133 -53.5t53 -136.5q0 -77 -53.5 -129.5t-132.5 -52.5zM72 537v286h866v-286h-866zM508 61q-79 0 -132.5 53.5t-53.5 131.5q0 81 53 134.5t133 53.5q79 0 132.5 -53.5t53.5 -134.5q0 -78 -54 -131.5
t-132 -53.5z" />
    <glyph glyph-name="oslash" unicode="&#xf8;" horiz-adv-x="1331" 
d="M1313 938l-133 -115q73 -127 73 -284q0 -160 -75 -289t-210.5 -203t-305.5 -74q-195 0 -349 101l-135 -119l-162 178l134 115q-78 134 -78 291q0 244 166.5 404.5t423.5 160.5q204 0 358 -107l137 119zM666 276q108 0 175.5 74t67.5 191q0 116 -66.5 188t-176.5 72
q-113 0 -181.5 -72t-68.5 -190q0 -115 68.5 -189t181.5 -74z" />
    <glyph glyph-name="ugrave" unicode="&#xf9;" horiz-adv-x="1222" 
d="M911 1376l-135 -217l-524 299l154 248zM784 1079h340v-1079h-319v90q-124 -117 -301 -117q-200 0 -308 121t-108 312v673h342v-628q0 -77 47.5 -126t128.5 -49t129.5 49t48.5 126v628z" />
    <glyph glyph-name="uacute" unicode="&#xfa;" horiz-adv-x="1222" 
d="M926 1458l-523 -299l-137 217l506 330zM784 1079h340v-1079h-319v90q-124 -117 -301 -117q-200 0 -308 121t-108 312v673h342v-628q0 -77 47.5 -126t128.5 -49t129.5 49t48.5 126v628z" />
    <glyph glyph-name="ucircumflex" unicode="&#xfb;" horiz-adv-x="1222" 
d="M600 1427l-135 -200h-295l289 418h293l278 -418h-295zM784 1079h340v-1079h-319v90q-124 -117 -301 -117q-200 0 -308 121t-108 312v673h342v-628q0 -77 47.5 -126t128.5 -49t129.5 49t48.5 126v628z" />
    <glyph glyph-name="udieresis" unicode="&#xfc;" horiz-adv-x="1222" 
d="M344 1233q-85 0 -144 57.5t-59 147.5q0 89 60 144.5t149 55.5q86 0 143.5 -58t57.5 -148q0 -87 -60 -143t-147 -56zM852 1233q-87 0 -146 57t-59 148q0 89 60 144.5t149 55.5q86 0 144.5 -58t58.5 -148q0 -87 -60 -143t-147 -56zM784 1079h340v-1079h-319v90
q-124 -117 -301 -117q-200 0 -308 121t-108 312v673h342v-628q0 -77 47.5 -126t128.5 -49t129.5 49t48.5 126v628z" />
    <glyph glyph-name="yacute" unicode="&#xfd;" horiz-adv-x="1169" 
d="M911 1458l-524 -299l-135 217l506 330zM819 1079h350l-383 -1079l-129 -367h-335l141 367h-115l-344 1079h352l213 -811z" />
    <glyph glyph-name="thorn" unicode="&#xfe;" horiz-adv-x="1314" 
d="M733 1104q233 0 381 -160t148 -405q0 -160 -69 -289.5t-192 -203t-276 -73.5q-166 0 -285 95v-435h-342v1864h342v-493q118 100 293 100zM676 276q106 0 175 74.5t69 188.5t-69 188t-175 74q-112 0 -180 -72.5t-68 -189.5q0 -118 68 -190.5t180 -72.5z" />
    <glyph glyph-name="ydieresis" unicode="&#xff;" horiz-adv-x="1169" 
d="M328 1233q-84 0 -143.5 57.5t-59.5 147.5q0 89 60.5 144.5t150.5 55.5q86 0 143.5 -58t57.5 -148q0 -87 -60 -143t-149 -56zM836 1233q-85 0 -144 57.5t-59 147.5q0 89 60 144.5t149 55.5q86 0 144 -58t58 -148q0 -87 -59.5 -143t-148.5 -56zM819 1079h350l-383 -1079
l-129 -367h-335l141 367h-115l-344 1079h352l213 -811z" />
    <glyph glyph-name="Amacron" unicode="&#x100;" horiz-adv-x="1355" 
d="M1065 1888v-278h-776v278h776zM1018 0l-88 274h-504l-88 -274h-338l469 1423h418l467 -1423h-336zM514 553h326l-162 508z" />
    <glyph glyph-name="amacron" unicode="&#x101;" horiz-adv-x="1314" 
d="M1026 1571v-268h-707v268h707zM903 1079h316v-1079h-316v98q-119 -125 -311 -125q-154 0 -277.5 73.5t-192.5 203t-69 289.5q0 242 151.5 393t387.5 151q195 0 311 -116v112zM641 274q112 0 181 73.5t69 191.5q0 119 -69 192.5t-181 73.5q-107 0 -177.5 -75.5
t-70.5 -190.5q0 -116 69.5 -190.5t178.5 -74.5z" />
    <glyph glyph-name="Abreve" unicode="&#x102;" horiz-adv-x="1355" 
d="M676 1550q-182 0 -289.5 110t-107.5 284h278q0 -64 32 -104t87 -40t88 40t33 104h276q0 -174 -107.5 -284t-289.5 -110zM1018 0l-88 274h-504l-88 -274h-338l469 1423h418l467 -1423h-336zM514 553h326l-162 508z" />
    <glyph glyph-name="abreve" unicode="&#x103;" horiz-adv-x="1314" 
d="M674 1227q-186 0 -294 113t-108 305h267q0 -83 37 -125.5t98 -42.5t97 42.5t36 125.5h266q0 -192 -106.5 -305t-292.5 -113zM903 1079h316v-1079h-316v98q-119 -125 -311 -125q-154 0 -277.5 73.5t-192.5 203t-69 289.5q0 242 151.5 393t387.5 151q195 0 311 -116v112z
M641 274q112 0 181 73.5t69 191.5q0 119 -69 192.5t-181 73.5q-107 0 -177.5 -75.5t-70.5 -190.5q0 -116 69.5 -190.5t178.5 -74.5z" />
    <glyph glyph-name="Aogonek" unicode="&#x104;" horiz-adv-x="1355" 
d="M1317 -246l121 -157q-37 -40 -101 -63t-141 -23q-116 0 -187 60.5t-71 160.5q0 137 168 268h-88l-88 274h-504l-88 -274h-338l469 1423h418l467 -1423l-84 -84q-44 -44 -61 -72t-17 -57t16 -45t43 -16q41 0 66 28zM514 553h326l-162 508z" />
    <glyph glyph-name="aogonek" unicode="&#x105;" horiz-adv-x="1314" 
d="M1180 -246l120 -157q-37 -40 -100.5 -63t-140.5 -23q-116 0 -187 60.5t-71 160.5q0 136 170 268h-68v98q-119 -125 -311 -125q-154 0 -277.5 73.5t-192.5 203t-69 289.5q0 242 151.5 393t387.5 151q195 0 311 -116v112h316v-1079l-86 -84q-44 -44 -61 -72t-17 -57t16 -45
t43 -16q41 0 66 28zM641 274q112 0 181 73.5t69 191.5q0 119 -69 192.5t-181 73.5q-107 0 -177.5 -75.5t-70.5 -190.5q0 -116 69.5 -190.5t178.5 -74.5z" />
    <glyph glyph-name="Cacute" unicode="&#x106;" horiz-adv-x="1503" 
d="M535 1522l-76 245l624 213l84 -278zM801 -27q-207 0 -375.5 94.5t-265.5 264t-97 379.5q0 211 97 380.5t266.5 264t378.5 94.5q109 0 206.5 -26t172 -71t135 -105t100 -127.5t60.5 -139.5l-328 -133q-34 131 -122.5 204.5t-231.5 73.5q-171 0 -278 -114t-107 -301
q0 -186 106.5 -300t276.5 -114q144 0 233 73.5t123 204.5l328 -133q-28 -94 -85.5 -176.5t-141 -149t-200.5 -105t-251 -38.5z" />
    <glyph glyph-name="cacute" unicode="&#x107;" horiz-adv-x="1179" 
d="M428 1159l-137 217l508 330l151 -248zM627 -27q-161 0 -293.5 74t-207.5 203.5t-75 286.5t74 286.5t206 205t294 75.5q88 0 167.5 -22.5t138 -58.5t105.5 -83.5t75.5 -96.5t41.5 -98l-303 -120q-21 80 -77.5 128t-139.5 48q-102 0 -170 -71.5t-68 -190.5t68 -191t170 -72
q85 0 143.5 48t79.5 125l303 -121q-17 -60 -59 -120t-107 -114t-160.5 -87.5t-205.5 -33.5z" />
    <glyph glyph-name="Cdotaccent" unicode="&#x10a;" horiz-adv-x="1503" 
d="M793 1538q-90 0 -151.5 59.5t-61.5 153.5q0 91 62.5 149t154.5 58q89 0 149 -60t60 -153q0 -90 -61 -148.5t-152 -58.5zM801 -27q-207 0 -375.5 94.5t-265.5 264t-97 379.5q0 211 97 380.5t266.5 264t378.5 94.5q109 0 206.5 -26t172 -71t135 -105t100 -127.5
t60.5 -139.5l-328 -133q-34 131 -122.5 204.5t-231.5 73.5q-171 0 -278 -114t-107 -301q0 -186 106.5 -300t276.5 -114q144 0 233 73.5t123 204.5l328 -133q-28 -94 -85.5 -176.5t-141 -149t-200.5 -105t-251 -38.5z" />
    <glyph glyph-name="cdotaccent" unicode="&#x10b;" horiz-adv-x="1179" 
d="M627 1227q-92 0 -153.5 59t-61.5 150q0 90 62 150.5t153 60.5t153 -60.5t62 -150.5q0 -91 -61.5 -150t-153.5 -59zM627 -27q-161 0 -293.5 74t-207.5 203.5t-75 286.5t74 286.5t206 205t294 75.5q88 0 167.5 -22.5t138 -58.5t105.5 -83.5t75.5 -96.5t41.5 -98l-303 -120
q-21 80 -77.5 128t-139.5 48q-102 0 -170 -71.5t-68 -190.5t68 -191t170 -72q85 0 143.5 48t79.5 125l303 -121q-17 -60 -59 -120t-107 -114t-160.5 -87.5t-205.5 -33.5z" />
    <glyph glyph-name="Ccaron" unicode="&#x10c;" horiz-adv-x="1503" 
d="M936 1550h-277l-309 394h301l142 -168l141 168h301zM795 297q144 0 233 73.5t123 204.5l328 -133q-28 -94 -85.5 -176.5t-141 -149t-200.5 -105t-251 -38.5q-207 0 -375.5 94.5t-265.5 264t-97 379.5q0 211 97 380.5t266.5 264t378.5 94.5q109 0 206.5 -26t172 -71
t135 -105t100 -127.5t60.5 -139.5l-328 -133q-34 131 -122.5 204.5t-231.5 73.5q-171 0 -278 -114t-107 -301q0 -186 106.5 -300t276.5 -114z" />
    <glyph glyph-name="ccaron" unicode="&#x10d;" horiz-adv-x="1179" 
d="M776 1227h-293l-286 418h295l133 -201l137 201h293zM856 449l303 -121q-17 -60 -59 -120t-107 -114t-160.5 -87.5t-205.5 -33.5q-161 0 -293.5 74t-207.5 203.5t-75 286.5t74 286.5t206 205t294 75.5q88 0 167.5 -22.5t138 -58.5t105.5 -83.5t75.5 -96.5t41.5 -98
l-303 -120q-21 80 -77.5 128t-139.5 48q-102 0 -170 -71.5t-68 -190.5t68 -191t170 -72q85 0 143.5 48t79.5 125z" />
    <glyph glyph-name="Dcaron" unicode="&#x10e;" horiz-adv-x="1484" 
d="M836 1548h-277l-309 396h303l139 -168l144 168h301zM686 1423q328 0 530.5 -193t202.5 -517q0 -215 -92.5 -377.5t-258.5 -249t-382 -86.5h-565v1423h565zM676 303q182 0 289.5 106.5t107.5 299.5q0 197 -107.5 304t-289.5 107h-213v-817h213z" />
    <glyph glyph-name="dcaron" unicode="&#x10f;" horiz-adv-x="1540" 
d="M1358 1499h241l-63 -530h-219zM877 1004v493h342v-1497h-316v92q-122 -119 -311 -119q-154 0 -277.5 73.5t-192.5 203t-69 289.5q0 245 149 405t382 160q175 0 293 -100zM641 274q112 0 181 73.5t69 191.5q0 119 -69 192.5t-181 73.5q-107 0 -177.5 -75.5t-70.5 -190.5
q0 -116 69.5 -190.5t178.5 -74.5z" />
    <glyph glyph-name="Dcroat" unicode="&#x110;" horiz-adv-x="1511" 
d="M713 1423q328 0 530.5 -193t202.5 -517q0 -215 -92.5 -377.5t-258.5 -249t-382 -86.5h-566v604h-114v236h114v583h566zM700 303q182 0 290 106.5t108 299.5q0 197 -108 304t-290 107h-211v-280h304v-236h-304v-301h211z" />
    <glyph glyph-name="dcroat" unicode="&#x111;" horiz-adv-x="1314" 
d="M1343 1405v-234h-124v-1171h-316v92q-122 -119 -311 -119q-154 0 -277.5 73.5t-192.5 203t-69 289.5q0 245 149 405t382 160q175 0 293 -100v167h-295v234h295v92h342v-92h124zM641 274q112 0 181 73.5t69 191.5q0 119 -69 192.5t-181 73.5q-107 0 -177.5 -75.5
t-70.5 -190.5q0 -116 69.5 -190.5t178.5 -74.5z" />
    <glyph glyph-name="Emacron" unicode="&#x112;" horiz-adv-x="1177" 
d="M995 1888v-278h-776v278h776zM463 297h643v-297h-985v1423h975v-297h-633v-256h555v-297h-555v-276z" />
    <glyph glyph-name="emacron" unicode="&#x113;" horiz-adv-x="1216" 
d="M969 1569v-269h-709v269h709zM381 438q26 -90 94 -138t166 -48q87 0 138 28t85 85l256 -170q-36 -47 -76.5 -83t-98.5 -69.5t-138 -51.5t-176 -18q-174 0 -307.5 74.5t-204 202.5t-70.5 289q0 153 75 283.5t204 207t282 76.5q127 0 235 -47.5t178 -125.5t109 -174.5
t39 -197.5q0 -65 -8 -123h-782zM377 651h477q-22 94 -83 146.5t-153 52.5q-95 0 -157 -51t-84 -148z" />
    <glyph glyph-name="Edotaccent" unicode="&#x116;" horiz-adv-x="1177" 
d="M606 1538q-88 0 -149.5 60t-61.5 153q0 91 62 149t153 58q90 0 150.5 -60t60.5 -153q0 -90 -61.5 -148.5t-153.5 -58.5zM463 297h643v-297h-985v1423h975v-297h-633v-256h555v-297h-555v-276z" />
    <glyph glyph-name="edotaccent" unicode="&#x117;" horiz-adv-x="1216" 
d="M614 1225q-90 0 -151.5 59t-61.5 150q0 90 61.5 150.5t151.5 60.5q91 0 153 -60.5t62 -150.5q0 -91 -61.5 -150t-153.5 -59zM381 438q26 -90 94 -138t166 -48q87 0 138 28t85 85l256 -170q-36 -47 -76.5 -83t-98.5 -69.5t-138 -51.5t-176 -18q-174 0 -307.5 74.5
t-204 202.5t-70.5 289q0 153 75 283.5t204 207t282 76.5q127 0 235 -47.5t178 -125.5t109 -174.5t39 -197.5q0 -65 -8 -123h-782zM377 651h477q-22 94 -83 146.5t-153 52.5q-95 0 -157 -51t-84 -148z" />
    <glyph glyph-name="Eogonek" unicode="&#x118;" horiz-adv-x="1177" 
d="M1069 -246l119 -157q-36 -40 -99.5 -63t-140.5 -23q-117 0 -188.5 60.5t-71.5 160.5q0 136 170 268h-737v1423h975v-297h-633v-256h555v-297h-555v-276h643v-297l-84 -84q-44 -44 -61 -72t-17 -57t16.5 -45t43.5 -16q40 0 65 28z" />
    <glyph glyph-name="eogonek" unicode="&#x119;" horiz-adv-x="1216" 
d="M381 438q26 -90 94 -138t166 -48q87 0 138 28t85 85l256 -170q-86 -112 -202 -166l-74 -74q-44 -44 -61 -72t-17 -57t16 -45.5t43 -16.5q40 0 66 29l121 -158q-37 -40 -101 -63t-141 -23q-116 0 -188 61.5t-72 160.5q0 101 96 202q-167 5 -295 81t-195 202.5t-67 282.5
q0 153 75 283.5t204 207t282 76.5q127 0 235 -47.5t178 -125.5t109 -174.5t39 -197.5q0 -65 -8 -123h-782zM377 651h477q-22 94 -83 146.5t-153 52.5q-95 0 -157 -51t-84 -148z" />
    <glyph glyph-name="Ecaron" unicode="&#x11a;" horiz-adv-x="1177" 
d="M750 1550h-277l-309 394h303l139 -168l144 168h301zM463 297h643v-297h-985v1423h975v-297h-633v-256h555v-297h-555v-276z" />
    <glyph glyph-name="ecaron" unicode="&#x11b;" horiz-adv-x="1216" 
d="M766 1225h-293l-289 417h295l135 -202l138 202h292zM381 438q26 -90 94 -138t166 -48q87 0 138 28t85 85l256 -170q-36 -47 -76.5 -83t-98.5 -69.5t-138 -51.5t-176 -18q-174 0 -307.5 74.5t-204 202.5t-70.5 289q0 153 75 283.5t204 207t282 76.5q127 0 235 -47.5
t178 -125.5t109 -174.5t39 -197.5q0 -65 -8 -123h-782zM377 651h477q-22 94 -83 146.5t-153 52.5q-95 0 -157 -51t-84 -148z" />
    <glyph glyph-name="Gbreve" unicode="&#x11e;" horiz-adv-x="1589" 
d="M801 1550q-182 0 -290 110t-108 284h277q0 -64 32.5 -104t88.5 -40q55 0 87 40t32 104h278q0 -174 -108 -284t-289 -110zM1536 772q0 -190 -56 -342.5t-154 -252t-230 -152t-287 -52.5q-159 0 -297.5 56t-237 153.5t-155 234.5t-56.5 294q0 211 97 380t267.5 264
t381.5 95q128 0 241.5 -35.5t196.5 -97t142.5 -137.5t91.5 -162l-328 -133q-38 113 -128.5 177t-221.5 64q-179 0 -285 -115.5t-106 -305.5q0 -194 113 -309t315 -115q275 0 356 233h-395v258h735z" />
    <glyph glyph-name="gbreve" unicode="&#x11f;" horiz-adv-x="1312" 
d="M639 1227q-188 0 -294.5 113t-106.5 305h266q0 -83 37 -125.5t98 -42.5q60 0 96.5 42.5t36.5 125.5h266q0 -192 -106.5 -305t-292.5 -113zM901 1079h316v-909q0 -254 -160.5 -408.5t-442.5 -154.5q-221 0 -355.5 83.5t-192.5 229.5l288 113q31 -71 99.5 -106.5
t162.5 -35.5q133 0 209 67t76 179v31q-120 -123 -311 -123q-115 0 -215.5 41.5t-170.5 112t-110.5 167.5t-40.5 205q0 144 68.5 266t192.5 194.5t276 72.5q191 0 311 -123v98zM635 305q108 0 177 71.5t69 178.5t-69 178.5t-177 71.5q-104 0 -174 -72.5t-70 -177.5t70 -177.5
t174 -72.5z" />
    <glyph glyph-name="Gdotaccent" unicode="&#x120;" horiz-adv-x="1589" 
d="M801 1538q-88 0 -150.5 60t-62.5 153q0 91 63 149t154 58q90 0 149.5 -60t59.5 -153q0 -90 -61 -148.5t-152 -58.5zM1536 772q0 -190 -56 -342.5t-154 -252t-230 -152t-287 -52.5q-159 0 -297.5 56t-237 153.5t-155 234.5t-56.5 294q0 211 97 380t267.5 264t381.5 95
q128 0 241.5 -35.5t196.5 -97t142.5 -137.5t91.5 -162l-328 -133q-38 113 -128.5 177t-221.5 64q-179 0 -285 -115.5t-106 -305.5q0 -194 113 -309t315 -115q275 0 356 233h-395v258h735z" />
    <glyph glyph-name="gdotaccent" unicode="&#x121;" horiz-adv-x="1312" 
d="M639 1227q-92 0 -153.5 59t-61.5 150q0 90 62 150.5t153 60.5q90 0 151.5 -60.5t61.5 -150.5q0 -91 -61.5 -150t-151.5 -59zM901 1079h316v-909q0 -254 -160.5 -408.5t-442.5 -154.5q-221 0 -355.5 83.5t-192.5 229.5l288 113q31 -71 99.5 -106.5t162.5 -35.5
q133 0 209 67t76 179v31q-120 -123 -311 -123q-115 0 -215.5 41.5t-170.5 112t-110.5 167.5t-40.5 205q0 144 68.5 266t192.5 194.5t276 72.5q191 0 311 -123v98zM635 305q108 0 177 71.5t69 178.5t-69 178.5t-177 71.5q-104 0 -174 -72.5t-70 -177.5t70 -177.5t174 -72.5z
" />
    <glyph glyph-name="uni0122" unicode="&#x122;" horiz-adv-x="1589" 
d="M1536 772q0 -190 -56 -342.5t-154 -252t-230 -152t-287 -52.5q-159 0 -297.5 56t-237 153.5t-155 234.5t-56.5 294q0 211 97 380t267.5 264t381.5 95q128 0 241.5 -35.5t196.5 -97t142.5 -137.5t91.5 -162l-328 -133q-38 113 -128.5 177t-221.5 64q-179 0 -285 -115.5
t-106 -305.5q0 -194 113 -309t315 -115q275 0 356 233h-395v258h735zM799 -98q71 0 117.5 -45.5t46.5 -116.5q0 -56 -21 -108t-78 -138l-69 -108l-154 59l72 117q8 14 14 28q-43 19 -69.5 60.5t-26.5 93.5q0 70 48 114t120 44z" />
    <glyph glyph-name="uni0123" unicode="&#x123;" horiz-adv-x="1312" 
d="M639 1206q-71 0 -117.5 45.5t-46.5 118.5q0 55 21 108t77 136l68 110l154 -59l-70 -119q-3 -4 -14 -26q43 -21 69.5 -61.5t26.5 -92.5q0 -70 -48.5 -115t-119.5 -45zM901 1079h316v-909q0 -254 -160.5 -408.5t-442.5 -154.5q-221 0 -355.5 83.5t-192.5 229.5l288 113
q31 -71 99.5 -106.5t162.5 -35.5q133 0 209 67t76 179v31q-120 -123 -311 -123q-115 0 -215.5 41.5t-170.5 112t-110.5 167.5t-40.5 205q0 144 68.5 266t192.5 194.5t276 72.5q191 0 311 -123v98zM635 305q108 0 177 71.5t69 178.5t-69 178.5t-177 71.5q-104 0 -174 -72.5
t-70 -177.5t70 -177.5t174 -72.5z" />
    <glyph glyph-name="Hbar" unicode="&#x126;" horiz-adv-x="1515" 
d="M1470 1288v-266h-124v-1022h-342v569h-492v-569h-342v1022h-127v266h127v135h342v-135h492v135h342v-135h124zM1004 874v148h-492v-148h492z" />
    <glyph glyph-name="hbar" unicode="&#x127;" horiz-adv-x="1239" 
d="M731 1106q189 0 304.5 -116.5t115.5 -303.5v-686h-342v618q0 85 -51.5 135t-130.5 50q-77 0 -132 -49.5t-55 -122.5v-631h-342v1171h-127v234h127v92h342v-92h293v-234h-293v-161q120 96 291 96z" />
    <glyph glyph-name="Itilde" unicode="&#x128;" horiz-adv-x="583" 
d="M457 1544q-48 0 -89.5 15.5t-66.5 33.5t-57 33.5t-62 15.5q-77 0 -98 -83l-231 98q27 107 103 186.5t194 79.5q47 0 89.5 -15.5t68 -33.5t57.5 -33.5t61 -15.5q73 0 94 84l234 -99q-14 -52 -38 -97.5t-59.5 -84.5t-87 -61.5t-112.5 -22.5zM121 0v1423h342v-1423h-342z
" />
    <glyph glyph-name="itilde" unicode="&#x129;" horiz-adv-x="538" 
d="M406 1247q-37 0 -72 15t-57 33t-48.5 33t-50.5 15q-28 0 -49.5 -21.5t-30.5 -61.5l-196 98q11 51 28.5 95t44.5 84t67 63.5t89 23.5q37 0 71.5 -15.5t55.5 -33.5t48 -33.5t52 -15.5q28 0 48.5 21.5t29.5 62.5l197 -99q-58 -264 -227 -264zM98 0v1079h342v-1079h-342z" />
    <glyph glyph-name="Imacron" unicode="&#x12a;" horiz-adv-x="583" 
d="M14 1610v278h564v-278h-564zM121 0v1423h342v-1423h-342z" />
    <glyph glyph-name="imacron" unicode="&#x12b;" horiz-adv-x="538" 
d="M-14 1300v271h567v-271h-567zM98 0v1079h342v-1079h-342z" />
    <glyph glyph-name="Iogonek" unicode="&#x12e;" horiz-adv-x="583" 
d="M426 -246l121 -157q-37 -40 -101 -63t-141 -23q-116 0 -187 60.5t-71 160.5q0 137 168 268h-94v1423h342v-1423l-84 -84q-44 -44 -61 -72t-17 -57t16 -45t43 -16q41 0 66 28z" />
    <glyph glyph-name="iogonek" unicode="&#x12f;" horiz-adv-x="538" 
d="M270 1225q-92 0 -153.5 59t-61.5 150q0 92 61.5 151.5t153.5 59.5t153.5 -59.5t61.5 -151.5q0 -91 -61.5 -150t-153.5 -59zM395 -246l121 -157q-37 -40 -101 -63t-141 -23q-116 0 -187 60.5t-71 160.5q0 138 170 268h-88v1079h342v-1079h-8l-84 -84q-44 -44 -61 -72
t-17 -57t16.5 -45t43.5 -16q40 0 65 28z" />
    <glyph glyph-name="Idotaccent" unicode="&#x130;" horiz-adv-x="583" 
d="M291 1538q-88 0 -149.5 60t-61.5 153q0 91 62.5 149t154.5 58q89 0 149 -60t60 -153q0 -90 -61.5 -148.5t-153.5 -58.5zM121 0v1423h342v-1423h-342z" />
    <glyph glyph-name="dotlessi" unicode="&#x131;" horiz-adv-x="538" 
d="M98 0v1079h342v-1079h-342z" />
    <glyph glyph-name="IJ" unicode="&#x132;" horiz-adv-x="1294" 
d="M121 0v1423h342v-1423h-342zM618 0v305h78q71 0 108.5 40t37.5 112v966h342v-970q0 -211 -117.5 -332t-341.5 -121h-107z" />
    <glyph glyph-name="ij" unicode="&#x133;" horiz-adv-x="1136" 
d="M877 1227q-92 0 -153.5 59t-61.5 150q0 90 62 150.5t153 60.5t153 -60.5t62 -150.5q0 -91 -61.5 -150t-153.5 -59zM270 1225q-92 0 -153.5 59t-61.5 150q0 92 61.5 151.5t153.5 59.5t153.5 -59.5t61.5 -151.5q0 -91 -61.5 -150t-153.5 -59zM98 0v1079h342v-1079h-342z
M518 -379v291h21q72 0 115.5 46.5t43.5 127.5v993h340v-987q0 -219 -128 -345t-328 -126h-64z" />
    <glyph glyph-name="uni0136" unicode="&#x136;" horiz-adv-x="1341" 
d="M799 729l555 -729h-389l-502 649v-649h-342v1423h342v-620l491 620h392zM727 -98q70 0 117 -45.5t47 -116.5q0 -57 -21.5 -109t-78.5 -137l-68 -108l-154 59l72 117q8 14 14 28q-43 19 -69.5 60.5t-26.5 93.5q0 70 48 114t120 44z" />
    <glyph glyph-name="uni0137" unicode="&#x137;" horiz-adv-x="1132" 
d="M748 582l405 -582h-369l-344 475v-475h-342v1497h342v-827l330 409h379zM561 -98q70 0 117 -45.5t47 -116.5q0 -56 -21.5 -107.5t-78.5 -138.5l-68 -108l-154 59l70 117q3 4 5.5 9t5 10.5t3.5 8.5q-43 21 -68.5 61.5t-25.5 92.5q0 70 48 114t120 44z" />
    <glyph glyph-name="kgreenlandic" unicode="&#x138;" horiz-adv-x="1132" 
d="M1153 0h-369l-344 449v-449h-342v1079h342v-434l330 434h381l-410 -512z" />
    <glyph glyph-name="Lacute" unicode="&#x139;" horiz-adv-x="1120" 
d="M584 1980l84 -278l-633 -180l-76 245zM463 305h633v-305h-975v1423h342v-1118z" />
    <glyph glyph-name="lacute" unicode="&#x13a;" horiz-adv-x="538" 
d="M10 1595l-76 246l627 213l82 -278zM98 0v1497h342v-1497h-342z" />
    <glyph glyph-name="uni013B" unicode="&#x13b;" horiz-adv-x="1120" 
d="M463 305h633v-305h-975v1423h342v-1118zM608 -98q71 0 117.5 -45.5t46.5 -116.5q0 -56 -21 -108t-77 -138l-68 -108l-153 59l69 117q6 10 15 28q-43 21 -70 61.5t-27 92.5q0 70 48 114t120 44z" />
    <glyph glyph-name="uni013C" unicode="&#x13c;" horiz-adv-x="538" 
d="M98 1497h342v-1497h-342v1497zM264 -98q71 0 117.5 -45.5t46.5 -116.5q0 -56 -21 -108t-77 -138l-68 -108l-153 59l69 117q6 10 15 28q-43 21 -70 61.5t-27 92.5q0 70 48 114t120 44z" />
    <glyph glyph-name="Lcaron" unicode="&#x13d;" horiz-adv-x="1132" 
d="M1010 1446l-64 -531h-219l41 531h242zM463 305h633v-305h-975v1423h342v-1118z" />
    <glyph glyph-name="lcaron" unicode="&#x13e;" horiz-adv-x="761" 
d="M539 969l41 530h241l-63 -530h-219zM98 0v1497h342v-1497h-342z" />
    <glyph glyph-name="Ldot" unicode="&#x13f;" horiz-adv-x="1153" 
d="M463 305h633v-305h-975v1423h342v-1118zM889 688q-78 0 -131 53t-53 131q0 81 53 135t131 54q80 0 133 -53.5t53 -135.5q0 -78 -53.5 -131t-132.5 -53z" />
    <glyph glyph-name="ldot" unicode="&#x140;" horiz-adv-x="858" 
d="M98 0v1497h342v-1497h-342zM698 578q-78 0 -131 53t-53 131q0 81 53 134.5t131 53.5q80 0 133.5 -53.5t53.5 -134.5q0 -78 -54 -131t-133 -53z" />
    <glyph glyph-name="Lslash" unicode="&#x141;" horiz-adv-x="1241" 
d="M584 305h633v-305h-975v575l-144 -49l-69 213l213 74v610h342v-491l176 61l69 -213l-245 -86v-389z" />
    <glyph glyph-name="lslash" unicode="&#x142;" horiz-adv-x="796" 
d="M807 831l-234 -129v-702h-342v514l-106 -59l-125 213l231 129v700h342v-512l107 59z" />
    <glyph glyph-name="Nacute" unicode="&#x143;" horiz-adv-x="1419" 
d="M1055 1702l-633 -180l-76 245l625 213zM956 1423h342v-1423h-282l-553 831v-831h-342v1423h285l550 -837v837z" />
    <glyph glyph-name="nacute" unicode="&#x144;" horiz-adv-x="1239" 
d="M965 1456l-525 -299l-135 217l506 330zM731 1106q189 0 304.5 -116.5t115.5 -303.5v-686h-342v618q0 85 -51.5 135t-130.5 50q-77 0 -132 -49.5t-55 -122.5v-631h-342v1079h322v-86q123 113 311 113z" />
    <glyph glyph-name="uni0145" unicode="&#x145;" horiz-adv-x="1419" 
d="M956 1423h342v-1423h-282l-553 831v-831h-342v1423h285l550 -837v837zM733 -98q71 0 117.5 -45.5t46.5 -116.5q0 -56 -21 -108t-77 -138l-68 -108l-153 59l69 117q11 19 15 28q-43 19 -70 60.5t-27 93.5q0 70 48 114t120 44z" />
    <glyph glyph-name="uni0146" unicode="&#x146;" horiz-adv-x="1239" 
d="M731 1106q189 0 304.5 -116.5t115.5 -303.5v-686h-342v618q0 85 -51.5 135t-130.5 50q-77 0 -132 -49.5t-55 -122.5v-631h-342v1079h322v-86q123 113 311 113zM614 -98q70 0 117 -45.5t47 -116.5q0 -56 -21.5 -107.5t-78.5 -138.5l-68 -108l-153 59l69 117q6 10 15 28
q-43 21 -69 61.5t-26 92.5q0 70 48 114t120 44z" />
    <glyph glyph-name="Ncaron" unicode="&#x147;" horiz-adv-x="1419" 
d="M823 1550h-278l-309 394h303l139 -168l143 168h301zM956 1423h342v-1423h-282l-553 831v-831h-342v1423h285l550 -837v837z" />
    <glyph glyph-name="ncaron" unicode="&#x148;" horiz-adv-x="1239" 
d="M791 1225h-295l-287 417h295l133 -200l137 200h293zM731 1106q189 0 304.5 -116.5t115.5 -303.5v-686h-342v618q0 85 -51.5 135t-130.5 50q-77 0 -132 -49.5t-55 -122.5v-631h-342v1079h322v-86q123 113 311 113z" />
    <glyph glyph-name="napostrophe" unicode="&#x149;" horiz-adv-x="1501" 
d="M23 1040l40 531h242l-63 -531h-219zM995 1106q189 0 303.5 -116.5t114.5 -303.5v-686h-340v618q0 86 -52 135.5t-132 49.5q-77 0 -132 -49.5t-55 -122.5v-631h-342v1079h324v-84q124 111 311 111z" />
    <glyph glyph-name="Eng" unicode="&#x14a;" horiz-adv-x="1419" 
d="M956 1423h342v-1439q0 -211 -114 -333t-324 -122h-55v305h61q71 0 108.5 40.5t37.5 113.5v18l-549 825v-831h-342v1423h285l550 -837v837z" />
    <glyph glyph-name="eng" unicode="&#x14b;" horiz-adv-x="1239" 
d="M731 1106q189 0 304.5 -116.5t115.5 -303.5v-610q0 -207 -127.5 -331t-321.5 -124h-49l-2 291h21q63 0 100 42.5t37 115.5v548q0 85 -51.5 135t-130.5 50q-77 0 -132 -49.5t-55 -122.5v-631h-342v1079h322v-86q123 113 311 113z" />
    <glyph glyph-name="Omacron" unicode="&#x14c;" horiz-adv-x="1624" 
d="M424 1610v278h774v-278h-774zM813 -27q-208 0 -380.5 97t-272 266.5t-99.5 374.5q0 207 99.5 376.5t272 266t380.5 96.5q207 0 378.5 -96.5t270.5 -266t99 -376.5q0 -153 -58 -290t-158 -235.5t-238.5 -155.5t-293.5 -57zM813 297q180 0 289.5 116t109.5 300
q0 183 -108.5 298t-290.5 115q-184 0 -293.5 -115t-109.5 -298q0 -184 111 -300t292 -116z" />
    <glyph glyph-name="omacron" unicode="&#x14d;" horiz-adv-x="1284" 
d="M295 1300v269h706v-269h-706zM641 -27q-169 0 -304.5 74t-210.5 203.5t-75 288.5q0 244 166.5 404.5t423.5 160.5q258 0 425 -160.5t167 -404.5q0 -119 -44 -224t-121.5 -180t-188 -118.5t-238.5 -43.5zM643 276q110 0 178 74t68 191q0 116 -67 188t-179 72t-180 -72.5
t-68 -189.5q0 -115 68.5 -189t179.5 -74z" />
    <glyph glyph-name="Ohungarumlaut" unicode="&#x150;" horiz-adv-x="1624" 
d="M551 1505l-209 152l274 397l234 -172zM1051 1505l-209 152l274 397l236 -172zM813 -27q-208 0 -380.5 97t-272 266.5t-99.5 374.5q0 207 99.5 376.5t272 266t380.5 96.5q207 0 378.5 -96.5t270.5 -266t99 -376.5q0 -153 -58 -290t-158 -235.5t-238.5 -155.5t-293.5 -57z
M813 297q180 0 289.5 116t109.5 300q0 183 -108.5 298t-290.5 115q-184 0 -293.5 -115t-109.5 -298q0 -184 111 -300t292 -116z" />
    <glyph glyph-name="ohungarumlaut" unicode="&#x151;" horiz-adv-x="1284" 
d="M397 1157l-207 150l273 389l235 -172zM893 1157l-207 150l272 389l236 -172zM641 -27q-169 0 -304.5 74t-210.5 203.5t-75 288.5q0 244 166.5 404.5t423.5 160.5q258 0 425 -160.5t167 -404.5q0 -119 -44 -224t-121.5 -180t-188 -118.5t-238.5 -43.5zM643 276
q110 0 178 74t68 191q0 116 -67 188t-179 72t-180 -72.5t-68 -189.5q0 -115 68.5 -189t179.5 -74z" />
    <glyph glyph-name="OE" unicode="&#x152;" horiz-adv-x="2271" 
d="M1556 297h642v-297h-986v96q-167 -123 -399 -123q-208 0 -380.5 97t-272 266.5t-99.5 374.5q0 207 99.5 376.5t272 266t380.5 96.5q232 0 399 -123v96h975v-297h-631v-256h553v-297h-553v-276zM813 297q180 0 289.5 116t109.5 300q0 183 -108.5 298t-290.5 115
q-184 0 -293.5 -115t-109.5 -298q0 -184 111 -300t292 -116z" />
    <glyph glyph-name="oe" unicode="&#x153;" horiz-adv-x="2064" 
d="M1229 438q26 -90 93.5 -138t166.5 -48q86 0 136.5 27.5t86.5 85.5l254 -170q-36 -47 -76 -83t-98 -69.5t-137.5 -51.5t-175.5 -18q-259 0 -418 156q-166 -156 -420 -156q-169 0 -304.5 74t-210.5 203.5t-75 288.5q0 244 166.5 404.5t423.5 160.5q127 0 236 -42t188 -118
q77 77 177.5 119.5t213.5 42.5q128 0 236 -47.5t178 -125.5t108.5 -174.5t38.5 -197.5q0 -79 -6 -123h-782zM1225 651h477q-22 93 -83.5 146t-152.5 53q-95 0 -157 -51t-84 -148zM643 276q110 0 178 74t68 191q0 116 -67 188t-179 72t-180 -72.5t-68 -189.5
q0 -115 68.5 -189t179.5 -74z" />
    <glyph glyph-name="Racute" unicode="&#x154;" horiz-adv-x="1296" 
d="M1006 1702l-633 -180l-76 245l625 213zM874 0l-376 567h-37v-567h-340v1423h598q230 0 368 -119.5t138 -308.5q0 -156 -100 -268.5t-271 -146.5l401 -580h-381zM461 1124v-315h248q86 0 134 42t48 116q0 73 -48 115t-134 42h-248z" />
    <glyph glyph-name="racute" unicode="&#x155;" horiz-adv-x="749" 
d="M727 1456l-524 -299l-135 217l505 330zM420 1079v-92q122 119 299 119v-320q-279 0 -279 -208v-578h-342v1079h322z" />
    <glyph glyph-name="uni0156" unicode="&#x156;" horiz-adv-x="1296" 
d="M854 580l401 -580h-381l-376 567h-37v-567h-340v1423h598q230 0 368 -119.5t138 -308.5q0 -156 -100 -268.5t-271 -146.5zM461 1124v-315h248q86 0 134 42t48 116q0 73 -48 115t-134 42h-248zM645 -98q70 0 117 -45.5t47 -116.5q0 -57 -21.5 -109t-78.5 -137l-68 -108
l-154 59l72 117q8 14 14 28q-43 19 -69.5 60.5t-26.5 93.5q0 70 48 114t120 44z" />
    <glyph glyph-name="uni0157" unicode="&#x157;" horiz-adv-x="749" 
d="M420 987q122 119 299 119v-320q-279 0 -279 -208v-578h-342v1079h322v-92zM264 -98q71 0 117.5 -45.5t46.5 -116.5q0 -56 -21 -108t-77 -138l-68 -108l-153 59l69 117q11 19 15 28q-43 19 -70 60.5t-27 93.5q0 70 48 114t120 44z" />
    <glyph glyph-name="Rcaron" unicode="&#x158;" horiz-adv-x="1296" 
d="M774 1550h-276l-310 394h301l142 -168l141 168h301zM874 0l-376 567h-37v-567h-340v1423h598q230 0 368 -119.5t138 -308.5q0 -156 -100 -268.5t-271 -146.5l401 -580h-381zM461 1124v-315h248q86 0 134 42t48 116q0 73 -48 115t-134 42h-248z" />
    <glyph glyph-name="rcaron" unicode="&#x159;" horiz-adv-x="749" 
d="M553 1225h-295l-287 417h295l133 -200l138 200h292zM420 1079v-92q122 119 299 119v-320q-279 0 -279 -208v-578h-342v1079h322z" />
    <glyph glyph-name="Sacute" unicode="&#x15a;" horiz-adv-x="1222" 
d="M362 1522l-75 245l624 213l84 -278zM600 -27q-209 0 -357 98t-202 277l324 125q26 -99 96.5 -152t171.5 -53q87 0 132.5 33t45.5 92q0 41 -24.5 72t-65.5 51.5t-94 38.5t-112 36.5t-117.5 40.5t-111.5 55t-94 76.5t-65.5 109t-24.5 147.5q0 194 137 312t382 118
q199 0 337 -92t177 -242l-322 -125q-45 168 -209 168q-77 0 -118.5 -30.5t-41.5 -81.5q0 -49 39.5 -84t102 -57.5t138.5 -45t152.5 -56.5t139 -81t102 -129.5t39.5 -192.5q0 -192 -150 -310t-407 -118z" />
    <glyph glyph-name="sacute" unicode="&#x15b;" horiz-adv-x="1024" 
d="M330 1157l-137 217l505 332l154 -250zM512 -27q-184 0 -309 74.5t-172 214.5l282 109q46 -142 211 -142q58 0 88.5 21.5t30.5 58.5q0 34 -31 59t-80.5 42t-109.5 34t-120.5 41.5t-110 58.5t-80.5 91.5t-31 132.5q0 156 119.5 246t324.5 90q167 0 279.5 -63.5
t144.5 -176.5l-282 -110q-37 102 -148 102q-104 0 -104 -72q0 -31 31 -52.5t80.5 -35.5t109.5 -29t120.5 -39.5t110 -59t80.5 -95t31 -141.5q0 -167 -125.5 -263t-339.5 -96z" />
    <glyph glyph-name="Scedilla" unicode="&#x15e;" horiz-adv-x="1222" 
d="M1157 401q0 -161 -106 -271t-297 -144l-25 -68q64 -9 107 -63t43 -129q0 -99 -77 -160.5t-200 -61.5q-84 0 -153.5 27.5t-108.5 69.5l111 139q41 -51 104 -51q38 0 60 18.5t22 48.5q0 32 -23 53t-63 21h-33l-16 14l45 131q-189 12 -322 109.5t-184 263.5l324 125
q26 -99 96.5 -152t171.5 -53q87 0 132.5 33t45.5 92q0 41 -24.5 72t-65.5 51.5t-94 38.5t-112 36.5t-117.5 40.5t-111.5 55t-94 76.5t-65.5 109t-24.5 147.5q0 194 137 312t382 118q199 0 337 -92t177 -242l-322 -125q-45 168 -209 168q-77 0 -118.5 -30.5t-41.5 -81.5
q0 -49 39.5 -84t102 -57.5t138.5 -45t152.5 -56.5t139 -81t102 -129.5t39.5 -192.5z" />
    <glyph glyph-name="scedilla" unicode="&#x15f;" horiz-adv-x="1024" 
d="M977 332q0 -141 -90.5 -232.5t-253.5 -117.5l-23 -64q64 -9 108 -63t44 -129q0 -99 -77.5 -160.5t-201.5 -61.5q-82 0 -151.5 27.5t-108.5 69.5l111 139q38 -51 102 -51q38 0 61 18.5t23 48.5q0 32 -23.5 53t-64.5 21h-31l-16 14l47 133q-154 15 -257 87.5t-144 197.5
l282 109q46 -142 211 -142q58 0 88.5 21.5t30.5 58.5q0 34 -31 59t-80.5 42t-109.5 34t-120.5 41.5t-110 58.5t-80.5 91.5t-31 132.5q0 156 119.5 246t324.5 90q167 0 279.5 -63.5t144.5 -176.5l-282 -110q-37 102 -148 102q-104 0 -104 -72q0 -31 31 -52.5t80.5 -35.5
t109.5 -29t120.5 -39.5t110 -59t80.5 -95t31 -141.5z" />
    <glyph glyph-name="Scaron" unicode="&#x160;" horiz-adv-x="1222" 
d="M770 1550h-276l-310 394h303l140 -168l141 168h301zM444 1047q0 -49 39.5 -84t102 -57.5t138.5 -45t152.5 -56.5t139 -81t102 -129.5t39.5 -192.5q0 -192 -150 -310t-407 -118q-209 0 -357 98t-202 277l324 125q26 -99 96.5 -152t171.5 -53q87 0 132.5 33t45.5 92
q0 41 -24.5 72t-65.5 51.5t-94 38.5t-112 36.5t-117.5 40.5t-111.5 55t-94 76.5t-65.5 109t-24.5 147.5q0 194 137 312t382 118q199 0 337 -92t177 -242l-322 -125q-45 168 -209 168q-77 0 -118.5 -30.5t-41.5 -81.5z" />
    <glyph glyph-name="scaron" unicode="&#x161;" horiz-adv-x="1024" 
d="M678 1225h-293l-289 420h295l135 -203l138 203h292zM414 784q0 -31 31 -52.5t80.5 -35.5t109.5 -29t120.5 -39.5t110 -59t80.5 -95t31 -141.5q0 -167 -125.5 -263t-339.5 -96q-184 0 -309 74.5t-172 214.5l282 109q46 -142 211 -142q58 0 88.5 21.5t30.5 58.5
q0 34 -31 59t-80.5 42t-109.5 34t-120.5 41.5t-110 58.5t-80.5 91.5t-31 132.5q0 156 119.5 246t324.5 90q167 0 279.5 -63.5t144.5 -176.5l-282 -110q-37 102 -148 102q-104 0 -104 -72z" />
    <glyph glyph-name="uni0162" unicode="&#x162;" horiz-adv-x="1218" 
d="M780 0h-61l-31 -84q64 -9 107 -63t43 -129q0 -99 -77 -160.5t-200 -61.5q-84 0 -153.5 27.5t-108.5 69.5l111 139q41 -51 104 -51q38 0 60 18.5t22 48.5q0 32 -23 53t-63 21h-33l-16 14l55 158h-78v1118h-413v305h1169v-305h-414v-1118z" />
    <glyph glyph-name="uni0163" unicode="&#x163;" horiz-adv-x="845" 
d="M623 0h-11l-22 -63q65 -8 108 -61.5t43 -129.5q0 -99 -77.5 -161t-200.5 -62q-83 0 -152.5 27.5t-107.5 70.5l110 137q40 -51 103 -51q39 0 61.5 20t22.5 50q0 31 -23.5 51t-64.5 20h-31l-16 17l59 170q-109 45 -165 144t-56 237v372h-180v291h86q114 0 114 121v166h332
v-287h246v-291h-258v-331q0 -78 39.5 -119t111.5 -41h113v-297h-184z" />
    <glyph glyph-name="Tcaron" unicode="&#x164;" horiz-adv-x="1218" 
d="M754 1550h-279l-309 394h303l139 -168l144 168h301zM1194 1423v-305h-414v-1118h-342v1118h-413v305h1169z" />
    <glyph glyph-name="tcaron" unicode="&#x165;" horiz-adv-x="845" 
d="M649 1124l41 531h240l-64 -531h-217zM623 0q-204 0 -312 112t-108 304v372h-180v291h86q114 0 114 121v166h332v-287h246v-291h-258v-331q0 -78 39.5 -119t111.5 -41h113v-297h-184z" />
    <glyph glyph-name="Tbar" unicode="&#x166;" horiz-adv-x="1236" 
d="M1202 1118h-414v-389h211v-233h-211v-496h-342v496h-208v233h208v389h-411v305h1167v-305z" />
    <glyph glyph-name="tbar" unicode="&#x167;" horiz-adv-x="854" 
d="M700 297h113v-297h-182q-206 0 -314 111.5t-108 304.5v20h-139v234h139v118h-180v291h86q114 0 114 121v166h332v-287h248v-291h-258v-118h213v-234h-213q12 -139 149 -139z" />
    <glyph glyph-name="Utilde" unicode="&#x168;" horiz-adv-x="1384" 
d="M592 1642q-80 0 -98 -83l-234 98q27 107 103 186.5t194 79.5q48 0 90.5 -15.5t68 -33.5t57.5 -33.5t61 -15.5q72 0 96 84l231 -99q-30 -112 -104.5 -189t-190.5 -77q-48 0 -89.5 15.5t-66 33.5t-56.5 33.5t-62 15.5zM936 1423h342v-864q0 -121 -37 -226t-107.5 -186
t-184 -127.5t-255.5 -46.5q-143 0 -257 46.5t-185 127.5t-108.5 186t-37.5 226v864h345v-862q0 -122 61.5 -193t181.5 -71q118 0 180 71t62 193v862z" />
    <glyph glyph-name="utilde" unicode="&#x169;" horiz-adv-x="1222" 
d="M496 1346q-35 0 -61 -22t-36 -62l-229 98q12 51 32 95t51.5 84t79 63.5t105.5 23.5q44 0 84.5 -15.5t65.5 -33.5t57 -33.5t62 -15.5q32 0 56.5 22t33.5 62l233 -99q-71 -266 -268 -266q-44 0 -85 15.5t-66 34t-56 34t-59 15.5zM784 1079h340v-1079h-319v90
q-124 -117 -301 -117q-200 0 -308 121t-108 312v673h342v-628q0 -77 47.5 -126t128.5 -49t129.5 49t48.5 126v628z" />
    <glyph glyph-name="Umacron" unicode="&#x16a;" horiz-adv-x="1384" 
d="M1079 1888v-278h-774v278h774zM936 1423h342v-864q0 -121 -37 -226t-107.5 -186t-184 -127.5t-255.5 -46.5q-143 0 -257 46.5t-185 127.5t-108.5 186t-37.5 226v864h345v-862q0 -122 61.5 -193t181.5 -71q118 0 180 71t62 193v862z" />
    <glyph glyph-name="umacron" unicode="&#x16b;" horiz-adv-x="1222" 
d="M952 1571v-268h-706v268h706zM784 1079h340v-1079h-319v90q-124 -117 -301 -117q-200 0 -308 121t-108 312v673h342v-628q0 -77 47.5 -126t128.5 -49t129.5 49t48.5 126v628z" />
    <glyph glyph-name="Uring" unicode="&#x16e;" horiz-adv-x="1384" 
d="M694 1407q-128 0 -209.5 76.5t-81.5 199.5q0 119 82 197t209 78t207 -78t80 -197q0 -123 -79.5 -199.5t-207.5 -76.5zM694 1769q-41 0 -67.5 -24.5t-26.5 -61.5q0 -40 26.5 -65t67.5 -25q40 0 65 25t25 65q0 37 -25.5 61.5t-64.5 24.5zM936 1423h342v-864
q0 -121 -37 -226t-107.5 -186t-184 -127.5t-255.5 -46.5q-143 0 -257 46.5t-185 127.5t-108.5 186t-37.5 226v864h345v-862q0 -122 61.5 -193t181.5 -71q118 0 180 71t62 193v862z" />
    <glyph glyph-name="uring" unicode="&#x16f;" horiz-adv-x="1222" 
d="M600 1157q-127 0 -208 77.5t-81 199.5q0 119 81.5 196.5t207.5 77.5q128 0 208.5 -77.5t80.5 -196.5q0 -123 -80 -200t-209 -77zM600 1520q-40 0 -66 -24.5t-26 -61.5q0 -40 26 -65.5t66 -25.5t66 25.5t26 65.5q0 37 -26 61.5t-66 24.5zM784 1079h340v-1079h-319v90
q-124 -117 -301 -117q-200 0 -308 121t-108 312v673h342v-628q0 -77 47.5 -126t128.5 -49t129.5 49t48.5 126v628z" />
    <glyph glyph-name="Uhungarumlaut" unicode="&#x170;" horiz-adv-x="1384" 
d="M731 1882l-299 -377l-209 152l275 397zM932 1505l-209 152l274 397l236 -172zM936 1423h342v-864q0 -121 -37 -226t-107.5 -186t-184 -127.5t-255.5 -46.5q-143 0 -257 46.5t-185 127.5t-108.5 186t-37.5 226v864h345v-862q0 -122 61.5 -193t181.5 -71q118 0 180 71
t62 193v862z" />
    <glyph glyph-name="uhungarumlaut" unicode="&#x171;" horiz-adv-x="1222" 
d="M649 1526l-299 -367l-209 150l275 389zM846 1159l-209 150l274 389l234 -172zM784 451v628h340v-1079h-319v90q-124 -117 -301 -117q-200 0 -308 121t-108 312v673h342v-628q0 -77 47.5 -126t128.5 -49t129.5 49t48.5 126z" />
    <glyph glyph-name="Uogonek" unicode="&#x172;" horiz-adv-x="1384" 
d="M936 1423h342v-864q0 -186 -84.5 -330.5t-245.5 -210.5l-80 -77q-43 -44 -59 -72t-16 -57t16 -45.5t43 -16.5q40 0 66 29l118 -158q-36 -40 -99 -63t-140 -23q-117 0 -188.5 60.5t-71.5 160.5q0 113 112 219q-132 7 -237 55.5t-171 128.5t-100.5 181.5t-34.5 218.5v864
h345v-862q0 -122 61.5 -193t181.5 -71q118 0 180 71t62 193v862z" />
    <glyph glyph-name="uogonek" unicode="&#x173;" horiz-adv-x="1222" 
d="M1087 -246l119 -157q-36 -40 -99 -63t-140 -23q-117 0 -188.5 60.5t-71.5 160.5q0 136 170 268h-72v90q-124 -117 -301 -117q-200 0 -308 121t-108 312v673h342v-628q0 -77 47.5 -126t128.5 -49t129.5 49t48.5 126v628h340v-1079l-84 -84q-44 -44 -60.5 -72t-16.5 -57
t16 -45t43 -16q40 0 65 28z" />
    <glyph glyph-name="Wcircumflex" unicode="&#x174;" horiz-adv-x="1898" 
d="M946 1718l-139 -168h-303l309 394h277l301 -394h-301zM1552 1423h338l-321 -1423h-406l-213 944l-217 -944h-401l-324 1423h338l193 -1017l225 1017h371l225 -1022z" />
    <glyph glyph-name="wcircumflex" unicode="&#x175;" horiz-adv-x="1677" 
d="M838 1427l-136 -200h-294l288 418h293l279 -418h-295zM1333 1079h348l-274 -1079h-401l-160 686l-154 -686h-405l-277 1079h346l148 -733l151 733h381l154 -733z" />
    <glyph glyph-name="Ycircumflex" unicode="&#x176;" horiz-adv-x="1351" 
d="M678 1718l-139 -168h-303l309 394h276l301 -394h-303zM1364 1423l-516 -841v-582h-342v578l-516 845h383l305 -542l303 542h383z" />
    <glyph glyph-name="ycircumflex" unicode="&#x177;" horiz-adv-x="1169" 
d="M584 1427l-133 -200h-295l286 418h295l277 -418h-293zM819 1079h350l-383 -1079l-129 -367h-335l141 367h-115l-344 1079h352l213 -811z" />
    <glyph glyph-name="Ydieresis" unicode="&#x178;" horiz-adv-x="1351" 
d="M414 1538q-88 0 -149.5 60t-61.5 153q0 91 62.5 149t154.5 58q88 0 148.5 -60.5t60.5 -152.5q0 -90 -61.5 -148.5t-153.5 -58.5zM938 1538q-88 0 -149.5 60t-61.5 153q0 91 62.5 149t154.5 58q88 0 148.5 -60.5t60.5 -152.5q0 -90 -61.5 -148.5t-153.5 -58.5zM1364 1423
l-516 -841v-582h-342v578l-516 845h383l305 -542l303 542h383z" />
    <glyph glyph-name="Zacute" unicode="&#x179;" horiz-adv-x="1212" 
d="M983 1702l-635 -180l-76 245l627 213zM1147 307l8 -307h-1096v233l639 891h-624v299h1071v-231l-649 -885h651z" />
    <glyph glyph-name="zacute" unicode="&#x17a;" horiz-adv-x="1028" 
d="M831 1456l-522 -299l-137 217l508 330zM483 274h492v-274h-920v240l482 565h-461v274h880v-250z" />
    <glyph glyph-name="Zdotaccent" unicode="&#x17b;" horiz-adv-x="1212" 
d="M606 1538q-88 0 -150.5 60t-62.5 153q0 91 63 149t154 58q90 0 149.5 -60t59.5 -153q0 -90 -61 -148.5t-152 -58.5zM1147 307l8 -307h-1096v233l639 891h-624v299h1071v-231l-649 -885h651z" />
    <glyph glyph-name="zdotaccent" unicode="&#x17c;" horiz-adv-x="1028" 
d="M508 1225q-92 0 -153.5 59t-61.5 150q0 90 62 150.5t153 60.5t153 -60.5t62 -150.5q0 -91 -61.5 -150t-153.5 -59zM483 274h492v-274h-920v240l482 565h-461v274h880v-250z" />
    <glyph glyph-name="Zcaron" unicode="&#x17d;" horiz-adv-x="1212" 
d="M750 1550h-277l-309 394h303l139 -168l142 168h301zM1147 307l8 -307h-1096v233l639 891h-624v299h1071v-231l-649 -885h651z" />
    <glyph glyph-name="zcaron" unicode="&#x17e;" horiz-adv-x="1028" 
d="M657 1225h-292l-287 417h295l133 -200l137 200h293zM483 274h492v-274h-920v240l482 565h-461v274h880v-250z" />
    <glyph glyph-name="uni01EA" unicode="&#x1ea;" horiz-adv-x="1624" 
d="M1051 10l-82 -82q-44 -46 -61 -73.5t-17 -55.5q0 -29 16 -45t43 -16q40 0 66 29l121 -158q-37 -40 -101 -63t-141 -23q-116 0 -187 60.5t-71 160.5q0 115 125 231q-196 12 -356.5 111.5t-252.5 264t-92 360.5q0 207 99.5 376.5t272 266t380.5 96.5q207 0 378.5 -96.5
t270.5 -266t99 -376.5q0 -247 -141.5 -438.5t-368.5 -262.5zM410 713q0 -184 111 -300t292 -116q180 0 289.5 116t109.5 300q0 183 -108.5 298t-290.5 115q-184 0 -293.5 -115t-109.5 -298z" />
    <glyph glyph-name="uni01EB" unicode="&#x1eb;" horiz-adv-x="1284" 
d="M864 10l-82 -82q-44 -44 -60.5 -72t-16.5 -57q0 -28 16.5 -44.5t42.5 -16.5q41 0 65 31l121 -160q-37 -40 -100.5 -63t-140.5 -23q-116 0 -187 61t-71 162q0 118 122 231q-230 22 -376 179t-146 383q0 244 166.5 404.5t423.5 160.5q258 0 425 -160.5t167 -404.5
q0 -183 -100 -325t-269 -204zM395 539q0 -115 68.5 -189t179.5 -74q110 0 178 74t68 191q0 116 -67 188t-179 72t-180 -72.5t-68 -189.5z" />
    <glyph glyph-name="AEacute" unicode="&#x1fc;" horiz-adv-x="1955" 
d="M1575 1702l-635 -180l-76 245l627 213zM1241 297h643v-297h-985v262h-459l-118 -262h-357l645 1423h1264v-297h-633v-256h555v-297h-555v-276zM571 553h328v573h-68z" />
    <glyph glyph-name="aeacute" unicode="&#x1fd;" horiz-adv-x="2117" 
d="M1389 1458l-525 -299l-135 217l506 330zM1276 442q25 -96 90 -147t160 -51q169 0 243 123l279 -119q-141 -275 -457 -275q-248 0 -372 140v-113h-316v98q-119 -125 -311 -125q-154 0 -277.5 73.5t-192.5 203t-69 289.5t69 289t192.5 202.5t277.5 73.5q192 0 311 -125v100
h316v-121q120 146 337 146q121 0 219.5 -47t160.5 -124.5t95 -173.5t33 -198q0 -76 -6 -119h-782zM1272 641h485q-19 101 -80.5 158t-160.5 57q-100 0 -162.5 -55.5t-81.5 -159.5zM641 274q112 0 181 73.5t69 191.5q0 119 -69 192.5t-181 73.5q-107 0 -177.5 -75.5
t-70.5 -190.5q0 -116 69.5 -190.5t178.5 -74.5z" />
    <glyph glyph-name="Oslashacute" unicode="&#x1fe;" horiz-adv-x="1630" 
d="M1190 1702l-633 -180l-76 245l625 213zM1569 1296l-144 -149q140 -193 140 -436q0 -205 -99.5 -374.5t-271.5 -266.5t-379 -97q-219 0 -409 115l-146 -151l-199 186l146 151q-141 190 -141 437q0 155 58.5 292.5t158.5 235t238.5 154.5t293.5 57q225 0 410 -117l147 154z
M414 713q0 -106 37 -187l540 566q-75 34 -176 34q-182 0 -291.5 -115.5t-109.5 -297.5zM1217 713q0 98 -35 182l-541 -563q78 -35 174 -35q180 0 291 116t111 300z" />
    <glyph glyph-name="oslashacute" unicode="&#x1ff;" horiz-adv-x="1331" 
d="M995 1456l-524 -299l-135 217l506 330zM1313 938l-133 -115q73 -127 73 -284q0 -160 -75 -289t-210.5 -203t-305.5 -74q-195 0 -349 101l-135 -119l-162 178l134 115q-78 134 -78 291q0 244 166.5 404.5t423.5 160.5q204 0 358 -107l137 119zM666 276q108 0 175.5 74
t67.5 191q0 116 -66.5 188t-176.5 72q-113 0 -181.5 -72t-68.5 -190q0 -115 68.5 -189t181.5 -74z" />
    <glyph glyph-name="uni0218" unicode="&#x218;" horiz-adv-x="1222" 
d="M444 1047q0 -49 39.5 -84t102 -57.5t138.5 -45t152.5 -56.5t139 -81t102 -129.5t39.5 -192.5q0 -192 -150 -310t-407 -118q-209 0 -357 98t-202 277l324 125q26 -99 96.5 -152t171.5 -53q87 0 132.5 33t45.5 92q0 41 -24.5 72t-65.5 51.5t-94 38.5t-112 36.5t-117.5 40.5
t-111.5 55t-94 76.5t-65.5 109t-24.5 147.5q0 194 137 312t382 118q199 0 337 -92t177 -242l-322 -125q-45 168 -209 168q-77 0 -118.5 -30.5t-41.5 -81.5zM614 -98q71 0 117.5 -45.5t46.5 -116.5q0 -56 -21 -108t-77 -138l-68 -108l-153 59l69 117q11 19 15 28
q-43 19 -70 60.5t-27 93.5q0 70 48 114t120 44z" />
    <glyph glyph-name="uni0219" unicode="&#x219;" horiz-adv-x="1024" 
d="M414 784q0 -31 31 -52.5t80.5 -35.5t109.5 -29t120.5 -39.5t110 -59t80.5 -95t31 -141.5q0 -167 -125.5 -263t-339.5 -96q-184 0 -309 74.5t-172 214.5l282 109q46 -142 211 -142q58 0 88.5 21.5t30.5 58.5q0 34 -31 59t-80.5 42t-109.5 34t-120.5 41.5t-110 58.5
t-80.5 91.5t-31 132.5q0 156 119.5 246t324.5 90q167 0 279.5 -63.5t144.5 -176.5l-282 -110q-37 102 -148 102q-104 0 -104 -72zM545 -98q71 0 117.5 -45.5t46.5 -116.5q0 -56 -21 -108t-78 -138l-69 -108l-154 59l72 117q8 14 14 28q-43 19 -69.5 60.5t-26.5 93.5
q0 70 48 114t120 44z" />
    <glyph glyph-name="uni021A" unicode="&#x21a;" horiz-adv-x="1218" 
d="M1194 1423v-305h-414v-1118h-342v1118h-413v305h1169zM610 -98q71 0 117.5 -45.5t46.5 -116.5q0 -56 -21 -108t-77 -138l-68 -108l-153 59l69 117q6 10 15 28q-43 21 -70 61.5t-27 92.5q0 70 48 114t120 44z" />
    <glyph glyph-name="uni021B" unicode="&#x21b;" horiz-adv-x="845" 
d="M694 297h113v-297h-184q-204 0 -312 112t-108 304v372h-180v291h86q114 0 114 121v166h332v-287h246v-291h-258v-331q0 -78 39.5 -119t111.5 -41zM522 -78q71 0 117.5 -45.5t46.5 -118.5q0 -55 -21 -107t-77 -136l-68 -111l-153 59l69 119q5 6 15 27q-43 21 -70 61
t-27 92q0 70 48.5 115t119.5 45z" />
    <glyph glyph-name="uni0237" unicode="&#x237;" horiz-adv-x="544" 
d="M-74 -379l-2 291h21q72 0 115.5 46.5t43.5 127.5v993h342v-987q0 -219 -128.5 -345t-327.5 -126h-64z" />
    <glyph glyph-name="circumflex" unicode="&#x2c6;" horiz-adv-x="813" 
d="M922 1227h-295l-138 200l-133 -200h-295l289 418h293z" />
    <glyph glyph-name="caron" unicode="&#x2c7;" horiz-adv-x="964" 
d="M627 1645h295l-279 -418h-293l-289 418h295l133 -201z" />
    <glyph glyph-name="breve" unicode="&#x2d8;" horiz-adv-x="845" 
d="M463 1227q-188 0 -295 113t-107 305h267q0 -83 37 -125.5t98 -42.5q60 0 96.5 42.5t36.5 125.5h266q0 -192 -106.5 -305t-292.5 -113z" />
    <glyph glyph-name="dotaccent" unicode="&#x2d9;" horiz-adv-x="456" 
d="M276 1227q-92 0 -153.5 59t-61.5 150q0 90 62 150.5t153 60.5t153.5 -60.5t62.5 -150.5q0 -91 -62 -150t-154 -59z" />
    <glyph glyph-name="ring" unicode="&#x2da;" horiz-adv-x="612" 
d="M352 1157q-128 0 -209.5 77t-81.5 200q0 119 82 196.5t209 77.5t207 -77.5t80 -196.5q0 -123 -80 -200t-207 -77zM352 1343q38 0 64 25.5t26 65.5q0 37 -26 61.5t-64 24.5q-41 0 -67.5 -24.5t-26.5 -61.5q0 -40 26.5 -65.5t67.5 -25.5z" />
    <glyph glyph-name="ogonek" unicode="&#x2db;" horiz-adv-x="622" 
d="M322 -487q-117 0 -189 60.5t-72 160.5q0 144 195 286l102 74l121 -92l-86 -84q-44 -44 -60 -71.5t-16 -57.5q0 -29 16.5 -45t43.5 -16q37 0 65 28l119 -157q-37 -40 -100 -63t-139 -23z" />
    <glyph glyph-name="tilde" unicode="&#x2dc;" horiz-adv-x="991" 
d="M653 1247q-44 0 -85 15.5t-66 34t-56 34t-59 15.5q-35 0 -60 -22t-34 -62l-232 98q13 51 33 95t52 84t79.5 63.5t106.5 23.5q43 0 83 -15.5t65 -33.5t57.5 -33.5t62.5 -15.5q31 0 55.5 22t34.5 62l232 -99q-71 -266 -269 -266z" />
    <glyph glyph-name="hungarumlaut" unicode="&#x2dd;" horiz-adv-x="888" 
d="M268 1159l-207 150l273 389l235 -172zM764 1159l-207 150l272 389l236 -172z" />
    <glyph glyph-name="gravecomb" unicode="&#x300;" 
d="M-199 1159l-522 299l154 248l506 -330z" />
    <glyph glyph-name="acutecomb" unicode="&#x301;" 
d="M-584 1159l-137 217l506 330l154 -248z" />
    <glyph glyph-name="uni0302" unicode="&#x302;" 
d="M-61 1227h-295l-138 200l-133 -200h-295l289 418h293z" />
    <glyph glyph-name="tildecomb" unicode="&#x303;" 
d="M-330 1247q-44 0 -85 15.5t-66 34t-56 34t-59 15.5q-35 0 -60 -22t-34 -62l-232 98q13 51 33 95t52 84t79.5 63.5t106.5 23.5q43 0 83 -15.5t65 -33.5t57.5 -33.5t62.5 -15.5q31 0 55.5 22t34.5 62l232 -99q-71 -266 -269 -266z" />
    <glyph glyph-name="uni0304" unicode="&#x304;" 
d="M-768 1303v268h707v-268h-707z" />
    <glyph glyph-name="uni0306" unicode="&#x306;" 
d="M-424 1227q-188 0 -294.5 113t-106.5 305h266q0 -83 37 -125.5t98 -42.5q60 0 96.5 42.5t36.5 125.5h266q0 -192 -106.5 -305t-292.5 -113z" />
    <glyph glyph-name="uni0307" unicode="&#x307;" 
d="M-276 1227q-92 0 -154 59t-62 150q0 90 62.5 150.5t153.5 60.5t153 -60.5t62 -150.5q0 -91 -61.5 -150t-153.5 -59z" />
    <glyph glyph-name="uni0308" unicode="&#x308;" 
d="M-776 1233q-85 0 -144 57.5t-59 147.5q0 89 60 144.5t149 55.5q86 0 143.5 -58t57.5 -148q0 -87 -59 -143t-148 -56zM-268 1233q-85 0 -145 57.5t-60 147.5q0 89 60.5 144.5t148.5 55.5q87 0 145 -58t58 -148q0 -87 -59 -143t-148 -56z" />
    <glyph glyph-name="uni030A" unicode="&#x30a;" 
d="M-348 1157q-128 0 -209.5 77t-81.5 200q0 119 82 196.5t209 77.5t207 -77.5t80 -196.5q0 -123 -80 -200t-207 -77zM-348 1343q38 0 64 25.5t26 65.5q0 37 -26 61.5t-64 24.5q-41 0 -67.5 -24.5t-26.5 -61.5q0 -40 26.5 -65.5t67.5 -25.5z" />
    <glyph glyph-name="uni030B" unicode="&#x30b;" 
d="M-856 1159l-209 150l274 389l234 -172zM-360 1159l-209 150l274 389l234 -172z" />
    <glyph glyph-name="uni030C" unicode="&#x30c;" 
d="M-356 1645h295l-279 -418h-293l-289 418h295l133 -201z" />
    <glyph glyph-name="uni0326" unicode="&#x326;" 
d="M-223 -98q71 0 117.5 -45.5t46.5 -116.5q0 -56 -21 -108t-78 -138l-69 -108l-154 59l72 117q8 14 14 28q-43 19 -69.5 60.5t-26.5 93.5q0 70 48 114t120 44z" />
    <glyph glyph-name="uni0327" unicode="&#x327;" 
d="M-340 -496q-82 0 -151.5 27.5t-108.5 69.5l111 139q38 -51 102 -51q39 0 61.5 18.5t22.5 48.5q0 32 -23.5 53t-64.5 21h-31l-16 14l67 193h201l-43 -119q65 -9 108.5 -62.5t43.5 -129.5q0 -100 -77 -161t-202 -61z" />
    <glyph glyph-name="uni0328" unicode="&#x328;" 
d="M-301 -487q-117 0 -188.5 60.5t-71.5 160.5q0 145 194 286l103 74l121 -92l-86 -84q-44 -44 -60 -71.5t-16 -57.5q0 -29 16 -45t43 -16q38 0 66 28l119 -157q-37 -40 -100.5 -63t-139.5 -23z" />
    <glyph glyph-name="uni0335" unicode="&#x335;" 
d="M-823 461v233h762v-233h-762z" />
    <glyph glyph-name="uni0336" unicode="&#x336;" 
d="M-1489 539v266h1428v-266h-1428z" />
    <glyph glyph-name="uni0337" unicode="&#x337;" 
d="M-764 346l-127 215l682 377l125 -213z" />
    <glyph glyph-name="uni0338" unicode="&#x338;" 
d="M-492 907l275 240l156 -180l-277 -238zM-1106 377l154 -182l-244 -211l-160 180z" />
    <glyph glyph-name="Wgrave" unicode="&#x1e80;" horiz-adv-x="1898" 
d="M1303 1767l-76 -245l-633 180l84 278zM1552 1423h338l-321 -1423h-406l-213 944l-217 -944h-401l-324 1423h338l193 -1017l225 1017h371l225 -1022z" />
    <glyph glyph-name="wgrave" unicode="&#x1e81;" horiz-adv-x="1677" 
d="M1149 1376l-135 -217l-525 299l154 248zM1333 1079h348l-274 -1079h-401l-160 686l-154 -686h-405l-277 1079h346l148 -733l151 733h381l154 -733z" />
    <glyph glyph-name="Wacute" unicode="&#x1e82;" horiz-adv-x="1898" 
d="M1323 1702l-635 -180l-74 245l625 213zM1552 1423h338l-321 -1423h-406l-213 944l-217 -944h-401l-324 1423h338l193 -1017l225 1017h371l225 -1022z" />
    <glyph glyph-name="wacute" unicode="&#x1e83;" horiz-adv-x="1677" 
d="M1163 1458l-522 -299l-137 217l506 330zM1333 1079h348l-274 -1079h-401l-160 686l-154 -686h-405l-277 1079h346l148 -733l151 733h381l154 -733z" />
    <glyph glyph-name="Wdieresis" unicode="&#x1e84;" horiz-adv-x="1898" 
d="M682 1538q-88 0 -149.5 60t-61.5 153q0 91 62.5 149t154.5 58q88 0 148.5 -60.5t60.5 -152.5q0 -90 -61.5 -148.5t-153.5 -58.5zM1206 1538q-88 0 -149.5 60t-61.5 153q0 91 62.5 149t154.5 58q88 0 148.5 -60.5t60.5 -152.5q0 -90 -61.5 -148.5t-153.5 -58.5zM1552 1423
h338l-321 -1423h-406l-213 944l-217 -944h-401l-324 1423h338l193 -1017l225 1017h371l225 -1022z" />
    <glyph glyph-name="wdieresis" unicode="&#x1e85;" horiz-adv-x="1677" 
d="M582 1233q-85 0 -144 57.5t-59 147.5q0 89 60 144.5t149 55.5q86 0 143 -58t57 -148q0 -87 -59.5 -143t-146.5 -56zM1087 1233q-85 0 -143.5 57.5t-58.5 147.5q0 89 60 144.5t149 55.5q86 0 144 -58t58 -148q0 -87 -60 -143t-149 -56zM1333 1079h348l-274 -1079h-401
l-160 686l-154 -686h-405l-277 1079h346l148 -733l151 733h381l154 -733z" />
    <glyph glyph-name="uni1E9E" unicode="&#x1e9e;" horiz-adv-x="1343" 
d="M985 770q138 -37 218.5 -138.5t80.5 -246.5q0 -188 -129 -296.5t-348 -108.5q-201 0 -281 94l101 252q51 -70 145 -70q82 0 125 42t43 118q0 78 -53 122t-148 44h-71v194l215 301q-72 72 -197 72q-114 0 -174.5 -59t-60.5 -162v-928h-342v926q0 236 157 377t414 141
q217 0 355.5 -89.5t197.5 -248.5z" />
    <glyph glyph-name="Ygrave" unicode="&#x1ef2;" horiz-adv-x="1351" 
d="M1034 1767l-76 -245l-632 180l82 278zM1364 1423l-516 -841v-582h-342v578l-516 845h383l305 -542l303 542h383z" />
    <glyph glyph-name="ygrave" unicode="&#x1ef3;" horiz-adv-x="1169" 
d="M897 1376l-137 -217l-522 299l153 248zM819 1079h350l-383 -1079l-129 -367h-335l141 367h-115l-344 1079h352l213 -811z" />
    <glyph glyph-name="uni1EF8" unicode="&#x1ef8;" horiz-adv-x="1351" 
d="M575 1642q-78 0 -96 -83l-233 98q27 107 103 186.5t194 79.5q48 0 90.5 -15.5t68 -33.5t57 -33.5t60.5 -15.5q72 0 96 84l232 -99q-30 -112 -104.5 -189t-190.5 -77q-47 0 -89 15.5t-67 33.5t-57.5 33.5t-63.5 15.5zM1364 1423l-516 -841v-582h-342v578l-516 845h383
l305 -542l303 542h383z" />
    <glyph glyph-name="uni1EF9" unicode="&#x1ef9;" horiz-adv-x="1169" 
d="M479 1346q-33 0 -58.5 -22t-35.5 -62l-231 98q13 51 33.5 95t52 84t79 63.5t105.5 23.5q44 0 84 -15.5t64.5 -33.5t57 -33.5t62.5 -15.5q32 0 56.5 22t33.5 62l234 -99q-71 -266 -268 -266q-45 0 -86 15.5t-67 34t-57.5 34t-58.5 15.5zM819 1079h350l-383 -1079
l-129 -367h-335l141 367h-115l-344 1079h352l213 -811z" />
    <glyph glyph-name="endash" unicode="&#x2013;" horiz-adv-x="1034" 
d="M100 362v277h834v-277h-834z" />
    <glyph glyph-name="emdash" unicode="&#x2014;" horiz-adv-x="1533" 
d="M100 362v277h1334v-277h-1334z" />
    <glyph glyph-name="quoteleft" unicode="&#x2018;" horiz-adv-x="475" 
d="M276 1180q65 -11 104.5 -56t39.5 -116q0 -79 -55 -132t-132 -53q-76 0 -130 53.5t-54 135.5q0 81 47 184l125 268h187z" />
    <glyph glyph-name="quoteright" unicode="&#x2019;" horiz-adv-x="479" 
d="M252 1481q78 0 132 -54t54 -137q0 -81 -49 -182l-123 -268h-188l133 282q-65 11 -104 56.5t-39 115.5q0 80 54 133.5t130 53.5z" />
    <glyph glyph-name="quotesinglbase" unicode="&#x201a;" horiz-adv-x="485" 
d="M242 338q78 0 131 -53.5t53 -137.5q0 -79 -47 -182l-125 -268h-186l133 285q-65 9 -104.5 54t-39.5 118q0 78 54.5 131t130.5 53z" />
    <glyph glyph-name="quotedblleft" unicode="&#x201c;" horiz-adv-x="909" 
d="M276 1180q65 -11 104.5 -56t39.5 -116q0 -79 -55 -132t-132 -53q-76 0 -130 53.5t-54 135.5q0 81 47 184l125 268h187zM711 1180q64 -11 102.5 -56t38.5 -116q0 -79 -53.5 -132t-130.5 -53t-131 53.5t-54 135.5q0 81 47 184l125 268h187z" />
    <glyph glyph-name="quotedblright" unicode="&#x201d;" horiz-adv-x="913" 
d="M252 1481q78 0 132 -54t54 -137q0 -81 -49 -182l-123 -268h-188l133 282q-65 11 -104 56.5t-39 115.5q0 80 54 133.5t130 53.5zM686 1481q78 0 131 -53.5t53 -137.5q0 -79 -47 -182l-125 -268h-186l133 282q-65 11 -104 55.5t-39 116.5q0 80 54 133.5t130 53.5z" />
    <glyph glyph-name="quotedblbase" unicode="&#x201e;" horiz-adv-x="919" 
d="M242 338q78 0 131 -53.5t53 -137.5q0 -79 -47 -182l-125 -268h-186l133 285q-65 9 -104.5 54t-39.5 118q0 78 54.5 131t130.5 53zM676 338q77 0 130.5 -54t53.5 -137q0 -79 -47 -182l-125 -268h-186l131 285q-64 11 -102.5 56t-38.5 116q0 79 53.5 131.5t130.5 52.5z" />
    <glyph glyph-name="dagger" unicode="&#x2020;" horiz-adv-x="800" 
d="M729 1260v-234h-203v-473h-252v473h-202v234h202v237h252v-237h203z" />
    <glyph glyph-name="daggerdbl" unicode="&#x2021;" horiz-adv-x="851" 
d="M756 1106h-205v-162h205v-235h-205v-156h-252v156h-201v235h201v162h-201v235h201v156h252v-156h205v-235z" />
    <glyph glyph-name="bullet" unicode="&#x2022;" horiz-adv-x="825" 
d="M414 391q-129 0 -216 86t-87 213q0 133 86.5 220t216.5 87q128 0 214.5 -87t86.5 -220q0 -127 -86.5 -213t-214.5 -86z" />
    <glyph glyph-name="ellipsis" unicode="&#x2026;" horiz-adv-x="1390" 
d="M244 -20q-78 0 -131.5 53t-53.5 131q0 81 53 134.5t132 53.5q80 0 133 -53.5t53 -134.5q0 -78 -53.5 -131t-132.5 -53zM694 -20q-78 0 -131 53t-53 131q0 81 53 134.5t131 53.5q80 0 133.5 -53.5t53.5 -134.5q0 -78 -54 -131t-133 -53zM1145 -20q-78 0 -131 53t-53 131
q0 81 53 134.5t131 53.5q80 0 133 -53.5t53 -134.5q0 -78 -53.5 -131t-132.5 -53z" />
    <glyph glyph-name="perthousand" unicode="&#x2030;" horiz-adv-x="2240" 
d="M379 774q-142 0 -237 97t-95 237q0 139 95.5 236.5t236.5 97.5q144 0 239 -97t95 -237q0 -141 -94.5 -237.5t-239.5 -96.5zM240 0l804 1423l265 2l-811 -1423zM379 985q51 0 84 35t33 88q0 52 -32.5 87.5t-84.5 35.5q-50 0 -82.5 -35.5t-32.5 -87.5q0 -53 33 -88t82 -35z
M1161 -18q-141 0 -236.5 97t-95.5 236t95.5 236.5t236.5 97.5q144 0 239 -97t95 -237t-95 -236.5t-239 -96.5zM1866 -18q-143 0 -238.5 97t-95.5 236q0 140 95.5 237t238.5 97t237.5 -97t94.5 -237t-94.5 -236.5t-237.5 -96.5zM1161 193q51 0 84 34.5t33 87.5t-32.5 88
t-84.5 35q-50 0 -82 -35t-32 -88t32.5 -87.5t81.5 -34.5zM1866 193q51 0 82.5 34.5t31.5 87.5t-31 88t-83 35t-84.5 -35t-32.5 -88t33 -87.5t84 -34.5z" />
    <glyph glyph-name="guilsinglleft" unicode="&#x2039;" horiz-adv-x="677" 
d="M285 141l-240 355l240 352h315l-240 -352l240 -355h-315z" />
    <glyph glyph-name="guilsinglright" unicode="&#x203a;" horiz-adv-x="677" 
d="M78 141l239 355l-239 352h315l240 -352l-240 -355h-315z" />
    <glyph glyph-name="fraction" unicode="&#x2044;" horiz-adv-x="851" 
d="M-35 0l682 1423h246l-684 -1423h-244z" />
    <glyph glyph-name="uni2074" unicode="&#x2074;" horiz-adv-x="686" 
d="M625 989v-149h-62v-129h-213v129h-305v157l307 426h211v-434h62zM352 989v199l-143 -199h143z" />
    <glyph glyph-name="Euro" unicode="&#x20ac;" horiz-adv-x="1554" 
d="M897 297q229 0 311 178l293 -196q-85 -135 -237.5 -220.5t-358.5 -85.5q-238 0 -423 124.5t-259 330.5h-174l21 219h110v31v31h-100l20 219h123q74 208 259 332t425 124q204 0 356.5 -85.5t237.5 -219.5l-293 -196q-87 178 -309 178q-187 0 -291 -133h326l-19 -219h-387
v-31v-31h377l-22 -219h-275q103 -131 289 -131z" />
    <glyph glyph-name="trademark" unicode="&#x2122;" horiz-adv-x="1357" 
d="M539 1356v-158h-156v-412h-176v412h-156v158h488zM1264 786h-162l-23 295l-82 -280h-145l-80 280l-22 -295h-164l45 570h207l88 -316l88 316h205z" />
    <glyph glyph-name="minus" unicode="&#x2212;" horiz-adv-x="1081" 
d="M109 537v286h866v-286h-866z" />
    <glyph glyph-name="approxequal" unicode="&#x2248;" horiz-adv-x="1103" 
d="M745 688q-56 0 -106 16.5t-80.5 37t-72.5 37t-85 16.5q-109 0 -161 -78l-160 184q49 82 121.5 126t156.5 44q57 0 107 -16.5t80.5 -36.5t72 -36.5t84.5 -16.5q113 0 162 77l160 -184q-49 -83 -121.5 -126.5t-157.5 -43.5zM745 219q-57 0 -107 16.5t-80.5 36t-72 36
t-84.5 16.5q-113 0 -161 -78l-160 184q49 83 121 126.5t157 43.5q57 0 107 -16.5t80.5 -36.5t72 -36.5t84.5 -16.5q111 0 162 79l160 -184q-49 -82 -122 -126t-157 -44z" />
    <glyph glyph-name="notequal" unicode="&#x2260;" horiz-adv-x="1083" 
d="M975 737h-250l-57 -186h307v-287h-397l-58 -180h-315l57 180h-153v287h243l60 186h-303v287h393l57 178h313l-55 -178h158v-287z" />
    <glyph glyph-name="uniF8FF" unicode="&#xf8ff;" horiz-adv-x="4724" 
d="M1149 408q-95 0 -136.5 40t-41.5 130v466h203q0 -62 -40 -122t-98 -86l2 -9q58 35 119 35h105v-162h-86v-98q0 -35 36 -35q28 0 50 15v-154q-36 -20 -113 -20zM1303 418v626h200q0 -67 -47 -122t-115 -70l5 -6q84 16 143 16h16v-444h-202zM2808 408q-95 0 -137.5 40.5
t-42.5 129.5v466h202q0 -62 -39 -122t-98 -86l4 -9q58 35 119 35h102v-162h-86v-98q0 -35 37 -35q27 0 49 15v-154q-36 -20 -110 -20zM205 418v624h203v-624h-203zM584 408q-66 0 -105 34t-39 90q0 60 41 98t111 38q92 0 135 -43h4v71q0 24 -12 38t-35 14q-47 0 -47 -60
l-184 29q37 160 249 160q110 0 172 -50t62 -135v-274h-201v45h-6q-14 -20 -51.5 -37.5t-93.5 -17.5zM1548 418v444h199v-133h6q17 143 145 143q70 0 110 -46t40 -134v-274h-205v264q0 55 -39 55q-22 0 -32 -13t-21 -52v-254h-203zM2337 408q-123 0 -190.5 63.5t-67.5 167.5
t69 168.5t189 64.5q122 0 190 -64.5t68 -168.5q0 -103 -67.5 -167t-190.5 -64zM3463 270v592h203v-133h6q21 143 150 143q170 0 170 -233q0 -115 -51.5 -173t-125.5 -58q-105 0 -141 88h-6v-226h-205zM4274 408q-120 0 -187 63.5t-67 167.5q0 103 70 168t190 65
q107 0 173.5 -64.5t66.5 -158.5v-18h-307q0 -39 18.5 -66.5t50.5 -27.5q55 0 62 69l168 -16q-18 -95 -83 -138.5t-155 -43.5zM3015 262v135h133q115 0 137 25l-2 6h-139q-83 0 -107 80l-110 354h204q6 -37 20 -110t24 -134t14 -110h4q13 125 61 354h203l-145 -424
q-63 -176 -217 -176h-80zM4213 655h12q62 0 87.5 12t25.5 38q0 45 -49 45q-34 0 -55 -26t-21 -69zM3738 506q31 0 46 27.5t15 89.5q0 66 -12 95.5t-43 29.5q-46 0 -62 -68v-148q21 -26 56 -26zM2337 535q59 0 59 104q0 106 -59 106q-58 0 -58 -106q0 -104 58 -104zM686 469
q30 0 45 23v104q-10 16 -39 16q-25 0 -40 -19t-15 -52q0 -72 49 -72z" />
    <glyph glyph-name="uni00A40301" horiz-adv-x="720" 
d="M182 1522l-76 245l627 213l84 -278zM45 0v305h78q72 0 108.5 40t36.5 112v966h344v-970q0 -210 -118 -331.5t-342 -121.5h-107z" />
    <glyph glyph-name="Q.ss01" horiz-adv-x="1622" 
d="M1391 305h182v-305h-760q-216 0 -388 91.5t-268 254.5t-96 367q0 206 99.5 375t272 265.5t380.5 96.5q206 0 376 -95t266.5 -258t96.5 -358q0 -259 -161 -434zM807 301q177 0 287 115.5t110 298.5q0 181 -109 296t-288 115t-288 -115t-109 -296q0 -182 110.5 -298
t286.5 -116z" />
    <glyph glyph-name="i.loclTRK" horiz-adv-x="538" 
d="M270 1225q-92 0 -153.5 59t-61.5 150q0 92 61.5 151.5t153.5 59.5t153.5 -59.5t61.5 -151.5q0 -91 -61.5 -150t-153.5 -59zM98 0v1079h342v-1079h-342z" />
    <glyph glyph-name="uni006A0301" horiz-adv-x="544" 
d="M86 1157l-137 219l506 330l153 -248zM-74 -379l-2 291h21q72 0 115.5 46.5t43.5 127.5v993h342v-987q0 -219 -128.5 -345t-327.5 -126h-64z" />
    <glyph glyph-name="g.ss01" horiz-adv-x="1206" 
d="M1169 1079v-291h-151q18 -64 18 -139q0 -194 -116 -319q190 -99 190 -324q0 -172 -151 -285.5t-400 -113.5q-439 0 -555 311l307 119q61 -152 240 -152q102 0 156.5 42.5t54.5 111.5q0 68 -54 109.5t-155 41.5q-226 0 -364 127.5t-138 331.5q0 199 138.5 328t363.5 129
q91 0 180 -27h436zM373 649q0 -77 50.5 -128.5t129.5 -51.5q77 0 127.5 51.5t50.5 128.5q0 76 -50 127t-128 51q-80 0 -130 -51t-50 -127z" />
    <glyph glyph-name="gbreve.ss01" horiz-adv-x="1206" 
d="M573 1227q-186 0 -293.5 113t-107.5 305h266q0 -83 37 -125.5t98 -42.5t97.5 42.5t36.5 125.5h266q0 -192 -107 -305t-293 -113zM1169 1079v-291h-151q18 -64 18 -139q0 -194 -116 -319q190 -99 190 -324q0 -172 -151 -285.5t-400 -113.5q-439 0 -555 311l307 119
q61 -152 240 -152q102 0 156.5 42.5t54.5 111.5q0 68 -54 109.5t-155 41.5q-226 0 -364 127.5t-138 331.5q0 199 138.5 328t363.5 129q91 0 180 -27h436zM373 649q0 -77 50.5 -128.5t129.5 -51.5q77 0 127.5 51.5t50.5 128.5q0 76 -50 127t-128 51q-80 0 -130 -51t-50 -127z
" />
    <glyph glyph-name="uni0123.ss01" horiz-adv-x="1206" 
d="M590 1206q-70 0 -117 46t-47 118q0 56 21.5 108.5t78.5 135.5l68 110l154 -59l-72 -119q-3 -4 -14 -26q43 -21 69.5 -61.5t26.5 -92.5q0 -70 -48.5 -115t-119.5 -45zM1169 1079v-291h-151q18 -64 18 -139q0 -194 -116 -319q190 -99 190 -324q0 -172 -151 -285.5
t-400 -113.5q-439 0 -555 311l307 119q61 -152 240 -152q102 0 156.5 42.5t54.5 111.5q0 68 -54 109.5t-155 41.5q-226 0 -364 127.5t-138 331.5q0 199 138.5 328t363.5 129q91 0 180 -27h436zM373 649q0 -77 50.5 -128.5t129.5 -51.5q77 0 127.5 51.5t50.5 128.5
q0 76 -50 127t-128 51q-80 0 -130 -51t-50 -127z" />
    <glyph glyph-name="gdotaccent.ss01" horiz-adv-x="1206" 
d="M573 1227q-92 0 -153.5 59t-61.5 150q0 90 62 150.5t153 60.5t153 -60.5t62 -150.5q0 -91 -61.5 -150t-153.5 -59zM1169 1079v-291h-151q18 -64 18 -139q0 -194 -116 -319q190 -99 190 -324q0 -172 -151 -285.5t-400 -113.5q-439 0 -555 311l307 119q61 -152 240 -152
q102 0 156.5 42.5t54.5 111.5q0 68 -54 109.5t-155 41.5q-226 0 -364 127.5t-138 331.5q0 199 138.5 328t363.5 129q91 0 180 -27h436zM373 649q0 -77 50.5 -128.5t129.5 -51.5q77 0 127.5 51.5t50.5 128.5q0 76 -50 127t-128 51q-80 0 -130 -51t-50 -127z" />
    <glyph glyph-name="t.ss01" horiz-adv-x="825" 
d="M242 0v788h-222v291h127q115 0 115 121v166h332v-287h205v-291h-215v-788h-342z" />
    <glyph glyph-name="tbar.ss01" horiz-adv-x="890" 
d="M836 788h-218v-157h207v-236h-207v-395h-342v395h-213v236h213v157h-221v291h129q113 0 113 121v166h334v-287h205v-291z" />
    <glyph glyph-name="tcaron.ss01" horiz-adv-x="825" 
d="M696 1124l41 531h242l-64 -531h-219zM242 0v788h-222v291h127q115 0 115 121v166h332v-287h205v-291h-215v-788h-342z" />
    <glyph glyph-name="uni0163.ss01" horiz-adv-x="825" 
d="M584 0h-68l-33 -94q64 -8 108 -62.5t44 -128.5q0 -101 -77.5 -162t-201.5 -61q-83 0 -152.5 27.5t-107.5 70.5l111 138q39 -52 102 -52q37 0 59.5 20t22.5 50q0 31 -23 51.5t-63 20.5h-33l-16 14l57 168h-71v788h-222v291h127q115 0 115 121v166h332v-287h205v-291h-215
v-788z" />
    <glyph glyph-name="uni021B.ss01" horiz-adv-x="825" 
d="M594 1079h205v-291h-215v-788h-342v788h-222v291h127q115 0 115 121v166h332v-287zM418 -109q71 0 117.5 -45.5t46.5 -117.5q0 -55 -21.5 -107.5t-77.5 -138.5l-67 -109l-154 60l70 118q2 2 14 27q-43 21 -69.5 61.5t-26.5 92.5q0 70 48.5 114.5t119.5 44.5z" />
    <glyph glyph-name="u.ss01" horiz-adv-x="1208" 
d="M604 -27q-246 0 -382 132t-136 364v610h340v-622q0 -82 47.5 -131.5t130.5 -49.5t130.5 49.5t47.5 131.5v622h342v-610q0 -232 -136.5 -364t-383.5 -132z" />
    <glyph glyph-name="uacute.ss01" horiz-adv-x="1208" 
d="M406 1159l-136 217l506 330l154 -248zM604 -27q-246 0 -382 132t-136 364v610h340v-622q0 -82 47.5 -131.5t130.5 -49.5t130.5 49.5t47.5 131.5v622h342v-610q0 -232 -136.5 -364t-383.5 -132z" />
    <glyph glyph-name="ucircumflex.ss01" horiz-adv-x="1208" 
d="M602 1427l-133 -200h-295l287 418h295l276 -418h-293zM782 1079h342v-610q0 -232 -136.5 -364t-383.5 -132q-246 0 -382 132t-136 364v610h340v-622q0 -82 47.5 -131.5t130.5 -49.5t130.5 49.5t47.5 131.5v622z" />
    <glyph glyph-name="udieresis.ss01" horiz-adv-x="1208" 
d="M346 1233q-84 0 -143.5 57.5t-59.5 147.5q0 89 60.5 144.5t150.5 55.5q86 0 143.5 -58t57.5 -148q0 -87 -60 -143t-149 -56zM854 1233q-85 0 -144 57.5t-59 147.5q0 89 60 144.5t149 55.5q86 0 144.5 -58t58.5 -148q0 -87 -60 -143t-149 -56zM604 -27q-246 0 -382 132
t-136 364v610h340v-622q0 -82 47.5 -131.5t130.5 -49.5t130.5 49.5t47.5 131.5v622h342v-610q0 -232 -136.5 -364t-383.5 -132z" />
    <glyph glyph-name="ugrave.ss01" horiz-adv-x="1208" 
d="M778 1159l-522 299l154 248l505 -330zM604 -27q-246 0 -382 132t-136 364v610h340v-622q0 -82 47.5 -131.5t130.5 -49.5t130.5 49.5t47.5 131.5v622h342v-610q0 -232 -136.5 -364t-383.5 -132z" />
    <glyph glyph-name="uhungarumlaut.ss01" horiz-adv-x="1208" 
d="M352 1159l-207 150l273 389l235 -172zM850 1159l-209 150l274 389l234 -172zM604 -27q-246 0 -382 132t-136 364v610h340v-622q0 -82 47.5 -131.5t130.5 -49.5t130.5 49.5t47.5 131.5v622h342v-610q0 -232 -136.5 -364t-383.5 -132z" />
    <glyph glyph-name="umacron.ss01" horiz-adv-x="1208" 
d="M250 1303v268h706v-268h-706zM604 -27q-246 0 -382 132t-136 364v610h340v-622q0 -82 47.5 -131.5t130.5 -49.5t130.5 49.5t47.5 131.5v622h342v-610q0 -232 -136.5 -364t-383.5 -132z" />
    <glyph glyph-name="uogonek.ss01" horiz-adv-x="1208" 
d="M782 1079h342v-610q0 -180 -83.5 -301.5t-239.5 -167.5l-86 -84q-44 -44 -61 -72t-17 -57q0 -28 16.5 -44.5t42.5 -16.5q41 0 66 28l121 -157q-37 -40 -100.5 -63t-139.5 -23q-117 0 -188.5 60.5t-71.5 160.5q0 125 141 245q-210 22 -324 150.5t-114 341.5v610h340v-622
q0 -82 47.5 -131.5t130.5 -49.5t130.5 49.5t47.5 131.5v622z" />
    <glyph glyph-name="uring.ss01" horiz-adv-x="1208" 
d="M604 1157q-127 0 -208 77.5t-81 199.5q0 119 81.5 196.5t207.5 77.5q127 0 208 -77.5t81 -196.5q0 -123 -80.5 -200t-208.5 -77zM604 1343q40 0 66 25.5t26 65.5q0 37 -26 61.5t-66 24.5q-41 0 -66.5 -24.5t-25.5 -61.5q0 -40 25.5 -65.5t66.5 -25.5zM604 -27
q-246 0 -382 132t-136 364v610h340v-622q0 -82 47.5 -131.5t130.5 -49.5t130.5 49.5t47.5 131.5v622h342v-610q0 -232 -136.5 -364t-383.5 -132z" />
    <glyph glyph-name="utilde.ss01" horiz-adv-x="1208" 
d="M766 1247q-45 0 -86 15.5t-66.5 34t-57 34t-58.5 15.5q-33 0 -59 -22t-36 -62l-231 98q13 51 33.5 95t52 84t79 63.5t105.5 23.5q44 0 84 -15.5t65 -33.5t57.5 -33.5t62.5 -15.5q32 0 56.5 22t33.5 62l233 -99q-71 -266 -268 -266zM604 -27q-246 0 -382 132t-136 364v610
h340v-622q0 -82 47.5 -131.5t130.5 -49.5t130.5 49.5t47.5 131.5v622h342v-610q0 -232 -136.5 -364t-383.5 -132z" />
    <glyph glyph-name="y.ss01" horiz-adv-x="1218" 
d="M780 1079h342v-975q0 -234 -136.5 -365.5t-389.5 -131.5q-185 0 -311 75.5t-189 208.5l287 109q59 -131 215 -131q97 0 150 54t53 153v86q-124 -117 -301 -117q-197 0 -305.5 121t-108.5 311v602h340v-555q0 -78 48 -126.5t128 -47.5q79 0 128.5 47t49.5 127v555z" />
    <glyph glyph-name="yacute.ss01" horiz-adv-x="1218" 
d="M938 1458l-524 -299l-135 217l505 330zM780 1079h342v-975q0 -234 -136.5 -365.5t-389.5 -131.5q-185 0 -311 75.5t-189 208.5l287 109q59 -131 215 -131q97 0 150 54t53 153v86q-124 -117 -301 -117q-197 0 -305.5 121t-108.5 311v602h340v-555q0 -78 48 -126.5
t128 -47.5q79 0 128.5 47t49.5 127v555z" />
    <glyph glyph-name="ycircumflex.ss01" horiz-adv-x="1218" 
d="M610 1427l-133 -200h-295l289 418h293l278 -418h-294zM780 1079h342v-975q0 -234 -136.5 -365.5t-389.5 -131.5q-185 0 -311 75.5t-189 208.5l287 109q59 -131 215 -131q97 0 150 54t53 153v86q-124 -117 -301 -117q-197 0 -305.5 121t-108.5 311v602h340v-555
q0 -78 48 -126.5t128 -47.5q79 0 128.5 47t49.5 127v555z" />
    <glyph glyph-name="ydieresis.ss01" horiz-adv-x="1218" 
d="M356 1233q-85 0 -144.5 57.5t-59.5 147.5q0 89 60 144.5t150 55.5q86 0 143.5 -58t57.5 -148q0 -87 -60 -143t-147 -56zM862 1233q-85 0 -144 57.5t-59 147.5q0 89 60 144.5t149 55.5q86 0 144.5 -58t58.5 -148q0 -87 -60 -143t-149 -56zM780 1079h342v-975
q0 -234 -136.5 -365.5t-389.5 -131.5q-185 0 -311 75.5t-189 208.5l287 109q59 -131 215 -131q97 0 150 54t53 153v86q-124 -117 -301 -117q-197 0 -305.5 121t-108.5 311v602h340v-555q0 -78 48 -126.5t128 -47.5q79 0 128.5 47t49.5 127v555z" />
    <glyph glyph-name="ygrave.ss01" horiz-adv-x="1218" 
d="M924 1376l-136 -217l-524 299l154 248zM780 1079h342v-975q0 -234 -136.5 -365.5t-389.5 -131.5q-185 0 -311 75.5t-189 208.5l287 109q59 -131 215 -131q97 0 150 54t53 153v86q-124 -117 -301 -117q-197 0 -305.5 121t-108.5 311v602h340v-555q0 -78 48 -126.5
t128 -47.5q79 0 128.5 47t49.5 127v555z" />
    <glyph glyph-name="uni1EF9.ss01" horiz-adv-x="1218" 
d="M506 1346q-33 0 -58.5 -22t-35.5 -62l-230 98q12 51 32 95t52 84t79.5 63.5t105.5 23.5q44 0 84.5 -15.5t65 -33.5t56.5 -33.5t62 -15.5q32 0 56.5 22t33.5 62l233 -99q-71 -266 -268 -266q-44 0 -85 15.5t-66 34t-57 34t-60 15.5zM780 1079h342v-975
q0 -234 -136.5 -365.5t-389.5 -131.5q-185 0 -311 75.5t-189 208.5l287 109q59 -131 215 -131q97 0 150 54t53 153v86q-124 -117 -301 -117q-197 0 -305.5 121t-108.5 311v602h340v-555q0 -78 48 -126.5t128 -47.5q79 0 128.5 47t49.5 127v555z" />
    <glyph glyph-name="zero.osf" horiz-adv-x="1323" 
d="M662 -27q-169 0 -304 72t-212.5 203t-77.5 297q0 127 45 232.5t124.5 176.5t188.5 110.5t236 39.5q171 0 305 -67.5t211 -195t77 -296.5q0 -166 -77 -297t-212 -203t-304 -72zM662 276q111 0 183.5 71t72.5 194q0 119 -73 189.5t-183 70.5t-183 -70.5t-73 -189.5
q0 -121 73 -193t183 -72z" />
    <glyph glyph-name="one.osf" horiz-adv-x="954" 
d="M698 291h213v-291h-823v291h270v497h-280v291h620v-788z" />
    <glyph glyph-name="two.osf" horiz-adv-x="1144" 
d="M645 268h438v-268h-1020v215q178 83 296.5 150.5t182 122.5t88.5 98.5t25 89.5q0 59 -34.5 93t-94.5 34q-118 0 -157 -119l-308 100q35 140 172 230t318 90q207 0 326.5 -98.5t119.5 -272.5q0 -135 -82 -247t-270 -218z" />
    <glyph glyph-name="three.osf" horiz-adv-x="1144" 
d="M717 543q161 -19 264.5 -131.5t103.5 -272.5q0 -192 -148 -318t-384 -126q-198 0 -341.5 90t-186.5 235l311 125q23 -67 81.5 -106t137.5 -39q85 0 136.5 46t51.5 118t-50 117t-132 45h-246v219l273 243h-490v291h903v-266z" />
    <glyph glyph-name="four.osf" horiz-adv-x="1181" 
d="M1124 266v-250h-129v-258h-340v258h-610v252l612 811h338v-813h129zM657 266v389l-292 -389h292z" />
    <glyph glyph-name="five.osf" horiz-adv-x="1124" 
d="M541 575q253 0 391.5 -111.5t138.5 -313.5q0 -200 -145.5 -327.5t-393.5 -127.5q-192 0 -324.5 84t-193.5 250l312 123q21 -70 76.5 -111t134.5 -41q87 0 138.5 47t51.5 115q0 73 -49.5 119.5t-130.5 46.5h-400l41 751h785v-291h-498l-10 -213h76z" />
    <glyph glyph-name="six.osf" horiz-adv-x="1173" 
d="M659 930q211 -15 338 -141.5t127 -323.5q0 -217 -148 -354.5t-382 -137.5t-385.5 135t-151.5 347q0 64 14.5 124.5t41.5 113t46.5 83t47.5 68.5l381 508h395zM594 264q86 0 139 55t53 142q0 88 -52.5 142t-139.5 54q-88 0 -143.5 -54.5t-55.5 -141.5q0 -86 56.5 -141.5
t142.5 -55.5z" />
    <glyph glyph-name="seven.osf" horiz-adv-x="1024" 
d="M31 1079h952v-256l-430 -1093h-381l430 1065h-571v284z" />
    <glyph glyph-name="eight.osf" horiz-adv-x="1200" 
d="M887 711q114 -43 180 -133.5t66 -204.5q0 -183 -144.5 -291.5t-388.5 -108.5q-245 0 -388.5 109t-143.5 291q0 117 62.5 208t174.5 130q-83 41 -133.5 116t-50.5 179q0 163 126.5 267.5t352.5 104.5q227 -1 352 -105t125 -269q0 -104 -51 -178.5t-139 -114.5zM600 1102
q-70 0 -113 -36.5t-43 -98.5t44 -101t112 -39t111 38.5t43 101.5q0 62 -42 98.5t-112 36.5zM600 248q88 0 141.5 45.5t53.5 120.5q0 71 -53.5 116t-141.5 45t-141 -45t-53 -116q0 -75 52.5 -120.5t141.5 -45.5z" />
    <glyph glyph-name="nine.osf" horiz-adv-x="1153" 
d="M571 1106q149 0 270.5 -58.5t193 -168.5t71.5 -252q0 -76 -23.5 -149.5t-47 -113t-60.5 -90.5l-402 -546h-393l318 424q-208 19 -334.5 141t-126.5 321q0 148 71 261t191.5 172t271.5 59zM571 424q86 0 140.5 53.5t54.5 140.5t-55 142t-140 55t-140.5 -55t-55.5 -142
q0 -88 55 -141t141 -53z" />
    <glyph glyph-name="uni030C.alt" 
d="M-416 913l41 531h240l-62 -531h-219z" />
    <glyph glyph-name="caron.alt" horiz-adv-x="466" 
d="M109 913l41 531h239l-61 -531h-219z" />
    <glyph glyph-name="uni0308.case" 
d="M-801 1538q-88 0 -149.5 60t-61.5 153q0 91 62.5 149t154.5 58q88 0 148.5 -60.5t60.5 -152.5q0 -90 -61.5 -148.5t-153.5 -58.5zM-276 1538q-88 0 -149.5 60t-61.5 153q0 91 62.5 149t154.5 58q88 0 148.5 -60.5t60.5 -152.5q0 -90 -61.5 -148.5t-153.5 -58.5z" />
    <glyph glyph-name="uni0307.case" 
d="M-276 1538q-88 0 -149.5 60t-61.5 153q0 91 62.5 149t154.5 58q89 0 149 -60t60 -153q0 -90 -61.5 -148.5t-153.5 -58.5z" />
    <glyph glyph-name="gravecomb.case" 
d="M-137 1522l-633 180l84 278l625 -213z" />
    <glyph glyph-name="acutecomb.case" 
d="M-694 1522l-76 245l625 213l84 -278z" />
    <glyph glyph-name="uni030B.case" 
d="M-860 1505l-209 152l274 397l234 -172zM-360 1505l-209 152l274 397l234 -172z" />
    <glyph glyph-name="uni0302.case" 
d="M-61 1550h-301l-144 168l-139 -168h-303l309 394h277z" />
    <glyph glyph-name="uni030C.case" 
d="M-362 1944h301l-301 -394h-277l-309 394h303l139 -168z" />
    <glyph glyph-name="uni0306.case" 
d="M-463 1550q-182 0 -289.5 110t-107.5 284h278q0 -64 32 -104t87 -40t88 40t33 104h276q0 -174 -107.5 -284t-289.5 -110z" />
    <glyph glyph-name="uni030A.case" 
d="M-346 1407q-127 0 -208 77t-81 199q0 119 81.5 197t207.5 78q127 0 208 -78t81 -197q0 -123 -80.5 -199.5t-208.5 -76.5zM-346 1593q40 0 66 25t26 65q0 37 -26 61.5t-66 24.5q-41 0 -66.5 -24.5t-25.5 -61.5q0 -40 25.5 -65t66.5 -25z" />
    <glyph glyph-name="tildecomb.case" 
d="M-358 1559q-47 0 -88.5 15t-66.5 33t-57.5 33t-62.5 15q-78 0 -96 -84l-234 98q27 107 103 186.5t194 79.5q47 0 89.5 -15.5t68.5 -33.5t58 -33.5t61 -15.5q73 0 94 86l234 -98q-30 -113 -104.5 -189.5t-192.5 -76.5z" />
    <glyph glyph-name="uni0304.case" 
d="M-836 1610v278h775v-278h-775z" />
    <glyph glyph-name="uni0326.case" 
d="M-223 -98q71 0 117.5 -45.5t46.5 -116.5q0 -56 -21 -108t-78 -138l-69 -108l-154 59l72 117q8 14 14 28q-43 19 -69.5 60.5t-26.5 93.5q0 70 48 114t120 44z" />
    <glyph glyph-name="uni0337.case" 
d="M-793 385l-69 213l731 254l70 -213z" />
    <glyph glyph-name="uni0338.case" 
d="M-1384 -25l-199 187l1311 1366l196 -193z" />
    <glyph glyph-name="dieresis.case" horiz-adv-x="964" 
d="M272 1538q-88 0 -149.5 60t-61.5 153q0 91 63 149t155 58q88 0 148 -60.5t60 -152.5q0 -90 -61.5 -148.5t-153.5 -58.5zM797 1538q-88 0 -149.5 60t-61.5 153q0 91 62.5 149t154.5 58q88 0 148.5 -60.5t60.5 -152.5q0 -90 -61.5 -148.5t-153.5 -58.5z" />
    <glyph glyph-name="dotaccent.case" horiz-adv-x="391" 
d="M272 1538q-88 0 -149.5 60t-61.5 153q0 91 63 149t155 58q89 0 148.5 -60t59.5 -153q0 -90 -61.5 -148.5t-153.5 -58.5z" />
    <glyph glyph-name="grave.case" horiz-adv-x="741" 
d="M694 1522l-633 180l84 278l625 -213z" />
    <glyph glyph-name="acute.case" horiz-adv-x="741" 
d="M137 1522l-76 245l625 213l84 -278z" />
    <glyph glyph-name="hungarumlaut.case" horiz-adv-x="1185" 
d="M270 1505l-209 152l275 397l233 -172zM770 1505l-209 152l275 397l233 -172z" />
    <glyph glyph-name="circumflex.case" horiz-adv-x="964" 
d="M948 1550h-301l-143 168l-139 -168h-304l310 394h276z" />
    <glyph glyph-name="caron.case" horiz-adv-x="964" 
d="M647 1944h301l-301 -394h-276l-310 394h304l139 -168z" />
    <glyph glyph-name="breve.case" horiz-adv-x="872" 
d="M459 1550q-182 0 -290 110t-108 284h279q0 -64 32 -104t87 -40t88 40t33 104h276q0 -174 -107.5 -284t-289.5 -110z" />
    <glyph glyph-name="ring.case" horiz-adv-x="612" 
d="M348 1407q-127 0 -208 77t-81 199q0 119 81.5 197t207.5 78q127 0 208 -78t81 -197q0 -123 -80.5 -199.5t-208.5 -76.5zM348 1593q40 0 66 25t26 65q0 37 -26 61.5t-66 24.5q-41 0 -66.5 -24.5t-25.5 -61.5q0 -40 25.5 -65t66.5 -25z" />
    <glyph glyph-name="tilde.case" horiz-adv-x="991" 
d="M666 1559q-47 0 -88.5 15t-66.5 33t-57.5 33t-62.5 15q-78 0 -96 -84l-234 98q27 107 103 186.5t194 79.5q47 0 89.5 -15.5t68.5 -33.5t58 -33.5t61 -15.5q73 0 94 86l234 -98q-30 -113 -104.5 -189.5t-192.5 -76.5z" />
    <glyph glyph-name="macron.case" horiz-adv-x="892" 
d="M61 1610v278h775v-278h-775z" />
    <glyph glyph-name="IJacute" horiz-adv-x="1294" 
d="M35 1522l-76 245l625 213l84 -278zM756 1522l-76 245l625 213l84 -278zM121 0v1423h342v-1423h-342zM618 0v305h78q71 0 108.5 40t37.5 112v966h342v-970q0 -211 -117.5 -332t-341.5 -121h-107z" />
    <glyph glyph-name="ijacute" horiz-adv-x="1136" 
d="M72 1157l-135 217l505 332l154 -250zM678 1157l-135 219l506 330l153 -248zM98 0v1079h342v-1079h-342zM518 -379v291h21q72 0 115.5 46.5t43.5 127.5v993h340v-987q0 -219 -128 -345t-328 -126h-64z" />
    </font>
</defs>
</svg>
